<svg width="295" height="186" viewBox="0 0 295 186" fill="none" xmlns="http://www.w3.org/2000/svg">
<g clip-path="url(#clip0_1191_57632)">
<rect x="18.5791" y="43.9946" width="258.315" height="281.294" rx="6.33902" fill="white"/>
<rect x="18.9753" y="44.3908" width="257.523" height="280.501" rx="5.94283" stroke="#002026" stroke-opacity="0.1" stroke-width="0.792377"/>
<circle cx="146.152" cy="70.1432" r="2.37713" fill="#E9C300"/>
<path d="M151.898 72.8042L153.8 66.1482H155.606L157.498 72.8042H156.443L156.006 71.2353H153.4L152.963 72.8042H151.898ZM153.657 70.2844H155.749L154.779 66.7853H154.627L153.657 70.2844ZM159.737 72.8042L158.757 66.1482H159.784L160.583 72.1101H160.735L161.762 66.1482H163.559L164.586 72.1101H164.738L165.527 66.1482H166.554L165.575 72.8042H163.778L162.732 66.7568H162.58L161.543 72.8042H159.737ZM167.812 72.8042L169.713 66.1482H171.52L173.412 72.8042H172.357L171.919 71.2353H169.314L168.877 72.8042H167.812ZM169.571 70.2844H171.663L170.693 66.7853H170.541L169.571 70.2844ZM175.265 72.8042V66.1482H176.292V72.8042H175.265ZM180.218 72.8042V67.0801H178.174V66.1482H183.289V67.0801H181.245V72.8042H180.218ZM185.171 72.8042V66.1482H186.198V72.8042H185.171ZM188.536 72.8042V66.1482H190.514L192.32 72.1196H192.472V66.1482H193.49V72.8042H191.512L189.705 66.8233H189.553V72.8042H188.536ZM198.139 72.9373C197.664 72.9373 197.239 72.8359 196.865 72.633C196.491 72.4239 196.197 72.1196 195.981 71.7202C195.765 71.3209 195.658 70.8328 195.658 70.2559V68.6965C195.658 67.8281 195.895 67.1656 196.371 66.7092C196.846 66.2465 197.49 66.0151 198.301 66.0151C199.1 66.0151 199.715 66.2338 200.146 66.6712C200.577 67.1023 200.792 67.6823 200.792 68.4113V68.4588H199.775V68.3827C199.775 68.1102 199.721 67.8661 199.613 67.6506C199.505 67.4287 199.344 67.2544 199.128 67.1276C198.913 67.0008 198.637 66.9374 198.301 66.9374C197.794 66.9374 197.398 67.0927 197.113 67.4034C196.827 67.7076 196.685 68.1323 196.685 68.6775V70.2749C196.685 70.8137 196.827 71.2416 197.113 71.5586C197.398 71.8692 197.797 72.0245 198.311 72.0245C198.818 72.0245 199.189 71.885 199.423 71.6061C199.658 71.3272 199.775 70.9659 199.775 70.5222V70.3985H197.987V69.5142H200.792V72.8042H199.841V72.1291H199.689C199.632 72.2495 199.547 72.3731 199.433 72.4999C199.325 72.6267 199.166 72.7313 198.957 72.8137C198.754 72.8961 198.482 72.9373 198.139 72.9373ZM205.825 72.8042L207.727 66.1482H209.534L211.426 72.8042H210.37L209.933 71.2353H207.328L206.89 72.8042H205.825ZM207.584 70.2844H209.676L208.706 66.7853H208.554L207.584 70.2844ZM213.278 72.8042V66.1482H215.922C216.328 66.1482 216.689 66.2306 217.006 66.3955C217.329 66.5539 217.58 66.7821 217.757 67.0801C217.941 67.3717 218.033 67.7235 218.033 68.1355V68.2591C218.033 68.6712 217.938 69.0261 217.748 69.3241C217.564 69.622 217.313 69.8502 216.996 70.0087C216.679 70.1672 216.321 70.2464 215.922 70.2464H214.305V72.8042H213.278ZM214.305 69.3146H215.817C216.179 69.3146 216.467 69.2195 216.683 69.0293C216.898 68.8391 217.006 68.5792 217.006 68.2496V68.1545C217.006 67.8186 216.898 67.5555 216.683 67.3653C216.467 67.1752 216.179 67.0801 215.817 67.0801H214.305V69.3146ZM219.959 72.8042V66.1482H222.602C223.008 66.1482 223.369 66.2306 223.686 66.3955C224.009 66.5539 224.26 66.7821 224.437 67.0801C224.621 67.3717 224.713 67.7235 224.713 68.1355V68.2591C224.713 68.6712 224.618 69.0261 224.428 69.3241C224.244 69.622 223.993 69.8502 223.676 70.0087C223.359 70.1672 223.001 70.2464 222.602 70.2464H220.986V72.8042H219.959ZM220.986 69.3146H222.497C222.859 69.3146 223.147 69.2195 223.363 69.0293C223.578 68.8391 223.686 68.5792 223.686 68.2496V68.1545C223.686 67.8186 223.578 67.5555 223.363 67.3653C223.147 67.1752 222.859 67.0801 222.497 67.0801H220.986V69.3146ZM226.639 72.8042V66.1482H229.434C229.846 66.1482 230.208 66.2211 230.518 66.3669C230.835 66.5064 231.079 66.7092 231.25 66.9755C231.428 67.2417 231.517 67.5587 231.517 67.9263V68.0309C231.517 68.4493 231.415 68.7853 231.212 69.0388C231.016 69.286 230.775 69.4604 230.49 69.5618V69.7139C230.731 69.7266 230.924 69.809 231.07 69.9612C231.215 70.1069 231.288 70.3193 231.288 70.5982V72.8042H230.252V70.7408C230.252 70.5697 230.208 70.4334 230.119 70.332C230.03 70.2306 229.887 70.1798 229.691 70.1798H227.666V72.8042H226.639ZM227.666 69.248H229.32C229.688 69.248 229.973 69.1561 230.176 68.9723C230.379 68.7821 230.48 68.5254 230.48 68.2021V68.126C230.48 67.8027 230.379 67.5492 230.176 67.3653C229.979 67.1752 229.694 67.0801 229.32 67.0801H227.666V69.248ZM236.098 72.9373C235.28 72.9373 234.631 72.7091 234.149 72.2527C233.667 71.79 233.426 71.1244 233.426 70.2559V68.6965C233.426 67.8281 233.667 67.1656 234.149 66.7092C234.631 66.2465 235.28 66.0151 236.098 66.0151C236.916 66.0151 237.566 66.2465 238.047 66.7092C238.535 67.1656 238.78 67.8281 238.78 68.6965V70.2559C238.78 71.1244 238.535 71.79 238.047 72.2527C237.566 72.7091 236.916 72.9373 236.098 72.9373ZM236.098 72.015C236.624 72.015 237.03 71.8629 237.315 71.5586C237.6 71.248 237.743 70.8264 237.743 70.2939V68.6585C237.743 68.126 237.6 67.7076 237.315 67.4034C237.03 67.0927 236.624 66.9374 236.098 66.9374C235.585 66.9374 235.182 67.0927 234.891 67.4034C234.599 67.7076 234.453 68.126 234.453 68.6585V70.2939C234.453 70.8264 234.599 71.248 234.891 71.5586C235.182 71.8629 235.585 72.015 236.098 72.015ZM242.167 72.8042L240.312 66.1482H241.377L242.994 72.1576H243.117L244.724 66.1482H245.789L243.945 72.8042H242.167ZM246.686 72.8042L248.588 66.1482H250.394L252.287 72.8042H251.231L250.794 71.2353H248.188L247.751 72.8042H246.686ZM248.445 70.2844H250.537L249.567 66.7853H249.415L248.445 70.2844ZM254.139 72.8042V66.1482H255.166V71.8724H258.37V72.8042H254.139Z" fill="#E9C300"/>
<path d="M38.4055 74.0118V66.2465H39.6036V72.9247H43.342V74.0118H38.4055ZM47.0138 74.1671C46.4665 74.1671 45.9784 74.0562 45.5495 73.8343C45.128 73.6051 44.7952 73.2797 44.5511 72.8581C44.307 72.4366 44.185 71.9374 44.185 71.3605V71.1941C44.185 70.6173 44.307 70.1218 44.5511 69.7076C44.7952 69.2861 45.128 68.9607 45.5495 68.7314C45.9784 68.5022 46.4665 68.3875 47.0138 68.3875C47.5611 68.3875 48.0492 68.5022 48.4781 68.7314C48.9071 68.9607 49.2436 69.2861 49.4876 69.7076C49.7317 70.1218 49.8537 70.6173 49.8537 71.1941V71.3605C49.8537 71.9374 49.7317 72.4366 49.4876 72.8581C49.2436 73.2797 48.9071 73.6051 48.4781 73.8343C48.0492 74.0562 47.5611 74.1671 47.0138 74.1671ZM47.0138 73.1466C47.5167 73.1466 47.9235 72.9876 48.2341 72.6696C48.5521 72.3442 48.7111 71.8967 48.7111 71.3273V71.2274C48.7111 70.658 48.5558 70.2142 48.2452 69.8962C47.9346 69.5708 47.5241 69.4081 47.0138 69.4081C46.5183 69.4081 46.1116 69.5708 45.7935 69.8962C45.4829 70.2142 45.3276 70.658 45.3276 71.2274V71.3273C45.3276 71.8967 45.4829 72.3442 45.7935 72.6696C46.1116 72.9876 46.5183 73.1466 47.0138 73.1466ZM52.9735 74.1671C52.5815 74.1671 52.2302 74.1006 51.9196 73.9675C51.6164 73.8343 51.3724 73.6384 51.1875 73.3795C51.01 73.1207 50.9212 72.8064 50.9212 72.4366C50.9212 72.0594 51.01 71.7488 51.1875 71.5048C51.3724 71.2533 51.6201 71.0647 51.9307 70.939C52.2487 70.8133 52.6074 70.7504 53.0068 70.7504H54.6708V70.3954C54.6708 70.0774 54.5746 69.8223 54.3823 69.63C54.1901 69.4377 53.8942 69.3416 53.4949 69.3416C53.1029 69.3416 52.8034 69.434 52.5963 69.6189C52.3893 69.8038 52.2524 70.0441 52.1859 70.34L51.1209 69.9961C51.2097 69.7003 51.3502 69.434 51.5425 69.1974C51.7421 68.9533 52.0047 68.7573 52.3301 68.6094C52.6555 68.4615 53.0475 68.3875 53.506 68.3875C54.2159 68.3875 54.7743 68.5687 55.1811 68.9311C55.5878 69.2935 55.7912 69.8075 55.7912 70.4731V72.725C55.7912 72.9469 55.8947 73.0578 56.1018 73.0578H56.5677V74.0118H55.7135C55.4547 74.0118 55.2439 73.9453 55.0812 73.8122C54.9185 73.679 54.8372 73.4979 54.8372 73.2686V73.2353H54.6708C54.6116 73.3462 54.5229 73.4757 54.4045 73.6236C54.2862 73.7715 54.1124 73.9009 53.8831 74.0118C53.6539 74.1154 53.3507 74.1671 52.9735 74.1671ZM53.1399 73.2242C53.5984 73.2242 53.9682 73.0948 54.2492 72.836C54.5303 72.5697 54.6708 72.2073 54.6708 71.7488V71.6379H53.0733C52.7701 71.6379 52.5261 71.7044 52.3412 71.8376C52.1563 71.9633 52.0639 72.1519 52.0639 72.4033C52.0639 72.6548 52.16 72.8544 52.3523 73.0024C52.5446 73.1503 52.8071 73.2242 53.1399 73.2242ZM57.6787 74.0118V68.5429H58.7991V69.3638H58.9766C59.0801 69.1419 59.265 68.9348 59.5313 68.7425C59.7975 68.5502 60.1932 68.4541 60.7183 68.4541C61.1324 68.4541 61.4985 68.5466 61.8165 68.7314C62.1419 68.9163 62.397 69.1789 62.5819 69.5191C62.7668 69.8519 62.8593 70.2549 62.8593 70.7282V74.0118H61.7167V70.817C61.7167 70.3437 61.5983 69.9961 61.3617 69.7742C61.125 69.5449 60.7996 69.4303 60.3855 69.4303C59.9121 69.4303 59.5313 69.5856 59.2428 69.8962C58.9618 70.2068 58.8213 70.658 58.8213 71.2496V74.0118H57.6787ZM67.0056 71.6933V70.6506H70.2892V71.6933H67.0056ZM73.7193 74.0118L75.938 66.2465H78.0457L80.2533 74.0118H79.0219L78.5116 72.1814H75.4721L74.9618 74.0118H73.7193ZM75.7716 71.0721H78.2121L77.0806 66.9898H76.9031L75.7716 71.0721ZM81.0169 74.0118V72.9469H82.0596V67.3115H81.0169V66.2465H84.123C85.1584 66.2465 85.9497 66.5091 86.497 67.0342C87.0516 67.5593 87.3289 68.3506 87.3289 69.4081V70.8613C87.3289 71.9189 87.0516 72.7102 86.497 73.2353C85.9497 73.753 85.1584 74.0118 84.123 74.0118H81.0169ZM83.2688 72.9247H84.1341C84.8071 72.9247 85.3063 72.7546 85.6317 72.4144C85.9571 72.0742 86.1198 71.5676 86.1198 70.8946V69.3638C86.1198 68.6834 85.9571 68.1768 85.6317 67.844C85.3063 67.5112 84.8071 67.3448 84.1341 67.3448H83.2688V72.9247ZM91.2453 74.1671C90.6759 74.1671 90.1693 74.0636 89.7255 73.8565C89.2818 73.6495 88.9342 73.3499 88.6828 72.958C88.4387 72.566 88.3167 72.1001 88.3167 71.5602V71.3605H89.4815V71.538C89.4815 72.0261 89.6405 72.4144 89.9585 72.7028C90.2839 72.9839 90.7128 73.1244 91.2453 73.1244C91.7778 73.1244 92.1919 72.9913 92.4878 72.725C92.7836 72.4588 92.9315 72.1223 92.9315 71.7155V71.6157C92.9315 71.3273 92.8612 71.0943 92.7207 70.9168C92.5802 70.7393 92.3916 70.6099 92.155 70.5286C91.9183 70.4398 91.6521 70.3954 91.3562 70.3954H89.9474V69.0531L92.6763 67.4446V67.2893H88.5053V66.2465H93.941V67.8218L91.3341 69.3749V69.5302H91.8111C92.203 69.5302 92.5728 69.6041 92.9204 69.752C93.268 69.8999 93.549 70.1255 93.7635 70.4287C93.9853 70.7319 94.0963 71.1165 94.0963 71.5824V71.7155C94.0963 72.211 93.978 72.6437 93.7413 73.0134C93.5046 73.3758 93.1718 73.6606 92.7429 73.8676C92.314 74.0673 91.8148 74.1671 91.2453 74.1671ZM98.8491 74.0118V72.4255H94.9221V71.0721L97.8951 66.2465H100.014V71.3938H101.323V72.4255H100.014V74.0118H98.8491ZM96.0536 71.3938H98.8491V66.9787H98.6717L96.0536 71.2385V71.3938ZM101.821 74.0118L104.039 66.2465H106.147L108.355 74.0118H107.123L106.613 72.1814H103.574L103.063 74.0118H101.821ZM103.873 71.0721H106.314L105.182 66.9898H105.005L103.873 71.0721Z" fill="#002026" fill-opacity="0.6"/>
<rect x="37.5957" y="93.1221" width="220.281" height="214.734" rx="6.33902" fill="white"/>
<rect x="37.9919" y="93.5183" width="219.488" height="213.942" rx="5.94283" stroke="#002026" stroke-opacity="0.1" stroke-width="0.792377"/>
<line x1="56.6123" y1="163.247" x2="238.859" y2="163.247" stroke="#002026" stroke-opacity="0.1" stroke-width="0.792377"/>
<path d="M76.4397 119.969V112.204H77.6378V118.882H81.3762V119.969H76.4397ZM85.048 120.125C84.5007 120.125 84.0126 120.014 83.5837 119.792C83.1621 119.563 82.8293 119.237 82.5853 118.816C82.3412 118.394 82.2192 117.895 82.2192 117.318V117.152C82.2192 116.575 82.3412 116.079 82.5853 115.665C82.8293 115.244 83.1621 114.918 83.5837 114.689C84.0126 114.46 84.5007 114.345 85.048 114.345C85.5953 114.345 86.0834 114.46 86.5123 114.689C86.9412 114.918 87.2777 115.244 87.5218 115.665C87.7658 116.079 87.8879 116.575 87.8879 117.152V117.318C87.8879 117.895 87.7658 118.394 87.5218 118.816C87.2777 119.237 86.9412 119.563 86.5123 119.792C86.0834 120.014 85.5953 120.125 85.048 120.125ZM85.048 119.104C85.5509 119.104 85.9576 118.945 86.2682 118.627C86.5863 118.302 86.7453 117.854 86.7453 117.285V117.185C86.7453 116.616 86.59 116.172 86.2793 115.854C85.9687 115.528 85.5583 115.366 85.048 115.366C84.5525 115.366 84.1457 115.528 83.8277 115.854C83.5171 116.172 83.3618 116.616 83.3618 117.185V117.285C83.3618 117.854 83.5171 118.302 83.8277 118.627C84.1457 118.945 84.5525 119.104 85.048 119.104ZM91.0077 120.125C90.6157 120.125 90.2644 120.058 89.9538 119.925C89.6506 119.792 89.4065 119.596 89.2217 119.337C89.0442 119.078 88.9554 118.764 88.9554 118.394C88.9554 118.017 89.0442 117.706 89.2217 117.462C89.4065 117.211 89.6543 117.022 89.9649 116.897C90.2829 116.771 90.6416 116.708 91.041 116.708H92.705V116.353C92.705 116.035 92.6088 115.78 92.4165 115.588C92.2242 115.395 91.9284 115.299 91.5291 115.299C91.1371 115.299 90.8376 115.392 90.6305 115.577C90.4234 115.761 90.2866 116.002 90.2201 116.298L89.1551 115.954C89.2438 115.658 89.3844 115.392 89.5766 115.155C89.7763 114.911 90.0389 114.715 90.3643 114.567C90.6897 114.419 91.0816 114.345 91.5402 114.345C92.2501 114.345 92.8085 114.526 93.2152 114.889C93.622 115.251 93.8254 115.765 93.8254 116.431V118.683C93.8254 118.905 93.9289 119.015 94.136 119.015H94.6019V119.969H93.7477C93.4889 119.969 93.2781 119.903 93.1154 119.77C92.9527 119.637 92.8714 119.455 92.8714 119.226V119.193H92.705C92.6458 119.304 92.557 119.433 92.4387 119.581C92.3204 119.729 92.1466 119.859 91.9173 119.969C91.6881 120.073 91.3849 120.125 91.0077 120.125ZM91.1741 119.182C91.6326 119.182 92.0024 119.052 92.2834 118.794C92.5644 118.527 92.705 118.165 92.705 117.706V117.596H91.1075C90.8043 117.596 90.5603 117.662 90.3754 117.795C90.1905 117.921 90.098 118.11 90.098 118.361C90.098 118.612 90.1942 118.812 90.3865 118.96C90.5787 119.108 90.8413 119.182 91.1741 119.182ZM95.7129 119.969V114.5H96.8333V115.321H97.0108C97.1143 115.1 97.2992 114.892 97.5655 114.7C97.8317 114.508 98.2274 114.412 98.7524 114.412C99.1666 114.412 99.5327 114.504 99.8507 114.689C100.176 114.874 100.431 115.137 100.616 115.477C100.801 115.81 100.893 116.213 100.893 116.686V119.969H99.7508V116.775C99.7508 116.301 99.6325 115.954 99.3958 115.732C99.1592 115.503 98.8338 115.388 98.4196 115.388C97.9463 115.388 97.5655 115.543 97.277 115.854C96.996 116.164 96.8555 116.616 96.8555 117.207V119.969H95.7129ZM107.063 120.125C106.671 120.125 106.319 120.058 106.009 119.925C105.706 119.792 105.461 119.596 105.277 119.337C105.099 119.078 105.01 118.764 105.01 118.394C105.01 118.017 105.099 117.706 105.277 117.462C105.461 117.211 105.709 117.022 106.02 116.897C106.338 116.771 106.697 116.708 107.096 116.708H108.76V116.353C108.76 116.035 108.664 115.78 108.471 115.588C108.279 115.395 107.983 115.299 107.584 115.299C107.192 115.299 106.893 115.392 106.685 115.577C106.478 115.761 106.342 116.002 106.275 116.298L105.21 115.954C105.299 115.658 105.439 115.392 105.632 115.155C105.831 114.911 106.094 114.715 106.419 114.567C106.745 114.419 107.137 114.345 107.595 114.345C108.305 114.345 108.863 114.526 109.27 114.889C109.677 115.251 109.88 115.765 109.88 116.431V118.683C109.88 118.905 109.984 119.015 110.191 119.015H110.657V119.969H109.803C109.544 119.969 109.333 119.903 109.17 119.77C109.008 119.637 108.926 119.455 108.926 119.226V119.193H108.76C108.701 119.304 108.612 119.433 108.494 119.581C108.375 119.729 108.202 119.859 107.972 119.969C107.743 120.073 107.44 120.125 107.063 120.125ZM107.229 119.182C107.688 119.182 108.057 119.052 108.338 118.794C108.619 118.527 108.76 118.165 108.76 117.706V117.596H107.162C106.859 117.596 106.615 117.662 106.43 117.795C106.245 117.921 106.153 118.11 106.153 118.361C106.153 118.612 106.249 118.812 106.441 118.96C106.634 119.108 106.896 119.182 107.229 119.182ZM111.768 119.969V114.5H112.888V115.144H113.066C113.169 114.952 113.336 114.782 113.565 114.634C113.794 114.486 114.105 114.412 114.497 114.412C114.903 114.412 115.229 114.497 115.473 114.667C115.724 114.83 115.913 115.04 116.039 115.299H116.216C116.342 115.048 116.523 114.837 116.76 114.667C117.004 114.497 117.348 114.412 117.791 114.412C118.146 114.412 118.461 114.486 118.734 114.634C119.008 114.774 119.226 114.989 119.389 115.277C119.552 115.558 119.633 115.909 119.633 116.331V119.969H118.49V116.42C118.49 116.087 118.398 115.832 118.213 115.654C118.035 115.469 117.78 115.377 117.448 115.377C117.093 115.377 116.808 115.491 116.593 115.721C116.379 115.95 116.272 116.279 116.272 116.708V119.969H115.129V116.42C115.129 116.087 115.037 115.832 114.852 115.654C114.674 115.469 114.419 115.377 114.086 115.377C113.731 115.377 113.447 115.491 113.232 115.721C113.018 115.95 112.91 116.279 112.91 116.708V119.969H111.768ZM123.842 120.125C123.295 120.125 122.807 120.014 122.378 119.792C121.956 119.563 121.623 119.237 121.379 118.816C121.135 118.394 121.013 117.895 121.013 117.318V117.152C121.013 116.575 121.135 116.079 121.379 115.665C121.623 115.244 121.956 114.918 122.378 114.689C122.807 114.46 123.295 114.345 123.842 114.345C124.389 114.345 124.877 114.46 125.306 114.689C125.735 114.918 126.072 115.244 126.316 115.665C126.56 116.079 126.682 116.575 126.682 117.152V117.318C126.682 117.895 126.56 118.394 126.316 118.816C126.072 119.237 125.735 119.563 125.306 119.792C124.877 120.014 124.389 120.125 123.842 120.125ZM123.842 119.104C124.345 119.104 124.752 118.945 125.062 118.627C125.38 118.302 125.539 117.854 125.539 117.285V117.185C125.539 116.616 125.384 116.172 125.073 115.854C124.763 115.528 124.352 115.366 123.842 115.366C123.346 115.366 122.94 115.528 122.622 115.854C122.311 116.172 122.156 116.616 122.156 117.185V117.285C122.156 117.854 122.311 118.302 122.622 118.627C122.94 118.945 123.346 119.104 123.842 119.104ZM130.201 120.069C129.787 120.069 129.417 119.977 129.092 119.792C128.766 119.607 128.511 119.345 128.326 119.004C128.141 118.664 128.049 118.257 128.049 117.784V114.5H129.192V117.706C129.192 118.18 129.31 118.531 129.547 118.76C129.783 118.982 130.112 119.093 130.534 119.093C131 119.093 131.373 118.938 131.654 118.627C131.943 118.309 132.087 117.854 132.087 117.263V114.5H133.229V119.969H132.109V119.149H131.932C131.828 119.37 131.643 119.581 131.377 119.781C131.111 119.973 130.719 120.069 130.201 120.069ZM134.919 119.969V114.5H136.039V115.321H136.216C136.32 115.1 136.505 114.892 136.771 114.7C137.037 114.508 137.433 114.412 137.958 114.412C138.372 114.412 138.738 114.504 139.056 114.689C139.382 114.874 139.637 115.137 139.822 115.477C140.007 115.81 140.099 116.213 140.099 116.686V119.969H138.956V116.775C138.956 116.301 138.838 115.954 138.601 115.732C138.365 115.503 138.039 115.388 137.625 115.388C137.152 115.388 136.771 115.543 136.483 115.854C136.202 116.164 136.061 116.616 136.061 117.207V119.969H134.919ZM143.644 119.969C143.311 119.969 143.045 119.87 142.845 119.67C142.653 119.47 142.557 119.204 142.557 118.871V115.466H141.048V114.5H142.557V112.692H143.7V114.5H145.33V115.466H143.7V118.672C143.7 118.893 143.803 119.004 144.01 119.004H145.153V119.969H143.644Z" fill="#002026" fill-opacity="0.6"/>
<rect x="56.6133" y="111.347" width="9.50852" height="9.50852" rx="3.16951" fill="#1BC1BF"/>
<path d="M60.5561 141.749C59.8884 141.749 59.2968 141.63 58.7812 141.394C58.2657 141.157 57.86 140.81 57.5641 140.354C57.2768 139.889 57.1331 139.327 57.1331 138.668V138.351H58.4896V138.668C58.4896 139.293 58.6756 139.762 59.0475 140.075C59.4278 140.388 59.9307 140.544 60.5561 140.544C61.1901 140.544 61.6676 140.413 61.9888 140.151C62.3099 139.881 62.4705 139.534 62.4705 139.112C62.4705 138.833 62.3945 138.605 62.2423 138.427C62.0986 138.25 61.8873 138.11 61.6084 138.009C61.3295 137.899 60.9957 137.797 60.6069 137.704L60.1378 137.59C59.5715 137.455 59.0813 137.29 58.6671 137.096C58.253 136.893 57.9318 136.627 57.7036 136.297C57.4754 135.967 57.3613 135.545 57.3613 135.029C57.3613 134.505 57.4881 134.057 57.7416 133.685C57.9952 133.314 58.3502 133.026 58.8066 132.823C59.263 132.62 59.7997 132.519 60.4167 132.519C61.0337 132.519 61.5831 132.625 62.0648 132.836C62.5551 133.047 62.9396 133.36 63.2185 133.774C63.5059 134.188 63.6496 134.708 63.6496 135.334V135.79H62.293V135.334C62.293 134.953 62.2127 134.645 62.0522 134.408C61.9 134.171 61.6803 133.998 61.3929 133.888C61.114 133.778 60.7886 133.723 60.4167 133.723C59.8758 133.723 59.4574 133.838 59.1616 134.066C58.8657 134.286 58.7178 134.594 58.7178 134.991C58.7178 135.262 58.7812 135.486 58.908 135.663C59.0432 135.832 59.2376 135.972 59.4912 136.082C59.7448 136.191 60.0575 136.289 60.4294 136.373L60.8985 136.487C61.4732 136.614 61.9803 136.779 62.4198 136.982C62.8593 137.176 63.2016 137.442 63.4467 137.78C63.7003 138.119 63.8271 138.554 63.8271 139.086C63.8271 139.619 63.6918 140.084 63.4214 140.481C63.1594 140.878 62.7833 141.191 62.293 141.419C61.8028 141.639 61.2239 141.749 60.5561 141.749ZM59.9222 143.042V131.226H61.1774V143.042H59.9222ZM71.4245 141.749C70.7737 141.749 70.1947 141.63 69.6876 141.394C69.1805 141.157 68.7832 140.815 68.4959 140.367C68.2169 139.919 68.0775 139.386 68.0775 138.769V138.541H69.4087V138.744C69.4087 139.302 69.5904 139.746 69.9538 140.075C70.3257 140.396 70.8159 140.557 71.4245 140.557C72.033 140.557 72.5064 140.405 72.8444 140.101C73.1825 139.796 73.3516 139.412 73.3516 138.947V138.833C73.3516 138.503 73.2713 138.237 73.1107 138.034C72.9501 137.831 72.7346 137.683 72.4641 137.59C72.1936 137.489 71.8894 137.438 71.5513 137.438H69.9412V135.904L73.06 134.066V133.888H68.293V132.697H74.5053V134.497L71.5259 136.272V136.449H72.0711C72.519 136.449 72.9416 136.534 73.3389 136.703C73.7361 136.872 74.0573 137.13 74.3024 137.476C74.556 137.823 74.6827 138.262 74.6827 138.795V138.947C74.6827 139.513 74.5475 140.008 74.277 140.43C74.0066 140.844 73.6262 141.17 73.136 141.406C72.6458 141.635 72.0753 141.749 71.4245 141.749ZM76.2351 143.295V142.547H76.6662C77.0127 142.547 77.186 142.374 77.186 142.028V141.622H76.9958C76.7 141.622 76.4549 141.533 76.2605 141.356C76.0661 141.178 75.9689 140.954 75.9689 140.684C75.9689 140.388 76.0661 140.151 76.2605 139.974C76.4549 139.788 76.7 139.695 76.9958 139.695C77.2916 139.695 77.5325 139.792 77.7184 139.986C77.9128 140.172 78.01 140.417 78.01 140.722V142.04C78.01 142.877 77.5917 143.295 76.7549 143.295H76.2351ZM83.5812 141.571V139.758H79.0932V138.211L82.4909 132.697H84.9124V138.579H86.4084V139.758H84.9124V141.571H83.5812ZM80.3864 138.579H83.5812V133.533H83.3784L80.3864 138.402V138.579ZM90.7936 141.749C89.7624 141.749 88.9383 141.457 88.3213 140.874C87.7128 140.282 87.4085 139.395 87.4085 138.211V136.056C87.4085 134.898 87.7128 134.019 88.3213 133.419C88.9383 132.819 89.7624 132.519 90.7936 132.519C91.8332 132.519 92.6572 132.819 93.2658 133.419C93.8828 134.019 94.1913 134.898 94.1913 136.056V138.211C94.1913 139.395 93.8828 140.282 93.2658 140.874C92.6572 141.457 91.8332 141.749 90.7936 141.749ZM90.7936 140.557C91.4951 140.557 92.0149 140.358 92.353 139.961C92.691 139.555 92.8601 138.989 92.8601 138.262V135.98C92.8601 135.253 92.6784 134.695 92.3149 134.307C91.9515 133.909 91.4444 133.711 90.7936 133.711C90.1343 133.711 89.6272 133.914 89.2722 134.319C88.9172 134.717 88.7397 135.27 88.7397 135.98V138.262C88.7397 139.006 88.9088 139.576 89.2468 139.974C89.5934 140.363 90.1089 140.557 90.7936 140.557ZM98.9649 141.749C97.9338 141.749 97.1097 141.457 96.4927 140.874C95.8842 140.282 95.5799 139.395 95.5799 138.211V136.056C95.5799 134.898 95.8842 134.019 96.4927 133.419C97.1097 132.819 97.9338 132.519 98.9649 132.519C100.005 132.519 100.829 132.819 101.437 133.419C102.054 134.019 102.363 134.898 102.363 136.056V138.211C102.363 139.395 102.054 140.282 101.437 140.874C100.829 141.457 100.005 141.749 98.9649 141.749ZM98.9649 140.557C99.6665 140.557 100.186 140.358 100.524 139.961C100.862 139.555 101.031 138.989 101.031 138.262V135.98C101.031 135.253 100.85 134.695 100.486 134.307C100.123 133.909 99.6157 133.711 98.9649 133.711C98.3057 133.711 97.7986 133.914 97.4436 134.319C97.0886 134.717 96.9111 135.27 96.9111 135.98V138.262C96.9111 139.006 97.0801 139.576 97.4182 139.974C97.7648 140.363 98.2803 140.557 98.9649 140.557ZM104.63 141.749C104.334 141.749 104.085 141.651 103.882 141.457C103.688 141.263 103.591 141.013 103.591 140.709C103.591 140.405 103.688 140.16 103.882 139.974C104.085 139.779 104.334 139.682 104.63 139.682C104.926 139.682 105.171 139.779 105.366 139.974C105.568 140.168 105.67 140.413 105.67 140.709C105.67 141.013 105.568 141.263 105.366 141.457C105.171 141.651 104.926 141.749 104.63 141.749ZM110.293 141.749C109.262 141.749 108.438 141.457 107.821 140.874C107.213 140.282 106.908 139.395 106.908 138.211V136.056C106.908 134.898 107.213 134.019 107.821 133.419C108.438 132.819 109.262 132.519 110.293 132.519C111.333 132.519 112.157 132.819 112.766 133.419C113.383 134.019 113.691 134.898 113.691 136.056V138.211C113.691 139.395 113.383 140.282 112.766 140.874C112.157 141.457 111.333 141.749 110.293 141.749ZM110.293 140.557C110.995 140.557 111.515 140.358 111.853 139.961C112.191 139.555 112.36 138.989 112.36 138.262V135.98C112.36 135.253 112.178 134.695 111.815 134.307C111.451 133.909 110.944 133.711 110.293 133.711C109.634 133.711 109.127 133.914 108.772 134.319C108.417 134.717 108.24 135.27 108.24 135.98V138.262C108.24 139.006 108.409 139.576 108.747 139.974C109.093 140.363 109.609 140.557 110.293 140.557ZM118.465 141.749C117.434 141.749 116.61 141.457 115.993 140.874C115.384 140.282 115.08 139.395 115.08 138.211V136.056C115.08 134.898 115.384 134.019 115.993 133.419C116.61 132.819 117.434 132.519 118.465 132.519C119.504 132.519 120.329 132.819 120.937 133.419C121.554 134.019 121.863 134.898 121.863 136.056V138.211C121.863 139.395 121.554 140.282 120.937 140.874C120.329 141.457 119.504 141.749 118.465 141.749ZM118.465 140.557C119.166 140.557 119.686 140.358 120.024 139.961C120.362 139.555 120.531 138.989 120.531 138.262V135.98C120.531 135.253 120.35 134.695 119.986 134.307C119.623 133.909 119.116 133.711 118.465 133.711C117.806 133.711 117.298 133.914 116.943 134.319C116.588 134.717 116.411 135.27 116.411 135.98V138.262C116.411 139.006 116.58 139.576 116.918 139.974C117.265 140.363 117.78 140.557 118.465 140.557Z" fill="#002026"/>
<path d="M76.4397 190.491V182.726H79.5236C79.9969 182.726 80.4185 182.822 80.7883 183.014C81.1654 183.199 81.4576 183.465 81.6646 183.813C81.8791 184.153 81.9863 184.564 81.9863 185.044V185.189C81.9863 185.669 81.8754 186.083 81.6535 186.431C81.4391 186.779 81.1469 187.045 80.7772 187.23C80.4074 187.415 79.9895 187.507 79.5236 187.507H77.6378V190.491H76.4397ZM77.6378 186.42H79.4016C79.8231 186.42 80.1596 186.309 80.4111 186.087C80.6625 185.865 80.7883 185.562 80.7883 185.177V185.066C80.7883 184.675 80.6625 184.368 80.4111 184.146C80.1596 183.924 79.8231 183.813 79.4016 183.813H77.6378V186.42ZM84.7352 190.646C84.3432 190.646 83.992 190.58 83.6813 190.447C83.3781 190.314 83.1341 190.118 82.9492 189.859C82.7717 189.6 82.683 189.286 82.683 188.916C82.683 188.539 82.7717 188.228 82.9492 187.984C83.1341 187.733 83.3818 187.544 83.6924 187.418C84.0104 187.293 84.3691 187.23 84.7685 187.23H86.4325V186.875C86.4325 186.557 86.3363 186.302 86.1441 186.109C85.9518 185.917 85.656 185.821 85.2566 185.821C84.8646 185.821 84.5651 185.913 84.358 186.098C84.151 186.283 84.0141 186.523 83.9476 186.819L82.8826 186.475C82.9714 186.18 83.1119 185.913 83.3042 185.677C83.5039 185.433 83.7664 185.237 84.0918 185.089C84.4172 184.941 84.8092 184.867 85.2677 184.867C85.9777 184.867 86.536 185.048 86.9428 185.41C87.3495 185.773 87.5529 186.287 87.5529 186.952V189.204C87.5529 189.426 87.6564 189.537 87.8635 189.537H88.3294V190.491H87.4753C87.2164 190.491 87.0056 190.425 86.8429 190.291C86.6802 190.158 86.5989 189.977 86.5989 189.748V189.715H86.4325C86.3733 189.825 86.2846 189.955 86.1662 190.103C86.0479 190.251 85.8741 190.38 85.6449 190.491C85.4156 190.595 85.1124 190.646 84.7352 190.646ZM84.9016 189.703C85.3601 189.703 85.7299 189.574 86.0109 189.315C86.292 189.049 86.4325 188.687 86.4325 188.228V188.117H84.8351C84.5318 188.117 84.2878 188.184 84.1029 188.317C83.918 188.443 83.8256 188.631 83.8256 188.883C83.8256 189.134 83.9217 189.334 84.114 189.482C84.3063 189.63 84.5688 189.703 84.9016 189.703ZM89.9319 192.71V191.711H92.9825C93.1896 191.711 93.2932 191.6 93.2932 191.379V189.692H93.1157C93.0491 189.84 92.9456 189.984 92.8051 190.125C92.6719 190.258 92.4907 190.369 92.2615 190.458C92.0322 190.547 91.7438 190.591 91.3962 190.591C90.9821 190.591 90.6123 190.498 90.2869 190.314C89.9615 190.129 89.7063 189.866 89.5214 189.526C89.3366 189.186 89.2441 188.783 89.2441 188.317V185.022H90.3867V188.228C90.3867 188.701 90.505 189.053 90.7417 189.282C90.9784 189.504 91.3075 189.615 91.729 189.615C92.1949 189.615 92.5684 189.459 92.8494 189.149C93.1378 188.838 93.2821 188.387 93.2821 187.795V185.022H94.4247V191.612C94.4247 191.944 94.3248 192.211 94.1252 192.41C93.9329 192.61 93.6666 192.71 93.3264 192.71H89.9319ZM99.2753 190.646C98.7428 190.646 98.3324 190.55 98.0439 190.358C97.7629 190.166 97.5521 189.951 97.4116 189.715H97.2341V190.491H96.1137V182.726H97.2563V185.765H97.4338C97.5226 185.617 97.6409 185.477 97.7888 185.344C97.9367 185.203 98.1327 185.089 98.3767 185C98.6208 184.911 98.9203 184.867 99.2753 184.867C99.7338 184.867 100.155 184.978 100.54 185.2C100.924 185.421 101.231 185.743 101.461 186.165C101.69 186.586 101.805 187.089 101.805 187.673V187.84C101.805 188.431 101.686 188.938 101.45 189.36C101.22 189.774 100.913 190.092 100.529 190.314C100.152 190.535 99.7338 190.646 99.2753 190.646ZM98.9425 189.648C99.438 189.648 99.8447 189.489 100.163 189.171C100.488 188.853 100.651 188.398 100.651 187.807V187.707C100.651 187.122 100.492 186.671 100.174 186.353C99.8558 186.035 99.4454 185.876 98.9425 185.876C98.4544 185.876 98.0476 186.035 97.7222 186.353C97.4042 186.671 97.2452 187.122 97.2452 187.707V187.807C97.2452 188.398 97.4042 188.853 97.7222 189.171C98.0476 189.489 98.4544 189.648 98.9425 189.648ZM104.918 190.646C104.526 190.646 104.174 190.58 103.864 190.447C103.561 190.314 103.316 190.118 103.132 189.859C102.954 189.6 102.865 189.286 102.865 188.916C102.865 188.539 102.954 188.228 103.132 187.984C103.316 187.733 103.564 187.544 103.875 187.418C104.193 187.293 104.552 187.23 104.951 187.23H106.615V186.875C106.615 186.557 106.519 186.302 106.326 186.109C106.134 185.917 105.838 185.821 105.439 185.821C105.047 185.821 104.748 185.913 104.54 186.098C104.333 186.283 104.197 186.523 104.13 186.819L103.065 186.475C103.154 186.18 103.294 185.913 103.487 185.677C103.686 185.433 103.949 185.237 104.274 185.089C104.6 184.941 104.992 184.867 105.45 184.867C106.16 184.867 106.718 185.048 107.125 185.41C107.532 185.773 107.735 186.287 107.735 186.952V189.204C107.735 189.426 107.839 189.537 108.046 189.537H108.512V190.491H107.658C107.399 190.491 107.188 190.425 107.025 190.291C106.863 190.158 106.781 189.977 106.781 189.748V189.715H106.615C106.556 189.825 106.467 189.955 106.349 190.103C106.23 190.251 106.057 190.38 105.827 190.491C105.598 190.595 105.295 190.646 104.918 190.646ZM105.084 189.703C105.543 189.703 105.912 189.574 106.193 189.315C106.474 189.049 106.615 188.687 106.615 188.228V188.117H105.017C104.714 188.117 104.47 188.184 104.285 188.317C104.1 188.443 104.008 188.631 104.008 188.883C104.008 189.134 104.104 189.334 104.296 189.482C104.489 189.63 104.751 189.703 105.084 189.703ZM112.033 190.646C111.508 190.646 111.031 190.535 110.602 190.314C110.181 190.092 109.844 189.77 109.593 189.348C109.349 188.927 109.227 188.42 109.227 187.829V187.684C109.227 187.093 109.349 186.59 109.593 186.176C109.844 185.754 110.181 185.433 110.602 185.211C111.031 184.981 111.508 184.867 112.033 184.867C112.558 184.867 113.006 184.963 113.375 185.155C113.745 185.348 114.041 185.603 114.263 185.921C114.492 186.239 114.64 186.59 114.707 186.975L113.597 187.207C113.56 186.963 113.483 186.742 113.364 186.542C113.246 186.342 113.08 186.183 112.865 186.065C112.651 185.947 112.381 185.887 112.055 185.887C111.737 185.887 111.449 185.961 111.19 186.109C110.939 186.25 110.739 186.457 110.591 186.73C110.443 186.997 110.369 187.322 110.369 187.707V187.807C110.369 188.191 110.443 188.52 110.591 188.794C110.739 189.067 110.939 189.275 111.19 189.415C111.449 189.556 111.737 189.626 112.055 189.626C112.536 189.626 112.902 189.504 113.154 189.26C113.405 189.008 113.564 188.69 113.631 188.306L114.74 188.561C114.651 188.938 114.492 189.286 114.263 189.604C114.041 189.922 113.745 190.177 113.375 190.369C113.006 190.554 112.558 190.646 112.033 190.646ZM116.058 190.491V182.726H117.2V187.152H117.378L119.53 185.022H121.05L118.288 187.673L121.138 190.491H119.63L117.378 188.217H117.2V190.491H116.058ZM127.258 190.646C126.807 190.646 126.389 190.535 126.005 190.314C125.62 190.092 125.31 189.774 125.073 189.36C124.844 188.938 124.729 188.431 124.729 187.84V187.673C124.729 187.089 124.844 186.586 125.073 186.165C125.302 185.743 125.609 185.421 125.994 185.2C126.378 184.978 126.8 184.867 127.258 184.867C127.613 184.867 127.909 184.911 128.146 185C128.39 185.089 128.589 185.203 128.745 185.344C128.9 185.477 129.018 185.617 129.1 185.765H129.277V182.726H130.42V190.491H129.299V189.715H129.122C128.981 189.951 128.767 190.166 128.479 190.358C128.197 190.55 127.791 190.646 127.258 190.646ZM127.58 189.648C128.075 189.648 128.482 189.489 128.8 189.171C129.126 188.853 129.288 188.398 129.288 187.807V187.707C129.288 187.122 129.129 186.671 128.811 186.353C128.493 186.035 128.083 185.876 127.58 185.876C127.092 185.876 126.685 186.035 126.36 186.353C126.042 186.671 125.883 187.122 125.883 187.707V187.807C125.883 188.398 126.042 188.853 126.36 189.171C126.685 189.489 127.092 189.648 127.58 189.648ZM134.198 190.591C133.784 190.591 133.415 190.498 133.089 190.314C132.764 190.129 132.509 189.866 132.324 189.526C132.139 189.186 132.046 188.779 132.046 188.306V185.022H133.189V188.228C133.189 188.701 133.307 189.053 133.544 189.282C133.781 189.504 134.11 189.615 134.531 189.615C134.997 189.615 135.371 189.459 135.652 189.149C135.94 188.831 136.084 188.376 136.084 187.784V185.022H137.227V190.491H136.107V189.67H135.929C135.826 189.892 135.641 190.103 135.374 190.303C135.108 190.495 134.716 190.591 134.198 190.591ZM138.916 190.491V185.022H140.036V185.666H140.214C140.303 185.436 140.443 185.27 140.635 185.166C140.835 185.055 141.079 185 141.368 185H142.022V186.032H141.323C140.953 186.032 140.65 186.135 140.414 186.342C140.177 186.542 140.059 186.852 140.059 187.274V190.491H138.916ZM144.752 190.646C144.36 190.646 144.008 190.58 143.698 190.447C143.395 190.314 143.15 190.118 142.966 189.859C142.788 189.6 142.699 189.286 142.699 188.916C142.699 188.539 142.788 188.228 142.966 187.984C143.15 187.733 143.398 187.544 143.709 187.418C144.027 187.293 144.386 187.23 144.785 187.23H146.449V186.875C146.449 186.557 146.353 186.302 146.16 186.109C145.968 185.917 145.672 185.821 145.273 185.821C144.881 185.821 144.581 185.913 144.374 186.098C144.167 186.283 144.031 186.523 143.964 186.819L142.899 186.475C142.988 186.18 143.128 185.913 143.321 185.677C143.52 185.433 143.783 185.237 144.108 185.089C144.434 184.941 144.826 184.867 145.284 184.867C145.994 184.867 146.552 185.048 146.959 185.41C147.366 185.773 147.569 186.287 147.569 186.952V189.204C147.569 189.426 147.673 189.537 147.88 189.537H148.346V190.491H147.492C147.233 190.491 147.022 190.425 146.859 190.291C146.697 190.158 146.615 189.977 146.615 189.748V189.715H146.449C146.39 189.825 146.301 189.955 146.183 190.103C146.064 190.251 145.89 190.38 145.661 190.491C145.432 190.595 145.129 190.646 144.752 190.646ZM144.918 189.703C145.377 189.703 145.746 189.574 146.027 189.315C146.308 189.049 146.449 188.687 146.449 188.228V188.117H144.851C144.548 188.117 144.304 188.184 144.119 188.317C143.934 188.443 143.842 188.631 143.842 188.883C143.842 189.134 143.938 189.334 144.13 189.482C144.323 189.63 144.585 189.703 144.918 189.703ZM151.13 190.491C150.797 190.491 150.531 190.391 150.331 190.192C150.139 189.992 150.043 189.726 150.043 189.393V185.987H148.534V185.022H150.043V183.214H151.185V185.022H152.816V185.987H151.185V189.193C151.185 189.415 151.289 189.526 151.496 189.526H152.639V190.491H151.13ZM154.158 190.491V185.022H155.301V190.491H154.158ZM154.735 184.279C154.513 184.279 154.325 184.209 154.17 184.068C154.022 183.92 153.948 183.732 153.948 183.502C153.948 183.273 154.022 183.088 154.17 182.948C154.325 182.8 154.513 182.726 154.735 182.726C154.965 182.726 155.153 182.8 155.301 182.948C155.449 183.088 155.523 183.273 155.523 183.502C155.523 183.732 155.449 183.92 155.301 184.068C155.153 184.209 154.965 184.279 154.735 184.279ZM159.559 190.646C159.012 190.646 158.524 190.535 158.095 190.314C157.673 190.084 157.341 189.759 157.097 189.337C156.853 188.916 156.73 188.417 156.73 187.84V187.673C156.73 187.097 156.853 186.601 157.097 186.187C157.341 185.765 157.673 185.44 158.095 185.211C158.524 184.981 159.012 184.867 159.559 184.867C160.107 184.867 160.595 184.981 161.024 185.211C161.453 185.44 161.789 185.765 162.033 186.187C162.277 186.601 162.399 187.097 162.399 187.673V187.84C162.399 188.417 162.277 188.916 162.033 189.337C161.789 189.759 161.453 190.084 161.024 190.314C160.595 190.535 160.107 190.646 159.559 190.646ZM159.559 189.626C160.062 189.626 160.469 189.467 160.78 189.149C161.098 188.823 161.257 188.376 161.257 187.807V187.707C161.257 187.137 161.101 186.693 160.791 186.375C160.48 186.05 160.07 185.887 159.559 185.887C159.064 185.887 158.657 186.05 158.339 186.375C158.028 186.693 157.873 187.137 157.873 187.707V187.807C157.873 188.376 158.028 188.823 158.339 189.149C158.657 189.467 159.064 189.626 159.559 189.626ZM163.822 190.491V185.022H164.942V185.843H165.12C165.223 185.621 165.408 185.414 165.674 185.222C165.941 185.029 166.336 184.933 166.861 184.933C167.275 184.933 167.641 185.026 167.959 185.211C168.285 185.396 168.54 185.658 168.725 185.998C168.91 186.331 169.002 186.734 169.002 187.207V190.491H167.86V187.296C167.86 186.823 167.741 186.475 167.505 186.253C167.268 186.024 166.943 185.91 166.528 185.91C166.055 185.91 165.674 186.065 165.386 186.375C165.105 186.686 164.964 187.137 164.964 187.729V190.491H163.822Z" fill="#002026" fill-opacity="0.6"/>
<rect x="56.6133" y="181.868" width="9.50852" height="9.50852" rx="3.16951" fill="#A282DD"/>
<g filter="url(#filter0_d_1191_57632)">
<rect x="1.12431" y="0.300457" width="293.077" height="94.396" rx="6.74257" fill="#FCFCFC" stroke="#E9C300" stroke-width="0.89901" stroke-dasharray="7.19 7.19"/>
<path d="M88.2169 32.9314C86.9798 32.9314 85.9969 32.5861 85.2681 31.8957C84.5393 31.1957 84.1749 30.1888 84.1749 28.875V26.516C84.1749 25.2023 84.5393 24.2002 85.2681 23.5097C85.9969 22.8097 86.9798 22.4597 88.2169 22.4597C89.4539 22.4597 90.4368 22.8097 91.1656 23.5097C91.904 24.2002 92.2732 25.2023 92.2732 26.516V28.875C92.2732 30.1888 91.904 31.1957 91.1656 31.8957C90.4368 32.5861 89.4539 32.9314 88.2169 32.9314ZM88.2169 31.5361C89.0128 31.5361 89.6265 31.3059 90.058 30.8457C90.4896 30.3758 90.7053 29.7381 90.7053 28.9326V26.4585C90.7053 25.653 90.4896 25.0201 90.058 24.5598C89.6265 24.0899 89.0128 23.855 88.2169 23.855C87.4401 23.855 86.8312 24.0899 86.3901 24.5598C85.949 25.0201 85.7284 25.653 85.7284 26.4585V28.9326C85.7284 29.7381 85.949 30.3758 86.3901 30.8457C86.8312 31.3059 87.4401 31.5361 88.2169 31.5361ZM94.1554 32.73V25.6386H95.6082V26.4729H95.8383C95.9534 26.1756 96.1356 25.9598 96.3849 25.8256C96.6438 25.6817 96.9603 25.6098 97.3343 25.6098H98.1829V26.9476H97.2767C96.7973 26.9476 96.4041 27.0818 96.0972 27.3503C95.7904 27.6092 95.637 28.012 95.637 28.5586V32.73H94.1554ZM99.1199 29.2202V29.0045C99.1199 28.2565 99.2686 27.6188 99.5659 27.0914C99.8727 26.564 100.275 26.1564 100.774 25.8687C101.273 25.5811 101.819 25.4372 102.414 25.4372C103.104 25.4372 103.632 25.5667 103.996 25.8256C104.37 26.0845 104.643 26.3626 104.816 26.6599H105.046V25.6386H106.485V34.1828C106.485 34.6143 106.355 34.9595 106.096 35.2184C105.847 35.4774 105.502 35.6068 105.061 35.6068H100.285V34.3122H104.6C104.878 34.3122 105.017 34.1684 105.017 33.8807V31.6224H104.787C104.682 31.795 104.533 31.9724 104.341 32.1546C104.15 32.3368 103.895 32.4854 103.579 32.6005C103.272 32.7156 102.884 32.7731 102.414 32.7731C101.819 32.7731 101.268 32.6341 100.76 32.356C100.261 32.0683 99.8631 31.6608 99.5659 31.1333C99.2686 30.5963 99.1199 29.9586 99.1199 29.2202ZM102.817 31.4786C103.459 31.4786 103.987 31.2772 104.399 30.8744C104.821 30.4621 105.032 29.8963 105.032 29.1771V29.0476C105.032 28.3093 104.826 27.7435 104.413 27.3503C104.001 26.9476 103.469 26.7462 102.817 26.7462C102.184 26.7462 101.656 26.9476 101.234 27.3503C100.822 27.7435 100.616 28.3093 100.616 29.0476V29.1771C100.616 29.8963 100.822 30.4621 101.234 30.8744C101.656 31.2772 102.184 31.4786 102.817 31.4786ZM110.867 32.9314C110.358 32.9314 109.903 32.8451 109.5 32.6724C109.107 32.4998 108.791 32.2457 108.551 31.9101C108.321 31.5745 108.206 31.1669 108.206 30.6874C108.206 30.1984 108.321 29.7956 108.551 29.4792C108.791 29.1531 109.112 28.9086 109.515 28.7456C109.927 28.5825 110.392 28.501 110.91 28.501H113.068V28.0407C113.068 27.6284 112.943 27.2976 112.694 27.0482C112.444 26.7989 112.061 26.6743 111.543 26.6743C111.035 26.6743 110.646 26.7941 110.378 27.0339C110.109 27.2736 109.932 27.5852 109.845 27.9688L108.465 27.5229C108.58 27.1393 108.762 26.7941 109.011 26.4873C109.27 26.1708 109.611 25.9167 110.032 25.7249C110.454 25.5331 110.963 25.4372 111.557 25.4372C112.478 25.4372 113.202 25.6722 113.729 26.142C114.257 26.6119 114.52 27.2784 114.52 28.1414V31.0614C114.52 31.3491 114.655 31.4929 114.923 31.4929H115.527V32.73H114.42C114.084 32.73 113.811 32.6437 113.6 32.4711C113.389 32.2985 113.283 32.0635 113.283 31.7662V31.7231H113.068C112.991 31.8669 112.876 32.0347 112.722 32.2265C112.569 32.4183 112.344 32.5861 112.046 32.73C111.749 32.8642 111.356 32.9314 110.867 32.9314ZM111.083 31.7087C111.677 31.7087 112.157 31.5409 112.521 31.2053C112.885 30.86 113.068 30.3902 113.068 29.7956V29.6518H110.996C110.603 29.6518 110.287 29.7381 110.047 29.9107C109.807 30.0737 109.687 30.3182 109.687 30.6443C109.687 30.9703 109.812 31.2292 110.061 31.421C110.311 31.6128 110.651 31.7087 111.083 31.7087ZM116.968 32.73V25.6386H118.421V26.703H118.651C118.785 26.4153 119.025 26.1468 119.37 25.8975C119.715 25.6482 120.228 25.5235 120.909 25.5235C121.446 25.5235 121.921 25.6434 122.333 25.8831C122.755 26.1229 123.086 26.4633 123.326 26.9044C123.565 27.3359 123.685 27.8585 123.685 28.4723V32.73H122.204V28.5873C122.204 27.9736 122.05 27.5229 121.743 27.2352C121.436 26.938 121.014 26.7893 120.477 26.7893C119.864 26.7893 119.37 26.9907 118.996 27.3935C118.632 27.7962 118.449 28.3812 118.449 29.1483V32.73H116.968ZM125.817 32.73V25.6386H127.299V32.73H125.817ZM126.565 24.6749C126.278 24.6749 126.033 24.5838 125.832 24.4016C125.64 24.2098 125.544 23.9652 125.544 23.668C125.544 23.3707 125.64 23.131 125.832 22.9488C126.033 22.757 126.278 22.6611 126.565 22.6611C126.863 22.6611 127.107 22.757 127.299 22.9488C127.491 23.131 127.587 23.3707 127.587 23.668C127.587 23.9652 127.491 24.2098 127.299 24.4016C127.107 24.5838 126.863 24.6749 126.565 24.6749ZM129.21 32.73V30.9176L133.396 27.0914V26.89H129.354V25.6386H135.007V27.4654L130.807 31.2916V31.4786H135.122V32.73H129.21ZM139.143 32.9314C138.635 32.9314 138.18 32.8451 137.777 32.6724C137.384 32.4998 137.067 32.2457 136.828 31.9101C136.597 31.5745 136.482 31.1669 136.482 30.6874C136.482 30.1984 136.597 29.7956 136.828 29.4792C137.067 29.1531 137.389 28.9086 137.791 28.7456C138.204 28.5825 138.669 28.501 139.187 28.501H141.344V28.0407C141.344 27.6284 141.22 27.2976 140.97 27.0482C140.721 26.7989 140.337 26.6743 139.819 26.6743C139.311 26.6743 138.923 26.7941 138.654 27.0339C138.386 27.2736 138.208 27.5852 138.122 27.9688L136.741 27.5229C136.856 27.1393 137.039 26.7941 137.288 26.4873C137.547 26.1708 137.887 25.9167 138.309 25.7249C138.731 25.5331 139.239 25.4372 139.834 25.4372C140.754 25.4372 141.478 25.6722 142.006 26.142C142.533 26.6119 142.797 27.2784 142.797 28.1414V31.0614C142.797 31.3491 142.931 31.4929 143.2 31.4929H143.804V32.73H142.696C142.361 32.73 142.087 32.6437 141.876 32.4711C141.665 32.2985 141.56 32.0635 141.56 31.7662V31.7231H141.344C141.267 31.8669 141.152 32.0347 140.999 32.2265C140.846 32.4183 140.62 32.5861 140.323 32.73C140.026 32.8642 139.632 32.9314 139.143 32.9314ZM139.359 31.7087C139.954 31.7087 140.433 31.5409 140.798 31.2053C141.162 30.86 141.344 30.3902 141.344 29.7956V29.6518H139.273C138.88 29.6518 138.563 29.7381 138.324 29.9107C138.084 30.0737 137.964 30.3182 137.964 30.6443C137.964 30.9703 138.089 31.2292 138.338 31.421C138.587 31.6128 138.928 31.7087 139.359 31.7087ZM147.414 32.73C146.982 32.73 146.637 32.6005 146.378 32.3416C146.129 32.0827 146.004 31.7375 146.004 31.3059V26.89H144.048V25.6386H146.004V23.294H147.486V25.6386H149.6V26.89H147.486V31.047C147.486 31.3347 147.62 31.4786 147.889 31.4786H149.37V32.73H147.414ZM151.341 32.73V25.6386H152.822V32.73H151.341ZM152.089 24.6749C151.801 24.6749 151.557 24.5838 151.355 24.4016C151.163 24.2098 151.068 23.9652 151.068 23.668C151.068 23.3707 151.163 23.131 151.355 22.9488C151.557 22.757 151.801 22.6611 152.089 22.6611C152.386 22.6611 152.631 22.757 152.822 22.9488C153.014 23.131 153.11 23.3707 153.11 23.668C153.11 23.9652 153.014 24.2098 152.822 24.4016C152.631 24.5838 152.386 24.6749 152.089 24.6749ZM158.344 32.9314C157.634 32.9314 157.001 32.7875 156.445 32.4998C155.899 32.2026 155.467 31.7806 155.151 31.234C154.834 30.6874 154.676 30.0401 154.676 29.2922V29.0764C154.676 28.3284 154.834 27.6859 155.151 27.1489C155.467 26.6023 155.899 26.1804 156.445 25.8831C157.001 25.5859 157.634 25.4372 158.344 25.4372C159.054 25.4372 159.686 25.5859 160.243 25.8831C160.799 26.1804 161.235 26.6023 161.552 27.1489C161.868 27.6859 162.026 28.3284 162.026 29.0764V29.2922C162.026 30.0401 161.868 30.6874 161.552 31.234C161.235 31.7806 160.799 32.2026 160.243 32.4998C159.686 32.7875 159.054 32.9314 158.344 32.9314ZM158.344 31.608C158.996 31.608 159.523 31.4018 159.926 30.9895C160.338 30.5676 160.545 29.9874 160.545 29.249V29.1196C160.545 28.3812 160.343 27.8058 159.941 27.3935C159.538 26.9715 159.006 26.7606 158.344 26.7606C157.701 26.7606 157.174 26.9715 156.762 27.3935C156.359 27.8058 156.157 28.3812 156.157 29.1196V29.249C156.157 29.9874 156.359 30.5676 156.762 30.9895C157.174 31.4018 157.701 31.608 158.344 31.608ZM163.871 32.73V25.6386H165.324V26.703H165.554C165.688 26.4153 165.928 26.1468 166.273 25.8975C166.618 25.6482 167.131 25.5235 167.812 25.5235C168.349 25.5235 168.824 25.6434 169.236 25.8831C169.658 26.1229 169.989 26.4633 170.229 26.9044C170.468 27.3359 170.588 27.8585 170.588 28.4723V32.73H169.107V28.5873C169.107 27.9736 168.953 27.5229 168.646 27.2352C168.339 26.938 167.918 26.7893 167.381 26.7893C166.767 26.7893 166.273 26.9907 165.899 27.3935C165.535 27.7962 165.352 28.3812 165.352 29.1483V32.73H163.871ZM176.344 32.73V22.6611H177.897V31.3203H182.744V32.73H176.344ZM187.506 32.9314C186.796 32.9314 186.163 32.7875 185.607 32.4998C185.06 32.2026 184.629 31.7806 184.312 31.234C183.996 30.6874 183.838 30.0401 183.838 29.2922V29.0764C183.838 28.3284 183.996 27.6859 184.312 27.1489C184.629 26.6023 185.06 26.1804 185.607 25.8831C186.163 25.5859 186.796 25.4372 187.506 25.4372C188.215 25.4372 188.848 25.5859 189.404 25.8831C189.96 26.1804 190.397 26.6023 190.713 27.1489C191.03 27.6859 191.188 28.3284 191.188 29.0764V29.2922C191.188 30.0401 191.03 30.6874 190.713 31.234C190.397 31.7806 189.96 32.2026 189.404 32.4998C188.848 32.7875 188.215 32.9314 187.506 32.9314ZM187.506 31.608C188.158 31.608 188.685 31.4018 189.088 30.9895C189.5 30.5676 189.706 29.9874 189.706 29.249V29.1196C189.706 28.3812 189.505 27.8058 189.102 27.3935C188.699 26.9715 188.167 26.7606 187.506 26.7606C186.863 26.7606 186.336 26.9715 185.923 27.3935C185.52 27.8058 185.319 28.3812 185.319 29.1196V29.249C185.319 29.9874 185.52 30.5676 185.923 30.9895C186.336 31.4018 186.863 31.608 187.506 31.608ZM195.233 32.9314C194.725 32.9314 194.269 32.8451 193.867 32.6724C193.474 32.4998 193.157 32.2457 192.917 31.9101C192.687 31.5745 192.572 31.1669 192.572 30.6874C192.572 30.1984 192.687 29.7956 192.917 29.4792C193.157 29.1531 193.478 28.9086 193.881 28.7456C194.293 28.5825 194.759 28.501 195.276 28.501H197.434V28.0407C197.434 27.6284 197.309 27.2976 197.06 27.0482C196.811 26.7989 196.427 26.6743 195.909 26.6743C195.401 26.6743 195.013 26.7941 194.744 27.0339C194.476 27.2736 194.298 27.5852 194.212 27.9688L192.831 27.5229C192.946 27.1393 193.128 26.7941 193.378 26.4873C193.637 26.1708 193.977 25.9167 194.399 25.7249C194.821 25.5331 195.329 25.4372 195.924 25.4372C196.844 25.4372 197.568 25.6722 198.096 26.142C198.623 26.6119 198.887 27.2784 198.887 28.1414V31.0614C198.887 31.3491 199.021 31.4929 199.29 31.4929H199.894V32.73H198.786C198.45 32.73 198.177 32.6437 197.966 32.4711C197.755 32.2985 197.65 32.0635 197.65 31.7662V31.7231H197.434C197.357 31.8669 197.242 32.0347 197.089 32.2265C196.935 32.4183 196.71 32.5861 196.413 32.73C196.115 32.8642 195.722 32.9314 195.233 32.9314ZM195.449 31.7087C196.043 31.7087 196.523 31.5409 196.887 31.2053C197.252 30.86 197.434 30.3902 197.434 29.7956V29.6518H195.363C194.969 29.6518 194.653 29.7381 194.413 29.9107C194.174 30.0737 194.054 30.3182 194.054 30.6443C194.054 30.9703 194.178 31.2292 194.428 31.421C194.677 31.6128 195.017 31.7087 195.449 31.7087ZM201.334 32.73V25.6386H202.787V26.703H203.017C203.151 26.4153 203.391 26.1468 203.736 25.8975C204.082 25.6482 204.595 25.5235 205.275 25.5235C205.812 25.5235 206.287 25.6434 206.699 25.8831C207.121 26.1229 207.452 26.4633 207.692 26.9044C207.932 27.3359 208.052 27.8585 208.052 28.4723V32.73H206.57V28.5873C206.57 27.9736 206.417 27.5229 206.11 27.2352C205.803 26.938 205.381 26.7893 204.844 26.7893C204.23 26.7893 203.736 26.9907 203.362 27.3935C202.998 27.7962 202.816 28.3812 202.816 29.1483V32.73H201.334Z" fill="#102E34"/>
<path d="M84.3026 55.9023V47.092H86.8576L88.7832 54.9961H88.9846L90.9103 47.092H93.4653V55.9023H92.1437V48.0486H91.9424L90.0293 55.9023H87.7386L85.8255 48.0486H85.6241V55.9023H84.3026ZM96.0583 58.4196V57.2868H99.5195C99.7545 57.2868 99.8719 57.161 99.8719 56.9092V54.9961H99.6705C99.595 55.164 99.4776 55.3276 99.3181 55.487C99.1671 55.638 98.9615 55.7639 98.7014 55.8646C98.4413 55.9653 98.1141 56.0156 97.7197 56.0156C97.2498 56.0156 96.8303 55.9107 96.4611 55.701C96.0919 55.4912 95.8024 55.1933 95.5926 54.8073C95.3829 54.4214 95.278 53.9641 95.278 53.4355V49.6974H96.5744V53.3348C96.5744 53.8718 96.7086 54.2703 96.9771 54.5305C97.2456 54.7822 97.619 54.908 98.0973 54.908C98.6259 54.908 99.0496 54.7318 99.3685 54.3794C99.6957 54.027 99.8593 53.5152 99.8593 52.8439V49.6974H101.156V57.1735C101.156 57.5511 101.042 57.8532 100.816 58.0797C100.598 58.3063 100.296 58.4196 99.9097 58.4196H96.0583ZM109.187 56.0785C108.567 56.0785 108.013 55.9527 107.526 55.701C107.048 55.4409 106.67 55.0717 106.393 54.5934C106.116 54.1151 105.978 53.5487 105.978 52.8943V52.7055C105.978 52.051 106.116 51.4888 106.393 51.0189C106.67 50.5407 107.048 50.1715 107.526 49.9113C108.013 49.6512 108.567 49.5212 109.187 49.5212C109.808 49.5212 110.362 49.6512 110.849 49.9113C111.335 50.1715 111.717 50.5407 111.994 51.0189C112.271 51.4888 112.409 52.051 112.409 52.7055V52.8943C112.409 53.5487 112.271 54.1151 111.994 54.5934C111.717 55.0717 111.335 55.4409 110.849 55.701C110.362 55.9527 109.808 56.0785 109.187 56.0785ZM109.187 54.9206C109.758 54.9206 110.219 54.7402 110.572 54.3794C110.933 54.0102 111.113 53.5026 111.113 52.8565V52.7432C111.113 52.0971 110.937 51.5937 110.584 51.2329C110.232 50.8637 109.766 50.6791 109.187 50.6791C108.625 50.6791 108.164 50.8637 107.803 51.2329C107.451 51.5937 107.274 52.0971 107.274 52.7432V52.8565C107.274 53.5026 107.451 54.0102 107.803 54.3794C108.164 54.7402 108.625 54.9206 109.187 54.9206ZM114.023 55.9023V49.6974H115.295V50.4274H115.496C115.597 50.1673 115.756 49.9785 115.974 49.861C116.201 49.7351 116.478 49.6722 116.805 49.6722H117.548V50.8427H116.755C116.335 50.8427 115.991 50.9602 115.723 51.1951C115.454 51.4217 115.32 51.7741 115.32 52.2524V55.9023H114.023ZM118.367 52.8313V52.6425C118.367 51.9881 118.497 51.4301 118.758 50.9686C119.026 50.5071 119.379 50.1505 119.815 49.8988C120.251 49.647 120.729 49.5212 121.25 49.5212C121.854 49.5212 122.315 49.6344 122.634 49.861C122.961 50.0875 123.201 50.3309 123.352 50.591H123.553V49.6974H124.812V57.1735C124.812 57.5511 124.698 57.8532 124.472 58.0797C124.254 58.3063 123.951 58.4196 123.566 58.4196H119.387V57.2868H123.163C123.406 57.2868 123.528 57.161 123.528 56.9092V54.9332H123.326C123.234 55.0842 123.104 55.2395 122.936 55.3989C122.768 55.5583 122.546 55.6884 122.269 55.7891C122.001 55.8898 121.661 55.9401 121.25 55.9401C120.729 55.9401 120.247 55.8184 119.802 55.5751C119.366 55.3234 119.018 54.9668 118.758 54.5053C118.497 54.0354 118.367 53.4774 118.367 52.8313ZM121.602 54.8073C122.164 54.8073 122.626 54.6311 122.987 54.2787C123.356 53.9179 123.54 53.4229 123.54 52.7936V52.6803C123.54 52.0342 123.36 51.5392 122.999 51.1951C122.638 50.8427 122.173 50.6665 121.602 50.6665C121.048 50.6665 120.587 50.8427 120.218 51.1951C119.857 51.5392 119.676 52.0342 119.676 52.6803V52.7936C119.676 53.4229 119.857 53.9179 120.218 54.2787C120.587 54.6311 121.048 54.8073 121.602 54.8073ZM128.646 56.0785C128.201 56.0785 127.803 56.003 127.45 55.852C127.106 55.701 126.829 55.4786 126.62 55.1849C126.418 54.8913 126.317 54.5347 126.317 54.1151C126.317 53.6872 126.418 53.3348 126.62 53.0579C126.829 52.7726 127.11 52.5586 127.463 52.416C127.824 52.2733 128.231 52.202 128.684 52.202H130.572V51.7993C130.572 51.4385 130.462 51.149 130.244 50.9308C130.026 50.7127 129.691 50.6036 129.237 50.6036C128.793 50.6036 128.453 50.7085 128.218 50.9182C127.983 51.128 127.828 51.4007 127.752 51.7363L126.544 51.3462C126.645 51.0105 126.804 50.7085 127.022 50.44C127.249 50.1631 127.547 49.9407 127.916 49.7729C128.285 49.6051 128.73 49.5212 129.25 49.5212C130.056 49.5212 130.689 49.7267 131.151 50.1379C131.612 50.549 131.843 51.1322 131.843 51.8874V54.4424C131.843 54.6941 131.96 54.8199 132.195 54.8199H132.724V55.9023H131.755C131.461 55.9023 131.222 55.8268 131.037 55.6758C130.853 55.5248 130.76 55.3192 130.76 55.0591V55.0213H130.572C130.504 55.1472 130.404 55.294 130.27 55.4618C130.135 55.6296 129.938 55.7765 129.678 55.9023C129.418 56.0198 129.074 56.0785 128.646 56.0785ZM128.835 55.0087C129.355 55.0087 129.774 54.8619 130.093 54.5682C130.412 54.2661 130.572 53.855 130.572 53.3348V53.2089H128.759C128.415 53.2089 128.138 53.2844 127.928 53.4355C127.719 53.5781 127.614 53.7921 127.614 54.0774C127.614 54.3626 127.723 54.5892 127.941 54.757C128.159 54.9248 128.457 55.0087 128.835 55.0087ZM133.984 55.9023V49.6974H135.255V50.6288H135.457C135.574 50.377 135.784 50.1421 136.086 49.9239C136.388 49.7058 136.837 49.5967 137.433 49.5967C137.903 49.5967 138.318 49.7016 138.679 49.9113C139.048 50.1211 139.338 50.419 139.547 50.805C139.757 51.1825 139.862 51.6398 139.862 52.1768V55.9023H138.566V52.2775C138.566 51.7405 138.431 51.3462 138.163 51.0944C137.894 50.8343 137.525 50.7043 137.055 50.7043C136.518 50.7043 136.086 50.8805 135.759 51.2329C135.44 51.5853 135.281 52.0971 135.281 52.7684V55.9023H133.984ZM141.728 55.9023V49.6974H143.024V55.9023H141.728ZM142.382 48.8541C142.13 48.8541 141.916 48.7744 141.74 48.615C141.572 48.4472 141.489 48.2332 141.489 47.9731C141.489 47.713 141.572 47.5032 141.74 47.3438C141.916 47.176 142.13 47.092 142.382 47.092C142.642 47.092 142.856 47.176 143.024 47.3438C143.192 47.5032 143.276 47.713 143.276 47.9731C143.276 48.2332 143.192 48.4472 143.024 48.615C142.856 48.7744 142.642 48.8541 142.382 48.8541ZM144.696 55.9023V54.3165L148.359 50.9686V50.7924H144.822V49.6974H149.768V51.2958L146.093 54.6437V54.8073H149.869V55.9023H144.696ZM153.388 56.0785C152.943 56.0785 152.545 56.003 152.192 55.852C151.848 55.701 151.571 55.4786 151.362 55.1849C151.16 54.8913 151.06 54.5347 151.06 54.1151C151.06 53.6872 151.16 53.3348 151.362 53.0579C151.571 52.7726 151.852 52.5586 152.205 52.416C152.566 52.2733 152.973 52.202 153.426 52.202H155.314V51.7993C155.314 51.4385 155.205 51.149 154.986 50.9308C154.768 50.7127 154.433 50.6036 153.98 50.6036C153.535 50.6036 153.195 50.7085 152.96 50.9182C152.725 51.128 152.57 51.4007 152.494 51.7363L151.286 51.3462C151.387 51.0105 151.546 50.7085 151.764 50.44C151.991 50.1631 152.289 49.9407 152.658 49.7729C153.027 49.6051 153.472 49.5212 153.992 49.5212C154.798 49.5212 155.431 49.7267 155.893 50.1379C156.354 50.549 156.585 51.1322 156.585 51.8874V54.4424C156.585 54.6941 156.702 54.8199 156.937 54.8199H157.466V55.9023H156.497C156.203 55.9023 155.964 55.8268 155.779 55.6758C155.595 55.5248 155.502 55.3192 155.502 55.0591V55.0213H155.314C155.247 55.1472 155.146 55.294 155.012 55.4618C154.877 55.6296 154.68 55.7765 154.42 55.9023C154.16 56.0198 153.816 56.0785 153.388 56.0785ZM153.577 55.0087C154.097 55.0087 154.517 54.8619 154.835 54.5682C155.154 54.2661 155.314 53.855 155.314 53.3348V53.2089H153.501C153.157 53.2089 152.88 53.2844 152.671 53.4355C152.461 53.5781 152.356 53.7921 152.356 54.0774C152.356 54.3626 152.465 54.5892 152.683 54.757C152.901 54.9248 153.199 55.0087 153.577 55.0087ZM160.625 55.9023C160.247 55.9023 159.945 55.7891 159.718 55.5625C159.5 55.336 159.391 55.0339 159.391 54.6563V50.7924H157.679V49.6974H159.391V47.6458H160.688V49.6974H162.538V50.7924H160.688V54.4298C160.688 54.6815 160.805 54.8073 161.04 54.8073H162.336V55.9023H160.625ZM164.061 55.9023V49.6974H165.357V55.9023H164.061ZM164.715 48.8541C164.463 48.8541 164.25 48.7744 164.073 48.615C163.905 48.4472 163.822 48.2332 163.822 47.9731C163.822 47.713 163.905 47.5032 164.073 47.3438C164.25 47.176 164.463 47.092 164.715 47.092C164.975 47.092 165.189 47.176 165.357 47.3438C165.525 47.5032 165.609 47.713 165.609 47.9731C165.609 48.2332 165.525 48.4472 165.357 48.615C165.189 48.7744 164.975 48.8541 164.715 48.8541ZM170.188 56.0785C169.567 56.0785 169.014 55.9527 168.527 55.701C168.049 55.4409 167.671 55.0717 167.394 54.5934C167.117 54.1151 166.979 53.5487 166.979 52.8943V52.7055C166.979 52.051 167.117 51.4888 167.394 51.0189C167.671 50.5407 168.049 50.1715 168.527 49.9113C169.014 49.6512 169.567 49.5212 170.188 49.5212C170.809 49.5212 171.363 49.6512 171.85 49.9113C172.336 50.1715 172.718 50.5407 172.995 51.0189C173.272 51.4888 173.41 52.051 173.41 52.7055V52.8943C173.41 53.5487 173.272 54.1151 172.995 54.5934C172.718 55.0717 172.336 55.4409 171.85 55.701C171.363 55.9527 170.809 56.0785 170.188 56.0785ZM170.188 54.9206C170.759 54.9206 171.22 54.7402 171.573 54.3794C171.934 54.0102 172.114 53.5026 172.114 52.8565V52.7432C172.114 52.0971 171.938 51.5937 171.585 51.2329C171.233 50.8637 170.767 50.6791 170.188 50.6791C169.626 50.6791 169.165 50.8637 168.804 51.2329C168.452 51.5937 168.275 52.0971 168.275 52.7432V52.8565C168.275 53.5026 168.452 54.0102 168.804 54.3794C169.165 54.7402 169.626 54.9206 170.188 54.9206ZM175.024 55.9023V49.6974H176.296V50.6288H176.497C176.614 50.377 176.824 50.1421 177.126 49.9239C177.428 49.7058 177.877 49.5967 178.473 49.5967C178.943 49.5967 179.358 49.7016 179.719 49.9113C180.088 50.1211 180.378 50.419 180.587 50.805C180.797 51.1825 180.902 51.6398 180.902 52.1768V55.9023H179.606V52.2775C179.606 51.7405 179.472 51.3462 179.203 51.0944C178.935 50.8343 178.565 50.7043 178.095 50.7043C177.558 50.7043 177.126 50.8805 176.799 51.2329C176.48 51.5853 176.321 52.0971 176.321 52.7684V55.9023H175.024ZM185.976 55.9023V49.6974H187.272V55.9023H185.976ZM186.63 48.8541C186.379 48.8541 186.165 48.7744 185.988 48.615C185.821 48.4472 185.737 48.2332 185.737 47.9731C185.737 47.713 185.821 47.5032 185.988 47.3438C186.165 47.176 186.379 47.092 186.63 47.092C186.89 47.092 187.104 47.176 187.272 47.3438C187.44 47.5032 187.524 47.713 187.524 47.9731C187.524 48.2332 187.44 48.4472 187.272 48.615C187.104 48.7744 186.89 48.8541 186.63 48.8541ZM191.739 56.0785C190.95 56.0785 190.295 55.9023 189.775 55.5499C189.255 55.1975 188.936 54.6647 188.819 53.9515L190.027 53.662C190.094 54.006 190.207 54.2787 190.367 54.4801C190.526 54.6815 190.723 54.8241 190.958 54.908C191.202 54.9919 191.462 55.0339 191.739 55.0339C192.15 55.0339 192.464 54.9542 192.682 54.7948C192.909 54.6353 193.022 54.4298 193.022 54.178C193.022 53.9263 192.917 53.7417 192.708 53.6243C192.498 53.5068 192.187 53.4103 191.776 53.3348L191.348 53.2593C190.929 53.1837 190.547 53.0747 190.203 52.932C189.859 52.7894 189.586 52.5922 189.385 52.3405C189.184 52.0887 189.083 51.7657 189.083 51.3713C189.083 50.784 189.301 50.3309 189.737 50.012C190.174 49.6848 190.753 49.5212 191.474 49.5212C192.171 49.5212 192.741 49.6806 193.186 49.9994C193.639 50.3099 193.933 50.7336 194.067 51.2706L192.859 51.6105C192.783 51.2329 192.624 50.9686 192.38 50.8175C192.137 50.6581 191.835 50.5784 191.474 50.5784C191.122 50.5784 190.845 50.6455 190.644 50.7798C190.442 50.9056 190.341 51.086 190.341 51.321C190.341 51.5727 190.438 51.7573 190.631 51.8748C190.832 51.9923 191.101 52.0804 191.436 52.1391L191.877 52.2146C192.322 52.2901 192.729 52.395 193.098 52.5293C193.467 52.6635 193.756 52.8565 193.966 53.1082C194.184 53.3599 194.294 53.6956 194.294 54.1151C194.294 54.736 194.063 55.2185 193.601 55.5625C193.14 55.9065 192.519 56.0785 191.739 56.0785ZM199.017 55.9023V49.6974H200.288V50.4274H200.489C200.59 50.1673 200.749 49.9785 200.968 49.861C201.194 49.7351 201.471 49.6722 201.798 49.6722H202.541V50.8427H201.748C201.328 50.8427 200.984 50.9602 200.716 51.1951C200.447 51.4217 200.313 51.7741 200.313 52.2524V55.9023H199.017ZM206.507 56.0785C205.878 56.0785 205.328 55.9485 204.858 55.6884C204.389 55.4199 204.019 55.0465 203.751 54.5682C203.491 54.0815 203.361 53.5194 203.361 52.8817V52.7306C203.361 52.0845 203.491 51.5224 203.751 51.0441C204.011 50.5574 204.372 50.184 204.833 49.9239C205.303 49.6554 205.844 49.5212 206.457 49.5212C207.053 49.5212 207.573 49.6554 208.018 49.9239C208.471 50.184 208.823 50.549 209.075 51.0189C209.327 51.4888 209.452 52.0384 209.452 52.6677V53.1586H204.682C204.699 53.704 204.879 54.1403 205.223 54.4675C205.576 54.7864 206.012 54.9458 206.532 54.9458C207.019 54.9458 207.384 54.8367 207.627 54.6186C207.879 54.4004 208.072 54.1487 208.206 53.8634L209.276 54.4172C209.159 54.6521 208.987 54.8996 208.76 55.1598C208.542 55.4199 208.253 55.638 207.892 55.8142C207.531 55.9904 207.069 56.0785 206.507 56.0785ZM204.695 52.1643H208.131C208.097 51.6944 207.929 51.3294 207.627 51.0693C207.325 50.8008 206.931 50.6665 206.444 50.6665C205.958 50.6665 205.559 50.8008 205.249 51.0693C204.947 51.3294 204.762 51.6944 204.695 52.1643ZM213.555 56.0785C212.767 56.0785 212.112 55.9023 211.592 55.5499C211.072 55.1975 210.753 54.6647 210.635 53.9515L211.844 53.662C211.911 54.006 212.024 54.2787 212.183 54.4801C212.343 54.6815 212.54 54.8241 212.775 54.908C213.018 54.9919 213.278 55.0339 213.555 55.0339C213.966 55.0339 214.281 54.9542 214.499 54.7948C214.726 54.6353 214.839 54.4298 214.839 54.178C214.839 53.9263 214.734 53.7417 214.524 53.6243C214.315 53.5068 214.004 53.4103 213.593 53.3348L213.165 53.2593C212.746 53.1837 212.364 53.0747 212.02 52.932C211.676 52.7894 211.403 52.5922 211.202 52.3405C211 52.0887 210.9 51.7657 210.9 51.3713C210.9 50.784 211.118 50.3309 211.554 50.012C211.99 49.6848 212.569 49.5212 213.291 49.5212C213.987 49.5212 214.558 49.6806 215.003 49.9994C215.456 50.3099 215.749 50.7336 215.884 51.2706L214.675 51.6105C214.6 51.2329 214.441 50.9686 214.197 50.8175C213.954 50.6581 213.652 50.5784 213.291 50.5784C212.939 50.5784 212.662 50.6455 212.46 50.7798C212.259 50.9056 212.158 51.086 212.158 51.321C212.158 51.5727 212.255 51.7573 212.448 51.8748C212.649 51.9923 212.918 52.0804 213.253 52.1391L213.694 52.2146C214.138 52.2901 214.545 52.395 214.915 52.5293C215.284 52.6635 215.573 52.8565 215.783 53.1082C216.001 53.3599 216.11 53.6956 216.11 54.1151C216.11 54.736 215.88 55.2185 215.418 55.5625C214.957 55.9065 214.336 56.0785 213.555 56.0785ZM217.626 58.4196V49.6974H218.897V50.591H219.098C219.258 50.3141 219.497 50.0666 219.816 49.8484C220.143 49.6303 220.608 49.5212 221.213 49.5212C221.733 49.5212 222.207 49.647 222.635 49.8988C223.071 50.1505 223.419 50.5155 223.679 50.9938C223.948 51.4636 224.082 52.0342 224.082 52.7055V52.8943C224.082 53.5655 223.952 54.1403 223.692 54.6186C223.432 55.0884 223.084 55.4492 222.647 55.701C222.211 55.9527 221.733 56.0785 221.213 56.0785C220.81 56.0785 220.47 56.0282 220.193 55.9275C219.916 55.8268 219.694 55.701 219.526 55.5499C219.358 55.3905 219.224 55.2269 219.123 55.0591H218.922V58.4196H217.626ZM220.835 54.9458C221.406 54.9458 221.871 54.7654 222.232 54.4046C222.593 54.0438 222.773 53.5278 222.773 52.8565V52.7432C222.773 52.0804 222.589 51.5685 222.219 51.2077C221.859 50.8469 221.397 50.6665 220.835 50.6665C220.281 50.6665 219.82 50.8469 219.451 51.2077C219.09 51.5685 218.909 52.0804 218.909 52.7432V52.8565C218.909 53.5278 219.09 54.0438 219.451 54.4046C219.82 54.7654 220.281 54.9458 220.835 54.9458ZM228.596 56.0785C227.975 56.0785 227.421 55.9527 226.935 55.701C226.456 55.4409 226.079 55.0717 225.802 54.5934C225.525 54.1151 225.386 53.5487 225.386 52.8943V52.7055C225.386 52.051 225.525 51.4888 225.802 51.0189C226.079 50.5407 226.456 50.1715 226.935 49.9113C227.421 49.6512 227.975 49.5212 228.596 49.5212C229.217 49.5212 229.771 49.6512 230.257 49.9113C230.744 50.1715 231.126 50.5407 231.403 51.0189C231.68 51.4888 231.818 52.051 231.818 52.7055V52.8943C231.818 53.5487 231.68 54.1151 231.403 54.5934C231.126 55.0717 230.744 55.4409 230.257 55.701C229.771 55.9527 229.217 56.0785 228.596 56.0785ZM228.596 54.9206C229.166 54.9206 229.628 54.7402 229.98 54.3794C230.341 54.0102 230.522 53.5026 230.522 52.8565V52.7432C230.522 52.0971 230.345 51.5937 229.993 51.2329C229.641 50.8637 229.175 50.6791 228.596 50.6791C228.034 50.6791 227.572 50.8637 227.211 51.2329C226.859 51.5937 226.683 52.0971 226.683 52.7432V52.8565C226.683 53.5026 226.859 54.0102 227.211 54.3794C227.572 54.7402 228.034 54.9206 228.596 54.9206ZM233.432 55.9023V49.6974H234.703V50.6288H234.905C235.022 50.377 235.232 50.1421 235.534 49.9239C235.836 49.7058 236.285 49.5967 236.881 49.5967C237.35 49.5967 237.766 49.7016 238.127 49.9113C238.496 50.1211 238.785 50.419 238.995 50.805C239.205 51.1825 239.31 51.6398 239.31 52.1768V55.9023H238.013V52.2775C238.013 51.7405 237.879 51.3462 237.611 51.0944C237.342 50.8343 236.973 50.7043 236.503 50.7043C235.966 50.7043 235.534 50.8805 235.207 51.2329C234.888 51.5853 234.728 52.0971 234.728 52.7684V55.9023H233.432ZM243.718 56.0785C242.929 56.0785 242.275 55.9023 241.754 55.5499C241.234 55.1975 240.915 54.6647 240.798 53.9515L242.006 53.662C242.073 54.006 242.186 54.2787 242.346 54.4801C242.505 54.6815 242.702 54.8241 242.937 54.908C243.181 54.9919 243.441 55.0339 243.718 55.0339C244.129 55.0339 244.444 54.9542 244.662 54.7948C244.888 54.6353 245.002 54.4298 245.002 54.178C245.002 53.9263 244.897 53.7417 244.687 53.6243C244.477 53.5068 244.167 53.4103 243.756 53.3348L243.328 53.2593C242.908 53.1837 242.526 53.0747 242.182 52.932C241.838 52.7894 241.566 52.5922 241.364 52.3405C241.163 52.0887 241.062 51.7657 241.062 51.3713C241.062 50.784 241.28 50.3309 241.717 50.012C242.153 49.6848 242.732 49.5212 243.453 49.5212C244.15 49.5212 244.72 49.6806 245.165 49.9994C245.618 50.3099 245.912 50.7336 246.046 51.2706L244.838 51.6105C244.762 51.2329 244.603 50.9686 244.36 50.8175C244.116 50.6581 243.814 50.5784 243.453 50.5784C243.101 50.5784 242.824 50.6455 242.623 50.7798C242.421 50.9056 242.321 51.086 242.321 51.321C242.321 51.5727 242.417 51.7573 242.61 51.8748C242.812 51.9923 243.08 52.0804 243.416 52.1391L243.856 52.2146C244.301 52.2901 244.708 52.395 245.077 52.5293C245.446 52.6635 245.736 52.8565 245.946 53.1082C246.164 53.3599 246.273 53.6956 246.273 54.1151C246.273 54.736 246.042 55.2185 245.581 55.5625C245.119 55.9065 244.498 56.0785 243.718 56.0785ZM247.788 55.9023V49.6974H249.084V55.9023H247.788ZM248.442 48.8541C248.191 48.8541 247.977 48.7744 247.801 48.615C247.633 48.4472 247.549 48.2332 247.549 47.9731C247.549 47.713 247.633 47.5032 247.801 47.3438C247.977 47.176 248.191 47.092 248.442 47.092C248.703 47.092 248.917 47.176 249.084 47.3438C249.252 47.5032 249.336 47.713 249.336 47.9731C249.336 48.2332 249.252 48.4472 249.084 48.615C248.917 48.7744 248.703 48.8541 248.442 48.8541ZM254.595 56.0785C253.991 56.0785 253.526 55.9695 253.198 55.7513C252.879 55.5332 252.64 55.2898 252.481 55.0213H252.279V55.9023H251.008V47.092H252.305V50.5406H252.506C252.607 50.3728 252.741 50.2134 252.909 50.0624C253.077 49.903 253.299 49.7729 253.576 49.6722C253.853 49.5715 254.193 49.5212 254.595 49.5212C255.116 49.5212 255.594 49.647 256.03 49.8988C256.466 50.1505 256.815 50.5155 257.075 50.9938C257.335 51.472 257.465 52.0426 257.465 52.7055V52.8943C257.465 53.5655 257.331 54.1403 257.062 54.6186C256.802 55.0884 256.454 55.4492 256.018 55.701C255.59 55.9527 255.116 56.0785 254.595 56.0785ZM254.218 54.9458C254.78 54.9458 255.241 54.7654 255.602 54.4046C255.971 54.0438 256.156 53.5278 256.156 52.8565V52.7432C256.156 52.0804 255.976 51.5685 255.615 51.2077C255.254 50.8469 254.788 50.6665 254.218 50.6665C253.664 50.6665 253.202 50.8469 252.833 51.2077C252.472 51.5685 252.292 52.0804 252.292 52.7432V52.8565C252.292 53.5278 252.472 54.0438 252.833 54.4046C253.202 54.7654 253.664 54.9458 254.218 54.9458ZM259.071 55.9023V47.092H260.368V55.9023H259.071ZM265.136 56.0785C264.507 56.0785 263.957 55.9485 263.487 55.6884C263.017 55.4199 262.648 55.0465 262.38 54.5682C262.12 54.0815 261.99 53.5194 261.99 52.8817V52.7306C261.99 52.0845 262.12 51.5224 262.38 51.0441C262.64 50.5574 263.001 50.184 263.462 49.9239C263.932 49.6554 264.473 49.5212 265.086 49.5212C265.681 49.5212 266.202 49.6554 266.646 49.9239C267.099 50.184 267.452 50.549 267.704 51.0189C267.955 51.4888 268.081 52.0384 268.081 52.6677V53.1586H263.311C263.328 53.704 263.508 54.1403 263.852 54.4675C264.205 54.7864 264.641 54.9458 265.161 54.9458C265.648 54.9458 266.013 54.8367 266.256 54.6186C266.508 54.4004 266.701 54.1487 266.835 53.8634L267.905 54.4172C267.788 54.6521 267.616 54.8996 267.389 55.1598C267.171 55.4199 266.881 55.638 266.521 55.8142C266.16 55.9904 265.698 56.0785 265.136 56.0785ZM263.324 52.1643H266.76C266.726 51.6944 266.558 51.3294 266.256 51.0693C265.954 50.8008 265.56 50.6665 265.073 50.6665C264.586 50.6665 264.188 50.8008 263.877 51.0693C263.575 51.3294 263.391 51.6944 263.324 52.1643ZM85.4605 71.9023V66.7924H83.7236V65.6974H85.4605V64.3381C85.4605 63.9605 85.5738 63.6584 85.8003 63.4319C86.0269 63.2053 86.3289 63.092 86.7065 63.092H88.305V64.187H87.1219C86.8785 64.187 86.7569 64.3129 86.7569 64.5646V65.6974H88.5441V66.7924H86.7569V71.9023H85.4605ZM92.5206 72.0785C91.8997 72.0785 91.3459 71.9527 90.8593 71.701C90.381 71.4409 90.0034 71.0717 89.7265 70.5934C89.4496 70.1151 89.3112 69.5487 89.3112 68.8943V68.7055C89.3112 68.051 89.4496 67.4888 89.7265 67.0189C90.0034 66.5407 90.381 66.1715 90.8593 65.9113C91.3459 65.6512 91.8997 65.5212 92.5206 65.5212C93.1416 65.5212 93.6953 65.6512 94.182 65.9113C94.6687 66.1715 95.0504 66.5407 95.3273 67.0189C95.6042 67.4888 95.7427 68.051 95.7427 68.7055V68.8943C95.7427 69.5487 95.6042 70.1151 95.3273 70.5934C95.0504 71.0717 94.6687 71.4409 94.182 71.701C93.6953 71.9527 93.1416 72.0785 92.5206 72.0785ZM92.5206 70.9206C93.0912 70.9206 93.5527 70.7402 93.9051 70.3794C94.2659 70.0102 94.4463 69.5026 94.4463 68.8565V68.7432C94.4463 68.0971 94.2701 67.5937 93.9177 67.2329C93.5653 66.8637 93.0996 66.6791 92.5206 66.6791C91.9585 66.6791 91.497 66.8637 91.1362 67.2329C90.7837 67.5937 90.6075 68.0971 90.6075 68.7432V68.8565C90.6075 69.5026 90.7837 70.0102 91.1362 70.3794C91.497 70.7402 91.9585 70.9206 92.5206 70.9206ZM97.3567 71.9023V65.6974H98.6279V66.4274H98.8292C98.9299 66.1673 99.0894 65.9785 99.3075 65.861C99.5341 65.7351 99.811 65.6722 100.138 65.6722H100.881V66.8427H100.088C99.6683 66.8427 99.3243 66.9602 99.0558 67.1951C98.7873 67.4217 98.653 67.7741 98.653 68.2524V71.9023H97.3567ZM107.76 71.9023C107.383 71.9023 107.081 71.7891 106.854 71.5625C106.636 71.336 106.527 71.0339 106.527 70.6563V66.7924H104.815V65.6974H106.527V63.6458H107.823V65.6974H109.673V66.7924H107.823V70.4298C107.823 70.6815 107.941 70.8073 108.176 70.8073H109.472V71.9023H107.76ZM111.196 71.9023V63.092H112.493V66.5784H112.694C112.778 66.419 112.896 66.2638 113.047 66.1127C113.206 65.9617 113.412 65.84 113.663 65.7477C113.923 65.647 114.251 65.5967 114.645 65.5967C115.115 65.5967 115.53 65.7016 115.891 65.9113C116.26 66.1211 116.55 66.419 116.76 66.805C116.969 67.1825 117.074 67.6398 117.074 68.1768V71.9023H115.778V68.2775C115.778 67.7405 115.644 67.3462 115.375 67.0944C115.107 66.8343 114.737 66.7043 114.268 66.7043C113.731 66.7043 113.298 66.8805 112.971 67.2329C112.652 67.5853 112.493 68.0971 112.493 68.7684V71.9023H111.196ZM121.784 72.0785C121.155 72.0785 120.605 71.9485 120.136 71.6884C119.666 71.4199 119.297 71.0465 119.028 70.5682C118.768 70.0815 118.638 69.5194 118.638 68.8817V68.7306C118.638 68.0845 118.768 67.5224 119.028 67.0441C119.288 66.5574 119.649 66.184 120.11 65.9239C120.58 65.6554 121.122 65.5212 121.734 65.5212C122.33 65.5212 122.85 65.6554 123.295 65.9239C123.748 66.184 124.1 66.549 124.352 67.0189C124.604 67.4888 124.73 68.0384 124.73 68.6677V69.1586H119.959C119.976 69.704 120.157 70.1403 120.501 70.4675C120.853 70.7864 121.289 70.9458 121.81 70.9458C122.296 70.9458 122.661 70.8367 122.905 70.6186C123.156 70.4004 123.349 70.1487 123.484 69.8634L124.553 70.4172C124.436 70.6521 124.264 70.8996 124.037 71.1598C123.819 71.4199 123.53 71.638 123.169 71.8142C122.808 71.9904 122.347 72.0785 121.784 72.0785ZM119.972 68.1643H123.408C123.374 67.6944 123.207 67.3294 122.905 67.0693C122.602 66.8008 122.208 66.6665 121.721 66.6665C121.235 66.6665 120.836 66.8008 120.526 67.0693C120.224 67.3294 120.039 67.6944 119.972 68.1643ZM129.498 74.4196V65.6974H130.769V66.591H130.971C131.13 66.3141 131.369 66.0666 131.688 65.8484C132.015 65.6303 132.481 65.5212 133.085 65.5212C133.605 65.5212 134.079 65.647 134.507 65.8988C134.944 66.1505 135.292 66.5155 135.552 66.9938C135.82 67.4636 135.955 68.0342 135.955 68.7055V68.8943C135.955 69.5655 135.825 70.1403 135.565 70.6186C135.304 71.0884 134.956 71.4492 134.52 71.701C134.084 71.9527 133.605 72.0785 133.085 72.0785C132.682 72.0785 132.342 72.0282 132.066 71.9275C131.789 71.8268 131.566 71.701 131.399 71.5499C131.231 71.3905 131.096 71.2269 130.996 71.0591H130.794V74.4196H129.498ZM132.707 70.9458C133.278 70.9458 133.744 70.7654 134.105 70.4046C134.465 70.0438 134.646 69.5278 134.646 68.8565V68.7432C134.646 68.0804 134.461 67.5685 134.092 67.2077C133.731 66.8469 133.27 66.6665 132.707 66.6665C132.154 66.6665 131.692 66.8469 131.323 67.2077C130.962 67.5685 130.782 68.0804 130.782 68.7432V68.8565C130.782 69.5278 130.962 70.0438 131.323 70.4046C131.692 70.7654 132.154 70.9458 132.707 70.9458ZM139.487 72.0785C139.042 72.0785 138.643 72.003 138.291 71.852C137.947 71.701 137.67 71.4786 137.46 71.1849C137.259 70.8913 137.158 70.5347 137.158 70.1151C137.158 69.6872 137.259 69.3348 137.46 69.0579C137.67 68.7726 137.951 68.5586 138.304 68.416C138.664 68.2733 139.071 68.202 139.524 68.202H141.412V67.7993C141.412 67.4385 141.303 67.149 141.085 66.9308C140.867 66.7127 140.531 66.6036 140.078 66.6036C139.634 66.6036 139.294 66.7085 139.059 66.9182C138.824 67.128 138.669 67.4007 138.593 67.7363L137.385 67.3462C137.485 67.0105 137.645 66.7085 137.863 66.44C138.09 66.1631 138.387 65.9407 138.757 65.7729C139.126 65.6051 139.571 65.5212 140.091 65.5212C140.896 65.5212 141.53 65.7267 141.991 66.1379C142.453 66.549 142.684 67.1322 142.684 67.8874V70.4424C142.684 70.6941 142.801 70.8199 143.036 70.8199H143.565V71.9023H142.595C142.302 71.9023 142.063 71.8268 141.878 71.6758C141.693 71.5248 141.601 71.3192 141.601 71.0591V71.0213H141.412C141.345 71.1472 141.245 71.294 141.11 71.4618C140.976 71.6296 140.779 71.7765 140.519 71.9023C140.259 72.0198 139.915 72.0785 139.487 72.0785ZM139.675 71.0087C140.196 71.0087 140.615 70.8619 140.934 70.5682C141.253 70.2661 141.412 69.855 141.412 69.3348V69.2089H139.6C139.256 69.2089 138.979 69.2844 138.769 69.4355C138.56 69.5781 138.455 69.7921 138.455 70.0774C138.455 70.3626 138.564 70.5892 138.782 70.757C139 70.9248 139.298 71.0087 139.675 71.0087ZM145.383 74.4196V73.2868H148.844C149.079 73.2868 149.196 73.161 149.196 72.9092V70.9961H148.995C148.919 71.164 148.802 71.3276 148.643 71.487C148.491 71.638 148.286 71.7639 148.026 71.8646C147.766 71.9653 147.438 72.0156 147.044 72.0156C146.574 72.0156 146.155 71.9107 145.785 71.701C145.416 71.4912 145.127 71.1933 144.917 70.8073C144.707 70.4214 144.602 69.9641 144.602 69.4355V65.6974H145.899V69.3348C145.899 69.8718 146.033 70.2703 146.301 70.5305C146.57 70.7822 146.943 70.908 147.422 70.908C147.95 70.908 148.374 70.7318 148.693 70.3794C149.02 70.027 149.184 69.5152 149.184 68.8439V65.6974H150.48V73.1735C150.48 73.5511 150.367 73.8532 150.14 74.0797C149.922 74.3063 149.62 74.4196 149.234 74.4196H145.383ZM152.396 71.9023V65.6974H153.668V66.4274H153.869C153.986 66.2092 154.175 66.0162 154.435 65.8484C154.695 65.6806 155.048 65.5967 155.493 65.5967C155.954 65.5967 156.323 65.6932 156.6 65.8862C156.885 66.0708 157.099 66.3099 157.242 66.6036H157.443C157.586 66.3183 157.792 66.0792 158.06 65.8862C158.337 65.6932 158.727 65.5967 159.231 65.5967C159.633 65.5967 159.99 65.6806 160.301 65.8484C160.611 66.0078 160.858 66.2512 161.043 66.5784C161.228 66.8973 161.32 67.2958 161.32 67.7741V71.9023H160.024V67.8748C160.024 67.4972 159.919 67.2077 159.709 67.0063C159.508 66.7966 159.218 66.6917 158.841 66.6917C158.438 66.6917 158.115 66.8217 157.871 67.0819C157.628 67.342 157.506 67.7154 157.506 68.202V71.9023H156.21V67.8748C156.21 67.4972 156.105 67.2077 155.895 67.0063C155.694 66.7966 155.405 66.6917 155.027 66.6917C154.624 66.6917 154.301 66.8217 154.058 67.0819C153.814 67.342 153.693 67.7154 153.693 68.202V71.9023H152.396ZM166.033 72.0785C165.403 72.0785 164.854 71.9485 164.384 71.6884C163.914 71.4199 163.545 71.0465 163.276 70.5682C163.016 70.0815 162.886 69.5194 162.886 68.8817V68.7306C162.886 68.0845 163.016 67.5224 163.276 67.0441C163.536 66.5574 163.897 66.184 164.359 65.9239C164.828 65.6554 165.37 65.5212 165.982 65.5212C166.578 65.5212 167.098 65.6554 167.543 65.9239C167.996 66.184 168.348 66.549 168.6 67.0189C168.852 67.4888 168.978 68.0384 168.978 68.6677V69.1586H164.208C164.224 69.704 164.405 70.1403 164.749 70.4675C165.101 70.7864 165.537 70.9458 166.058 70.9458C166.544 70.9458 166.909 70.8367 167.153 70.6186C167.404 70.4004 167.597 70.1487 167.732 69.8634L168.801 70.4172C168.684 70.6521 168.512 70.8996 168.285 71.1598C168.067 71.4199 167.778 71.638 167.417 71.8142C167.056 71.9904 166.595 72.0785 166.033 72.0785ZM164.22 68.1643H167.656C167.623 67.6944 167.455 67.3294 167.153 67.0693C166.851 66.8008 166.456 66.6665 165.97 66.6665C165.483 66.6665 165.084 66.8008 164.774 67.0693C164.472 67.3294 164.287 67.6944 164.22 68.1643ZM170.538 71.9023V65.6974H171.809V66.6288H172.011C172.128 66.377 172.338 66.1421 172.64 65.9239C172.942 65.7058 173.391 65.5967 173.987 65.5967C174.457 65.5967 174.872 65.7016 175.233 65.9113C175.602 66.1211 175.891 66.419 176.101 66.805C176.311 67.1825 176.416 67.6398 176.416 68.1768V71.9023H175.12V68.2775C175.12 67.7405 174.985 67.3462 174.717 67.0944C174.448 66.8343 174.079 66.7043 173.609 66.7043C173.072 66.7043 172.64 66.8805 172.313 67.2329C171.994 67.5853 171.835 68.0971 171.835 68.7684V71.9023H170.538ZM180.438 71.9023C180.06 71.9023 179.758 71.7891 179.532 71.5625C179.314 71.336 179.204 71.0339 179.204 70.6563V66.7924H177.493V65.6974H179.204V63.6458H180.501V65.6974H182.351V66.7924H180.501V70.4298C180.501 70.6815 180.618 70.8073 180.853 70.8073H182.15V71.9023H180.438ZM189.989 72.0785C189.369 72.0785 188.815 71.9527 188.328 71.701C187.85 71.4409 187.472 71.0717 187.195 70.5934C186.918 70.1151 186.78 69.5487 186.78 68.8943V68.7055C186.78 68.051 186.918 67.4888 187.195 67.0189C187.472 66.5407 187.85 66.1715 188.328 65.9113C188.815 65.6512 189.369 65.5212 189.989 65.5212C190.61 65.5212 191.164 65.6512 191.651 65.9113C192.137 66.1715 192.519 66.5407 192.796 67.0189C193.073 67.4888 193.211 68.051 193.211 68.7055V68.8943C193.211 69.5487 193.073 70.1151 192.796 70.5934C192.519 71.0717 192.137 71.4409 191.651 71.701C191.164 71.9527 190.61 72.0785 189.989 72.0785ZM189.989 70.9206C190.56 70.9206 191.021 70.7402 191.374 70.3794C191.735 70.0102 191.915 69.5026 191.915 68.8565V68.7432C191.915 68.0971 191.739 67.5937 191.386 67.2329C191.034 66.8637 190.568 66.6791 189.989 66.6791C189.427 66.6791 188.966 66.8637 188.605 67.2329C188.253 67.5937 188.076 68.0971 188.076 68.7432V68.8565C188.076 69.5026 188.253 70.0102 188.605 70.3794C188.966 70.7402 189.427 70.9206 189.989 70.9206ZM195.712 71.9023V66.7924H193.975V65.6974H195.712V64.3381C195.712 63.9605 195.825 63.6584 196.052 63.4319C196.278 63.2053 196.581 63.092 196.958 63.092H198.557V64.187H197.373C197.13 64.187 197.008 64.3129 197.008 64.5646V65.6974H198.796V66.7924H197.008V71.9023H195.712ZM205.659 71.9023C205.282 71.9023 204.98 71.7891 204.753 71.5625C204.535 71.336 204.426 71.0339 204.426 70.6563V66.7924H202.714V65.6974H204.426V63.6458H205.722V65.6974H207.572V66.7924H205.722V70.4298C205.722 70.6815 205.84 70.8073 206.075 70.8073H207.371V71.9023H205.659ZM209.095 71.9023V63.092H210.392V66.5784H210.593C210.677 66.419 210.795 66.2638 210.946 66.1127C211.105 65.9617 211.311 65.84 211.562 65.7477C211.822 65.647 212.15 65.5967 212.544 65.5967C213.014 65.5967 213.429 65.7016 213.79 65.9113C214.159 66.1211 214.449 66.419 214.659 66.805C214.868 67.1825 214.973 67.6398 214.973 68.1768V71.9023H213.677V68.2775C213.677 67.7405 213.543 67.3462 213.274 67.0944C213.006 66.8343 212.636 66.7043 212.167 66.7043C211.629 66.7043 211.197 66.8805 210.87 67.2329C210.551 67.5853 210.392 68.0971 210.392 68.7684V71.9023H209.095ZM216.839 71.9023V65.6974H218.135V71.9023H216.839ZM217.493 64.8541C217.242 64.8541 217.028 64.7744 216.851 64.615C216.684 64.4472 216.6 64.2332 216.6 63.9731C216.6 63.713 216.684 63.5032 216.851 63.3438C217.028 63.176 217.242 63.092 217.493 63.092C217.753 63.092 217.967 63.176 218.135 63.3438C218.303 63.5032 218.387 63.713 218.387 63.9731C218.387 64.2332 218.303 64.4472 218.135 64.615C217.967 64.7744 217.753 64.8541 217.493 64.8541ZM222.602 72.0785C221.813 72.0785 221.158 71.9023 220.638 71.5499C220.118 71.1975 219.799 70.6647 219.682 69.9515L220.89 69.662C220.957 70.006 221.07 70.2787 221.23 70.4801C221.389 70.6815 221.586 70.8241 221.821 70.908C222.065 70.9919 222.325 71.0339 222.602 71.0339C223.013 71.0339 223.327 70.9542 223.546 70.7948C223.772 70.6353 223.885 70.4298 223.885 70.178C223.885 69.9263 223.78 69.7417 223.571 69.6243C223.361 69.5068 223.05 69.4103 222.639 69.3348L222.211 69.2593C221.792 69.1837 221.41 69.0747 221.066 68.932C220.722 68.7894 220.449 68.5922 220.248 68.3405C220.047 68.0887 219.946 67.7657 219.946 67.3713C219.946 66.784 220.164 66.3309 220.6 66.012C221.037 65.6848 221.616 65.5212 222.337 65.5212C223.034 65.5212 223.604 65.6806 224.049 65.9994C224.502 66.3099 224.796 66.7336 224.93 67.2706L223.722 67.6105C223.646 67.2329 223.487 66.9686 223.243 66.8175C223 66.6581 222.698 66.5784 222.337 66.5784C221.985 66.5784 221.708 66.6455 221.507 66.7798C221.305 66.9056 221.205 67.086 221.205 67.321C221.205 67.5727 221.301 67.7573 221.494 67.8748C221.695 67.9923 221.964 68.0804 222.3 68.1391L222.74 68.2146C223.185 68.2901 223.592 68.395 223.961 68.5293C224.33 68.6635 224.62 68.8565 224.829 69.1082C225.047 69.3599 225.157 69.6956 225.157 70.1151C225.157 70.736 224.926 71.2185 224.464 71.5625C224.003 71.9065 223.382 72.0785 222.602 72.0785ZM229.88 71.9023V63.092H231.176V71.9023H229.88ZM236.007 72.0785C235.387 72.0785 234.833 71.9527 234.346 71.701C233.868 71.4409 233.49 71.0717 233.213 70.5934C232.936 70.1151 232.798 69.5487 232.798 68.8943V68.7055C232.798 68.051 232.936 67.4888 233.213 67.0189C233.49 66.5407 233.868 66.1715 234.346 65.9113C234.833 65.6512 235.387 65.5212 236.007 65.5212C236.628 65.5212 237.182 65.6512 237.669 65.9113C238.156 66.1715 238.537 66.5407 238.814 67.0189C239.091 67.4888 239.23 68.051 239.23 68.7055V68.8943C239.23 69.5487 239.091 70.1151 238.814 70.5934C238.537 71.0717 238.156 71.4409 237.669 71.701C237.182 71.9527 236.628 72.0785 236.007 72.0785ZM236.007 70.9206C236.578 70.9206 237.04 70.7402 237.392 70.3794C237.753 70.0102 237.933 69.5026 237.933 68.8565V68.7432C237.933 68.0971 237.757 67.5937 237.405 67.2329C237.052 66.8637 236.586 66.6791 236.007 66.6791C235.445 66.6791 234.984 66.8637 234.623 67.2329C234.271 67.5937 234.094 68.0971 234.094 68.7432V68.8565C234.094 69.5026 234.271 70.0102 234.623 70.3794C234.984 70.7402 235.445 70.9206 236.007 70.9206ZM242.769 72.0785C242.324 72.0785 241.926 72.003 241.574 71.852C241.229 71.701 240.953 71.4786 240.743 71.1849C240.541 70.8913 240.441 70.5347 240.441 70.1151C240.441 69.6872 240.541 69.3348 240.743 69.0579C240.953 68.7726 241.234 68.5586 241.586 68.416C241.947 68.2733 242.354 68.202 242.807 68.202H244.695V67.7993C244.695 67.4385 244.586 67.149 244.368 66.9308C244.149 66.7127 243.814 66.6036 243.361 66.6036C242.916 66.6036 242.576 66.7085 242.341 66.9182C242.106 67.128 241.951 67.4007 241.876 67.7363L240.667 67.3462C240.768 67.0105 240.927 66.7085 241.146 66.44C241.372 66.1631 241.67 65.9407 242.039 65.7729C242.408 65.6051 242.853 65.5212 243.373 65.5212C244.179 65.5212 244.812 65.7267 245.274 66.1379C245.735 66.549 245.966 67.1322 245.966 67.8874V70.4424C245.966 70.6941 246.084 70.8199 246.318 70.8199H246.847V71.9023H245.878C245.584 71.9023 245.345 71.8268 245.161 71.6758C244.976 71.5248 244.884 71.3192 244.884 71.0591V71.0213H244.695C244.628 71.1472 244.527 71.294 244.393 71.4618C244.259 71.6296 244.061 71.7765 243.801 71.9023C243.541 72.0198 243.197 72.0785 242.769 72.0785ZM242.958 71.0087C243.478 71.0087 243.898 70.8619 244.217 70.5682C244.535 70.2661 244.695 69.855 244.695 69.3348V69.2089H242.882C242.538 69.2089 242.262 69.2844 242.052 69.4355C241.842 69.5781 241.737 69.7921 241.737 70.0774C241.737 70.3626 241.846 70.5892 242.064 70.757C242.283 70.9248 242.58 71.0087 242.958 71.0087ZM248.108 71.9023V65.6974H249.379V66.6288H249.58C249.698 66.377 249.907 66.1421 250.209 65.9239C250.512 65.7058 250.96 65.5967 251.556 65.5967C252.026 65.5967 252.441 65.7016 252.802 65.9113C253.171 66.1211 253.461 66.419 253.671 66.805C253.88 67.1825 253.985 67.6398 253.985 68.1768V71.9023H252.689V68.2775C252.689 67.7405 252.555 67.3462 252.286 67.0944C252.018 66.8343 251.648 66.7043 251.179 66.7043C250.642 66.7043 250.209 66.8805 249.882 67.2329C249.563 67.5853 249.404 68.0971 249.404 68.7684V71.9023H248.108Z" fill="#102E34"/>
<circle cx="42.0282" cy="47.4983" r="19.7782" fill="#E9E9E9"/>
<path fill-rule="evenodd" clip-rule="evenodd" d="M42.0282 56.4887C46.4967 56.4887 50.1193 52.8661 50.1193 48.3976C50.1193 43.929 46.4967 40.3065 42.0282 40.3065C37.5597 40.3065 33.9371 43.929 33.9371 48.3976C33.9371 52.8661 37.5597 56.4887 42.0282 56.4887ZM42.0282 57.3877C46.9934 57.3877 51.0183 53.3628 51.0183 48.3976C51.0183 43.4323 46.9934 39.4075 42.0282 39.4075C37.063 39.4075 33.0381 43.4323 33.0381 48.3976C33.0381 53.3628 37.063 57.3877 42.0282 57.3877Z" fill="#102E34"/>
<circle opacity="0.2" cx="42.0286" cy="48.3974" r="8.09109" fill="#102E34"/>
<path d="M36.6338 53.6252C36.6338 53.1609 36.9808 52.7685 37.4429 52.7172C40.9108 52.3333 43.1606 52.3679 46.6209 52.7258C46.7937 52.7439 46.9575 52.812 47.0922 52.9217C47.2269 53.0313 47.3268 53.1779 47.3796 53.3434C47.4325 53.5089 47.4359 53.6863 47.3896 53.8537C47.3433 54.0212 47.2493 54.1715 47.1189 54.2864C43.0352 57.8461 40.7014 57.7971 36.9215 54.29C36.7372 54.1192 36.6338 53.8765 36.6338 53.6257V53.6252Z" fill="#102E34"/>
<path fill-rule="evenodd" clip-rule="evenodd" d="M46.5749 53.1728C43.142 52.8177 40.9246 52.7845 37.4922 53.1643C37.2611 53.1899 37.0836 53.3872 37.0836 53.6259C37.0836 53.7545 37.1371 53.8763 37.2274 53.9608C39.101 55.6986 40.5205 56.4839 41.9081 56.4888C43.3007 56.4938 44.7966 55.7148 46.8239 53.9482C46.8883 53.8909 46.9347 53.8161 46.9574 53.7329C46.98 53.6497 46.9781 53.5618 46.9517 53.4797C46.9253 53.3976 46.8757 53.3249 46.8088 53.2705C46.7419 53.2161 46.6606 53.1823 46.5749 53.1733V53.1728ZM37.3937 52.2707C40.8981 51.8827 43.1807 51.9178 46.6679 52.2788C46.9279 52.3059 47.1743 52.4082 47.377 52.5732C47.5796 52.7383 47.7298 52.9588 47.8091 53.2078C47.8884 53.4569 47.8933 53.7236 47.8233 53.9755C47.7533 54.2273 47.6114 54.4532 47.415 54.6256C45.3585 56.4182 43.6459 57.3946 41.9054 57.3878C40.16 57.3815 38.5229 56.3886 36.6165 54.6198C36.4801 54.4926 36.3712 54.3387 36.2969 54.1677C36.2226 53.9966 36.1844 53.812 36.1846 53.6255C36.1839 53.2903 36.3069 52.9667 36.53 52.7167C36.7532 52.4666 37.0607 52.3076 37.3937 52.2702V52.2707Z" fill="#102E34"/>
<path d="M45.6237 46.5995C45.6237 47.5532 45.2449 48.4679 44.5705 49.1422C43.8961 49.8166 42.9814 50.1955 42.0277 50.1955C41.074 50.1955 40.1593 49.8166 39.4849 49.1422C38.8105 48.4679 38.4316 47.5532 38.4316 46.5995C38.4316 45.6457 38.8105 44.7311 39.4849 44.0567C40.1593 43.3823 41.074 43.0034 42.0277 43.0034C42.9814 43.0034 43.8961 43.3823 44.5705 44.0567C45.2449 44.7311 45.6237 45.6457 45.6237 46.5995Z" fill="#102E34"/>
</g>
</g>
<defs>
<filter id="filter0_d_1191_57632" x="-45.1621" y="-22.9678" width="385.65" height="186.969" filterUnits="userSpaceOnUse" color-interpolation-filters="sRGB">
<feFlood flood-opacity="0" result="BackgroundImageFix"/>
<feColorMatrix in="SourceAlpha" type="matrix" values="0 0 0 0 0 0 0 0 0 0 0 0 0 0 0 0 0 0 127 0" result="hardAlpha"/>
<feMorphology radius="4.9157" operator="dilate" in="SourceAlpha" result="effect1_dropShadow_1191_57632"/>
<feOffset dy="23.0182"/>
<feGaussianBlur stdDeviation="20.4606"/>
<feComposite in2="hardAlpha" operator="out"/>
<feColorMatrix type="matrix" values="0 0 0 0 0.0590972 0 0 0 0 0.143837 0 0 0 0 0.308333 0 0 0 0.2 0"/>
<feBlend mode="normal" in2="BackgroundImageFix" result="effect1_dropShadow_1191_57632"/>
<feBlend mode="normal" in="SourceGraphic" in2="effect1_dropShadow_1191_57632" result="shape"/>
</filter>
<clipPath id="clip0_1191_57632">
<rect width="294.121" height="242.969" fill="white" transform="translate(0.470703 0.105957)"/>
</clipPath>
</defs>
</svg>
