<svg width="170" height="51" viewBox="0 0 170 51" fill="none" xmlns="http://www.w3.org/2000/svg">
<rect y="0.584595" width="170" height="50" rx="7" fill="black"/>
<path d="M45.6227 25.2681C45.5949 22.255 48.1532 20.7891 48.2701 20.7208C46.8213 18.6613 44.5757 18.3799 43.7865 18.3575C41.9005 18.1639 40.071 19.4578 39.1102 19.4578C38.1303 19.4578 36.6508 18.3762 35.0562 18.4079C33.0043 18.4388 31.0846 19.5971 30.0318 21.3958C27.8591 25.0634 29.4795 30.4529 31.5612 33.4175C32.6025 34.8693 33.8193 36.4904 35.4119 36.4334C36.9701 36.3707 37.5521 35.4648 39.4324 35.4648C41.2954 35.4648 41.842 36.4334 43.4663 36.3969C45.1385 36.3707 46.1913 34.9385 47.1962 33.4735C48.3996 31.8095 48.8828 30.1706 48.902 30.0865C48.8627 30.0734 45.6544 28.8795 45.6227 25.2681Z" fill="#FAFFF5"/>
<path d="M42.5544 16.4073C43.3925 15.3855 43.9658 13.9953 43.8067 12.5846C42.5937 12.6369 41.0768 13.4026 40.2033 14.402C39.4305 15.2826 38.7401 16.7261 38.9185 18.0835C40.281 18.1826 41.6799 17.4132 42.5544 16.4073Z" fill="#FAFFF5"/>
<path d="M75.3552 36.2259H73.1777L71.9849 32.5714H67.8388L66.7025 36.2259H64.5825L68.6902 23.7845H71.2274L75.3552 36.2259ZM71.6253 31.0382L70.5466 27.7895C70.4325 27.4576 70.2186 26.6761 69.9032 25.4458H69.8648C69.7392 25.9749 69.5369 26.7565 69.2588 27.7895L68.1993 31.0382H71.6253Z" fill="#FAFFF5"/>
<path d="M85.919 31.6308C85.919 33.1565 85.4961 34.3625 84.6504 35.2478C83.8929 36.0359 82.9523 36.4295 81.8295 36.4295C80.6175 36.4295 79.7468 36.0051 79.2166 35.1562H79.1782V39.882H77.134V30.2088C77.134 29.2497 77.1081 28.2652 77.0582 27.2556H78.8561L78.9702 28.6775H79.0085C79.6903 27.6061 80.7249 27.0714 82.1133 27.0714C83.1987 27.0714 84.1048 27.4893 84.8297 28.326C85.5565 29.1636 85.919 30.2649 85.919 31.6308ZM83.8363 31.7037C83.8363 30.8305 83.635 30.1107 83.2304 29.5441C82.7883 28.9533 82.1948 28.6579 81.4507 28.6579C80.9464 28.6579 80.488 28.8224 80.0786 29.1468C79.6682 29.474 79.3997 29.9013 79.2741 30.4304C79.2108 30.6772 79.1792 30.8791 79.1792 31.0381V32.5339C79.1792 33.1864 79.3844 33.7371 79.7948 34.1868C80.2052 34.6364 80.7383 34.8608 81.3942 34.8608C82.1641 34.8608 82.7634 34.571 83.192 33.9932C83.6216 33.4145 83.8363 32.6517 83.8363 31.7037Z" fill="#FAFFF5"/>
<path d="M96.5019 31.6308C96.5019 33.1565 96.079 34.3625 95.2324 35.2478C94.4758 36.0359 93.5352 36.4295 92.4124 36.4295C91.2004 36.4295 90.3298 36.0051 89.8005 35.1562H89.7621V39.882H87.7178V30.2088C87.7178 29.2497 87.692 28.2652 87.6421 27.2556H89.4399L89.554 28.6775H89.5924C90.2732 27.6061 91.3078 27.0714 92.6972 27.0714C93.7816 27.0714 94.6877 27.4893 95.4145 28.326C96.1385 29.1636 96.5019 30.2649 96.5019 31.6308ZM94.4193 31.7037C94.4193 30.8305 94.2169 30.1107 93.8123 29.5441C93.3703 28.9533 92.7787 28.6579 92.0336 28.6579C91.5283 28.6579 91.0709 28.8224 90.6606 29.1468C90.2502 29.474 89.9826 29.9013 89.857 30.4304C89.7947 30.6772 89.7621 30.8791 89.7621 31.0381V32.5339C89.7621 33.1864 89.9673 33.7371 90.3758 34.1868C90.7862 34.6355 91.3193 34.8608 91.9771 34.8608C92.747 34.8608 93.3463 34.571 93.7749 33.9932C94.2045 33.4145 94.4193 32.6517 94.4193 31.7037Z" fill="#FAFFF5"/>
<path d="M108.334 32.7369C108.334 33.7952 107.957 34.6562 107.201 35.3209C106.369 36.0473 105.212 36.41 103.725 36.41C102.352 36.41 101.251 36.152 100.418 35.635L100.892 33.9737C101.789 34.5029 102.774 34.7684 103.847 34.7684C104.617 34.7684 105.216 34.5982 105.646 34.2598C106.075 33.9214 106.289 33.467 106.289 32.9005C106.289 32.3957 106.112 31.9703 105.759 31.6253C105.407 31.2803 104.819 30.9597 103.998 30.6633C101.764 29.8509 100.648 28.6608 100.648 27.0958C100.648 26.0731 101.039 25.2345 101.823 24.5819C102.603 23.9284 103.644 23.6022 104.947 23.6022C106.108 23.6022 107.072 23.7994 107.842 24.193L107.331 25.8178C106.612 25.4364 105.799 25.2457 104.889 25.2457C104.17 25.2457 103.608 25.4186 103.205 25.7627C102.865 26.0703 102.694 26.4451 102.694 26.8892C102.694 27.381 102.889 27.7876 103.28 28.1074C103.62 28.4028 104.239 28.7225 105.136 29.0675C106.234 29.4985 107.041 30.0024 107.559 30.5801C108.076 31.156 108.334 31.8768 108.334 32.7369Z" fill="#FAFFF5"/>
<path d="M115.093 28.7497H112.84V33.1053C112.84 34.2131 113.237 34.7666 114.033 34.7666C114.398 34.7666 114.701 34.7357 114.941 34.674L114.997 36.1876C114.594 36.3344 114.064 36.4082 113.407 36.4082C112.6 36.4082 111.969 36.168 111.514 35.6884C111.06 35.2078 110.832 34.402 110.832 33.2698V28.7478H109.49V27.252H110.832V25.6094L112.84 25.0186V27.252H115.093V28.7497Z" fill="#FAFFF5"/>
<path d="M125.26 31.6663C125.26 33.0453 124.855 34.1774 124.048 35.0627C123.201 35.9742 122.077 36.4286 120.676 36.4286C119.326 36.4286 118.251 35.992 117.45 35.1188C116.648 34.2457 116.247 33.1434 116.247 31.815C116.247 30.4248 116.66 29.2861 117.487 28.4008C118.313 27.5145 119.427 27.0714 120.828 27.0714C122.178 27.0714 123.264 27.508 124.084 28.3821C124.868 29.23 125.26 30.3248 125.26 31.6663ZM123.139 31.7308C123.139 30.9035 122.957 30.1939 122.59 29.6021C122.162 28.886 121.549 28.5289 120.755 28.5289C119.933 28.5289 119.309 28.8869 118.88 29.6021C118.513 30.1948 118.332 30.9156 118.332 31.7682C118.332 32.5956 118.513 33.3052 118.88 33.896C119.322 34.6121 119.94 34.9692 120.737 34.9692C121.517 34.9692 122.13 34.6046 122.572 33.8773C122.949 33.2743 123.139 32.5573 123.139 31.7308Z" fill="#FAFFF5"/>
<path d="M131.905 29.0085C131.702 28.972 131.487 28.9533 131.26 28.9533C130.541 28.9533 129.985 29.2179 129.594 29.7479C129.253 30.2154 129.083 30.8062 129.083 31.5195V36.2267H127.039L127.059 30.0808C127.059 29.0468 127.033 28.1054 126.982 27.2565H128.762L128.837 28.9729H128.894C129.11 28.383 129.45 27.9081 129.916 27.5519C130.371 27.2312 130.863 27.0714 131.394 27.0714C131.582 27.0714 131.753 27.0845 131.905 27.1078V29.0085Z" fill="#FAFFF5"/>
<path d="M141.047 31.3166C141.047 31.6737 141.023 31.9748 140.972 32.2207H134.839C134.863 33.1069 135.16 33.7847 135.729 34.2521C136.246 34.67 136.914 34.8795 137.735 34.8795C138.643 34.8795 139.472 34.7383 140.217 34.455L140.537 35.8386C139.666 36.2089 138.638 36.393 137.452 36.393C136.025 36.393 134.906 35.9835 134.09 35.1655C133.277 34.3475 132.87 33.249 132.87 31.871C132.87 30.5182 133.249 29.3917 134.007 28.4933C134.801 27.5341 135.874 27.0545 137.224 27.0545C138.55 27.0545 139.554 27.5341 140.236 28.4933C140.776 29.2552 141.047 30.1976 141.047 31.3166ZM139.098 30.7996C139.111 30.2088 138.978 29.6983 138.701 29.2674C138.347 28.713 137.803 28.4363 137.072 28.4363C136.403 28.4363 135.86 28.7064 135.444 29.2487C135.104 29.6796 134.902 30.1966 134.839 30.7987H139.098V30.7996Z" fill="#FAFFF5"/>
<path d="M70.9495 16.1305C70.9495 17.2309 70.611 18.0592 69.935 18.6154C69.3089 19.1287 68.4191 19.3858 67.2666 19.3858C66.6951 19.3858 66.2061 19.3615 65.7966 19.3128V13.3006C66.3307 13.2165 66.906 13.1735 67.5274 13.1735C68.6252 13.1735 69.4527 13.4063 70.0108 13.8718C70.636 14.3982 70.9495 15.1507 70.9495 16.1305ZM69.89 16.1576C69.89 15.4443 69.6963 14.8974 69.3089 14.516C68.9215 14.1355 68.3558 13.9448 67.6108 13.9448C67.2944 13.9448 67.0249 13.9653 66.8015 14.0083V18.579C66.9252 18.5977 67.1515 18.6061 67.4804 18.6061C68.2494 18.6061 68.8429 18.3976 69.261 17.9806C69.679 17.5637 69.89 16.956 69.89 16.1576Z" fill="#FAFFF5"/>
<path d="M76.5674 17.0914C76.5674 17.7692 76.3689 18.3245 75.972 18.7602C75.5558 19.208 75.0045 19.4314 74.316 19.4314C73.6525 19.4314 73.1242 19.2174 72.7301 18.7873C72.3369 18.3582 72.1404 17.8169 72.1404 17.1644C72.1404 16.4819 72.3427 15.9219 72.7493 15.4872C73.1558 15.0525 73.7024 14.8346 74.3908 14.8346C75.0543 14.8346 75.5875 15.0487 75.9911 15.4778C76.3747 15.8948 76.5674 16.4333 76.5674 17.0914ZM75.5251 17.1232C75.5251 16.7166 75.435 16.3678 75.2557 16.0771C75.0447 15.7256 74.7446 15.5498 74.3544 15.5498C73.9507 15.5498 73.6439 15.7256 73.4329 16.0771C73.2526 16.3678 73.1635 16.7222 73.1635 17.141C73.1635 17.5477 73.2536 17.8964 73.4329 18.1871C73.6506 18.5386 73.9536 18.7144 74.3448 18.7144C74.7283 18.7144 75.0294 18.5358 75.2461 18.1778C75.4321 17.8814 75.5251 17.5299 75.5251 17.1232Z" fill="#FAFFF5"/>
<path d="M84.1002 14.9241L82.6859 19.3311H81.7654L81.1796 17.4174C81.0309 16.9397 80.9101 16.4648 80.8162 15.9936H80.7979C80.7107 16.4779 80.5899 16.9519 80.4345 17.4174L79.8122 19.3311H78.8812L77.5513 14.9241H78.584L79.095 17.0192C79.2187 17.5147 79.3204 17.9868 79.4019 18.4336H79.4201C79.4949 18.0653 79.6186 17.596 79.7931 17.0285L80.4345 14.925H81.2534L81.868 16.9836C82.0166 17.4857 82.1375 17.969 82.2305 18.4346H82.2583C82.3263 17.9812 82.4289 17.4978 82.5651 16.9836L83.1136 14.925H84.1002V14.9241Z" fill="#FAFFF5"/>
<path d="M89.3096 19.3308H88.3047V16.8067C88.3047 16.0289 88.0017 15.6399 87.3938 15.6399C87.0956 15.6399 86.855 15.7465 86.668 15.9606C86.4829 16.1747 86.389 16.4271 86.389 16.716V19.3299H85.3841V16.1831C85.3841 15.7961 85.3716 15.3763 85.3477 14.922H86.2308L86.2777 15.611H86.3055C86.4225 15.3969 86.597 15.2202 86.8262 15.079C87.0985 14.9145 87.4034 14.8313 87.7371 14.8313C88.159 14.8313 88.5099 14.964 88.789 15.2305C89.1361 15.5567 89.3096 16.0438 89.3096 16.6907V19.3308Z" fill="#FAFFF5"/>
<path d="M92.0807 19.3308H91.0768V12.9017H92.0807V19.3308Z" fill="#FAFFF5"/>
<path d="M97.9968 17.0914C97.9968 17.7692 97.7984 18.3245 97.4014 18.7602C96.9853 19.208 96.433 19.4314 95.7455 19.4314C95.081 19.4314 94.5526 19.2174 94.1595 18.7873C93.7664 18.3582 93.5698 17.8169 93.5698 17.1644C93.5698 16.4819 93.7721 15.9219 94.1787 15.4872C94.5853 15.0525 95.1318 14.8346 95.8193 14.8346C96.4838 14.8346 97.0159 15.0487 97.4206 15.4778C97.8041 15.8948 97.9968 16.4333 97.9968 17.0914ZM96.9536 17.1232C96.9536 16.7166 96.8635 16.3678 96.6842 16.0771C96.4742 15.7256 96.1731 15.5498 95.7838 15.5498C95.3792 15.5498 95.0723 15.7256 94.8624 16.0771C94.6821 16.3678 94.5929 16.7222 94.5929 17.141C94.5929 17.5477 94.6831 17.8964 94.8624 18.1871C95.08 18.5386 95.383 18.7144 95.7742 18.7144C96.1578 18.7144 96.4579 18.5358 96.6746 18.1778C96.8616 17.8814 96.9536 17.5299 96.9536 17.1232Z" fill="#FAFFF5"/>
<path d="M102.86 19.3314H101.958L101.883 18.8238H101.855C101.547 19.2286 101.106 19.4314 100.535 19.4314C100.108 19.4314 99.7631 19.2978 99.5032 19.0323C99.2674 18.7911 99.1494 18.491 99.1494 18.1348C99.1494 17.5963 99.3795 17.1859 99.8427 16.9017C100.305 16.6175 100.955 16.4782 101.792 16.4847V16.4024C101.792 15.8219 101.479 15.5321 100.853 15.5321C100.407 15.5321 100.014 15.6414 99.6749 15.8583L99.4706 15.2151C99.8906 14.9618 100.409 14.8346 101.021 14.8346C102.202 14.8346 102.795 15.4423 102.795 16.6577V18.2806C102.795 18.7209 102.817 19.0715 102.86 19.3314ZM101.817 17.8169V17.1373C100.709 17.1186 100.154 17.4149 100.154 18.0254C100.154 18.2554 100.218 18.4274 100.347 18.5424C100.476 18.6574 100.641 18.7144 100.838 18.7144C101.058 18.7144 101.265 18.6461 101.453 18.5106C101.641 18.3741 101.757 18.2011 101.801 17.9889C101.811 17.9412 101.817 17.8833 101.817 17.8169Z" fill="#FAFFF5"/>
<path d="M108.57 19.3308H107.678L107.631 18.6231H107.603C107.319 19.1616 106.833 19.4309 106.152 19.4309C105.607 19.4309 105.154 19.2224 104.794 18.8054C104.434 18.3885 104.255 17.8472 104.255 17.1825C104.255 16.4692 104.45 15.8914 104.841 15.4502C105.22 15.0388 105.684 14.8331 106.236 14.8331C106.843 14.8331 107.268 15.0323 107.509 15.4315H107.529V12.9017H108.534V18.1435C108.534 18.5727 108.546 18.9681 108.57 19.3308ZM107.529 17.4723V16.7375C107.529 16.6103 107.519 16.5075 107.501 16.429C107.444 16.1934 107.322 15.9952 107.137 15.8353C106.95 15.6755 106.725 15.5951 106.465 15.5951C106.09 15.5951 105.797 15.74 105.581 16.0307C105.367 16.3215 105.259 16.6926 105.259 17.146C105.259 17.5817 105.362 17.9351 105.568 18.2071C105.785 18.4969 106.079 18.6418 106.446 18.6418C106.776 18.6418 107.04 18.5212 107.24 18.2791C107.434 18.0557 107.529 17.7864 107.529 17.4723Z" fill="#FAFFF5"/>
<path d="M117.164 17.0914C117.164 17.7692 116.966 18.3245 116.569 18.7602C116.153 19.208 115.602 19.4314 114.913 19.4314C114.25 19.4314 113.722 19.2174 113.327 18.7873C112.934 18.3582 112.737 17.8169 112.737 17.1644C112.737 16.4819 112.94 15.9219 113.346 15.4872C113.753 15.0525 114.299 14.8346 114.989 14.8346C115.651 14.8346 116.185 15.0487 116.588 15.4778C116.971 15.8948 117.164 16.4333 117.164 17.0914ZM116.123 17.1232C116.123 16.7166 116.033 16.3678 115.853 16.0771C115.642 15.7256 115.342 15.5498 114.951 15.5498C114.548 15.5498 114.242 15.7256 114.03 16.0771C113.849 16.3678 113.76 16.7222 113.76 17.141C113.76 17.5477 113.85 17.8964 114.03 18.1871C114.247 18.5386 114.55 18.7144 114.942 18.7144C115.325 18.7144 115.627 18.5358 115.844 18.1778C116.029 17.8814 116.123 17.5299 116.123 17.1232Z" fill="#FAFFF5"/>
<path d="M122.567 19.3308H121.564V16.8067C121.564 16.0289 121.261 15.6399 120.652 15.6399C120.353 15.6399 120.113 15.7465 119.927 15.9606C119.741 16.1747 119.648 16.4271 119.648 16.716V19.3299H118.642V16.1831C118.642 15.7961 118.63 15.3763 118.606 14.922H119.489L119.536 15.611H119.563C119.681 15.3969 119.856 15.2202 120.084 15.079C120.357 14.9145 120.661 14.8313 120.996 14.8313C121.417 14.8313 121.768 14.964 122.047 15.2305C122.395 15.5567 122.567 16.0438 122.567 16.6907V19.3308Z" fill="#FAFFF5"/>
<path d="M129.33 15.6582H128.224V17.7991C128.224 18.3432 128.42 18.6153 128.809 18.6153C128.99 18.6153 129.139 18.6003 129.257 18.5694L129.283 19.3127C129.085 19.3856 128.824 19.4221 128.503 19.4221C128.106 19.4221 127.797 19.3043 127.574 19.0687C127.349 18.8331 127.238 18.4367 127.238 17.8804V15.6582H126.577V14.9243H127.238V14.1166L128.223 13.8268V14.9234H129.329V15.6582H129.33Z" fill="#FAFFF5"/>
<path d="M134.65 19.3308H133.644V16.8254C133.644 16.0354 133.341 15.6399 132.734 15.6399C132.268 15.6399 131.95 15.869 131.775 16.3271C131.746 16.4234 131.728 16.5412 131.728 16.6795V19.3299H130.724V12.9017H131.728V15.5577H131.747C132.064 15.0743 132.517 14.8331 133.105 14.8331C133.521 14.8331 133.866 14.9659 134.139 15.2323C134.479 15.5642 134.65 16.0578 134.65 16.7104V19.3308Z" fill="#FAFFF5"/>
<path d="M140.137 16.9194C140.137 17.0952 140.124 17.2429 140.1 17.3635H137.086C137.1 17.7991 137.244 18.131 137.523 18.361C137.778 18.5667 138.106 18.6695 138.509 18.6695C138.955 18.6695 139.362 18.6003 139.728 18.461L139.885 19.1416C139.457 19.323 138.952 19.4137 138.368 19.4137C137.668 19.4137 137.117 19.2127 136.718 18.8107C136.317 18.4087 136.119 17.8692 136.119 17.1924C136.119 16.5277 136.304 15.9742 136.677 15.533C137.066 15.0618 137.593 14.8262 138.257 14.8262C138.907 14.8262 139.401 15.0618 139.735 15.533C140.004 15.9069 140.137 16.3697 140.137 16.9194ZM139.178 16.666C139.186 16.3753 139.12 16.1248 138.984 15.9135C138.809 15.6414 138.544 15.5049 138.184 15.5049C137.856 15.5049 137.589 15.6377 137.384 15.9041C137.218 16.1163 137.119 16.3697 137.086 16.666H139.178Z" fill="#FAFFF5"/>
</svg>
