<svg width="460" height="379" viewBox="0 0 460 379" fill="none" xmlns="http://www.w3.org/2000/svg">
<rect x="28" y="68.6411" width="404" height="439.939" rx="9.91411" fill="white"/>
<rect x="28.6196" y="69.2607" width="402.761" height="438.699" rx="9.29448" stroke="#002026" stroke-opacity="0.1" stroke-width="1.23926"/>
<circle cx="227.521" cy="109.537" r="3.71779" fill="#E9C300"/>
<path d="M236.508 114.623L239.483 104.213H242.308L245.268 114.623H243.617L242.933 112.169H238.858L238.174 114.623H236.508ZM239.26 110.682H242.531L241.014 105.21H240.776L239.26 110.682ZM248.768 114.623L247.236 104.213H248.842L250.091 113.537H250.329L251.935 104.213H254.746L256.352 113.537H256.59L257.824 104.213H259.431L257.899 114.623H255.088L253.452 105.165H253.214L251.593 114.623H248.768ZM261.397 114.623L264.372 104.213H267.197L270.156 114.623H268.506L267.822 112.169H263.747L263.063 114.623H261.397ZM264.148 110.682H267.42L265.903 105.21H265.665L264.148 110.682ZM273.054 114.623V104.213H274.66V114.623H273.054ZM280.8 114.623V105.671H277.603V104.213H285.604V105.671H282.406V114.623H280.8ZM288.547 114.623V104.213H290.153V114.623H288.547ZM293.81 114.623V104.213H296.903L299.728 113.552H299.966V104.213H301.557V114.623H298.464L295.639 105.269H295.401V114.623H293.81ZM308.829 114.831C308.086 114.831 307.422 114.673 306.837 114.355C306.252 114.028 305.791 113.552 305.454 112.928C305.117 112.303 304.948 111.54 304.948 110.638V108.199C304.948 106.84 305.32 105.804 306.063 105.091C306.807 104.367 307.813 104.005 309.082 104.005C310.331 104.005 311.293 104.347 311.967 105.031C312.641 105.705 312.978 106.612 312.978 107.753V107.827H311.387V107.708C311.387 107.282 311.303 106.9 311.134 106.563C310.966 106.216 310.713 105.943 310.376 105.745C310.039 105.547 309.608 105.448 309.082 105.448C308.289 105.448 307.669 105.69 307.223 106.176C306.777 106.652 306.554 107.316 306.554 108.169V110.667C306.554 111.51 306.777 112.179 307.223 112.675C307.669 113.161 308.294 113.404 309.097 113.404C309.89 113.404 310.47 113.186 310.837 112.749C311.204 112.313 311.387 111.748 311.387 111.054V110.861H308.591V109.478H312.978V114.623H311.491V113.567H311.253C311.164 113.756 311.03 113.949 310.852 114.147C310.683 114.345 310.435 114.509 310.108 114.638C309.791 114.767 309.365 114.831 308.829 114.831ZM320.85 114.623L323.824 104.213H326.65L329.609 114.623H327.958L327.274 112.169H323.2L322.516 114.623H320.85ZM323.601 110.682H326.873L325.356 105.21H325.118L323.601 110.682ZM332.507 114.623V104.213H336.641C337.275 104.213 337.84 104.342 338.336 104.6C338.842 104.848 339.233 105.205 339.511 105.671C339.798 106.127 339.942 106.677 339.942 107.321V107.515C339.942 108.159 339.793 108.714 339.496 109.18C339.209 109.646 338.817 110.003 338.321 110.251C337.826 110.499 337.265 110.623 336.641 110.623H334.113V114.623H332.507ZM334.113 109.165H336.477C337.042 109.165 337.493 109.017 337.83 108.719C338.168 108.422 338.336 108.015 338.336 107.5V107.351C338.336 106.826 338.168 106.414 337.83 106.117C337.493 105.819 337.042 105.671 336.477 105.671H334.113V109.165ZM342.954 114.623V104.213H347.088C347.723 104.213 348.288 104.342 348.784 104.6C349.289 104.848 349.681 105.205 349.958 105.671C350.246 106.127 350.39 106.677 350.39 107.321V107.515C350.39 108.159 350.241 108.714 349.944 109.18C349.656 109.646 349.265 110.003 348.769 110.251C348.273 110.499 347.713 110.623 347.088 110.623H344.56V114.623H342.954ZM344.56 109.165H346.925C347.49 109.165 347.941 109.017 348.278 108.719C348.615 108.422 348.784 108.015 348.784 107.5V107.351C348.784 106.826 348.615 106.414 348.278 106.117C347.941 105.819 347.49 105.671 346.925 105.671H344.56V109.165ZM353.402 114.623V104.213H357.774C358.418 104.213 358.983 104.327 359.469 104.555C359.965 104.773 360.347 105.091 360.614 105.507C360.892 105.923 361.031 106.419 361.031 106.994V107.158C361.031 107.812 360.872 108.338 360.555 108.734C360.247 109.121 359.871 109.393 359.425 109.552V109.79C359.801 109.81 360.104 109.939 360.332 110.177C360.56 110.405 360.674 110.737 360.674 111.173V114.623H359.053V111.396C359.053 111.128 358.983 110.915 358.845 110.757C358.706 110.598 358.483 110.519 358.175 110.519H355.008V114.623H353.402ZM355.008 109.061H357.595C358.17 109.061 358.617 108.917 358.934 108.63C359.251 108.333 359.41 107.931 359.41 107.425V107.306C359.41 106.801 359.251 106.404 358.934 106.117C358.626 105.819 358.18 105.671 357.595 105.671H355.008V109.061ZM368.196 114.831C366.917 114.831 365.901 114.474 365.148 113.761C364.394 113.037 364.017 111.996 364.017 110.638V108.199C364.017 106.84 364.394 105.804 365.148 105.091C365.901 104.367 366.917 104.005 368.196 104.005C369.475 104.005 370.491 104.367 371.245 105.091C372.008 105.804 372.39 106.84 372.39 108.199V110.638C372.39 111.996 372.008 113.037 371.245 113.761C370.491 114.474 369.475 114.831 368.196 114.831ZM368.196 113.389C369.019 113.389 369.653 113.151 370.1 112.675C370.546 112.189 370.769 111.53 370.769 110.697V108.139C370.769 107.306 370.546 106.652 370.1 106.176C369.653 105.69 369.019 105.448 368.196 105.448C367.393 105.448 366.764 105.69 366.307 106.176C365.851 106.652 365.623 107.306 365.623 108.139V110.697C365.623 111.53 365.851 112.189 366.307 112.675C366.764 113.151 367.393 113.389 368.196 113.389ZM377.687 114.623L374.787 104.213H376.453L378.981 113.612H379.174L381.687 104.213H383.353L380.468 114.623H377.687ZM384.755 114.623L387.73 104.213H390.555L393.515 114.623H391.864L391.18 112.169H387.105L386.421 114.623H384.755ZM387.507 110.682H390.778L389.261 105.21H389.023L387.507 110.682ZM396.412 114.623V104.213H398.018V113.166H403.03V114.623H396.412Z" fill="#E9C300"/>
<path d="M58.9394 115.384V103.239H61.0388V113.493H66.7295V115.384H58.9394ZM72.4721 115.627C71.6161 115.627 70.847 115.453 70.1646 115.106C69.4937 114.748 68.9616 114.244 68.5684 113.597C68.1867 112.937 67.9958 112.151 67.9958 111.237V110.96C67.9958 110.046 68.1867 109.259 68.5684 108.6C68.9616 107.941 69.4937 107.438 70.1646 107.091C70.847 106.744 71.6161 106.57 72.4721 106.57C73.328 106.57 74.0914 106.744 74.7622 107.091C75.4331 107.438 75.9594 107.941 76.341 108.6C76.7343 109.259 76.9309 110.046 76.9309 110.96V111.237C76.9309 112.151 76.7343 112.937 76.341 113.597C75.9594 114.244 75.4331 114.748 74.7622 115.106C74.0914 115.453 73.328 115.627 72.4721 115.627ZM72.4721 113.857C73.2008 113.857 73.7964 113.626 74.2591 113.163C74.7217 112.689 74.9531 112.03 74.9531 111.185V111.012C74.9531 110.167 74.7217 109.514 74.2591 109.051C73.7964 108.577 73.2008 108.34 72.4721 108.34C71.7434 108.34 71.1477 108.577 70.685 109.051C70.2224 109.514 69.9911 110.167 69.9911 111.012V111.185C69.9911 112.03 70.2224 112.689 70.685 113.163C71.1477 113.626 71.7434 113.857 72.4721 113.857ZM81.707 115.627C81.1055 115.627 80.5619 115.523 80.0761 115.314C79.5903 115.095 79.2028 114.782 78.9137 114.378C78.6361 113.973 78.4973 113.475 78.4973 112.885C78.4973 112.307 78.6361 111.821 78.9137 111.428C79.2028 111.035 79.5961 110.74 80.0935 110.543C80.5908 110.335 81.1576 110.231 81.7937 110.231H84.2747V109.71C84.2747 109.259 84.1359 108.895 83.8583 108.617C83.5807 108.328 83.147 108.184 82.5571 108.184C81.9788 108.184 81.5393 108.322 81.2385 108.6C80.9494 108.866 80.7585 109.213 80.666 109.641L78.8269 109.034C78.9657 108.583 79.1855 108.172 79.4862 107.802C79.7985 107.432 80.2091 107.137 80.718 106.917C81.227 106.686 81.8516 106.57 82.5918 106.57C83.7138 106.57 84.5928 106.854 85.229 107.42C85.8767 107.975 86.2006 108.785 86.2006 109.849V113.215C86.2006 113.562 86.3625 113.736 86.6863 113.736H87.415V115.384H86.0097C85.5933 115.384 85.2521 115.28 84.9861 115.071C84.72 114.863 84.587 114.58 84.587 114.221V114.187H84.2921C84.2227 114.349 84.1012 114.545 83.9277 114.777C83.7542 115.008 83.4882 115.21 83.1297 115.384C82.7827 115.546 82.3084 115.627 81.707 115.627ZM82.0366 113.996C82.6959 113.996 83.2338 113.811 83.6501 113.441C84.0665 113.059 84.2747 112.55 84.2747 111.914V111.74H81.9152C81.4872 111.74 81.1402 111.833 80.8742 112.018C80.6082 112.203 80.4752 112.475 80.4752 112.833C80.4752 113.18 80.6139 113.464 80.8915 113.684C81.1691 113.892 81.5508 113.996 82.0366 113.996ZM89.0658 115.384V106.813H91.0263V108.01H91.3213C91.4716 107.686 91.7435 107.38 92.1367 107.091C92.53 106.801 93.1257 106.657 93.9237 106.657C94.583 106.657 95.1671 106.807 95.6761 107.108C96.185 107.409 96.5782 107.825 96.8558 108.357C97.145 108.889 97.2896 109.52 97.2896 110.248V115.384H95.2944V110.404C95.2944 109.71 95.1209 109.196 94.7739 108.86C94.4384 108.513 93.9584 108.34 93.3338 108.34C92.6283 108.34 92.0731 108.577 91.6683 109.051C91.2635 109.514 91.061 110.179 91.061 111.046V115.384H89.0658ZM103.653 111.844V110.057H108.788V111.844H103.653ZM114.12 115.384L117.451 103.239H121.077L124.408 115.384H122.257L121.528 112.608H117L116.271 115.384H114.12ZM117.486 110.699H121.043L119.412 104.54H119.117L117.486 110.699ZM125.55 115.384V113.545H127.181V105.078H125.55V103.239H130.495C132.114 103.239 133.352 103.65 134.208 104.471C135.064 105.292 135.492 106.524 135.492 108.166V110.456C135.492 112.099 135.064 113.331 134.208 114.152C133.352 114.973 132.114 115.384 130.495 115.384H125.55ZM129.263 113.493H130.512C131.495 113.493 132.224 113.238 132.698 112.729C133.172 112.22 133.41 111.486 133.41 110.526V108.114C133.41 107.131 133.172 106.391 132.698 105.894C132.224 105.385 131.495 105.13 130.512 105.13H129.263V113.493ZM141.565 115.627C140.662 115.627 139.859 115.465 139.153 115.141C138.459 114.817 137.915 114.354 137.522 113.753C137.129 113.14 136.932 112.411 136.932 111.567V111.255H138.945V111.515C138.945 112.22 139.182 112.781 139.656 113.198C140.142 113.614 140.778 113.822 141.565 113.822C142.351 113.822 142.964 113.631 143.404 113.25C143.843 112.857 144.063 112.365 144.063 111.775V111.619C144.063 111.203 143.959 110.867 143.751 110.613C143.554 110.358 143.282 110.173 142.935 110.057C142.6 109.93 142.218 109.867 141.79 109.867H139.465V107.611L143.577 105.304V105.043H137.227V103.239H145.798V105.946L141.912 108.132V108.392H142.623C143.201 108.392 143.751 108.508 144.271 108.739C144.803 108.959 145.237 109.3 145.572 109.762C145.908 110.225 146.076 110.827 146.076 111.567V111.758C146.076 112.544 145.885 113.227 145.503 113.805C145.133 114.383 144.607 114.834 143.924 115.158C143.253 115.471 142.467 115.627 141.565 115.627ZM153.37 115.384V112.92H147.297V110.578L151.722 103.239H155.382V111.116H157.412V112.92H155.382V115.384H153.37ZM149.241 111.116H153.37V104.523H153.075L149.241 110.856V111.116ZM158.155 115.384L161.486 103.239H165.112L168.443 115.384H166.292L165.563 112.608H161.035L160.306 115.384H158.155ZM161.521 110.699H165.078L163.447 104.54H163.152L161.521 110.699Z" fill="#002026" fill-opacity="0.6"/>
<rect x="57.7423" y="145.476" width="344.515" height="335.84" rx="9.91411" fill="white"/>
<rect x="58.3619" y="146.095" width="343.276" height="334.601" rx="9.29448" stroke="#002026" stroke-opacity="0.1" stroke-width="1.23926"/>
<line x1="87.4846" y1="255.15" x2="372.515" y2="255.15" stroke="#002026" stroke-opacity="0.1" stroke-width="1.23926"/>
<line x1="87.4846" y1="365.445" x2="372.515" y2="365.445" stroke="#002026" stroke-opacity="0.1" stroke-width="1.23926"/>
<path d="M118.494 187.261V175.116H120.367V185.56H126.214V187.261H118.494ZM131.957 187.504C131.101 187.504 130.338 187.33 129.667 186.983C129.007 186.625 128.487 186.116 128.105 185.456C127.723 184.797 127.533 184.016 127.533 183.114V182.854C127.533 181.952 127.723 181.177 128.105 180.529C128.487 179.87 129.007 179.361 129.667 179.002C130.338 178.644 131.101 178.464 131.957 178.464C132.813 178.464 133.576 178.644 134.247 179.002C134.918 179.361 135.444 179.87 135.826 180.529C136.207 181.177 136.398 181.952 136.398 182.854V183.114C136.398 184.016 136.207 184.797 135.826 185.456C135.444 186.116 134.918 186.625 134.247 186.983C133.576 187.33 132.813 187.504 131.957 187.504ZM131.957 185.907C132.743 185.907 133.379 185.659 133.865 185.161C134.363 184.653 134.611 183.953 134.611 183.062V182.906C134.611 182.015 134.368 181.321 133.883 180.824C133.397 180.315 132.755 180.061 131.957 180.061C131.182 180.061 130.546 180.315 130.048 180.824C129.563 181.321 129.32 182.015 129.32 182.906V183.062C129.32 183.953 129.563 184.653 130.048 185.161C130.546 185.659 131.182 185.907 131.957 185.907ZM141.278 187.504C140.665 187.504 140.115 187.4 139.629 187.191C139.155 186.983 138.774 186.677 138.484 186.272C138.207 185.867 138.068 185.375 138.068 184.797C138.068 184.207 138.207 183.721 138.484 183.34C138.774 182.946 139.161 182.652 139.647 182.455C140.144 182.258 140.705 182.16 141.33 182.16H143.932V181.605C143.932 181.107 143.782 180.708 143.481 180.408C143.18 180.107 142.718 179.957 142.093 179.957C141.48 179.957 141.012 180.101 140.688 180.39C140.364 180.679 140.15 181.055 140.046 181.518L138.38 180.98C138.519 180.517 138.739 180.101 139.04 179.731C139.352 179.349 139.762 179.043 140.271 178.811C140.78 178.58 141.393 178.464 142.11 178.464C143.221 178.464 144.094 178.748 144.73 179.315C145.366 179.881 145.684 180.685 145.684 181.726V185.248C145.684 185.595 145.846 185.769 146.17 185.769H146.899V187.261H145.563C145.158 187.261 144.829 187.157 144.574 186.948C144.32 186.74 144.192 186.457 144.192 186.098V186.046H143.932C143.84 186.22 143.701 186.422 143.516 186.654C143.331 186.885 143.059 187.087 142.7 187.261C142.342 187.423 141.868 187.504 141.278 187.504ZM141.538 186.029C142.255 186.029 142.833 185.827 143.273 185.422C143.712 185.005 143.932 184.439 143.932 183.721V183.548H141.434C140.96 183.548 140.578 183.652 140.289 183.86C140 184.057 139.855 184.352 139.855 184.745C139.855 185.138 140.005 185.451 140.306 185.682C140.607 185.913 141.017 186.029 141.538 186.029ZM148.637 187.261V178.707H150.389V179.991H150.666C150.828 179.644 151.118 179.32 151.534 179.02C151.95 178.719 152.569 178.569 153.39 178.569C154.038 178.569 154.611 178.713 155.108 179.002C155.617 179.291 156.016 179.702 156.305 180.234C156.594 180.755 156.739 181.385 156.739 182.125V187.261H154.952V182.264C154.952 181.524 154.767 180.98 154.397 180.633C154.026 180.275 153.518 180.095 152.87 180.095C152.13 180.095 151.534 180.338 151.083 180.824C150.643 181.31 150.424 182.015 150.424 182.941V187.261H148.637ZM166.387 187.504C165.774 187.504 165.225 187.4 164.739 187.191C164.265 186.983 163.883 186.677 163.594 186.272C163.316 185.867 163.178 185.375 163.178 184.797C163.178 184.207 163.316 183.721 163.594 183.34C163.883 182.946 164.271 182.652 164.756 182.455C165.254 182.258 165.815 182.16 166.439 182.16H169.042V181.605C169.042 181.107 168.891 180.708 168.591 180.408C168.29 180.107 167.827 179.957 167.203 179.957C166.59 179.957 166.121 180.101 165.797 180.39C165.474 180.679 165.26 181.055 165.155 181.518L163.49 180.98C163.629 180.517 163.848 180.101 164.149 179.731C164.461 179.349 164.872 179.043 165.381 178.811C165.89 178.58 166.503 178.464 167.22 178.464C168.33 178.464 169.204 178.748 169.84 179.315C170.476 179.881 170.794 180.685 170.794 181.726V185.248C170.794 185.595 170.956 185.769 171.28 185.769H172.009V187.261H170.673C170.268 187.261 169.938 187.157 169.684 186.948C169.429 186.74 169.302 186.457 169.302 186.098V186.046H169.042C168.949 186.22 168.81 186.422 168.625 186.654C168.44 186.885 168.169 187.087 167.81 187.261C167.451 187.423 166.977 187.504 166.387 187.504ZM166.648 186.029C167.365 186.029 167.943 185.827 168.382 185.422C168.822 185.005 169.042 184.439 169.042 183.721V183.548H166.543C166.069 183.548 165.688 183.652 165.398 183.86C165.109 184.057 164.965 184.352 164.965 184.745C164.965 185.138 165.115 185.451 165.416 185.682C165.716 185.913 166.127 186.029 166.648 186.029ZM173.746 187.261V178.707H175.498V179.714H175.776C175.938 179.413 176.198 179.147 176.557 178.916C176.915 178.684 177.401 178.569 178.014 178.569C178.65 178.569 179.159 178.702 179.541 178.968C179.934 179.222 180.229 179.552 180.426 179.957H180.703C180.9 179.563 181.183 179.234 181.553 178.968C181.935 178.702 182.473 178.569 183.167 178.569C183.722 178.569 184.214 178.684 184.642 178.916C185.07 179.135 185.411 179.471 185.665 179.922C185.92 180.361 186.047 180.911 186.047 181.57V187.261H184.26V181.709C184.26 181.188 184.115 180.789 183.826 180.512C183.549 180.223 183.15 180.078 182.629 180.078C182.074 180.078 181.629 180.257 181.293 180.616C180.958 180.974 180.79 181.489 180.79 182.16V187.261H179.003V181.709C179.003 181.188 178.858 180.789 178.569 180.512C178.292 180.223 177.893 180.078 177.372 180.078C176.817 180.078 176.372 180.257 176.036 180.616C175.701 180.974 175.533 181.489 175.533 182.16V187.261H173.746ZM192.63 187.504C191.774 187.504 191.011 187.33 190.34 186.983C189.68 186.625 189.16 186.116 188.778 185.456C188.397 184.797 188.206 184.016 188.206 183.114V182.854C188.206 181.952 188.397 181.177 188.778 180.529C189.16 179.87 189.68 179.361 190.34 179.002C191.011 178.644 191.774 178.464 192.63 178.464C193.486 178.464 194.249 178.644 194.92 179.002C195.591 179.361 196.117 179.87 196.499 180.529C196.881 181.177 197.071 181.952 197.071 182.854V183.114C197.071 184.016 196.881 184.797 196.499 185.456C196.117 186.116 195.591 186.625 194.92 186.983C194.249 187.33 193.486 187.504 192.63 187.504ZM192.63 185.907C193.416 185.907 194.053 185.659 194.538 185.161C195.036 184.653 195.284 183.953 195.284 183.062V182.906C195.284 182.015 195.042 181.321 194.556 180.824C194.07 180.315 193.428 180.061 192.63 180.061C191.855 180.061 191.219 180.315 190.721 180.824C190.236 181.321 189.993 182.015 189.993 182.906V183.062C189.993 183.953 190.236 184.653 190.721 185.161C191.219 185.659 191.855 185.907 192.63 185.907ZM202.575 187.417C201.928 187.417 201.349 187.272 200.84 186.983C200.331 186.694 199.932 186.283 199.643 185.751C199.354 185.219 199.21 184.583 199.21 183.843V178.707H200.997V183.721C200.997 184.462 201.182 185.011 201.552 185.37C201.922 185.717 202.437 185.89 203.096 185.89C203.825 185.89 204.409 185.647 204.848 185.161C205.299 184.664 205.525 183.953 205.525 183.027V178.707H207.312V187.261H205.559V185.977H205.282C205.12 186.324 204.831 186.654 204.414 186.966C203.998 187.267 203.385 187.417 202.575 187.417ZM209.953 187.261V178.707H211.706V179.991H211.983C212.145 179.644 212.434 179.32 212.851 179.02C213.267 178.719 213.886 178.569 214.707 178.569C215.355 178.569 215.928 178.713 216.425 179.002C216.934 179.291 217.333 179.702 217.622 180.234C217.911 180.755 218.056 181.385 218.056 182.125V187.261H216.269V182.264C216.269 181.524 216.084 180.98 215.714 180.633C215.343 180.275 214.834 180.095 214.187 180.095C213.447 180.095 212.851 180.338 212.4 180.824C211.96 181.31 211.74 182.015 211.74 182.941V187.261H209.953ZM223.6 187.261C223.08 187.261 222.663 187.105 222.351 186.792C222.05 186.48 221.9 186.064 221.9 185.543V180.217H219.54V178.707H221.9V175.879H223.687V178.707H226.237V180.217H223.687V185.231C223.687 185.578 223.849 185.751 224.173 185.751H225.96V187.261H223.6Z" fill="#002026" fill-opacity="0.6"/>
<rect x="87.4846" y="173.979" width="14.8712" height="14.8712" rx="4.95706" fill="#1BC1BF"/>
<path d="M93.6314 221.759C92.5739 221.759 91.6353 221.574 90.8158 221.204C90.0094 220.821 89.3749 220.272 88.9123 219.558C88.4496 218.844 88.2183 217.972 88.2183 216.941V216.425H90.5778V216.941C90.5778 217.853 90.8554 218.534 91.4106 218.983C91.9658 219.433 92.7061 219.657 93.6314 219.657C94.5699 219.657 95.2771 219.466 95.753 219.082C96.2289 218.699 96.4668 218.203 96.4668 217.595C96.4668 217.185 96.3544 216.855 96.1297 216.604C95.9182 216.339 95.601 216.128 95.178 215.969C94.755 215.811 94.2394 215.659 93.6314 215.513L93.0365 215.394C92.1244 215.183 91.3313 214.918 90.6571 214.601C89.9962 214.271 89.4807 213.848 89.1105 213.332C88.7536 212.817 88.5752 212.142 88.5752 211.31C88.5752 210.477 88.7735 209.763 89.17 209.168C89.5798 208.573 90.1482 208.117 90.8752 207.8C91.6023 207.483 92.4549 207.324 93.4331 207.324C94.4113 207.324 95.2837 207.489 96.0504 207.82C96.8171 208.15 97.4186 208.646 97.8548 209.307C98.291 209.968 98.5091 210.794 98.5091 211.785V212.44H96.1694V211.785C96.1694 211.217 96.057 210.761 95.8323 210.417C95.6076 210.074 95.2903 209.822 94.8805 209.664C94.4708 209.505 93.9883 209.426 93.4331 209.426C92.6003 209.426 91.9724 209.585 91.5494 209.902C91.1396 210.219 90.9347 210.668 90.9347 211.25C90.9347 211.62 91.0273 211.937 91.2123 212.202C91.4106 212.453 91.6948 212.664 92.0649 212.836C92.4483 212.995 92.9242 213.134 93.4926 213.253L94.0874 213.392C95.0392 213.603 95.8653 213.874 96.5659 214.204C97.2665 214.522 97.8151 214.945 98.2117 215.473C98.6215 216.002 98.8264 216.69 98.8264 217.536C98.8264 218.368 98.6083 219.102 98.172 219.737C97.749 220.371 97.1476 220.867 96.3677 221.224C95.601 221.581 94.6889 221.759 93.6314 221.759ZM92.5408 223.782V205.302H94.7021V223.782H92.5408ZM110.63 221.759C109.599 221.759 108.68 221.574 107.874 221.204C107.08 220.834 106.459 220.305 106.01 219.618C105.56 218.917 105.336 218.084 105.336 217.119V216.762H107.636V217.06C107.636 217.866 107.907 218.507 108.449 218.983C109.004 219.459 109.731 219.697 110.63 219.697C111.529 219.697 112.229 219.479 112.732 219.043C113.234 218.593 113.485 218.031 113.485 217.357V217.179C113.485 216.703 113.366 216.319 113.128 216.029C112.903 215.738 112.593 215.526 112.196 215.394C111.813 215.249 111.377 215.176 110.887 215.176H108.231V212.598L112.93 209.961V209.664H105.673V207.602H115.468V210.695L111.026 213.193V213.491H111.839C112.5 213.491 113.128 213.623 113.723 213.887C114.331 214.138 114.827 214.528 115.21 215.057C115.593 215.586 115.785 216.273 115.785 217.119V217.337C115.785 218.236 115.567 219.016 115.131 219.677C114.708 220.338 114.106 220.854 113.326 221.224C112.56 221.581 111.661 221.759 110.63 221.759ZM118.193 224.297V223.028H118.926C119.495 223.028 119.779 222.744 119.779 222.175V221.541H119.462C118.973 221.541 118.563 221.396 118.232 221.105C117.902 220.801 117.737 220.417 117.737 219.955C117.737 219.466 117.902 219.069 118.232 218.765C118.563 218.448 118.973 218.289 119.462 218.289C119.964 218.289 120.374 218.448 120.691 218.765C121.008 219.082 121.167 219.499 121.167 220.014V222.195C121.167 223.596 120.473 224.297 119.085 224.297H118.193ZM129.756 221.481V218.666H122.816V215.989L127.872 207.602H132.056V216.604H134.376V218.666H132.056V221.481H129.756ZM125.037 216.604H129.756V209.069H129.419L125.037 216.306V216.604ZM141.233 221.759C139.607 221.759 138.305 221.303 137.327 220.391C136.349 219.479 135.859 218.104 135.859 216.267V212.817C135.859 211.019 136.349 209.657 137.327 208.732C138.305 207.793 139.607 207.324 141.233 207.324C142.872 207.324 144.174 207.793 145.139 208.732C146.117 209.657 146.606 211.019 146.606 212.817V216.267C146.606 218.104 146.117 219.479 145.139 220.391C144.174 221.303 142.872 221.759 141.233 221.759ZM141.233 219.697C142.277 219.697 143.044 219.406 143.533 218.824C144.035 218.243 144.286 217.417 144.286 216.346V212.717C144.286 211.633 144.015 210.807 143.473 210.239C142.932 209.67 142.185 209.386 141.233 209.386C140.255 209.386 139.501 209.677 138.972 210.259C138.444 210.84 138.179 211.66 138.179 212.717V216.346C138.179 217.443 138.43 218.276 138.933 218.844C139.448 219.413 140.215 219.697 141.233 219.697ZM154.052 221.759C152.426 221.759 151.124 221.303 150.145 220.391C149.167 219.479 148.678 218.104 148.678 216.267V212.817C148.678 211.019 149.167 209.657 150.145 208.732C151.124 207.793 152.426 207.324 154.052 207.324C155.691 207.324 156.993 207.793 157.958 208.732C158.936 209.657 159.425 211.019 159.425 212.817V216.267C159.425 218.104 158.936 219.479 157.958 220.391C156.993 221.303 155.691 221.759 154.052 221.759ZM154.052 219.697C155.096 219.697 155.862 219.406 156.352 218.824C156.854 218.243 157.105 217.417 157.105 216.346V212.717C157.105 211.633 156.834 210.807 156.292 210.239C155.75 209.67 155.003 209.386 154.052 209.386C153.073 209.386 152.32 209.677 151.791 210.259C151.262 210.84 150.998 211.66 150.998 212.717V216.346C150.998 217.443 151.249 218.276 151.751 218.844C152.267 219.413 153.034 219.697 154.052 219.697ZM163.069 221.759C162.567 221.759 162.144 221.594 161.8 221.263C161.47 220.933 161.304 220.51 161.304 219.994C161.304 219.492 161.47 219.076 161.8 218.745C162.144 218.415 162.567 218.249 163.069 218.249C163.571 218.249 163.988 218.415 164.318 218.745C164.649 219.076 164.814 219.499 164.814 220.014C164.814 220.53 164.649 220.953 164.318 221.283C163.988 221.6 163.571 221.759 163.069 221.759ZM172.06 221.759C170.434 221.759 169.132 221.303 168.153 220.391C167.175 219.479 166.686 218.104 166.686 216.267V212.817C166.686 211.019 167.175 209.657 168.153 208.732C169.132 207.793 170.434 207.324 172.06 207.324C173.699 207.324 175.001 207.793 175.966 208.732C176.944 209.657 177.433 211.019 177.433 212.817V216.267C177.433 218.104 176.944 219.479 175.966 220.391C175.001 221.303 173.699 221.759 172.06 221.759ZM172.06 219.697C173.104 219.697 173.871 219.406 174.36 218.824C174.862 218.243 175.113 217.417 175.113 216.346V212.717C175.113 211.633 174.842 210.807 174.3 210.239C173.758 209.67 173.011 209.386 172.06 209.386C171.081 209.386 170.328 209.677 169.799 210.259C169.27 210.84 169.006 211.66 169.006 212.717V216.346C169.006 217.443 169.257 218.276 169.759 218.844C170.275 219.413 171.042 219.697 172.06 219.697ZM184.878 221.759C183.252 221.759 181.95 221.303 180.972 220.391C179.994 219.479 179.505 218.104 179.505 216.267V212.817C179.505 211.019 179.994 209.657 180.972 208.732C181.95 207.793 183.252 207.324 184.878 207.324C186.517 207.324 187.819 207.793 188.784 208.732C189.763 209.657 190.252 211.019 190.252 212.817V216.267C190.252 218.104 189.763 219.479 188.784 220.391C187.819 221.303 186.517 221.759 184.878 221.759ZM184.878 219.697C185.922 219.697 186.689 219.406 187.178 218.824C187.681 218.243 187.932 217.417 187.932 216.346V212.717C187.932 211.633 187.661 210.807 187.119 210.239C186.577 209.67 185.83 209.386 184.878 209.386C183.9 209.386 183.147 209.677 182.618 210.259C182.089 210.84 181.825 211.66 181.825 212.717V216.346C181.825 217.443 182.076 218.276 182.578 218.844C183.094 219.413 183.86 219.697 184.878 219.697Z" fill="#002026"/>
<path d="M118.494 297.555V285.41H123.317C124.057 285.41 124.716 285.561 125.295 285.861C125.885 286.151 126.341 286.567 126.665 287.111C127.001 287.643 127.168 288.285 127.168 289.036V289.262C127.168 290.014 126.995 290.662 126.648 291.205C126.313 291.749 125.856 292.165 125.277 292.454C124.699 292.744 124.045 292.888 123.317 292.888H120.367V297.555H118.494ZM120.367 291.188H123.126C123.785 291.188 124.312 291.014 124.705 290.667C125.098 290.32 125.295 289.846 125.295 289.245V289.071C125.295 288.458 125.098 287.978 124.705 287.631C124.312 287.284 123.785 287.111 123.126 287.111H120.367V291.188ZM131.468 297.798C130.855 297.798 130.305 297.694 129.819 297.486C129.345 297.278 128.963 296.971 128.674 296.566C128.397 296.161 128.258 295.67 128.258 295.092C128.258 294.502 128.397 294.016 128.674 293.634C128.963 293.241 129.351 292.946 129.837 292.749C130.334 292.553 130.895 292.454 131.52 292.454H134.122V291.899C134.122 291.402 133.972 291.003 133.671 290.702C133.37 290.401 132.908 290.251 132.283 290.251C131.67 290.251 131.202 290.396 130.878 290.685C130.554 290.974 130.34 291.35 130.236 291.812L128.57 291.275C128.709 290.812 128.929 290.396 129.23 290.025C129.542 289.644 129.952 289.337 130.461 289.106C130.97 288.875 131.583 288.759 132.3 288.759C133.411 288.759 134.284 289.042 134.92 289.609C135.556 290.176 135.874 290.98 135.874 292.021V295.543C135.874 295.89 136.036 296.063 136.36 296.063H137.089V297.555H135.753C135.348 297.555 135.019 297.451 134.764 297.243C134.51 297.035 134.382 296.751 134.382 296.393V296.341H134.122C134.03 296.514 133.891 296.717 133.706 296.948C133.521 297.179 133.249 297.382 132.89 297.555C132.532 297.717 132.058 297.798 131.468 297.798ZM131.728 296.323C132.445 296.323 133.023 296.121 133.463 295.716C133.902 295.3 134.122 294.733 134.122 294.016V293.842H131.624C131.15 293.842 130.768 293.946 130.479 294.155C130.19 294.351 130.045 294.646 130.045 295.039C130.045 295.433 130.195 295.745 130.496 295.976C130.797 296.208 131.207 296.323 131.728 296.323ZM139.595 301.025V299.464H144.366C144.69 299.464 144.852 299.29 144.852 298.943V296.306H144.575C144.47 296.537 144.308 296.763 144.089 296.983C143.881 297.191 143.597 297.364 143.239 297.503C142.88 297.642 142.429 297.711 141.885 297.711C141.238 297.711 140.659 297.567 140.15 297.278C139.641 296.988 139.242 296.578 138.953 296.046C138.664 295.514 138.519 294.883 138.519 294.155V289.002H140.306V294.016C140.306 294.756 140.492 295.305 140.862 295.664C141.232 296.011 141.747 296.185 142.406 296.185C143.134 296.185 143.719 295.942 144.158 295.456C144.609 294.97 144.835 294.265 144.835 293.339V289.002H146.622V299.307C146.622 299.828 146.466 300.244 146.153 300.557C145.853 300.869 145.436 301.025 144.904 301.025H139.595ZM154.208 297.798C153.375 297.798 152.733 297.648 152.282 297.347C151.843 297.046 151.513 296.711 151.293 296.341H151.016V297.555H149.263V285.41H151.05V290.164H151.328C151.467 289.933 151.652 289.713 151.883 289.505C152.115 289.285 152.421 289.106 152.803 288.967C153.184 288.828 153.653 288.759 154.208 288.759C154.925 288.759 155.584 288.932 156.186 289.279C156.787 289.626 157.267 290.13 157.626 290.789C157.985 291.448 158.164 292.235 158.164 293.148V293.409C158.164 294.334 157.979 295.126 157.609 295.786C157.25 296.433 156.77 296.931 156.169 297.278C155.579 297.625 154.925 297.798 154.208 297.798ZM153.688 296.237C154.463 296.237 155.099 295.988 155.596 295.491C156.105 294.993 156.359 294.282 156.359 293.357V293.2C156.359 292.287 156.111 291.581 155.613 291.084C155.116 290.586 154.474 290.338 153.688 290.338C152.924 290.338 152.288 290.586 151.779 291.084C151.282 291.581 151.033 292.287 151.033 293.2V293.357C151.033 294.282 151.282 294.993 151.779 295.491C152.288 295.988 152.924 296.237 153.688 296.237ZM163.033 297.798C162.42 297.798 161.87 297.694 161.384 297.486C160.91 297.278 160.528 296.971 160.239 296.566C159.962 296.161 159.823 295.67 159.823 295.092C159.823 294.502 159.962 294.016 160.239 293.634C160.528 293.241 160.916 292.946 161.402 292.749C161.899 292.553 162.46 292.454 163.085 292.454H165.687V291.899C165.687 291.402 165.537 291.003 165.236 290.702C164.935 290.401 164.473 290.251 163.848 290.251C163.235 290.251 162.767 290.396 162.443 290.685C162.119 290.974 161.905 291.35 161.801 291.812L160.135 291.275C160.274 290.812 160.494 290.396 160.794 290.025C161.107 289.644 161.517 289.337 162.026 289.106C162.535 288.875 163.148 288.759 163.865 288.759C164.976 288.759 165.849 289.042 166.485 289.609C167.121 290.176 167.439 290.98 167.439 292.021V295.543C167.439 295.89 167.601 296.063 167.925 296.063H168.654V297.555H167.318C166.913 297.555 166.583 297.451 166.329 297.243C166.075 297.035 165.947 296.751 165.947 296.393V296.341H165.687C165.595 296.514 165.456 296.717 165.271 296.948C165.086 297.179 164.814 297.382 164.455 297.555C164.097 297.717 163.622 297.798 163.033 297.798ZM163.293 296.323C164.01 296.323 164.588 296.121 165.028 295.716C165.467 295.3 165.687 294.733 165.687 294.016V293.842H163.189C162.714 293.842 162.333 293.946 162.044 294.155C161.754 294.351 161.61 294.646 161.61 295.039C161.61 295.433 161.76 295.745 162.061 295.976C162.362 296.208 162.772 296.323 163.293 296.323ZM174.161 297.798C173.34 297.798 172.594 297.625 171.923 297.278C171.264 296.931 170.737 296.427 170.344 295.768C169.963 295.109 169.772 294.317 169.772 293.391V293.166C169.772 292.24 169.963 291.454 170.344 290.806C170.737 290.147 171.264 289.644 171.923 289.297C172.594 288.938 173.34 288.759 174.161 288.759C174.982 288.759 175.682 288.909 176.26 289.21C176.839 289.511 177.301 289.91 177.648 290.407C178.007 290.904 178.238 291.454 178.342 292.055L176.607 292.42C176.55 292.038 176.428 291.691 176.243 291.379C176.058 291.066 175.798 290.818 175.462 290.633C175.127 290.448 174.705 290.355 174.196 290.355C173.698 290.355 173.247 290.471 172.843 290.702C172.449 290.922 172.137 291.246 171.906 291.674C171.674 292.09 171.559 292.599 171.559 293.2V293.357C171.559 293.958 171.674 294.473 171.906 294.901C172.137 295.329 172.449 295.652 172.843 295.872C173.247 296.092 173.698 296.202 174.196 296.202C174.948 296.202 175.52 296.011 175.913 295.629C176.307 295.236 176.555 294.739 176.66 294.137L178.394 294.536C178.256 295.126 178.007 295.67 177.648 296.167C177.301 296.665 176.839 297.064 176.26 297.364C175.682 297.653 174.982 297.798 174.161 297.798ZM180.456 297.555V285.41H182.243V292.333H182.52L185.886 289.002H188.263L183.943 293.148L188.402 297.555H186.042L182.52 293.998H182.243V297.555H180.456ZM197.973 297.798C197.267 297.798 196.614 297.625 196.012 297.278C195.411 296.931 194.925 296.433 194.555 295.786C194.196 295.126 194.017 294.334 194.017 293.409V293.148C194.017 292.235 194.196 291.448 194.555 290.789C194.914 290.13 195.394 289.626 195.995 289.279C196.597 288.932 197.256 288.759 197.973 288.759C198.528 288.759 198.991 288.828 199.361 288.967C199.743 289.106 200.055 289.285 200.298 289.505C200.541 289.713 200.726 289.933 200.853 290.164H201.131V285.41H202.918V297.555H201.165V296.341H200.888C200.668 296.711 200.332 297.046 199.881 297.347C199.442 297.648 198.806 297.798 197.973 297.798ZM198.476 296.237C199.251 296.237 199.887 295.988 200.385 295.491C200.893 294.993 201.148 294.282 201.148 293.357V293.2C201.148 292.287 200.899 291.581 200.402 291.084C199.905 290.586 199.263 290.338 198.476 290.338C197.713 290.338 197.077 290.586 196.568 291.084C196.07 291.581 195.822 292.287 195.822 293.2V293.357C195.822 294.282 196.07 294.993 196.568 295.491C197.077 295.988 197.713 296.237 198.476 296.237ZM208.827 297.711C208.18 297.711 207.601 297.567 207.092 297.278C206.583 296.988 206.184 296.578 205.895 296.046C205.606 295.514 205.461 294.878 205.461 294.137V289.002H207.249V294.016C207.249 294.756 207.434 295.305 207.804 295.664C208.174 296.011 208.689 296.185 209.348 296.185C210.077 296.185 210.661 295.942 211.1 295.456C211.551 294.959 211.777 294.247 211.777 293.322V289.002H213.564V297.555H211.811V296.271H211.534C211.372 296.618 211.083 296.948 210.666 297.26C210.25 297.561 209.637 297.711 208.827 297.711ZM216.205 297.555V289.002H217.958V290.008H218.235C218.374 289.649 218.594 289.389 218.895 289.227C219.207 289.054 219.589 288.967 220.04 288.967H221.063V290.581H219.97C219.392 290.581 218.918 290.743 218.548 291.066C218.178 291.379 217.992 291.864 217.992 292.524V297.555H216.205ZM225.332 297.798C224.719 297.798 224.17 297.694 223.684 297.486C223.21 297.278 222.828 296.971 222.539 296.566C222.261 296.161 222.122 295.67 222.122 295.092C222.122 294.502 222.261 294.016 222.539 293.634C222.828 293.241 223.216 292.946 223.701 292.749C224.199 292.553 224.76 292.454 225.384 292.454H227.987V291.899C227.987 291.402 227.836 291.003 227.536 290.702C227.235 290.401 226.772 290.251 226.148 290.251C225.535 290.251 225.066 290.396 224.742 290.685C224.418 290.974 224.204 291.35 224.1 291.812L222.435 291.275C222.574 290.812 222.793 290.396 223.094 290.025C223.406 289.644 223.817 289.337 224.326 289.106C224.835 288.875 225.448 288.759 226.165 288.759C227.275 288.759 228.149 289.042 228.785 289.609C229.421 290.176 229.739 290.98 229.739 292.021V295.543C229.739 295.89 229.901 296.063 230.225 296.063H230.953V297.555H229.618C229.213 297.555 228.883 297.451 228.629 297.243C228.374 297.035 228.247 296.751 228.247 296.393V296.341H227.987C227.894 296.514 227.755 296.717 227.57 296.948C227.385 297.179 227.113 297.382 226.755 297.555C226.396 297.717 225.922 297.798 225.332 297.798ZM225.592 296.323C226.31 296.323 226.888 296.121 227.327 295.716C227.767 295.3 227.987 294.733 227.987 294.016V293.842H225.488C225.014 293.842 224.632 293.946 224.343 294.155C224.054 294.351 223.909 294.646 223.909 295.039C223.909 295.433 224.06 295.745 224.361 295.976C224.661 296.208 225.072 296.323 225.592 296.323ZM235.308 297.555C234.787 297.555 234.371 297.399 234.059 297.087C233.758 296.774 233.607 296.358 233.607 295.838V290.511H231.248V289.002H233.607V286.174H235.394V289.002H237.945V290.511H235.394V295.525C235.394 295.872 235.556 296.046 235.88 296.046H237.667V297.555H235.308ZM240.044 297.555V289.002H241.831V297.555H240.044ZM240.946 287.839C240.599 287.839 240.305 287.729 240.062 287.51C239.83 287.278 239.715 286.983 239.715 286.625C239.715 286.266 239.83 285.977 240.062 285.757C240.305 285.526 240.599 285.41 240.946 285.41C241.305 285.41 241.6 285.526 241.831 285.757C242.063 285.977 242.178 286.266 242.178 286.625C242.178 286.983 242.063 287.278 241.831 287.51C241.6 287.729 241.305 287.839 240.946 287.839ZM248.491 297.798C247.635 297.798 246.872 297.625 246.201 297.278C245.542 296.919 245.021 296.41 244.64 295.751C244.258 295.092 244.067 294.311 244.067 293.409V293.148C244.067 292.246 244.258 291.471 244.64 290.823C245.021 290.164 245.542 289.655 246.201 289.297C246.872 288.938 247.635 288.759 248.491 288.759C249.347 288.759 250.11 288.938 250.781 289.297C251.452 289.655 251.978 290.164 252.36 290.823C252.742 291.471 252.933 292.246 252.933 293.148V293.409C252.933 294.311 252.742 295.092 252.36 295.751C251.978 296.41 251.452 296.919 250.781 297.278C250.11 297.625 249.347 297.798 248.491 297.798ZM248.491 296.202C249.278 296.202 249.914 295.953 250.4 295.456C250.897 294.947 251.146 294.247 251.146 293.357V293.2C251.146 292.31 250.903 291.616 250.417 291.118C249.931 290.61 249.289 290.355 248.491 290.355C247.716 290.355 247.08 290.61 246.583 291.118C246.097 291.616 245.854 292.31 245.854 293.2V293.357C245.854 294.247 246.097 294.947 246.583 295.456C247.08 295.953 247.716 296.202 248.491 296.202ZM255.158 297.555V289.002H256.91V290.286H257.187C257.349 289.939 257.639 289.615 258.055 289.314C258.471 289.013 259.09 288.863 259.911 288.863C260.559 288.863 261.132 289.008 261.629 289.297C262.138 289.586 262.537 289.996 262.826 290.529C263.115 291.049 263.26 291.679 263.26 292.42V297.555H261.473V292.558C261.473 291.818 261.288 291.275 260.918 290.928C260.547 290.569 260.039 290.39 259.391 290.39C258.651 290.39 258.055 290.633 257.604 291.118C257.164 291.604 256.945 292.31 256.945 293.235V297.555H255.158Z" fill="#002026" fill-opacity="0.6"/>
<rect x="87.4846" y="284.273" width="14.8712" height="14.8712" rx="4.95706" fill="#A282DD"/>
<path d="M94.9599 331.776V328.96H88.02V326.283L93.0762 317.896H97.2599V326.898H99.5798V328.96H97.2599V331.776H94.9599ZM90.2407 326.898H94.9599V319.363H94.6228L90.2407 326.601V326.898ZM106.454 331.776V317.896H110.916L113.612 330.17H113.949L116.666 317.896H121.107V331.776H118.807V319.621H118.47L115.773 331.776H111.808L109.111 319.621H108.774V331.776H106.454ZM128.581 332.053C127.603 332.053 126.724 331.855 125.944 331.459C125.177 331.049 124.569 330.474 124.12 329.734C123.684 328.98 123.465 328.081 123.465 327.037V326.72C123.465 325.675 123.684 324.777 124.12 324.023C124.569 323.27 125.177 322.695 125.944 322.298C126.724 321.901 127.603 321.703 128.581 321.703C129.559 321.703 130.432 321.901 131.198 322.298C131.965 322.695 132.567 323.27 133.003 324.023C133.452 324.777 133.677 325.675 133.677 326.72V327.037C133.677 328.081 133.452 328.98 133.003 329.734C132.567 330.474 131.965 331.049 131.198 331.459C130.432 331.855 129.559 332.053 128.581 332.053ZM128.581 330.031C129.414 330.031 130.095 329.767 130.623 329.238C131.152 328.696 131.417 327.942 131.417 326.977V326.779C131.417 325.814 131.152 325.067 130.623 324.539C130.095 323.997 129.414 323.726 128.581 323.726C127.748 323.726 127.068 323.997 126.539 324.539C126.01 325.067 125.746 325.814 125.746 326.779V326.977C125.746 327.942 126.01 328.696 126.539 329.238C127.068 329.767 127.748 330.031 128.581 330.031ZM136.102 331.776V321.981H138.342V323.349H138.679C138.851 322.979 139.162 322.628 139.611 322.298C140.061 321.968 140.741 321.802 141.653 321.802C142.407 321.802 143.074 321.974 143.656 322.318C144.238 322.662 144.687 323.137 145.004 323.745C145.335 324.354 145.5 325.074 145.5 325.907V331.776H143.22V326.085C143.22 325.292 143.022 324.704 142.625 324.32C142.242 323.924 141.693 323.726 140.979 323.726C140.173 323.726 139.538 323.997 139.076 324.539C138.613 325.067 138.382 325.827 138.382 326.819V331.776H136.102ZM151.757 331.776C151.123 331.776 150.614 331.591 150.23 331.221C149.86 330.837 149.675 330.322 149.675 329.674V323.864H147.117V321.981H149.675V318.828H151.955V321.981H154.771V323.864H151.955V329.297C151.955 329.694 152.141 329.892 152.511 329.892H154.474V331.776H151.757ZM157.092 331.776V317.896H159.372V323.27H159.709C159.815 323.045 159.987 322.82 160.224 322.595C160.462 322.371 160.773 322.186 161.156 322.04C161.553 321.895 162.049 321.822 162.643 321.822C163.397 321.822 164.065 321.994 164.646 322.338C165.228 322.668 165.677 323.137 165.994 323.745C166.325 324.354 166.49 325.074 166.49 325.907V331.776H164.21V326.085C164.21 325.292 164.012 324.704 163.615 324.32C163.232 323.924 162.683 323.726 161.969 323.726C161.163 323.726 160.528 323.997 160.066 324.539C159.603 325.067 159.372 325.827 159.372 326.819V331.776H157.092ZM173.336 332.053C172.067 332.053 171.022 331.776 170.203 331.221C169.383 330.665 168.887 329.853 168.716 328.782L170.817 328.246C170.91 328.749 171.075 329.145 171.313 329.436C171.551 329.727 171.842 329.932 172.186 330.051C172.542 330.17 172.926 330.229 173.336 330.229C173.957 330.229 174.419 330.117 174.724 329.892C175.041 329.667 175.199 329.383 175.199 329.04C175.199 328.683 175.047 328.418 174.743 328.246C174.453 328.075 174.003 327.929 173.395 327.81L172.78 327.711C172.106 327.579 171.492 327.4 170.936 327.176C170.381 326.938 169.932 326.621 169.588 326.224C169.258 325.814 169.092 325.299 169.092 324.677C169.092 323.726 169.443 322.992 170.143 322.476C170.857 321.961 171.789 321.703 172.939 321.703C174.036 321.703 174.942 321.948 175.655 322.437C176.369 322.926 176.832 323.58 177.043 324.4L174.942 325.034C174.836 324.479 174.605 324.089 174.248 323.864C173.891 323.626 173.455 323.508 172.939 323.508C172.41 323.508 172 323.6 171.71 323.785C171.432 323.97 171.293 324.235 171.293 324.578C171.293 324.922 171.439 325.18 171.729 325.352C172.02 325.523 172.41 325.649 172.899 325.728L173.514 325.847C174.241 325.979 174.895 326.151 175.477 326.363C176.072 326.574 176.541 326.878 176.885 327.275C177.228 327.671 177.4 328.207 177.4 328.881C177.4 329.899 177.03 330.685 176.29 331.241C175.563 331.782 174.578 332.053 173.336 332.053Z" fill="#002026"/>
<g filter="url(#filter0_d_5281_176200)">
<rect x="0.703018" y="0.304092" width="458.367" height="147.634" rx="10.5453" fill="#FCFCFC" stroke="#E9C300" stroke-width="1.40604" stroke-dasharray="11.25 11.25"/>
<path d="M130.908 51.1274V35.3798H137.274C138.264 35.3798 139.134 35.5748 139.884 35.9648C140.634 36.3547 141.226 36.9096 141.661 37.6295C142.096 38.3344 142.313 39.1743 142.313 40.1491V40.4641C142.313 41.4239 142.089 42.2638 141.639 42.9837C141.204 43.7036 140.604 44.2585 139.839 44.6484C139.089 45.0384 138.234 45.2333 137.274 45.2333H133.63V51.1274H130.908ZM133.63 42.7812H137.004C137.784 42.7812 138.407 42.5712 138.872 42.1513C139.351 41.7314 139.591 41.154 139.591 40.4191V40.1941C139.591 39.4592 139.359 38.8818 138.894 38.4619C138.429 38.0419 137.799 37.832 137.004 37.832H133.63V42.7812ZM149.351 51.4424C148.242 51.4424 147.259 51.2099 146.404 50.745C145.564 50.2651 144.905 49.5977 144.425 48.7428C143.96 47.8729 143.727 46.8606 143.727 45.7058V45.4358C143.727 44.266 143.96 43.2536 144.425 42.3988C144.89 41.5439 145.542 40.884 146.382 40.4191C147.222 39.9391 148.189 39.6992 149.284 39.6992C150.364 39.6992 151.309 39.9391 152.118 40.4191C152.928 40.884 153.558 41.5439 154.008 42.3988C154.458 43.2536 154.683 44.251 154.683 45.3908V46.3132H146.337C146.367 47.183 146.674 47.8804 147.259 48.4054C147.844 48.9303 148.564 49.1927 149.419 49.1927C150.259 49.1927 150.881 49.0128 151.286 48.6528C151.691 48.2779 151.998 47.8579 152.208 47.393L154.346 48.4953C154.136 48.9003 153.828 49.3352 153.423 49.8001C153.033 50.2501 152.508 50.64 151.849 50.97C151.189 51.2849 150.356 51.4424 149.351 51.4424ZM146.359 44.356H152.051C151.991 43.6211 151.706 43.0362 151.196 42.6012C150.701 42.1663 150.056 41.9488 149.261 41.9488C148.437 41.9488 147.777 42.1663 147.282 42.6012C146.787 43.0362 146.479 43.6211 146.359 44.356ZM157.339 51.1274V40.0141H159.881V41.2964H160.263C160.428 40.8315 160.706 40.4941 161.096 40.2841C161.486 40.0741 161.951 39.9691 162.491 39.9691H163.84V42.2638H162.446C161.696 42.2638 161.088 42.4663 160.623 42.8712C160.158 43.2611 159.926 43.8685 159.926 44.6934V51.1274H157.339ZM170.474 51.4424C169.034 51.4424 167.85 51.1274 166.92 50.4975C165.99 49.8676 165.428 48.9453 165.233 47.7305L167.617 47.1231C167.722 47.693 167.91 48.1429 168.18 48.4728C168.45 48.8028 168.78 49.0353 169.169 49.1702C169.574 49.3052 170.009 49.3727 170.474 49.3727C171.179 49.3727 171.704 49.2452 172.049 48.9903C172.409 48.7353 172.589 48.4129 172.589 48.0229C172.589 47.618 172.416 47.318 172.072 47.1231C171.742 46.9281 171.232 46.7631 170.542 46.6281L169.844 46.5156C169.079 46.3657 168.382 46.1632 167.752 45.9082C167.122 45.6383 166.612 45.2783 166.222 44.8284C165.847 44.3635 165.66 43.7786 165.66 43.0737C165.66 41.9938 166.057 41.1615 166.852 40.5766C167.662 39.9916 168.72 39.6992 170.024 39.6992C171.269 39.6992 172.296 39.9766 173.106 40.5316C173.916 41.0865 174.441 41.8289 174.681 42.7587L172.296 43.4786C172.177 42.8487 171.914 42.4063 171.509 42.1513C171.104 41.8814 170.609 41.7464 170.024 41.7464C169.424 41.7464 168.96 41.8514 168.63 42.0613C168.315 42.2713 168.157 42.5712 168.157 42.9612C168.157 43.3511 168.322 43.6436 168.652 43.8386C168.982 44.0335 169.424 44.176 169.979 44.266L170.677 44.401C171.502 44.5509 172.244 44.7459 172.904 44.9859C173.579 45.2258 174.111 45.5708 174.501 46.0207C174.891 46.4707 175.086 47.0781 175.086 47.8429C175.086 48.9978 174.666 49.8901 173.826 50.52C173.001 51.1349 171.884 51.4424 170.474 51.4424ZM182.969 51.4424C181.859 51.4424 180.861 51.2174 179.977 50.7675C179.107 50.3026 178.417 49.6502 177.907 48.8103C177.412 47.9554 177.165 46.9356 177.165 45.7508V45.3908C177.165 44.206 177.412 43.1862 177.907 42.3313C178.417 41.4764 179.107 40.824 179.977 40.3741C180.861 39.9242 181.859 39.6992 182.969 39.6992C184.078 39.6992 185.068 39.9242 185.938 40.3741C186.808 40.824 187.49 41.4764 187.985 42.3313C188.495 43.1862 188.75 44.206 188.75 45.3908V45.7508C188.75 46.9356 188.495 47.9554 187.985 48.8103C187.49 49.6502 186.808 50.3026 185.938 50.7675C185.068 51.2174 184.078 51.4424 182.969 51.4424ZM182.969 49.1477C183.914 49.1477 184.686 48.8478 185.286 48.2479C185.886 47.633 186.186 46.7781 186.186 45.6833V45.4583C186.186 44.3635 185.886 43.5161 185.286 42.9162C184.686 42.3013 183.914 41.9938 182.969 41.9938C182.024 41.9938 181.251 42.3013 180.652 42.9162C180.052 43.5161 179.752 44.3635 179.752 45.4583V45.6833C179.752 46.7781 180.052 47.633 180.652 48.2479C181.251 48.8478 182.024 49.1477 182.969 49.1477ZM191.501 51.1274V40.0141H194.043V41.5664H194.426C194.621 41.1465 194.973 40.749 195.483 40.3741C195.993 39.9991 196.765 39.8117 197.8 39.8117C198.655 39.8117 199.412 40.0066 200.072 40.3966C200.732 40.7865 201.242 41.3264 201.602 42.0163C201.977 42.7062 202.165 43.5236 202.165 44.4685V51.1274H199.577V44.6709C199.577 43.7711 199.352 43.1037 198.903 42.6687C198.468 42.2188 197.845 41.9938 197.035 41.9938C196.12 41.9938 195.401 42.3013 194.876 42.9162C194.351 43.5161 194.088 44.3785 194.088 45.5033V51.1274H191.501ZM208.784 51.4424C208.004 51.4424 207.299 51.3074 206.669 51.0375C206.039 50.7525 205.537 50.3476 205.162 49.8226C204.802 49.2977 204.622 48.6528 204.622 47.8879C204.622 47.1381 204.802 46.5081 205.162 45.9982C205.537 45.4883 206.047 45.1059 206.692 44.8509C207.337 44.5809 208.071 44.446 208.896 44.446H212.113V43.7711C212.113 43.1862 211.933 42.7137 211.573 42.3538C211.213 41.9788 210.651 41.7914 209.886 41.7914C209.136 41.7914 208.566 41.9713 208.176 42.3313C207.801 42.6762 207.554 43.1262 207.434 43.6811L205.049 42.8937C205.229 42.3088 205.514 41.7764 205.904 41.2964C206.309 40.8165 206.842 40.4341 207.502 40.1491C208.161 39.8492 208.971 39.6992 209.931 39.6992C211.386 39.6992 212.526 40.0666 213.351 40.8015C214.19 41.5214 214.61 42.5712 214.61 43.951V48.3154C214.61 48.7653 214.82 48.9903 215.24 48.9903H216.185V51.1274H214.363C213.823 51.1274 213.381 50.9925 213.036 50.7225C212.691 50.4525 212.518 50.0851 212.518 49.6202V49.5752H212.136C212.046 49.7851 211.888 50.0401 211.663 50.3401C211.438 50.64 211.093 50.9025 210.629 51.1274C210.179 51.3374 209.564 51.4424 208.784 51.4424ZM209.211 49.3277C210.066 49.3277 210.764 49.0878 211.303 48.6078C211.843 48.1129 212.113 47.453 212.113 46.6281V46.4032H209.054C208.499 46.4032 208.049 46.5231 207.704 46.7631C207.359 47.0031 207.187 47.3555 207.187 47.8204C207.187 48.2704 207.367 48.6378 207.726 48.9228C208.086 49.1927 208.581 49.3277 209.211 49.3277ZM218.326 51.1274V35.3798H220.913V51.1274H218.326ZM229.835 51.1274V35.3798H232.558V48.6753H239.936V51.1274H229.835ZM247.383 51.4424C246.273 51.4424 245.275 51.2174 244.391 50.7675C243.521 50.3026 242.831 49.6502 242.321 48.8103C241.826 47.9554 241.579 46.9356 241.579 45.7508V45.3908C241.579 44.206 241.826 43.1862 242.321 42.3313C242.831 41.4764 243.521 40.824 244.391 40.3741C245.275 39.9242 246.273 39.6992 247.383 39.6992C248.492 39.6992 249.482 39.9242 250.352 40.3741C251.222 40.824 251.904 41.4764 252.399 42.3313C252.909 43.1862 253.164 44.206 253.164 45.3908V45.7508C253.164 46.9356 252.909 47.9554 252.399 48.8103C251.904 49.6502 251.222 50.3026 250.352 50.7675C249.482 51.2174 248.492 51.4424 247.383 51.4424ZM247.383 49.1477C248.327 49.1477 249.1 48.8478 249.7 48.2479C250.3 47.633 250.6 46.7781 250.6 45.6833V45.4583C250.6 44.3635 250.3 43.5161 249.7 42.9162C249.1 42.3013 248.327 41.9938 247.383 41.9938C246.438 41.9938 245.665 42.3013 245.065 42.9162C244.466 43.5161 244.166 44.3635 244.166 45.4583V45.6833C244.166 46.7781 244.466 47.633 245.065 48.2479C245.665 48.8478 246.438 49.1477 247.383 49.1477ZM259.357 51.4424C258.577 51.4424 257.872 51.3074 257.242 51.0375C256.613 50.7525 256.11 50.3476 255.735 49.8226C255.375 49.2977 255.195 48.6528 255.195 47.8879C255.195 47.1381 255.375 46.5081 255.735 45.9982C256.11 45.4883 256.62 45.1059 257.265 44.8509C257.91 44.5809 258.645 44.446 259.47 44.446H262.687V43.7711C262.687 43.1862 262.507 42.7137 262.147 42.3538C261.787 41.9788 261.224 41.7914 260.459 41.7914C259.71 41.7914 259.14 41.9713 258.75 42.3313C258.375 42.6762 258.127 43.1262 258.007 43.6811L255.623 42.8937C255.803 42.3088 256.088 41.7764 256.478 41.2964C256.883 40.8165 257.415 40.4341 258.075 40.1491C258.735 39.8492 259.545 39.6992 260.504 39.6992C261.959 39.6992 263.099 40.0666 263.924 40.8015C264.764 41.5214 265.184 42.5712 265.184 43.951V48.3154C265.184 48.7653 265.394 48.9903 265.814 48.9903H266.759V51.1274H264.936C264.396 51.1274 263.954 50.9925 263.609 50.7225C263.264 50.4525 263.092 50.0851 263.092 49.6202V49.5752H262.709C262.619 49.7851 262.462 50.0401 262.237 50.3401C262.012 50.64 261.667 50.9025 261.202 51.1274C260.752 51.3374 260.137 51.4424 259.357 51.4424ZM259.785 49.3277C260.639 49.3277 261.337 49.0878 261.877 48.6078C262.417 48.1129 262.687 47.453 262.687 46.6281V46.4032H259.627C259.072 46.4032 258.622 46.5231 258.277 46.7631C257.932 47.0031 257.76 47.3555 257.76 47.8204C257.76 48.2704 257.94 48.6378 258.3 48.9228C258.66 49.1927 259.155 49.3277 259.785 49.3277ZM268.899 51.1274V40.0141H271.441V41.5664H271.824C272.019 41.1465 272.371 40.749 272.881 40.3741C273.391 39.9991 274.163 39.8117 275.198 39.8117C276.053 39.8117 276.81 40.0066 277.47 40.3966C278.13 40.7865 278.64 41.3264 279 42.0163C279.375 42.7062 279.562 43.5236 279.562 44.4685V51.1274H276.975V44.6709C276.975 43.7711 276.75 43.1037 276.3 42.6687C275.865 42.2188 275.243 41.9938 274.433 41.9938C273.518 41.9938 272.798 42.3013 272.274 42.9162C271.749 43.5161 271.486 44.3785 271.486 45.5033V51.1274H268.899Z" fill="#102E34"/>
<path d="M130.714 87.4966V73.7174H133.096V87.4966H130.714ZM135.985 79.4063V78.1464H136.713C137.278 78.1464 137.56 77.8643 137.56 77.3V76.6701H137.245C136.759 76.6701 136.352 76.5258 136.024 76.2371C135.696 75.9352 135.532 75.5547 135.532 75.0953C135.532 74.6098 135.696 74.2161 136.024 73.9143C136.352 73.5993 136.759 73.4419 137.245 73.4419C137.743 73.4419 138.15 73.5993 138.465 73.9143C138.78 74.2292 138.938 74.6426 138.938 75.1544V77.3197C138.938 78.7107 138.249 79.4063 136.871 79.4063H135.985ZM141.481 87.4966V77.7724H143.705V78.8551H144.039C144.21 78.527 144.492 78.2383 144.886 77.989C145.293 77.7265 145.831 77.5953 146.5 77.5953C147.209 77.5953 147.78 77.7396 148.213 78.0283C148.646 78.317 148.974 78.6845 149.197 79.1307H149.512C149.735 78.6845 150.056 78.317 150.476 78.0283C150.896 77.7396 151.493 77.5953 152.268 77.5953C152.871 77.5953 153.416 77.7265 153.901 77.989C154.4 78.2514 154.794 78.6386 155.082 79.1504C155.384 79.6622 155.535 80.2986 155.535 81.0598V87.4966H153.272V81.2172C153.272 80.6529 153.121 80.2264 152.819 79.9377C152.517 79.6359 152.097 79.485 151.559 79.485C150.968 79.485 150.496 79.6818 150.142 80.0755C149.8 80.4561 149.63 81.0073 149.63 81.729V87.4966H147.386V81.2172C147.386 80.6529 147.235 80.2264 146.933 79.9377C146.631 79.6359 146.211 79.485 145.673 79.485C145.07 79.485 144.597 79.6818 144.256 80.0755C143.915 80.4561 143.744 81.0073 143.744 81.729V87.4966H141.481ZM166.349 87.7722C165.667 87.7722 165.05 87.6541 164.499 87.4178C163.947 87.1685 163.508 86.8142 163.18 86.3549C162.865 85.8956 162.707 85.3313 162.707 84.662C162.707 84.0059 162.865 83.4547 163.18 83.0085C163.508 82.5623 163.954 82.2277 164.518 82.0046C165.083 81.7684 165.726 81.6503 166.447 81.6503H169.262V81.0598C169.262 80.548 169.105 80.1346 168.79 79.8196C168.475 79.4916 167.983 79.3275 167.313 79.3275C166.657 79.3275 166.159 79.485 165.817 79.7999C165.489 80.1018 165.273 80.4955 165.168 80.981L163.081 80.2921C163.239 79.7803 163.488 79.3144 163.829 78.8945C164.184 78.4745 164.65 78.1399 165.227 77.8905C165.804 77.6281 166.513 77.4969 167.353 77.4969C168.626 77.4969 169.623 77.8184 170.345 78.4614C171.08 79.0913 171.447 80.0099 171.447 81.2172V85.036C171.447 85.4297 171.631 85.6266 171.998 85.6266H172.825V87.4966H171.231C170.758 87.4966 170.371 87.3785 170.069 87.1423C169.767 86.906 169.617 86.5845 169.617 86.1777V86.1384H169.282C169.203 86.3221 169.065 86.5452 168.869 86.8076C168.672 87.0701 168.37 87.2997 167.963 87.4966C167.569 87.6803 167.031 87.7722 166.349 87.7722ZM166.723 85.9218C167.471 85.9218 168.081 85.7119 168.554 85.2919C169.026 84.8589 169.262 84.2814 169.262 83.5597V83.3628H166.585C166.1 83.3628 165.706 83.4678 165.404 83.6778C165.102 83.8878 164.951 84.1961 164.951 84.603C164.951 84.9967 165.109 85.3182 165.424 85.5675C165.739 85.8037 166.172 85.9218 166.723 85.9218ZM174.698 87.4966V77.7724H176.922V79.1307H177.257C177.428 78.7632 177.736 78.4155 178.182 78.0874C178.628 77.7593 179.304 77.5953 180.21 77.5953C180.958 77.5953 181.62 77.7659 182.198 78.1071C182.775 78.4483 183.221 78.9207 183.536 79.5244C183.865 80.128 184.029 80.8432 184.029 81.67V87.4966H181.765V81.8471C181.765 81.0598 181.568 80.4758 181.174 80.0952C180.794 79.7015 180.249 79.5047 179.54 79.5047C178.74 79.5047 178.11 79.7737 177.651 80.3117C177.191 80.8367 176.962 81.5912 176.962 82.5755V87.4966H174.698ZM191.826 87.4966V77.7724H194.05V78.8945H194.385C194.529 78.4876 194.772 78.1924 195.113 78.0087C195.454 77.8249 195.861 77.7331 196.334 77.7331H197.515V79.7409H196.294C195.638 79.7409 195.107 79.9181 194.7 80.2724C194.293 80.6136 194.09 81.1451 194.09 81.8668V87.4966H191.826ZM203.618 87.7722C202.647 87.7722 201.787 87.5688 201.039 87.1619C200.304 86.742 199.727 86.158 199.307 85.41C198.9 84.6489 198.697 83.7631 198.697 82.7526V82.5164C198.697 81.4928 198.9 80.607 199.307 79.859C199.714 79.111 200.285 78.5336 201.019 78.1268C201.754 77.7068 202.601 77.4969 203.559 77.4969C204.504 77.4969 205.33 77.7068 206.039 78.1268C206.748 78.5336 207.299 79.111 207.693 79.859C208.086 80.607 208.283 81.4797 208.283 82.477V83.2841H200.98C201.006 84.0452 201.275 84.6555 201.787 85.1148C202.299 85.5741 202.929 85.8037 203.677 85.8037C204.412 85.8037 204.956 85.6462 205.311 85.3313C205.665 85.0032 205.934 84.6358 206.118 84.229L207.988 85.1935C207.804 85.5478 207.535 85.9284 207.181 86.3352C206.84 86.7289 206.38 87.0701 205.803 87.3588C205.225 87.6344 204.497 87.7722 203.618 87.7722ZM201 81.5715H205.98C205.927 80.9285 205.678 80.4167 205.232 80.0362C204.799 79.6556 204.235 79.4653 203.539 79.4653C202.817 79.4653 202.24 79.6556 201.807 80.0362C201.374 80.4167 201.105 80.9285 201 81.5715ZM214.623 87.7722C213.363 87.7722 212.326 87.4966 211.512 86.9454C210.699 86.3943 210.207 85.5872 210.036 84.5242L212.123 83.9927C212.214 84.4914 212.379 84.8851 212.615 85.1738C212.851 85.4625 213.14 85.6659 213.481 85.784C213.835 85.9021 214.216 85.9612 214.623 85.9612C215.239 85.9612 215.699 85.8496 216 85.6266C216.315 85.4035 216.473 85.1213 216.473 84.7801C216.473 84.4258 216.322 84.1633 216.02 83.9927C215.731 83.8221 215.285 83.6778 214.682 83.5597L214.071 83.4613C213.402 83.33 212.792 83.1529 212.241 82.9298C211.69 82.6936 211.243 82.3786 210.902 81.9849C210.574 81.5781 210.41 81.0663 210.41 80.4495C210.41 79.5047 210.758 78.7764 211.453 78.2646C212.162 77.7528 213.087 77.4969 214.229 77.4969C215.318 77.4969 216.217 77.7396 216.926 78.2252C217.634 78.7107 218.094 79.3603 218.304 80.174L216.217 80.8039C216.112 80.2527 215.882 79.8656 215.528 79.6425C215.174 79.4063 214.741 79.2881 214.229 79.2881C213.704 79.2881 213.297 79.38 213.008 79.5637C212.733 79.7475 212.595 80.0099 212.595 80.3511C212.595 80.6923 212.739 80.9482 213.028 81.1188C213.317 81.2894 213.704 81.4141 214.189 81.4928L214.8 81.6109C215.521 81.7421 216.171 81.9127 216.748 82.1227C217.339 82.3327 217.805 82.6345 218.146 83.0282C218.487 83.4219 218.658 83.9534 218.658 84.6226C218.658 85.6331 218.29 86.4139 217.556 86.9651C216.834 87.5031 215.856 87.7722 214.623 87.7722ZM220.949 91.4335V77.7724H223.173V79.0519H223.508C223.731 78.6451 224.085 78.2842 224.571 77.9693C225.07 77.6543 225.778 77.4969 226.697 77.4969C227.484 77.4969 228.213 77.6937 228.882 78.0874C229.564 78.468 230.109 79.0322 230.516 79.7803C230.922 80.5283 231.126 81.4272 231.126 82.477V82.792C231.126 83.8418 230.922 84.7408 230.516 85.4888C230.109 86.2368 229.571 86.8076 228.901 87.2013C228.232 87.5819 227.497 87.7722 226.697 87.7722C226.08 87.7722 225.562 87.7 225.142 87.5556C224.735 87.4113 224.4 87.221 224.138 86.9848C223.889 86.7486 223.692 86.5124 223.547 86.2761H223.213V91.4335H220.949ZM226.028 85.8037C226.854 85.8037 227.53 85.5413 228.055 85.0163C228.593 84.4783 228.862 83.7172 228.862 82.7329V82.5361C228.862 81.5387 228.593 80.7776 228.055 80.2527C227.517 79.7278 226.841 79.4653 226.028 79.4653C225.214 79.4653 224.532 79.7278 223.98 80.2527C223.442 80.7776 223.173 81.5387 223.173 82.5361V82.7329C223.173 83.7172 223.442 84.4783 223.98 85.0163C224.532 85.5413 225.214 85.8037 226.028 85.8037ZM238.127 87.7722C237.156 87.7722 236.283 87.5753 235.509 87.1816C234.748 86.7748 234.144 86.204 233.698 85.4691C233.265 84.7211 233.048 83.8287 233.048 82.792V82.477C233.048 81.4403 233.265 80.548 233.698 79.7999C234.144 79.0519 234.748 78.4811 235.509 78.0874C236.283 77.6937 237.156 77.4969 238.127 77.4969C239.098 77.4969 239.964 77.6937 240.725 78.0874C241.487 78.4811 242.084 79.0519 242.517 79.7999C242.963 80.548 243.186 81.4403 243.186 82.477V82.792C243.186 83.8287 242.963 84.7211 242.517 85.4691C242.084 86.204 241.487 86.7748 240.725 87.1816C239.964 87.5753 239.098 87.7722 238.127 87.7722ZM238.127 85.7643C238.954 85.7643 239.63 85.5019 240.155 84.977C240.679 84.4389 240.942 83.6909 240.942 82.7329V82.5361C240.942 81.5781 240.679 80.8367 240.155 80.3117C239.63 79.7737 238.954 79.5047 238.127 79.5047C237.3 79.5047 236.624 79.7737 236.1 80.3117C235.575 80.8367 235.312 81.5781 235.312 82.5361V82.7329C235.312 83.6909 235.575 84.4389 236.1 84.977C236.624 85.5019 237.3 85.7643 238.127 85.7643ZM245.593 87.4966V77.7724H247.817V79.1307H248.152C248.323 78.7632 248.631 78.4155 249.077 78.0874C249.523 77.7593 250.199 77.5953 251.105 77.5953C251.853 77.5953 252.515 77.7659 253.093 78.1071C253.67 78.4483 254.116 78.9207 254.431 79.5244C254.759 80.128 254.923 80.8432 254.923 81.67V87.4966H252.66V81.8471C252.66 81.0598 252.463 80.4758 252.069 80.0952C251.689 79.7015 251.144 79.5047 250.435 79.5047C249.635 79.5047 249.005 79.7737 248.546 80.3117C248.086 80.8367 247.857 81.5912 247.857 82.5755V87.4966H245.593ZM261.719 87.7722C260.459 87.7722 259.423 87.4966 258.609 86.9454C257.795 86.3943 257.303 85.5872 257.133 84.5242L259.219 83.9927C259.311 84.4914 259.475 84.8851 259.711 85.1738C259.948 85.4625 260.236 85.6659 260.578 85.784C260.932 85.9021 261.312 85.9612 261.719 85.9612C262.336 85.9612 262.795 85.8496 263.097 85.6266C263.412 85.4035 263.57 85.1213 263.57 84.7801C263.57 84.4258 263.419 84.1633 263.117 83.9927C262.828 83.8221 262.382 83.6778 261.778 83.5597L261.168 83.4613C260.499 83.33 259.889 83.1529 259.337 82.9298C258.786 82.6936 258.34 82.3786 257.999 81.9849C257.671 81.5781 257.507 81.0663 257.507 80.4495C257.507 79.5047 257.855 78.7764 258.55 78.2646C259.259 77.7528 260.184 77.4969 261.326 77.4969C262.415 77.4969 263.314 77.7396 264.022 78.2252C264.731 78.7107 265.19 79.3603 265.4 80.174L263.314 80.8039C263.209 80.2527 262.979 79.8656 262.625 79.6425C262.27 79.4063 261.837 79.2881 261.326 79.2881C260.801 79.2881 260.394 79.38 260.105 79.5637C259.83 79.7475 259.692 80.0099 259.692 80.3511C259.692 80.6923 259.836 80.9482 260.125 81.1188C260.413 81.2894 260.801 81.4141 261.286 81.4928L261.896 81.6109C262.618 81.7421 263.268 81.9127 263.845 82.1227C264.436 82.3327 264.902 82.6345 265.243 83.0282C265.584 83.4219 265.755 83.9534 265.755 84.6226C265.755 85.6331 265.387 86.4139 264.652 86.9651C263.93 87.5031 262.953 87.7722 261.719 87.7722ZM268.046 87.4966V77.7724H270.309V87.4966H268.046ZM269.168 76.5323C268.761 76.5323 268.407 76.4011 268.105 76.1386C267.816 75.863 267.672 75.5022 267.672 75.056C267.672 74.6098 267.816 74.2555 268.105 73.993C268.407 73.7174 268.761 73.5796 269.168 73.5796C269.601 73.5796 269.955 73.7174 270.231 73.993C270.519 74.2555 270.664 74.6098 270.664 75.056C270.664 75.5022 270.519 75.863 270.231 76.1386C269.955 76.4011 269.601 76.5323 269.168 76.5323ZM278.926 87.7722C278.007 87.7722 277.299 87.6147 276.8 87.2997C276.315 86.9717 275.96 86.6108 275.737 86.2171H275.403V87.4966H273.178V73.7174H275.442V78.9929H275.777C275.921 78.7304 276.118 78.4876 276.367 78.2646C276.63 78.0415 276.964 77.8577 277.371 77.7134C277.791 77.569 278.309 77.4969 278.926 77.4969C279.727 77.4969 280.461 77.6937 281.131 78.0874C281.8 78.468 282.338 79.0322 282.745 79.7803C283.152 80.5283 283.355 81.4272 283.355 82.477V82.792C283.355 83.8418 283.152 84.7408 282.745 85.4888C282.338 86.2368 281.793 86.8076 281.111 87.2013C280.442 87.5819 279.713 87.7722 278.926 87.7722ZM278.257 85.8037C279.07 85.8037 279.746 85.5413 280.284 85.0163C280.822 84.4783 281.091 83.7172 281.091 82.7329V82.5361C281.091 81.5387 280.822 80.7776 280.284 80.2527C279.759 79.7278 279.084 79.4653 278.257 79.4653C277.443 79.4653 276.761 79.7278 276.21 80.2527C275.672 80.7776 275.403 81.5387 275.403 82.5361V82.7329C275.403 83.7172 275.672 84.4783 276.21 85.0163C276.761 85.5413 277.443 85.8037 278.257 85.8037ZM285.75 87.4966V73.7174H288.014V87.4966H285.75ZM295.331 87.7722C294.36 87.7722 293.501 87.5688 292.753 87.1619C292.018 86.742 291.44 86.158 291.021 85.41C290.614 84.6489 290.41 83.7631 290.41 82.7526V82.5164C290.41 81.4928 290.614 80.607 291.021 79.859C291.427 79.111 291.998 78.5336 292.733 78.1268C293.468 77.7068 294.314 77.4969 295.272 77.4969C296.217 77.4969 297.044 77.7068 297.753 78.1268C298.461 78.5336 299.012 79.111 299.406 79.859C299.8 80.607 299.997 81.4797 299.997 82.477V83.2841H292.694C292.72 84.0452 292.989 84.6555 293.501 85.1148C294.013 85.5741 294.642 85.8037 295.39 85.8037C296.125 85.8037 296.67 85.6462 297.024 85.3313C297.379 85.0032 297.648 84.6358 297.831 84.229L299.701 85.1935C299.518 85.5478 299.249 85.9284 298.894 86.3352C298.553 86.7289 298.094 87.0701 297.516 87.3588C296.939 87.6344 296.211 87.7722 295.331 87.7722ZM292.713 81.5715H297.694C297.641 80.9285 297.392 80.4167 296.946 80.0362C296.513 79.6556 295.948 79.4653 295.253 79.4653C294.531 79.4653 293.954 79.6556 293.52 80.0362C293.087 80.4167 292.818 80.9285 292.713 81.5715ZM309.031 87.4966V79.6425H306.432V77.7724H309.031V75.804C309.031 75.161 309.214 74.6557 309.582 74.2883C309.962 73.9077 310.461 73.7174 311.078 73.7174H313.597V75.5875H311.826C311.458 75.5875 311.275 75.7843 311.275 76.178V77.7724H313.952V79.6425H311.275V87.4966H309.031ZM320.191 87.7722C319.22 87.7722 318.347 87.5753 317.573 87.1816C316.811 86.7748 316.208 86.204 315.762 85.4691C315.329 84.7211 315.112 83.8287 315.112 82.792V82.477C315.112 81.4403 315.329 80.548 315.762 79.7999C316.208 79.0519 316.811 78.4811 317.573 78.0874C318.347 77.6937 319.22 77.4969 320.191 77.4969C321.162 77.4969 322.028 77.6937 322.789 78.0874C323.55 78.4811 324.147 79.0519 324.58 79.7999C325.026 80.548 325.25 81.4403 325.25 82.477V82.792C325.25 83.8287 325.026 84.7211 324.58 85.4691C324.147 86.204 323.55 86.7748 322.789 87.1816C322.028 87.5753 321.162 87.7722 320.191 87.7722ZM320.191 85.7643C321.017 85.7643 321.693 85.5019 322.218 84.977C322.743 84.4389 323.006 83.6909 323.006 82.7329V82.5361C323.006 81.5781 322.743 80.8367 322.218 80.3117C321.693 79.7737 321.017 79.5047 320.191 79.5047C319.364 79.5047 318.688 79.7737 318.163 80.3117C317.638 80.8367 317.376 81.5781 317.376 82.5361V82.7329C317.376 83.6909 317.638 84.4389 318.163 84.977C318.688 85.5019 319.364 85.7643 320.191 85.7643ZM327.657 87.4966V77.7724H329.881V78.8945H330.216C330.36 78.4876 330.603 78.1924 330.944 78.0087C331.285 77.8249 331.692 77.7331 332.164 77.7331H333.345V79.7409H332.125C331.469 79.7409 330.937 79.9181 330.531 80.2724C330.124 80.6136 329.92 81.1451 329.92 81.8668V87.4966H327.657ZM344.064 87.4966C343.434 87.4966 342.929 87.3129 342.548 86.9454C342.181 86.5648 341.997 86.0531 341.997 85.41V79.6425H339.458V77.7724H341.997V74.6426H344.261V77.7724H347.056V79.6425H344.261V85.036C344.261 85.4297 344.444 85.6266 344.812 85.6266H346.761V87.4966H344.064ZM349.36 87.4966V73.7174H351.623V79.0519H351.958C352.063 78.8288 352.233 78.6058 352.47 78.3827C352.706 78.1596 353.014 77.9758 353.395 77.8315C353.789 77.6871 354.281 77.615 354.871 77.615C355.619 77.615 356.282 77.7856 356.859 78.1268C357.437 78.4548 357.883 78.9207 358.198 79.5244C358.526 80.128 358.69 80.8432 358.69 81.67V87.4966H356.426V81.8471C356.426 81.0598 356.229 80.4758 355.836 80.0952C355.455 79.7015 354.911 79.5047 354.202 79.5047C353.401 79.5047 352.772 79.7737 352.312 80.3117C351.853 80.8367 351.623 81.5912 351.623 82.5755V87.4966H349.36ZM365.919 87.7722C364.948 87.7722 364.088 87.5688 363.34 87.1619C362.605 86.742 362.028 86.158 361.608 85.41C361.201 84.6489 360.998 83.7631 360.998 82.7526V82.5164C360.998 81.4928 361.201 80.607 361.608 79.859C362.015 79.111 362.586 78.5336 363.32 78.1268C364.055 77.7068 364.902 77.4969 365.86 77.4969C366.805 77.4969 367.631 77.7068 368.34 78.1268C369.049 78.5336 369.6 79.111 369.993 79.859C370.387 80.607 370.584 81.4797 370.584 82.477V83.2841H363.281C363.307 84.0452 363.576 84.6555 364.088 85.1148C364.6 85.5741 365.23 85.8037 365.978 85.8037C366.713 85.8037 367.257 85.6462 367.612 85.3313C367.966 85.0032 368.235 84.6358 368.419 84.229L370.289 85.1935C370.105 85.5478 369.836 85.9284 369.482 86.3352C369.141 86.7289 368.681 87.0701 368.104 87.3588C367.526 87.6344 366.798 87.7722 365.919 87.7722ZM363.301 81.5715H368.281C368.228 80.9285 367.979 80.4167 367.533 80.0362C367.1 79.6556 366.536 79.4653 365.84 79.4653C365.118 79.4653 364.541 79.6556 364.108 80.0362C363.675 80.4167 363.406 80.9285 363.301 81.5715ZM130.792 116.433V102.772H133.017V104.052H133.351C133.575 103.645 133.929 103.284 134.414 102.969C134.913 102.654 135.622 102.497 136.54 102.497C137.328 102.497 138.056 102.694 138.725 103.087C139.408 103.468 139.952 104.032 140.359 104.78C140.766 105.528 140.969 106.427 140.969 107.477V107.792C140.969 108.842 140.766 109.741 140.359 110.489C139.952 111.237 139.414 111.808 138.745 112.201C138.076 112.582 137.341 112.772 136.54 112.772C135.924 112.772 135.405 112.7 134.985 112.556C134.578 112.411 134.244 112.221 133.981 111.985C133.732 111.749 133.535 111.512 133.391 111.276H133.056V116.433H130.792ZM135.871 110.804C136.698 110.804 137.374 110.541 137.899 110.016C138.437 109.478 138.706 108.717 138.706 107.733V107.536C138.706 106.539 138.437 105.778 137.899 105.253C137.36 104.728 136.685 104.465 135.871 104.465C135.057 104.465 134.375 104.728 133.824 105.253C133.286 105.778 133.017 106.539 133.017 107.536V107.733C133.017 108.717 133.286 109.478 133.824 110.016C134.375 110.541 135.057 110.804 135.871 110.804ZM146.376 112.772C145.694 112.772 145.077 112.654 144.526 112.418C143.975 112.169 143.535 111.814 143.207 111.355C142.892 110.896 142.734 110.331 142.734 109.662C142.734 109.006 142.892 108.455 143.207 108.009C143.535 107.562 143.981 107.228 144.545 107.005C145.11 106.768 145.753 106.65 146.475 106.65H149.289V106.06C149.289 105.548 149.132 105.135 148.817 104.82C148.502 104.492 148.01 104.328 147.341 104.328C146.684 104.328 146.186 104.485 145.845 104.8C145.517 105.102 145.3 105.495 145.195 105.981L143.108 105.292C143.266 104.78 143.515 104.314 143.856 103.894C144.211 103.475 144.677 103.14 145.254 102.891C145.831 102.628 146.54 102.497 147.38 102.497C148.653 102.497 149.65 102.818 150.372 103.461C151.107 104.091 151.474 105.01 151.474 106.217V110.036C151.474 110.43 151.658 110.627 152.026 110.627H152.852V112.497H151.258C150.785 112.497 150.398 112.378 150.096 112.142C149.795 111.906 149.644 111.585 149.644 111.178V111.138H149.309C149.23 111.322 149.093 111.545 148.896 111.808C148.699 112.07 148.397 112.3 147.99 112.497C147.597 112.68 147.058 112.772 146.376 112.772ZM146.75 110.922C147.498 110.922 148.108 110.712 148.581 110.292C149.053 109.859 149.289 109.281 149.289 108.56V108.363H146.612C146.127 108.363 145.733 108.468 145.431 108.678C145.129 108.888 144.978 109.196 144.978 109.603C144.978 109.997 145.136 110.318 145.451 110.568C145.766 110.804 146.199 110.922 146.75 110.922ZM155.539 116.433V114.465H160.913C161.28 114.465 161.464 114.268 161.464 113.874V111.158H161.129C161.024 111.394 160.854 111.63 160.617 111.867C160.381 112.09 160.066 112.28 159.673 112.438C159.279 112.582 158.78 112.654 158.176 112.654C157.428 112.654 156.766 112.49 156.188 112.162C155.611 111.821 155.165 111.348 154.85 110.745C154.535 110.128 154.377 109.413 154.377 108.599V102.772H156.621V108.422C156.621 109.209 156.812 109.793 157.192 110.174C157.586 110.554 158.137 110.745 158.846 110.745C159.646 110.745 160.276 110.482 160.735 109.957C161.208 109.432 161.444 108.678 161.444 107.694V102.772H163.688V114.347C163.688 114.99 163.504 115.495 163.137 115.863C162.77 116.243 162.271 116.433 161.641 116.433H155.539ZM166.567 112.497V102.772H168.791V103.855H169.126C169.296 103.527 169.578 103.238 169.972 102.989C170.379 102.727 170.917 102.595 171.586 102.595C172.295 102.595 172.866 102.74 173.299 103.028C173.732 103.317 174.06 103.684 174.283 104.131H174.598C174.821 103.684 175.143 103.317 175.563 103.028C175.982 102.74 176.58 102.595 177.354 102.595C177.957 102.595 178.502 102.727 178.988 102.989C179.486 103.251 179.88 103.639 180.169 104.15C180.471 104.662 180.621 105.299 180.621 106.06V112.497H178.358V106.217C178.358 105.653 178.207 105.226 177.905 104.938C177.603 104.636 177.183 104.485 176.645 104.485C176.055 104.485 175.582 104.682 175.228 105.076C174.887 105.456 174.716 106.007 174.716 106.729V112.497H172.472V106.217C172.472 105.653 172.321 105.226 172.019 104.938C171.717 104.636 171.298 104.485 170.759 104.485C170.156 104.485 169.683 104.682 169.342 105.076C169.001 105.456 168.83 106.007 168.83 106.729V112.497H166.567ZM187.855 112.772C186.884 112.772 186.024 112.569 185.276 112.162C184.541 111.742 183.964 111.158 183.544 110.41C183.137 109.649 182.934 108.763 182.934 107.753V107.516C182.934 106.493 183.137 105.607 183.544 104.859C183.951 104.111 184.522 103.534 185.257 103.127C185.991 102.707 186.838 102.497 187.796 102.497C188.741 102.497 189.567 102.707 190.276 103.127C190.985 103.534 191.536 104.111 191.93 104.859C192.323 105.607 192.52 106.48 192.52 107.477V108.284H185.217C185.243 109.045 185.512 109.655 186.024 110.115C186.536 110.574 187.166 110.804 187.914 110.804C188.649 110.804 189.193 110.646 189.548 110.331C189.902 110.003 190.171 109.636 190.355 109.229L192.225 110.193C192.041 110.548 191.772 110.928 191.418 111.335C191.077 111.729 190.617 112.07 190.04 112.359C189.462 112.634 188.734 112.772 187.855 112.772ZM185.237 106.572H190.217C190.165 105.929 189.915 105.417 189.469 105.036C189.036 104.656 188.472 104.465 187.776 104.465C187.054 104.465 186.477 104.656 186.044 105.036C185.611 105.417 185.342 105.929 185.237 106.572ZM194.844 112.497V102.772H197.068V104.131H197.403C197.574 103.763 197.882 103.415 198.328 103.087C198.774 102.759 199.45 102.595 200.356 102.595C201.104 102.595 201.766 102.766 202.344 103.107C202.921 103.448 203.367 103.921 203.682 104.524C204.01 105.128 204.174 105.843 204.174 106.67V112.497H201.911V106.847C201.911 106.06 201.714 105.476 201.32 105.095C200.94 104.702 200.395 104.505 199.686 104.505C198.886 104.505 198.256 104.774 197.797 105.312C197.337 105.837 197.108 106.591 197.108 107.575V112.497H194.844ZM210.386 112.497C209.756 112.497 209.251 112.313 208.87 111.945C208.503 111.565 208.319 111.053 208.319 110.41V104.642H205.78V102.772H208.319V99.6426H210.583V102.772H213.378V104.642H210.583V110.036C210.583 110.43 210.767 110.627 211.134 110.627H213.083V112.497H210.386ZM225.305 112.772C224.334 112.772 223.461 112.575 222.687 112.182C221.926 111.775 221.322 111.204 220.876 110.469C220.443 109.721 220.227 108.829 220.227 107.792V107.477C220.227 106.44 220.443 105.548 220.876 104.8C221.322 104.052 221.926 103.481 222.687 103.087C223.461 102.694 224.334 102.497 225.305 102.497C226.276 102.497 227.142 102.694 227.904 103.087C228.665 103.481 229.262 104.052 229.695 104.8C230.141 105.548 230.364 106.44 230.364 107.477V107.792C230.364 108.829 230.141 109.721 229.695 110.469C229.262 111.204 228.665 111.775 227.904 112.182C227.142 112.575 226.276 112.772 225.305 112.772ZM225.305 110.764C226.132 110.764 226.808 110.502 227.333 109.977C227.858 109.439 228.12 108.691 228.12 107.733V107.536C228.12 106.578 227.858 105.837 227.333 105.312C226.808 104.774 226.132 104.505 225.305 104.505C224.478 104.505 223.803 104.774 223.278 105.312C222.753 105.837 222.49 106.578 222.49 107.536V107.733C222.49 108.691 222.753 109.439 223.278 109.977C223.803 110.502 224.478 110.764 225.305 110.764ZM234.137 112.497V104.642H231.539V102.772H234.137V100.804C234.137 100.161 234.321 99.6557 234.688 99.2883C235.069 98.9077 235.568 98.7174 236.184 98.7174H238.704V100.587H236.932C236.565 100.587 236.381 100.784 236.381 101.178V102.772H239.058V104.642H236.381V112.497H234.137ZM249.755 112.497C249.125 112.497 248.62 112.313 248.239 111.945C247.872 111.565 247.688 111.053 247.688 110.41V104.642H245.149V102.772H247.688V99.6426H249.952V102.772H252.747V104.642H249.952V110.036C249.952 110.43 250.136 110.627 250.503 110.627H252.452V112.497H249.755ZM255.051 112.497V98.7174H257.315V104.052H257.649C257.754 103.829 257.925 103.606 258.161 103.383C258.397 103.16 258.706 102.976 259.086 102.831C259.48 102.687 259.972 102.615 260.562 102.615C261.31 102.615 261.973 102.786 262.551 103.127C263.128 103.455 263.574 103.921 263.889 104.524C264.217 105.128 264.381 105.843 264.381 106.67V112.497H262.118V106.847C262.118 106.06 261.921 105.476 261.527 105.095C261.146 104.702 260.602 104.505 259.893 104.505C259.093 104.505 258.463 104.774 258.003 105.312C257.544 105.837 257.315 106.591 257.315 107.575V112.497H255.051ZM267.161 112.497V102.772H269.425V112.497H267.161ZM268.283 101.532C267.877 101.532 267.522 101.401 267.22 101.139C266.932 100.863 266.787 100.502 266.787 100.056C266.787 99.6098 266.932 99.2555 267.22 98.993C267.522 98.7174 267.877 98.5796 268.283 98.5796C268.716 98.5796 269.071 98.7174 269.346 98.993C269.635 99.2555 269.779 99.6098 269.779 100.056C269.779 100.502 269.635 100.863 269.346 101.139C269.071 101.401 268.716 101.532 268.283 101.532ZM276.31 112.772C275.05 112.772 274.013 112.497 273.199 111.945C272.386 111.394 271.894 110.587 271.723 109.524L273.81 108.993C273.902 109.491 274.066 109.885 274.302 110.174C274.538 110.463 274.827 110.666 275.168 110.784C275.522 110.902 275.903 110.961 276.31 110.961C276.926 110.961 277.386 110.85 277.688 110.627C278.002 110.403 278.16 110.121 278.16 109.78C278.16 109.426 278.009 109.163 277.707 108.993C277.418 108.822 276.972 108.678 276.369 108.56L275.758 108.461C275.089 108.33 274.479 108.153 273.928 107.93C273.377 107.694 272.93 107.379 272.589 106.985C272.261 106.578 272.097 106.066 272.097 105.45C272.097 104.505 272.445 103.776 273.14 103.265C273.849 102.753 274.774 102.497 275.916 102.497C277.005 102.497 277.904 102.74 278.613 103.225C279.321 103.711 279.781 104.36 279.991 105.174L277.904 105.804C277.799 105.253 277.569 104.866 277.215 104.642C276.861 104.406 276.428 104.288 275.916 104.288C275.391 104.288 274.984 104.38 274.695 104.564C274.42 104.747 274.282 105.01 274.282 105.351C274.282 105.692 274.426 105.948 274.715 106.119C275.004 106.289 275.391 106.414 275.877 106.493L276.487 106.611C277.209 106.742 277.858 106.913 278.436 107.123C279.026 107.333 279.492 107.635 279.833 108.028C280.174 108.422 280.345 108.953 280.345 109.623C280.345 110.633 279.977 111.414 279.243 111.965C278.521 112.503 277.543 112.772 276.31 112.772ZM287.653 112.497V98.7174H289.917V112.497H287.653ZM297.392 112.772C296.421 112.772 295.548 112.575 294.774 112.182C294.013 111.775 293.409 111.204 292.963 110.469C292.53 109.721 292.313 108.829 292.313 107.792V107.477C292.313 106.44 292.53 105.548 292.963 104.8C293.409 104.052 294.013 103.481 294.774 103.087C295.548 102.694 296.421 102.497 297.392 102.497C298.363 102.497 299.229 102.694 299.99 103.087C300.751 103.481 301.349 104.052 301.782 104.8C302.228 105.548 302.451 106.44 302.451 107.477V107.792C302.451 108.829 302.228 109.721 301.782 110.469C301.349 111.204 300.751 111.775 299.99 112.182C299.229 112.575 298.363 112.772 297.392 112.772ZM297.392 110.764C298.219 110.764 298.895 110.502 299.42 109.977C299.944 109.439 300.207 108.691 300.207 107.733V107.536C300.207 106.578 299.944 105.837 299.42 105.312C298.895 104.774 298.219 104.505 297.392 104.505C296.565 104.505 295.889 104.774 295.364 105.312C294.84 105.837 294.577 106.578 294.577 107.536V107.733C294.577 108.691 294.84 109.439 295.364 109.977C295.889 110.502 296.565 110.764 297.392 110.764ZM307.87 112.772C307.187 112.772 306.571 112.654 306.019 112.418C305.468 112.169 305.029 111.814 304.7 111.355C304.386 110.896 304.228 110.331 304.228 109.662C304.228 109.006 304.386 108.455 304.7 108.009C305.029 107.562 305.475 107.228 306.039 107.005C306.603 106.768 307.246 106.65 307.968 106.65H310.783V106.06C310.783 105.548 310.626 105.135 310.311 104.82C309.996 104.492 309.503 104.328 308.834 104.328C308.178 104.328 307.679 104.485 307.338 104.8C307.01 105.102 306.794 105.495 306.689 105.981L304.602 105.292C304.76 104.78 305.009 104.314 305.35 103.894C305.704 103.475 306.17 103.14 306.748 102.891C307.325 102.628 308.034 102.497 308.874 102.497C310.147 102.497 311.144 102.818 311.866 103.461C312.601 104.091 312.968 105.01 312.968 106.217V110.036C312.968 110.43 313.152 110.627 313.519 110.627H314.346V112.497H312.751C312.279 112.497 311.892 112.378 311.59 112.142C311.288 111.906 311.137 111.585 311.137 111.178V111.138H310.803C310.724 111.322 310.586 111.545 310.389 111.808C310.192 112.07 309.891 112.3 309.484 112.497C309.09 112.68 308.552 112.772 307.87 112.772ZM308.244 110.922C308.992 110.922 309.602 110.712 310.074 110.292C310.547 109.859 310.783 109.281 310.783 108.56V108.363H308.106C307.62 108.363 307.227 108.468 306.925 108.678C306.623 108.888 306.472 109.196 306.472 109.603C306.472 109.997 306.63 110.318 306.945 110.568C307.259 110.804 307.693 110.922 308.244 110.922ZM316.219 112.497V102.772H318.443V104.131H318.778C318.948 103.763 319.257 103.415 319.703 103.087C320.149 102.759 320.825 102.595 321.73 102.595C322.478 102.595 323.141 102.766 323.719 103.107C324.296 103.448 324.742 103.921 325.057 104.524C325.385 105.128 325.549 105.843 325.549 106.67V112.497H323.286V106.847C323.286 106.06 323.089 105.476 322.695 105.095C322.314 104.702 321.77 104.505 321.061 104.505C320.261 104.505 319.631 104.774 319.172 105.312C318.712 105.837 318.483 106.591 318.483 107.575V112.497H316.219Z" fill="#102E34"/>
<circle cx="64.6778" cy="74.1208" r="30.9328" fill="#E9E9E9"/>
<path fill-rule="evenodd" clip-rule="evenodd" d="M64.6778 88.1815C71.6665 88.1815 77.3321 82.5158 77.3321 75.5272C77.3321 68.5385 71.6665 62.8728 64.6778 62.8728C57.6891 62.8728 52.0235 68.5385 52.0235 75.5272C52.0235 82.5158 57.6891 88.1815 64.6778 88.1815ZM64.6778 89.5875C72.4433 89.5875 78.7381 83.2927 78.7381 75.5272C78.7381 67.7616 72.4433 61.4668 64.6778 61.4668C56.9123 61.4668 50.6174 67.7616 50.6174 75.5272C50.6174 83.2927 56.9123 89.5875 64.6778 89.5875Z" fill="#102E34"/>
<circle opacity="0.2" cx="64.6778" cy="75.5269" r="12.6543" fill="#102E34"/>
<path d="M56.2416 83.7033C56.2416 82.9771 56.7843 82.3633 57.507 82.2832C62.9308 81.6828 66.4494 81.7369 71.8612 82.2965C72.1315 82.3249 72.3876 82.4314 72.5983 82.6029C72.8091 82.7745 72.9653 83.0037 73.0479 83.2626C73.1305 83.5214 73.1359 83.7988 73.0635 84.0607C72.9911 84.3226 72.844 84.5577 72.6402 84.7374C66.2533 90.3046 62.6032 90.228 56.6915 84.743C56.4033 84.4759 56.2416 84.0963 56.2416 83.704V83.7033Z" fill="#102E34"/>
<path fill-rule="evenodd" clip-rule="evenodd" d="M71.7888 82.9956C66.4199 82.4402 62.9519 82.3882 57.5837 82.9822C57.2223 83.0223 56.9446 83.3309 56.9446 83.7042C56.9446 83.9053 57.0283 84.0958 57.1696 84.228C60.0998 86.9458 62.3199 88.174 64.4901 88.1817C66.6681 88.1895 69.0077 86.9711 72.1783 84.2083C72.279 84.1186 72.3515 84.0016 72.387 83.8715C72.4225 83.7414 72.4194 83.6038 72.3782 83.4755C72.3369 83.3471 72.2593 83.2335 72.1546 83.1484C72.05 83.0633 71.9229 83.0105 71.7888 82.9963V82.9956ZM57.4297 81.5846C62.9104 80.9779 66.4803 81.0327 71.9344 81.5973C72.3409 81.6397 72.7263 81.7998 73.0433 82.0578C73.3603 82.3159 73.5951 82.6608 73.7191 83.0503C73.8431 83.4398 73.8508 83.857 73.7414 84.2509C73.6319 84.6447 73.41 84.9981 73.1028 85.2677C69.8865 88.0714 67.208 89.5983 64.4859 89.5878C61.7561 89.5779 59.1957 88.025 56.2142 85.2586C56.0007 85.0598 55.8305 84.819 55.7143 84.5515C55.598 84.2839 55.5382 83.9952 55.5386 83.7035C55.5376 83.1794 55.7299 82.6733 56.0789 82.2821C56.4278 81.891 56.9088 81.6424 57.4297 81.5839V81.5846Z" fill="#102E34"/>
<path d="M70.3019 72.715C70.3019 74.2066 69.7093 75.6371 68.6546 76.6918C67.5999 77.7466 66.1693 78.3391 64.6777 78.3391C63.1861 78.3391 61.7556 77.7466 60.7009 76.6918C59.6461 75.6371 59.0536 74.2066 59.0536 72.715C59.0536 71.2233 59.6461 69.7928 60.7009 68.7381C61.7556 67.6834 63.1861 67.0908 64.6777 67.0908C66.1693 67.0908 67.5999 67.6834 68.6546 68.7381C69.7093 69.7928 70.3019 71.2233 70.3019 72.715Z" fill="#102E34"/>
</g>
<defs>
<filter id="filter0_d_5281_176200" x="-71.6881" y="-36.087" width="603.15" height="292.416" filterUnits="userSpaceOnUse" color-interpolation-filters="sRGB">
<feFlood flood-opacity="0" result="BackgroundImageFix"/>
<feColorMatrix in="SourceAlpha" type="matrix" values="0 0 0 0 0 0 0 0 0 0 0 0 0 0 0 0 0 0 127 0" result="hardAlpha"/>
<feMorphology radius="7.68807" operator="dilate" in="SourceAlpha" result="effect1_dropShadow_5281_176200"/>
<feOffset dy="36"/>
<feGaussianBlur stdDeviation="32"/>
<feComposite in2="hardAlpha" operator="out"/>
<feColorMatrix type="matrix" values="0 0 0 0 0.0590972 0 0 0 0 0.143837 0 0 0 0 0.308333 0 0 0 0.2 0"/>
<feBlend mode="normal" in2="BackgroundImageFix" result="effect1_dropShadow_5281_176200"/>
<feBlend mode="normal" in="SourceGraphic" in2="effect1_dropShadow_5281_176200" result="shape"/>
</filter>
</defs>
</svg>
