<svg width="18" height="18" viewBox="0 0 18 18" fill="none" xmlns="http://www.w3.org/2000/svg">
<path d="M8.26657 3.53711H3.03122C2.6345 3.53711 2.25403 3.6947 1.97351 3.97522C1.69299 4.25574 1.5354 4.63621 1.5354 5.03292V15.5036C1.5354 15.9003 1.69299 16.2808 1.97351 16.5613C2.25403 16.8418 2.6345 16.9994 3.03122 16.9994H13.5019C13.8986 16.9994 14.2791 16.8418 14.5596 16.5613C14.8401 16.2808 14.9977 15.9003 14.9977 15.5036V10.2683" fill="#92CCBF"/>
<path d="M8.26657 3.53711H3.03122C2.6345 3.53711 2.25403 3.6947 1.97351 3.97522C1.69299 4.25574 1.5354 4.63621 1.5354 5.03292V15.5036C1.5354 15.9003 1.69299 16.2808 1.97351 16.5613C2.25403 16.8418 2.6345 16.9994 3.03122 16.9994H13.5019C13.8986 16.9994 14.2791 16.8418 14.5596 16.5613C14.8401 16.2808 14.9977 15.9003 14.9977 15.5036V10.2683" stroke="#002026" stroke-width="2" stroke-linecap="round" stroke-linejoin="round"/>
<path d="M13.8763 2.41586C14.1739 2.11833 14.5774 1.95117 14.9982 1.95117C15.419 1.95117 15.8225 2.11833 16.1201 2.41586C16.4176 2.7134 16.5848 3.11694 16.5848 3.53772C16.5848 3.9585 16.4176 4.36205 16.1201 4.65958L9.01494 11.7647L6.02332 12.5126L6.77122 9.52098L13.8763 2.41586Z" fill="#92CCBF" stroke="#002026" stroke-width="2" stroke-linecap="round" stroke-linejoin="round"/>
</svg>
