<svg width="26" height="37" viewBox="0 0 26 37" fill="none" xmlns="http://www.w3.org/2000/svg">
<path d="M24.4154 1.65039H1.01471C0.454314 1.65039 0 2.10464 0 2.6651V28.9438C0 29.5042 0.454314 29.9585 1.01471 29.9585H24.4154C24.9758 29.9585 25.4302 29.5042 25.4302 28.9438V2.66504C25.4301 2.10464 24.9758 1.65039 24.4154 1.65039Z" fill="#92CCBF"/>
<path d="M4.52197 28.9434V2.66461C4.52197 2.10422 4.97628 1.6499 5.53668 1.6499H1.01471C0.454314 1.6499 0 2.10416 0 2.66461V28.9433C0 29.5037 0.454314 29.958 1.01471 29.958H5.53668C4.97628 29.958 4.52197 29.5038 4.52197 28.9434Z" fill="#92CCBF"/>
<path d="M7.5603 1.65039H17.8698V3.91201H7.5603V1.65039Z" fill="#92CCBF"/>
<path d="M23.6208 3.73116V27.8764C23.6208 28.0267 23.499 28.1486 23.3487 28.1486H2.0815C1.93121 28.1486 1.80933 28.0267 1.80933 27.8764V3.73116C1.80933 3.58087 1.93121 3.45898 2.0815 3.45898H23.3487C23.499 3.45898 23.6208 3.58087 23.6208 3.73116Z" fill="#F9F7F8"/>
<path d="M2.0815 3.45898C1.93121 3.45898 1.80933 3.58087 1.80933 3.73116V27.8764C1.80933 28.0267 1.93121 28.1486 2.0815 28.1486H4.522V3.45898H2.0815Z" fill="#EFEDEF"/>
<path d="M7.5603 3.45898V5.38884C7.5603 6.33124 8.32702 7.09795 9.26942 7.09795H16.1608C17.1032 7.09795 17.8699 6.33124 17.8699 5.38884V3.45898H7.5603Z" fill="#EFEDEF"/>
<path d="M16.1606 1.02665H14.2412C13.9959 0.424581 13.4052 0 12.715 0C12.0247 0 11.434 0.424581 11.1887 1.02665H9.26928C8.99155 1.02665 8.76636 1.25179 8.76636 1.52958V5.38928C8.76636 5.66701 8.99149 5.8922 9.26928 5.8922H16.1606C16.4383 5.8922 16.6635 5.66701 16.6635 5.38928V1.52958C16.6636 1.25179 16.4384 1.02665 16.1606 1.02665Z" fill="#F9F7F8"/>
<path d="M10.9832 3.91197H10.6618C10.412 3.91197 10.2095 3.70951 10.2095 3.45965C10.2095 3.20978 10.412 3.00732 10.6618 3.00732H10.9832C11.2331 3.00732 11.4356 3.20978 11.4356 3.45965C11.4356 3.70951 11.2331 3.91197 10.9832 3.91197Z" fill="#EFEDEF"/>
<path d="M14.8287 3.91197H14.5073C14.2575 3.91197 14.0549 3.70951 14.0549 3.45965C14.0549 3.20978 14.2575 3.00732 14.5073 3.00732H14.8287C15.0785 3.00732 15.281 3.20978 15.281 3.45965C15.281 3.70951 15.0785 3.91197 14.8287 3.91197Z" fill="#EFEDEF"/>
<path d="M7.04383 15.1214H6.46648C6.21668 15.1214 6.01416 14.919 6.01416 14.6691C6.01416 14.4193 6.21668 14.2168 6.46648 14.2168H7.04383C7.29363 14.2168 7.49615 14.4193 7.49615 14.6691C7.49615 14.919 7.29363 15.1214 7.04383 15.1214Z" fill="#C0C0C0"/>
<path d="M20.6185 15.1214H9.14934C8.89954 15.1214 8.69702 14.919 8.69702 14.6691C8.69702 14.4193 8.89954 14.2168 9.14934 14.2168H20.6184C20.8682 14.2168 21.0707 14.4193 21.0707 14.6691C21.0707 14.919 20.8683 15.1214 20.6185 15.1214Z" fill="#C0C0C0"/>
<path d="M20.6183 17.3968H4.79217C4.54236 17.3968 4.33984 17.1944 4.33984 16.9445C4.33984 16.6946 4.54236 16.4922 4.79217 16.4922H20.6183C20.8681 16.4922 21.0706 16.6946 21.0706 16.9445C21.0706 17.1944 20.8681 17.3968 20.6183 17.3968Z" fill="#C0C0C0"/>
<path d="M20.6183 12.3695H4.79217C4.54236 12.3695 4.33984 12.167 4.33984 11.9172C4.33984 11.6673 4.54236 11.4648 4.79217 11.4648H20.6183C20.8681 11.4648 21.0706 11.6673 21.0706 11.9172C21.0706 12.167 20.8681 12.3695 20.6183 12.3695Z" fill="#C0C0C0"/>
<path d="M20.6183 9.60191H4.79217C4.54236 9.60191 4.33984 9.39945 4.33984 9.14959C4.33984 8.89973 4.54236 8.69727 4.79217 8.69727H20.6183C20.8681 8.69727 21.0706 8.89973 21.0706 9.14959C21.0706 9.39945 20.8681 9.60191 20.6183 9.60191Z" fill="#C0C0C0"/>
<path d="M20.6183 19.6727H4.79217C4.54236 19.6727 4.33984 19.4703 4.33984 19.2204C4.33984 18.9705 4.54236 18.7681 4.79217 18.7681H20.6183C20.8681 18.7681 21.0706 18.9705 21.0706 19.2204C21.0706 19.4703 20.8681 19.6727 20.6183 19.6727Z" fill="#C0C0C0"/>
<circle cx="12.6506" cy="28.8601" r="7.34937" fill="#38C16F"/>
<path d="M15 27L11.875 30.125L10.4546 28.7045" stroke="white" stroke-linecap="round" stroke-linejoin="round"/>
</svg>
