<svg width="191" height="42" viewBox="0 0 191 42" fill="none" xmlns="http://www.w3.org/2000/svg">
<g clip-path="url(#clip0_5271_4414)">
<path d="M56.0887 22.132H64.9824V18.5174H56.0887V13.4861H65.8412V9.87143H52.0383V30.9571H66.0261V27.3425H56.0887V22.132Z" fill="#102E34"/>
<path d="M77.0993 9.87143H68.3574V13.3666H71.1503V27.462H68.3574V30.9571H77.0993C79.9538 30.9571 82.1245 30.2404 83.6121 28.807C85.1004 27.3736 85.8435 25.2402 85.8421 22.4068V18.4266C85.8421 15.5948 85.099 13.4614 83.6121 12.0263C82.1259 10.5913 79.9552 9.87299 77.0993 9.87143ZM81.8358 22.5334C81.8358 24.0576 81.4614 25.2417 80.7133 26.0859C79.9652 26.93 78.7813 27.3489 77.1601 27.3425H75.1566V13.4861H77.1601C78.7813 13.4861 79.9652 13.9025 80.7133 14.7355C81.4614 15.5685 81.8358 16.7583 81.8358 18.3048V22.5334Z" fill="#102E34"/>
<path d="M92.2211 22.132H101.117V18.5174H92.2211V13.4861H101.976V9.87143H88.1733V30.9571H102.161V27.3425H92.2211V22.132Z" fill="#102E34"/>
<path d="M116.868 28.2456H116.322L112.107 9.87143H104.492V30.9571H108.436V12.583H108.982L113.197 30.9571H120.811V9.87143H116.868V28.2456Z" fill="#102E34"/>
<path d="M135.911 20.2981C134.644 19.7416 133.323 19.3214 131.969 19.0445L131.274 18.8917C130.56 18.749 129.861 18.5337 129.189 18.2491C128.708 18.0555 128.283 17.7398 127.958 17.3326C127.679 16.9418 127.535 16.4686 127.55 15.9868C127.536 15.627 127.606 15.2688 127.756 14.942C127.906 14.6153 128.13 14.3292 128.411 14.1077C128.985 13.6486 129.877 13.419 131.085 13.419C131.795 13.4033 132.503 13.5226 133.17 13.7706C133.724 13.9804 134.196 14.3667 134.514 14.8714C134.855 15.4695 135.021 16.153 134.993 16.8427V17.7617H138.923V16.8427C138.923 15.2958 138.586 14.0066 137.91 12.9752C137.229 11.9413 136.262 11.1334 135.13 10.6523C133.853 10.114 132.48 9.84899 131.097 9.87396C129.745 9.84288 128.403 10.098 127.155 10.6233C126.101 11.0658 125.197 11.8068 124.55 12.7571C123.917 13.7541 123.596 14.9212 123.629 16.1057C123.629 17.4101 123.906 18.4698 124.458 19.2845C125.07 20.1456 125.897 20.8262 126.855 21.2558C128.05 21.808 129.302 22.2236 130.589 22.4949L131.284 22.6476C132.067 22.8158 132.838 23.0354 133.594 23.3048C134.137 23.4858 134.63 23.795 135.032 24.2068C135.375 24.6021 135.554 25.1166 135.53 25.6422C135.537 26.0495 135.449 26.4528 135.274 26.8193C135.098 27.1858 134.84 27.5053 134.519 27.7518C133.843 28.3014 132.821 28.577 131.452 28.5786C130.083 28.5802 129.015 28.2569 128.25 27.6087C127.464 26.9621 127.071 25.9987 127.071 24.7184V23.8745H123.146V24.7305C123.105 26.1314 123.473 27.5134 124.202 28.7047C124.92 29.8165 125.936 30.6975 127.133 31.2434C129.87 32.4074 132.952 32.424 135.7 31.2895C136.823 30.7918 137.786 29.9864 138.48 28.9642C139.143 27.9449 139.485 26.7459 139.46 25.5259C139.46 24.2213 139.149 23.1512 138.526 22.3154C137.837 21.4308 136.937 20.7368 135.911 20.2981Z" fill="#102E34"/>
<path d="M154.725 19.644C153.606 19.1597 152.401 18.9205 151.187 18.9419H149.512V18.6304L158.078 12.6773V9.87143H143.447V11.6168H156.19V11.9283L147.531 17.9456V20.5637H150.675C151.626 20.5522 152.571 20.7155 153.465 21.0457C154.26 21.3342 154.958 21.8488 155.477 22.529C155.975 23.1883 156.224 24.061 156.224 25.1471V25.335C156.241 26.0072 156.119 26.6755 155.866 27.2965C155.614 27.9175 155.237 28.4772 154.759 28.9394C153.782 29.8969 152.419 30.3749 150.672 30.3733C148.925 30.3716 147.522 29.8681 146.465 28.8628C145.386 27.8541 144.848 26.4672 144.849 24.7021V24.0841H142.958V24.6774C142.958 26.2563 143.289 27.602 143.95 28.7144C144.6 29.8182 145.556 30.7014 146.694 31.2534C147.937 31.8527 149.299 32.1513 150.672 32.1261C152.029 32.1585 153.375 31.8709 154.607 31.2856C155.672 30.7733 156.571 29.9589 157.196 28.9394C157.823 27.8699 158.139 26.6406 158.11 25.3943V25.0828C158.11 23.733 157.806 22.6057 157.196 21.7008C156.579 20.79 155.723 20.0767 154.725 19.644Z" fill="#102E34"/>
<path d="M170.934 18.508C169.823 17.9183 168.579 17.6186 167.318 17.6374C165.709 17.6374 164.447 17.9276 163.53 18.508C162.728 18.9764 162.054 19.6327 161.568 20.4192H161.196V17.1474C161.196 15.4158 161.696 14.0551 162.696 13.0656C163.697 12.076 165.103 11.5821 166.916 11.5837C168.69 11.5837 170.034 12.0114 170.949 12.8668C171.864 13.722 172.323 14.8539 172.325 16.2622H174.242C174.26 15.1272 173.972 14.008 173.408 13.0195C172.824 12.036 171.965 11.2403 170.934 10.7276C169.841 10.1552 168.501 9.86985 166.916 9.87144C165.33 9.87309 163.96 10.1786 162.804 10.7883C161.695 11.3755 160.787 12.2742 160.193 13.3712C159.556 14.6053 159.242 15.978 159.281 17.3633V24.9157C159.241 26.2765 159.589 27.621 160.283 28.7963C160.935 29.8606 161.878 30.7196 163.005 31.2725C164.208 31.8361 165.522 32.1286 166.853 32.1286C168.184 32.1286 169.499 31.8361 170.702 31.2725C171.821 30.7249 172.764 29.878 173.423 28.8278C174.113 27.694 174.462 26.389 174.429 25.0661V24.6999C174.463 23.3893 174.137 22.0941 173.485 20.9528C172.876 19.9234 171.994 19.078 170.934 18.508ZM172.511 25.037C172.511 26.7105 171.986 28.0258 170.934 28.983C169.884 29.9402 168.524 30.4188 166.855 30.4188C165.185 30.4188 163.825 29.9402 162.773 28.983C161.72 28.0258 161.194 26.7105 161.196 25.037V24.7944C161.17 23.7763 161.424 22.7703 161.932 21.884C162.405 21.0776 163.095 20.4162 163.924 19.973C164.835 19.5201 165.841 19.2842 166.86 19.2842C167.881 19.2842 168.885 19.5201 169.797 19.973C170.627 20.4171 171.317 21.0782 171.792 21.884C172.299 22.7707 172.553 23.7764 172.528 24.7944L172.511 25.037Z" fill="#102E34"/>
<path d="M188.557 12.0545C187.096 10.5991 185.106 9.87143 182.59 9.87143C180.074 9.87143 178.085 10.5991 176.621 12.0545C175.159 13.5098 174.429 15.6758 174.431 18.5526V23.4474C174.431 26.3209 175.161 28.4869 176.621 29.9455C178.082 31.4041 180.071 32.1318 182.59 32.1286C185.106 32.1286 187.096 31.4009 188.557 29.9455C190.019 28.4902 190.75 26.3241 190.75 23.4474V18.5526C190.75 15.6791 190.019 13.513 188.557 12.0545ZM188.765 23.5687C188.765 25.7113 188.249 27.3882 187.215 28.5994C186.18 29.8106 184.641 30.417 182.595 30.4185C180.547 30.4185 179.005 29.8122 177.972 28.5994C176.937 27.3866 176.42 25.7097 176.418 23.5687V18.4314C176.418 16.2904 176.936 14.6135 177.972 13.4007C179.007 12.1879 180.548 11.5815 182.595 11.5815C184.642 11.5815 186.184 12.1879 187.22 13.4007C188.255 14.6135 188.772 16.2904 188.771 18.4314L188.765 23.5687Z" fill="#102E34"/>
<path d="M20.7673 13.3857C20.2247 12.7171 20.9497 12.2194 20.9571 12.2143C21.031 12.2987 21.0854 12.3998 21.1163 12.5099C21.1473 12.6199 21.1538 12.7359 21.1355 12.8489C21.1171 12.962 21.0745 13.0691 21.0106 13.1622C20.9468 13.2553 20.8635 13.3317 20.7673 13.3857Z" fill="#102E34"/>
<path d="M22.8972 9.75859C23.5024 8.27102 25.2118 8.78542 25.2285 8.78822C25.2285 8.80489 24.615 10.284 22.8972 9.75859Z" fill="#102E34"/>
<path d="M18.433 11.0429C19.9511 10.5968 19.2306 9.8789 19.2215 9.87143C19.2215 9.87143 17.7033 10.3226 18.433 11.0429Z" fill="#102E34"/>
<path d="M20.5659 9.8763C20.6097 11.0831 21.7082 11.0427 21.7316 11.0427C21.7316 11.0427 21.682 9.82862 20.5659 9.8726V9.8763Z" fill="#102E34"/>
<path d="M19.4051 9.87144C20.6508 9.79053 20.5648 8.71046 20.5648 8.70001C20.5648 8.70001 19.314 8.78611 19.4051 9.87144Z" fill="#102E34"/>
<path d="M20.7401 9.87144C20.067 9.06575 21.5608 8.70477 21.5763 8.70001C21.6704 8.80871 21.7231 8.92903 21.7306 9.05206C21.7381 9.17501 21.7003 9.29747 21.6197 9.41021C21.5392 9.52294 21.4184 9.62298 21.266 9.70287C21.1136 9.78276 20.9338 9.84037 20.7401 9.87144Z" fill="#102E34"/>
<path d="M26.4477 9.87143C26.1063 10.8086 27.5133 11.0401 27.5245 11.0429C27.5245 11.0429 27.8623 10.0999 26.4515 9.87143H26.4477Z" fill="#102E34"/>
<path d="M22.8973 12.1582C22.7771 12.2127 22.6515 12.2277 22.5277 12.2022C22.404 12.1769 22.2845 12.1116 22.1761 12.0102C22.0678 11.9087 21.9727 11.7732 21.8965 11.6114C21.8202 11.4494 21.7642 11.2645 21.7317 11.0669C21.7317 11.0669 22.6977 10.784 22.8973 12.1582Z" fill="#102E34"/>
<path d="M22.8973 12.2221C22.798 13.4962 21.7428 13.3832 21.7317 13.3832C21.7317 13.3832 21.8377 12.1029 22.8973 12.2221Z" fill="#102E34"/>
<path d="M29.8911 13.3944C29.9947 14.6727 31.0479 14.5562 31.0568 14.5531C31.0568 14.5531 30.9488 13.2686 29.8911 13.3944Z" fill="#102E34"/>
<path d="M22.8973 12.1352C22.6645 12.268 22.4116 12.2325 22.1935 12.0363C21.9753 11.8402 21.8094 11.4992 21.7317 11.0872C21.7317 11.0872 22.6516 10.7134 22.8973 12.1352Z" fill="#102E34"/>
<path d="M26.3943 9.79245C26.6272 9.92525 26.8802 9.88956 27.0985 9.69326C27.3167 9.49686 27.4825 9.15562 27.5599 8.74363C27.5599 8.74363 26.6364 8.37303 26.3943 9.79245Z" fill="#102E34"/>
<path d="M24.063 13.4724C24.6084 14.9378 26.3773 14.4949 26.3943 14.4923C26.3943 14.4761 25.8291 13.0215 24.063 13.4724Z" fill="#102E34"/>
<path d="M13.5698 12.2143C13.633 13.3291 12.4181 13.3857 12.4069 13.3857C12.4069 13.374 12.3493 12.265 13.5698 12.2143Z" fill="#102E34"/>
<path d="M23.0656 9.87144C23.2593 9.84119 23.4394 9.78417 23.5924 9.7046C23.7454 9.62511 23.8671 9.52526 23.9485 9.41246C24.0299 9.29965 24.0687 9.17696 24.0621 9.05354C24.0557 8.93012 24.0039 8.80925 23.9107 8.70001C23.9107 8.70001 22.4028 9.06271 23.0656 9.87144Z" fill="#102E34"/>
<path d="M20.5659 14.7656C20.7297 14.8941 20.9376 14.9633 21.1517 14.9606C21.3656 14.958 21.5714 14.8837 21.7316 14.7511C21.5674 14.623 21.3594 14.5542 21.1454 14.5572C20.9314 14.5603 20.7258 14.6351 20.5659 14.768V14.7656Z" fill="#102E34"/>
<path d="M20.5659 12.1731C20.9655 10.7855 22.8762 11.065 22.8972 11.0675C22.8972 11.0825 22.4886 12.4601 20.5689 12.1756L20.5659 12.1731Z" fill="#102E34"/>
<path d="M22.8954 19.1746C22.6589 19.297 22.4039 19.2536 22.186 19.0537C21.968 18.8539 21.8048 18.5137 21.7317 18.1075C21.7317 18.1075 22.6717 17.7665 22.8973 19.1814L22.8954 19.1746Z" fill="#102E34"/>
<path d="M17.5119 11.0429C16.3723 10.3942 17.7903 9.88108 17.8052 9.87143C17.8052 9.87143 18.9446 10.5259 17.5119 11.0429Z" fill="#102E34"/>
<path d="M28.7315 19.2429C29.9836 19.1624 29.897 18.0811 29.8855 18.0714C29.8739 18.0714 28.6276 18.1578 28.7315 19.2429Z" fill="#102E34"/>
<path d="M20.5659 16.7471C20.7788 16.9381 21.0189 16.9506 21.236 16.782C21.4532 16.6134 21.6308 16.2766 21.7316 15.8421C21.7232 15.8421 20.899 15.2561 20.5659 16.7471Z" fill="#102E34"/>
<path d="M19.6899 21.5857C18.7901 20.8556 20.2723 20.4175 20.3014 20.4143C20.3014 20.4143 21.1982 21.1493 19.6899 21.5857Z" fill="#102E34"/>
<path d="M32.2274 12.2143C33.4748 12.1337 33.3867 11.0532 33.3867 11.0428C33.3867 11.0428 32.134 11.1286 32.2274 12.2143Z" fill="#102E34"/>
<path d="M21.7271 19.2429C20.4844 19.1674 20.5671 18.0819 20.5671 18.0714C20.5671 18.0714 21.815 18.1547 21.7271 19.2429Z" fill="#102E34"/>
<path d="M26.6657 20.4143C27.2206 21.02 26.6238 21.58 26.6188 21.5857C26.5446 21.5122 26.4859 21.42 26.4471 21.3162C26.4083 21.2124 26.3905 21.0998 26.395 20.9867C26.3995 20.8737 26.4262 20.7634 26.4731 20.6642C26.52 20.565 26.5859 20.4795 26.6657 20.4143Z" fill="#102E34"/>
<path d="M19.4024 12.2789C19.6207 13.6728 20.558 13.3559 20.566 13.3524C20.4942 12.9481 20.3314 12.6084 20.1131 12.4074C19.8947 12.2064 19.6386 12.1601 19.4004 12.2789H19.4024Z" fill="#102E34"/>
<path d="M22.8973 15.6495C22.6645 15.7823 22.4116 15.7468 22.1935 15.5506C21.9753 15.3545 21.8094 15.0135 21.7317 14.6015C21.7317 14.6015 22.6516 14.2278 22.8973 15.6495Z" fill="#102E34"/>
<path d="M17.0691 13.4006C17.1249 14.6097 18.2243 14.5568 18.2347 14.5568C18.2225 14.3818 18.1821 14.212 18.1159 14.0577C18.0498 13.9033 17.9592 13.7679 17.85 13.6595C17.7407 13.5512 17.615 13.4722 17.4807 13.4277C17.3465 13.3831 17.2063 13.374 17.0691 13.4006Z" fill="#102E34"/>
<path d="M19.0214 13.3857C18.8263 13.4376 18.6563 13.5124 18.5245 13.6043C18.3927 13.6961 18.3026 13.8027 18.2609 13.9157C18.2193 14.0288 18.2272 14.1453 18.2842 14.2565C18.3411 14.3677 18.4456 14.4705 18.5895 14.5571C18.5895 14.5571 20.0779 14.0731 19.0214 13.3857Z" fill="#102E34"/>
<path d="M33.3908 19.3287C33.9383 20.7936 35.7023 20.3536 35.7192 20.3483C35.7192 20.3483 35.1548 18.878 33.3879 19.3287H33.3908Z" fill="#102E34"/>
<path d="M14.5997 18.0714C15.189 19.7444 13.7008 20.4143 13.6861 20.4143C13.6861 20.4143 13.0967 18.7318 14.5972 18.0714H14.5997Z" fill="#102E34"/>
<path d="M31.2253 20.4143C32.7383 20.0605 32.0817 19.2616 32.074 19.2429C32.074 19.2429 30.5609 19.6014 31.2253 20.4143Z" fill="#102E34"/>
<path d="M21.7317 17.432C22.9414 16.1776 24.0504 17.5332 24.063 17.5463C24.063 17.5463 22.8408 18.8007 21.7317 17.432Z" fill="#102E34"/>
<path d="M19.4003 20.4168C19.2454 20.4062 19.0902 20.4291 18.9447 20.484C18.7994 20.5389 18.6672 20.6246 18.5571 20.7351C18.447 20.8457 18.3614 20.9788 18.3062 21.1255C18.2509 21.2722 18.2272 21.4291 18.2366 21.5857C18.2366 21.5857 19.4757 21.5014 19.3844 20.4168H19.4003Z" fill="#102E34"/>
<path d="M11.6821 12.2143C10.5383 12.8656 11.9771 13.3857 11.9907 13.3857C12.1457 13.3044 12.2627 13.2057 12.3324 13.0975C12.4022 12.9891 12.4229 12.874 12.3932 12.7609C12.3634 12.6478 12.2838 12.5398 12.1606 12.445C12.0373 12.3502 11.8737 12.2713 11.6821 12.2143Z" fill="#102E34"/>
<path d="M19.4003 19.5811C18.9347 21.0934 18.242 20.0867 18.2346 20.0776C18.3711 19.6516 18.5651 19.3658 18.7799 19.2744C18.9947 19.1829 19.2154 19.292 19.4003 19.5811Z" fill="#102E34"/>
<path d="M20.5702 7.52856C21.8126 7.60506 21.7317 8.68957 21.7299 8.69999C21.7179 8.69999 20.4841 8.61834 20.5702 7.52856Z" fill="#102E34"/>
<path d="M17.4247 20.4143C17.3309 20.4711 17.2506 20.5499 17.1901 20.6446C17.1296 20.7392 17.0904 20.8473 17.0757 20.9604C17.0609 21.0735 17.071 21.1886 17.1049 21.2971C17.1389 21.4055 17.196 21.5042 17.2718 21.5857C17.2718 21.5857 17.9845 21.065 17.4247 20.4143Z" fill="#102E34"/>
<path d="M17.069 19.3024C16.828 19.1887 16.5699 19.2392 16.3513 19.4429C16.1327 19.6466 15.9715 19.9869 15.9033 20.3888C15.9033 20.3888 16.865 20.6786 17.069 19.3024Z" fill="#102E34"/>
<path d="M12.4065 15.294C12.92 13.8373 13.5653 14.9876 13.5721 15.0009C13.4248 15.4091 13.2252 15.6638 13.0107 15.7178C12.7961 15.7717 12.5813 15.6211 12.4065 15.294Z" fill="#102E34"/>
<path d="M11.2359 12.2143C9.99085 12.2948 10.0764 13.3753 10.0764 13.3857C10.0764 13.3857 11.3292 13.3 11.2359 12.2143Z" fill="#102E34"/>
<path d="M26.3942 19.2183C26.2921 17.9585 25.2384 18.0713 25.2285 18.0759C25.2471 18.2579 25.2924 18.4329 25.3619 18.5901C25.4313 18.7472 25.5233 18.8835 25.6324 18.9903C25.7415 19.0973 25.8653 19.1726 25.9962 19.2117C26.1272 19.251 26.2626 19.2531 26.3942 19.2183Z" fill="#102E34"/>
<path d="M18.2346 18.0621C18.3341 16.7907 19.3914 16.9005 19.4003 16.9036C19.4003 16.9036 19.2985 18.1932 18.2346 18.0621Z" fill="#102E34"/>
<path d="M15.9034 13.419C15.6707 13.3633 15.4176 13.3779 15.1994 13.4596C14.9811 13.5413 14.8152 13.6836 14.7378 13.8554C14.7378 13.8554 15.6592 14.0121 15.9034 13.419Z" fill="#102E34"/>
<path d="M17.069 18.1045C16.8358 18.0489 16.5824 18.0638 16.3641 18.146C16.1457 18.2283 15.98 18.3711 15.9033 18.5433C15.9033 18.5433 16.8248 18.6976 17.069 18.1069V18.1045Z" fill="#102E34"/>
<path d="M13.5721 18.5963C13.4216 17.9911 12.417 18.0755 12.4065 18.0755C12.4313 18.1631 12.4815 18.2464 12.5541 18.3204C12.6267 18.3944 12.7201 18.4575 12.8289 18.5062C12.9376 18.5548 13.0595 18.5878 13.1872 18.6033C13.3149 18.6188 13.4458 18.6164 13.5721 18.5963Z" fill="#102E34"/>
<path d="M17.7307 18.0714C18.951 18.6864 17.5734 19.2272 17.5619 19.2429C17.5619 19.2429 16.3456 18.622 17.7346 18.0714H17.7307Z" fill="#102E34"/>
<path d="M11.2407 19.1425C11.5128 17.7005 12.3984 18.1305 12.4064 18.1343C12.321 18.5532 12.1514 18.8935 11.9337 19.0825C11.716 19.2715 11.4674 19.2944 11.2407 19.1463V19.1425Z" fill="#102E34"/>
<path d="M19.3598 13.3857C19.6514 12.4221 18.272 12.2143 18.2595 12.2143C18.2595 12.2143 17.9711 13.1829 19.3598 13.3857Z" fill="#102E34"/>
<path d="M26.5652 14.5571C28.0688 14.9135 27.4233 15.7218 27.416 15.7286C27.416 15.7286 25.8941 15.3631 26.5652 14.5571Z" fill="#102E34"/>
<path d="M35.5495 16.9C34.0395 17.257 34.6936 18.0629 34.7006 18.0714C34.7006 18.0714 36.2173 17.708 35.5495 16.9Z" fill="#102E34"/>
<path d="M28.7255 9.87143C27.4746 9.95181 27.5611 11.0314 27.5611 11.0429C27.5726 11.0429 28.8158 10.9567 28.7139 9.87143H28.7255Z" fill="#102E34"/>
<path d="M13.6819 9.87143C13.1627 10.7363 14.6522 11.0396 14.6522 11.0429C14.6522 11.0348 15.1641 10.1715 13.6819 9.87143Z" fill="#102E34"/>
<path d="M15.9153 11.1208C16.0599 12.5682 17.069 12.1633 17.069 12.159C17.0556 11.9703 17.0123 11.7884 16.9421 11.6274C16.872 11.4665 16.777 11.3306 16.6645 11.2303C16.5518 11.1301 16.4247 11.0681 16.2928 11.0491C16.1609 11.0301 16.0276 11.0546 15.9033 11.1208H15.9153Z" fill="#102E34"/>
<path d="M18.2346 12.3828C18.4437 12.1822 18.6802 12.1598 18.8966 12.3204C19.113 12.4808 19.293 12.8122 19.4003 13.2473C19.4003 13.2473 18.5863 13.8966 18.2346 12.3828Z" fill="#102E34"/>
<path d="M15.159 12.2143C16.6075 12.7246 15.4959 13.3805 15.4959 13.3857C15.4959 13.3857 14.0438 12.8702 15.159 12.2143Z" fill="#102E34"/>
<path d="M14.3006 13.3857C14.1084 13.4424 13.944 13.5211 13.82 13.6157C13.696 13.7104 13.6158 13.8185 13.5856 13.9316C13.5553 14.0448 13.5758 14.1601 13.6455 14.2685C13.7152 14.3769 13.8322 14.4757 13.9876 14.5571C13.9876 14.5571 15.4418 14.0384 14.3006 13.3857Z" fill="#102E34"/>
<path d="M22.9016 9.87143C24.1445 9.94953 24.0617 11.0324 24.0617 11.0429C24.0617 11.0429 22.8138 10.9596 22.9016 9.87143Z" fill="#102E34"/>
<path d="M20.5561 12.2148C20.3962 12.2102 20.2372 12.2381 20.0896 12.2965C19.942 12.3549 19.8093 12.4424 19.7005 12.5533C19.5915 12.6642 19.509 12.7959 19.4582 12.9395C19.4076 13.0829 19.3899 13.2351 19.4064 13.3857C19.4064 13.3857 20.6913 13.269 20.5561 12.2148Z" fill="#102E34"/>
<path d="M25.2286 9.95665C25.0253 9.86291 24.7923 9.84581 24.5762 9.90878C24.3602 9.97182 24.177 10.1103 24.063 10.2966C24.063 10.2966 24.8502 10.6101 25.2286 9.95665Z" fill="#102E34"/>
<path d="M21.3019 12.2143C19.8586 11.7009 20.9812 11.0488 20.9926 11.0428C20.9926 11.0428 22.4245 11.5562 21.3019 12.2143Z" fill="#102E34"/>
<path d="M35.7194 15.9021C35.511 15.6981 35.2744 15.673 35.0578 15.832C34.8412 15.9909 34.6609 16.322 34.5537 16.7575C34.5537 16.7575 35.3662 17.4159 35.7194 15.9021Z" fill="#102E34"/>
<path d="M33.3879 12.0466C33.4851 11.6354 33.6619 11.3149 33.8801 11.1546C34.0982 10.9942 34.3402 11.0069 34.5536 11.1898C34.5536 11.1898 34.1061 12.7102 33.3879 12.0466Z" fill="#102E34"/>
<path d="M21.0432 13.3857C20.9618 13.366 20.884 13.3182 20.8155 13.2455C20.747 13.1729 20.6894 13.0774 20.6468 12.9655C20.6042 12.8538 20.5776 12.7286 20.569 12.5987C20.5604 12.4689 20.5699 12.3376 20.5969 12.2143C20.5969 12.2143 21.2455 12.4994 21.0432 13.3857Z" fill="#102E34"/>
<path d="M26.3142 9.87144C26.7442 8.97132 25.3009 8.70207 25.2862 8.70001C25.2862 8.70001 24.862 9.60644 26.3142 9.87144Z" fill="#102E34"/>
<path d="M12.5735 15.7286C14.0855 16.4389 13.4328 18.0558 13.4278 18.0714C13.4127 18.0714 11.9157 17.3517 12.5735 15.7286Z" fill="#102E34"/>
<path d="M21.5594 9.87143C20.0445 10.2281 20.7111 11.0353 20.7171 11.0429C20.7171 11.0429 22.2319 10.6806 21.5594 9.87143Z" fill="#102E34"/>
<path d="M14.9875 11.0429C15.1867 11.0025 15.3667 10.9371 15.5139 10.8516C15.661 10.7661 15.7714 10.6629 15.8363 10.5498C15.9014 10.4368 15.9195 10.3168 15.8891 10.1993C15.8588 10.0817 15.7809 9.96956 15.6614 9.87143C15.6614 9.87143 14.1419 10.2965 15.0008 11.0379L14.9875 11.0429Z" fill="#102E34"/>
<path d="M26.7411 18.0714C26.9363 18.0227 27.1083 17.9506 27.244 17.8606C27.3796 17.7705 27.4753 17.665 27.5238 17.5519C27.5721 17.4389 27.572 17.3214 27.5233 17.2084C27.4747 17.0954 27.3788 16.9899 27.2429 16.9C27.2429 16.9 25.7415 17.3703 26.7328 18.0714H26.7411Z" fill="#102E34"/>
<path d="M25.2242 15.7286C23.9836 15.6523 24.064 14.5669 24.064 14.5571C24.064 14.5571 25.3119 14.6383 25.2242 15.7286Z" fill="#102E34"/>
<path d="M29.8867 15.7286C28.6444 15.6535 28.7265 14.5783 28.7265 14.5571C28.7265 14.5571 29.9734 14.6392 29.8867 15.7286Z" fill="#102E34"/>
<path d="M32.1584 12.2143C32.5363 11.292 31.1152 11.0447 31.1005 11.0428C31.1005 11.0519 30.7274 11.9705 32.1584 12.2143Z" fill="#102E34"/>
<path d="M33.3836 16.9C32.1434 16.8245 32.2235 15.739 32.2235 15.7286C32.2235 15.7286 33.4715 15.8119 33.3836 16.9Z" fill="#102E34"/>
<path d="M29.8958 18.0714C31.1384 17.9909 31.0556 16.9104 31.0556 16.9C31.0556 16.9 29.8052 16.9832 29.8958 18.0714Z" fill="#102E34"/>
<path d="M26.3943 19.2511C26.4958 20.5267 27.5512 20.4135 27.5599 20.4105C27.5599 20.4105 27.454 19.1287 26.3943 19.2511Z" fill="#102E34"/>
<path d="M25.2285 12.2225C25.3301 13.4994 26.3832 13.383 26.3942 13.383C26.3942 13.383 26.2882 12.1001 25.2285 12.2225Z" fill="#102E34"/>
<path d="M32.2223 20.4221C32.1228 21.6959 31.0655 21.5832 31.0566 21.5832C31.0566 21.5832 31.1606 20.3032 32.2223 20.4221Z" fill="#102E34"/>
<path d="M34.5611 15.7286C35.8035 15.6481 35.7181 14.5675 35.7181 14.5571C35.7052 14.5571 34.4679 14.6428 34.5585 15.7286H34.5611Z" fill="#102E34"/>
<path d="M35.6871 16.9C34.3211 16.7143 34.5718 15.738 34.5718 15.7286C34.5862 15.7286 35.9436 15.919 35.6871 16.9Z" fill="#102E34"/>
<path d="M34.5536 18.1683C34.284 19.6144 33.4018 19.184 33.3879 19.1798C33.4735 18.7607 33.6431 18.4205 33.8608 18.2316C34.0785 18.0427 34.327 18.02 34.5536 18.1683Z" fill="#102E34"/>
<path d="M32.5189 19.2429C31.6021 19.9685 33.103 20.4098 33.1151 20.4143C33.2414 20.3198 33.327 20.2108 33.3652 20.0953C33.4035 19.9798 33.3935 19.861 33.336 19.748C33.2786 19.635 33.1749 19.5307 33.0334 19.4432C32.8917 19.3556 32.7157 19.2871 32.5189 19.2429Z" fill="#102E34"/>
<path d="M34.3856 15.7286C32.8745 15.0204 33.5268 13.4014 33.5343 13.3857C33.5494 13.3857 35.0454 14.1064 34.3856 15.7286Z" fill="#102E34"/>
<path d="M24.2316 11.0429C24.4249 11.0121 24.6044 10.9547 24.757 10.8752C24.9095 10.7957 25.0311 10.6959 25.1126 10.5834C25.1942 10.4708 25.2336 10.3485 25.2281 10.2251C25.2225 10.1019 25.1721 9.98104 25.0805 9.87143C25.0805 9.87143 23.5672 10.2306 24.2316 11.04V11.0429Z" fill="#102E34"/>
<path d="M29.0334 13.3857C29.0917 13.2974 29.1339 13.197 29.1577 13.0903C29.1814 12.9834 29.1863 12.8724 29.1718 12.7635C29.1573 12.6547 29.124 12.55 29.0735 12.4558C29.0231 12.3615 28.9567 12.2794 28.878 12.2143C28.8178 12.3017 28.7739 12.4021 28.749 12.5092C28.7241 12.6163 28.7188 12.728 28.7334 12.8376C28.7478 12.9471 28.7819 13.0522 28.8335 13.1464C28.8851 13.2406 28.9531 13.3221 29.0334 13.3857Z" fill="#102E34"/>
<path d="M21.7316 15.6188C21.429 14.1266 20.5728 14.6429 20.5659 14.6459C20.5659 14.6459 20.8719 16.1381 21.7316 15.6188Z" fill="#102E34"/>
<path d="M26.3875 14.5464C26.2232 14.5399 26.0621 14.5043 25.9141 14.4416C25.766 14.379 25.6342 14.2908 25.5263 14.1822C25.4183 14.0737 25.3369 13.9472 25.2867 13.8102C25.2363 13.6733 25.2184 13.5289 25.2339 13.3857C25.3994 13.3921 25.5616 13.4281 25.7105 13.4914C25.8595 13.5547 25.992 13.6439 26.1001 13.7536C26.2081 13.8634 26.2894 13.9912 26.3388 14.1294C26.3882 14.2676 26.4048 14.413 26.3875 14.5571V14.5464Z" fill="#102E34"/>
<path d="M27.5599 14.56C27.5603 14.7203 27.5298 14.8788 27.4704 15.0258C27.4109 15.1729 27.3237 15.3051 27.2143 15.4146C27.105 15.5239 26.9758 15.608 26.8347 15.6616C26.6935 15.7151 26.5436 15.737 26.3943 15.7257C26.394 15.5655 26.4245 15.4069 26.4839 15.2599C26.5433 15.1129 26.6305 14.9805 26.7399 14.8712C26.8493 14.7618 26.9785 14.6777 27.1196 14.6242C27.2607 14.5707 27.4106 14.5488 27.5599 14.56Z" fill="#102E34"/>
<path d="M25.224 15.7286C23.9776 15.65 24.0643 14.5683 24.0643 14.5571C24.0643 14.5571 25.3139 14.644 25.224 15.7286Z" fill="#102E34"/>
<path d="M26.8922 14.552C26.94 14.4472 26.967 14.3336 26.9719 14.2178C26.9767 14.1019 26.9592 13.9862 26.9203 13.8776C26.8815 13.7689 26.8221 13.6694 26.7457 13.5849C26.6693 13.5004 26.5774 13.4327 26.4754 13.3857C26.4269 13.4915 26.3995 13.6064 26.395 13.7235C26.3904 13.8405 26.4087 13.9574 26.4489 14.0669C26.489 14.1764 26.55 14.2763 26.6283 14.3606C26.7067 14.4449 26.8006 14.5117 26.9045 14.5571L26.8922 14.552Z" fill="#102E34"/>
<path d="M29.8436 16.9C29.8928 17.0239 29.9038 17.1532 29.8761 17.28C29.8484 17.4069 29.7825 17.5286 29.6826 17.6381C29.5825 17.7475 29.4503 17.8423 29.294 17.9167C29.1377 17.9912 28.9604 18.0438 28.7727 18.0714C28.7236 17.9475 28.7125 17.8182 28.7402 17.6914C28.7679 17.5646 28.8338 17.4428 28.9338 17.3333C29.0337 17.2239 29.1659 17.1291 29.3223 17.0547C29.4787 16.9802 29.656 16.9276 29.8436 16.9Z" fill="#102E34"/>
<path d="M21.7317 16.8647C21.8586 16.9066 21.9902 16.9113 22.1184 16.8783C22.2466 16.8452 22.3689 16.7752 22.4778 16.6725C22.5867 16.5696 22.68 16.4364 22.7521 16.2803C22.8243 16.1244 22.8736 15.949 22.8973 15.7649C22.7704 15.7223 22.6387 15.7171 22.5103 15.7498C22.3819 15.7826 22.2595 15.8525 22.1505 15.9554C22.0415 16.0583 21.9482 16.1919 21.8762 16.3482C21.8041 16.5045 21.755 16.6802 21.7317 16.8647Z" fill="#102E34"/>
<path d="M22.8972 16.9081C22.9955 18.1823 24.0547 18.0709 24.0629 18.0677C24.0629 18.0677 23.9592 16.7869 22.8972 16.9081Z" fill="#102E34"/>
<path d="M13.5721 18.0796C13.4688 19.3571 12.4174 19.2422 12.4065 19.2389C12.4065 19.2389 12.5152 17.9581 13.5721 18.0796Z" fill="#102E34"/>
<path d="M19.4004 16.835C20.3164 17.2177 20.5636 15.7861 20.566 15.7746C20.566 15.7746 19.6476 15.3917 19.4004 16.835Z" fill="#102E34"/>
<path d="M17.069 14.4927C16.151 14.8731 15.9057 13.4463 15.9033 13.4311C15.9033 13.4311 16.8261 13.0507 17.069 14.4927Z" fill="#102E34"/>
<path d="M20.5641 16.9C20.5733 17.0492 20.5502 17.1986 20.4962 17.3393C20.4423 17.48 20.3584 17.6089 20.2499 17.7184C20.1413 17.8279 20.0103 17.9156 19.8646 17.9762C19.719 18.0369 19.5617 18.0693 19.4024 18.0714C19.3931 17.9222 19.4162 17.7727 19.4702 17.6321C19.5242 17.4914 19.608 17.3625 19.7165 17.253C19.8251 17.1436 19.9561 17.0559 20.1018 16.9952C20.2475 16.9345 20.4047 16.9021 20.5641 16.9Z" fill="#102E34"/>
<path d="M32.2249 16.9C32.1606 18.0069 33.3716 18.0693 33.3876 18.0714C33.3876 18.0714 33.4449 16.9583 32.2249 16.9Z" fill="#102E34"/>
<path d="M22.2361 14.5571C22.134 14.5125 22.0416 14.4461 21.9644 14.3623C21.8871 14.2783 21.8267 14.1785 21.7867 14.0689C21.7468 13.9593 21.7283 13.8423 21.7322 13.7248C21.7361 13.6074 21.7624 13.492 21.8094 13.3857C21.9111 13.431 22.0031 13.4976 22.0799 13.5817C22.1568 13.6657 22.2169 13.7654 22.2568 13.8748C22.2966 13.9841 22.3153 14.101 22.3117 14.2182C22.3082 14.3355 22.2824 14.4507 22.2361 14.5571Z" fill="#102E34"/>
<path d="M20.566 19.4233C20.4909 19.4829 20.4005 19.5304 20.3002 19.5628C20.2 19.5952 20.0922 19.6119 19.9832 19.6119C19.8742 19.6119 19.7664 19.5952 19.6662 19.5628C19.566 19.5304 19.4756 19.4829 19.4004 19.4233C19.4772 19.3649 19.5686 19.3189 19.6694 19.2879C19.7704 19.2569 19.8784 19.2416 19.9873 19.2429C20.0962 19.2443 20.2035 19.2623 20.303 19.2957C20.4025 19.3292 20.4919 19.3775 20.566 19.4378V19.4233Z" fill="#102E34"/>
<path d="M27.5599 13.3468C27.3614 11.9573 26.4035 12.2362 26.3943 12.2389C26.3943 12.2389 26.5984 13.6338 27.5599 13.3468Z" fill="#102E34"/>
<path d="M21.7371 25.1C21.9016 25.0927 22.0626 25.0563 22.2106 24.9929C22.3587 24.9295 22.4906 24.8404 22.5985 24.731C22.7064 24.6215 22.788 24.4941 22.8385 24.3562C22.889 24.2183 22.9073 24.0728 22.8922 23.9286C22.7276 23.9353 22.5664 23.9715 22.418 24.0347C22.2697 24.098 22.1376 24.187 22.0296 24.2966C21.9216 24.4061 21.8401 24.5337 21.7898 24.6718C21.7395 24.8099 21.7216 24.9556 21.7371 25.1Z" fill="#102E34"/>
<path d="M29.4497 15.7286C30.588 15.0796 29.1663 14.5633 29.1526 14.5571C29.1526 14.5571 28.0188 15.2123 29.4452 15.7286H29.4497Z" fill="#102E34"/>
<path d="M14.7328 23.9286C13.486 23.8483 13.5733 22.7674 13.5733 22.7571C13.5852 22.7571 14.8249 22.8415 14.7328 23.9286Z" fill="#102E34"/>
<path d="M20.566 21.4446C19.7379 22.0431 19.4025 20.5449 19.4004 20.5298C19.4004 20.5298 20.2286 19.935 20.566 21.4446Z" fill="#102E34"/>
<path d="M27.2711 25.1C28.1736 24.37 26.6742 23.932 26.6598 23.9286C26.6598 23.9286 25.7609 24.6637 27.2711 25.1Z" fill="#102E34"/>
<path d="M12.4014 16.9C11.1565 16.8191 11.2397 15.7369 11.2429 15.7286C11.2429 15.7286 12.4942 15.8123 12.4014 16.9Z" fill="#102E34"/>
<path d="M22.8973 23.9001C22.7231 22.5373 21.7394 22.7709 21.7317 22.7745C21.7317 22.7745 21.911 24.1408 22.8973 23.9001Z" fill="#102E34"/>
<path d="M17.2518 23.9286C17.1906 24.0075 17.1429 24.1009 17.1115 24.2035C17.0802 24.306 17.0659 24.4153 17.0697 24.5248C17.0733 24.6344 17.0949 24.7418 17.133 24.8407C17.1711 24.9395 17.2249 25.0278 17.2913 25.1C17.3525 25.0212 17.4003 24.9276 17.4315 24.8252C17.4629 24.7227 17.4771 24.6133 17.4734 24.5038C17.4697 24.3942 17.4481 24.2868 17.4101 24.1879C17.372 24.089 17.3182 24.0008 17.2518 23.9286Z" fill="#102E34"/>
<path d="M31.0469 12.2784C30.8271 13.6801 29.8911 13.36 29.8911 13.3417C29.8911 13.3417 30.1158 11.9363 31.0568 12.2638L31.0469 12.2784Z" fill="#102E34"/>
<path d="M22.8972 20.3493C23.8108 20.732 24.0604 19.3003 24.0629 19.2889C24.0629 19.2889 23.142 18.906 22.8972 20.3493Z" fill="#102E34"/>
<path d="M29.891 18.0745C29.8879 18.2373 29.8547 18.3975 29.7936 18.5453C29.7325 18.6933 29.6447 18.8259 29.5356 18.9349C29.4263 19.044 29.2982 19.1273 29.1588 19.1795C29.0195 19.2318 28.8719 19.2521 28.7253 19.239C28.7296 19.0769 28.7635 18.9172 28.825 18.7699C28.8865 18.6226 28.9744 18.4906 29.0833 18.3819C29.1922 18.2731 29.32 18.1897 29.4587 18.137C29.5975 18.0842 29.7445 18.0629 29.891 18.0745Z" fill="#102E34"/>
<path d="M28.8807 18.0714C28.9676 18.1343 29.0416 18.2148 29.0983 18.3082C29.1549 18.4017 29.1931 18.5061 29.2106 18.6154C29.2281 18.7247 29.2245 18.8365 29.2001 18.9444C29.1755 19.0521 29.1308 19.1537 29.0682 19.2429C28.9808 19.1806 28.9063 19.1002 28.8492 19.0068C28.7921 18.9134 28.7537 18.8088 28.7362 18.6993C28.7186 18.5898 28.7224 18.4777 28.7472 18.3698C28.7721 18.2619 28.8175 18.1604 28.8807 18.0714Z" fill="#102E34"/>
<path d="M10.0751 22.8434C9.80153 24.3082 8.9164 23.8679 8.90942 23.8621C8.90942 23.8621 9.18818 22.3916 10.0751 22.8434Z" fill="#102E34"/>
<path d="M32.3655 22.7571C31.7595 23.5939 33.2743 23.9168 33.2743 23.9286C33.2743 23.9286 33.862 23.0919 32.3655 22.7672V22.7571Z" fill="#102E34"/>
<path d="M13.4177 25.1C13.213 25.0549 13.0279 24.9883 12.8732 24.9043C12.7184 24.8204 12.5974 24.7206 12.5174 24.6112C12.4374 24.5017 12.3999 24.3848 12.4074 24.2675C12.415 24.1502 12.4672 24.0349 12.5611 23.9286C12.7656 23.9736 12.9508 24.0401 13.1055 24.1242C13.2602 24.2082 13.3813 24.3079 13.4613 24.4174C13.5414 24.5268 13.5787 24.6437 13.5712 24.761C13.5637 24.8784 13.5114 24.9937 13.4177 25.1Z" fill="#102E34"/>
<path d="M22.8972 22.1188C21.6882 20.8635 20.5782 22.2171 20.5659 22.231C20.5659 22.231 21.7874 23.4864 22.8972 22.1188Z" fill="#102E34"/>
<path d="M28.7308 25.1C28.8961 25.1068 29.0581 25.1431 29.2071 25.2065C29.3559 25.2699 29.4884 25.3592 29.5964 25.4689C29.7044 25.5784 29.7856 25.7062 29.8352 25.8441C29.8847 25.9822 29.9015 26.1276 29.8847 26.2714C29.7197 26.2634 29.5583 26.2264 29.4101 26.1625C29.262 26.0988 29.1301 26.0095 29.0223 25.9001C28.9146 25.7907 28.8332 25.6635 28.7832 25.526C28.733 25.3885 28.7153 25.2437 28.7308 25.1Z" fill="#102E34"/>
<path d="M33.6965 16.9C33.7658 16.9844 33.8176 17.0822 33.8488 17.1876C33.8802 17.2929 33.8902 17.4036 33.8785 17.513C33.8667 17.6224 33.8334 17.7283 33.7805 17.8242C33.7276 17.9202 33.6563 18.0043 33.5707 18.0714C33.5022 17.9864 33.4511 17.8881 33.4207 17.7826C33.3901 17.6769 33.3809 17.5662 33.3933 17.4569C33.4057 17.3476 33.4396 17.2419 33.493 17.1462C33.5463 17.0505 33.6181 16.9668 33.7039 16.9H33.6965Z" fill="#102E34"/>
<path d="M27.5598 24.1025C28.0251 24.8427 28.7187 24.3436 28.7255 24.3436C28.7255 24.3436 28.2533 23.601 27.5598 24.1025Z" fill="#102E34"/>
<path d="M24.0585 13.3857C22.8175 13.4622 22.8983 14.5478 22.8983 14.5571C22.911 14.5571 24.1456 14.475 24.0585 13.3857Z" fill="#102E34"/>
<path d="M28.8901 23.9286C28.9679 23.9949 29.0331 24.0783 29.0816 24.1739C29.1302 24.2694 29.1612 24.375 29.1727 24.4846C29.1842 24.594 29.176 24.7049 29.1487 24.8107C29.1213 24.9165 29.0753 25.0149 29.0134 25.1C28.9357 25.0336 28.8706 24.9502 28.822 24.8548C28.7734 24.7594 28.7423 24.6538 28.7306 24.5445C28.7189 24.4351 28.7267 24.3242 28.7537 24.2184C28.7807 24.1126 28.8263 24.014 28.8877 23.9286H28.8901Z" fill="#102E34"/>
<path d="M29.8911 22.7987C30.8482 22.5019 31.0541 23.892 31.0568 23.9037C31.0568 23.9037 30.0943 24.1927 29.8911 22.7987Z" fill="#102E34"/>
<path d="M33.3881 19.9714C32.8728 18.5339 32.2287 19.6647 32.2224 19.6791C32.2224 19.6791 32.7418 21.1166 33.3881 19.9714Z" fill="#102E34"/>
<path d="M34.5586 16.9C35.8043 16.9807 35.7181 18.0603 35.7181 18.0714C35.7181 18.0714 34.466 17.9851 34.5586 16.9Z" fill="#102E34"/>
<path d="M29.891 21.578C29.7927 20.3055 28.7335 20.4167 28.7253 20.4167C28.7253 20.4167 28.829 21.6958 29.891 21.578Z" fill="#102E34"/>
<path d="M31.0566 18.0967C31.177 18.0738 31.3038 18.0664 31.4292 18.0748C31.5546 18.0831 31.6757 18.1072 31.7851 18.1455C31.8945 18.1837 31.9897 18.2353 32.065 18.297C32.1402 18.3588 32.1938 18.4293 32.2223 18.5042C32.1029 18.5252 31.9779 18.5313 31.8545 18.522C31.7313 18.5127 31.6123 18.4883 31.5048 18.4502C31.3974 18.4121 31.3037 18.3612 31.2294 18.3005C31.1551 18.2397 31.1017 18.1704 31.0725 18.0967H31.0566Z" fill="#102E34"/>
<path d="M29.8911 22.7789C30.0127 22.7579 30.14 22.752 30.2654 22.7616C30.3908 22.7712 30.5117 22.796 30.6207 22.8346C30.7297 22.8732 30.8246 22.9246 30.8996 22.9859C30.9745 23.0472 31.028 23.117 31.0568 23.1911C30.9357 23.2121 30.8089 23.2182 30.684 23.2089C30.5589 23.1996 30.4384 23.1752 30.3295 23.1371C30.2206 23.099 30.1256 23.0481 30.0503 22.9874C29.9749 22.9266 29.9208 22.8573 29.8911 22.7836V22.7789Z" fill="#102E34"/>
<path d="M33.3879 22.0755C33.4059 22.0006 33.4505 21.9284 33.5192 21.8633C33.5879 21.7982 33.6794 21.7415 33.788 21.6965C33.8968 21.6516 34.0205 21.6192 34.152 21.6015C34.2835 21.5838 34.4201 21.581 34.5536 21.5932C34.5363 21.6683 34.492 21.7406 34.4234 21.8059C34.3549 21.8711 34.2634 21.9279 34.1547 21.973C34.0458 22.018 33.9218 22.0503 33.7901 22.0679C33.6582 22.0855 33.5216 22.0881 33.3879 22.0755Z" fill="#102E34"/>
<path d="M30.3912 22.7571C29.1781 23.3788 30.5516 23.9244 30.5658 23.9286C30.5658 23.9286 31.779 23.2942 30.3912 22.7571Z" fill="#102E34"/>
<path d="M34.5536 23.8439C34.2842 22.3816 33.3977 22.8168 33.3879 22.8207C33.3879 22.8207 33.6646 24.2911 34.5536 23.8439Z" fill="#102E34"/>
<path d="M33.3879 16.8146C33.6615 15.3468 34.5449 15.79 34.5536 15.7958C34.5536 15.7958 34.2748 17.2636 33.3879 16.8146Z" fill="#102E34"/>
<path d="M16.907 19.2429C15.3904 19.5985 16.0416 20.407 16.0462 20.4143C16.0462 20.4143 17.5628 20.0539 16.9024 19.2429H16.907Z" fill="#102E34"/>
<path d="M9.07471 21.5857C10.5883 21.9441 9.93472 22.7503 9.93472 22.7572C9.93472 22.7572 8.41694 22.3966 9.07471 21.5857Z" fill="#102E34"/>
<path d="M27.5647 15.7286C28.8115 15.8108 28.7241 16.8898 28.7241 16.9C28.7241 16.9 27.4726 16.8137 27.5647 15.7286Z" fill="#102E34"/>
<path d="M33.2797 14.5571C33.7926 15.4223 32.319 15.7251 32.3071 15.7286C32.3071 15.7286 31.7971 14.8634 33.2797 14.5571Z" fill="#102E34"/>
<path d="M30.6192 14.5571C31.752 15.86 30.3292 16.8906 30.3153 16.9C30.3153 16.9 29.1825 15.5876 30.6192 14.5571Z" fill="#102E34"/>
<path d="M26.3942 17.066C25.5833 16.4077 25.2307 17.919 25.2285 17.9314C25.2285 17.9314 26.0438 18.5856 26.3942 17.066Z" fill="#102E34"/>
<path d="M31.796 16.9C30.3531 17.4115 31.4654 18.0658 31.4736 18.0714C31.4736 18.0714 32.9165 17.5562 31.796 16.9Z" fill="#102E34"/>
<path d="M32.4348 18.0714C33.1401 18.5842 32.5926 19.236 32.5877 19.2429C32.5877 19.2429 31.8799 18.7232 32.4348 18.0714Z" fill="#102E34"/>
<path d="M19.396 15.7286C18.1539 15.8041 18.2335 16.8916 18.2367 16.9C18.2367 16.9 19.4819 16.8189 19.396 15.7286Z" fill="#102E34"/>
<path d="M25.2388 16.9C25.4085 16.9119 25.5736 16.952 25.7241 17.0181C25.8745 17.084 26.0073 17.1745 26.1141 17.284C26.2212 17.3934 26.3002 17.5196 26.3466 17.6549C26.3929 17.7902 26.4056 17.9319 26.3838 18.0714C26.214 18.0594 26.0491 18.0193 25.8986 17.9533C25.7482 17.8873 25.6155 17.7969 25.5084 17.6875C25.4014 17.578 25.3224 17.4518 25.2761 17.3164C25.2298 17.1811 25.2171 17.0394 25.2388 16.9Z" fill="#102E34"/>
<path d="M17.0691 14.6293C17.1719 14.5887 17.2842 14.5646 17.3993 14.5586C17.5145 14.5526 17.63 14.5647 17.7388 14.5942C17.8478 14.6237 17.9478 14.67 18.0331 14.7304C18.1183 14.7907 18.1869 14.8637 18.2347 14.9452C18.132 14.9857 18.0196 15.0098 17.9045 15.0158C17.7894 15.0219 17.6739 15.0097 17.565 14.9802C17.4561 14.9507 17.356 14.9044 17.2707 14.8441C17.1855 14.7838 17.117 14.7107 17.0691 14.6293Z" fill="#102E34"/>
<path d="M27.9936 12.2143C29.4293 11.7007 28.3117 11.0492 28.3022 11.0428C28.3022 11.0428 26.8619 11.5607 27.9936 12.2143Z" fill="#102E34"/>
<path d="M7.7439 19.4135C8.55106 18.7421 8.90727 20.2687 8.90954 20.2687C8.90954 20.2687 8.0979 20.9359 7.7439 19.4135Z" fill="#102E34"/>
<path d="M27.5599 13.4509C26.6463 13.0681 26.3967 14.4958 26.3943 14.5112C26.3943 14.5112 27.3151 14.8939 27.5599 13.4509Z" fill="#102E34"/>
<path d="M29.9198 13.3857C29.99 13.352 30.0554 13.2945 30.1121 13.2164C30.1687 13.1384 30.2154 13.0417 30.2494 12.932C30.2833 12.8225 30.3037 12.7024 30.3093 12.5789C30.315 12.4555 30.3058 12.3315 30.2823 12.2143C30.2121 12.2479 30.1467 12.3056 30.09 12.3836C30.0333 12.4616 29.9866 12.5583 29.9527 12.6678C29.9188 12.7775 29.8984 12.8977 29.8927 13.0211C29.8871 13.1445 29.8962 13.2685 29.9198 13.3857Z" fill="#102E34"/>
<path d="M17.1487 14.5549C16.7197 13.6555 18.1631 13.3902 18.1777 13.3857C18.1777 13.3857 18.5995 14.2851 17.1487 14.5571V14.5549Z" fill="#102E34"/>
<path d="M33.2218 20.4143C31.7104 20.7691 32.3604 21.5857 32.3666 21.5857C32.3666 21.5857 33.8811 21.2259 33.2218 20.4143Z" fill="#102E34"/>
<path d="M26.5618 11.0428C28.0746 11.4011 27.4204 12.2062 27.4127 12.2143C27.4127 12.2143 25.8999 11.852 26.5618 11.0428Z" fill="#102E34"/>
<path d="M32.6339 15.7286C32.5412 15.6748 32.4596 15.6013 32.3939 15.5126C32.3281 15.424 32.2796 15.3219 32.2513 15.2126C32.223 15.1031 32.2154 14.9887 32.229 14.8762C32.2426 14.7635 32.2771 14.655 32.3305 14.5571C32.4234 14.6107 32.5053 14.6839 32.5713 14.7726C32.6372 14.8612 32.6858 14.9634 32.7142 15.0729C32.7425 15.1823 32.75 15.2969 32.7362 15.4096C32.7224 15.5223 32.6876 15.6307 32.6339 15.7286Z" fill="#102E34"/>
<path d="M25.6177 22.7572C25.5235 22.6985 25.442 22.6211 25.3782 22.5297C25.3144 22.4382 25.2696 22.3345 25.2464 22.225C25.2234 22.1154 25.2226 22.0023 25.244 21.8924C25.2654 21.7825 25.3086 21.6782 25.3711 21.5857C25.4654 21.6444 25.5469 21.7217 25.6107 21.8132C25.6745 21.9047 25.7194 22.0084 25.7424 22.1178C25.7655 22.2274 25.7663 22.3406 25.7449 22.4505C25.7235 22.5604 25.6802 22.6647 25.6177 22.7572Z" fill="#102E34"/>
<path d="M18.239 20.4143C19.4803 20.338 19.3992 19.2534 19.3992 19.2429C19.3992 19.2429 18.1518 19.3245 18.239 20.4143Z" fill="#102E34"/>
<path d="M13.5769 20.4143C14.8233 20.3382 14.7364 19.253 14.7364 19.2429C14.7364 19.2429 13.4842 19.324 13.5769 20.4143Z" fill="#102E34"/>
<path d="M11.3046 16.9C10.9267 15.9765 12.3477 15.7286 12.3628 15.7286C12.3628 15.7286 12.7348 16.6579 11.3046 16.9Z" fill="#102E34"/>
<path d="M11.2453 21.583C12.4881 21.5048 12.4052 20.4226 12.4052 20.4143C12.4052 20.4143 11.156 20.498 11.2453 21.5857V21.583Z" fill="#102E34"/>
<path d="M13.5672 22.7572C12.3246 22.679 12.4076 21.5969 12.4076 21.5857C12.4076 21.5857 13.6599 21.6694 13.5672 22.7572Z" fill="#102E34"/>
<path d="M17.0662 23.9367C16.9658 25.2121 15.9115 25.0973 15.9033 25.0973C15.9033 25.0973 16.012 23.8153 17.069 23.9367H17.0662Z" fill="#102E34"/>
<path d="M17.069 16.9081C16.9684 18.1856 15.9142 18.0707 15.9033 18.0674C15.9033 18.0674 16.012 16.7867 17.069 16.9081Z" fill="#102E34"/>
<path d="M11.2407 23.9367C11.3388 25.2109 12.3955 25.0995 12.4064 25.0962C12.4064 25.0962 12.3001 23.8154 11.2407 23.9367Z" fill="#102E34"/>
<path d="M10.0705 20.4143C8.82442 20.3334 8.9107 19.2512 8.9107 19.2429C8.9107 19.2429 10.16 19.3293 10.0705 20.4143Z" fill="#102E34"/>
<path d="M8.94122 21.5857C10.3089 21.4016 10.0568 20.4219 10.0568 20.4143C10.0568 20.4143 8.68545 20.6036 8.94122 21.5857Z" fill="#102E34"/>
<path d="M10.0752 22.8316C10.1088 23.027 10.1661 23.2091 10.2434 23.3672C10.3209 23.5253 10.4169 23.6559 10.5257 23.7514C10.6347 23.8469 10.7541 23.9052 10.877 23.9228C10.9999 23.9406 11.1236 23.9171 11.2408 23.8541C11.2073 23.6587 11.15 23.4766 11.0726 23.3185C10.9952 23.1604 10.8991 23.0298 10.7903 22.9343C10.6814 22.8388 10.5619 22.7805 10.4391 22.7629C10.3163 22.7452 10.1924 22.7686 10.0752 22.8316Z" fill="#102E34"/>
<path d="M10.5038 23.9286C10.566 24.0236 10.6077 24.1299 10.6266 24.241C10.6455 24.3522 10.641 24.4659 10.6136 24.5754C10.5862 24.6849 10.5363 24.7877 10.467 24.8779C10.3977 24.9681 10.3104 25.0437 10.2103 25.1C10.1479 25.0051 10.1059 24.8988 10.0869 24.7875C10.0678 24.6763 10.0722 24.5625 10.0996 24.4529C10.1271 24.3434 10.177 24.2404 10.2465 24.1503C10.316 24.0601 10.4036 23.9847 10.5038 23.9286Z" fill="#102E34"/>
<path d="M10.2436 19.2429C11.7528 18.8881 11.1025 18.0714 11.0962 18.0714C11.0962 18.0714 9.5838 18.4312 10.2404 19.2429H10.2436Z" fill="#102E34"/>
<path d="M17.5031 16.9C17.4162 16.8551 17.3374 16.7888 17.2714 16.705C17.2054 16.6213 17.1535 16.522 17.1188 16.4127C17.084 16.3035 17.0672 16.1866 17.0693 16.0691C17.0713 15.9516 17.0922 15.8358 17.1307 15.7286C17.2178 15.7731 17.2968 15.8393 17.363 15.9229C17.4292 16.0065 17.4812 16.1061 17.516 16.2154C17.5508 16.3247 17.5675 16.4417 17.5653 16.5593C17.5631 16.677 17.5419 16.7929 17.5031 16.9Z" fill="#102E34"/>
<path d="M17.5039 11.0429C17.4163 10.998 17.3368 10.9317 17.2705 10.8478C17.2041 10.764 17.152 10.6644 17.1175 10.555C17.0829 10.4455 17.0666 10.3285 17.0694 10.2111C17.0722 10.0936 17.0941 9.97808 17.1339 9.87143C17.2213 9.91654 17.3004 9.98307 17.3666 10.067C17.4327 10.151 17.4845 10.2507 17.5188 10.3601C17.5531 10.4695 17.5692 10.5863 17.5663 10.7037C17.5633 10.821 17.5412 10.9364 17.5014 11.0429H17.5039Z" fill="#102E34"/>
<path d="M31.3597 11.0429C31.4184 10.9547 31.461 10.8543 31.4849 10.7474C31.5089 10.6407 31.5138 10.5296 31.4993 10.4206C31.4849 10.3117 31.4514 10.207 31.4007 10.1128C31.3501 10.0185 31.2833 9.93643 31.2044 9.87143C31.1457 9.95957 31.1031 10.06 31.0791 10.1668C31.0552 10.2736 31.0503 10.3847 31.0648 10.4936C31.0792 10.6026 31.1127 10.7072 31.1634 10.8015C31.2139 10.8958 31.2807 10.9779 31.3597 11.0429Z" fill="#92CCBF" fill-opacity="0.6"/>
<path d="M24.0629 13.2749C23.7603 11.7833 22.9058 12.2994 22.8972 12.3053C22.8972 12.3053 23.205 13.7969 24.0629 13.2749Z" fill="#92CCBF" fill-opacity="0.6"/>
<path d="M28.7188 12.2143C28.5536 12.2078 28.3916 12.1718 28.2428 12.1085C28.094 12.0453 27.9615 11.956 27.8536 11.8464C27.7456 11.7366 27.6645 11.6087 27.6151 11.4706C27.5657 11.3324 27.5492 11.1868 27.5665 11.0428C27.7317 11.0493 27.8937 11.0853 28.0425 11.1485C28.1913 11.2118 28.3237 11.301 28.4317 11.4107C28.5395 11.5205 28.6208 11.6483 28.6701 11.7865C28.7195 11.9247 28.7361 12.0703 28.7188 12.2143Z" fill="#92CCBF" fill-opacity="0.6"/>
<path d="M29.891 13.3886C29.8913 13.5488 29.8608 13.7074 29.8014 13.8544C29.742 14.0014 29.6548 14.1337 29.5455 14.2431C29.4361 14.3525 29.3068 14.4365 29.1658 14.4901C29.0246 14.5436 28.8747 14.5655 28.7253 14.5542C28.725 14.3941 28.7555 14.2355 28.815 14.0885C28.8744 13.9415 28.9616 13.8091 29.0709 13.6998C29.1803 13.5904 29.3095 13.5063 29.4507 13.4528C29.5917 13.3992 29.7416 13.3774 29.891 13.3886Z" fill="#92CCBF" fill-opacity="0.6"/>
<path d="M27.5553 13.3857C26.3088 13.3047 26.3956 12.2255 26.3956 12.2143C26.3956 12.2143 27.6452 12.301 27.5553 13.3857Z" fill="#92CCBF" fill-opacity="0.6"/>
<path d="M29.7326 13.3857C29.8277 13.2798 29.8812 13.1649 29.8897 13.0479C29.8984 12.9308 29.862 12.8141 29.7828 12.7046C29.7037 12.5952 29.5834 12.4954 29.4292 12.4111C29.275 12.3268 29.09 12.2599 28.8854 12.2143C28.7897 12.3201 28.7356 12.4351 28.7267 12.5522C28.7177 12.6694 28.754 12.7863 28.8332 12.8958C28.9124 13.0054 29.033 13.1053 29.1877 13.1895C29.3423 13.2737 29.5277 13.3404 29.7326 13.3857Z" fill="#92CCBF" fill-opacity="0.6"/>
<path d="M19.3519 12.2143C19.4017 12.3384 19.4131 12.4679 19.3857 12.5951C19.3584 12.7222 19.2927 12.8443 19.1925 12.9539C19.0924 13.0633 18.9601 13.1582 18.8035 13.2324C18.6469 13.3067 18.4695 13.3589 18.2819 13.3857C18.2329 13.2617 18.2218 13.1323 18.2495 13.0053C18.2773 12.8783 18.3431 12.7565 18.443 12.647C18.5431 12.5375 18.6751 12.4427 18.8313 12.3683C18.9875 12.294 19.1647 12.2416 19.3519 12.2143Z" fill="#92CCBF" fill-opacity="0.6"/>
<path d="M24.063 14.5217C24.1899 14.5639 24.3215 14.5684 24.4497 14.5353C24.5779 14.5022 24.7001 14.4322 24.809 14.3293C24.9179 14.2263 25.0113 14.0927 25.0834 13.9365C25.1555 13.7803 25.2049 13.6046 25.2286 13.4202C25.1019 13.3788 24.9706 13.3746 24.8428 13.408C24.7149 13.4414 24.593 13.5116 24.4845 13.6145C24.3759 13.7174 24.2829 13.8507 24.211 14.0067C24.1391 14.1626 24.0898 14.3377 24.0661 14.5217H24.063Z" fill="#92CCBF" fill-opacity="0.6"/>
<path d="M25.2285 14.5648C25.3268 15.8373 26.386 15.7261 26.3942 15.7261C26.3942 15.7261 26.2905 14.447 25.2285 14.5648Z" fill="#92CCBF" fill-opacity="0.6"/>
<path d="M15.1554 16.9C16.6037 17.406 15.5046 18.0651 15.4954 18.0714C15.4954 18.0714 14.0471 17.5612 15.1554 16.9Z" fill="#92CCBF" fill-opacity="0.6"/>
<path d="M18.653 8.70001C20.0991 9.20479 19.0028 9.86506 18.9935 9.87144C18.9935 9.87144 17.5427 9.36028 18.653 8.70001Z" fill="#92CCBF" fill-opacity="0.6"/>
<path d="M21.7317 14.4923C22.6459 14.8739 22.8949 13.4467 22.8973 13.4314C22.8973 13.4314 21.9784 13.0498 21.7317 14.4923Z" fill="#92CCBF" fill-opacity="0.6"/>
<path d="M19.4003 13.3216C18.4823 13.7009 18.237 12.2745 18.2346 12.2594C18.2346 12.2594 19.1574 11.88 19.4003 13.3216Z" fill="#92CCBF" fill-opacity="0.6"/>
<path d="M19.4003 15.8066C19.132 17.278 18.2434 16.8386 18.2346 16.8386C18.2346 16.8386 18.5134 15.3613 19.4003 15.8152V15.8066Z" fill="#92CCBF" fill-opacity="0.6"/>
<path d="M34.5562 14.5571C34.4919 15.6641 35.7029 15.7286 35.7189 15.7286C35.7189 15.7286 35.7762 14.6154 34.5562 14.5571Z" fill="#92CCBF" fill-opacity="0.6"/>
<path d="M24.5674 12.2143C24.4654 12.1696 24.3729 12.1033 24.2957 12.0193C24.2184 11.9354 24.158 11.8356 24.1181 11.7261C24.0781 11.6165 24.0596 11.4994 24.0635 11.382C24.0674 11.2645 24.0936 11.1492 24.1408 11.0428C24.2426 11.0879 24.3348 11.1544 24.4119 11.2383C24.4889 11.3223 24.5492 11.422 24.5891 11.5315C24.629 11.641 24.6475 11.7579 24.6439 11.8752C24.6402 11.9926 24.6141 12.108 24.5674 12.2143Z" fill="#92CCBF" fill-opacity="0.6"/>
<path d="M22.8973 17.0961C22.8209 17.1549 22.7294 17.2012 22.6284 17.2324C22.5276 17.2636 22.4194 17.279 22.3104 17.2777C22.2015 17.2764 22.094 17.2583 21.9945 17.2246C21.895 17.1909 21.8057 17.1422 21.7317 17.0816C21.8082 17.0229 21.8997 16.9765 22.0006 16.9453C22.1014 16.9141 22.2096 16.8987 22.3186 16.9001C22.4276 16.9014 22.5351 16.9195 22.6345 16.9532C22.734 16.9869 22.8234 17.0355 22.8973 17.0961Z" fill="#92CCBF" fill-opacity="0.6"/>
<path d="M29.8459 11.0429C30.1573 10.0876 28.7537 9.87324 28.7537 9.87143C28.7537 9.87143 28.4478 10.8322 29.8459 11.0429Z" fill="#92CCBF" fill-opacity="0.6"/>
<path d="M22.9016 22.7572C24.1416 22.6788 24.0618 21.596 24.0618 21.5857C24.0618 21.5857 22.8147 21.6682 22.9016 22.7572Z" fill="#92CCBF" fill-opacity="0.6"/>
<path d="M31.7782 13.3857C32.9213 12.7356 31.4983 12.2185 31.4846 12.2143C31.4846 12.2143 30.3462 12.8686 31.7829 13.3857H31.7782Z" fill="#92CCBF" fill-opacity="0.6"/>
<path d="M17.0641 21.5857C15.8173 21.5056 15.9046 20.4246 15.9046 20.4143C15.9046 20.4143 17.1562 20.5006 17.0641 21.5857Z" fill="#92CCBF" fill-opacity="0.6"/>
<path d="M22.8973 19.1006C22.0692 19.7023 21.7359 18.2019 21.7317 18.1868C21.7317 18.1868 22.5599 17.5927 22.8973 19.1006Z" fill="#92CCBF" fill-opacity="0.6"/>
<path d="M30.7699 22.7572C31.6687 22.0272 30.1696 21.5892 30.1552 21.5857C30.1552 21.5857 29.2599 22.3209 30.7663 22.7572H30.7699Z" fill="#92CCBF" fill-opacity="0.6"/>
<path d="M14.7328 15.7286C13.4871 15.6479 13.5733 14.5683 13.5733 14.5571C13.5733 14.5571 14.8255 14.6433 14.7328 15.7286Z" fill="#92CCBF" fill-opacity="0.6"/>
<path d="M21.736 21.5857C22.979 21.5076 22.8962 20.4254 22.8962 20.4143C22.8962 20.4143 21.6499 20.498 21.736 21.5857Z" fill="#92CCBF" fill-opacity="0.6"/>
<path d="M18.8043 19.265C18.7472 19.2465 18.6868 19.2395 18.6268 19.2444C18.5668 19.2492 18.5085 19.2659 18.4553 19.2934C18.4021 19.3208 18.3551 19.3586 18.3172 19.4043C18.2793 19.4499 18.2512 19.5027 18.2346 19.5592C18.2917 19.5781 18.3522 19.5854 18.4123 19.5807C18.4723 19.576 18.5308 19.5594 18.5841 19.5319C18.6375 19.5043 18.6844 19.4665 18.7223 19.4206C18.7601 19.3747 18.7881 19.3218 18.8043 19.265Z" fill="#92CCBF" fill-opacity="0.6"/>
<path d="M32.2223 9.91986C32.0025 11.3218 31.0665 11.0237 31.0566 11.0016C31.0566 11.0016 31.2814 9.59611 32.2223 9.91986Z" fill="#92CCBF" fill-opacity="0.6"/>
<path d="M24.063 18.0066C24.9766 18.3882 25.2262 16.961 25.2286 16.9458C25.2286 16.9458 24.3077 16.5642 24.063 18.0029V18.0066Z" fill="#92CCBF" fill-opacity="0.6"/>
<path d="M32.2223 16.9034C32.2183 17.0672 32.1844 17.2282 32.1227 17.3768C32.061 17.5253 31.9728 17.6581 31.8636 17.7671C31.7546 17.8761 31.6266 17.9588 31.4879 18.0104C31.349 18.0619 31.2023 18.0811 31.0566 18.0669C31.0603 17.9047 31.0932 17.7449 31.1536 17.5975C31.2141 17.4499 31.3007 17.3179 31.4081 17.2089C31.5156 17.1001 31.6417 17.017 31.7787 16.9644C31.9158 16.9119 32.0609 16.8912 32.2054 16.9034H32.2223Z" fill="#92CCBF" fill-opacity="0.6"/>
<path d="M31.2121 15.7286C31.2994 15.7909 31.374 15.8712 31.431 15.9646C31.4881 16.0581 31.5266 16.1627 31.544 16.2722C31.5616 16.3817 31.5578 16.4937 31.5329 16.6016C31.5081 16.7096 31.4627 16.8111 31.3995 16.9C31.312 16.8377 31.2376 16.7574 31.1805 16.6639C31.1234 16.5705 31.085 16.4659 31.0674 16.3564C31.0499 16.2469 31.0537 16.1348 31.0786 16.0269C31.1034 15.919 31.1488 15.8175 31.2121 15.7286Z" fill="#92CCBF" fill-opacity="0.6"/>
<path d="M12.4064 21.6711C12.1328 23.1389 11.2495 22.6957 11.2407 22.69C11.2407 22.69 11.5195 21.2221 12.4064 21.6711Z" fill="#92CCBF" fill-opacity="0.6"/>
<path d="M34.6968 20.4143C34.0908 21.257 35.6056 21.5824 35.6056 21.5857C35.6056 21.5857 36.1933 20.743 34.6968 20.4143Z" fill="#92CCBF" fill-opacity="0.6"/>
<path d="M15.7333 22.7572C14.2211 22.4022 14.8799 21.5958 14.8847 21.5857C14.8847 21.5857 16.4017 21.9483 15.7333 22.7572Z" fill="#92CCBF" fill-opacity="0.6"/>
<path d="M25.2285 19.776C24.0195 18.5206 22.9095 19.8741 22.8972 19.8882C22.8972 19.8882 24.1187 21.1435 25.2285 19.776Z" fill="#92CCBF" fill-opacity="0.6"/>
<path d="M31.0569 22.7571C31.1395 22.7641 31.2204 22.8004 31.2948 22.8637C31.3692 22.927 31.4354 23.0161 31.4896 23.1256C31.5438 23.2351 31.5847 23.3627 31.6099 23.5008C31.6352 23.6388 31.6442 23.7843 31.6364 23.9286C31.554 23.921 31.4734 23.8844 31.3993 23.8208C31.3252 23.7572 31.2592 23.668 31.2053 23.5586C31.1514 23.4492 31.1107 23.3218 31.0856 23.184C31.0605 23.0463 31.0516 22.9011 31.0594 22.7571H31.0569Z" fill="#92CCBF" fill-opacity="0.6"/>
<path d="M36.0378 14.5571C36.1062 14.6423 36.157 14.7407 36.1873 14.8464C36.2176 14.9521 36.2267 15.0629 36.214 15.1722C36.2014 15.2815 36.1672 15.3872 36.1136 15.4827C36.06 15.5784 35.9881 15.6619 35.9021 15.7286C35.8334 15.6435 35.7822 15.5452 35.7518 15.4395C35.7212 15.3337 35.7121 15.2228 35.7248 15.1134C35.7374 15.0039 35.7717 14.8982 35.8255 14.8027C35.8793 14.707 35.9515 14.6235 36.0378 14.5571Z" fill="#92CCBF" fill-opacity="0.6"/>
<path d="M29.8911 21.7586C30.3587 22.4988 31.05 21.9997 31.0568 21.9997C31.0568 21.9997 30.5847 21.2595 29.8911 21.7586Z" fill="#92CCBF" fill-opacity="0.6"/>
<path d="M26.3919 11.0447C25.1507 11.1229 25.2295 12.2143 25.2295 12.2143C25.2401 12.2143 26.4771 12.1305 26.3897 11.0428L26.3919 11.0447Z" fill="#92CCBF" fill-opacity="0.6"/>
<path d="M31.2219 22.7571C31.2999 22.8232 31.3653 22.9065 31.414 23.002C31.4628 23.0975 31.4938 23.2033 31.5054 23.3129C31.5169 23.4225 31.5087 23.5336 31.4812 23.6394C31.4536 23.7452 31.4073 23.8436 31.3452 23.9286C31.2672 23.8626 31.2018 23.7793 31.1531 23.6838C31.1043 23.5882 31.0733 23.4824 31.0617 23.3728C31.0501 23.2633 31.0584 23.1522 31.0859 23.0464C31.1135 22.9405 31.1598 22.8421 31.2219 22.7571Z" fill="#92CCBF" fill-opacity="0.6"/>
<path d="M32.2224 21.6262C33.1795 21.3341 33.3854 22.717 33.3881 22.7325C33.3881 22.7325 32.4256 23.0208 32.2224 21.6262Z" fill="#92CCBF" fill-opacity="0.6"/>
<path d="M35.7194 17.6275C35.2041 16.1887 34.56 17.3265 34.5537 17.336C34.5537 17.336 35.0732 18.7748 35.7194 17.6275Z" fill="#92CCBF" fill-opacity="0.6"/>
<path d="M36.8899 14.5571C38.1356 14.6378 38.0494 15.7174 38.0494 15.7286C38.0494 15.7286 36.7973 15.6423 36.8899 14.5571Z" fill="#92CCBF" fill-opacity="0.6"/>
<path d="M28.7253 21.5772C28.8286 20.2989 29.8801 20.4172 29.891 20.4172C29.891 20.4172 29.7823 21.702 28.7253 21.5772Z" fill="#92CCBF" fill-opacity="0.6"/>
<path d="M31.0568 20.4062C30.9585 19.132 29.8993 19.2433 29.8911 19.2466C29.8911 19.2466 29.9948 20.5273 31.0568 20.4062Z" fill="#92CCBF" fill-opacity="0.6"/>
<path d="M33.3879 16.9219C33.5091 16.901 33.6362 16.8949 33.7613 16.9042C33.8864 16.9135 34.0071 16.938 34.1162 16.9761C34.2251 17.0141 34.32 17.0651 34.3952 17.1258C34.4704 17.1866 34.5242 17.2559 34.5536 17.3294C34.4324 17.3507 34.3052 17.357 34.1799 17.3479C34.0545 17.3388 33.9337 17.3144 33.8245 17.2762C33.7154 17.2381 33.6204 17.187 33.5454 17.1261C33.4702 17.0652 33.4167 16.9957 33.3879 16.9219Z" fill="#92CCBF" fill-opacity="0.6"/>
<path d="M32.2224 20.4363C32.3434 20.4153 32.4703 20.4092 32.5953 20.4185C32.7202 20.4278 32.8408 20.4522 32.9498 20.4902C33.0587 20.5283 33.1536 20.5793 33.2289 20.64C33.3043 20.7008 33.3583 20.7701 33.3881 20.8437C33.267 20.8648 33.1402 20.8708 33.0153 20.8615C32.8902 20.8522 32.7697 20.8278 32.6608 20.7898C32.5519 20.7517 32.4569 20.7008 32.3816 20.64C32.3062 20.5793 32.2521 20.5099 32.2224 20.4363Z" fill="#92CCBF" fill-opacity="0.6"/>
<path d="M35.7192 19.7333C35.736 19.6581 35.7798 19.5857 35.8483 19.5203C35.9165 19.4548 36.008 19.3978 36.1171 19.3528C36.2261 19.3077 36.3504 19.2754 36.4823 19.2579C36.6143 19.2405 36.7513 19.2381 36.8849 19.2511C36.8682 19.3263 36.8244 19.3988 36.756 19.4642C36.6876 19.5296 36.5961 19.5867 36.4871 19.6317C36.3782 19.6768 36.2539 19.7091 36.1219 19.7265C35.9898 19.744 35.8529 19.7464 35.7192 19.7333Z" fill="#92CCBF" fill-opacity="0.6"/>
<path d="M31.5567 20.4143C30.3436 21.0348 31.7172 21.5794 31.7314 21.5857C31.7314 21.5857 32.9445 20.9525 31.5567 20.4143Z" fill="#92CCBF" fill-opacity="0.6"/>
<path d="M36.8849 21.5062C36.6155 20.0381 35.729 20.4737 35.7192 20.4777C35.7192 20.4777 35.996 21.9458 36.8849 21.5022V21.5062Z" fill="#92CCBF" fill-opacity="0.6"/>
<path d="M34.5537 14.4709C34.8273 13.0061 35.7124 13.4464 35.7194 13.4522C35.7194 13.4522 35.4406 14.9228 34.5537 14.4709Z" fill="#92CCBF" fill-opacity="0.6"/>
<path d="M19.2491 16.9C19.0445 16.9445 18.8592 17.0107 18.7041 17.0944C18.5491 17.1782 18.4275 17.2779 18.3469 17.3874C18.2664 17.4969 18.2285 17.614 18.2354 17.7317C18.2424 17.8492 18.294 17.9648 18.3875 18.0714C18.5915 18.0267 18.7765 17.9604 18.9311 17.8765C19.0859 17.7927 19.2071 17.6931 19.2876 17.5836C19.3681 17.4742 19.4062 17.3572 19.3995 17.2397C19.3929 17.1222 19.3417 17.0067 19.2491 16.9Z" fill="#92CCBF" fill-opacity="0.6"/>
<path d="M11.4061 19.2429C12.9196 19.5989 12.266 20.4051 12.266 20.4143C12.266 20.4143 10.7481 20.0514 11.4061 19.2429Z" fill="#92CCBF" fill-opacity="0.6"/>
<path d="M15.9058 12.2143C17.1528 12.2944 17.0677 13.3754 17.0677 13.3857C17.0677 13.3857 15.816 13.2994 15.9082 12.2143H15.9058Z" fill="#92CCBF" fill-opacity="0.6"/>
<path d="M35.6109 12.2143C36.124 13.0795 34.6503 13.384 34.6384 13.3857C34.6384 13.3857 34.1284 12.5206 35.6109 12.2143Z" fill="#92CCBF" fill-opacity="0.6"/>
<path d="M32.9505 12.2143C34.0833 13.5158 32.6605 14.5478 32.6466 14.5572C32.6466 14.5572 31.5138 13.243 32.9505 12.2143Z" fill="#92CCBF" fill-opacity="0.6"/>
<path d="M27.5599 14.7226C26.7513 14.0663 26.3987 15.5728 26.3943 15.5894C26.3943 15.5894 27.2096 16.2415 27.5599 14.7226Z" fill="#92CCBF" fill-opacity="0.6"/>
<path d="M34.1262 14.5571C32.6855 15.0667 33.7959 15.7229 33.8043 15.7286C33.8043 15.7286 35.2491 15.2134 34.1262 14.5571Z" fill="#92CCBF" fill-opacity="0.6"/>
<path d="M34.7661 15.7286C35.4739 16.2424 34.924 16.8932 34.919 16.9C34.919 16.9 34.2112 16.3817 34.7661 15.7286Z" fill="#92CCBF" fill-opacity="0.6"/>
<path d="M21.7273 13.3857C20.4842 13.4638 20.5671 14.546 20.5671 14.5571C20.5671 14.5571 21.8133 14.4735 21.7273 13.3857Z" fill="#92CCBF" fill-opacity="0.6"/>
<path d="M26.404 14.5571C26.5737 14.5686 26.7388 14.6084 26.8893 14.6742C27.0396 14.74 27.1724 14.8303 27.2797 14.9398C27.3867 15.0494 27.4658 15.1757 27.5123 15.3113C27.5586 15.4468 27.5714 15.5888 27.5496 15.7286C27.3802 15.7165 27.2156 15.6764 27.0654 15.6104C26.9153 15.5444 26.7828 15.454 26.6757 15.3447C26.5688 15.2352 26.4896 15.1092 26.443 14.9738C26.3962 14.8385 26.3829 14.6968 26.404 14.5571Z" fill="#92CCBF" fill-opacity="0.6"/>
<path d="M19.4004 12.2848C19.5036 12.2446 19.6162 12.2211 19.7314 12.2156C19.8466 12.21 19.9621 12.2226 20.0708 12.2525C20.1796 12.2824 20.2795 12.3291 20.3646 12.3897C20.4497 12.4504 20.5182 12.5238 20.566 12.6055C20.463 12.6457 20.3506 12.6694 20.2356 12.6751C20.1205 12.6808 20.0051 12.6684 19.8964 12.6387C19.7876 12.6091 19.6876 12.5626 19.6024 12.5022C19.5172 12.4418 19.4485 12.3687 19.4004 12.2872V12.2848Z" fill="#92CCBF" fill-opacity="0.6"/>
<path d="M29.9446 12.2143C31.3683 11.9687 31.0189 11.0527 31.0189 11.0428C31.0189 11.0428 29.5915 11.2884 29.9484 12.2143H29.9446Z" fill="#92CCBF" fill-opacity="0.6"/>
<path d="M10.0752 18.241C10.8823 17.5721 11.2386 19.0984 11.2408 19.0984C11.2408 19.0984 10.4292 19.763 10.0752 18.241Z" fill="#92CCBF" fill-opacity="0.6"/>
<path d="M28.7255 11.1079C27.8118 10.725 27.5622 12.1568 27.5598 12.1683C27.5598 12.1683 28.4807 12.5511 28.7255 11.1079Z" fill="#92CCBF" fill-opacity="0.6"/>
<path d="M32.2497 11.0429C32.3199 11.0092 32.3853 10.9516 32.442 10.8736C32.4987 10.7957 32.5454 10.6989 32.5793 10.5893C32.6132 10.4797 32.6337 10.3595 32.6393 10.2361C32.6449 10.1128 32.6358 9.98863 32.6123 9.87143C32.5425 9.90619 32.4775 9.96442 32.4211 10.0426C32.3648 10.1209 32.3184 10.2176 32.2846 10.3268C32.2508 10.4361 32.2302 10.5558 32.2242 10.6788C32.2183 10.8019 32.2269 10.9257 32.2497 11.0429Z" fill="#92CCBF" fill-opacity="0.6"/>
<path d="M19.48 12.2143C19.0513 11.3132 20.4936 11.0451 20.5081 11.0428C20.5081 11.0428 20.9332 11.944 19.48 12.2143Z" fill="#92CCBF" fill-opacity="0.6"/>
<path d="M35.5519 18.0714C34.0439 18.4262 34.6906 19.2429 34.6968 19.2429C34.7124 19.2429 36.2111 18.8814 35.5519 18.0714Z" fill="#92CCBF" fill-opacity="0.6"/>
<path d="M30.5375 9.87143C31.7741 10.4844 30.4155 11.0372 30.4028 11.0429C30.4028 11.0429 29.1664 10.4242 30.5375 9.87143Z" fill="#92CCBF" fill-opacity="0.6"/>
<path d="M34.9652 13.3857C34.8723 13.3323 34.7904 13.259 34.7245 13.1703C34.6586 13.0815 34.6101 12.9793 34.5819 12.8697C34.5538 12.7601 34.5466 12.6455 34.5608 12.5329C34.5749 12.4202 34.6102 12.3118 34.6643 12.2143C34.757 12.268 34.8387 12.3415 34.9044 12.4302C34.9701 12.519 35.0184 12.6212 35.0465 12.7306C35.0746 12.8401 35.082 12.9546 35.068 13.0671C35.054 13.1797 35.019 13.2881 34.9652 13.3857Z" fill="#92CCBF" fill-opacity="0.6"/>
<path d="M28.3888 21.5857C26.8967 20.6575 27.8722 19.2556 27.8824 19.2429C27.8824 19.2429 29.3744 20.1965 28.3888 21.5857Z" fill="#92CCBF" fill-opacity="0.6"/>
<path d="M19.4047 19.2429C20.648 19.1664 20.5669 18.082 20.564 18.0714C20.564 18.0714 19.3177 18.1533 19.4047 19.2429Z" fill="#92CCBF" fill-opacity="0.6"/>
<path d="M15.9082 18.0714C17.1518 17.993 17.0678 16.9101 17.0678 16.9C17.0678 16.9 15.8155 16.9835 15.9082 18.0714Z" fill="#92CCBF" fill-opacity="0.6"/>
<path d="M14.8009 15.7286C14.4258 14.8051 15.8447 14.5571 15.8599 14.5571C15.8599 14.5571 16.232 15.4845 14.8009 15.7286Z" fill="#92CCBF" fill-opacity="0.6"/>
<path d="M12.4108 19.2429C13.6539 19.1675 13.571 18.0826 13.571 18.0714C13.571 18.0714 12.3247 18.1526 12.4108 19.2429Z" fill="#92CCBF" fill-opacity="0.6"/>
<path d="M15.8989 20.4143C14.6561 20.3362 14.7389 19.254 14.7389 19.2429C14.7389 19.2429 15.9881 19.3265 15.8989 20.4143Z" fill="#92CCBF" fill-opacity="0.6"/>
<path d="M19.4003 18.5032C19.2882 18.5344 19.1685 18.5491 19.0483 18.5463C18.9281 18.5436 18.8099 18.5235 18.7009 18.4871C18.592 18.4509 18.4945 18.3992 18.4143 18.3352C18.3342 18.2712 18.273 18.1963 18.2346 18.1149C18.3466 18.0837 18.4664 18.069 18.5865 18.0718C18.7068 18.0745 18.825 18.0946 18.9339 18.1309C19.0429 18.1672 19.1404 18.2189 19.2206 18.2829C19.3007 18.3469 19.3619 18.4218 19.4003 18.5032Z" fill="#92CCBF" fill-opacity="0.6"/>
<path d="M19.4003 14.5648C19.2995 15.8406 18.2428 15.7259 18.2346 15.7259C18.2346 15.7259 18.3327 14.4468 19.4003 14.5648Z" fill="#92CCBF" fill-opacity="0.6"/>
<path d="M13.572 22.7648C13.6727 24.0374 14.7268 23.9261 14.7377 23.9261C14.7377 23.9261 14.6315 22.647 13.572 22.7648Z" fill="#92CCBF" fill-opacity="0.6"/>
<path d="M12.4015 18.0714C11.1558 17.9907 11.242 16.9111 11.242 16.9C11.242 16.9 12.4941 16.9862 12.4015 18.0714Z" fill="#92CCBF" fill-opacity="0.6"/>
<path d="M11.2734 19.2429C12.6389 19.0566 12.39 18.0817 12.3864 18.0714C12.3864 18.0714 11.0138 18.2628 11.2734 19.2429Z" fill="#92CCBF" fill-opacity="0.6"/>
<path d="M12.4093 20.4899C12.4426 20.685 12.4996 20.8669 12.5767 21.0247C12.6539 21.1826 12.7496 21.3132 12.8582 21.4086C12.9669 21.5041 13.0862 21.5624 13.2088 21.5799C13.3315 21.5977 13.4551 21.5744 13.5721 21.5114C13.5389 21.316 13.4818 21.1335 13.4045 20.9753C13.3271 20.817 13.2311 20.6862 13.1221 20.5907C13.0132 20.4952 12.8936 20.4371 12.7706 20.4197C12.6476 20.4024 12.5237 20.4263 12.4065 20.4899H12.4093Z" fill="#92CCBF" fill-opacity="0.6"/>
<path d="M12.8363 21.5857C13.2901 22.3059 12.5502 22.7523 12.5428 22.7572C12.48 22.6623 12.4376 22.5561 12.4184 22.4448C12.3991 22.3335 12.4033 22.2196 12.4308 22.11C12.4583 22.0004 12.5084 21.8973 12.5781 21.8072C12.6478 21.7171 12.7357 21.6417 12.8363 21.5857Z" fill="#92CCBF" fill-opacity="0.6"/>
<path d="M12.5766 16.9C14.0896 16.5452 13.4282 15.7286 13.4282 15.7286C13.4282 15.7286 11.9122 16.0884 12.5735 16.9H12.5766Z" fill="#92CCBF" fill-opacity="0.6"/>
<path d="M19.8351 14.5571C19.7476 14.5123 19.6682 14.446 19.6018 14.3622C19.5354 14.2783 19.4834 14.1786 19.4489 14.0693C19.4142 13.9598 19.3979 13.8429 19.4007 13.7254C19.4035 13.6079 19.4255 13.4925 19.4652 13.3857C19.5531 13.4302 19.6327 13.4964 19.6993 13.5801C19.7658 13.6639 19.818 13.7636 19.8526 13.8731C19.8873 13.9827 19.9035 14.0998 19.9005 14.2173C19.8975 14.3349 19.8753 14.4505 19.8351 14.5571Z" fill="#92CCBF" fill-opacity="0.6"/>
<path d="M16.0678 16.9C16.0029 16.8126 15.9556 16.7123 15.9288 16.6051C15.902 16.4979 15.8963 16.3861 15.9119 16.2766C15.9277 16.167 15.9644 16.0619 16.02 15.9677C16.0757 15.8735 16.149 15.7921 16.2355 15.7286C16.3001 15.8161 16.3471 15.9165 16.3738 16.0236C16.4003 16.1307 16.406 16.2424 16.3903 16.3519C16.3746 16.4613 16.338 16.5663 16.2826 16.6606C16.2271 16.7548 16.1541 16.8362 16.0678 16.9Z" fill="#102E34"/>
<path d="M20.5659 13.2736C21.1704 11.786 22.8812 12.2984 22.8972 12.304C22.8972 12.3178 22.2832 13.7972 20.5659 13.2736Z" fill="#102E34"/>
<path d="M17.0745 13.3824C17.2393 13.3746 17.4008 13.3379 17.5489 13.2744C17.6972 13.2109 17.8293 13.1219 17.9371 13.0129C18.045 12.9038 18.1265 12.7768 18.1766 12.6396C18.2268 12.5023 18.2448 12.3577 18.2294 12.2143C18.0643 12.2225 17.9028 12.2597 17.7546 12.3235C17.6063 12.3873 17.4744 12.4766 17.3665 12.586C17.2587 12.6953 17.1773 12.8225 17.127 12.9599C17.0769 13.0973 17.059 13.2421 17.0745 13.3857V13.3824Z" fill="#102E34"/>
<path d="M15.9033 13.388C15.9058 13.5483 15.9383 13.7063 15.9988 13.8528C16.0593 13.9991 16.1467 14.1309 16.2556 14.2399C16.3645 14.3489 16.4927 14.4331 16.6325 14.4872C16.7723 14.5414 16.9208 14.5645 17.069 14.5551C17.067 14.3947 17.0349 14.2363 16.9744 14.0896C16.914 13.9431 16.8267 13.8111 16.7177 13.702C16.6087 13.5929 16.4804 13.5088 16.3404 13.4548C16.2004 13.4008 16.0517 13.378 15.9033 13.388Z" fill="#102E34"/>
<path d="M18.2395 13.3857C19.4856 13.3051 19.399 12.2247 19.399 12.2143C19.399 12.2143 18.1468 12.3002 18.2395 13.3857Z" fill="#102E34"/>
<path d="M16.0781 13.3833C15.4014 12.5769 16.9069 12.2143 16.9203 12.2143C16.9203 12.2143 17.5925 13.0255 16.0781 13.3857V13.3833Z" fill="#102E34"/>
<path d="M27.6074 13.3857C27.5579 13.5096 27.5469 13.6388 27.5749 13.7656C27.6029 13.8924 27.6695 14.0142 27.7707 14.1235C27.8719 14.2329 28.0054 14.3277 28.1634 14.4022C28.3215 14.4767 28.5008 14.5294 28.6904 14.5571C28.6904 14.5571 29.0282 13.6114 27.6074 13.3857Z" fill="#102E34"/>
<path d="M21.7316 15.6937C21.6043 15.7354 21.4723 15.7397 21.3438 15.7064C21.2152 15.673 21.0927 15.6027 20.9838 15.4996C20.8748 15.3966 20.7816 15.263 20.7097 15.1068C20.6379 14.9507 20.589 14.7754 20.5659 14.5915C20.6926 14.5503 20.824 14.5461 20.9518 14.5793C21.0797 14.6123 21.2016 14.6822 21.3102 14.7843C21.4188 14.8865 21.5119 15.019 21.5837 15.1738C21.6557 15.3287 21.705 15.5028 21.7287 15.6856L21.7316 15.6937Z" fill="#102E34"/>
<path d="M20.566 15.7393C20.467 17.0099 19.4105 16.8975 19.4004 16.8975C19.4004 16.8975 19.5045 15.6177 20.566 15.7363V15.7393Z" fill="#102E34"/>
<path d="M29.8911 16.9082C29.9948 18.1876 31.0467 18.0685 31.0568 18.0685C31.0568 18.0685 30.948 16.7861 29.8911 16.9082Z" fill="#102E34"/>
<path d="M24.0629 15.6625C23.1492 16.0475 22.8995 14.6241 22.8972 14.6028C22.8972 14.6028 23.8176 14.2214 24.0629 15.6625Z" fill="#102E34"/>
<path d="M27.5598 13.3213C28.477 13.7038 28.7232 12.2585 28.7255 12.2585C28.7255 12.2585 27.8038 11.883 27.5598 13.3213Z" fill="#102E34"/>
<path d="M26.3976 16.9855C26.9447 18.4518 28.7094 18.0103 28.7256 18.005C28.7256 18.005 28.1687 16.536 26.3943 16.9855H26.3976Z" fill="#102E34"/>
<path d="M10.0726 14.5571C10.1366 15.6739 8.9227 15.7286 8.90985 15.7286C8.90985 15.7286 8.8523 14.606 10.0726 14.5571Z" fill="#102E34"/>
<path d="M20.7208 13.3857C20.9253 13.3408 21.1105 13.2743 21.2652 13.1903C21.4199 13.1063 21.5409 13.0066 21.6209 12.8971C21.701 12.7876 21.7382 12.6707 21.7306 12.5533C21.7231 12.4359 21.6706 12.3206 21.5767 12.2143C21.3721 12.2593 21.187 12.3258 21.0323 12.4098C20.8776 12.4937 20.7566 12.5935 20.6765 12.703C20.5965 12.8125 20.5592 12.9294 20.5669 13.0468C20.5744 13.1641 20.6268 13.2795 20.7208 13.3857Z" fill="#102E34"/>
<path d="M22.8972 18.2824C22.9737 18.346 23.0651 18.3963 23.1661 18.4301C23.267 18.4639 23.3753 18.4805 23.4845 18.4789C23.5936 18.4773 23.7011 18.4576 23.8006 18.4209C23.9 18.3842 23.9892 18.3314 24.0629 18.2655C23.9865 18.2026 23.8954 18.153 23.795 18.1197C23.6945 18.0864 23.5869 18.07 23.4786 18.0715C23.3702 18.0731 23.2633 18.0927 23.1645 18.1289C23.0655 18.1651 22.9766 18.2173 22.9032 18.2824H22.8972Z" fill="#102E34"/>
<path d="M21.7317 16.8606C21.929 15.4721 22.8866 15.7499 22.8973 15.7537C22.8973 15.7537 22.6919 17.1498 21.7317 16.8606Z" fill="#102E34"/>
<path d="M21.7316 22.7033C20.7949 23.0466 20.5682 21.6358 20.5659 21.622C20.5659 21.622 21.507 21.2787 21.7316 22.7033Z" fill="#102E34"/>
<path d="M14.0174 14.5571C12.8724 13.9087 14.2951 13.3992 14.3079 13.3857C14.3079 13.3857 15.4486 14.0399 14.0131 14.5571H14.0174Z" fill="#102E34"/>
<path d="M29.896 22.7572C31.1411 22.675 31.0555 21.5972 31.0555 21.5857C31.0423 21.5857 29.8038 21.6717 29.896 22.7572Z" fill="#102E34"/>
<path d="M18.1927 16.9C18.2387 16.7746 18.2471 16.6441 18.2172 16.5164C18.1873 16.3888 18.1199 16.2665 18.019 16.157C17.918 16.0476 17.7856 15.9532 17.6298 15.8796C17.4739 15.806 17.2978 15.7545 17.1121 15.7286C17.0654 15.854 17.0567 15.9846 17.0862 16.1124C17.1159 16.2402 17.1832 16.3626 17.2843 16.4721C17.3854 16.5817 17.5179 16.6761 17.6741 16.7497C17.8303 16.8232 18.0067 16.8744 18.1927 16.9Z" fill="#102E34"/>
<path d="M15.0253 23.9286C14.1254 23.1989 15.6243 22.762 15.6377 22.7571C15.6377 22.7571 16.5376 23.4933 15.0253 23.9286Z" fill="#102E34"/>
<path d="M32.2273 15.7286C33.4721 15.6482 33.3889 14.5674 33.3859 14.5571C33.3859 14.5571 32.1352 14.6427 32.2273 15.7286Z" fill="#102E34"/>
<path d="M24.0583 22.7572C22.8163 22.6818 22.8962 21.5961 22.8992 21.5857C22.8992 21.5857 24.1472 21.6688 24.0583 22.7572Z" fill="#102E34"/>
<path d="M27.7975 22.7571C27.8631 22.8361 27.9143 22.9297 27.9478 23.0321C27.9813 23.1346 27.9966 23.2438 27.9927 23.3531C27.9888 23.4626 27.9657 23.57 27.925 23.6689C27.8843 23.7678 27.8266 23.8561 27.7556 23.9286C27.69 23.8496 27.6389 23.756 27.6053 23.6536C27.5718 23.5511 27.5565 23.4419 27.5604 23.3325C27.5644 23.223 27.5873 23.1157 27.6281 23.0168C27.6689 22.9179 27.7265 22.8296 27.7975 22.7571Z" fill="#102E34"/>
<path d="M14.7378 15.7777C14.9677 17.1877 15.8873 16.8706 15.9034 16.8672C15.9034 16.8672 15.6735 15.4501 14.7378 15.7777Z" fill="#102E34"/>
<path d="M20.566 19.1768C19.6642 19.5621 19.4027 18.1376 19.4004 18.1164C19.4004 18.1164 20.3203 17.7381 20.566 19.1768Z" fill="#102E34"/>
<path d="M12.4065 16.903C12.4104 17.0658 12.4441 17.226 12.5055 17.3739C12.567 17.5217 12.6549 17.6542 12.7639 17.7632C12.8731 17.8721 13.001 17.9552 13.1398 18.0076C13.2788 18.06 13.4258 18.0804 13.5721 18.0678C13.5671 17.9054 13.5327 17.7457 13.4709 17.5985C13.4089 17.4512 13.3211 17.3192 13.2122 17.2105C13.1034 17.1018 12.976 17.0186 12.8376 16.9658C12.6992 16.9129 12.5526 16.8915 12.4065 16.903Z" fill="#102E34"/>
<path d="M13.9399 16.9C13.8462 16.9625 13.7663 17.043 13.7051 17.1364C13.6439 17.2299 13.6027 17.3344 13.5838 17.4438C13.5649 17.5532 13.5688 17.6652 13.5952 17.7731C13.6217 17.881 13.6701 17.9826 13.7376 18.0718C13.8317 18.0094 13.9117 17.9291 13.9732 17.8357C14.0346 17.7422 14.076 17.6376 14.0949 17.5281C14.1138 17.4186 14.1098 17.3065 14.0832 17.1985C14.0565 17.0905 14.0078 16.989 13.9399 16.9Z" fill="#102E34"/>
<path d="M33.3879 22.8437C33.9351 24.3094 35.6998 23.8673 35.7192 23.8619C35.7192 23.8619 35.1623 22.3909 33.3879 22.8437Z" fill="#102E34"/>
<path d="M11.1007 21.5857C11.696 23.2574 10.2035 23.9223 10.1893 23.9286C10.1893 23.9286 9.59972 22.2475 11.1007 21.5857Z" fill="#102E34"/>
<path d="M31.2256 23.9286C32.7379 23.5748 32.0809 22.7735 32.0766 22.7571C32.0766 22.7571 30.5598 23.1156 31.2256 23.9286Z" fill="#102E34"/>
<path d="M20.5659 20.9479C21.7748 19.6917 22.8741 21.0458 22.8972 21.0589C22.8972 21.0589 21.6767 22.3151 20.5659 20.9479Z" fill="#102E34"/>
<path d="M14.7325 23.9286C14.5675 23.9361 14.4061 23.9727 14.2577 24.0363C14.1093 24.0997 13.9772 24.189 13.8694 24.2984C13.7614 24.4078 13.6799 24.5353 13.6297 24.6731C13.5796 24.8108 13.5618 24.9561 13.5776 25.1C13.7423 25.0919 13.9035 25.055 14.0515 24.9912C14.1996 24.9275 14.3314 24.8382 14.4393 24.7289C14.547 24.6196 14.6286 24.4924 14.6789 24.3549C14.7294 24.2174 14.7476 24.0724 14.7325 23.9286Z" fill="#102E34"/>
<path d="M7.95211 14.5571C7.41201 15.2108 8.09271 15.7286 8.09761 15.7286C8.09761 15.7286 8.64017 15.0702 7.9546 14.5571H7.95211Z" fill="#102E34"/>
<path d="M14.7377 23.1028C14.2714 24.5995 13.5804 23.6062 13.572 23.5972C13.572 23.5972 14.0445 22.1004 14.7377 23.1028Z" fill="#102E34"/>
<path d="M17.0736 8.70001C18.316 8.77615 18.2336 9.87144 18.2336 9.87144C18.2336 9.87144 16.9846 9.78948 17.0736 8.70001Z" fill="#102E34"/>
<path d="M13.8809 23.9286C13.7974 23.9949 13.7275 24.0784 13.6754 24.1739C13.6232 24.2694 13.5899 24.375 13.5775 24.4844C13.5651 24.5938 13.5738 24.7047 13.603 24.8105C13.6322 24.9163 13.6815 25.0147 13.7478 25.1C13.8316 25.0338 13.9018 24.9505 13.9541 24.855C14.0065 24.7595 14.0398 24.6538 14.0523 24.5443C14.0648 24.4348 14.056 24.3238 14.0265 24.2179C13.9971 24.1121 13.9475 24.0137 13.8809 23.9286Z" fill="#102E34"/>
<path d="M12.4064 22.7988C11.4474 22.5005 11.2432 23.9034 11.2407 23.9034C11.2407 23.9034 12.2021 24.1943 12.4064 22.7988Z" fill="#102E34"/>
<path d="M8.90942 18.7989C9.4244 17.3613 10.0692 18.4965 10.0751 18.5053C10.0751 18.5053 9.55414 19.9472 8.90942 18.7989Z" fill="#102E34"/>
<path d="M7.73891 14.5571C6.49319 14.6375 6.5794 15.7182 6.5794 15.7286C6.5794 15.7286 7.83112 15.643 7.73891 14.5571Z" fill="#102E34"/>
<path d="M27.5599 22.7521C27.5487 22.5854 27.5095 22.4232 27.4447 22.2745C27.3799 22.1259 27.2909 21.9937 27.1825 21.8856C27.0741 21.7777 26.9488 21.696 26.8134 21.6454C26.6782 21.5946 26.5358 21.5761 26.3943 21.5904C26.405 21.7572 26.4439 21.9198 26.5084 22.0689C26.5731 22.2178 26.6623 22.3502 26.7707 22.4583C26.8792 22.5663 27.0047 22.648 27.1402 22.6984C27.2757 22.7488 27.4185 22.767 27.5599 22.7521Z" fill="#102E34"/>
<path d="M13.572 20.4065C13.6711 19.1326 14.7275 19.2454 14.7377 19.2454C14.7377 19.2454 14.6336 20.5253 13.572 20.4065Z" fill="#102E34"/>
<path d="M11.2408 16.9234C11.1198 16.9009 10.9929 16.8946 10.8681 16.9046C10.7431 16.9147 10.6225 16.941 10.5136 16.982C10.4048 17.023 10.3098 17.0778 10.2345 17.1431C10.1592 17.2085 10.1049 17.283 10.0752 17.3622C10.1963 17.385 10.3232 17.3916 10.4484 17.3818C10.5735 17.3718 10.6943 17.3456 10.8033 17.3045C10.9123 17.2635 11.0073 17.2085 11.0825 17.143C11.1577 17.0775 11.2116 17.0028 11.2408 16.9234Z" fill="#102E34"/>
<path d="M13.5721 21.6093C13.4513 21.5868 13.3248 21.5803 13.2 21.5902C13.0752 21.6002 12.9549 21.6263 12.846 21.667C12.7372 21.7077 12.6422 21.7623 12.5666 21.8274C12.4912 21.8924 12.4367 21.9667 12.4065 22.0457C12.5276 22.0682 12.6544 22.0745 12.7794 22.0644C12.9044 22.0543 13.0248 22.028 13.1337 21.9871C13.2426 21.9461 13.3376 21.8913 13.4129 21.8259C13.4883 21.7606 13.5424 21.6861 13.5721 21.6068V21.6093Z" fill="#102E34"/>
<path d="M10.0751 20.9432C10.0579 20.8624 10.0139 20.7846 9.94541 20.7143C9.87706 20.644 9.78568 20.5827 9.67678 20.5341C9.56799 20.4855 9.44394 20.4506 9.31213 20.4313C9.1802 20.4121 9.04326 20.4091 8.90942 20.4224C8.92589 20.5033 8.96966 20.5813 9.03789 20.6518C9.10612 20.7223 9.19749 20.7836 9.30652 20.8324C9.41543 20.881 9.53972 20.9159 9.67189 20.935C9.80393 20.9541 9.94111 20.9569 10.0751 20.9432Z" fill="#102E34"/>
<path d="M13.0704 21.5857C14.2859 22.2027 12.9125 22.7435 12.8993 22.7572C12.8993 22.7572 11.6839 22.1344 13.0704 21.5857Z" fill="#102E34"/>
<path d="M7.7439 22.6739C8.01307 21.2099 8.90264 21.6454 8.90954 21.6492C8.90954 21.6492 8.62435 23.1168 7.7439 22.6739Z" fill="#102E34"/>
<path d="M14.6962 16.9C14.9909 15.938 13.6182 15.7311 13.5967 15.7286C13.5967 15.7286 13.3093 16.6956 14.6962 16.9Z" fill="#102E34"/>
<path d="M27.7305 18.0714C29.248 18.4256 28.5782 19.2361 28.5782 19.2429C28.5782 19.2429 27.0607 18.8819 27.7305 18.0714Z" fill="#102E34"/>
<path d="M35.5503 20.4143C34.0394 20.7713 34.6932 21.5771 34.7012 21.5857C34.7012 21.5857 36.216 21.2223 35.5503 20.4143Z" fill="#102E34"/>
<path d="M29.8883 12.2143C28.641 12.2965 28.7266 13.3762 28.7266 13.3857C28.7376 13.3857 29.9783 13.2997 29.8861 12.2143H29.8883Z" fill="#102E34"/>
<path d="M10.186 13.3857C9.66608 14.2578 11.1434 14.5539 11.1571 14.5571C11.1571 14.5571 11.6633 13.6866 10.186 13.3857Z" fill="#102E34"/>
<path d="M11.6791 12.2143C10.5449 13.5204 11.9683 14.5572 11.9811 14.5572C11.9811 14.5572 13.1153 13.2364 11.6791 12.2143Z" fill="#102E34"/>
<path d="M24.3193 15.7286C24.3799 15.8114 24.4259 15.9079 24.4545 16.0122C24.4831 16.1166 24.4936 16.2267 24.4856 16.3361C24.4775 16.4454 24.451 16.5517 24.4076 16.6485C24.3642 16.7454 24.3048 16.8309 24.2329 16.9C24.1721 16.8174 24.126 16.7211 24.0972 16.6168C24.0684 16.5126 24.0576 16.4025 24.0655 16.2931C24.0733 16.1838 24.0996 16.0775 24.1428 15.9805C24.1859 15.8835 24.2451 15.7978 24.3168 15.7286H24.3193Z" fill="#102E34"/>
<path d="M11.6663 14.5571C13.1083 15.0676 12.0007 15.7216 11.9892 15.7286C11.9892 15.7286 10.5472 15.2128 11.6663 14.5571Z" fill="#102E34"/>
<path d="M10.7999 15.7371C9.36643 16.2507 10.502 16.9 10.502 16.9C10.502 16.9 11.9354 16.3801 10.8091 15.7286L10.7999 15.7371Z" fill="#102E34"/>
<path d="M25.2328 13.3857C26.4731 13.461 26.3931 14.5467 26.3931 14.5571C26.3931 14.5571 25.1469 14.474 25.2328 13.3857Z" fill="#102E34"/>
<path d="M25.2286 16.0081C25.1858 15.9527 25.1212 15.9022 25.0387 15.8598C24.956 15.8174 24.8573 15.7839 24.7483 15.7613C24.6393 15.7388 24.5223 15.7276 24.4045 15.7286C24.2867 15.7296 24.1705 15.7426 24.063 15.7669C24.1058 15.8224 24.1705 15.8727 24.253 15.9152C24.3356 15.9576 24.4344 15.9911 24.5435 16.0136C24.6525 16.0362 24.7693 16.0473 24.8871 16.0463C25.0049 16.0454 25.1212 16.0324 25.2286 16.0081Z" fill="#102E34"/>
<path d="M27.5599 13.4616C27.4569 13.4186 27.3443 13.3933 27.2292 13.3872C27.114 13.3811 26.9984 13.3943 26.8895 13.4261C26.7807 13.4578 26.6807 13.5074 26.5956 13.572C26.5105 13.6364 26.442 13.7146 26.3943 13.8015C26.6034 13.8842 26.8436 13.895 27.0622 13.8312C27.2807 13.7675 27.4598 13.6345 27.5599 13.4616Z" fill="#102E34"/>
<path d="M20.825 16.8939C20.7549 16.8275 20.6962 16.7442 20.6524 16.6492C20.6087 16.5541 20.5808 16.4491 20.5704 16.3404C20.5601 16.2317 20.5675 16.1215 20.5922 16.0164C20.6168 15.9113 20.6583 15.8134 20.714 15.7286C20.7851 15.7947 20.8447 15.8782 20.8891 15.9736C20.9335 16.0691 20.9619 16.1748 20.9725 16.2842C20.9831 16.3937 20.9757 16.5047 20.9507 16.6106C20.9259 16.7164 20.8839 16.8148 20.8275 16.9L20.825 16.8939Z" fill="#102E34"/>
<path d="M35.7194 18.2399C34.9137 17.5766 34.5579 19.0848 34.5537 19.1005C34.5537 19.1005 35.3657 19.76 35.7194 18.2399Z" fill="#102E34"/>
<path d="M15.9033 12.2803C16.8187 11.8953 17.0667 13.3188 17.069 13.34C17.069 13.34 16.1491 13.7216 15.9033 12.2803Z" fill="#102E34"/>
<path d="M16.3219 15.7286C16.247 15.6939 16.1774 15.6357 16.117 15.5576C16.0565 15.4794 16.0067 15.3829 15.9704 15.2736C15.934 15.1643 15.9119 15.0445 15.9054 14.9215C15.8988 14.7984 15.908 14.6745 15.9323 14.5571C16.0073 14.5914 16.0772 14.6493 16.1378 14.7274C16.1984 14.8053 16.2484 14.902 16.2847 15.0114C16.3212 15.1208 16.3432 15.2407 16.3496 15.364C16.356 15.4873 16.3466 15.6113 16.3219 15.7286Z" fill="#102E34"/>
<path d="M27.4793 12.2143C27.9134 11.3131 26.4538 11.0449 26.4538 11.0428C26.4538 11.0428 26.0231 11.9481 27.4793 12.2143Z" fill="#102E34"/>
<path d="M9.07562 19.2429C10.583 19.9523 9.94188 21.5701 9.92749 21.5857C9.92749 21.5857 8.41724 20.867 9.07562 19.2429Z" fill="#102E34"/>
<path d="M22.1824 15.7286C22.0915 15.7744 22.0094 15.8413 21.9407 15.9253C21.872 16.0094 21.8181 16.1089 21.7822 16.218C21.7464 16.3272 21.7293 16.4437 21.732 16.5609C21.7346 16.678 21.7569 16.7933 21.7977 16.9C21.8884 16.8542 21.9706 16.7873 22.0394 16.7032C22.1081 16.6192 22.162 16.5197 22.1978 16.4105C22.2337 16.3014 22.2508 16.1848 22.2481 16.0677C22.2455 15.9506 22.2231 15.8353 22.1824 15.7286Z" fill="#102E34"/>
<path d="M11.3593 14.5571C11.4588 14.5033 11.5465 14.4298 11.617 14.341C11.6875 14.2522 11.7394 14.15 11.7696 14.0406C11.7998 13.9311 11.8076 13.8168 11.7926 13.7042C11.7776 13.5917 11.7401 13.4833 11.6823 13.3857C11.5829 13.4396 11.4952 13.5131 11.4246 13.6018C11.3541 13.6905 11.302 13.7926 11.2717 13.902C11.2413 14.0113 11.2332 14.1257 11.2478 14.2382C11.2624 14.3508 11.2995 14.4593 11.3568 14.5571H11.3593Z" fill="#102E34"/>
<path d="M27.897 21.5857C29.3873 21.1216 28.414 20.4209 28.4047 20.4143C28.4047 20.4143 26.9098 20.8829 27.897 21.5857Z" fill="#102E34"/>
<path d="M26.3898 19.2429C25.1494 19.1644 25.2276 18.0812 25.2304 18.0714C25.2304 18.0714 26.4765 18.1523 26.3898 19.2404V19.2429Z" fill="#102E34"/>
<path d="M31.0525 19.2429C29.8117 19.1656 29.8922 18.0878 29.8922 18.0714C29.8922 18.0714 31.1385 18.1534 31.0525 19.2429Z" fill="#102E34"/>
<path d="M32.1586 15.7286C32.5357 14.8056 31.1148 14.559 31.1007 14.5571C31.1007 14.5662 30.7266 15.4838 32.1586 15.7286Z" fill="#102E34"/>
<path d="M33.3808 20.4143C32.1406 20.3388 32.2236 19.2532 32.2236 19.2429C32.2236 19.2429 33.4696 19.3235 33.3838 20.4143H33.3808Z" fill="#102E34"/>
<path d="M31.0612 21.5857C32.3042 21.5078 32.2211 20.4246 32.2211 20.4143C32.2211 20.4143 30.9723 20.4974 31.0612 21.5857Z" fill="#102E34"/>
<path d="M27.5598 22.7624C27.6612 24.0419 28.7154 23.9258 28.7255 23.9258C28.7255 23.9258 28.619 22.6432 27.5598 22.7653V22.7624Z" fill="#102E34"/>
<path d="M24.063 19.2173C24.1935 19.2526 24.328 19.2513 24.4583 19.2136C24.5884 19.1758 24.7118 19.1024 24.8207 18.9977C24.9296 18.893 25.0218 18.7593 25.092 18.6045C25.1621 18.4496 25.2086 18.277 25.2286 18.097C25.098 18.0618 24.9635 18.0629 24.8333 18.1007C24.7031 18.1384 24.5798 18.2118 24.4708 18.3165C24.3619 18.4212 24.2697 18.555 24.1995 18.7099C24.1294 18.8646 24.083 19.0372 24.063 19.2173Z" fill="#102E34"/>
<path d="M32.2223 23.9364C32.1233 25.2119 31.0668 25.0993 31.0566 25.0962C31.0566 25.0962 31.1608 23.8175 32.2223 23.9364Z" fill="#102E34"/>
<path d="M34.5586 19.2429C35.8043 19.1627 35.7181 18.0818 35.7181 18.0714C35.7181 18.0714 34.4664 18.1594 34.5586 19.2429Z" fill="#102E34"/>
<path d="M35.6871 20.4143C34.3204 20.229 34.5719 19.2524 34.5719 19.2429C34.5719 19.2429 35.9451 19.433 35.6871 20.4143Z" fill="#102E34"/>
<path d="M34.5536 21.6601C34.5205 21.8553 34.4635 22.0374 34.3863 22.1954C34.309 22.3534 34.213 22.4842 34.1041 22.5797C33.9952 22.6753 33.8755 22.7337 33.7525 22.7514C33.6294 22.7691 33.5054 22.7457 33.3879 22.6827C33.421 22.4876 33.478 22.3055 33.5553 22.1475C33.6325 21.9894 33.7285 21.8587 33.8375 21.763C33.9464 21.6675 34.066 21.6091 34.1891 21.5915C34.3122 21.5737 34.4362 21.5971 34.5536 21.6601Z" fill="#102E34"/>
<path d="M33.6895 22.7571C32.7619 23.4814 34.2691 23.9241 34.283 23.9286C34.283 23.9286 35.1873 23.2042 33.6895 22.7571Z" fill="#102E34"/>
<path d="M34.3921 19.2429C32.8825 18.5335 33.5228 16.9155 33.5228 16.9C33.5374 16.9 35.0383 17.6187 34.3921 19.2429Z" fill="#102E34"/>
<path d="M26.4694 14.5571C26.5632 14.512 26.6481 14.4455 26.7191 14.3615C26.79 14.2775 26.8456 14.1779 26.8824 14.0685C26.9193 13.9591 26.9367 13.8422 26.9335 13.7249C26.9303 13.6076 26.9067 13.4922 26.8641 13.3857C26.7689 13.4289 26.6826 13.4942 26.6104 13.5779C26.5382 13.6615 26.4818 13.7614 26.4447 13.8716C26.4077 13.9816 26.3907 14.0994 26.3949 14.2174C26.3992 14.3354 26.4246 14.4511 26.4694 14.5571Z" fill="#102E34"/>
<path d="M21.7316 41.5C17.5818 41.5 13.5253 40.2977 10.0748 38.0452C6.62445 35.7926 3.93519 32.5909 2.34714 28.845C0.759091 25.0991 0.343585 20.9772 1.15317 17.0006C1.96274 13.0241 3.96105 9.37133 6.89538 6.50432C9.82973 3.63734 13.5683 1.6849 17.6383 0.893911C21.7083 0.102914 25.927 0.508882 29.7609 2.06048C33.5948 3.61208 36.8717 6.23961 39.1772 9.61081C41.4827 12.982 42.7132 16.9455 42.7132 21C42.7067 26.435 40.494 31.6455 36.5606 35.4887C32.6272 39.3318 27.2942 41.4936 21.7316 41.5ZM21.7316 2.42942C17.9724 2.42942 14.2976 3.51857 11.172 5.55913C8.0463 7.59969 5.61014 10.5 4.17156 13.8934C2.73297 17.2867 2.35658 21.0206 3.08996 24.623C3.82334 28.2253 5.63357 31.5343 8.29176 34.1314C10.9499 36.7285 14.3366 38.4972 18.0235 39.2137C21.7105 39.9303 25.5322 39.5626 29.0052 38.157C32.4782 36.7514 35.4467 34.3712 37.5352 31.3172C39.6238 28.2634 40.7385 24.6729 40.7385 21C40.7333 16.0764 38.729 11.3558 35.1657 7.87423C31.6024 4.39271 26.7709 2.43453 21.7316 2.42942Z" fill="#102E34"/>
<path d="M34.4552 34.9222C34.204 34.6853 33.5486 34.6853 32.7173 34.7209C32.5641 34.7209 32.3757 34.7327 32.3104 34.7209C32.0116 34.612 31.3486 34.7493 31.2356 34.8014C30.6856 35.0595 30.4545 34.9908 30.3792 34.9482C30.005 34.7374 29.1486 34.7588 28.8448 34.773C28.6238 34.6593 27.9758 34.3727 27.5011 34.5954C27.2349 34.7185 26.6473 34.6901 26.3459 34.6428C26.3459 34.6428 25.9667 34.5717 24.819 34.3017H24.7839C23.6086 34.1857 22.5965 31.9336 22.4458 30.5127C22.3127 29.2553 22.7672 28.4074 23.0987 28.1446C24.0832 27.2874 24.1912 25.7268 24.2038 25.4568C24.3092 25.2721 24.9572 24.6351 25.2761 24.5356C25.595 24.4361 26.2078 24.036 26.9888 23.522C27.2551 23.3468 27.4911 23.1952 27.5966 23.1313C27.903 22.9585 29.2038 22.8945 29.4977 23.0105L30.1682 23.2639L29.8091 22.6743C29.558 22.2693 28.8975 22.2646 28.2771 22.3096C28.6047 21.9403 28.8776 21.5308 29.0883 21.0924L29.7614 19.6715L28.6715 20.8295C28.3934 21.1328 28.0829 21.4082 27.7448 21.6512C27.7627 21.2155 27.8928 20.7904 28.124 20.4127L28.6262 19.5957L27.78 20.0953C27.1998 20.4364 27.0517 21.1799 26.9311 21.7767C26.9085 21.8928 26.8859 22.0136 26.8608 22.1083C26.7729 22.4825 26.1074 22.8826 25.0576 23.1763C24.4674 23.342 24.3293 23.2118 24.1359 23.0295C24.0329 22.9324 24.0455 22.5914 24.1209 22.3759C24.3393 21.862 25.2133 21.2392 25.354 21.2842C25.6694 21.3523 25.998 21.3445 26.3095 21.2618C26.621 21.179 26.9056 21.0239 27.137 20.8106L26.798 20.4648C26.5893 20.5811 26.3451 20.6278 26.1048 20.5974C26.3509 20.1814 26.6882 19.8197 27.0943 19.5365C27.7525 19.1838 28.4997 19.0053 29.2566 19.0202L30.0301 19.141L29.4751 18.6177C29.0657 18.2317 28.2722 18.3998 27.5037 18.5608C27.2661 18.6158 27.0254 18.6585 26.7829 18.6887C26.6567 18.7105 26.5264 18.6859 26.4188 18.62C26.3658 18.5729 26.3336 18.5086 26.3284 18.4401V18.3951C26.3108 18.3169 26.3585 18.0399 27.1521 17.1424L27.6744 16.5527L26.8909 16.7634C26.7319 16.8004 26.5832 16.8695 26.4553 16.966C26.3273 17.0625 26.2232 17.1841 26.15 17.3223H26.1375C26.0905 17.1154 26.0577 16.9057 26.0396 16.6948L25.9316 15.7286L25.5498 16.6261C25.4477 16.8499 25.4196 17.0975 25.4695 17.3365C25.5014 18.0147 25.4746 18.6943 25.3891 19.3684C25.2686 20.0504 24.367 20.7158 24.254 20.7893C24.2012 20.8153 24.1284 20.8319 24.1033 20.813C24.0229 20.659 24.038 20.157 24.048 19.7544C24.048 19.5886 24.048 19.4205 24.048 19.2618C24.048 18.8048 24.5126 18.2506 24.7638 17.9522L24.8768 17.8172L25.3238 17.2537L24.6055 17.4455C24.1033 17.5852 23.7216 18.1132 23.5106 18.5182C23.4501 18.5379 23.3861 18.5459 23.3222 18.5419C23.2519 18.4747 23.1881 18.4018 23.1314 18.324C23.0972 18.2794 23.0603 18.2367 23.0208 18.1962L22.9129 18.0967L23.0259 17.9972L23.3398 17.7012L22.9104 17.5994C22.4081 17.4809 20.8209 18.8781 20.6702 19.0676C20.6375 19.1079 20.4919 19.2405 19.967 19.25C19.8239 19.1671 19.4045 18.8237 19.1458 18.6129C18.8419 18.3761 18.7013 18.2506 18.6184 18.1985C18.6089 18.1373 18.6089 18.0751 18.6184 18.0138L18.8068 17.1258L18.189 17.8101C18.1179 17.8889 18.0588 17.9765 18.0132 18.0707L17.5109 18.388C17.2899 18.5277 17.1845 18.8379 17.1794 19.3684C16.9559 19.2121 16.6394 19.0439 16.4009 19.1197C16.3159 19.1237 16.2309 19.1133 16.1498 19.0889L16.0493 19.051C15.9933 19.0257 15.9298 19.019 15.8692 19.0319C15.8086 19.0448 15.7544 19.0765 15.7153 19.1221L15.6073 19.2618L15.7153 19.4015C15.7894 19.4711 15.8838 19.5181 15.9865 19.5365C16.3047 19.6753 16.6048 19.8485 16.8805 20.0528C16.981 20.2162 16.9258 21.0924 16.9056 21.3789C16.9056 21.5186 16.8906 21.6299 16.8906 21.6939C16.888 21.727 16.888 21.7602 16.8906 21.7933C16.5543 21.6533 16.2856 21.4 16.1372 21.0829C15.9287 19.8301 15.2607 19.3233 15.0523 19.2808L14.8614 19.2547L14.7785 19.4086C14.7538 19.4555 14.7452 19.5085 14.7538 19.5603C14.7623 19.612 14.7876 19.6599 14.8263 19.6975C15.0968 20.0663 15.2056 20.5194 15.1301 20.9621C14.4043 20.9456 13.7112 20.9858 13.5404 21.3884L13.3696 21.7909L13.8217 21.7081C15.0146 21.4949 15.9714 22.1106 16.0995 22.3475C15.6299 22.9324 15.306 22.949 15.0447 22.9608C14.8787 22.954 14.7145 22.9962 14.5751 23.0816L14.2336 23.3184L14.6228 23.4818C15.1728 23.7186 15.7379 23.4818 16.1121 23.3302C16.2144 23.2889 16.3214 23.2587 16.431 23.2403C18.1112 23.0934 19.3065 24.7535 19.633 25.2674C20.3663 26.4159 19.7536 27.8723 19.5401 28.308C19.2804 29.0414 18.8775 29.7225 18.3523 30.3162C18.0626 30.592 17.8849 30.9549 17.8499 31.3416C17.7475 32.0883 17.5795 32.8257 17.3477 33.5463C17.2472 33.7026 16.5943 34.6877 15.6299 34.8558C14.7696 35.0016 13.8851 34.9578 13.0457 34.728C12.566 34.5764 11.4485 34.7019 11.3229 34.728C10.6422 34.8191 9.97027 34.9616 9.31374 35.1542L8.90942 35.2798L9.22088 35.5521C12.2872 38.2304 15.4516 39.9591 21.7526 40.3097C21.9686 40.3215 22.1846 40.3286 22.4005 40.3286C28.3274 40.3286 34.1839 35.9665 34.518 35.2679C34.5496 35.2119 34.5606 35.1475 34.5492 35.0849C34.5379 35.0223 34.5048 34.9651 34.4552 34.9222ZM22.9807 19.2358C23.1013 20.1285 23.1942 21.1634 23.144 21.367C23.0937 21.4334 22.9857 21.502 22.4207 21.3268C21.9711 21.1847 21.9335 20.6661 21.9335 20.1001V19.5341L21.504 19.9367C20.6853 20.7016 21.597 21.7531 22.2072 22.4398C22.3667 22.6097 22.512 22.791 22.6416 22.9821C22.9983 23.586 22.9832 25.4331 22.7019 25.6557C22.6365 25.7085 22.5658 25.7553 22.491 25.7954C22.4707 25.7878 22.4514 25.7783 22.4332 25.767C22.3536 25.7278 22.2693 25.6976 22.1821 25.677C22.0842 25.6225 21.9937 25.2034 21.9636 25.0684C21.9485 24.9997 21.936 24.9335 21.9209 24.8813C21.8229 24.5096 20.949 23.6973 20.7682 23.6239C20.7682 23.6239 20.4643 23.4084 20.4643 21.6939C20.4643 21.0592 20.8435 19.9793 22.5939 18.3785C22.5588 18.6935 22.835 19.0652 22.9807 19.2358ZM32.4059 34.7848C32.3827 34.7635 32.3555 34.7466 32.3255 34.7351C32.3561 34.7454 32.3836 34.7625 32.4059 34.7848ZM17.8801 18.8971C17.8685 18.8124 17.8745 18.7263 17.8976 18.6437L17.9454 18.4614V18.4922C17.9633 18.5743 18.0018 18.6511 18.0578 18.7162C18.1137 18.7813 18.1854 18.8328 18.2668 18.8663C18.3748 18.9161 18.7088 19.16 19.5225 20.3298L19.5526 20.3725C19.6372 20.6904 19.6728 21.0182 19.6582 21.3457C19.6409 21.527 19.5701 21.7001 19.4538 21.8454C19.3375 21.9907 19.1804 22.1022 19.0001 22.1675C18.3849 22.4303 17.7997 21.3955 17.7972 21.3955C17.7779 21.0778 17.8049 20.7591 17.8776 20.4482C17.973 20.228 17.9981 19.1197 17.8801 18.8971Z" fill="#102E34"/>
</g>
<defs>
<clipPath id="clip0_5271_4414">
<rect width="190" height="41" fill="white" transform="translate(0.75 0.5)"/>
</clipPath>
</defs>
</svg>
