<svg width="143" height="31" viewBox="0 0 143 31" fill="none" xmlns="http://www.w3.org/2000/svg">
<g clip-path="url(#clip0_880_39241)">
<path d="M42.0723 16.1545H48.714V13.4551H42.0723V9.69786H49.3553V6.99854H39.0476V22.7449H49.4933V20.0456H42.0723V16.1545Z" fill="white"/>
<path d="M57.7624 6.99854H51.2341V9.60865H53.3198V20.1348H51.2341V22.7449H57.7624C59.894 22.7449 61.5151 22.2097 62.626 21.1392C63.7374 20.0687 64.2924 18.4756 64.2913 16.3596V13.3873C64.2913 11.2726 63.7364 9.67944 62.626 8.60776C61.5161 7.53614 59.8951 6.9997 57.7624 6.99854ZM61.2995 16.4542C61.2995 17.5924 61.0199 18.4767 60.4612 19.1071C59.9026 19.7375 59.0184 20.0503 57.8077 20.0456H56.3116V9.69786H57.8077C59.0184 9.69786 59.9026 10.0089 60.4612 10.6309C61.0199 11.253 61.2995 12.1415 61.2995 13.2964V16.4542Z" fill="white"/>
<path d="M69.0552 16.1545H75.6986V13.4551H69.0552V9.69786H76.3396V6.99854H66.0325V22.7449H76.4782V20.0456H69.0552V16.1545Z" fill="white"/>
<path d="M87.4608 20.7199H87.053L83.9055 6.99854H78.219V22.7449H81.1638V9.02344H81.5717L84.7192 22.7449H90.4057V6.99854H87.4608V20.7199Z" fill="white"/>
<path d="M101.682 14.7849C100.736 14.3694 99.7491 14.0556 98.7384 13.8488L98.219 13.7347C97.6857 13.6281 97.1642 13.4673 96.6623 13.2548C96.3027 13.1102 95.9857 12.8745 95.7424 12.5703C95.5342 12.2786 95.4269 11.9252 95.4381 11.5653C95.4275 11.2967 95.4801 11.0292 95.5916 10.7851C95.7037 10.5411 95.8709 10.3275 96.0807 10.1621C96.5099 9.81921 97.1759 9.64779 98.0777 9.64779C98.6082 9.63602 99.1367 9.72512 99.6349 9.91035C100.049 10.067 100.401 10.3555 100.639 10.7324C100.893 11.179 101.017 11.6895 100.997 12.2046V12.8908H103.931V12.2046C103.931 11.0493 103.679 10.0866 103.175 9.31639C102.666 8.5443 101.944 7.94094 101.099 7.5817C100.145 7.1797 99.1197 6.98178 98.0867 7.00043C97.0776 6.97721 96.0749 7.16777 95.1428 7.55999C94.3562 7.89048 93.6807 8.44381 93.1974 9.15346C92.7247 9.89799 92.4852 10.7696 92.5101 11.6541C92.5101 12.6283 92.7167 13.4196 93.1294 14.028C93.5862 14.6711 94.2038 15.1793 94.9192 15.5001C95.8115 15.9125 96.7467 16.2229 97.7075 16.4255L98.2264 16.5395C98.8111 16.6651 99.3874 16.8291 99.9514 17.0303C100.357 17.1655 100.725 17.3964 101.025 17.7039C101.282 17.9991 101.415 18.3833 101.398 18.7758C101.403 19.08 101.337 19.3811 101.206 19.6548C101.075 19.9285 100.882 20.1671 100.642 20.3512C100.138 20.7616 99.3741 20.9674 98.3517 20.9687C97.3294 20.9698 96.5322 20.7284 95.9607 20.2443C95.3738 19.7615 95.0801 19.042 95.0801 18.0859V17.4558H92.149V18.095C92.1187 19.1411 92.3933 20.1732 92.9382 21.0628C93.4741 21.8931 94.233 22.551 95.1269 22.9587C97.1706 23.8279 99.4718 23.8403 101.525 22.9931C102.363 22.6214 103.082 22.0199 103.601 21.2566C104.096 20.4954 104.351 19.6 104.332 18.6889C104.332 17.7147 104.1 16.9156 103.635 16.2914C103.12 15.6308 102.448 15.1125 101.682 14.7849Z" fill="white"/>
<path d="M115.732 14.2964C114.896 13.9348 113.997 13.7562 113.09 13.7722H111.839V13.5395L118.236 9.09391V6.99854H107.31V8.30195H116.826V8.53452L110.36 13.0281V14.9833H112.707C113.417 14.9747 114.123 15.0966 114.791 15.3432C115.385 15.5587 115.906 15.943 116.293 16.4509C116.665 16.9433 116.851 17.595 116.851 18.406V18.5464C116.864 19.0484 116.773 19.5475 116.584 20.0112C116.396 20.4749 116.114 20.8929 115.757 21.2381C115.028 21.9531 114.01 22.3101 112.705 22.3089C111.4 22.3076 110.353 21.9316 109.563 21.1809C108.758 20.4276 108.356 19.3919 108.357 18.0738V17.6122H106.945V18.0553C106.945 19.2344 107.192 20.2393 107.685 21.0701C108.171 21.8944 108.884 22.5539 109.735 22.9661C110.663 23.4137 111.679 23.6367 112.705 23.6178C113.718 23.6421 114.724 23.4272 115.643 22.9901C116.439 22.6076 117.11 21.9994 117.577 21.2381C118.045 20.4394 118.282 19.5214 118.26 18.5907V18.3581C118.26 17.3501 118.032 16.5082 117.577 15.8325C117.117 15.1523 116.477 14.6196 115.732 14.2964Z" fill="white"/>
<path d="M127.837 13.4482C127.007 13.0078 126.078 12.784 125.136 12.798C123.935 12.798 122.992 13.0147 122.307 13.4482C121.708 13.7979 121.205 14.288 120.842 14.8754H120.564V12.4321C120.564 11.1389 120.937 10.1228 121.684 9.38389C122.432 8.64489 123.482 8.27606 124.835 8.27724C126.16 8.27724 127.164 8.59662 127.847 9.23538C128.531 9.87409 128.873 10.7193 128.875 11.771H130.307C130.32 10.9234 130.105 10.0876 129.684 9.34944C129.248 8.615 128.606 8.02075 127.837 7.63789C127.02 7.21047 126.02 6.99736 124.835 6.99854C123.651 6.99978 122.628 7.22794 121.765 7.6832C120.937 8.12174 120.259 8.79286 119.815 9.61206C119.339 10.5337 119.105 11.5588 119.134 12.5933V18.2333C119.104 19.2495 119.364 20.2536 119.883 21.1312C120.369 21.926 121.074 22.5675 121.915 22.9804C122.814 23.4013 123.795 23.6197 124.789 23.6197C125.783 23.6197 126.764 23.4013 127.663 22.9804C128.499 22.5715 129.203 21.939 129.695 21.1547C130.211 20.3081 130.471 19.3335 130.446 18.3456V18.0721C130.471 17.0934 130.228 16.1261 129.741 15.2738C129.286 14.5051 128.628 13.8738 127.837 13.4482ZM129.014 18.3238C129.014 19.5736 128.622 20.5558 127.837 21.2706C127.052 21.9854 126.036 22.3429 124.79 22.3429C123.543 22.3429 122.527 21.9854 121.742 21.2706C120.955 20.5558 120.563 19.5736 120.564 18.3238V18.1427C120.544 17.3824 120.734 16.6311 121.113 15.9693C121.467 15.367 121.982 14.8732 122.602 14.5421C123.282 14.2039 124.033 14.0278 124.794 14.0278C125.556 14.0278 126.306 14.2039 126.987 14.5421C127.607 14.8738 128.122 15.3675 128.477 15.9693C128.855 16.6314 129.046 17.3825 129.027 18.1427L129.014 18.3238Z" fill="white"/>
<path d="M140.997 8.62877C139.905 7.54195 138.42 6.99854 136.541 6.99854C134.662 6.99854 133.176 7.54195 132.083 8.62877C130.992 9.7156 130.447 11.3331 130.448 13.4815V17.1368C130.448 19.2826 130.993 20.9002 132.083 21.9894C133.174 23.0787 134.66 23.6221 136.541 23.6197C138.42 23.6197 139.905 23.0763 140.997 21.9894C142.088 20.9026 142.634 19.2851 142.634 17.1368V13.4815C142.634 11.3356 142.088 9.71802 140.997 8.62877ZM141.152 17.2274C141.152 18.8274 140.767 20.0797 139.994 20.9842C139.222 21.8886 138.072 22.3415 136.545 22.3427C135.015 22.3427 133.864 21.8898 133.092 20.9842C132.32 20.0785 131.933 18.8262 131.932 17.2274V13.3909C131.932 11.7921 132.318 10.5398 133.092 9.6341C133.865 8.72843 135.016 8.27555 136.545 8.27555C138.074 8.27555 139.225 8.72843 139.998 9.6341C140.772 10.5398 141.157 11.7921 141.156 13.3909L141.152 17.2274Z" fill="white"/>
<path d="M15.6951 9.62284C15.2898 9.12353 15.8313 8.7519 15.8368 8.74805C15.892 8.81111 15.9326 8.88659 15.9557 8.96879C15.9788 9.05092 15.9837 9.13754 15.97 9.22198C15.9563 9.30641 15.9244 9.38642 15.8768 9.45593C15.8291 9.52543 15.7669 9.58252 15.6951 9.62284Z" fill="white"/>
<path d="M17.2856 6.91406C17.7376 5.80317 19.0141 6.18731 19.0266 6.18941C19.0266 6.20185 18.5684 7.30646 17.2856 6.91406Z" fill="white"/>
<path d="M13.9518 7.87333C15.0856 7.54019 14.5475 7.00411 14.5407 6.99854C14.5407 6.99854 13.407 7.33543 13.9518 7.87333Z" fill="white"/>
<path d="M15.5447 7.00217C15.5774 7.90337 16.3977 7.87321 16.4152 7.87321C16.4152 7.87321 16.3782 6.96656 15.5447 6.99941V7.00217Z" fill="white"/>
<path d="M14.6779 6.99833C15.6081 6.93791 15.5438 6.13134 15.5438 6.12354C15.5438 6.12354 14.6098 6.18783 14.6779 6.99833Z" fill="white"/>
<path d="M15.6747 6.99833C15.1721 6.39666 16.2876 6.12708 16.2992 6.12354C16.3695 6.2047 16.4089 6.29456 16.4145 6.38644C16.4201 6.47825 16.3918 6.5697 16.3316 6.65389C16.2715 6.73808 16.1813 6.81279 16.0675 6.87245C15.9537 6.9321 15.8194 6.97513 15.6747 6.99833Z" fill="white"/>
<path d="M19.9371 6.99854C19.6821 7.69837 20.7329 7.87124 20.7413 7.87333C20.7413 7.87333 20.9935 7.16919 19.9399 6.99854H19.9371Z" fill="white"/>
<path d="M17.2855 8.70599C17.1957 8.74666 17.102 8.75785 17.0095 8.73886C16.9171 8.71996 16.8278 8.67114 16.7469 8.59545C16.6661 8.51967 16.5951 8.41845 16.5381 8.29761C16.4811 8.17668 16.4393 8.03856 16.415 7.89102C16.415 7.89102 17.1365 7.67972 17.2855 8.70599Z" fill="white"/>
<path d="M17.2855 8.7539C17.2113 9.70537 16.4233 9.62093 16.415 9.62093C16.415 9.62093 16.4942 8.66486 17.2855 8.7539Z" fill="white"/>
<path d="M22.5085 9.62903C22.5859 10.5836 23.3724 10.4967 23.379 10.4944C23.379 10.4944 23.2984 9.53514 22.5085 9.62903Z" fill="white"/>
<path d="M17.2855 8.68881C17.1117 8.78799 16.9228 8.76143 16.7599 8.61496C16.597 8.46848 16.4731 8.21386 16.415 7.9062C16.415 7.9062 17.102 7.62704 17.2855 8.68881Z" fill="white"/>
<path d="M19.8972 6.93934C20.0712 7.03852 20.2601 7.01186 20.4231 6.86527C20.586 6.7186 20.7099 6.46377 20.7677 6.1561C20.7677 6.1561 20.0781 5.87935 19.8972 6.93934Z" fill="white"/>
<path d="M18.1562 9.68727C18.5636 10.7816 19.8846 10.4509 19.8972 10.4489C19.8972 10.4369 19.4752 9.35055 18.1562 9.68727Z" fill="white"/>
<path d="M10.3201 8.74805C10.3673 9.58057 9.46007 9.62284 9.45174 9.62284C9.45174 9.6141 9.40869 8.78595 10.3201 8.74805Z" fill="white"/>
<path d="M17.4114 6.99833C17.556 6.97574 17.6906 6.93316 17.8048 6.87374C17.919 6.81438 18.01 6.73981 18.0707 6.65557C18.1315 6.57133 18.1605 6.47971 18.1556 6.38754C18.1507 6.29538 18.1121 6.20511 18.0425 6.12354C18.0425 6.12354 16.9164 6.39439 17.4114 6.99833Z" fill="white"/>
<path d="M15.5447 10.6532C15.667 10.7492 15.8222 10.8009 15.9821 10.7989C16.1419 10.7969 16.2956 10.7414 16.4152 10.6424C16.2926 10.5467 16.1372 10.4953 15.9774 10.4976C15.8176 10.4999 15.664 10.5558 15.5447 10.655V10.6532Z" fill="white"/>
<path d="M15.5447 8.71707C15.8431 7.68085 17.2699 7.88958 17.2856 7.89146C17.2856 7.90264 16.9805 8.93145 15.5469 8.71895L15.5447 8.71707Z" fill="white"/>
<path d="M17.2841 13.9459C17.1075 14.0373 16.9171 14.0049 16.7543 13.8556C16.5915 13.7064 16.4696 13.4524 16.415 13.149C16.415 13.149 17.1171 12.8944 17.2855 13.951L17.2841 13.9459Z" fill="white"/>
<path d="M13.2638 7.87333C12.4128 7.38895 13.4717 7.00574 13.4828 6.99854C13.4828 6.99854 14.3337 7.48726 13.2638 7.87333Z" fill="white"/>
<path d="M21.6425 13.9969C22.5776 13.9367 22.5129 13.1293 22.5043 13.1221C22.4957 13.1221 21.565 13.1865 21.6425 13.9969Z" fill="white"/>
<path d="M15.5447 12.1332C15.7037 12.2758 15.8829 12.2852 16.0451 12.1592C16.2073 12.0334 16.3399 11.7818 16.4152 11.4573C16.4089 11.4573 15.7934 11.0197 15.5447 12.1332Z" fill="white"/>
<path d="M14.8905 15.7464C14.2186 15.2011 15.3254 14.874 15.3472 14.8716C15.3472 14.8716 16.0169 15.4205 14.8905 15.7464Z" fill="white"/>
<path d="M24.2532 8.74784C25.1848 8.68769 25.119 7.88076 25.119 7.87305C25.119 7.87305 24.1835 7.93706 24.2532 8.74784Z" fill="white"/>
<path d="M16.4118 13.9969C15.4838 13.9405 15.5455 13.1299 15.5455 13.1221C15.5455 13.1221 16.4775 13.1843 16.4118 13.9969Z" fill="white"/>
<path d="M20.0999 14.8716C20.5143 15.3239 20.0686 15.7421 20.0649 15.7464C20.0094 15.6915 19.9656 15.6226 19.9366 15.5451C19.9077 15.4676 19.8944 15.3835 19.8977 15.2991C19.9011 15.2147 19.9211 15.1323 19.9561 15.0582C19.9911 14.9841 20.0403 14.9203 20.0999 14.8716Z" fill="white"/>
<path d="M14.6755 8.79628C14.8386 9.83726 15.5386 9.60054 15.5445 9.59797C15.4909 9.29607 15.3693 9.04236 15.2063 8.89228C15.0432 8.74212 14.852 8.7076 14.6741 8.79628H14.6755Z" fill="white"/>
<path d="M17.2855 11.3133C17.1117 11.4125 16.9228 11.3859 16.7599 11.2395C16.597 11.093 16.4731 10.8384 16.415 10.5307C16.415 10.5307 17.102 10.2516 17.2855 11.3133Z" fill="white"/>
<path d="M12.9331 9.63365C12.9748 10.5366 13.7958 10.4971 13.8036 10.4971C13.7945 10.3664 13.7643 10.2396 13.7149 10.1244C13.6654 10.0091 13.5978 9.90797 13.5162 9.82699C13.4346 9.74611 13.3408 9.68714 13.2405 9.65389C13.1402 9.62064 13.0356 9.61379 12.9331 9.63365Z" fill="white"/>
<path d="M14.3913 9.62256C14.2456 9.66134 14.1186 9.71718 14.0202 9.78578C13.9217 9.85439 13.8545 9.93393 13.8233 10.0184C13.7923 10.1028 13.7982 10.1898 13.8407 10.2728C13.8833 10.3559 13.9612 10.4327 14.0687 10.4974C14.0687 10.4974 15.1802 10.1359 14.3913 9.62256Z" fill="white"/>
<path d="M25.122 14.0607C25.5309 15.1546 26.8482 14.8261 26.8608 14.8221C26.8608 14.8221 26.4393 13.7241 25.1199 14.0607H25.122Z" fill="white"/>
<path d="M11.0892 13.1221C11.5293 14.3714 10.418 14.8717 10.407 14.8717C10.407 14.8717 9.96684 13.6152 11.0873 13.1221H11.0892Z" fill="white"/>
<path d="M23.5049 14.8714C24.6348 14.6072 24.1444 14.0106 24.1387 13.9966C24.1387 13.9966 23.0087 14.2643 23.5049 14.8714Z" fill="white"/>
<path d="M16.415 12.6444C17.3184 11.7076 18.1466 12.7199 18.156 12.7297C18.156 12.7297 17.2433 13.6665 16.415 12.6444Z" fill="white"/>
<path d="M14.6742 14.8735C14.5585 14.8655 14.4426 14.8826 14.334 14.9237C14.2255 14.9646 14.1267 15.0286 14.0445 15.1112C13.9623 15.1938 13.8984 15.2931 13.8571 15.4027C13.8159 15.5122 13.7982 15.6294 13.8052 15.7464C13.8052 15.7464 14.7305 15.6834 14.6623 14.8735H14.6742Z" fill="white"/>
<path d="M8.91045 8.74805C8.05629 9.23446 9.13073 9.62284 9.14089 9.62284C9.25666 9.56209 9.34397 9.48842 9.39607 9.40757C9.44817 9.32668 9.46366 9.24069 9.44143 9.15626C9.4192 9.07179 9.35976 8.9911 9.26773 8.92033C9.17569 8.84956 9.05348 8.79062 8.91045 8.74805Z" fill="white"/>
<path d="M14.6742 14.2491C14.3265 15.3785 13.8092 14.6268 13.8037 14.6199C13.9056 14.3018 14.0505 14.0884 14.2109 14.0202C14.3713 13.9518 14.5361 14.0333 14.6742 14.2491Z" fill="white"/>
<path d="M15.5479 5.24902C16.4757 5.30615 16.4152 6.11604 16.4139 6.12382C16.4049 6.12382 15.4835 6.06284 15.5479 5.24902Z" fill="white"/>
<path d="M13.1987 14.8716C13.1286 14.914 13.0686 14.9728 13.0235 15.0436C12.9783 15.1142 12.949 15.1949 12.9381 15.2794C12.927 15.3638 12.9345 15.4499 12.9599 15.5309C12.9852 15.6118 13.0279 15.6855 13.0845 15.7464C13.0845 15.7464 13.6167 15.3576 13.1987 14.8716Z" fill="white"/>
<path d="M12.9332 14.041C12.7533 13.9561 12.5605 13.9938 12.3973 14.146C12.234 14.2981 12.1137 14.5522 12.0627 14.8524C12.0627 14.8524 12.7809 15.0688 12.9332 14.041Z" fill="white"/>
<path d="M9.45142 11.0478C9.83488 9.96004 10.3168 10.819 10.3219 10.829C10.2119 11.1338 10.0628 11.324 9.90259 11.3644C9.74236 11.4046 9.58198 11.2921 9.45142 11.0478Z" fill="white"/>
<path d="M8.57721 8.74805C7.64746 8.80814 7.71138 9.61507 7.71138 9.62284C7.71138 9.62284 8.64694 9.55883 8.57721 8.74805Z" fill="white"/>
<path d="M19.8971 13.9785C19.8209 13.0377 19.034 13.122 19.0266 13.1254C19.0405 13.2613 19.0743 13.392 19.1262 13.5094C19.178 13.6267 19.2468 13.7285 19.3282 13.8083C19.4097 13.8881 19.5021 13.9444 19.5999 13.9736C19.6977 14.0029 19.7989 14.0045 19.8971 13.9785Z" fill="white"/>
<path d="M13.8037 13.1149C13.878 12.1655 14.6676 12.2474 14.6742 12.2497C14.6742 12.2497 14.5982 13.2128 13.8037 13.1149Z" fill="white"/>
<path d="M12.0629 9.64741C11.889 9.60584 11.7001 9.61674 11.5371 9.67776C11.3741 9.73878 11.2502 9.84501 11.1924 9.97331C11.1924 9.97331 11.8805 10.0903 12.0629 9.64741Z" fill="white"/>
<path d="M12.9332 13.1467C12.7591 13.1053 12.5699 13.1164 12.4068 13.1778C12.2437 13.2392 12.12 13.3458 12.0627 13.4744C12.0627 13.4744 12.7509 13.5897 12.9332 13.1486V13.1467Z" fill="white"/>
<path d="M10.3219 13.514C10.2095 13.0621 9.45925 13.1251 9.45142 13.1251C9.46996 13.1905 9.50742 13.2527 9.56165 13.308C9.61588 13.3632 9.68562 13.4104 9.76684 13.4467C9.84806 13.483 9.93906 13.5077 10.0344 13.5192C10.1298 13.5308 10.2276 13.529 10.3219 13.514Z" fill="white"/>
<path d="M13.4272 13.1221C14.3384 13.5813 13.3097 13.9852 13.3011 13.9969C13.3011 13.9969 12.3929 13.5332 13.4301 13.1221H13.4272Z" fill="white"/>
<path d="M8.58105 13.9219C8.78424 12.8451 9.44559 13.1662 9.45153 13.169C9.38781 13.4818 9.26115 13.7359 9.09859 13.8771C8.93598 14.0182 8.75031 14.0353 8.58105 13.9247V13.9219Z" fill="white"/>
<path d="M14.644 9.62284C14.8617 8.9032 13.8316 8.74805 13.8223 8.74805C13.8223 8.74805 13.6069 9.4714 14.644 9.62284Z" fill="white"/>
<path d="M20.0248 10.4976C21.1477 10.7637 20.6657 11.3673 20.6602 11.3724C20.6602 11.3724 19.5237 11.0994 20.0248 10.4976Z" fill="white"/>
<path d="M26.7341 12.2471C25.6065 12.5137 26.0949 13.1155 26.1002 13.1219C26.1002 13.1219 27.2328 12.8505 26.7341 12.2471Z" fill="white"/>
<path d="M21.6381 6.99854C20.704 7.05856 20.7685 7.86476 20.7685 7.87333C20.7771 7.87333 21.7055 7.80902 21.6295 6.99854H21.6381Z" fill="white"/>
<path d="M10.4038 6.99854C10.0161 7.6444 11.1285 7.87094 11.1285 7.87333C11.1285 7.86732 11.5107 7.22264 10.4038 6.99854Z" fill="white"/>
<path d="M12.0717 7.93124C12.1797 9.01213 12.9332 8.70978 12.9332 8.70654C12.9233 8.56563 12.8909 8.42978 12.8385 8.30958C12.7862 8.18939 12.7152 8.08791 12.6312 8.01306C12.547 7.93821 12.4521 7.89191 12.3536 7.87769C12.2551 7.86356 12.1555 7.88179 12.0627 7.93124H12.0717Z" fill="white"/>
<path d="M13.8037 8.87386C13.9598 8.72407 14.1365 8.70738 14.2981 8.82728C14.4597 8.94709 14.5941 9.19454 14.6742 9.51948C14.6742 9.51948 14.0663 10.0043 13.8037 8.87386Z" fill="white"/>
<path d="M11.5069 8.74805C12.5887 9.12915 11.7585 9.61892 11.7585 9.62284C11.7585 9.62284 10.6741 9.23785 11.5069 8.74805Z" fill="white"/>
<path d="M10.8659 9.62256C10.7223 9.66487 10.5995 9.72367 10.507 9.79434C10.4144 9.86502 10.3545 9.94573 10.3319 10.0303C10.3093 10.1148 10.3246 10.2009 10.3767 10.2818C10.4287 10.3628 10.5161 10.4365 10.6321 10.4974C10.6321 10.4974 11.7181 10.11 10.8659 9.62256Z" fill="white"/>
<path d="M17.289 6.99854C18.2171 7.05686 18.1553 7.86554 18.1553 7.87333C18.1553 7.87333 17.2233 7.81114 17.289 6.99854Z" fill="white"/>
<path d="M15.5371 8.74841C15.4177 8.74499 15.299 8.76585 15.1888 8.8094C15.0786 8.85304 14.9795 8.91837 14.8982 9.00123C14.8168 9.084 14.7552 9.18237 14.7173 9.28959C14.6794 9.39673 14.6662 9.51037 14.6786 9.62284C14.6786 9.62284 15.6381 9.53565 15.5371 8.74841Z" fill="white"/>
<path d="M19.0267 7.06217C18.8749 6.99218 18.7009 6.97941 18.5395 7.02643C18.3782 7.0735 18.2414 7.1769 18.1562 7.31604C18.1562 7.31604 18.7441 7.55014 19.0267 7.06217Z" fill="white"/>
<path d="M16.0943 8.74784C15.0165 8.36445 15.8548 7.87748 15.8633 7.87305C15.8633 7.87305 16.9326 8.25644 16.0943 8.74784Z" fill="white"/>
<path d="M26.861 11.5021C26.7054 11.3498 26.5287 11.3311 26.3669 11.4498C26.2052 11.5684 26.0705 11.8157 25.9905 12.1409C25.9905 12.1409 26.5972 12.6326 26.861 11.5021Z" fill="white"/>
<path d="M25.1201 8.62265C25.1927 8.31554 25.3247 8.07622 25.4876 7.95648C25.6506 7.83674 25.8313 7.8462 25.9906 7.98282C25.9906 7.98282 25.6564 9.11817 25.1201 8.62265Z" fill="white"/>
<path d="M15.9011 9.62284C15.8403 9.60813 15.7822 9.57239 15.731 9.51813C15.6799 9.46388 15.6369 9.39257 15.6051 9.30906C15.5732 9.22564 15.5534 9.1321 15.547 9.03509C15.5406 8.93817 15.5477 8.84012 15.5678 8.74805C15.5678 8.74805 16.0522 8.96093 15.9011 9.62284Z" fill="white"/>
<path d="M19.8373 6.99833C20.1585 6.32614 19.0807 6.12507 19.0697 6.12354C19.0697 6.12354 18.7529 6.80043 19.8373 6.99833Z" fill="white"/>
<path d="M9.5761 11.3726C10.7053 11.903 10.2178 13.1105 10.2141 13.1222C10.2028 13.1222 9.0849 12.5847 9.5761 11.3726Z" fill="white"/>
<path d="M16.2866 6.99854C15.1553 7.26492 15.6531 7.86772 15.6576 7.87333C15.6576 7.87333 16.7888 7.60278 16.2866 6.99854Z" fill="white"/>
<path d="M11.3789 7.87333C11.5276 7.84321 11.662 7.79435 11.7719 7.73049C11.8818 7.66668 11.9642 7.58962 12.0127 7.50516C12.0614 7.42071 12.0748 7.33116 12.0522 7.24336C12.0295 7.15556 11.9714 7.07182 11.8821 6.99854C11.8821 6.99854 10.7474 7.31599 11.3888 7.86966L11.3789 7.87333Z" fill="white"/>
<path d="M20.1562 13.1219C20.302 13.0855 20.4304 13.0316 20.5318 12.9644C20.633 12.8972 20.7045 12.8184 20.7407 12.7339C20.7768 12.6495 20.7767 12.5618 20.7403 12.4774C20.7041 12.393 20.6324 12.3142 20.531 12.2471C20.531 12.2471 19.4097 12.5983 20.15 13.1219H20.1562Z" fill="white"/>
<path d="M19.0234 11.3724C18.097 11.3154 18.157 10.5049 18.157 10.4976C18.157 10.4976 19.0889 10.5582 19.0234 11.3724Z" fill="white"/>
<path d="M22.5052 11.3724C21.5775 11.3163 21.6388 10.5133 21.6388 10.4976C21.6388 10.4976 22.57 10.5588 22.5052 11.3724Z" fill="white"/>
<path d="M24.2017 8.74784C24.4839 8.05912 23.4226 7.87442 23.4116 7.87305C23.4116 7.87982 23.133 8.5658 24.2017 8.74784Z" fill="white"/>
<path d="M25.1167 12.2474C24.1905 12.191 24.2503 11.3803 24.2503 11.3726C24.2503 11.3726 25.1823 11.4348 25.1167 12.2474Z" fill="white"/>
<path d="M22.5121 13.1219C23.44 13.0618 23.3782 12.2548 23.3782 12.2471C23.3782 12.2471 22.4444 12.3092 22.5121 13.1219Z" fill="white"/>
<path d="M19.8972 14.0027C19.9731 14.9553 20.7611 14.8708 20.7677 14.8686C20.7677 14.8686 20.6886 13.9113 19.8972 14.0027Z" fill="white"/>
<path d="M19.0266 8.75419C19.1024 9.7077 19.8889 9.62078 19.8971 9.62078C19.8971 9.62078 19.818 8.66279 19.0266 8.75419Z" fill="white"/>
<path d="M24.2494 14.8774C24.1751 15.8287 23.3855 15.7445 23.3789 15.7445C23.3789 15.7445 23.4566 14.7887 24.2494 14.8774Z" fill="white"/>
<path d="M25.996 11.3724C26.9238 11.3123 26.86 10.5053 26.86 10.4976C26.8504 10.4976 25.9264 10.5616 25.994 11.3724H25.996Z" fill="white"/>
<path d="M26.8369 12.2474C25.8168 12.1087 26.004 11.3796 26.004 11.3726C26.0148 11.3726 27.0284 11.5148 26.8369 12.2474Z" fill="white"/>
<path d="M25.9906 13.1944C25.7893 14.2743 25.1305 13.9529 25.1201 13.9497C25.184 13.6368 25.3107 13.3828 25.4732 13.2417C25.6358 13.1006 25.8214 13.0836 25.9906 13.1944Z" fill="white"/>
<path d="M24.4709 13.9966C23.7863 14.5385 24.9071 14.8681 24.9162 14.8714C25.0105 14.8008 25.0744 14.7194 25.103 14.6332C25.1315 14.5469 25.1241 14.4582 25.0811 14.3738C25.0382 14.2894 24.9608 14.2116 24.8551 14.1462C24.7493 14.0808 24.6179 14.0296 24.4709 13.9966Z" fill="white"/>
<path d="M25.8652 11.3722C24.7367 10.8433 25.2238 9.63424 25.2294 9.62256C25.2407 9.62256 26.3579 10.1607 25.8652 11.3722Z" fill="white"/>
<path d="M18.2822 7.87333C18.4265 7.85034 18.5606 7.80752 18.6745 7.74815C18.7884 7.68877 18.8792 7.61424 18.9401 7.53023C19.001 7.44617 19.0304 7.35477 19.0264 7.26268C19.0222 7.17065 18.9845 7.08039 18.9161 6.99854C18.9161 6.99854 17.786 7.26672 18.2822 7.87118V7.87333Z" fill="white"/>
<path d="M21.868 9.62284C21.9115 9.55692 21.9431 9.48194 21.9608 9.4022C21.9785 9.32241 21.9821 9.23953 21.9713 9.15819C21.9605 9.07691 21.9356 8.99878 21.898 8.92842C21.8603 8.858 21.8107 8.7967 21.752 8.74805C21.707 8.81335 21.6742 8.88828 21.6556 8.96826C21.637 9.04824 21.633 9.13167 21.6439 9.2135C21.6547 9.29527 21.6802 9.37377 21.7187 9.44414C21.7572 9.5145 21.8081 9.5753 21.868 9.62284Z" fill="white"/>
<path d="M16.4152 11.2904C16.1892 10.176 15.5498 10.5616 15.5447 10.5638C15.5447 10.5638 15.7732 11.6782 16.4152 11.2904Z" fill="white"/>
<path d="M19.8921 10.4894C19.7694 10.4845 19.6491 10.4579 19.5386 10.4111C19.428 10.3643 19.3295 10.2985 19.249 10.2174C19.1683 10.1363 19.1075 10.0418 19.07 9.93957C19.0324 9.8373 19.0191 9.72946 19.0306 9.62256C19.1543 9.62734 19.2754 9.65424 19.3866 9.70146C19.4978 9.74875 19.5967 9.81534 19.6775 9.8973C19.7581 9.97925 19.8188 10.0747 19.8557 10.1779C19.8927 10.2811 19.905 10.3898 19.8921 10.4974V10.4894Z" fill="white"/>
<path d="M20.7677 10.4997C20.7679 10.6194 20.7452 10.7378 20.7008 10.8476C20.6564 10.9574 20.5913 11.0561 20.5096 11.1379C20.4279 11.2195 20.3314 11.2824 20.2261 11.3223C20.1207 11.3623 20.0088 11.3786 19.8972 11.3702C19.897 11.2506 19.9198 11.1322 19.9642 11.0224C20.0085 10.9126 20.0736 10.8137 20.1553 10.7321C20.237 10.6504 20.3335 10.5876 20.4389 10.5476C20.5442 10.5077 20.6562 10.4913 20.7677 10.4997Z" fill="white"/>
<path d="M19.0233 11.3724C18.0925 11.3137 18.1572 10.5059 18.1572 10.4976C18.1572 10.4976 19.0904 10.5624 19.0233 11.3724Z" fill="white"/>
<path d="M20.2691 10.4935C20.3047 10.4153 20.3249 10.3304 20.3285 10.2439C20.3322 10.1574 20.3191 10.071 20.2901 9.98988C20.261 9.9087 20.2167 9.8344 20.1597 9.77128C20.1026 9.70823 20.0339 9.65767 19.9578 9.62256C19.9216 9.70152 19.9011 9.78736 19.8977 9.87479C19.8943 9.96222 19.908 10.0495 19.938 10.1312C19.9679 10.213 20.0135 10.2876 20.072 10.3506C20.1305 10.4135 20.2006 10.4634 20.2783 10.4974L20.2691 10.4935Z" fill="white"/>
<path d="M22.4731 12.2471C22.5097 12.3396 22.518 12.4361 22.4973 12.5309C22.4766 12.6256 22.4274 12.7165 22.3528 12.7983C22.278 12.8799 22.1793 12.9508 22.0626 13.0063C21.9459 13.0619 21.8134 13.1012 21.6733 13.1219C21.6366 13.0293 21.6284 12.9327 21.649 12.8381C21.6697 12.7434 21.7189 12.6524 21.7936 12.5707C21.8682 12.489 21.9669 12.4182 22.0838 12.3626C22.2005 12.3069 22.3329 12.2677 22.4731 12.2471Z" fill="white"/>
<path d="M16.415 12.221C16.5098 12.2523 16.6081 12.2558 16.7039 12.2311C16.7996 12.2065 16.8909 12.1541 16.9722 12.0774C17.0536 12.0006 17.1232 11.9011 17.1771 11.7846C17.231 11.6681 17.2678 11.5372 17.2855 11.3997C17.1907 11.3678 17.0924 11.364 16.9965 11.3884C16.9006 11.4129 16.8092 11.4651 16.7278 11.5419C16.6464 11.6188 16.5767 11.7185 16.5229 11.8353C16.4691 11.952 16.4325 12.0832 16.415 12.221Z" fill="white"/>
<path d="M17.2856 12.2531C17.359 13.2047 18.15 13.1215 18.1561 13.1191C18.1561 13.1191 18.0787 12.1626 17.2856 12.2531Z" fill="white"/>
<path d="M10.3219 13.1281C10.2448 14.0822 9.45955 13.9964 9.45142 13.9939C9.45142 13.9939 9.53259 13.0374 10.3219 13.1281Z" fill="white"/>
<path d="M14.6743 12.1988C15.3584 12.4846 15.543 11.4155 15.5448 11.4069C15.5448 11.4069 14.8589 11.121 14.6743 12.1988Z" fill="white"/>
<path d="M12.9332 10.4492C12.2477 10.7333 12.0645 9.66783 12.0627 9.65644C12.0627 9.65644 12.7519 9.37237 12.9332 10.4492Z" fill="white"/>
<path d="M15.5431 12.2471C15.55 12.3585 15.5327 12.4701 15.4924 12.5751C15.4521 12.6802 15.3895 12.7765 15.3085 12.8582C15.2274 12.94 15.1295 13.0055 15.0208 13.0508C14.912 13.0961 14.7945 13.1203 14.6756 13.1219C14.6687 13.0104 14.6859 12.8988 14.7262 12.7938C14.7665 12.6887 14.8291 12.5925 14.9101 12.5107C14.9912 12.429 15.0891 12.3635 15.1979 12.3182C15.3066 12.2729 15.4241 12.2486 15.5431 12.2471Z" fill="white"/>
<path d="M24.2514 12.2471C24.2034 13.0737 25.1077 13.1203 25.1197 13.1219C25.1197 13.1219 25.1625 12.2906 24.2514 12.2471Z" fill="white"/>
<path d="M16.7917 10.4974C16.7155 10.464 16.6465 10.4145 16.5888 10.3518C16.5311 10.2891 16.486 10.2146 16.4561 10.1328C16.4264 10.0509 16.4125 9.9635 16.4154 9.87578C16.4183 9.78811 16.4379 9.7019 16.4731 9.62256C16.549 9.65638 16.6177 9.70615 16.6751 9.7689C16.7325 9.83165 16.7774 9.90611 16.8071 9.98778C16.8369 10.0694 16.8509 10.1567 16.8482 10.2443C16.8456 10.3318 16.8263 10.4179 16.7917 10.4974Z" fill="white"/>
<path d="M15.5445 14.1314C15.4884 14.1759 15.4209 14.2113 15.346 14.2355C15.2712 14.2597 15.1907 14.2722 15.1093 14.2722C15.0279 14.2722 14.9474 14.2597 14.8726 14.2355C14.7978 14.2113 14.7303 14.1759 14.6741 14.1314C14.7314 14.0877 14.7997 14.0533 14.875 14.0302C14.9504 14.0071 15.031 13.9956 15.1124 13.9966C15.1937 13.9977 15.2739 14.0111 15.3481 14.0361C15.4224 14.0611 15.4892 14.0972 15.5445 14.1421V14.1314Z" fill="white"/>
<path d="M20.7677 9.59379C20.6194 8.5561 19.9041 8.76441 19.8972 8.76643C19.8972 8.76643 20.0497 9.80811 20.7677 9.59379Z" fill="white"/>
<path d="M16.4191 18.3709C16.5419 18.3655 16.6622 18.3383 16.7727 18.2909C16.8833 18.2436 16.9818 18.177 17.0623 18.0953C17.1429 18.0136 17.2039 17.9184 17.2416 17.8154C17.2793 17.7124 17.293 17.6038 17.2817 17.4961C17.1588 17.5011 17.0384 17.5281 16.9276 17.5753C16.8168 17.6226 16.7182 17.6891 16.6375 17.7709C16.5568 17.8527 16.496 17.948 16.4584 18.0511C16.4209 18.1543 16.4075 18.263 16.4191 18.3709Z" fill="white"/>
<path d="M22.1788 11.3724C23.029 10.8877 21.9672 10.5022 21.957 10.4976C21.957 10.4976 21.1103 10.9868 22.1755 11.3724H22.1788Z" fill="white"/>
<path d="M11.1886 17.4959C10.2576 17.4359 10.3228 16.6288 10.3228 16.6211C10.3316 16.6211 11.2574 16.6841 11.1886 17.4959Z" fill="white"/>
<path d="M15.5448 15.641C14.9264 16.0879 14.6759 14.9691 14.6743 14.9578C14.6743 14.9578 15.2928 14.5137 15.5448 15.641Z" fill="white"/>
<path d="M20.552 18.3709C21.226 17.8257 20.1063 17.4987 20.0955 17.4961C20.0955 17.4961 19.4242 18.0451 20.552 18.3709Z" fill="white"/>
<path d="M9.44786 12.2474C8.51817 12.1869 8.5803 11.3788 8.58271 11.3726C8.58271 11.3726 9.51715 11.435 9.44786 12.2474Z" fill="white"/>
<path d="M17.2855 17.4747C17.1554 16.4569 16.4208 16.6314 16.415 16.634C16.415 16.634 16.549 17.6544 17.2855 17.4747Z" fill="white"/>
<path d="M13.0695 17.4961C13.0238 17.555 12.9882 17.6248 12.9648 17.7014C12.9414 17.7779 12.9308 17.8596 12.9335 17.9414C12.9363 18.0232 12.9524 18.1034 12.9808 18.1773C13.0093 18.2511 13.0495 18.317 13.099 18.3709C13.1447 18.312 13.1804 18.2422 13.2038 18.1656C13.2272 18.0891 13.2378 18.0074 13.235 17.9257C13.2323 17.8439 13.2162 17.7636 13.1877 17.6898C13.1593 17.6159 13.1191 17.5501 13.0695 17.4961Z" fill="white"/>
<path d="M23.3716 8.79591C23.2075 9.84271 22.5085 9.60365 22.5085 9.58996C22.5085 9.58996 22.6763 8.54047 23.379 8.78498L23.3716 8.79591Z" fill="white"/>
<path d="M17.2856 14.8228C17.9679 15.1087 18.1543 14.0395 18.1561 14.0309C18.1561 14.0309 17.4684 13.745 17.2856 14.8228Z" fill="white"/>
<path d="M22.5084 13.1244C22.5061 13.2459 22.4813 13.3655 22.4357 13.4759C22.3901 13.5865 22.3245 13.6855 22.243 13.7669C22.1614 13.8484 22.0657 13.9106 21.9616 13.9496C21.8576 13.9886 21.7474 14.0037 21.6379 13.994C21.6411 13.8729 21.6665 13.7537 21.7124 13.6437C21.7583 13.5337 21.8239 13.4351 21.9053 13.3539C21.9866 13.2727 22.082 13.2104 22.1856 13.171C22.2892 13.1316 22.3991 13.1157 22.5084 13.1244Z" fill="white"/>
<path d="M21.754 13.1221C21.8189 13.169 21.8741 13.2291 21.9164 13.2989C21.9587 13.3687 21.9873 13.4467 22.0003 13.5283C22.0134 13.6099 22.0107 13.6934 21.9925 13.774C21.9741 13.8544 21.9407 13.9302 21.894 13.9969C21.8287 13.9503 21.7731 13.8903 21.7304 13.8206C21.6878 13.7508 21.6591 13.6727 21.646 13.5909C21.6329 13.5092 21.6358 13.4254 21.6543 13.3449C21.6729 13.2643 21.7068 13.1885 21.754 13.1221Z" fill="white"/>
<path d="M7.71032 16.6855C7.50605 17.7794 6.84506 17.4506 6.83984 17.4463C6.83984 17.4463 7.04801 16.3481 7.71032 16.6855Z" fill="white"/>
<path d="M24.3564 16.6211C23.9038 17.246 25.0351 17.4871 25.0351 17.4959C25.0351 17.4959 25.4739 16.8711 24.3564 16.6286V16.6211Z" fill="white"/>
<path d="M10.2065 18.3709C10.0537 18.3372 9.91545 18.2875 9.79996 18.2248C9.68437 18.1621 9.59401 18.0876 9.5342 18.0059C9.4745 17.9241 9.4465 17.8368 9.45212 17.7492C9.45774 17.6616 9.49677 17.5755 9.56687 17.4961C9.71958 17.5298 9.85786 17.5794 9.97345 17.6422C10.0889 17.7049 10.1794 17.7794 10.2391 17.8611C10.2989 17.9429 10.3268 18.0301 10.3212 18.1177C10.3156 18.2054 10.2765 18.2915 10.2065 18.3709Z" fill="white"/>
<path d="M17.2856 16.1447C16.3828 15.2072 15.5539 16.218 15.5447 16.2285C15.5447 16.2285 16.4568 17.166 17.2856 16.1447Z" fill="white"/>
<path d="M21.642 18.3706C21.7655 18.3757 21.8865 18.4028 21.9977 18.4501C22.1089 18.4975 22.2078 18.5642 22.2884 18.6461C22.3691 18.7279 22.4297 18.8233 22.4668 18.9263C22.5037 19.0294 22.5163 19.138 22.5037 19.2454C22.3805 19.2394 22.26 19.2118 22.1493 19.1641C22.0387 19.1165 21.9402 19.0498 21.8597 18.9681C21.7793 18.8864 21.7185 18.7914 21.6811 18.6887C21.6436 18.586 21.6304 18.4779 21.642 18.3706Z" fill="white"/>
<path d="M25.3503 12.2471C25.402 12.3101 25.4407 12.3832 25.4641 12.4618C25.4874 12.5405 25.4949 12.6232 25.4862 12.7049C25.4774 12.7866 25.4525 12.8656 25.413 12.9372C25.3735 13.0089 25.3203 13.0717 25.2564 13.1219C25.2052 13.0584 25.1671 12.985 25.1443 12.9062C25.1215 12.8273 25.1146 12.7446 25.1239 12.6629C25.1332 12.5813 25.1585 12.5024 25.1983 12.431C25.2382 12.3595 25.2917 12.297 25.3558 12.2471H25.3503Z" fill="white"/>
<path d="M20.7676 17.626C21.1151 18.1787 21.633 17.806 21.6381 17.806C21.6381 17.806 21.2854 17.2514 20.7676 17.626Z" fill="white"/>
<path d="M18.1528 9.62256C17.2261 9.67965 17.2864 10.4904 17.2864 10.4974C17.296 10.4974 18.2179 10.436 18.1528 9.62256Z" fill="white"/>
<path d="M21.761 17.4961C21.8191 17.5456 21.8678 17.6079 21.904 17.6793C21.9403 17.7506 21.9634 17.8295 21.972 17.9113C21.9806 17.993 21.9745 18.0759 21.9541 18.1548C21.9336 18.2338 21.8993 18.3073 21.8531 18.3709C21.795 18.3213 21.7464 18.2591 21.7101 18.1878C21.6739 18.1165 21.6506 18.0377 21.6419 17.9561C21.6331 17.8744 21.639 17.7916 21.6591 17.7126C21.6793 17.6335 21.7133 17.5599 21.7592 17.4961H21.761Z" fill="white"/>
<path d="M22.5085 16.6521C23.2233 16.4305 23.3771 17.4686 23.379 17.4773C23.379 17.4773 22.6603 17.6932 22.5085 16.6521Z" fill="white"/>
<path d="M25.12 14.5407C24.7352 13.4671 24.2542 14.3116 24.2495 14.3223C24.2495 14.3223 24.6374 15.3959 25.12 14.5407Z" fill="white"/>
<path d="M25.9941 12.2471C26.9244 12.3073 26.86 13.1135 26.86 13.1219C26.86 13.1219 25.925 13.0574 25.9941 12.2471Z" fill="white"/>
<path d="M22.5084 15.7407C22.435 14.7903 21.644 14.8734 21.6379 14.8734C21.6379 14.8734 21.7154 15.8286 22.5084 15.7407Z" fill="white"/>
<path d="M23.3789 13.141C23.4688 13.1239 23.5635 13.1183 23.6571 13.1246C23.7507 13.1308 23.8412 13.1488 23.9229 13.1774C24.0046 13.2059 24.0757 13.2444 24.132 13.2905C24.1881 13.3366 24.2281 13.3893 24.2494 13.4453C24.1602 13.4609 24.0669 13.4655 23.9748 13.4585C23.8827 13.4516 23.7938 13.4334 23.7136 13.4049C23.6334 13.3765 23.5634 13.3385 23.5079 13.2931C23.4525 13.2477 23.4125 13.196 23.3907 13.141H23.3789Z" fill="white"/>
<path d="M22.5085 16.6373C22.5994 16.6217 22.6944 16.6173 22.7881 16.6244C22.8817 16.6316 22.972 16.6501 23.0534 16.6789C23.1348 16.7077 23.2057 16.7462 23.2617 16.7919C23.3176 16.8377 23.3575 16.8898 23.379 16.9452C23.2887 16.9608 23.1939 16.9654 23.1006 16.9584C23.0073 16.9515 22.9172 16.9333 22.8359 16.9048C22.7546 16.8764 22.6837 16.8384 22.6274 16.793C22.5711 16.7476 22.5307 16.6959 22.5085 16.6409V16.6373Z" fill="white"/>
<path d="M25.1199 16.1123C25.1333 16.0564 25.1666 16.0025 25.2179 15.9539C25.2692 15.9053 25.3375 15.8629 25.4186 15.8293C25.4999 15.7958 25.5923 15.7716 25.6904 15.7584C25.7887 15.7451 25.8907 15.743 25.9903 15.7522C25.9774 15.8082 25.9443 15.8622 25.8932 15.911C25.842 15.9597 25.7737 16.0021 25.6924 16.0358C25.6111 16.0694 25.5185 16.0935 25.4202 16.1066C25.3217 16.1198 25.2197 16.1217 25.1199 16.1123Z" fill="white"/>
<path d="M22.882 16.6211C21.9761 17.0853 23.0018 17.4927 23.0124 17.4959C23.0124 17.4959 23.9184 17.0221 22.882 16.6211Z" fill="white"/>
<path d="M25.9906 17.4327C25.7895 16.3406 25.1274 16.6656 25.1201 16.6686C25.1201 16.6686 25.3267 17.7666 25.9906 17.4327Z" fill="white"/>
<path d="M25.1201 12.1836C25.3244 11.0875 25.9841 11.4184 25.9906 11.4227C25.9906 11.4227 25.7824 12.5189 25.1201 12.1836Z" fill="white"/>
<path d="M12.8123 13.9966C11.6797 14.2621 12.166 14.8659 12.1694 14.8714C12.1694 14.8714 13.302 14.6022 12.8088 13.9966H12.8123Z" fill="white"/>
<path d="M6.96328 15.7466C8.09357 16.0142 7.60551 16.6162 7.60551 16.6214C7.60551 16.6214 6.47207 16.3521 6.96328 15.7466Z" fill="white"/>
<path d="M20.7712 11.3726C21.7023 11.434 21.6371 12.2397 21.6371 12.2474C21.6371 12.2474 20.7024 12.1829 20.7712 11.3726Z" fill="white"/>
<path d="M25.0391 10.4976C25.4221 11.1436 24.3216 11.3698 24.3128 11.3724C24.3128 11.3724 23.9319 10.7263 25.0391 10.4976Z" fill="white"/>
<path d="M23.0523 10.4976C23.8982 11.4705 22.8357 12.2401 22.8253 12.2472C22.8253 12.2472 21.9794 11.2671 23.0523 10.4976Z" fill="white"/>
<path d="M19.8971 12.371C19.2915 11.8794 19.0283 13.008 19.0266 13.0173C19.0266 13.0173 19.6354 13.5058 19.8971 12.371Z" fill="white"/>
<path d="M23.9311 12.2471C22.8535 12.629 23.6841 13.1177 23.6903 13.1219C23.6903 13.1219 24.7678 12.7371 23.9311 12.2471Z" fill="white"/>
<path d="M24.4081 13.1221C24.9349 13.505 24.526 13.9918 24.5223 13.9969C24.5223 13.9969 23.9937 13.6088 24.4081 13.1221Z" fill="white"/>
<path d="M14.671 11.3726C13.7434 11.4289 13.8028 12.2411 13.8052 12.2474C13.8052 12.2474 14.7352 12.1868 14.671 11.3726Z" fill="white"/>
<path d="M19.0343 12.2471C19.161 12.2559 19.2843 12.2859 19.3967 12.3352C19.509 12.3845 19.6082 12.4521 19.688 12.5338C19.7679 12.6155 19.8269 12.7098 19.8616 12.8108C19.8962 12.9119 19.9056 13.0177 19.8893 13.1219C19.7626 13.1129 19.6394 13.0829 19.527 13.0337C19.4147 12.9844 19.3156 12.9169 19.2357 12.8351C19.1557 12.7534 19.0967 12.6591 19.0621 12.5581C19.0276 12.457 19.0181 12.3512 19.0343 12.2471Z" fill="white"/>
<path d="M12.9331 10.5514C13.0098 10.5211 13.0938 10.5032 13.1797 10.4987C13.2657 10.4942 13.3519 10.5032 13.4332 10.5252C13.5146 10.5473 13.5893 10.5819 13.653 10.6269C13.7166 10.672 13.7678 10.7265 13.8036 10.7873C13.7268 10.8176 13.6429 10.8356 13.557 10.8401C13.471 10.8446 13.3847 10.8355 13.3035 10.8135C13.2221 10.7915 13.1473 10.7569 13.0837 10.7118C13.02 10.6668 12.9689 10.6122 12.9331 10.5514Z" fill="white"/>
<path d="M21.0915 8.74784C22.1636 8.36434 21.329 7.8778 21.322 7.87305C21.322 7.87305 20.2464 8.25974 21.0915 8.74784Z" fill="white"/>
<path d="M5.96948 14.124C6.57225 13.6226 6.83826 14.7627 6.83996 14.7627C6.83996 14.7627 6.23384 15.2609 5.96948 14.124Z" fill="white"/>
<path d="M20.7677 9.67123C20.0854 9.38536 19.899 10.4516 19.8972 10.463C19.8972 10.463 20.5849 10.7488 20.7677 9.67123Z" fill="white"/>
<path d="M22.53 9.62284C22.5824 9.59762 22.6313 9.5547 22.6736 9.49638C22.7159 9.43815 22.7507 9.36592 22.7761 9.28405C22.8014 9.20227 22.8167 9.11252 22.8209 9.02036C22.8251 8.9282 22.8182 8.83557 22.8007 8.74805C22.7483 8.77317 22.6994 8.81619 22.6571 8.87451C22.6147 8.93274 22.5799 9.00497 22.5546 9.08675C22.5292 9.16862 22.514 9.25837 22.5098 9.35053C22.5055 9.44269 22.5124 9.53532 22.53 9.62284Z" fill="white"/>
<path d="M12.9926 10.4957C12.6722 9.82407 13.7501 9.62595 13.761 9.62256C13.761 9.62256 14.076 10.2942 12.9926 10.4974V10.4957Z" fill="white"/>
<path d="M24.9959 14.8716C23.8672 15.1365 24.3526 15.7464 24.3572 15.7464C24.3572 15.7464 25.4882 15.4777 24.9959 14.8716Z" fill="white"/>
<path d="M20.0223 7.87305C21.1521 8.14059 20.6635 8.74182 20.6578 8.74784C20.6578 8.74784 19.5281 8.47727 20.0223 7.87305Z" fill="white"/>
<path d="M24.5568 11.3724C24.4876 11.3322 24.4266 11.2773 24.3776 11.2111C24.3284 11.1449 24.2922 11.0687 24.2711 10.987C24.2499 10.9053 24.2442 10.8199 24.2544 10.7358C24.2646 10.6517 24.2904 10.5707 24.3302 10.4976C24.3996 10.5376 24.4608 10.5923 24.51 10.6585C24.5592 10.7247 24.5956 10.8009 24.6167 10.8827C24.6379 10.9644 24.6435 11.05 24.6332 11.1342C24.6229 11.2183 24.5969 11.2993 24.5568 11.3724Z" fill="white"/>
<path d="M19.3173 16.6214C19.2469 16.5776 19.186 16.5198 19.1384 16.4515C19.0907 16.3832 19.0573 16.3058 19.04 16.2239C19.0228 16.1421 19.0222 16.0577 19.0382 15.9756C19.0541 15.8935 19.0864 15.8156 19.1331 15.7466C19.2035 15.7904 19.2644 15.8482 19.312 15.9165C19.3597 15.9848 19.3932 16.0622 19.4104 16.144C19.4276 16.2258 19.4282 16.3103 19.4123 16.3924C19.3962 16.4744 19.3639 16.5524 19.3173 16.6214Z" fill="white"/>
<path d="M13.807 14.8714C14.7339 14.8144 14.6734 14.0045 14.6734 13.9966C14.6734 13.9966 13.7419 14.0575 13.807 14.8714Z" fill="white"/>
<path d="M10.3254 14.8714C11.2562 14.8146 11.1913 14.0042 11.1913 13.9966C11.1913 13.9966 10.2562 14.0572 10.3254 14.8714Z" fill="white"/>
<path d="M8.62878 12.2474C8.34654 11.5577 9.40776 11.3726 9.41901 11.3726C9.41901 11.3726 9.69676 12.0666 8.62878 12.2474Z" fill="white"/>
<path d="M8.58447 15.7443C9.51254 15.686 9.45068 14.8778 9.45068 14.8716C9.45068 14.8716 8.5178 14.9341 8.58447 15.7464V15.7443Z" fill="white"/>
<path d="M10.3182 16.6214C9.39026 16.563 9.45228 15.7549 9.45228 15.7466C9.45228 15.7466 10.3874 15.8091 10.3182 16.6214Z" fill="white"/>
<path d="M12.9312 17.5021C12.8561 18.4546 12.0688 18.3689 12.0627 18.3689C12.0627 18.3689 12.1439 17.4115 12.9332 17.5021H12.9312Z" fill="white"/>
<path d="M12.9332 12.2531C12.8581 13.2072 12.0709 13.1214 12.0627 13.1189C12.0627 13.1189 12.1439 12.1624 12.9332 12.2531Z" fill="white"/>
<path d="M8.58081 17.5021C8.65408 18.4537 9.44314 18.3705 9.45129 18.3681C9.45129 18.3681 9.37192 17.4116 8.58081 17.5021Z" fill="white"/>
<path d="M7.70689 14.8714C6.77636 14.811 6.8408 14.0028 6.8408 13.9966C6.8408 13.9966 7.77373 14.0611 7.70689 14.8714Z" fill="white"/>
<path d="M6.86359 15.7464C7.88498 15.6089 7.69665 14.8773 7.69665 14.8716C7.69665 14.8716 6.67258 15.0129 6.86359 15.7464Z" fill="white"/>
<path d="M7.71045 16.6767C7.73553 16.8226 7.77833 16.9586 7.8361 17.0767C7.89392 17.1947 7.96564 17.2923 8.04691 17.3636C8.12825 17.4349 8.21744 17.4785 8.30921 17.4916C8.40097 17.5048 8.49337 17.4874 8.58093 17.4403C8.55585 17.2944 8.51311 17.1584 8.45528 17.0403C8.39745 16.9223 8.32574 16.8247 8.24446 16.7534C8.16313 16.6821 8.07394 16.6385 7.98217 16.6254C7.89047 16.6121 7.79801 16.6296 7.71045 16.6767Z" fill="white"/>
<path d="M8.03055 17.4961C8.07695 17.567 8.10811 17.6464 8.12221 17.7294C8.13631 17.8125 8.13297 17.8974 8.11253 17.9791C8.09204 18.0609 8.05481 18.1377 8.00306 18.205C7.9513 18.2724 7.88609 18.3288 7.81138 18.3709C7.76475 18.3 7.73338 18.2207 7.71917 18.1376C7.70491 18.0545 7.70818 17.9695 7.72868 17.8876C7.74918 17.8059 7.78651 17.7289 7.83838 17.6617C7.8903 17.5943 7.95567 17.538 8.03055 17.4961Z" fill="white"/>
<path d="M7.83619 13.9969C8.96326 13.7319 8.47759 13.1221 8.4729 13.1221C8.4729 13.1221 7.34348 13.3907 7.83384 13.9969H7.83619Z" fill="white"/>
<path d="M13.2572 12.2474C13.1924 12.2138 13.1335 12.1643 13.0842 12.1018C13.0349 12.0392 12.9961 11.965 12.9702 11.8835C12.9443 11.8019 12.9317 11.7146 12.9332 11.6269C12.9348 11.5391 12.9504 11.4526 12.9791 11.3726C13.0442 11.4058 13.1032 11.4552 13.1526 11.5177C13.202 11.5801 13.2409 11.6545 13.2669 11.7361C13.2928 11.8177 13.3053 11.9051 13.3037 11.9929C13.302 12.0808 13.2862 12.1673 13.2572 12.2474Z" fill="white"/>
<path d="M13.2578 7.87333C13.1924 7.83985 13.1331 7.7903 13.0835 7.72767C13.0339 7.6651 12.995 7.59068 12.9693 7.509C12.9435 7.42726 12.9312 7.33989 12.9333 7.25218C12.9354 7.16447 12.9518 7.07818 12.9815 6.99854C13.0468 7.03222 13.1058 7.08191 13.1552 7.14461C13.2047 7.2073 13.2433 7.2818 13.2689 7.36347C13.2946 7.44515 13.3066 7.53239 13.3044 7.62003C13.3022 7.70767 13.2857 7.79382 13.2559 7.87333H13.2578Z" fill="white"/>
<path d="M23.6052 7.87333C23.6491 7.80751 23.6808 7.73252 23.6987 7.65273C23.7166 7.573 23.7203 7.49001 23.7095 7.40868C23.6987 7.32729 23.6737 7.24916 23.6359 7.17878C23.598 7.10835 23.5482 7.04707 23.4892 6.99854C23.4454 7.06436 23.4136 7.13935 23.3957 7.21908C23.3778 7.29887 23.3742 7.38186 23.385 7.46319C23.3958 7.54458 23.4208 7.6227 23.4586 7.69308C23.4964 7.76352 23.5462 7.82479 23.6052 7.87333Z" fill="#92CCBF" fill-opacity="0.6"/>
<path d="M18.1561 9.54009C17.9301 8.42618 17.2921 8.81161 17.2856 8.81604C17.2856 8.81604 17.5155 9.92989 18.1561 9.54009Z" fill="#92CCBF" fill-opacity="0.6"/>
<path d="M21.6331 8.74784C21.5097 8.74298 21.3887 8.71616 21.2776 8.66887C21.1665 8.62165 21.0675 8.55499 20.987 8.47311C20.9063 8.39115 20.8457 8.29562 20.8088 8.19249C20.772 8.08928 20.7596 7.98057 20.7725 7.87305C20.8959 7.87783 21.0169 7.90473 21.128 7.95195C21.2392 7.99924 21.338 8.06582 21.4187 8.14778C21.4992 8.22974 21.5599 8.32519 21.5967 8.4284C21.6336 8.53162 21.646 8.64032 21.6331 8.74784Z" fill="#92CCBF" fill-opacity="0.6"/>
<path d="M22.5084 9.62469C22.5087 9.74438 22.4859 9.86279 22.4415 9.97258C22.3971 10.0824 22.332 10.1811 22.2504 10.2629C22.1687 10.3445 22.0722 10.4073 21.9668 10.4473C21.8614 10.4873 21.7495 10.5036 21.6379 10.4952C21.6377 10.3756 21.6605 10.2572 21.7049 10.1474C21.7492 10.0376 21.8143 9.93874 21.896 9.8571C21.9777 9.77538 22.0742 9.71261 22.1796 9.67265C22.2849 9.63261 22.3969 9.61633 22.5084 9.62469Z" fill="#92CCBF" fill-opacity="0.6"/>
<path d="M20.7642 9.62284C19.8334 9.56231 19.8982 8.75641 19.8982 8.74805C19.8982 8.74805 20.8314 8.81279 20.7642 9.62284Z" fill="#92CCBF" fill-opacity="0.6"/>
<path d="M22.3902 9.62284C22.4612 9.54377 22.5011 9.45797 22.5075 9.37058C22.514 9.28314 22.4868 9.19598 22.4276 9.11422C22.3686 9.03253 22.2787 8.95795 22.1635 8.89504C22.0484 8.83208 21.9102 8.78209 21.7574 8.74805C21.686 8.82707 21.6456 8.91292 21.6389 9.00042C21.6322 9.08792 21.6593 9.1752 21.7185 9.25701C21.7776 9.33882 21.8677 9.4134 21.9832 9.4763C22.0987 9.53916 22.2371 9.58903 22.3902 9.62284Z" fill="#92CCBF" fill-opacity="0.6"/>
<path d="M14.6381 8.74805C14.6753 8.84072 14.6838 8.93741 14.6633 9.0324C14.6429 9.12732 14.5938 9.21849 14.519 9.30033C14.4443 9.3821 14.3455 9.4529 14.2285 9.50837C14.1116 9.56383 13.9791 9.60281 13.839 9.62284C13.8024 9.53024 13.7941 9.43362 13.8148 9.33876C13.8356 9.24391 13.8847 9.15294 13.9593 9.07117C14.034 8.9894 14.1327 8.9186 14.2493 8.86307C14.3659 8.80753 14.4983 8.76842 14.6381 8.74805Z" fill="#92CCBF" fill-opacity="0.6"/>
<path d="M18.1562 10.4709C18.251 10.5024 18.3493 10.5058 18.445 10.4811C18.5408 10.4564 18.6321 10.404 18.7134 10.3272C18.7947 10.2503 18.8644 10.1505 18.9183 10.0339C18.9721 9.91723 19.009 9.78605 19.0267 9.64829C18.9321 9.61738 18.8341 9.61428 18.7386 9.63918C18.6431 9.66418 18.5521 9.71659 18.471 9.79341C18.3899 9.87024 18.3205 9.96983 18.2668 10.0863C18.2131 10.2027 18.1763 10.3335 18.1585 10.4709H18.1562Z" fill="#92CCBF" fill-opacity="0.6"/>
<path d="M19.0266 10.5033C19.1 11.4536 19.891 11.3705 19.8971 11.3705C19.8971 11.3705 19.8196 10.4153 19.0266 10.5033Z" fill="#92CCBF" fill-opacity="0.6"/>
<path d="M11.5043 12.2471C12.5858 12.6249 11.765 13.1171 11.7581 13.1219C11.7581 13.1219 10.6766 12.7408 11.5043 12.2471Z" fill="#92CCBF" fill-opacity="0.6"/>
<path d="M14.1161 6.12354C15.196 6.50049 14.3774 6.99356 14.3704 6.99833C14.3704 6.99833 13.287 6.61661 14.1161 6.12354Z" fill="#92CCBF" fill-opacity="0.6"/>
<path d="M16.415 10.449C17.0977 10.7339 17.2837 9.6681 17.2855 9.65668C17.2855 9.65668 16.5992 9.37168 16.415 10.449Z" fill="#92CCBF" fill-opacity="0.6"/>
<path d="M14.6742 9.57496C13.9887 9.85819 13.8055 8.793 13.8037 8.78174C13.8037 8.78174 14.4928 8.49842 14.6742 9.57496Z" fill="#92CCBF" fill-opacity="0.6"/>
<path d="M14.6742 11.4308C14.4738 12.5296 13.8102 12.2015 13.8037 12.2015C13.8037 12.2015 14.0119 11.0983 14.6742 11.4373V11.4308Z" fill="#92CCBF" fill-opacity="0.6"/>
<path d="M25.9923 10.4976C25.9443 11.3242 26.8486 11.3724 26.8606 11.3724C26.8606 11.3724 26.9034 10.5411 25.9923 10.4976Z" fill="#92CCBF" fill-opacity="0.6"/>
<path d="M18.5329 8.74784C18.4567 8.71449 18.3877 8.66496 18.33 8.60227C18.2723 8.53958 18.2272 8.46507 18.1974 8.38329C18.1676 8.30145 18.1537 8.21403 18.1566 8.12631C18.1595 8.03859 18.1791 7.95244 18.2143 7.87305C18.2904 7.90669 18.3592 7.95634 18.4168 8.01903C18.4743 8.08172 18.5193 8.15623 18.5491 8.23795C18.5789 8.31973 18.5928 8.40704 18.5901 8.49464C18.5873 8.5823 18.5678 8.66845 18.5329 8.74784Z" fill="#92CCBF" fill-opacity="0.6"/>
<path d="M17.2855 12.3935C17.2284 12.4374 17.1601 12.472 17.0847 12.4953C17.0094 12.5186 16.9286 12.5301 16.8472 12.5291C16.7659 12.5281 16.6856 12.5146 16.6113 12.4895C16.537 12.4643 16.4703 12.428 16.415 12.3827C16.4722 12.3388 16.5405 12.3042 16.6158 12.2809C16.6912 12.2576 16.772 12.2461 16.8533 12.2471C16.9347 12.2481 17.015 12.2616 17.0892 12.2868C17.1636 12.3119 17.2303 12.3483 17.2855 12.3935Z" fill="#92CCBF" fill-opacity="0.6"/>
<path d="M22.4748 7.87333C22.7073 7.15996 21.6591 6.99989 21.6591 6.99854C21.6591 6.99854 21.4307 7.71605 22.4748 7.87333Z" fill="#92CCBF" fill-opacity="0.6"/>
<path d="M17.2889 16.6214C18.2149 16.5629 18.1553 15.7543 18.1553 15.7466C18.1553 15.7466 17.224 15.8082 17.2889 16.6214Z" fill="#92CCBF" fill-opacity="0.6"/>
<path d="M23.9178 9.62284C24.7714 9.13737 23.7087 8.75118 23.6985 8.74805C23.6985 8.74805 22.8484 9.23665 23.9212 9.62284H23.9178Z" fill="#92CCBF" fill-opacity="0.6"/>
<path d="M12.9296 15.7464C11.9985 15.6865 12.0637 14.8793 12.0637 14.8716C12.0637 14.8716 12.9984 14.936 12.9296 15.7464Z" fill="#92CCBF" fill-opacity="0.6"/>
<path d="M17.2855 13.8906C16.6671 14.34 16.4182 13.2195 16.415 13.2083C16.415 13.2083 17.0335 12.7646 17.2855 13.8906Z" fill="#92CCBF" fill-opacity="0.6"/>
<path d="M23.1648 16.6214C23.836 16.0763 22.7165 15.7492 22.7057 15.7466C22.7057 15.7466 22.0372 16.2956 23.1621 16.6214H23.1648Z" fill="#92CCBF" fill-opacity="0.6"/>
<path d="M11.1886 11.3724C10.2584 11.3121 10.3227 10.5059 10.3227 10.4976C10.3227 10.4976 11.2578 10.5619 11.1886 11.3724Z" fill="#92CCBF" fill-opacity="0.6"/>
<path d="M16.4182 15.7464C17.3465 15.688 17.2847 14.8799 17.2847 14.8716C17.2847 14.8716 16.3539 14.9341 16.4182 15.7464Z" fill="#92CCBF" fill-opacity="0.6"/>
<path d="M14.2292 14.0131C14.1865 13.9993 14.1414 13.9941 14.0966 13.9977C14.0518 14.0013 14.0082 14.0138 13.9685 14.0343C13.9288 14.0548 13.8937 14.083 13.8654 14.1171C13.8371 14.1512 13.8161 14.1906 13.8037 14.2328C13.8463 14.2469 13.8915 14.2524 13.9364 14.2489C13.9812 14.2454 14.0249 14.233 14.0647 14.2124C14.1045 14.1918 14.1396 14.1636 14.1679 14.1293C14.1961 14.0951 14.217 14.0556 14.2292 14.0131Z" fill="#92CCBF" fill-opacity="0.6"/>
<path d="M24.2494 7.0347C24.0852 8.08161 23.3863 7.859 23.3789 7.84253C23.3789 7.84253 23.5468 6.79293 24.2494 7.0347Z" fill="#92CCBF" fill-opacity="0.6"/>
<path d="M18.1562 13.0735C18.8385 13.3584 19.0249 12.2926 19.0267 12.2813C19.0267 12.2813 18.339 11.9963 18.1562 13.0707V13.0735Z" fill="#92CCBF" fill-opacity="0.6"/>
<path d="M24.2494 12.2496C24.2464 12.3719 24.2211 12.4922 24.175 12.6031C24.1289 12.714 24.0631 12.8132 23.9816 12.8946C23.9001 12.976 23.8046 13.0377 23.7009 13.0763C23.5972 13.1148 23.4877 13.1291 23.3789 13.1185C23.3816 12.9973 23.4062 12.878 23.4513 12.7679C23.4965 12.6577 23.5612 12.5591 23.6414 12.4778C23.7216 12.3965 23.8158 12.3344 23.9181 12.2952C24.0205 12.2559 24.1289 12.2405 24.2368 12.2496H24.2494Z" fill="#92CCBF" fill-opacity="0.6"/>
<path d="M23.495 11.3726C23.5602 11.4191 23.6159 11.4791 23.6585 11.5488C23.7011 11.6186 23.7298 11.6967 23.7429 11.7785C23.756 11.8603 23.7532 11.944 23.7346 12.0245C23.7161 12.1051 23.6822 12.181 23.6349 12.2474C23.5696 12.2008 23.514 12.1409 23.4714 12.0711C23.4288 12.0013 23.4001 11.9232 23.387 11.8414C23.3739 11.7596 23.3767 11.676 23.3953 11.5954C23.4139 11.5148 23.4477 11.439 23.495 11.3726Z" fill="#92CCBF" fill-opacity="0.6"/>
<path d="M9.45129 15.8104C9.24702 16.9065 8.58734 16.5755 8.58081 16.5712C8.58081 16.5712 8.78898 15.475 9.45129 15.8104Z" fill="#92CCBF" fill-opacity="0.6"/>
<path d="M26.0973 14.8716C25.6448 15.5009 26.776 15.7439 26.776 15.7464C26.776 15.7464 27.2149 15.117 26.0973 14.8716Z" fill="#92CCBF" fill-opacity="0.6"/>
<path d="M11.9358 16.6214C10.8065 16.3563 11.2985 15.7541 11.3021 15.7466C11.3021 15.7466 12.435 16.0173 11.9358 16.6214Z" fill="#92CCBF" fill-opacity="0.6"/>
<path d="M19.0266 14.3947C18.1237 13.4572 17.2949 14.468 17.2856 14.4785C17.2856 14.4785 18.1978 15.4159 19.0266 14.3947Z" fill="#92CCBF" fill-opacity="0.6"/>
<path d="M23.3791 16.6211C23.4408 16.6263 23.5012 16.6534 23.5568 16.7007C23.6123 16.7479 23.6617 16.8145 23.7022 16.8962C23.7427 16.978 23.7732 17.0733 23.7921 17.1764C23.811 17.2795 23.8177 17.3881 23.8119 17.4959C23.7503 17.4902 23.6901 17.4629 23.6348 17.4154C23.5794 17.3679 23.5302 17.3013 23.4899 17.2196C23.4497 17.1379 23.4192 17.0428 23.4005 16.9399C23.3818 16.837 23.3751 16.7286 23.3809 16.6211H23.3791Z" fill="#92CCBF" fill-opacity="0.6"/>
<path d="M27.0987 10.4976C27.1498 10.5612 27.1878 10.6346 27.2104 10.7136C27.233 10.7925 27.2398 10.8752 27.2303 10.9569C27.2209 11.0385 27.1954 11.1174 27.1554 11.1888C27.1153 11.2602 27.0616 11.3226 26.9974 11.3724C26.9461 11.3088 26.9079 11.2354 26.8851 11.1565C26.8623 11.0775 26.8555 10.9947 26.865 10.913C26.8744 10.8312 26.9 10.7523 26.9402 10.6809C26.9803 10.6095 27.0343 10.5471 27.0987 10.4976Z" fill="#92CCBF" fill-opacity="0.6"/>
<path d="M22.5085 15.8757C22.8577 16.4285 23.374 16.0558 23.379 16.0558C23.379 16.0558 23.0265 15.503 22.5085 15.8757Z" fill="#92CCBF" fill-opacity="0.6"/>
<path d="M19.8954 7.87445C18.9685 7.93285 19.0274 8.74784 19.0274 8.74784C19.0353 8.74784 19.959 8.68527 19.8938 7.87305L19.8954 7.87445Z" fill="#92CCBF" fill-opacity="0.6"/>
<path d="M23.5023 16.6211C23.5606 16.6704 23.6094 16.7326 23.6458 16.8039C23.6822 16.8752 23.7054 16.9542 23.714 17.0361C23.7227 17.1179 23.7165 17.2009 23.6959 17.28C23.6753 17.359 23.6408 17.4324 23.5944 17.4959C23.5361 17.4466 23.4873 17.3844 23.4509 17.3131C23.4145 17.2417 23.3913 17.1627 23.3827 17.0809C23.3741 16.9991 23.3802 16.9161 23.4008 16.8371C23.4214 16.758 23.4559 16.6845 23.5023 16.6211Z" fill="#92CCBF" fill-opacity="0.6"/>
<path d="M24.2495 15.7768C24.9642 15.5587 25.118 16.5914 25.12 16.603C25.12 16.603 24.4012 16.8183 24.2495 15.7768Z" fill="#92CCBF" fill-opacity="0.6"/>
<path d="M26.861 12.7903C26.4762 11.7159 25.9952 12.5656 25.9905 12.5727C25.9905 12.5727 26.3784 13.6471 26.861 12.7903Z" fill="#92CCBF" fill-opacity="0.6"/>
<path d="M27.7351 10.4976C28.6654 10.5578 28.601 11.364 28.601 11.3724C28.601 11.3724 27.6659 11.3079 27.7351 10.4976Z" fill="#92CCBF" fill-opacity="0.6"/>
<path d="M21.6379 15.74C21.715 14.7854 22.5003 14.8737 22.5084 14.8737C22.5084 14.8737 22.4272 15.8332 21.6379 15.74Z" fill="#92CCBF" fill-opacity="0.6"/>
<path d="M23.379 14.8653C23.3056 13.9138 22.5147 13.9969 22.5085 13.9994C22.5085 13.9994 22.586 14.9558 23.379 14.8653Z" fill="#92CCBF" fill-opacity="0.6"/>
<path d="M25.1199 12.2634C25.2104 12.2478 25.3052 12.2433 25.3987 12.2502C25.4921 12.2572 25.5823 12.2755 25.6637 12.3039C25.745 12.3323 25.8159 12.3704 25.8721 12.4157C25.9283 12.4611 25.9684 12.5128 25.9903 12.5677C25.8998 12.5837 25.8049 12.5884 25.7113 12.5815C25.6176 12.5747 25.5274 12.5565 25.4459 12.528C25.3644 12.4996 25.2935 12.4614 25.2375 12.4159C25.1813 12.3704 25.1413 12.3185 25.1199 12.2634Z" fill="#92CCBF" fill-opacity="0.6"/>
<path d="M24.2495 14.888C24.3399 14.8723 24.4346 14.8678 24.528 14.8747C24.6213 14.8817 24.7113 14.8999 24.7927 14.9283C24.874 14.9567 24.9449 14.9948 25.0011 15.0402C25.0574 15.0855 25.0978 15.1373 25.12 15.1923C25.0296 15.208 24.9349 15.2125 24.8416 15.2056C24.7482 15.1986 24.6582 15.1804 24.5769 15.152C24.4956 15.1236 24.4247 15.0855 24.3684 15.0402C24.3121 14.9948 24.2717 14.943 24.2495 14.888Z" fill="#92CCBF" fill-opacity="0.6"/>
<path d="M26.8608 14.3629C26.8734 14.3067 26.9061 14.2526 26.9572 14.2037C27.0082 14.1548 27.0765 14.1123 27.1579 14.0786C27.2393 14.045 27.3322 14.0209 27.4307 14.0078C27.5292 13.9948 27.6315 13.993 27.7313 14.0028C27.7189 14.0589 27.6862 14.1131 27.6351 14.1619C27.584 14.2107 27.5157 14.2533 27.4342 14.287C27.3529 14.3207 27.2601 14.3448 27.1616 14.3578C27.0629 14.3708 26.9606 14.3726 26.8608 14.3629Z" fill="#92CCBF" fill-opacity="0.6"/>
<path d="M23.7523 14.8716C22.8464 15.335 23.8722 15.7417 23.8828 15.7464C23.8828 15.7464 24.7887 15.2735 23.7523 14.8716Z" fill="#92CCBF" fill-opacity="0.6"/>
<path d="M27.7313 15.687C27.5301 14.5907 26.8682 14.9159 26.8608 14.919C26.8608 14.919 27.0675 16.0153 27.7313 15.684V15.687Z" fill="#92CCBF" fill-opacity="0.6"/>
<path d="M25.9905 10.4329C26.1948 9.33907 26.8557 9.66785 26.861 9.67219C26.861 9.67219 26.6528 10.7704 25.9905 10.4329Z" fill="#92CCBF" fill-opacity="0.6"/>
<path d="M14.5613 12.2471C14.4085 12.2803 14.2701 12.3297 14.1543 12.3922C14.0385 12.4548 13.9477 12.5293 13.8876 12.6111C13.8275 12.6929 13.7991 12.7803 13.8043 12.8681C13.8095 12.9559 13.8481 13.0423 13.9179 13.1219C14.0702 13.0884 14.2083 13.039 14.3238 12.9763C14.4394 12.9137 14.5299 12.8393 14.59 12.7576C14.6502 12.6759 14.6786 12.5885 14.6736 12.5007C14.6687 12.413 14.6305 12.3267 14.5613 12.2471Z" fill="#92CCBF" fill-opacity="0.6"/>
<path d="M8.70429 13.9966C9.83455 14.2625 9.34646 14.8645 9.34646 14.8714C9.34646 14.8714 8.21297 14.6004 8.70429 13.9966Z" fill="#92CCBF" fill-opacity="0.6"/>
<path d="M12.0646 8.74805C12.9958 8.80789 12.9323 9.61515 12.9323 9.62284C12.9323 9.62284 11.9975 9.55835 12.0664 8.74805H12.0646Z" fill="#92CCBF" fill-opacity="0.6"/>
<path d="M26.78 8.74805C27.1631 9.39415 26.0626 9.62154 26.0538 9.62284C26.0538 9.62284 25.6729 8.97678 26.78 8.74805Z" fill="#92CCBF" fill-opacity="0.6"/>
<path d="M24.7932 8.74805C25.6392 9.72001 24.5766 10.4906 24.5663 10.4976C24.5663 10.4976 23.7204 9.51629 24.7932 8.74805Z" fill="#92CCBF" fill-opacity="0.6"/>
<path d="M20.7677 10.6211C20.1638 10.131 19.9005 11.2561 19.8972 11.2684C19.8972 11.2684 20.5061 11.7554 20.7677 10.6211Z" fill="#92CCBF" fill-opacity="0.6"/>
<path d="M25.6712 10.4976C24.5953 10.8781 25.4245 11.3681 25.4308 11.3724C25.4308 11.3724 26.5097 10.9877 25.6712 10.4976Z" fill="#92CCBF" fill-opacity="0.6"/>
<path d="M26.1491 11.3726C26.6777 11.7562 26.267 12.2422 26.2633 12.2474C26.2633 12.2474 25.7347 11.8603 26.1491 11.3726Z" fill="#92CCBF" fill-opacity="0.6"/>
<path d="M16.412 9.62256C15.4837 9.68085 15.5455 10.489 15.5455 10.4974C15.5455 10.4974 16.4762 10.4349 16.412 9.62256Z" fill="#92CCBF" fill-opacity="0.6"/>
<path d="M19.9045 10.4976C20.0312 10.5061 20.1545 10.5358 20.2669 10.585C20.3792 10.6341 20.4783 10.7016 20.5584 10.7833C20.6384 10.8652 20.6974 10.9595 20.7321 11.0607C20.7667 11.162 20.7763 11.268 20.76 11.3724C20.6335 11.3634 20.5105 11.3334 20.3984 11.2841C20.2863 11.2348 20.1873 11.1674 20.1074 11.0857C20.0275 11.0039 19.9684 10.9098 19.9336 10.8087C19.8986 10.7077 19.8887 10.6019 19.9045 10.4976Z" fill="#92CCBF" fill-opacity="0.6"/>
<path d="M14.6741 8.80068C14.7512 8.7707 14.8353 8.75312 14.9213 8.74901C15.0073 8.74484 15.0935 8.75425 15.1747 8.77658C15.256 8.79892 15.3306 8.83381 15.3942 8.87907C15.4577 8.92438 15.5088 8.97915 15.5445 9.04017C15.4676 9.0702 15.3836 9.08789 15.2978 9.09216C15.2118 9.09644 15.1257 9.08719 15.0445 9.06502C14.9632 9.04284 14.8886 9.00816 14.8249 8.96307C14.7613 8.91797 14.71 8.86336 14.6741 8.8025V8.80068Z" fill="#92CCBF" fill-opacity="0.6"/>
<path d="M22.5485 8.74784C23.6116 8.56444 23.3507 7.88039 23.3507 7.87305C23.3507 7.87305 22.2848 8.05645 22.5513 8.74784H22.5485Z" fill="#92CCBF" fill-opacity="0.6"/>
<path d="M7.71045 13.2487C8.3132 12.7492 8.57923 13.889 8.58093 13.889C8.58093 13.889 7.97478 14.3853 7.71045 13.2487Z" fill="#92CCBF" fill-opacity="0.6"/>
<path d="M21.6381 7.92162C20.9558 7.63572 20.7694 8.70492 20.7676 8.71349C20.7676 8.71349 21.4552 8.99939 21.6381 7.92162Z" fill="#92CCBF" fill-opacity="0.6"/>
<path d="M24.2699 7.87333C24.3223 7.84821 24.3712 7.80519 24.4135 7.74696C24.4558 7.68873 24.4907 7.6165 24.516 7.53463C24.5414 7.45276 24.5566 7.36301 24.5608 7.27085C24.565 7.17878 24.5582 7.08606 24.5407 6.99854C24.4885 7.0245 24.44 7.06798 24.3979 7.12639C24.3559 7.18481 24.3212 7.25703 24.296 7.33863C24.2707 7.42022 24.2553 7.5096 24.2509 7.60148C24.2464 7.69337 24.2529 7.78581 24.2699 7.87333Z" fill="#92CCBF" fill-opacity="0.6"/>
<path d="M14.7337 8.74784C14.4136 8.07495 15.4907 7.87474 15.5015 7.87305C15.5015 7.87305 15.819 8.54599 14.7337 8.74784Z" fill="#92CCBF" fill-opacity="0.6"/>
<path d="M26.7359 13.1221C25.6097 13.387 26.0927 13.9969 26.0973 13.9969C26.109 13.9969 27.2281 13.727 26.7359 13.1221Z" fill="#92CCBF" fill-opacity="0.6"/>
<path d="M22.9912 6.99854C23.9147 7.45629 22.9002 7.86912 22.8907 7.87333C22.8907 7.87333 21.9673 7.41137 22.9912 6.99854Z" fill="#92CCBF" fill-opacity="0.6"/>
<path d="M26.2978 9.62284C26.2284 9.58296 26.1672 9.5282 26.118 9.46194C26.0688 9.39568 26.0326 9.31933 26.0116 9.23749C25.9906 9.15565 25.9852 9.07009 25.9958 8.98595C26.0063 8.90181 26.0327 8.82086 26.0731 8.74805C26.1423 8.78817 26.2033 8.84304 26.2524 8.90931C26.3014 8.97557 26.3375 9.05192 26.3585 9.13364C26.3795 9.21542 26.385 9.30086 26.3745 9.38494C26.3641 9.46902 26.338 9.54997 26.2978 9.62284Z" fill="#92CCBF" fill-opacity="0.6"/>
<path d="M21.3866 15.7462C20.2724 15.053 21.0009 14.0061 21.0084 13.9966C21.0084 13.9966 22.1227 14.7088 21.3866 15.7462Z" fill="#92CCBF" fill-opacity="0.6"/>
<path d="M14.6776 13.9969C15.606 13.9397 15.5455 13.13 15.5433 13.1221C15.5433 13.1221 14.6125 13.1832 14.6776 13.9969Z" fill="#92CCBF" fill-opacity="0.6"/>
<path d="M12.0664 13.1219C12.9951 13.0633 12.9323 12.2546 12.9323 12.2471C12.9323 12.2471 11.9972 12.3094 12.0664 13.1219Z" fill="#92CCBF" fill-opacity="0.6"/>
<path d="M11.2395 11.3724C10.9594 10.6827 12.019 10.4976 12.0303 10.4976C12.0303 10.4976 12.3082 11.1901 11.2395 11.3724Z" fill="#92CCBF" fill-opacity="0.6"/>
<path d="M9.4546 13.9969C10.3829 13.9405 10.321 13.1304 10.321 13.1221C10.321 13.1221 9.39032 13.1827 9.4546 13.9969Z" fill="#92CCBF" fill-opacity="0.6"/>
<path d="M12.0595 14.8714C11.1314 14.8131 11.1932 14.0049 11.1932 13.9966C11.1932 13.9966 12.1261 14.0591 12.0595 14.8714Z" fill="#92CCBF" fill-opacity="0.6"/>
<path d="M14.6742 13.4445C14.5905 13.4678 14.5011 13.4788 14.4114 13.4767C14.3216 13.4747 14.2333 13.4597 14.1519 13.4325C14.0706 13.4054 13.9978 13.3668 13.9379 13.319C13.8781 13.2712 13.8324 13.2153 13.8037 13.1545C13.8873 13.1312 13.9768 13.1202 14.0665 13.1223C14.1563 13.1244 14.2446 13.1394 14.326 13.1665C14.4073 13.1936 14.4801 13.2322 14.54 13.28C14.5998 13.3278 14.6455 13.3837 14.6742 13.4445Z" fill="#92CCBF" fill-opacity="0.6"/>
<path d="M14.6742 10.5033C14.5989 11.4561 13.8098 11.3704 13.8037 11.3704C13.8037 11.3704 13.8769 10.4151 14.6742 10.5033Z" fill="#92CCBF" fill-opacity="0.6"/>
<path d="M10.3218 16.6268C10.397 17.5771 11.1841 17.494 11.1923 17.494C11.1923 17.494 11.1129 16.5389 10.3218 16.6268Z" fill="#92CCBF" fill-opacity="0.6"/>
<path d="M9.44763 13.1219C8.51741 13.0616 8.58176 12.2554 8.58176 12.2471C8.58176 12.2471 9.51679 12.3115 9.44763 13.1219Z" fill="#92CCBF" fill-opacity="0.6"/>
<path d="M8.60545 13.9969C9.62515 13.8577 9.43932 13.1297 9.43664 13.1221C9.43664 13.1221 8.41159 13.265 8.60545 13.9969Z" fill="#92CCBF" fill-opacity="0.6"/>
<path d="M9.45349 14.9281C9.47838 15.0737 9.52093 15.2096 9.57851 15.3274C9.63615 15.4454 9.70767 15.5429 9.78876 15.6141C9.8699 15.6854 9.95897 15.7289 10.0505 15.7421C10.1422 15.7553 10.2345 15.7379 10.3219 15.6909C10.2971 15.5449 10.2544 15.4087 10.1967 15.2905C10.1389 15.1724 10.0672 15.0747 9.98581 15.0033C9.90447 14.932 9.81516 14.8886 9.72333 14.8757C9.63143 14.8627 9.53897 14.8805 9.45142 14.9281H9.45349Z" fill="#92CCBF" fill-opacity="0.6"/>
<path d="M9.7724 15.7466C10.1113 16.2844 9.55874 16.6178 9.55322 16.6214C9.50627 16.5506 9.47468 16.4712 9.46031 16.3881C9.44588 16.305 9.44905 16.2199 9.46954 16.1381C9.4901 16.0563 9.52748 15.9793 9.57957 15.912C9.63166 15.8447 9.69724 15.7884 9.7724 15.7466Z" fill="#92CCBF" fill-opacity="0.6"/>
<path d="M9.57847 12.2474C10.7083 11.9824 10.2144 11.3726 10.2144 11.3726C10.2144 11.3726 9.08231 11.6413 9.57612 12.2474H9.57847Z" fill="#92CCBF" fill-opacity="0.6"/>
<path d="M14.999 10.4974C14.9336 10.4639 14.8743 10.4143 14.8247 10.3518C14.7752 10.2891 14.7363 10.2147 14.7105 10.133C14.6847 10.0513 14.6725 9.96398 14.6745 9.87627C14.6767 9.78849 14.6931 9.70227 14.7228 9.62256C14.7883 9.65577 14.8478 9.70518 14.8975 9.76775C14.9472 9.83031 14.9862 9.90474 15.012 9.98655C15.0379 10.0684 15.05 10.1558 15.0478 10.2436C15.0456 10.3314 15.0289 10.4177 14.999 10.4974Z" fill="#92CCBF" fill-opacity="0.6"/>
<path d="M12.1856 12.2474C12.1371 12.1821 12.1018 12.1072 12.0818 12.0271C12.0618 11.9471 12.0575 11.8636 12.0692 11.7818C12.0809 11.7 12.1084 11.6215 12.1499 11.5511C12.1915 11.4808 12.2462 11.42 12.3108 11.3726C12.3591 11.438 12.3942 11.5129 12.4141 11.5929C12.4339 11.6729 12.4381 11.7563 12.4264 11.838C12.4147 11.9198 12.3873 11.9982 12.346 12.0685C12.3045 12.1389 12.25 12.1997 12.1856 12.2474Z" fill="white"/>
<path d="M15.5447 9.53913C15.9961 8.42818 17.2737 8.81086 17.2856 8.81503C17.2856 8.82535 16.8271 9.93009 15.5447 9.53913Z" fill="white"/>
<path d="M12.9371 9.62037C13.0603 9.61455 13.1808 9.58714 13.2914 9.53973C13.4022 9.49231 13.5008 9.42585 13.5813 9.34441C13.6619 9.26296 13.7227 9.16814 13.7602 9.06568C13.7977 8.96315 13.8111 8.85516 13.7996 8.74805C13.6763 8.75416 13.5557 8.78193 13.445 8.82956C13.3343 8.87727 13.2357 8.94395 13.1552 9.02561C13.0747 9.10727 13.0139 9.20224 12.9764 9.30485C12.9389 9.40745 12.9256 9.51558 12.9371 9.62284V9.62037Z" fill="white"/>
<path d="M12.0627 9.62426C12.0646 9.74398 12.0889 9.862 12.134 9.97137C12.1793 10.0807 12.2445 10.179 12.3258 10.2604C12.4071 10.3418 12.5029 10.4047 12.6073 10.4451C12.7117 10.4856 12.8226 10.5029 12.9332 10.4958C12.9317 10.376 12.9078 10.2578 12.8626 10.1482C12.8175 10.0388 12.7523 9.94025 12.6709 9.85876C12.5895 9.77728 12.4937 9.71447 12.3891 9.67414C12.2846 9.6338 12.1736 9.61682 12.0627 9.62426Z" fill="white"/>
<path d="M13.8074 9.62284C14.7379 9.56261 14.6732 8.75584 14.6732 8.74805C14.6732 8.74805 13.7382 8.8122 13.8074 9.62284Z" fill="white"/>
<path d="M12.1933 9.62105C11.6879 9.01887 12.8122 8.74805 12.8222 8.74805C12.8222 8.74805 13.3242 9.35382 12.1933 9.62284V9.62105Z" fill="white"/>
<path d="M20.8031 9.62256C20.7662 9.71507 20.7579 9.81156 20.7789 9.90622C20.7998 10.0009 20.8495 10.0919 20.9251 10.1735C21.0006 10.2552 21.1004 10.326 21.2183 10.3817C21.3364 10.4373 21.4702 10.4767 21.6118 10.4974C21.6118 10.4974 21.8641 9.79111 20.8031 9.62256Z" fill="white"/>
<path d="M16.4152 11.3463C16.3201 11.3775 16.2215 11.3807 16.1256 11.3558C16.0295 11.3309 15.9381 11.2783 15.8567 11.2014C15.7754 11.1244 15.7057 11.0247 15.6521 10.9081C15.5985 10.7915 15.5619 10.6606 15.5447 10.5232C15.6393 10.4924 15.7374 10.4893 15.8328 10.5141C15.9283 10.5388 16.0194 10.5909 16.1005 10.6672C16.1816 10.7435 16.2511 10.8425 16.3048 10.9581C16.3585 11.0738 16.3953 11.2038 16.413 11.3403L16.4152 11.3463Z" fill="white"/>
<path d="M15.5448 11.3806C15.4708 12.3294 14.6819 12.2455 14.6743 12.2455C14.6743 12.2455 14.752 11.2898 15.5448 11.3784V11.3806Z" fill="white"/>
<path d="M22.5085 12.2532C22.586 13.2086 23.3715 13.1197 23.379 13.1197C23.379 13.1197 23.2978 12.162 22.5085 12.2532Z" fill="white"/>
<path d="M18.1561 11.323C17.4739 11.6106 17.2873 10.5476 17.2856 10.5317C17.2856 10.5317 17.9729 10.2468 18.1561 11.323Z" fill="white"/>
<path d="M20.7676 9.57471C21.4525 9.86041 21.6364 8.78105 21.6381 8.78105C21.6381 8.78105 20.9498 8.50061 20.7676 9.57471Z" fill="white"/>
<path d="M19.8997 12.3109C20.3083 13.406 21.6261 13.0763 21.6382 13.0723C21.6382 13.0723 21.2223 11.9752 19.8972 12.3109H19.8997Z" fill="white"/>
<path d="M7.70849 10.4976C7.7563 11.3316 6.84976 11.3724 6.84016 11.3724C6.84016 11.3724 6.79718 10.534 7.70849 10.4976Z" fill="white"/>
<path d="M15.6603 9.62284C15.8131 9.58931 15.9514 9.53966 16.0669 9.47692C16.1824 9.41418 16.2728 9.3397 16.3325 9.25792C16.3923 9.1762 16.4201 9.08885 16.4144 9.00117C16.4088 8.91355 16.3697 8.82745 16.2995 8.74805C16.1467 8.78163 16.0085 8.83129 15.8929 8.89403C15.7774 8.95671 15.687 9.03124 15.6273 9.11297C15.5675 9.19475 15.5397 9.2821 15.5454 9.36972C15.551 9.45734 15.5902 9.5435 15.6603 9.62284Z" fill="white"/>
<path d="M17.2856 13.2796C17.3427 13.3271 17.411 13.3646 17.4864 13.3899C17.5618 13.4151 17.6427 13.4275 17.7242 13.4264C17.8057 13.4252 17.886 13.4104 17.9603 13.383C18.0345 13.3556 18.1011 13.3162 18.1561 13.267C18.0991 13.22 18.0311 13.183 17.9561 13.1581C17.8811 13.1332 17.8007 13.121 17.7198 13.1221C17.6388 13.1233 17.5591 13.1379 17.4852 13.1649C17.4113 13.192 17.345 13.231 17.2901 13.2796H17.2856Z" fill="white"/>
<path d="M16.415 12.2179C16.5624 11.181 17.2775 11.3885 17.2855 11.3913C17.2855 11.3913 17.1321 12.4339 16.415 12.2179Z" fill="white"/>
<path d="M16.4152 16.5812C15.7157 16.8376 15.5464 15.784 15.5447 15.7737C15.5447 15.7737 16.2475 15.5173 16.4152 16.5812Z" fill="white"/>
<path d="M10.6544 10.4974C9.7993 10.0131 10.8618 9.63265 10.8713 9.62256C10.8713 9.62256 11.7232 10.1111 10.6512 10.4974H10.6544Z" fill="white"/>
<path d="M22.5122 16.6214C23.442 16.56 23.3781 15.7551 23.3781 15.7466C23.3682 15.7466 22.4433 15.8108 22.5122 16.6214Z" fill="white"/>
<path d="M13.7722 12.2474C13.8065 12.1537 13.8128 12.0562 13.7905 11.9609C13.7682 11.8656 13.7179 11.7743 13.6425 11.6925C13.5671 11.6108 13.4682 11.5403 13.3518 11.4853C13.2354 11.4304 13.1039 11.392 12.9653 11.3726C12.9304 11.4662 12.9238 11.5637 12.9459 11.6592C12.9681 11.7547 13.0183 11.8461 13.0938 11.9278C13.1693 12.0097 13.2683 12.0802 13.3849 12.1351C13.5016 12.19 13.6333 12.2282 13.7722 12.2474Z" fill="white"/>
<path d="M11.4071 17.4959C10.735 16.951 11.8544 16.6247 11.8644 16.6211C11.8644 16.6211 12.5365 17.1708 11.4071 17.4959Z" fill="white"/>
<path d="M24.2531 11.3724C25.1827 11.3123 25.1206 10.5053 25.1184 10.4976C25.1184 10.4976 24.1844 10.5614 24.2531 11.3724Z" fill="white"/>
<path d="M18.1527 16.6214C17.2252 16.5651 17.2849 15.7544 17.2871 15.7466C17.2871 15.7466 18.2191 15.8086 18.1527 16.6214Z" fill="white"/>
<path d="M20.9451 16.6211C20.9941 16.6801 21.0323 16.75 21.0573 16.8264C21.0824 16.9029 21.0938 16.9845 21.0908 17.0662C21.0879 17.1479 21.0707 17.2281 21.0403 17.302C21.0099 17.3758 20.9668 17.4418 20.9138 17.4959C20.8648 17.4369 20.8266 17.367 20.8016 17.2905C20.7765 17.214 20.7651 17.1325 20.768 17.0508C20.771 16.969 20.7881 16.8889 20.8186 16.815C20.849 16.7412 20.892 16.6752 20.9451 16.6211Z" fill="white"/>
<path d="M11.1924 11.4093C11.3641 12.4622 12.0508 12.2254 12.0629 12.2229C12.0629 12.2229 11.8912 11.1646 11.1924 11.4093Z" fill="white"/>
<path d="M15.5448 13.9475C14.8713 14.2353 14.676 13.1714 14.6743 13.1556C14.6743 13.1556 15.3613 12.8731 15.5448 13.9475Z" fill="white"/>
<path d="M9.45142 12.2493C9.45435 12.3709 9.47947 12.4905 9.52536 12.6009C9.57125 12.7114 9.63695 12.8103 9.71835 12.8917C9.79984 12.973 9.89535 13.0351 9.99904 13.0742C10.1028 13.1133 10.2126 13.1286 10.3219 13.1191C10.3182 12.9979 10.2924 12.8787 10.2463 12.7687C10.2 12.6587 10.1344 12.5602 10.0531 12.479C9.97187 12.3978 9.87671 12.3356 9.77338 12.2962C9.66997 12.2567 9.56051 12.2408 9.45142 12.2493Z" fill="white"/>
<path d="M10.5965 12.2471C10.5265 12.2938 10.4669 12.3538 10.4212 12.4236C10.3755 12.4934 10.3447 12.5715 10.3306 12.6532C10.3165 12.7349 10.3194 12.8185 10.3391 12.8991C10.3589 12.9797 10.395 13.0555 10.4455 13.1221C10.5157 13.0756 10.5755 13.0156 10.6213 12.9458C10.6672 12.876 10.6981 12.7979 10.7122 12.7161C10.7263 12.6344 10.7234 12.5506 10.7035 12.47C10.6836 12.3894 10.6472 12.3135 10.5965 12.2471Z" fill="white"/>
<path d="M25.1201 16.6857C25.5287 17.7803 26.8466 17.4501 26.8611 17.4461C26.8611 17.4461 26.4452 16.3476 25.1201 16.6857Z" fill="white"/>
<path d="M8.47624 15.7466C8.92081 16.995 7.80626 17.4914 7.79569 17.4962C7.79569 17.4962 7.35537 16.2408 8.47624 15.7466Z" fill="white"/>
<path d="M23.5051 17.4959C24.6345 17.2317 24.1438 16.6333 24.1406 16.6211C24.1406 16.6211 23.0079 16.8888 23.5051 17.4959Z" fill="white"/>
<path d="M15.5447 15.2701C16.4475 14.3319 17.2684 15.3432 17.2856 15.3529C17.2856 15.3529 16.3742 16.2911 15.5447 15.2701Z" fill="white"/>
<path d="M11.1884 17.4961C11.0652 17.5017 10.9446 17.5291 10.8338 17.5766C10.723 17.6239 10.6244 17.6906 10.5438 17.7723C10.4632 17.854 10.4023 17.9492 10.3648 18.0521C10.3275 18.1549 10.3142 18.2634 10.3259 18.3709C10.4489 18.3648 10.5693 18.3373 10.6798 18.2896C10.7904 18.2421 10.8889 18.1754 10.9694 18.0938C11.0499 18.0122 11.1108 17.9171 11.1484 17.8145C11.1861 17.7118 11.1997 17.6035 11.1884 17.4961Z" fill="white"/>
<path d="M6.12497 10.4976C5.72164 10.9857 6.22997 11.3724 6.23363 11.3724C6.23363 11.3724 6.6388 10.8807 6.12683 10.4976H6.12497Z" fill="white"/>
<path d="M11.1923 16.8792C10.8441 17.9969 10.328 17.2552 10.3218 17.2484C10.3218 17.2484 10.6747 16.1306 11.1923 16.8792Z" fill="white"/>
<path d="M12.9365 6.12354C13.8643 6.18039 13.8027 6.99833 13.8027 6.99833C13.8027 6.99833 12.87 6.93713 12.9365 6.12354Z" fill="white"/>
<path d="M10.5525 17.4961C10.4901 17.5457 10.4379 17.608 10.399 17.6793C10.36 17.7506 10.3352 17.8295 10.3259 17.9112C10.3166 17.9929 10.3231 18.0757 10.3449 18.1547C10.3667 18.2337 10.4035 18.3072 10.4531 18.3709C10.5156 18.3215 10.568 18.2593 10.6071 18.188C10.6462 18.1166 10.6711 18.0377 10.6804 17.9559C10.6898 17.8741 10.6832 17.7912 10.6612 17.7122C10.6392 17.6332 10.6022 17.5596 10.5525 17.4961Z" fill="white"/>
<path d="M9.45153 16.6522C8.73539 16.4294 8.58288 17.4771 8.58105 17.4771C8.58105 17.4771 9.29902 17.6943 9.45153 16.6522Z" fill="white"/>
<path d="M6.83984 13.6654C7.22442 12.5918 7.70592 13.4395 7.71032 13.446C7.71032 13.446 7.3213 14.5228 6.83984 13.6654Z" fill="white"/>
<path d="M5.96573 10.4976C5.03545 10.5576 5.09983 11.3646 5.09983 11.3724C5.09983 11.3724 6.03458 11.3085 5.96573 10.4976Z" fill="white"/>
<path d="M20.7677 16.6176C20.7593 16.4931 20.7301 16.372 20.6817 16.2609C20.6333 16.15 20.5668 16.0512 20.4859 15.9706C20.4049 15.89 20.3113 15.829 20.2102 15.7912C20.1092 15.7532 20.0029 15.7394 19.8972 15.7501C19.9052 15.8747 19.9342 15.9961 19.9825 16.1074C20.0308 16.2186 20.0973 16.3175 20.1783 16.3982C20.2593 16.4788 20.3531 16.5399 20.4543 16.5775C20.5554 16.6152 20.662 16.6288 20.7677 16.6176Z" fill="white"/>
<path d="M10.3218 14.8656C10.3958 13.9143 11.1847 13.9985 11.1923 13.9985C11.1923 13.9985 11.1145 14.9543 10.3218 14.8656Z" fill="white"/>
<path d="M8.58093 12.2645C8.49055 12.2478 8.3958 12.243 8.30254 12.2505C8.2092 12.2581 8.11915 12.2777 8.03786 12.3083C7.95656 12.3389 7.88567 12.3799 7.82938 12.4286C7.77317 12.4774 7.73265 12.5331 7.71045 12.5923C7.80091 12.6093 7.89565 12.6142 7.98916 12.6068C8.08259 12.5994 8.1728 12.5798 8.25418 12.5491C8.33556 12.5185 8.40653 12.4775 8.46266 12.4285C8.51886 12.3796 8.55906 12.3239 8.58093 12.2645Z" fill="white"/>
<path d="M10.3219 15.7642C10.2317 15.7474 10.1372 15.7425 10.044 15.75C9.95082 15.7574 9.86094 15.7769 9.77965 15.8073C9.69835 15.8377 9.62746 15.8784 9.57101 15.927C9.51464 15.9756 9.47395 16.0311 9.45142 16.0901C9.54187 16.1069 9.63654 16.1116 9.72988 16.1041C9.82323 16.0965 9.91319 16.0769 9.99448 16.0463C10.0758 16.0157 10.1468 15.9748 10.203 15.926C10.2592 15.8772 10.2997 15.8215 10.3219 15.7624V15.7642Z" fill="white"/>
<path d="M7.71032 15.2666C7.69749 15.2063 7.66462 15.1481 7.61349 15.0956C7.56245 15.0432 7.49422 14.9974 7.41289 14.9611C7.33165 14.9248 7.23901 14.8987 7.14057 14.8843C7.04205 14.87 6.93979 14.8677 6.83984 14.8776C6.85214 14.9381 6.88483 14.9963 6.93578 15.0489C6.98673 15.1016 7.05497 15.1474 7.13639 15.1838C7.21772 15.2201 7.31054 15.2462 7.40923 15.2604C7.50784 15.2747 7.61029 15.2768 7.71032 15.2666Z" fill="white"/>
<path d="M9.94724 15.7466C10.8549 16.2073 9.82928 16.6112 9.81946 16.6214C9.81946 16.6214 8.91181 16.1563 9.94724 15.7466Z" fill="white"/>
<path d="M5.96948 16.5592C6.1705 15.466 6.8348 15.7911 6.83996 15.794C6.83996 15.794 6.62698 16.8899 5.96948 16.5592Z" fill="white"/>
<path d="M11.1613 12.2474C11.3814 11.5289 10.3563 11.3744 10.3402 11.3726C10.3402 11.3726 10.1256 12.0947 11.1613 12.2474Z" fill="white"/>
<path d="M20.895 13.1221C22.0283 13.3866 21.5281 13.9918 21.5281 13.9969C21.5281 13.9969 20.3949 13.7273 20.895 13.1221Z" fill="white"/>
<path d="M26.7347 14.8716C25.6064 15.1382 26.0946 15.74 26.1006 15.7464C26.1006 15.7464 27.2318 15.475 26.7347 14.8716Z" fill="white"/>
<path d="M22.5064 8.74805C21.5749 8.80941 21.6389 9.61573 21.6389 9.62284C21.6471 9.62284 22.5736 9.55864 22.5048 8.74805H22.5064Z" fill="white"/>
<path d="M7.79323 9.62256C7.40493 10.2738 8.50812 10.4949 8.51843 10.4974C8.51843 10.4974 8.89642 9.84726 7.79323 9.62256Z" fill="white"/>
<path d="M8.90819 8.74805C8.06117 9.72341 9.12417 10.4976 9.13371 10.4976C9.13371 10.4976 9.98072 9.51131 8.90819 8.74805Z" fill="white"/>
<path d="M18.3476 11.3726C18.3929 11.4344 18.4273 11.5064 18.4486 11.5844C18.47 11.6623 18.4778 11.7446 18.4718 11.8262C18.4658 11.9079 18.446 11.9872 18.4136 12.0595C18.3812 12.1319 18.3368 12.1958 18.2832 12.2474C18.2377 12.1856 18.2033 12.1137 18.1818 12.0358C18.1603 11.958 18.1523 11.8758 18.1581 11.7942C18.1639 11.7125 18.1836 11.6331 18.2158 11.5607C18.2481 11.4883 18.2923 11.4243 18.3458 11.3726H18.3476Z" fill="white"/>
<path d="M8.89859 10.4976C9.97548 10.8788 9.14838 11.3671 9.13977 11.3724C9.13977 11.3724 8.06288 10.9872 8.89859 10.4976Z" fill="white"/>
<path d="M8.25163 11.3789C7.18116 11.7624 8.02916 12.2474 8.02916 12.2474C8.02916 12.2474 9.09962 11.8591 8.25854 11.3726L8.25163 11.3789Z" fill="white"/>
<path d="M19.0298 9.62256C19.956 9.6788 19.8963 10.4896 19.8963 10.4974C19.8963 10.4974 18.9657 10.4353 19.0298 9.62256Z" fill="white"/>
<path d="M19.0267 11.5813C18.9948 11.5399 18.9465 11.5022 18.8849 11.4706C18.8231 11.4389 18.7494 11.4139 18.668 11.397C18.5866 11.3802 18.4993 11.3719 18.4113 11.3726C18.3233 11.3733 18.2365 11.383 18.1562 11.4012C18.1882 11.4426 18.2365 11.4802 18.2981 11.5119C18.3598 11.5436 18.4336 11.5686 18.5151 11.5854C18.5965 11.6023 18.6837 11.6106 18.7717 11.6099C18.8597 11.6092 18.9465 11.5994 19.0267 11.5813Z" fill="white"/>
<path d="M20.7677 9.6792C20.6907 9.64709 20.6067 9.62823 20.5207 9.62363C20.4347 9.61909 20.3484 9.62898 20.2671 9.6527C20.1858 9.67637 20.1111 9.71346 20.0476 9.76165C19.984 9.8098 19.9329 9.86815 19.8972 9.93307C20.0534 9.99484 20.2328 10.0029 20.396 9.95525C20.5592 9.90764 20.6929 9.80836 20.7677 9.6792Z" fill="white"/>
<path d="M15.7382 12.2428C15.6858 12.1932 15.642 12.131 15.6093 12.0601C15.5766 11.989 15.5558 11.9106 15.5481 11.8295C15.5403 11.7483 15.5459 11.666 15.5643 11.5875C15.5827 11.509 15.6136 11.4359 15.6553 11.3726C15.7084 11.422 15.7529 11.4843 15.786 11.5556C15.8192 11.6269 15.8404 11.7058 15.8483 11.7875C15.8562 11.8693 15.8507 11.9522 15.8321 12.0312C15.8135 12.1102 15.7821 12.1837 15.74 12.2474L15.7382 12.2428Z" fill="white"/>
<path d="M26.861 13.2479C26.2593 12.7525 25.9936 13.8789 25.9905 13.8906C25.9905 13.8906 26.5969 14.383 26.861 13.2479Z" fill="white"/>
<path d="M12.0627 8.79736C12.7463 8.50983 12.9315 9.57288 12.9332 9.58869C12.9332 9.58869 12.2463 9.87364 12.0627 8.79736Z" fill="white"/>
<path d="M12.3753 11.3724C12.3194 11.3465 12.2674 11.303 12.2223 11.2447C12.1772 11.1863 12.1399 11.1142 12.1128 11.0326C12.0857 10.951 12.0692 10.8615 12.0643 10.7696C12.0594 10.6777 12.0662 10.5852 12.0844 10.4976C12.1404 10.5232 12.1926 10.5664 12.2378 10.6247C12.2831 10.6829 12.3204 10.7551 12.3476 10.8368C12.3748 10.9185 12.3912 11.008 12.396 11.1001C12.4008 11.1922 12.3938 11.2848 12.3753 11.3724Z" fill="white"/>
<path d="M20.7075 8.74784C21.0316 8.07489 19.9417 7.87458 19.9417 7.87305C19.9417 7.87305 19.62 8.54907 20.7075 8.74784Z" fill="white"/>
<path d="M6.96395 13.9966C8.0896 14.5263 7.61086 15.7345 7.60011 15.7462C7.60011 15.7462 6.47229 15.2095 6.96395 13.9966Z" fill="white"/>
<path d="M16.7516 11.3726C16.6838 11.4068 16.6224 11.4567 16.5711 11.5195C16.5198 11.5823 16.4796 11.6566 16.4528 11.7381C16.426 11.8196 16.4132 11.9066 16.4152 11.9941C16.4172 12.0815 16.4339 12.1677 16.4643 12.2474C16.5321 12.2132 16.5935 12.1632 16.6448 12.1004C16.6961 12.0377 16.7364 11.9633 16.7631 11.8818C16.7899 11.8003 16.8027 11.7133 16.8007 11.6258C16.7987 11.5384 16.782 11.4523 16.7516 11.3726Z" fill="white"/>
<path d="M8.66958 10.4974C8.74391 10.4571 8.80939 10.4022 8.86208 10.3359C8.91472 10.2696 8.95347 10.1933 8.97604 10.1116C8.99856 10.0299 9.00441 9.94447 8.9932 9.86039C8.982 9.77635 8.95401 9.69545 8.91084 9.62256C8.83656 9.66279 8.77108 9.71768 8.71839 9.78393C8.6657 9.85018 8.62684 9.92642 8.60416 10.0081C8.58148 10.0897 8.57541 10.1752 8.58634 10.2592C8.59727 10.3433 8.62493 10.4243 8.66772 10.4974H8.66958Z" fill="white"/>
<path d="M21.0194 15.7464C22.1323 15.3998 21.4055 14.8765 21.3985 14.8716C21.3985 14.8716 20.2821 15.2215 21.0194 15.7464Z" fill="white"/>
<path d="M19.8939 13.9969C18.9675 13.9383 19.0259 13.1293 19.028 13.1221C19.028 13.1221 19.9586 13.1825 19.8939 13.995V13.9969Z" fill="white"/>
<path d="M23.3758 13.9969C22.4492 13.9391 22.5093 13.1343 22.5093 13.1221C22.5093 13.1221 23.4401 13.1833 23.3758 13.9969Z" fill="white"/>
<path d="M24.2019 11.3724C24.4834 10.6831 23.4224 10.4989 23.4118 10.4976C23.4118 10.5044 23.1324 11.1895 24.2019 11.3724Z" fill="white"/>
<path d="M25.1146 14.8714C24.1885 14.815 24.2504 14.0043 24.2504 13.9966C24.2504 13.9966 25.1809 14.0568 25.1168 14.8714H25.1146Z" fill="white"/>
<path d="M23.3823 15.7464C24.3105 15.6882 24.2485 14.8793 24.2485 14.8716C24.2485 14.8716 23.3159 14.9336 23.3823 15.7464Z" fill="white"/>
<path d="M20.7676 16.625C20.8433 17.5805 21.6305 17.4938 21.6381 17.4938C21.6381 17.4938 21.5586 16.536 20.7676 16.6272V16.625Z" fill="white"/>
<path d="M18.1562 13.9778C18.2537 14.0041 18.3542 14.0032 18.4514 13.975C18.5486 13.9468 18.6407 13.892 18.7221 13.8138C18.8034 13.7356 18.8723 13.6357 18.9247 13.5202C18.9771 13.4045 19.0118 13.2756 19.0267 13.1411C18.9292 13.1148 18.8287 13.1157 18.7315 13.144C18.6343 13.1721 18.5422 13.2269 18.4608 13.3051C18.3795 13.3833 18.3106 13.4832 18.2582 13.5988C18.2059 13.7144 18.1712 13.8433 18.1562 13.9778Z" fill="white"/>
<path d="M24.2494 17.5019C24.1754 18.4545 23.3865 18.3704 23.3789 18.3681C23.3789 18.3681 23.4567 17.4132 24.2494 17.5019Z" fill="white"/>
<path d="M25.9941 13.9969C26.9244 13.937 26.86 13.1298 26.86 13.1221C26.86 13.1221 25.9253 13.1877 25.9941 13.9969Z" fill="white"/>
<path d="M26.8368 14.8714C25.8163 14.733 26.0041 14.0037 26.0041 13.9966C26.0041 13.9966 27.0296 14.1386 26.8368 14.8714Z" fill="white"/>
<path d="M25.9903 15.8022C25.9656 15.9479 25.9231 16.0839 25.8654 16.2019C25.8077 16.3199 25.736 16.4176 25.6547 16.4889C25.5733 16.5602 25.484 16.6038 25.3921 16.6171C25.3002 16.6303 25.2076 16.6129 25.1199 16.5658C25.1446 16.42 25.1871 16.2841 25.2448 16.1661C25.3025 16.0481 25.3742 15.9504 25.4556 15.879C25.5369 15.8076 25.6262 15.764 25.7181 15.7509C25.8101 15.7376 25.9027 15.7551 25.9903 15.8022Z" fill="white"/>
<path d="M25.3453 16.6211C24.6526 17.162 25.7782 17.4925 25.7885 17.4959C25.7885 17.4959 26.4638 16.955 25.3453 16.6211Z" fill="white"/>
<path d="M25.8698 13.9967C24.7424 13.467 25.2206 12.2587 25.2206 12.2471C25.2315 12.2471 26.3523 12.7838 25.8698 13.9967Z" fill="white"/>
<path d="M19.9533 10.4974C20.0233 10.4636 20.0868 10.414 20.1398 10.3513C20.1927 10.2885 20.2343 10.2141 20.2618 10.1324C20.2893 10.0508 20.3023 9.96347 20.2999 9.87586C20.2975 9.78824 20.2799 9.70209 20.248 9.62256C20.177 9.65477 20.1125 9.7036 20.0586 9.76607C20.0047 9.82848 19.9626 9.90315 19.9349 9.98539C19.9072 10.0676 19.8945 10.1555 19.8977 10.2436C19.9009 10.3317 19.9198 10.4181 19.9533 10.4974Z" fill="white"/>
<path d="M16.4152 30.6179C13.3162 30.6179 10.2869 29.7201 7.71017 28.0379C5.13349 26.3557 3.12521 23.9648 1.93929 21.1674C0.753371 18.3701 0.443081 15.292 1.04766 12.3223C1.65223 9.35268 3.14452 6.62491 5.33581 4.48389C7.52713 2.3429 10.319 0.884861 13.3584 0.294164C16.3978 -0.296535 19.5482 0.00663312 22.4113 1.16533C25.2743 2.32403 27.7214 4.28622 29.4432 6.80375C31.1648 9.32131 32.0838 12.2811 32.0838 15.3089C32.0789 19.3677 30.4265 23.2588 27.4892 26.1288C24.5518 28.9987 20.5692 30.6131 16.4152 30.6179ZM16.4152 1.44085C13.6079 1.44085 10.8636 2.2542 8.52948 3.77804C6.1953 5.3019 4.37603 7.4678 3.30173 10.0019C2.22742 12.5359 1.94634 15.3243 2.49401 18.0145C3.04169 20.7046 4.39352 23.1757 6.3786 25.1152C8.36362 27.0547 10.8927 28.3755 13.6461 28.9106C16.3994 29.4457 19.2534 29.1711 21.847 28.1214C24.4405 27.0718 26.6573 25.2943 28.217 23.0136C29.7766 20.7331 30.6091 18.0518 30.6091 15.3089C30.6052 11.6321 29.1085 8.10689 26.4475 5.50692C23.7865 2.90699 20.1784 1.44467 16.4152 1.44085Z" fill="white"/>
<path d="M25.9168 25.7059C25.7293 25.5291 25.2398 25.5291 24.619 25.5556C24.5047 25.5556 24.364 25.5644 24.3152 25.5556C24.092 25.4743 23.5969 25.5768 23.5125 25.6157C23.1018 25.8085 22.9292 25.7572 22.873 25.7253C22.5936 25.5679 21.954 25.5839 21.7271 25.5945C21.5621 25.5096 21.0782 25.2956 20.7237 25.4619C20.5249 25.5538 20.0861 25.5326 19.8611 25.4973C19.8611 25.4973 19.5779 25.4442 18.7208 25.2426H18.6945C17.8168 25.1559 17.061 23.4741 16.9485 22.4131C16.8491 21.474 17.1885 20.8409 17.4361 20.6446C18.1713 20.0044 18.2519 18.839 18.2613 18.6374C18.3401 18.4994 18.8239 18.0237 19.0621 17.9495C19.3003 17.8752 19.7579 17.5763 20.3411 17.1925C20.54 17.0617 20.7162 16.9485 20.795 16.9007C21.0238 16.7717 21.9953 16.7239 22.2147 16.8106L22.7155 16.9998L22.4473 16.5594C22.2597 16.257 21.7665 16.2535 21.3032 16.2871C21.5478 16.0113 21.7516 15.7056 21.909 15.3781L22.4116 14.3171L21.5977 15.1818C21.3901 15.4083 21.1582 15.614 20.9057 15.7955C20.919 15.4701 21.0162 15.1526 21.1889 14.8706L21.5639 14.2604L20.9319 14.6336C20.4987 14.8883 20.3881 15.4435 20.298 15.8892C20.2812 15.9758 20.2643 16.0661 20.2455 16.1368C20.1799 16.4162 19.6829 16.715 18.8989 16.9344C18.4582 17.0581 18.355 16.9609 18.2107 16.8247C18.1337 16.7522 18.1432 16.4976 18.1994 16.3366C18.3626 15.9529 19.0152 15.4878 19.1203 15.5213C19.3559 15.5722 19.6012 15.5664 19.8338 15.5047C20.0665 15.4428 20.279 15.327 20.4518 15.1677L20.1986 14.9095C20.0428 14.9963 19.8604 15.0312 19.681 15.0085C19.8647 14.6979 20.1166 14.4277 20.4199 14.2162C20.9115 13.9528 21.4694 13.8196 22.0347 13.8307L22.6123 13.9209L22.1979 13.5301C21.8921 13.2418 21.2995 13.3674 20.7256 13.4876C20.5482 13.5287 20.3685 13.5605 20.1874 13.5831C20.0931 13.5994 19.9958 13.581 19.9154 13.5318C19.8759 13.4966 19.8518 13.4486 19.8479 13.3975V13.3638C19.8348 13.3055 19.8704 13.0986 20.463 12.4283L20.8531 11.988L20.268 12.1454C20.1492 12.173 20.0382 12.2246 19.9427 12.2967C19.8471 12.3687 19.7694 12.4595 19.7147 12.5627H19.7054C19.6703 12.4082 19.6458 12.2516 19.6322 12.0941L19.5516 11.3726L19.2665 12.0428C19.1902 12.2099 19.1693 12.3949 19.2065 12.5733C19.2304 13.0798 19.2103 13.5873 19.1465 14.0907C19.0565 14.6 18.3832 15.0969 18.2988 15.1518C18.2594 15.1712 18.205 15.1836 18.1863 15.1695C18.1262 15.0545 18.1375 14.6796 18.145 14.3789C18.145 14.2551 18.145 14.1296 18.145 14.0111C18.145 13.6698 18.492 13.256 18.6795 13.0331L18.7639 12.9323L19.0977 12.5115L18.5614 12.6547C18.1863 12.759 17.9012 13.1534 17.7437 13.4558C17.6985 13.4705 17.6507 13.4765 17.603 13.4735C17.5505 13.4233 17.5028 13.3689 17.4605 13.3108C17.435 13.2775 17.4074 13.2456 17.3779 13.2153L17.2973 13.141L17.3817 13.0667L17.6161 12.8457L17.2954 12.7696C16.9204 12.6812 15.7351 13.7246 15.6225 13.8661C15.5981 13.8961 15.4894 13.9952 15.0974 14.0023C14.9905 13.9403 14.6773 13.6839 14.4842 13.5265C14.2572 13.3497 14.1522 13.256 14.0903 13.217C14.0832 13.1713 14.0832 13.1249 14.0903 13.0791L14.231 12.4159L13.7696 12.927C13.7166 12.9858 13.6724 13.0513 13.6383 13.1216L13.2632 13.3585C13.0982 13.4629 13.0195 13.6946 13.0157 14.0907C12.8488 13.974 12.6124 13.8484 12.4343 13.905C12.3708 13.908 12.3073 13.9002 12.2468 13.882L12.1718 13.8537C12.1299 13.8348 12.0825 13.8298 12.0372 13.8394C11.992 13.849 11.9515 13.8727 11.9223 13.9067L11.8417 14.0111L11.9223 14.1154C11.9776 14.1674 12.0481 14.2025 12.1248 14.2162C12.3625 14.3199 12.5866 14.4493 12.7925 14.6018C12.8675 14.7238 12.8263 15.3781 12.8112 15.5921C12.8112 15.6964 12.8 15.7796 12.8 15.8273C12.7981 15.852 12.7981 15.8769 12.8 15.9016C12.5489 15.797 12.3482 15.6078 12.2374 15.371C12.0817 14.4355 11.5828 14.0571 11.4272 14.0253L11.2846 14.0058L11.2228 14.1207C11.2043 14.1558 11.1979 14.1953 11.2043 14.234C11.2106 14.2726 11.2295 14.3084 11.2584 14.3365C11.4604 14.6119 11.5417 14.9502 11.4853 15.2808C10.9433 15.2685 10.4257 15.2985 10.2982 15.5992L10.1706 15.8998L10.5082 15.8379C11.3991 15.6787 12.1136 16.1385 12.2093 16.3154C11.8585 16.7522 11.6166 16.7646 11.4216 16.7734C11.2976 16.7683 11.1749 16.7999 11.0709 16.8636L10.8158 17.0405L11.1065 17.1625C11.5172 17.3393 11.9392 17.1625 12.2186 17.0493C12.295 17.0184 12.375 16.9959 12.4568 16.9821C13.7115 16.8724 14.6042 18.1122 14.848 18.4959C15.3956 19.3536 14.938 20.4412 14.7786 20.7666C14.5847 21.3143 14.2838 21.8229 13.8915 22.2663C13.6753 22.4723 13.5425 22.7432 13.5164 23.032C13.4399 23.5896 13.3145 24.1403 13.1413 24.6784C13.0663 24.7951 12.5787 25.5308 11.8585 25.6564C11.2161 25.7652 10.5556 25.7325 9.92873 25.5609C9.57053 25.4477 8.73596 25.5414 8.64217 25.5609C8.13381 25.6289 7.63206 25.7354 7.14178 25.8792L6.83984 25.9729L7.07243 26.1763C9.36232 28.1764 11.7254 29.4674 16.4309 29.7292C16.5922 29.738 16.7535 29.7433 16.9147 29.7433C21.3407 29.7433 25.7143 26.4858 25.9638 25.9641C25.9874 25.9222 25.9956 25.8742 25.9871 25.8275C25.9786 25.7807 25.9539 25.738 25.9168 25.7059ZM17.3479 13.9917C17.438 14.6583 17.5074 15.4312 17.4699 15.5832C17.4324 15.6328 17.3517 15.684 16.9297 15.5532C16.594 15.4471 16.5659 15.0598 16.5659 14.6371V14.2144L16.2452 14.5151C15.6338 15.0863 16.3146 15.8715 16.7703 16.3844C16.8894 16.5112 16.9979 16.6466 17.0948 16.7894C17.3611 17.2403 17.3498 18.6197 17.1398 18.7859C17.0909 18.8253 17.0381 18.8603 16.9823 18.8903C16.9671 18.8846 16.9527 18.8775 16.9391 18.8691C16.8796 18.8397 16.8167 18.8172 16.7516 18.8018C16.6784 18.7612 16.6109 18.4482 16.5884 18.3473C16.5771 18.2961 16.5678 18.2466 16.5565 18.2076C16.4834 17.93 15.8307 17.3234 15.6957 17.2686C15.6957 17.2686 15.4687 17.1077 15.4687 15.8273C15.4687 15.3534 15.752 14.5469 17.0591 13.3514C17.0329 13.5867 17.2392 13.8643 17.3479 13.9917ZM24.3865 25.6033C24.3692 25.5874 24.3488 25.5748 24.3264 25.5662C24.3493 25.5739 24.3699 25.5867 24.3865 25.6033ZM13.539 13.7388C13.5303 13.6755 13.5347 13.6112 13.552 13.5495L13.5877 13.4134V13.4364C13.6011 13.4977 13.6298 13.555 13.6716 13.6036C13.7134 13.6523 13.7669 13.6907 13.8278 13.7158C13.9084 13.7529 14.1578 13.935 14.7655 14.8086L14.7879 14.8405C14.8511 15.0779 14.8777 15.3228 14.8668 15.5673C14.8539 15.7027 14.801 15.832 14.7141 15.9405C14.6273 16.049 14.5099 16.1322 14.3754 16.181C13.9159 16.3773 13.4789 15.6045 13.4771 15.6045C13.4626 15.3672 13.4828 15.1292 13.5371 14.8971C13.6083 14.7326 13.6271 13.905 13.539 13.7388Z" fill="white"/>
</g>
<defs>
<clipPath id="clip0_880_39241">
<rect width="141.888" height="30.6179" fill="white" transform="translate(0.746582)"/>
</clipPath>
</defs>
</svg>
