<svg width="237" height="51" viewBox="0 0 237 51" fill="none" xmlns="http://www.w3.org/2000/svg">
<g clip-path="url(#clip0_5311_2106)">
<path d="M68.8359 26.9072H79.8988V22.411H68.8359V16.1525H80.967V11.6562H63.7976V37.8848H81.197V33.3886H68.8359V26.9072Z" fill="white"/>
<path d="M94.971 11.6562H84.0969V16.0039H87.571V33.5372H84.0969V37.8848H94.971C98.5217 37.8848 101.222 36.9933 103.072 35.2103C104.924 33.4272 105.848 30.7734 105.846 27.249V22.298C105.846 18.7756 104.922 16.1218 103.072 14.3367C101.224 12.5517 98.5235 11.6582 94.971 11.6562ZM100.863 27.4065C100.863 29.3024 100.397 30.7754 99.4665 31.8255C98.5359 32.8755 97.0632 33.3965 95.0465 33.3886H92.5544V16.1525H95.0465C97.0632 16.1525 98.5359 16.6705 99.4665 17.7067C100.397 18.7428 100.863 20.2228 100.863 22.1465V27.4065Z" fill="white"/>
<path d="M113.781 26.9072H124.847V22.411H113.781V16.1525H125.915V11.6562H108.746V37.8848H126.145V33.3886H113.781V26.9072Z" fill="white"/>
<path d="M144.439 34.5119H143.76L138.517 11.6562H129.045V37.8848H133.951V15.0291H134.63L139.873 37.8848H149.345V11.6562H144.439V34.5119Z" fill="white"/>
<path d="M168.128 24.6259C166.551 23.9338 164.908 23.4111 163.224 23.0666L162.359 22.8766C161.471 22.6991 160.602 22.4313 159.766 22.0773C159.167 21.8364 158.639 21.4438 158.234 20.9372C157.887 20.4511 157.708 19.8625 157.727 19.2632C157.709 18.8156 157.797 18.37 157.982 17.9636C158.169 17.5571 158.448 17.2013 158.797 16.9257C159.512 16.3546 160.621 16.0691 162.124 16.0691C163.007 16.0495 163.888 16.1979 164.717 16.5064C165.406 16.7674 165.994 17.2479 166.389 17.8758C166.813 18.6197 167.02 19.4699 166.986 20.3279V21.471H171.874V20.3279C171.874 18.4036 171.454 16.8 170.614 15.5171C169.767 14.231 168.564 13.226 167.155 12.6276C165.567 11.958 163.859 11.6283 162.139 11.6594C160.458 11.6207 158.787 11.9381 157.235 12.5915C155.925 13.142 154.799 14.0636 153.994 15.2457C153.207 16.4859 152.808 17.9376 152.85 19.411C152.85 21.0337 153.194 22.3518 153.881 23.3652C154.642 24.4364 155.671 25.2829 156.862 25.8173C158.349 26.5041 159.907 27.0211 161.507 27.3586L162.371 27.5486C163.345 27.7578 164.305 28.0309 165.245 28.366C165.92 28.5912 166.534 28.9759 167.033 29.488C167.461 29.9798 167.683 30.6197 167.653 31.2736C167.662 31.7802 167.553 32.2818 167.334 32.7378C167.116 33.1936 166.794 33.5911 166.396 33.8976C165.555 34.5813 164.283 34.9241 162.58 34.9262C160.877 34.9282 159.549 34.526 158.597 33.7197C157.62 32.9153 157.131 31.717 157.131 30.1244V29.0748H152.248V30.1395C152.198 31.8821 152.655 33.6012 153.563 35.083C154.455 36.466 155.72 37.5618 157.208 38.2409C160.613 39.6888 164.446 39.7095 167.865 38.2983C169.262 37.6791 170.46 36.6773 171.323 35.4058C172.148 34.1379 172.573 32.6465 172.542 31.1288C172.542 29.5061 172.155 28.175 171.38 27.1354C170.522 26.0349 169.403 25.1717 168.128 24.6259Z" fill="white"/>
<path d="M191.53 23.8123C190.138 23.2099 188.64 22.9124 187.129 22.939H185.045V22.5516L195.701 15.1465V11.6562H177.501V13.8273H193.353V14.2147L182.581 21.6997V24.9564H186.492C187.675 24.9421 188.85 25.1452 189.963 25.5559C190.952 25.9149 191.82 26.555 192.465 27.401C193.085 28.2211 193.395 29.3066 193.395 30.6577V30.8914C193.415 31.7276 193.263 32.5589 192.949 33.3313C192.636 34.1037 192.166 34.8001 191.572 35.375C190.357 36.566 188.662 37.1606 186.488 37.1586C184.315 37.1565 182.571 36.5302 181.255 35.2796C179.913 34.025 179.244 32.2998 179.246 30.1042V29.3354H176.894V30.0734C176.894 32.0374 177.305 33.7113 178.127 35.0951C178.936 36.4681 180.124 37.5667 181.541 38.2534C183.087 38.9989 184.78 39.3703 186.488 39.3389C188.176 39.3792 189.851 39.0214 191.383 38.2933C192.707 37.6561 193.826 36.6432 194.604 35.375C195.383 34.0446 195.777 32.5154 195.741 30.9652V30.5777C195.741 28.8987 195.362 27.4964 194.604 26.3709C193.837 25.2379 192.771 24.3507 191.53 23.8123Z" fill="white"/>
<path d="M211.693 22.3994C210.311 21.6658 208.763 21.293 207.195 21.3163C205.193 21.3163 203.623 21.6773 202.483 22.3994C201.484 22.9819 200.646 23.7983 200.042 24.7766H199.579V20.7069C199.579 18.5529 200.201 16.8604 201.445 15.6295C202.69 14.3986 204.439 13.7842 206.694 13.7862C208.901 13.7862 210.572 14.3182 211.711 15.3821C212.85 16.446 213.42 17.8539 213.423 19.6057H215.807C215.83 18.1939 215.472 16.8017 214.77 15.5721C214.043 14.3488 212.974 13.3589 211.693 12.7212C210.333 12.0093 208.666 11.6543 206.694 11.6563C204.722 11.6583 203.018 12.0384 201.579 12.7967C200.2 13.5272 199.07 14.645 198.332 16.0096C197.539 17.5448 197.149 19.2523 197.197 20.9754V30.3699C197.148 32.0626 197.581 33.735 198.444 35.1969C199.254 36.5209 200.428 37.5893 201.83 38.2771C203.326 38.9782 204.961 39.342 206.616 39.342C208.272 39.342 209.907 38.9782 211.403 38.2771C212.796 37.5959 213.969 36.5425 214.788 35.2361C215.647 33.8258 216.081 32.2026 216.039 30.5569V30.1014C216.082 28.4711 215.676 26.86 214.865 25.4403C214.108 24.1599 213.011 23.1083 211.693 22.3994ZM213.654 30.5207C213.654 32.6024 213.001 34.2386 211.693 35.4291C210.386 36.6198 208.694 37.2152 206.618 37.2152C204.542 37.2152 202.849 36.6198 201.54 35.4291C200.231 34.2386 199.577 32.6024 199.579 30.5207V30.219C199.546 28.9526 199.862 27.7012 200.494 26.5988C201.083 25.5956 201.941 24.773 202.973 24.2216C204.106 23.6582 205.357 23.3648 206.625 23.3648C207.894 23.3648 209.144 23.6582 210.278 24.2216C211.31 24.7741 212.169 25.5964 212.76 26.5988C213.39 27.7017 213.707 28.9527 213.675 30.219L213.654 30.5207Z" fill="white"/>
<path d="M233.614 14.3717C231.796 12.5614 229.321 11.6562 226.191 11.6562C223.062 11.6562 220.587 12.5614 218.766 14.3717C216.948 16.182 216.04 18.8764 216.042 22.4548V28.5435C216.042 32.1178 216.95 34.8121 218.766 36.6265C220.583 38.4408 223.058 39.346 226.191 39.342C229.321 39.342 231.796 38.4368 233.614 36.6265C235.432 34.8162 236.341 32.1218 236.341 28.5435V22.4548C236.341 18.8804 235.432 16.1861 233.614 14.3717ZM233.873 28.6943C233.873 31.3595 233.23 33.4454 231.944 34.952C230.657 36.4586 228.742 37.2129 226.198 37.2148C223.649 37.2148 221.732 36.4606 220.446 34.952C219.16 33.4434 218.516 31.3575 218.513 28.6943V22.304C218.513 19.6408 219.158 17.5549 220.446 16.0463C221.734 14.5377 223.651 13.7834 226.198 13.7834C228.744 13.7834 230.662 14.5377 231.95 16.0463C233.238 17.5549 233.881 19.6408 233.879 22.304L233.873 28.6943Z" fill="white"/>
<path d="M24.8996 16.0284C24.2247 15.1967 25.1266 14.5777 25.1358 14.5713C25.2277 14.6763 25.2954 14.8021 25.3338 14.939C25.3723 15.0758 25.3804 15.2201 25.3577 15.3607C25.3348 15.5014 25.2817 15.6346 25.2024 15.7504C25.123 15.8662 25.0194 15.9613 24.8996 16.0284Z" fill="white"/>
<path d="M27.5491 11.517C28.3019 9.66657 30.4282 10.3064 30.449 10.3099C30.449 10.3307 29.6858 12.1706 27.5491 11.517Z" fill="white"/>
<path d="M21.996 13.1134C23.8844 12.5585 22.9882 11.6655 22.9769 11.6562C22.9769 11.6562 21.0884 12.2174 21.996 13.1134Z" fill="white"/>
<path d="M24.6492 11.6623C24.7036 13.1634 26.0701 13.1132 26.0991 13.1132C26.0991 13.1132 26.0375 11.603 24.6492 11.6577V11.6623Z" fill="white"/>
<path d="M23.2051 11.6573C24.7546 11.5567 24.6476 10.2132 24.6476 10.2002C24.6476 10.2002 23.0917 10.3073 23.2051 11.6573Z" fill="white"/>
<path d="M24.8658 11.6573C24.0286 10.6551 25.8867 10.2061 25.906 10.2002C26.023 10.3354 26.0886 10.4851 26.098 10.6381C26.1073 10.791 26.0602 10.9434 25.96 11.0836C25.8599 11.2238 25.7095 11.3483 25.52 11.4477C25.3304 11.547 25.1067 11.6187 24.8658 11.6573Z" fill="white"/>
<path d="M31.9653 11.6562C31.5407 12.822 33.2909 13.1099 33.3048 13.1134C33.3048 13.1134 33.7249 11.9405 31.9701 11.6562H31.9653Z" fill="white"/>
<path d="M27.5491 14.5017C27.3995 14.5694 27.2433 14.5881 27.0893 14.5564C26.9354 14.525 26.7867 14.4436 26.652 14.3176C26.5172 14.1913 26.399 14.0227 26.3041 13.8215C26.2092 13.62 26.1395 13.3899 26.0991 13.1442C26.0991 13.1442 27.3008 12.7922 27.5491 14.5017Z" fill="white"/>
<path d="M27.5491 14.581C27.4255 16.1659 26.1129 16.0252 26.0991 16.0252C26.0991 16.0252 26.231 14.4327 27.5491 14.581Z" fill="white"/>
<path d="M36.2488 16.0391C36.3776 17.6292 37.6877 17.4843 37.6987 17.4805C37.6987 17.4805 37.5644 15.8827 36.2488 16.0391Z" fill="white"/>
<path d="M27.5491 14.4731C27.2595 14.6383 26.9449 14.594 26.6735 14.3501C26.4021 14.1061 26.1958 13.6819 26.0991 13.1695C26.0991 13.1695 27.2434 12.7045 27.5491 14.4731Z" fill="white"/>
<path d="M31.8989 11.5591C32.1887 11.7243 32.5034 11.6799 32.7749 11.4357C33.0463 11.1914 33.2526 10.7669 33.3489 10.2544C33.3489 10.2544 32.2001 9.79346 31.8989 11.5591Z" fill="white"/>
<path d="M28.999 16.1361C29.6775 17.9589 31.8778 17.4081 31.8989 17.4048C31.8989 17.3847 31.196 15.5752 28.999 16.1361Z" fill="white"/>
<path d="M15.9465 14.5713C16.0251 15.958 14.5139 16.0284 14.5 16.0284C14.5 16.0139 14.4283 14.6344 15.9465 14.5713Z" fill="white"/>
<path d="M27.7585 11.6573C27.9994 11.6197 28.2235 11.5488 28.4138 11.4498C28.6041 11.3509 28.7556 11.2267 28.8568 11.0864C28.958 10.9461 29.0063 10.7935 28.9981 10.64C28.9901 10.4864 28.9256 10.3361 28.8098 10.2002C28.8098 10.2002 26.9341 10.6514 27.7585 11.6573Z" fill="white"/>
<path d="M24.6492 17.7456C24.853 17.9055 25.1115 17.9916 25.3778 17.9883C25.6439 17.985 25.8999 17.8925 26.0991 17.7277C25.895 17.5682 25.6361 17.4826 25.3699 17.4865C25.1038 17.4903 24.848 17.5834 24.6492 17.7487V17.7456Z" fill="white"/>
<path d="M24.6492 14.5201C25.1462 12.7941 27.5229 13.1418 27.5491 13.1449C27.5491 13.1635 27.0408 14.8772 24.6529 14.5233L24.6492 14.5201Z" fill="white"/>
<path d="M27.5467 23.2297C27.2525 23.3819 26.9353 23.3279 26.6642 23.0793C26.3931 22.8307 26.19 22.4076 26.0991 21.9023C26.0991 21.9023 27.2685 21.4782 27.5491 23.2381L27.5467 23.2297Z" fill="white"/>
<path d="M20.8502 13.1134C19.4326 12.3066 21.1964 11.6683 21.2149 11.6562C21.2149 11.6562 22.6323 12.4703 20.8502 13.1134Z" fill="white"/>
<path d="M34.8062 23.3146C36.3637 23.2144 36.2561 21.8694 36.2417 21.8574C36.2273 21.8574 34.677 21.9648 34.8062 23.3146Z" fill="white"/>
<path d="M24.6492 20.2093C24.914 20.4469 25.2126 20.4625 25.4827 20.2527C25.7529 20.0431 25.9737 19.6241 26.0991 19.0836C26.0887 19.0836 25.0635 18.3546 24.6492 20.2093Z" fill="white"/>
<path d="M23.5594 26.2286C22.4401 25.3204 24.2838 24.7755 24.32 24.7715C24.32 24.7715 25.4355 25.6857 23.5594 26.2286Z" fill="white"/>
<path d="M39.1549 14.5714C40.7066 14.4712 40.597 13.1271 40.597 13.1143C40.597 13.1143 39.0387 13.2209 39.1549 14.5714Z" fill="white"/>
<path d="M26.0936 23.3146C24.5478 23.2207 24.6506 21.8704 24.6506 21.8574C24.6506 21.8574 26.2029 21.961 26.0936 23.3146Z" fill="white"/>
<path d="M32.2365 24.7715C32.9267 25.5249 32.1844 26.2216 32.1782 26.2286C32.0859 26.1372 32.0128 26.0225 31.9646 25.8934C31.9163 25.7643 31.8942 25.6241 31.8998 25.4835C31.9054 25.343 31.9386 25.2057 31.997 25.0823C32.0554 24.9589 32.1373 24.8526 32.2365 24.7715Z" fill="white"/>
<path d="M23.2017 14.6516C23.4732 16.3856 24.6392 15.9913 24.6492 15.987C24.5598 15.4841 24.3573 15.0615 24.0857 14.8115C23.8141 14.5614 23.4956 14.5039 23.1992 14.6516H23.2017Z" fill="white"/>
<path d="M27.5491 18.8451C27.2595 19.0103 26.9449 18.9661 26.6735 18.7221C26.4021 18.4781 26.1958 18.054 26.0991 17.5415C26.0991 17.5415 27.2434 17.0766 27.5491 18.8451Z" fill="white"/>
<path d="M20.2993 16.0468C20.3688 17.5508 21.7363 17.485 21.7493 17.485C21.7341 17.2674 21.6838 17.0561 21.6015 16.8642C21.5192 16.6722 21.4066 16.5037 21.2706 16.3688C21.1347 16.2341 20.9784 16.1359 20.8113 16.0805C20.6443 16.0251 20.47 16.0137 20.2993 16.0468Z" fill="white"/>
<path d="M22.7279 16.0283C22.4853 16.0929 22.2738 16.1859 22.1098 16.3002C21.9459 16.4145 21.8338 16.547 21.7819 16.6876C21.7302 16.8282 21.74 16.9732 21.8109 17.1115C21.8818 17.2498 22.0117 17.3777 22.1907 17.4855C22.1907 17.4855 24.0421 16.8834 22.7279 16.0283Z" fill="white"/>
<path d="M40.6019 23.4213C41.283 25.2434 43.4772 24.6961 43.4983 24.6895C43.4983 24.6895 42.7962 22.8606 40.5984 23.4213H40.6019Z" fill="white"/>
<path d="M17.2277 21.8574C17.9609 23.9384 16.1097 24.7717 16.0914 24.7717C16.0914 24.7717 15.3582 22.6789 17.2247 21.8574H17.2277Z" fill="white"/>
<path d="M37.9083 24.7716C39.7904 24.3315 38.9735 23.3378 38.964 23.3145C38.964 23.3145 37.0818 23.7604 37.9083 24.7716Z" fill="white"/>
<path d="M26.0991 21.0622C27.6038 19.5018 28.9834 21.1881 28.999 21.2043C28.999 21.2043 27.4787 22.7647 26.0991 21.0622Z" fill="white"/>
<path d="M23.1992 24.7746C23.0066 24.7614 22.8135 24.7899 22.6326 24.8583C22.4518 24.9265 22.2873 25.0331 22.1504 25.1706C22.0135 25.3082 21.907 25.4737 21.8383 25.6562C21.7695 25.8386 21.74 26.0338 21.7518 26.2286C21.7518 26.2286 23.293 26.1238 23.1794 24.7746H23.1992Z" fill="white"/>
<path d="M13.5984 14.5713C12.1756 15.3815 13.9653 16.0284 13.9822 16.0284C14.1751 15.9272 14.3205 15.8045 14.4073 15.6699C14.4941 15.5351 14.5199 15.3919 14.4828 15.2513C14.4458 15.1105 14.3468 14.9761 14.1935 14.8583C14.0402 14.7404 13.8366 14.6422 13.5984 14.5713Z" fill="white"/>
<path d="M23.1992 23.7352C22.6201 25.6164 21.7584 24.3641 21.7493 24.3528C21.919 23.8229 22.1603 23.4674 22.4275 23.3537C22.6947 23.2399 22.9693 23.3756 23.1992 23.7352Z" fill="white"/>
<path d="M24.6545 8.74219C26.2 8.83734 26.0993 10.1864 26.0971 10.1993C26.0821 10.1993 24.5473 10.0978 24.6545 8.74219Z" fill="white"/>
<path d="M20.7416 24.7715C20.6249 24.8422 20.5251 24.9401 20.4499 25.0579C20.3746 25.1756 20.3259 25.3101 20.3076 25.4508C20.2892 25.5914 20.3016 25.7347 20.3439 25.8696C20.3861 26.0044 20.4571 26.1273 20.5515 26.2286C20.5515 26.2286 21.438 25.581 20.7416 24.7715Z" fill="white"/>
<path d="M20.2993 23.3885C19.9996 23.247 19.6785 23.3099 19.4066 23.5633C19.1347 23.8167 18.9342 24.24 18.8494 24.74C18.8494 24.74 20.0455 25.1004 20.2993 23.3885Z" fill="white"/>
<path d="M14.4995 18.4029C15.1382 16.591 15.9409 18.0218 15.9495 18.0383C15.7662 18.546 15.5178 18.8629 15.251 18.9301C14.9841 18.9972 14.717 18.8098 14.4995 18.4029Z" fill="white"/>
<path d="M13.0434 14.5713C11.4947 14.6714 11.6012 16.0155 11.6012 16.0284C11.6012 16.0284 13.1595 15.9218 13.0434 14.5713Z" fill="white"/>
<path d="M31.8989 23.284C31.772 21.7169 30.4613 21.8573 30.449 21.863C30.4721 22.0893 30.5285 22.307 30.6149 22.5025C30.7012 22.6981 30.8157 22.8676 30.9514 23.0004C31.087 23.1334 31.241 23.2271 31.4039 23.2758C31.5668 23.3246 31.7353 23.3273 31.8989 23.284Z" fill="white"/>
<path d="M21.7493 21.8459C21.873 20.2645 23.1882 20.401 23.1992 20.4048C23.1992 20.4048 23.0727 22.009 21.7493 21.8459Z" fill="white"/>
<path d="M18.8494 16.0697C18.5598 16.0005 18.2451 16.0186 17.9736 16.1203C17.702 16.2219 17.4957 16.3989 17.3994 16.6126C17.3994 16.6126 18.5455 16.8075 18.8494 16.0697Z" fill="white"/>
<path d="M20.2993 21.8985C20.0093 21.8294 19.6941 21.848 19.4225 21.9502C19.1508 22.0525 18.9448 22.2301 18.8494 22.4444C18.8494 22.4444 19.9956 22.6364 20.2993 21.9015V21.8985Z" fill="white"/>
<path d="M15.9495 22.5103C15.7622 21.7575 14.5126 21.8624 14.4995 21.8624C14.5304 21.9714 14.5928 22.075 14.6831 22.1671C14.7735 22.2591 14.8896 22.3377 15.0249 22.3982C15.1602 22.4587 15.3118 22.4997 15.4706 22.519C15.6295 22.5382 15.7923 22.5353 15.9495 22.5103Z" fill="white"/>
<path d="M21.1223 21.8574C22.6402 22.6224 20.9266 23.2951 20.9123 23.3146C20.9123 23.3146 19.3994 22.5422 21.1272 21.8574H21.1223Z" fill="white"/>
<path d="M13.0493 23.1898C13.3878 21.396 14.4894 21.9309 14.4993 21.9356C14.3931 22.4567 14.1822 22.88 13.9114 23.1151C13.6405 23.3501 13.3312 23.3786 13.0493 23.1944V23.1898Z" fill="white"/>
<path d="M23.1489 16.0284C23.5116 14.8297 21.7958 14.5713 21.7802 14.5713C21.7802 14.5713 21.4214 15.7762 23.1489 16.0284Z" fill="white"/>
<path d="M32.1115 17.4854C33.9819 17.9287 33.1789 18.934 33.1699 18.9425C33.1699 18.9425 31.2768 18.4878 32.1115 17.4854Z" fill="white"/>
<path d="M43.2872 20.4004C41.409 20.8444 42.2225 21.847 42.2313 21.8575C42.2313 21.8575 44.118 21.4055 43.2872 20.4004Z" fill="white"/>
<path d="M34.7988 11.6562C33.2429 11.7562 33.3505 13.0991 33.3505 13.1134C33.3648 13.1134 34.9112 13.0063 34.7845 11.6562H34.7988Z" fill="white"/>
<path d="M16.0861 11.6562C15.4403 12.7321 17.2931 13.1094 17.2931 13.1134C17.2931 13.1034 17.9299 12.0295 16.0861 11.6562Z" fill="white"/>
<path d="M18.8643 13.2112C19.0442 15.0116 20.2993 14.508 20.2993 14.5026C20.2827 14.2679 20.2288 14.0416 20.1415 13.8414C20.0544 13.6412 19.9362 13.4721 19.7962 13.3475C19.6561 13.2228 19.498 13.1457 19.3338 13.122C19.1697 13.0984 19.0039 13.1288 18.8494 13.2112H18.8643Z" fill="white"/>
<path d="M21.7493 14.7808C22.0093 14.5314 22.3036 14.5036 22.5728 14.7033C22.8419 14.9028 23.0658 15.315 23.1992 15.8563C23.1992 15.8563 22.1867 16.6639 21.7493 14.7808Z" fill="white"/>
<path d="M17.9233 14.5713C19.7252 15.2061 18.3424 16.0219 18.3424 16.0284C18.3424 16.0284 16.5362 15.3872 17.9233 14.5713Z" fill="white"/>
<path d="M16.8557 16.0283C16.6167 16.0988 16.4121 16.1967 16.2579 16.3145C16.1037 16.4322 16.0039 16.5666 15.9664 16.7074C15.9287 16.8482 15.9542 16.9916 16.0409 17.1264C16.1276 17.2613 16.2731 17.3841 16.4664 17.4855C16.4664 17.4855 18.2752 16.8402 16.8557 16.0283Z" fill="white"/>
<path d="M27.5546 11.6562C29.1005 11.7534 28.9976 13.1004 28.9976 13.1134C28.9976 13.1134 27.4453 13.0098 27.5546 11.6562Z" fill="white"/>
<path d="M24.6368 14.5719C24.4379 14.5662 24.2401 14.6009 24.0565 14.6735C23.873 14.7462 23.7079 14.855 23.5725 14.993C23.437 15.1309 23.3343 15.2947 23.2712 15.4733C23.2082 15.6518 23.1861 15.8411 23.2067 16.0284C23.2067 16.0284 24.805 15.8832 24.6368 14.5719Z" fill="white"/>
<path d="M30.449 11.7623C30.196 11.6457 29.9062 11.6244 29.6374 11.7027C29.3687 11.7811 29.1408 11.9533 28.999 12.1851C28.999 12.1851 29.9782 12.575 30.449 11.7623Z" fill="white"/>
<path d="M25.5646 14.5714C23.7693 13.9328 25.1657 13.1216 25.18 13.1143C25.18 13.1143 26.961 13.7529 25.5646 14.5714Z" fill="white"/>
<path d="M43.4985 19.1582C43.2394 18.9044 42.9451 18.8733 42.6756 19.071C42.4062 19.2687 42.1819 19.6805 42.0486 20.2223C42.0486 20.2223 43.0593 21.0413 43.4985 19.1582Z" fill="white"/>
<path d="M40.5984 14.3629C40.7193 13.8513 40.9392 13.4527 41.2106 13.2532C41.4819 13.0538 41.7829 13.0695 42.0483 13.2971C42.0483 13.2971 41.4917 15.1883 40.5984 14.3629Z" fill="white"/>
<path d="M25.2429 16.0284C25.1416 16.0039 25.0448 15.9444 24.9596 15.854C24.8744 15.7636 24.8027 15.6449 24.7497 15.5058C24.6968 15.3668 24.6637 15.211 24.653 15.0494C24.6423 14.888 24.6541 14.7247 24.6877 14.5713C24.6877 14.5713 25.4945 14.9259 25.2429 16.0284Z" fill="white"/>
<path d="M31.7994 11.6573C32.3344 10.5377 30.539 10.2028 30.5207 10.2002C30.5207 10.2002 29.9931 11.3277 31.7994 11.6573Z" fill="white"/>
<path d="M14.7072 18.9424C16.5881 19.826 15.7761 21.8372 15.7699 21.8567C15.7511 21.8567 13.889 20.9615 14.7072 18.9424Z" fill="white"/>
<path d="M25.885 11.6562C24.0005 12.1 24.8297 13.104 24.8372 13.1134C24.8372 13.1134 26.7215 12.6627 25.885 11.6562Z" fill="white"/>
<path d="M17.71 13.1134C17.9578 13.0632 18.1817 12.9818 18.3648 12.8755C18.5478 12.7692 18.6851 12.6408 18.7659 12.5001C18.8469 12.3595 18.8693 12.2103 18.8316 12.0641C18.7939 11.9178 18.6969 11.7783 18.5483 11.6562C18.5483 11.6562 16.6582 12.185 17.7266 13.1073L17.71 13.1134Z" fill="white"/>
<path d="M32.3303 21.8575C32.5731 21.7969 32.7871 21.7072 32.9559 21.5953C33.1246 21.4833 33.2436 21.352 33.3039 21.2114C33.364 21.0707 33.3639 20.9246 33.3033 20.784C33.2429 20.6435 33.1235 20.5123 32.9545 20.4004C32.9545 20.4004 31.0869 20.9854 32.32 21.8575H32.3303Z" fill="white"/>
<path d="M30.4435 18.9425C28.9003 18.8476 29.0003 17.4975 29.0003 17.4854C29.0003 17.4854 30.5526 17.5864 30.4435 18.9425Z" fill="white"/>
<path d="M36.2432 18.9425C34.698 18.8492 34.8 17.5116 34.8 17.4854C34.8 17.4854 36.351 17.5874 36.2432 18.9425Z" fill="white"/>
<path d="M39.0689 14.5714C39.5391 13.4242 37.7713 13.1165 37.753 13.1143C37.753 13.1255 37.2889 14.2682 39.0689 14.5714Z" fill="white"/>
<path d="M40.5931 20.3995C39.0504 20.3056 39.15 18.9554 39.15 18.9424C39.15 18.9424 40.7024 19.0461 40.5931 20.3995Z" fill="white"/>
<path d="M36.2546 21.8575C37.8003 21.7574 37.6973 20.4133 37.6973 20.4004C37.6973 20.4004 36.1419 20.5038 36.2546 21.8575Z" fill="white"/>
<path d="M31.8989 23.3247C32.0252 24.9115 33.338 24.7706 33.3489 24.7669C33.3489 24.7669 33.2171 23.1725 31.8989 23.3247Z" fill="white"/>
<path d="M30.449 14.5815C30.5753 16.1698 31.8852 16.025 31.8989 16.025C31.8989 16.025 31.7671 14.4293 30.449 14.5815Z" fill="white"/>
<path d="M39.1484 24.7812C39.0247 26.3657 37.7095 26.2255 37.6985 26.2255C37.6985 26.2255 37.8278 24.6334 39.1484 24.7812Z" fill="white"/>
<path d="M42.0577 18.9435C43.6032 18.8434 43.497 17.4993 43.497 17.4863C43.4809 17.4863 41.9418 17.593 42.0545 18.9435H42.0577Z" fill="white"/>
<path d="M43.4584 20.3995C41.7592 20.1685 42.0711 18.9542 42.0711 18.9424C42.089 18.9424 43.7775 19.1793 43.4584 20.3995Z" fill="white"/>
<path d="M42.0483 21.9779C41.713 23.7767 40.6157 23.2413 40.5984 23.2361C40.7048 22.7148 40.9158 22.2917 41.1866 22.0567C41.4574 21.8217 41.7665 21.7934 42.0483 21.9779Z" fill="white"/>
<path d="M39.5175 23.3145C38.3771 24.2171 40.244 24.7661 40.2591 24.7716C40.4162 24.6541 40.5226 24.5184 40.5703 24.3748C40.6179 24.2311 40.6054 24.0834 40.5339 23.9428C40.4624 23.8022 40.3335 23.6726 40.1574 23.5637C39.9812 23.4547 39.7623 23.3695 39.5175 23.3145Z" fill="white"/>
<path d="M41.8394 18.9426C39.9598 18.0617 40.7711 16.0478 40.7805 16.0283C40.7993 16.0283 42.6601 16.9247 41.8394 18.9426Z" fill="white"/>
<path d="M29.2088 13.1134C29.4492 13.0751 29.6725 13.0038 29.8623 12.9049C30.052 12.806 30.2033 12.6818 30.3046 12.5419C30.4061 12.4019 30.4552 12.2496 30.4483 12.0962C30.4414 11.9429 30.3787 11.7926 30.2647 11.6562C30.2647 11.6562 28.3824 12.103 29.2088 13.1098V13.1134Z" fill="white"/>
<path d="M35.1818 16.0284C35.2543 15.9186 35.3068 15.7937 35.3364 15.6609C35.3659 15.528 35.3719 15.3899 35.3539 15.2545C35.3359 15.1191 35.2944 14.9889 35.2317 14.8717C35.169 14.7544 35.0864 14.6523 34.9885 14.5713C34.9136 14.6801 34.859 14.8049 34.828 14.9381C34.7971 15.0713 34.7904 15.2103 34.8085 15.3466C34.8266 15.4828 34.869 15.6136 34.9332 15.7308C34.9973 15.848 35.0819 15.9492 35.1818 16.0284Z" fill="white"/>
<path d="M26.0991 18.807C25.7227 16.9508 24.6577 17.593 24.6492 17.5967C24.6492 17.5967 25.0298 19.4529 26.0991 18.807Z" fill="white"/>
<path d="M31.8907 17.4721C31.6863 17.464 31.4859 17.4198 31.3018 17.3418C31.1176 17.2639 30.9535 17.1542 30.8194 17.0191C30.685 16.8841 30.5837 16.7267 30.5213 16.5564C30.4587 16.386 30.4364 16.2064 30.4557 16.0283C30.6616 16.0363 30.8633 16.0811 31.0486 16.1597C31.2338 16.2385 31.3986 16.3494 31.5331 16.4859C31.6674 16.6225 31.7686 16.7815 31.83 16.9534C31.8916 17.1253 31.9122 17.3062 31.8907 17.4855V17.4721Z" fill="white"/>
<path d="M33.3489 17.4889C33.3493 17.6883 33.3113 17.8855 33.2375 18.0684C33.1635 18.2513 33.0551 18.4158 32.919 18.5519C32.7829 18.6879 32.6222 18.7926 32.4468 18.8591C32.2712 18.9257 32.0847 18.953 31.8989 18.9389C31.8985 18.7397 31.9365 18.5424 32.0105 18.3596C32.0843 18.1767 32.1928 18.012 32.3288 17.876C32.4649 17.7399 32.6256 17.6353 32.8012 17.5688C32.9766 17.5022 33.1631 17.475 33.3489 17.4889Z" fill="white"/>
<path d="M30.4432 18.9425C28.8928 18.8448 29.0006 17.4992 29.0006 17.4854C29.0006 17.4854 30.555 17.5934 30.4432 18.9425Z" fill="white"/>
<path d="M32.5183 17.4791C32.5777 17.3487 32.6114 17.2074 32.6174 17.0633C32.6234 16.9192 32.6016 16.7753 32.5533 16.6402C32.505 16.505 32.4311 16.3812 32.3361 16.2761C32.241 16.171 32.1267 16.0868 31.9998 16.0283C31.9395 16.1599 31.9054 16.3028 31.8998 16.4485C31.8941 16.5941 31.9169 16.7394 31.9668 16.8756C32.0167 17.0119 32.0926 17.1361 32.19 17.241C32.2875 17.3458 32.4043 17.429 32.5336 17.4855L32.5183 17.4791Z" fill="white"/>
<path d="M36.1896 20.4004C36.2507 20.5546 36.2645 20.7153 36.23 20.8731C36.1956 21.0309 36.1136 21.1823 35.9893 21.3185C35.8647 21.4546 35.7003 21.5725 35.5059 21.6651C35.3115 21.7577 35.0909 21.8231 34.8575 21.8575C34.7964 21.7034 34.7826 21.5425 34.8171 21.3848C34.8515 21.227 34.9335 21.0756 35.0578 20.9394C35.1822 20.8034 35.3466 20.6854 35.5412 20.5928C35.7356 20.5001 35.9562 20.4347 36.1896 20.4004Z" fill="white"/>
<path d="M26.0991 20.3556C26.257 20.4078 26.4206 20.4136 26.5802 20.3725C26.7397 20.3314 26.8917 20.2442 27.0272 20.1165C27.1627 19.9886 27.2788 19.8228 27.3684 19.6287C27.4582 19.4347 27.5196 19.2166 27.5491 18.9875C27.3912 18.9345 27.2273 18.9281 27.0677 18.9688C26.908 19.0096 26.7557 19.0966 26.6201 19.2245C26.4845 19.3526 26.3684 19.5187 26.2789 19.7131C26.1892 19.9076 26.1281 20.1262 26.0991 20.3556Z" fill="white"/>
<path d="M27.5491 20.4105C27.6713 21.9955 28.9888 21.8569 28.999 21.8529C28.999 21.8529 28.87 20.2597 27.5491 20.4105Z" fill="white"/>
<path d="M15.9495 21.8675C15.821 23.4566 14.5131 23.3137 14.4995 23.3096C14.4995 23.3096 14.6347 21.7165 15.9495 21.8675Z" fill="white"/>
<path d="M23.1992 20.3187C24.3387 20.7947 24.6461 19.0139 24.6492 18.9996C24.6492 18.9996 23.5067 18.5234 23.1992 20.3187Z" fill="white"/>
<path d="M20.2993 17.4053C19.1575 17.8785 18.8523 16.1037 18.8494 16.0848C18.8494 16.0848 19.9972 15.6116 20.2993 17.4053Z" fill="white"/>
<path d="M24.6467 20.4004C24.6582 20.586 24.6295 20.7718 24.5623 20.9468C24.4952 21.1219 24.3909 21.2822 24.256 21.4184C24.1209 21.5546 23.9579 21.6637 23.7767 21.7391C23.5955 21.8146 23.3998 21.8549 23.2017 21.8575C23.1902 21.6719 23.2189 21.486 23.2861 21.311C23.3532 21.1361 23.4574 20.9757 23.5924 20.8395C23.7275 20.7034 23.8905 20.5943 24.0717 20.5188C24.2529 20.4434 24.4485 20.403 24.6467 20.4004Z" fill="white"/>
<path d="M39.1518 20.4004C39.0718 21.7773 40.5781 21.8549 40.5981 21.8575C40.5981 21.8575 40.6694 20.4729 39.1518 20.4004Z" fill="white"/>
<path d="M26.7266 17.4855C26.5996 17.4299 26.4846 17.3474 26.3885 17.2431C26.2924 17.1386 26.2173 17.0145 26.1676 16.8782C26.118 16.7419 26.0949 16.5962 26.0998 16.4501C26.1046 16.3041 26.1373 16.1605 26.1958 16.0283C26.3223 16.0847 26.4367 16.1676 26.5323 16.2721C26.6279 16.3766 26.7027 16.5006 26.7522 16.6367C26.8018 16.7727 26.8251 16.918 26.8206 17.0639C26.8163 17.2097 26.7842 17.3531 26.7266 17.4855Z" fill="white"/>
<path d="M24.6492 23.5389C24.5557 23.6131 24.4432 23.6721 24.3185 23.7124C24.1939 23.7527 24.0598 23.7736 23.9242 23.7736C23.7886 23.7736 23.6545 23.7527 23.5299 23.7124C23.4053 23.6721 23.2928 23.6131 23.1992 23.5389C23.2947 23.4663 23.4085 23.409 23.5339 23.3705C23.6594 23.3319 23.7938 23.3129 23.9293 23.3146C24.0647 23.3162 24.1983 23.3386 24.3219 23.3802C24.4457 23.4219 24.557 23.482 24.6492 23.5569V23.5389Z" fill="white"/>
<path d="M33.3489 15.98C33.1019 14.2516 31.9104 14.5985 31.8989 14.6019C31.8989 14.6019 32.1529 16.337 33.3489 15.98Z" fill="white"/>
<path d="M26.1059 30.5997C26.3104 30.5907 26.5108 30.5454 26.6949 30.4665C26.8791 30.3877 27.0432 30.2768 27.1773 30.1407C27.3116 30.0046 27.4131 29.846 27.4759 29.6745C27.5387 29.5029 27.5615 29.322 27.5427 29.1426C27.338 29.1509 27.1374 29.1959 26.9529 29.2746C26.7684 29.3533 26.604 29.4641 26.4697 29.6004C26.3353 29.7365 26.2339 29.8953 26.1714 30.0671C26.1089 30.2389 26.0865 30.4201 26.1059 30.5997Z" fill="white"/>
<path d="M35.6996 18.9425C37.1156 18.1353 35.347 17.4931 35.33 17.4854C35.33 17.4854 33.9197 18.3003 35.694 18.9425H35.6996Z" fill="white"/>
<path d="M17.3933 29.1427C15.8425 29.0428 15.9511 27.6983 15.9511 27.6855C15.9658 27.6855 17.508 27.7905 17.3933 29.1427Z" fill="white"/>
<path d="M24.6492 26.0531C23.619 26.7976 23.2018 24.9339 23.1992 24.9152C23.1992 24.9152 24.2294 24.1753 24.6492 26.0531Z" fill="white"/>
<path d="M32.9895 30.5997C34.1122 29.6917 32.2471 29.1469 32.2292 29.1426C32.2292 29.1426 31.111 30.0571 32.9895 30.5997Z" fill="white"/>
<path d="M14.4931 20.3995C12.9446 20.2988 13.0481 18.9528 13.0521 18.9424C13.0521 18.9424 14.6086 19.0465 14.4931 20.3995Z" fill="white"/>
<path d="M27.5491 29.1073C27.3323 27.4121 26.1087 27.7027 26.0991 27.7071C26.0991 27.7071 26.3222 29.4067 27.5491 29.1073Z" fill="white"/>
<path d="M20.5266 29.1426C20.4504 29.2407 20.3911 29.357 20.3521 29.4846C20.3132 29.612 20.2954 29.748 20.3 29.8843C20.3046 30.0206 20.3314 30.1542 20.3788 30.2772C20.4262 30.4001 20.4931 30.51 20.5757 30.5997C20.6518 30.5017 20.7113 30.3853 20.7501 30.2579C20.7891 30.1304 20.8069 29.9943 20.8022 29.8581C20.7977 29.7218 20.7708 29.5881 20.7235 29.4652C20.6761 29.3422 20.6091 29.2325 20.5266 29.1426Z" fill="white"/>
<path d="M37.6864 14.651C37.413 16.3947 36.2488 15.9965 36.2488 15.9736C36.2488 15.9736 36.5283 14.2255 37.6987 14.6328L37.6864 14.651Z" fill="white"/>
<path d="M27.5491 24.6907C28.6855 25.1668 28.996 23.3859 28.999 23.3717C28.999 23.3717 27.8535 22.8954 27.5491 24.6907Z" fill="white"/>
<path d="M36.2485 21.8613C36.2447 22.0637 36.2034 22.2629 36.1274 22.4469C36.0514 22.631 35.9422 22.7959 35.8064 22.9315C35.6705 23.0672 35.5111 23.1708 35.3377 23.2358C35.1645 23.3008 34.9809 23.326 34.7986 23.3098C34.8038 23.1081 34.8461 22.9095 34.9226 22.7263C34.9991 22.5431 35.1084 22.3789 35.2439 22.2436C35.3793 22.1083 35.5382 22.0045 35.7108 21.939C35.8834 21.8732 36.0664 21.8468 36.2485 21.8613Z" fill="white"/>
<path d="M34.9919 21.8574C35.1 21.9356 35.192 22.0357 35.2625 22.152C35.3329 22.2682 35.3804 22.3981 35.4022 22.5341C35.424 22.67 35.4195 22.8091 35.3891 22.9433C35.3586 23.0773 35.3029 23.2036 35.225 23.3146C35.1163 23.2371 35.0237 23.1371 34.9527 23.021C34.8816 22.9047 34.8338 22.7746 34.8121 22.6384C34.7902 22.5022 34.795 22.3627 34.8258 22.2285C34.8568 22.0943 34.9132 21.9681 34.9919 21.8574Z" fill="white"/>
<path d="M11.5994 27.7928C11.2591 29.6149 10.1581 29.0672 10.1494 29.06C10.1494 29.06 10.4962 27.2308 11.5994 27.7928Z" fill="white"/>
<path d="M39.3267 27.6855C38.5729 28.7264 40.4572 29.1281 40.4572 29.1427C40.4572 29.1427 41.1882 28.1019 39.3267 27.6981V27.6855Z" fill="white"/>
<path d="M15.7573 30.5997C15.5028 30.5437 15.2724 30.4608 15.0801 30.3564C14.8875 30.2519 14.737 30.1278 14.6374 29.9917C14.538 29.8555 14.4913 29.7101 14.5007 29.5641C14.51 29.4182 14.5751 29.2748 14.6918 29.1426C14.9462 29.1986 15.1765 29.2814 15.3691 29.3859C15.5614 29.4904 15.7121 29.6145 15.8116 29.7506C15.9112 29.8868 15.9576 30.0321 15.9483 30.1781C15.9389 30.3241 15.8739 30.4675 15.7573 30.5997Z" fill="white"/>
<path d="M27.5491 26.8916C26.0452 25.3301 24.6645 27.0138 24.6492 27.0312C24.6492 27.0312 26.1685 28.5928 27.5491 26.8916Z" fill="white"/>
<path d="M34.8054 30.5996C35.011 30.608 35.2126 30.6532 35.3979 30.732C35.583 30.8109 35.7477 30.922 35.8821 31.0585C36.0164 31.1947 36.1174 31.3537 36.1791 31.5253C36.2407 31.697 36.2616 31.8779 36.2407 32.0568C36.0355 32.0467 35.8347 32.0008 35.6503 31.9213C35.4661 31.842 35.3021 31.731 35.168 31.5949C35.034 31.4588 34.9328 31.3006 34.8705 31.1295C34.8081 30.9585 34.7861 30.7783 34.8054 30.5996Z" fill="white"/>
<path d="M40.9822 20.4004C41.0684 20.5054 41.1328 20.6271 41.1717 20.7581C41.2107 20.8891 41.2231 21.0268 41.2086 21.163C41.1939 21.299 41.1525 21.4307 41.0867 21.55C41.0209 21.6694 40.9322 21.774 40.8257 21.8575C40.7405 21.7517 40.677 21.6295 40.6391 21.4982C40.6011 21.3668 40.5896 21.2291 40.605 21.0931C40.6205 20.9572 40.6627 20.8257 40.729 20.7067C40.7954 20.5876 40.8846 20.4835 40.9914 20.4004H40.9822Z" fill="white"/>
<path d="M33.3489 29.3589C33.9277 30.2797 34.7904 29.6589 34.7988 29.6589C34.7988 29.6589 34.2115 28.7351 33.3489 29.3589Z" fill="white"/>
<path d="M28.9935 16.0283C27.4499 16.1234 27.5504 17.4739 27.5504 17.4855C27.5663 17.4855 29.1019 17.3833 28.9935 16.0283Z" fill="white"/>
<path d="M35.0035 29.1426C35.1003 29.2251 35.1814 29.3288 35.2418 29.4478C35.3022 29.5666 35.3407 29.698 35.355 29.8342C35.3693 29.9703 35.3592 30.1083 35.3252 30.2399C35.2911 30.3715 35.2338 30.4939 35.1569 30.5997C35.0602 30.5171 34.9793 30.4135 34.9189 30.2947C34.8584 30.176 34.8197 30.0447 34.8051 29.9087C34.7906 29.7727 34.8003 29.6347 34.8339 29.5032C34.8674 29.3715 34.9241 29.2488 35.0005 29.1426H35.0035Z" fill="white"/>
<path d="M36.2488 27.7372C37.4394 27.3681 37.6955 29.0972 37.6987 29.1118C37.6987 29.1118 36.5015 29.4713 36.2488 27.7372Z" fill="white"/>
<path d="M40.5986 24.2207C39.9577 22.4326 39.1566 23.8392 39.1487 23.8571C39.1487 23.8571 39.7948 25.6452 40.5986 24.2207Z" fill="white"/>
<path d="M42.0547 20.4004C43.6042 20.5007 43.4969 21.8437 43.4969 21.8575C43.4969 21.8575 41.9395 21.7502 42.0547 20.4004Z" fill="white"/>
<path d="M36.2485 26.2191C36.1263 24.6362 34.8088 24.7745 34.7986 24.7745C34.7986 24.7745 34.9276 26.3656 36.2485 26.2191Z" fill="white"/>
<path d="M37.6985 21.8889C37.8481 21.8604 38.006 21.8512 38.1619 21.8616C38.3178 21.872 38.4685 21.9019 38.6046 21.9495C38.7407 21.997 38.8592 22.0612 38.9528 22.138C39.0463 22.2148 39.113 22.3026 39.1484 22.3958C38.9999 22.4219 38.8444 22.4294 38.691 22.4178C38.5377 22.4064 38.3896 22.3759 38.256 22.3286C38.1224 22.2812 38.0058 22.2179 37.9134 22.1423C37.821 22.0667 37.7545 21.9806 37.7182 21.8889H37.6985Z" fill="white"/>
<path d="M36.2488 27.7126C36.4 27.6865 36.5584 27.6792 36.7144 27.6911C36.8704 27.703 37.0208 27.7339 37.1564 27.7819C37.292 27.8299 37.41 27.8939 37.5033 27.9701C37.5964 28.0463 37.6629 28.1332 37.6987 28.2254C37.5482 28.2515 37.3904 28.259 37.235 28.2475C37.0795 28.2359 36.9295 28.2055 36.7941 28.1582C36.6587 28.1108 36.5405 28.0475 36.4468 27.9719C36.353 27.8963 36.2857 27.8102 36.2488 27.7185V27.7126Z" fill="white"/>
<path d="M40.5984 26.8377C40.6207 26.7445 40.6762 26.6548 40.7617 26.5738C40.8471 26.4928 40.9609 26.4223 41.096 26.3663C41.2313 26.3104 41.3853 26.2702 41.5488 26.2481C41.7124 26.2261 41.8823 26.2226 42.0483 26.2378C42.0268 26.3312 41.9717 26.4212 41.8864 26.5023C41.8012 26.5835 41.6874 26.6542 41.5521 26.7103C41.4167 26.7662 41.2624 26.8064 41.0986 26.8283C40.9346 26.8502 40.7646 26.8534 40.5984 26.8377Z" fill="white"/>
<path d="M36.8709 27.6855C35.3618 28.4588 37.0704 29.1375 37.088 29.1427C37.088 29.1427 38.5971 28.3536 36.8709 27.6855Z" fill="white"/>
<path d="M42.0483 29.0374C41.7133 27.2184 40.6105 27.7597 40.5984 27.7646C40.5984 27.7646 40.9425 29.5936 42.0483 29.0374Z" fill="white"/>
<path d="M40.5984 20.2933C40.9386 18.4675 42.0375 19.0188 42.0483 19.0259C42.0483 19.0259 41.7016 20.8518 40.5984 20.2933Z" fill="white"/>
<path d="M20.0979 23.3145C18.2114 23.7568 19.0214 24.7625 19.0271 24.7716C19.0271 24.7716 20.9136 24.3233 20.0921 23.3145H20.0979Z" fill="white"/>
<path d="M10.355 26.2285C12.2377 26.6743 11.4248 27.6771 11.4248 27.6857C11.4248 27.6857 9.53682 27.2371 10.355 26.2285Z" fill="white"/>
<path d="M33.3549 18.9424C34.9059 19.0446 34.7972 20.3868 34.7972 20.3995C34.7972 20.3995 33.2404 20.2922 33.3549 18.9424Z" fill="white"/>
<path d="M40.4638 17.4863C41.1018 18.5625 39.2688 18.9392 39.2541 18.9435C39.2541 18.9435 38.6197 17.8673 40.4638 17.4863Z" fill="white"/>
<path d="M37.1544 17.4863C38.5635 19.107 36.7937 20.3889 36.7764 20.4006C36.7764 20.4006 35.3674 18.7681 37.1544 17.4863Z" fill="white"/>
<path d="M31.8989 20.6069C30.8902 19.788 30.4517 21.6679 30.449 21.6834C30.449 21.6834 31.4631 22.4971 31.8989 20.6069Z" fill="white"/>
<path d="M38.6182 20.4004C36.8233 21.0366 38.2069 21.8505 38.2171 21.8575C38.2171 21.8575 40.012 21.2167 38.6182 20.4004Z" fill="white"/>
<path d="M39.4129 21.8574C40.2903 22.4952 39.6092 23.3061 39.6031 23.3146C39.6031 23.3146 38.7226 22.6682 39.4129 21.8574Z" fill="white"/>
<path d="M23.1939 18.9424C21.6488 19.0363 21.7478 20.3891 21.7518 20.3995C21.7518 20.3995 23.3008 20.2987 23.1939 18.9424Z" fill="white"/>
<path d="M30.4617 20.4004C30.6729 20.4152 30.8783 20.4651 31.0654 20.5473C31.2526 20.6293 31.4176 20.7419 31.5506 20.878C31.6837 21.0141 31.782 21.1712 31.8398 21.3394C31.8974 21.5077 31.9131 21.684 31.886 21.8575C31.6749 21.8426 31.4697 21.7927 31.2825 21.7107C31.0954 21.6285 30.9303 21.5161 30.7972 21.3799C30.664 21.2438 30.5658 21.0868 30.5082 20.9184C30.4505 20.7501 30.4348 20.5738 30.4617 20.4004Z" fill="white"/>
<path d="M20.2993 17.576C20.4271 17.5256 20.5669 17.4957 20.7101 17.4882C20.8533 17.4807 20.997 17.4958 21.1324 17.5324C21.2679 17.5692 21.3924 17.6268 21.4984 17.7018C21.6045 17.7768 21.6897 17.8677 21.7493 17.969C21.6214 18.0195 21.4817 18.0494 21.3385 18.0568C21.1953 18.0644 21.0516 18.0493 20.9162 18.0126C20.7807 17.9759 20.6562 17.9183 20.5502 17.8432C20.4441 17.7683 20.3589 17.6773 20.2993 17.576Z" fill="white"/>
<path d="M33.8884 14.5714C35.6743 13.9326 34.2841 13.1222 34.2724 13.1143C34.2724 13.1143 32.4808 13.7584 33.8884 14.5714Z" fill="white"/>
<path d="M8.69971 23.5267C9.70374 22.6916 10.1468 24.5905 10.1497 24.5905C10.1497 24.5905 9.14005 25.4204 8.69971 23.5267Z" fill="white"/>
<path d="M33.3489 16.1094C32.2124 15.6332 31.9019 17.4092 31.8989 17.4283C31.8989 17.4283 33.0444 17.9043 33.3489 16.1094Z" fill="white"/>
<path d="M36.2845 16.0284C36.3718 15.9864 36.4532 15.9149 36.5236 15.8178C36.5941 15.7208 36.6522 15.6005 36.6944 15.4641C36.7366 15.3279 36.762 15.1784 36.769 15.0249C36.7761 14.8714 36.7646 14.7171 36.7354 14.5713C36.6481 14.6131 36.5667 14.6848 36.4961 14.7819C36.4257 14.8789 36.3676 14.9992 36.3254 15.1355C36.2832 15.2718 36.2578 15.4213 36.2508 15.5748C36.2438 15.7284 36.2552 15.8826 36.2845 16.0284Z" fill="white"/>
<path d="M20.3984 17.4827C19.8647 16.364 21.6602 16.034 21.6783 16.0283C21.6783 16.0283 22.203 17.1471 20.3984 17.4855V17.4827Z" fill="white"/>
<path d="M40.3919 24.7715C38.5118 25.2128 39.3204 26.2286 39.3281 26.2286C39.3281 26.2286 41.2119 25.7811 40.3919 24.7715Z" fill="white"/>
<path d="M32.1073 13.1143C33.9891 13.5599 33.1753 14.5614 33.1658 14.5714C33.1658 14.5714 31.284 14.1207 32.1073 13.1143Z" fill="white"/>
<path d="M39.6605 18.9435C39.5452 18.8765 39.4437 18.7851 39.362 18.6749C39.2801 18.5646 39.2198 18.4376 39.1846 18.3016C39.1494 18.1655 39.1399 18.0232 39.1568 17.8832C39.1738 17.743 39.2168 17.6081 39.2831 17.4863C39.3987 17.553 39.5006 17.6441 39.5826 17.7543C39.6646 17.8646 39.7251 17.9917 39.7604 18.1279C39.7956 18.264 39.805 18.4065 39.7878 18.5467C39.7706 18.6869 39.7273 18.8218 39.6605 18.9435Z" fill="white"/>
<path d="M30.9331 27.6857C30.8159 27.6127 30.7145 27.5165 30.6351 27.4027C30.5557 27.2889 30.5 27.1599 30.4713 27.0237C30.4426 26.8874 30.4416 26.7467 30.4683 26.61C30.4948 26.4733 30.5486 26.3435 30.6264 26.2285C30.7437 26.3014 30.845 26.3977 30.9244 26.5115C31.0038 26.6253 31.0596 26.7542 31.0882 26.8904C31.1169 27.0267 31.1179 27.1675 31.0913 27.3042C31.0647 27.4409 31.0109 27.5707 30.9331 27.6857Z" fill="white"/>
<path d="M21.7547 24.7716C23.2987 24.6767 23.1979 23.3276 23.1979 23.3145C23.1979 23.3145 21.6463 23.416 21.7547 24.7716Z" fill="white"/>
<path d="M15.9556 24.7716C17.506 24.677 17.3978 23.3271 17.3978 23.3145C17.3978 23.3145 15.8402 23.4154 15.9556 24.7716Z" fill="white"/>
<path d="M13.1288 20.3995C12.6587 19.2508 14.4263 18.9424 14.4451 18.9424C14.4451 18.9424 14.9077 20.0984 13.1288 20.3995Z" fill="white"/>
<path d="M13.055 26.2252C14.6009 26.128 14.4978 24.7819 14.4978 24.7715C14.4978 24.7715 12.9439 24.8756 13.055 26.2286V26.2252Z" fill="white"/>
<path d="M15.9434 27.6857C14.3976 27.5885 14.5009 26.2424 14.5009 26.2285C14.5009 26.2285 16.0586 26.3326 15.9434 27.6857Z" fill="white"/>
<path d="M20.2959 29.1527C20.1709 30.7392 18.8595 30.5964 18.8494 30.5964C18.8494 30.5964 18.9846 29.0017 20.2993 29.1527H20.2959Z" fill="white"/>
<path d="M20.2993 20.4105C20.1742 21.9996 18.8629 21.8567 18.8494 21.8526C18.8494 21.8526 18.9846 20.2594 20.2993 20.4105Z" fill="white"/>
<path d="M13.0493 29.1526C13.1714 30.7377 14.4857 30.5991 14.4993 30.595C14.4993 30.595 14.3671 29.0019 13.0493 29.1526Z" fill="white"/>
<path d="M11.5937 24.7716C10.0437 24.671 10.151 23.3249 10.151 23.3145C10.151 23.3145 11.705 23.4219 11.5937 24.7716Z" fill="white"/>
<path d="M10.189 26.2286C11.8903 25.9996 11.5766 24.781 11.5766 24.7715C11.5766 24.7715 9.87081 25.007 10.189 26.2286Z" fill="white"/>
<path d="M11.5996 27.7782C11.6414 28.0212 11.7127 28.2477 11.8089 28.4444C11.9052 28.641 12.0247 28.8036 12.1601 28.9223C12.2955 29.0411 12.4441 29.1136 12.597 29.1355C12.7498 29.1576 12.9037 29.1285 13.0496 29.05C13.0078 28.807 12.9366 28.5805 12.8403 28.3839C12.7439 28.1872 12.6245 28.0247 12.4891 27.9059C12.3536 27.7872 12.2051 27.7146 12.0522 27.6927C11.8995 27.6706 11.7455 27.6998 11.5996 27.7782Z" fill="white"/>
<path d="M12.1328 29.1426C12.2101 29.2608 12.262 29.393 12.2855 29.5312C12.309 29.6696 12.3034 29.811 12.2694 29.9472C12.2352 30.0834 12.1732 30.2113 12.087 30.3235C12.0008 30.4356 11.8922 30.5297 11.7677 30.5997C11.6901 30.4817 11.6378 30.3495 11.6141 30.2111C11.5904 30.0727 11.5958 29.9311 11.63 29.7948C11.6641 29.6586 11.7263 29.5304 11.8127 29.4184C11.8992 29.3062 12.0081 29.2124 12.1328 29.1426Z" fill="white"/>
<path d="M11.8091 23.3146C13.6864 22.8732 12.8774 21.8574 12.8696 21.8574C12.8696 21.8574 10.9884 22.3049 11.8051 23.3146H11.8091Z" fill="white"/>
<path d="M20.8392 20.3995C20.7311 20.3436 20.6331 20.2611 20.551 20.157C20.4689 20.0529 20.4043 19.9293 20.3612 19.7934C20.3179 19.6575 20.297 19.5121 20.2995 19.366C20.3021 19.2198 20.3281 19.0758 20.3759 18.9424C20.4843 18.9978 20.5826 19.0801 20.665 19.1841C20.7473 19.2881 20.812 19.4119 20.8552 19.5479C20.8985 19.6839 20.9193 19.8295 20.9166 19.9757C20.9139 20.1221 20.8875 20.2663 20.8392 20.3995Z" fill="white"/>
<path d="M20.8401 13.1134C20.7311 13.0576 20.6324 12.9751 20.5498 12.8708C20.4672 12.7666 20.4025 12.6426 20.3595 12.5065C20.3166 12.3704 20.2962 12.2248 20.2997 12.0787C20.3032 11.9326 20.3305 11.7889 20.3799 11.6562C20.4886 11.7124 20.587 11.7951 20.6693 11.8996C20.7516 12.004 20.816 12.1281 20.8587 12.2641C20.9014 12.4002 20.9214 12.5455 20.9178 12.6915C20.914 12.8375 20.8866 12.981 20.837 13.1134H20.8401Z" fill="white"/>
<path d="M38.0755 13.1134C38.1485 13.0037 38.2014 12.8788 38.2312 12.7459C38.261 12.6131 38.2671 12.4749 38.2491 12.3394C38.2312 12.2039 38.1895 12.0737 38.1265 11.9565C38.0635 11.8392 37.9805 11.7371 37.8822 11.6562C37.8092 11.7659 37.7563 11.8908 37.7265 12.0236C37.6967 12.1565 37.6906 12.2947 37.7086 12.4302C37.7265 12.5658 37.7682 12.6959 37.8312 12.8132C37.8942 12.9305 37.9772 13.0325 38.0755 13.1134Z" fill="#92CCBF" fill-opacity="0.6"/>
<path d="M28.999 15.8906C28.6226 14.0352 27.5598 14.6772 27.5491 14.6845C27.5491 14.6845 27.9319 16.5399 28.999 15.8906Z" fill="#92CCBF" fill-opacity="0.6"/>
<path d="M34.7906 14.5714C34.585 14.5633 34.3835 14.5186 34.1984 14.4398C34.0133 14.3612 33.8485 14.2502 33.7143 14.1138C33.58 13.9773 33.4791 13.8181 33.4176 13.6463C33.3562 13.4744 33.3356 13.2934 33.3571 13.1143C33.5627 13.1222 33.7642 13.167 33.9493 13.2457C34.1344 13.3245 34.299 13.4354 34.4334 13.5719C34.5676 13.7084 34.6686 13.8674 34.73 14.0393C34.7915 14.2112 34.8121 14.3923 34.7906 14.5714Z" fill="#92CCBF" fill-opacity="0.6"/>
<path d="M36.2485 16.0319C36.2489 16.2312 36.211 16.4285 36.1371 16.6114C36.0631 16.7942 35.9547 16.9588 35.8188 17.0949C35.6827 17.2309 35.5219 17.3354 35.3464 17.4021C35.1708 17.4687 34.9844 17.4959 34.7986 17.4819C34.7982 17.2826 34.8361 17.0854 34.9101 16.9025C34.984 16.7196 35.0924 16.555 35.2285 16.419C35.3645 16.2829 35.5252 16.1783 35.7008 16.1118C35.8763 16.0451 36.0627 16.018 36.2485 16.0319Z" fill="#92CCBF" fill-opacity="0.6"/>
<path d="M33.3431 16.0284C31.7926 15.9276 31.9005 14.5852 31.9005 14.5713C31.9005 14.5713 33.4549 14.6791 33.3431 16.0284Z" fill="#92CCBF" fill-opacity="0.6"/>
<path d="M36.0516 16.0284C36.1699 15.8967 36.2364 15.7538 36.247 15.6082C36.2578 15.4626 36.2125 15.3174 36.1139 15.1812C36.0156 15.0451 35.8659 14.9209 35.6741 14.8161C35.4823 14.7113 35.2522 14.628 34.9976 14.5713C34.8786 14.7029 34.8114 14.8459 34.8002 14.9917C34.7891 15.1374 34.8342 15.2828 34.9327 15.4191C35.0312 15.5553 35.1813 15.6796 35.3737 15.7843C35.566 15.889 35.7967 15.9721 36.0516 16.0284Z" fill="#92CCBF" fill-opacity="0.6"/>
<path d="M23.1391 14.5713C23.201 14.7257 23.2152 14.8867 23.1812 15.0449C23.1471 15.203 23.0654 15.3549 22.9408 15.4912C22.8163 15.6274 22.6517 15.7454 22.4569 15.8377C22.2621 15.9301 22.0414 15.9951 21.8081 16.0284C21.7471 15.8742 21.7333 15.7132 21.7678 15.5552C21.8023 15.3972 21.8842 15.2457 22.0085 15.1095C22.1329 14.9733 22.2972 14.8554 22.4915 14.7629C22.6858 14.6704 22.9062 14.6052 23.1391 14.5713Z" fill="#92CCBF" fill-opacity="0.6"/>
<path d="M28.999 17.4414C29.1569 17.4938 29.3206 17.4995 29.4801 17.4583C29.6395 17.4172 29.7916 17.33 29.927 17.2021C30.0625 17.0739 30.1786 16.9077 30.2683 16.7134C30.358 16.5191 30.4194 16.3006 30.449 16.0712C30.2913 16.0197 30.1281 16.0145 29.9691 16.056C29.8099 16.0976 29.6583 16.1849 29.5233 16.3129C29.3883 16.4409 29.2725 16.6068 29.1831 16.8007C29.0937 16.9947 29.0324 17.2126 29.0028 17.4414H28.999Z" fill="#92CCBF" fill-opacity="0.6"/>
<path d="M30.449 17.4959C30.5712 19.0788 31.8887 18.9404 31.8989 18.9404C31.8989 18.9404 31.7699 17.3494 30.449 17.4959Z" fill="#92CCBF" fill-opacity="0.6"/>
<path d="M17.9189 20.4004C19.7204 21.0298 18.3533 21.8496 18.3418 21.8575C18.3418 21.8575 16.5403 21.2229 17.9189 20.4004Z" fill="#92CCBF" fill-opacity="0.6"/>
<path d="M22.2697 10.2002C24.0684 10.8281 22.7048 11.6494 22.6933 11.6573C22.6933 11.6573 20.8886 11.0215 22.2697 10.2002Z" fill="#92CCBF" fill-opacity="0.6"/>
<path d="M26.0991 17.4049C27.2363 17.8795 27.546 16.1042 27.5491 16.0852C27.5491 16.0852 26.4059 15.6104 26.0991 17.4049Z" fill="#92CCBF" fill-opacity="0.6"/>
<path d="M23.1992 15.9487C22.0574 16.4205 21.7522 14.6462 21.7493 14.6274C21.7493 14.6274 22.8971 14.1555 23.1992 15.9487Z" fill="#92CCBF" fill-opacity="0.6"/>
<path d="M23.1992 19.0394C22.8655 20.8697 21.7601 20.3231 21.7493 20.3231C21.7493 20.3231 22.0961 18.4855 23.1992 19.0502V19.0394Z" fill="#92CCBF" fill-opacity="0.6"/>
<path d="M42.0517 17.4863C41.9717 18.8633 43.478 18.9435 43.498 18.9435C43.498 18.9435 43.5693 17.5588 42.0517 17.4863Z" fill="#92CCBF" fill-opacity="0.6"/>
<path d="M29.6265 14.5714C29.4996 14.5158 29.3845 14.4333 29.2884 14.3289C29.1923 14.2245 29.1172 14.1004 29.0676 13.9642C29.0179 13.8279 28.9948 13.6822 28.9997 13.5361C29.0045 13.39 29.0372 13.2465 29.0958 13.1143C29.2224 13.1703 29.3371 13.253 29.433 13.3574C29.5289 13.4618 29.6038 13.5859 29.6534 13.7221C29.703 13.8583 29.7262 14.0037 29.7216 14.1496C29.717 14.2957 29.6846 14.4392 29.6265 14.5714Z" fill="#92CCBF" fill-opacity="0.6"/>
<path d="M27.5491 20.6444C27.454 20.7174 27.3402 20.7751 27.2146 20.8139C27.0891 20.8527 26.9545 20.8719 26.819 20.8702C26.6835 20.8686 26.5498 20.8461 26.4261 20.8041C26.3023 20.7622 26.1912 20.7017 26.0991 20.6263C26.1943 20.5532 26.3082 20.4956 26.4336 20.4567C26.559 20.4179 26.6937 20.3988 26.8292 20.4005C26.9648 20.4021 27.0984 20.4246 27.2221 20.4665C27.3459 20.5085 27.4571 20.569 27.5491 20.6444Z" fill="#92CCBF" fill-opacity="0.6"/>
<path d="M36.1925 13.1134C36.5798 11.9251 34.8338 11.6585 34.8338 11.6562C34.8338 11.6562 34.4534 12.8514 36.1925 13.1134Z" fill="#92CCBF" fill-opacity="0.6"/>
<path d="M27.5545 27.6857C29.097 27.5882 28.9977 26.2413 28.9977 26.2285C28.9977 26.2285 27.4464 26.3311 27.5545 27.6857Z" fill="#92CCBF" fill-opacity="0.6"/>
<path d="M38.5961 16.0284C40.0179 15.2198 38.2479 14.5765 38.2308 14.5713C38.2308 14.5713 36.8148 15.3852 38.6019 16.0284H38.5961Z" fill="#92CCBF" fill-opacity="0.6"/>
<path d="M20.2933 26.2286C18.7423 26.1289 18.851 24.7843 18.851 24.7715C18.851 24.7715 20.4078 24.8788 20.2933 26.2286Z" fill="#92CCBF" fill-opacity="0.6"/>
<path d="M27.5491 23.1376C26.5189 23.886 26.1043 22.0197 26.0991 22.001C26.0991 22.001 27.1293 21.2619 27.5491 23.1376Z" fill="#92CCBF" fill-opacity="0.6"/>
<path d="M37.3419 27.6857C38.4599 26.7777 36.5951 26.2328 36.5772 26.2285C36.5772 26.2285 35.4636 27.143 37.3374 27.6857H37.3419Z" fill="#92CCBF" fill-opacity="0.6"/>
<path d="M17.3933 18.9435C15.8439 18.8431 15.951 17.5002 15.951 17.4863C15.951 17.4863 17.5086 17.5936 17.3933 18.9435Z" fill="#92CCBF" fill-opacity="0.6"/>
<path d="M26.1044 26.2286C27.6507 26.1314 27.5476 24.7854 27.5476 24.7715C27.5476 24.7715 25.9974 24.8756 26.1044 26.2286Z" fill="#92CCBF" fill-opacity="0.6"/>
<path d="M22.4579 23.342C22.3868 23.319 22.3117 23.3103 22.2372 23.3163C22.1625 23.3224 22.0899 23.3431 22.0238 23.3773C21.9576 23.4115 21.8991 23.4584 21.852 23.5152C21.8048 23.572 21.7698 23.6376 21.7493 23.7079C21.8203 23.7314 21.8955 23.7405 21.9702 23.7347C22.045 23.7289 22.1177 23.7082 22.184 23.6739C22.2504 23.6397 22.3088 23.5926 22.3559 23.5355C22.4029 23.4785 22.4377 23.4127 22.4579 23.342Z" fill="#92CCBF" fill-opacity="0.6"/>
<path d="M39.1484 11.7165C38.875 13.4603 37.7108 13.0895 37.6985 13.0621C37.6985 13.0621 37.9781 11.3138 39.1484 11.7165Z" fill="#92CCBF" fill-opacity="0.6"/>
<path d="M28.999 21.7769C30.1354 22.2516 30.4459 20.4763 30.449 20.4574C30.449 20.4574 29.3035 19.9827 28.999 21.7722V21.7769Z" fill="#92CCBF" fill-opacity="0.6"/>
<path d="M39.1484 20.4047C39.1434 20.6083 39.1013 20.8087 39.0245 20.9935C38.9478 21.1782 38.8381 21.3433 38.7023 21.479C38.5666 21.6145 38.4075 21.7174 38.2349 21.7816C38.0621 21.8457 37.8797 21.8696 37.6985 21.8519C37.703 21.6501 37.744 21.4513 37.8191 21.268C37.8944 21.0844 38.0021 20.9202 38.1357 20.7847C38.2693 20.6494 38.4263 20.5459 38.5967 20.4806C38.7672 20.4152 38.9477 20.3894 39.1275 20.4047H39.1484Z" fill="#92CCBF" fill-opacity="0.6"/>
<path d="M37.8918 18.9424C38.0005 19.0199 38.0932 19.1198 38.1642 19.236C38.2352 19.3523 38.283 19.4824 38.3048 19.6186C38.3266 19.7548 38.3219 19.8942 38.2909 20.0284C38.2601 20.1626 38.2036 20.2889 38.125 20.3995C38.0162 20.322 37.9236 20.2221 37.8526 20.1059C37.7816 19.9896 37.7338 19.8595 37.7119 19.7234C37.6902 19.5871 37.6949 19.4477 37.7258 19.3135C37.7567 19.1793 37.8132 19.053 37.8918 18.9424Z" fill="#92CCBF" fill-opacity="0.6"/>
<path d="M14.4993 26.3347C14.159 28.1605 13.0602 27.6092 13.0493 27.6021C13.0493 27.6021 13.3961 25.7762 14.4993 26.3347Z" fill="#92CCBF" fill-opacity="0.6"/>
<path d="M42.2266 24.7715C41.4728 25.8198 43.3571 26.2245 43.3571 26.2286C43.3571 26.2286 44.0881 25.1803 42.2266 24.7715Z" fill="#92CCBF" fill-opacity="0.6"/>
<path d="M18.6378 27.6857C16.7566 27.2441 17.5762 26.2411 17.5821 26.2285C17.5821 26.2285 19.4692 26.6795 18.6378 27.6857Z" fill="#92CCBF" fill-opacity="0.6"/>
<path d="M30.449 23.9776C28.9451 22.4161 27.5644 24.0997 27.5491 24.1172C27.5491 24.1172 29.0684 25.6786 30.449 23.9776Z" fill="#92CCBF" fill-opacity="0.6"/>
<path d="M37.6988 27.6855C37.8015 27.6942 37.9021 27.7393 37.9947 27.8181C38.0872 27.8968 38.1696 28.0077 38.237 28.1438C38.3044 28.2801 38.3553 28.4389 38.3867 28.6105C38.4182 28.7822 38.4294 28.9632 38.4197 29.1427C38.3172 29.1333 38.2169 29.0878 38.1247 29.0087C38.0325 28.9295 37.9505 28.8186 37.8834 28.6825C37.8164 28.5464 37.7657 28.388 37.7345 28.2166C37.7033 28.0452 37.6922 27.8646 37.7019 27.6855H37.6988Z" fill="#92CCBF" fill-opacity="0.6"/>
<path d="M43.8945 17.4863C43.9796 17.5923 44.0428 17.7146 44.0805 17.8461C44.1182 17.9776 44.1295 18.1154 44.1138 18.2515C44.098 18.3874 44.0555 18.5188 43.9889 18.6377C43.9222 18.7567 43.8327 18.8606 43.7258 18.9435C43.6403 18.8377 43.5766 18.7154 43.5388 18.5839C43.5008 18.4523 43.4894 18.3144 43.5052 18.1782C43.5209 18.0421 43.5635 17.9106 43.6304 17.7917C43.6973 17.6728 43.7872 17.5689 43.8945 17.4863Z" fill="#92CCBF" fill-opacity="0.6"/>
<path d="M36.2488 26.4436C36.8304 27.3643 37.6903 26.7435 37.6987 26.7435C37.6987 26.7435 37.1115 25.8228 36.2488 26.4436Z" fill="#92CCBF" fill-opacity="0.6"/>
<path d="M31.8961 13.1166C30.3522 13.2139 30.4502 14.5714 30.4502 14.5714C30.4634 14.5714 32.002 14.4672 31.8934 13.1143L31.8961 13.1166Z" fill="#92CCBF" fill-opacity="0.6"/>
<path d="M37.9041 27.6855C38.0011 27.7677 38.0824 27.8713 38.1431 27.9901C38.2037 28.1089 38.2423 28.2405 38.2567 28.3768C38.2711 28.5131 38.2608 28.6513 38.2265 28.783C38.1922 28.9146 38.1347 29.037 38.0574 29.1427C37.9603 29.0606 37.879 28.957 37.8184 28.8382C37.7578 28.7193 37.7192 28.5878 37.7048 28.4514C37.6904 28.3152 37.7007 28.177 37.7349 28.0453C37.7693 27.9136 37.8268 27.7912 37.9041 27.6855Z" fill="#92CCBF" fill-opacity="0.6"/>
<path d="M39.1487 26.2789C40.3392 25.9155 40.5953 27.6357 40.5986 27.655C40.5986 27.655 39.4014 28.0136 39.1487 26.2789Z" fill="#92CCBF" fill-opacity="0.6"/>
<path d="M43.4985 21.3053C42.8576 19.5156 42.0565 20.9309 42.0486 20.9427C42.0486 20.9427 42.6947 22.7324 43.4985 21.3053Z" fill="#92CCBF" fill-opacity="0.6"/>
<path d="M44.9546 17.4863C46.5041 17.5867 46.3968 18.9296 46.3968 18.9435C46.3968 18.9435 44.8394 18.8361 44.9546 17.4863Z" fill="#92CCBF" fill-opacity="0.6"/>
<path d="M34.7986 26.218C34.927 24.6279 36.235 24.7751 36.2485 24.7751C36.2485 24.7751 36.1133 26.3733 34.7986 26.218Z" fill="#92CCBF" fill-opacity="0.6"/>
<path d="M37.6987 24.7615C37.5765 23.1766 36.259 23.315 36.2488 23.3191C36.2488 23.3191 36.3778 24.9122 37.6987 24.7615Z" fill="#92CCBF" fill-opacity="0.6"/>
<path d="M40.5984 20.4277C40.7491 20.4016 40.9072 20.3941 41.0628 20.4057C41.2185 20.4172 41.3686 20.4477 41.5042 20.495C41.6397 20.5424 41.7578 20.6058 41.8513 20.6813C41.9449 20.7569 42.0118 20.843 42.0483 20.9345C41.8976 20.9611 41.7394 20.9689 41.5835 20.9575C41.4275 20.9462 41.2772 20.9158 41.1415 20.8684C41.0057 20.821 40.8876 20.7574 40.7942 20.6816C40.7008 20.6058 40.6341 20.5194 40.5984 20.4277Z" fill="#92CCBF" fill-opacity="0.6"/>
<path d="M39.1487 24.7989C39.2992 24.7727 39.457 24.7652 39.6125 24.7767C39.7679 24.7883 39.9179 24.8186 40.0535 24.866C40.1889 24.9133 40.307 24.9767 40.4006 25.0523C40.4944 25.1278 40.5617 25.2141 40.5986 25.3057C40.4481 25.3318 40.2903 25.3393 40.1349 25.3278C39.9794 25.3163 39.8294 25.2859 39.694 25.2386C39.5586 25.1912 39.4404 25.1278 39.3467 25.0523C39.2529 24.9767 39.1856 24.8905 39.1487 24.7989Z" fill="#92CCBF" fill-opacity="0.6"/>
<path d="M43.4983 23.9246C43.5192 23.831 43.5737 23.7409 43.6588 23.6595C43.7437 23.5781 43.8575 23.5072 43.9931 23.4512C44.1288 23.3951 44.2834 23.3549 44.4475 23.3332C44.6117 23.3115 44.782 23.3086 44.9482 23.3248C44.9275 23.4182 44.873 23.5085 44.7879 23.5898C44.7028 23.6712 44.589 23.7421 44.4534 23.7982C44.3179 23.8543 44.1633 23.8944 43.9992 23.9161C43.8349 23.9378 43.6645 23.9408 43.4983 23.9246Z" fill="#92CCBF" fill-opacity="0.6"/>
<path d="M38.3205 24.7715C36.8115 25.5434 38.5202 26.2208 38.5378 26.2286C38.5378 26.2286 40.0468 25.441 38.3205 24.7715Z" fill="#92CCBF" fill-opacity="0.6"/>
<path d="M44.9482 26.1298C44.6131 24.3036 43.5105 24.8454 43.4983 24.8504C43.4983 24.8504 43.8425 26.6766 44.9482 26.1247V26.1298Z" fill="#92CCBF" fill-opacity="0.6"/>
<path d="M42.0486 17.3782C42.3889 15.5561 43.4899 16.1038 43.4985 16.111C43.4985 16.111 43.1518 17.9403 42.0486 17.3782Z" fill="#92CCBF" fill-opacity="0.6"/>
<path d="M23.0112 20.4004C22.7567 20.4557 22.5261 20.5381 22.3333 20.6422C22.1404 20.7464 21.9892 20.8705 21.889 21.0067C21.7888 21.1429 21.7416 21.2886 21.7503 21.4349C21.7589 21.5811 21.8232 21.7249 21.9394 21.8575C22.1932 21.8019 22.4233 21.7194 22.6156 21.6151C22.8082 21.5109 22.9589 21.3869 23.0591 21.2508C23.1592 21.1146 23.2066 20.969 23.1983 20.8229C23.19 20.6768 23.1264 20.5331 23.0112 20.4004Z" fill="#92CCBF" fill-opacity="0.6"/>
<path d="M13.255 23.3145C15.1377 23.7573 14.3247 24.7601 14.3247 24.7716C14.3247 24.7716 12.4366 24.3202 13.255 23.3145Z" fill="#92CCBF" fill-opacity="0.6"/>
<path d="M18.8524 14.5713C20.4035 14.671 20.2978 16.0156 20.2978 16.0284C20.2978 16.0284 18.7408 15.921 18.8554 14.5713H18.8524Z" fill="#92CCBF" fill-opacity="0.6"/>
<path d="M43.3637 14.5713C44.0018 15.6475 42.1688 16.0263 42.154 16.0284C42.154 16.0284 41.5196 14.9523 43.3637 14.5713Z" fill="#92CCBF" fill-opacity="0.6"/>
<path d="M40.0543 14.5713C41.4634 16.1903 39.6936 17.4739 39.6763 17.4856C39.6763 17.4856 38.2673 15.8509 40.0543 14.5713Z" fill="#92CCBF" fill-opacity="0.6"/>
<path d="M33.3489 17.6912C32.343 16.8748 31.9044 18.7488 31.8989 18.7694C31.8989 18.7694 32.9131 19.5806 33.3489 17.6912Z" fill="#92CCBF" fill-opacity="0.6"/>
<path d="M41.5167 17.4863C39.7247 18.1202 41.1059 18.9365 41.1162 18.9435C41.1162 18.9435 42.9135 18.3027 41.5167 17.4863Z" fill="#92CCBF" fill-opacity="0.6"/>
<path d="M42.3128 18.9424C43.1932 19.5815 42.5092 20.391 42.503 20.3995C42.503 20.3995 41.6225 19.7548 42.3128 18.9424Z" fill="#92CCBF" fill-opacity="0.6"/>
<path d="M26.0938 16.0283C24.5475 16.1254 24.6506 17.4716 24.6506 17.4855C24.6506 17.4855 26.2008 17.3814 26.0938 16.0283Z" fill="#92CCBF" fill-opacity="0.6"/>
<path d="M31.911 17.4854C32.1221 17.4996 32.3274 17.5491 32.5146 17.6309C32.7017 17.7128 32.8669 17.8252 33.0002 17.9613C33.1334 18.0977 33.2317 18.2548 33.2896 18.4234C33.3472 18.5921 33.3631 18.7686 33.336 18.9425C33.1253 18.9275 32.9205 18.8776 32.7337 18.7956C32.547 18.7134 32.3822 18.601 32.249 18.465C32.116 18.3288 32.0175 18.172 31.9595 18.0037C31.9013 17.8353 31.8848 17.6591 31.911 17.4854Z" fill="#92CCBF" fill-opacity="0.6"/>
<path d="M23.1992 14.659C23.3276 14.609 23.4677 14.5797 23.611 14.5729C23.7543 14.5659 23.8979 14.5816 24.0331 14.6188C24.1685 14.656 24.2928 14.7141 24.3987 14.7895C24.5045 14.865 24.5897 14.9562 24.6492 15.0579C24.521 15.1079 24.3811 15.1374 24.2381 15.1445C24.0949 15.1516 23.9514 15.1362 23.8162 15.0993C23.6809 15.0623 23.5565 15.0046 23.4505 14.9294C23.3446 14.8543 23.2591 14.7634 23.1992 14.662V14.659Z" fill="#92CCBF" fill-opacity="0.6"/>
<path d="M36.3153 14.5714C38.0862 14.2659 37.6516 13.1265 37.6516 13.1143C37.6516 13.1143 35.8761 13.4198 36.32 14.5714H36.3153Z" fill="#92CCBF" fill-opacity="0.6"/>
<path d="M11.5996 22.0683C12.6036 21.2363 13.0467 23.1349 13.0496 23.1349C13.0496 23.1349 12.0399 23.9616 11.5996 22.0683Z" fill="#92CCBF" fill-opacity="0.6"/>
<path d="M34.7988 13.1952C33.6623 12.7189 33.3518 14.4999 33.3489 14.5142C33.3489 14.5142 34.4943 14.9904 34.7988 13.1952Z" fill="#92CCBF" fill-opacity="0.6"/>
<path d="M39.1826 13.1134C39.2699 13.0715 39.3513 12.9999 39.4219 12.9029C39.4923 12.8059 39.5504 12.6856 39.5926 12.5492C39.6348 12.4129 39.6602 12.2634 39.6672 12.1098C39.6743 11.9565 39.6629 11.802 39.6336 11.6562C39.5468 11.6995 39.4659 11.7719 39.3958 11.8692C39.3258 11.9665 39.2681 12.0868 39.226 12.2227C39.184 12.3586 39.1584 12.5075 39.1509 12.6606C39.1436 12.8136 39.1543 12.9676 39.1826 13.1134Z" fill="#92CCBF" fill-opacity="0.6"/>
<path d="M23.2982 14.5714C22.765 13.4506 24.559 13.1171 24.5771 13.1143C24.5771 13.1143 25.1059 14.2352 23.2982 14.5714Z" fill="#92CCBF" fill-opacity="0.6"/>
<path d="M43.2903 21.8574C41.4144 22.2987 42.2189 23.3146 42.2266 23.3146C42.246 23.3146 44.1102 22.865 43.2903 21.8574Z" fill="#92CCBF" fill-opacity="0.6"/>
<path d="M37.0528 11.6562C38.591 12.4187 36.9011 13.1064 36.8853 13.1134C36.8853 13.1134 35.3473 12.3439 37.0528 11.6562Z" fill="#92CCBF" fill-opacity="0.6"/>
<path d="M42.5605 16.0284C42.4448 15.962 42.343 15.8708 42.261 15.7604C42.179 15.65 42.1187 15.5229 42.0837 15.3865C42.0487 15.2502 42.0397 15.1077 42.0574 14.9676C42.075 14.8274 42.1188 14.6926 42.1862 14.5713C42.3015 14.6381 42.4031 14.7295 42.4848 14.8399C42.5665 14.9503 42.6266 15.0774 42.6616 15.2136C42.6966 15.3498 42.7057 15.4921 42.6883 15.6322C42.6709 15.7722 42.6274 15.9071 42.5605 16.0284Z" fill="#92CCBF" fill-opacity="0.6"/>
<path d="M34.38 26.2287C32.524 25.0741 33.7375 23.3303 33.7501 23.3145C33.7501 23.3145 35.606 24.5007 34.38 26.2287Z" fill="#92CCBF" fill-opacity="0.6"/>
<path d="M23.2046 23.3146C24.7512 23.2194 24.6503 21.8706 24.6466 21.8574C24.6466 21.8574 23.0963 21.9592 23.2046 23.3146Z" fill="#92CCBF" fill-opacity="0.6"/>
<path d="M18.8555 21.8575C20.4024 21.76 20.2978 20.413 20.2978 20.4004C20.2978 20.4004 18.7401 20.5043 18.8555 21.8575Z" fill="#92CCBF" fill-opacity="0.6"/>
<path d="M17.4779 18.9435C17.0113 17.7948 18.7763 17.4863 18.7952 17.4863C18.7952 17.4863 19.258 18.6399 17.4779 18.9435Z" fill="#92CCBF" fill-opacity="0.6"/>
<path d="M14.5048 23.3146C16.0511 23.2208 15.948 21.8714 15.948 21.8574C15.948 21.8574 14.3977 21.9584 14.5048 23.3146Z" fill="#92CCBF" fill-opacity="0.6"/>
<path d="M18.8437 24.7716C17.2978 24.6745 17.4008 23.3284 17.4008 23.3145C17.4008 23.3145 18.9546 23.4186 18.8437 24.7716Z" fill="#92CCBF" fill-opacity="0.6"/>
<path d="M23.1992 22.3945C23.0598 22.4333 22.9109 22.4516 22.7615 22.4481C22.6119 22.4447 22.4649 22.4197 22.3293 22.3745C22.1938 22.3294 22.0725 22.2651 21.9728 22.1855C21.8731 22.1059 21.797 22.0127 21.7493 21.9115C21.8886 21.8727 22.0376 21.8544 22.187 21.8578C22.3366 21.8612 22.4836 21.8862 22.6192 21.9314C22.7547 21.9766 22.876 22.0408 22.9757 22.1205C23.0754 22.2001 23.1514 22.2933 23.1992 22.3945Z" fill="#92CCBF" fill-opacity="0.6"/>
<path d="M23.1992 17.4959C23.0738 19.0829 21.7594 18.9402 21.7493 18.9402C21.7493 18.9402 21.8712 17.349 23.1992 17.4959Z" fill="#92CCBF" fill-opacity="0.6"/>
<path d="M15.9495 27.6951C16.0747 29.278 17.3858 29.1396 17.3994 29.1396C17.3994 29.1396 17.2673 27.5486 15.9495 27.6951Z" fill="#92CCBF" fill-opacity="0.6"/>
<path d="M14.4932 21.8575C12.9437 21.7572 13.0509 20.4143 13.0509 20.4004C13.0509 20.4004 14.6084 20.5076 14.4932 21.8575Z" fill="#92CCBF" fill-opacity="0.6"/>
<path d="M13.09 23.3146C14.7885 23.0828 14.4789 21.8701 14.4745 21.8574C14.4745 21.8574 12.767 22.0955 13.09 23.3146Z" fill="#92CCBF" fill-opacity="0.6"/>
<path d="M14.503 24.8656C14.5444 25.1082 14.6153 25.3345 14.7112 25.5308C14.8072 25.7273 14.9264 25.8896 15.0614 26.0083C15.1966 26.1271 15.3449 26.1996 15.4975 26.2215C15.6501 26.2435 15.8038 26.2146 15.9495 26.1362C15.9081 25.8931 15.8371 25.6661 15.7409 25.4693C15.6447 25.2725 15.5252 25.1098 15.3896 24.991C15.2542 24.8721 15.1054 24.7998 14.9524 24.7783C14.7994 24.7568 14.6454 24.7864 14.4995 24.8656H14.503Z" fill="#92CCBF" fill-opacity="0.6"/>
<path d="M15.0342 26.2285C15.5986 27.1243 14.6783 27.6796 14.6691 27.6857C14.5909 27.5677 14.5383 27.4355 14.5143 27.2971C14.4903 27.1587 14.4956 27.017 14.5297 26.8806C14.5639 26.7443 14.6262 26.6161 14.713 26.504C14.7997 26.3919 14.909 26.2982 15.0342 26.2285Z" fill="#92CCBF" fill-opacity="0.6"/>
<path d="M14.7112 20.3995C16.5931 19.9582 15.7705 18.9424 15.7705 18.9424C15.7705 18.9424 13.8847 19.3899 14.7072 20.3995H14.7112Z" fill="#92CCBF" fill-opacity="0.6"/>
<path d="M23.74 17.4855C23.6311 17.4297 23.5324 17.3472 23.4498 17.2429C23.3672 17.1386 23.3025 17.0147 23.2595 16.8786C23.2164 16.7424 23.1961 16.597 23.1996 16.4509C23.2031 16.3047 23.2305 16.1611 23.2799 16.0283C23.3891 16.0836 23.4882 16.166 23.571 16.2702C23.6538 16.3744 23.7187 16.4983 23.7618 16.6346C23.8048 16.7709 23.825 16.9165 23.8213 17.0627C23.8176 17.2091 23.7899 17.3528 23.74 17.4855Z" fill="#92CCBF" fill-opacity="0.6"/>
<path d="M19.054 20.3995C18.9733 20.2908 18.9144 20.166 18.881 20.0327C18.8477 19.8994 18.8406 19.7603 18.8601 19.6241C18.8797 19.4878 18.9254 19.357 18.9946 19.2398C19.0638 19.1226 19.155 19.0214 19.2626 18.9424C19.343 19.0513 19.4014 19.1762 19.4346 19.3093C19.4676 19.4426 19.4746 19.5815 19.4551 19.7177C19.4356 19.8539 19.39 19.9845 19.3211 20.1017C19.2521 20.2189 19.1613 20.3202 19.054 20.3995Z" fill="white"/>
<path d="M24.6492 15.889C25.401 14.0385 27.5291 14.6759 27.5491 14.6829C27.5491 14.7 26.7853 16.5402 24.6492 15.889Z" fill="white"/>
<path d="M20.306 16.0243C20.5111 16.0146 20.7119 15.969 20.8962 15.89C21.0806 15.811 21.2449 15.7003 21.379 15.5646C21.5132 15.429 21.6146 15.271 21.6769 15.1004C21.7394 14.9296 21.7618 14.7497 21.7426 14.5713C21.5372 14.5815 21.3364 14.6277 21.152 14.7071C20.9676 14.7865 20.8034 14.8976 20.6693 15.0336C20.5351 15.1697 20.4339 15.3278 20.3714 15.4987C20.309 15.6697 20.2868 15.8498 20.306 16.0284V16.0243Z" fill="white"/>
<path d="M18.8494 16.0312C18.8525 16.2306 18.8929 16.4272 18.9681 16.6093C19.0434 16.7914 19.1521 16.9552 19.2875 17.0908C19.423 17.2264 19.5825 17.3312 19.7564 17.3985C19.9302 17.4659 20.115 17.4946 20.2993 17.4829C20.2968 17.2834 20.2569 17.0864 20.1817 16.9039C20.1066 16.7216 19.998 16.5575 19.8624 16.4218C19.7268 16.286 19.5672 16.1814 19.393 16.1142C19.2189 16.047 19.034 16.0188 18.8494 16.0312Z" fill="white"/>
<path d="M21.7554 16.0284C23.3054 15.9281 23.1976 14.5843 23.1976 14.5713C23.1976 14.5713 21.6401 14.6782 21.7554 16.0284Z" fill="white"/>
<path d="M19.0668 16.0254C18.2251 15.0224 20.0977 14.5713 20.1144 14.5713C20.1144 14.5713 20.9505 15.5803 19.0668 16.0284V16.0254Z" fill="white"/>
<path d="M33.4081 16.0283C33.3466 16.1824 33.3328 16.3431 33.3677 16.5008C33.4025 16.6586 33.4854 16.81 33.6112 16.9461C33.737 17.0822 33.9032 17.2001 34.0997 17.2928C34.2964 17.3854 34.5193 17.451 34.7552 17.4855C34.7552 17.4855 35.1754 16.3091 33.4081 16.0283Z" fill="white"/>
<path d="M26.0991 18.9001C25.9408 18.952 25.7766 18.9574 25.6167 18.9159C25.4568 18.8743 25.3045 18.7869 25.169 18.6587C25.0334 18.5305 24.9174 18.3643 24.8281 18.1701C24.7388 17.9759 24.6779 17.7578 24.6492 17.5291C24.8068 17.4778 24.9702 17.4726 25.1292 17.5139C25.2882 17.555 25.4399 17.6419 25.575 17.7689C25.7101 17.896 25.8258 18.0609 25.9152 18.2534C26.0047 18.4461 26.0661 18.6627 26.0956 18.89L26.0991 18.9001Z" fill="white"/>
<path d="M24.6492 18.9557C24.526 20.5362 23.2118 20.3964 23.1992 20.3964C23.1992 20.3964 23.3287 18.8045 24.6492 18.952V18.9557Z" fill="white"/>
<path d="M36.2488 20.4106C36.3778 22.002 37.6862 21.8539 37.6987 21.8539C37.6987 21.8539 37.5635 20.2588 36.2488 20.4106Z" fill="white"/>
<path d="M28.999 18.8613C27.8626 19.3403 27.5519 17.5697 27.5491 17.5432C27.5491 17.5432 28.6939 17.0687 28.999 18.8613Z" fill="white"/>
<path d="M33.3489 15.9483C34.4897 16.4241 34.796 14.6263 34.7988 14.6263C34.7988 14.6263 33.6523 14.1591 33.3489 15.9483Z" fill="white"/>
<path d="M31.903 20.5068C32.5836 22.3307 34.7787 21.7816 34.7988 21.7749C34.7988 21.7749 34.1061 19.9476 31.8989 20.5068H31.903Z" fill="white"/>
<path d="M11.5963 17.4863C11.6759 18.8755 10.1659 18.9435 10.1499 18.9435C10.1499 18.9435 10.0784 17.5471 11.5963 17.4863Z" fill="white"/>
<path d="M24.8418 16.0284C25.0963 15.9726 25.3266 15.8899 25.519 15.7854C25.7115 15.6809 25.862 15.5568 25.9615 15.4206C26.061 15.2845 26.1074 15.139 26.0979 14.9929C26.0886 14.847 26.0233 14.7035 25.9065 14.5713C25.652 14.6272 25.4217 14.7099 25.2293 14.8144C25.0368 14.9189 24.8863 15.043 24.7868 15.1791C24.6872 15.3154 24.6409 15.4609 24.6504 15.6068C24.6597 15.7528 24.725 15.8963 24.8418 16.0284Z" fill="white"/>
<path d="M27.5491 22.1198C27.6442 22.199 27.7579 22.2615 27.8835 22.3036C28.0091 22.3456 28.1438 22.3662 28.2795 22.3643C28.4153 22.3623 28.549 22.3377 28.6728 22.2921C28.7964 22.2464 28.9074 22.1807 28.999 22.0988C28.904 22.0206 28.7907 21.9589 28.6658 21.9175C28.5409 21.876 28.407 21.8556 28.2722 21.8576C28.1374 21.8595 28.0045 21.8838 27.8815 21.9288C27.7584 21.9739 27.6479 22.0389 27.5565 22.1198H27.5491Z" fill="white"/>
<path d="M26.0991 20.3505C26.3446 18.6234 27.5358 18.9689 27.5491 18.9736C27.5491 18.9736 27.2935 20.7102 26.0991 20.3505Z" fill="white"/>
<path d="M26.0991 27.6187C24.9341 28.0458 24.652 26.2908 24.6492 26.2737C24.6492 26.2737 25.8198 25.8466 26.0991 27.6187Z" fill="white"/>
<path d="M16.5035 17.4855C15.0792 16.6789 16.8489 16.0451 16.8648 16.0283C16.8648 16.0283 18.2838 16.8421 16.4981 17.4855H16.5035Z" fill="white"/>
<path d="M36.2549 27.6857C37.8037 27.5834 37.6972 26.2428 37.6972 26.2285C37.6807 26.2285 36.1402 26.3355 36.2549 27.6857Z" fill="white"/>
<path d="M21.697 20.3995C21.7542 20.2435 21.7646 20.0812 21.7274 19.9223C21.6903 19.7636 21.6065 19.6116 21.4809 19.4753C21.3553 19.3392 21.1906 19.2218 20.9967 19.1302C20.8029 19.0386 20.5838 18.9747 20.3529 18.9424C20.2947 19.0984 20.2838 19.2608 20.3206 19.4198C20.3575 19.5788 20.4412 19.7311 20.567 19.8673C20.6927 20.0036 20.8576 20.121 21.0519 20.2125C21.2462 20.304 21.4656 20.3676 21.697 20.3995Z" fill="white"/>
<path d="M17.7571 29.1427C16.6376 28.235 18.5021 27.6916 18.5188 27.6855C18.5188 27.6855 19.6383 28.6013 17.7571 29.1427Z" fill="white"/>
<path d="M39.1547 18.9435C40.7031 18.8435 40.5997 17.4991 40.596 17.4863C40.596 17.4863 39.0402 17.5927 39.1547 18.9435Z" fill="white"/>
<path d="M28.9934 27.6857C27.4484 27.592 27.5478 26.2415 27.5516 26.2285C27.5516 26.2285 29.1039 26.3319 28.9934 27.6857Z" fill="white"/>
<path d="M33.6446 27.6855C33.7262 27.7838 33.7898 27.9002 33.8315 28.0276C33.8732 28.155 33.8922 28.2909 33.8873 28.4269C33.8825 28.563 33.8538 28.6967 33.8032 28.8197C33.7525 28.9427 33.6807 29.0525 33.5924 29.1427C33.5108 29.0444 33.4472 28.928 33.4055 28.8006C33.3637 28.6732 33.3448 28.5374 33.3496 28.4012C33.3545 28.2651 33.3831 28.1316 33.4338 28.0086C33.4845 27.8856 33.5562 27.7757 33.6446 27.6855Z" fill="white"/>
<path d="M17.3994 19.0035C17.6854 20.7574 18.8293 20.3629 18.8494 20.3587C18.8494 20.3587 18.5634 18.596 17.3994 19.0035Z" fill="white"/>
<path d="M24.6492 23.2324C23.5274 23.7116 23.202 21.9397 23.1992 21.9133C23.1992 21.9133 24.3435 21.4428 24.6492 23.2324Z" fill="white"/>
<path d="M14.4995 20.4041C14.5044 20.6066 14.5462 20.8059 14.6227 20.9898C14.6991 21.1738 14.8085 21.3385 14.9441 21.4741C15.0799 21.6096 15.239 21.713 15.4117 21.7782C15.5845 21.8433 15.7674 21.8688 15.9495 21.853C15.9432 21.651 15.9004 21.4524 15.8235 21.2693C15.7464 21.086 15.6372 20.9219 15.5017 20.7867C15.3664 20.6514 15.2079 20.5479 15.0358 20.4823C14.8636 20.4165 14.6812 20.3899 14.4995 20.4041Z" fill="white"/>
<path d="M16.407 20.4004C16.2905 20.4782 16.1912 20.5782 16.115 20.6945C16.0389 20.8107 15.9876 20.9407 15.9641 21.0768C15.9406 21.2129 15.9454 21.3522 15.9783 21.4864C16.0113 21.6207 16.0714 21.747 16.1555 21.8579C16.2725 21.7804 16.372 21.6806 16.4484 21.5643C16.5248 21.4481 16.5763 21.3179 16.5998 21.1817C16.6233 21.0455 16.6184 20.906 16.5853 20.7717C16.5521 20.6374 16.4915 20.5111 16.407 20.4004Z" fill="white"/>
<path d="M40.5984 27.7932C41.279 29.6164 43.4741 29.0664 43.4983 29.0598C43.4983 29.0598 42.8055 27.2299 40.5984 27.7932Z" fill="white"/>
<path d="M12.8752 26.2285C13.6157 28.3079 11.7592 29.1349 11.7416 29.1428C11.7416 29.1428 11.0082 27.0517 12.8752 26.2285Z" fill="white"/>
<path d="M37.9086 29.1427C39.7899 28.7026 38.9726 27.706 38.9672 27.6855C38.9672 27.6855 37.0805 28.1315 37.9086 29.1427Z" fill="white"/>
<path d="M24.6492 25.4352C26.153 23.8726 27.5203 25.557 27.5491 25.5733C27.5491 25.5733 26.0309 27.1359 24.6492 25.4352Z" fill="white"/>
<path d="M17.393 29.1426C17.1878 29.1519 16.987 29.1975 16.8024 29.2766C16.6178 29.3555 16.4535 29.4666 16.3193 29.6027C16.185 29.7388 16.0836 29.8974 16.0212 30.0687C15.9589 30.24 15.9368 30.4207 15.9564 30.5997C16.1613 30.5897 16.3618 30.5437 16.5459 30.4644C16.7301 30.3851 16.8941 30.2741 17.0282 30.1381C17.1622 30.0022 17.2638 29.8439 17.3264 29.6729C17.3891 29.5018 17.4118 29.3215 17.393 29.1426Z" fill="white"/>
<path d="M8.9587 17.4863C8.28688 18.2994 9.13359 18.9435 9.13969 18.9435C9.13969 18.9435 9.81458 18.1246 8.9618 17.4863H8.9587Z" fill="white"/>
<path d="M17.3994 28.1155C16.8195 29.9772 15.9599 28.7417 15.9495 28.7305C15.9495 28.7305 16.5372 26.8686 17.3994 28.1155Z" fill="white"/>
<path d="M20.305 10.2002C21.8504 10.2949 21.7479 11.6573 21.7479 11.6573C21.7479 11.6573 20.1943 11.5554 20.305 10.2002Z" fill="white"/>
<path d="M16.3337 29.1426C16.2298 29.2251 16.1429 29.329 16.0781 29.4478C16.0132 29.5666 15.9717 29.6979 15.9563 29.834C15.9409 29.9701 15.9516 30.108 15.988 30.2397C16.0244 30.3712 16.0856 30.4937 16.1681 30.5997C16.2724 30.5175 16.3597 30.4138 16.4248 30.295C16.4899 30.1762 16.5314 30.0447 16.5469 29.9085C16.5624 29.7722 16.5515 29.6342 16.5148 29.5025C16.4782 29.3709 16.4166 29.2484 16.3337 29.1426Z" fill="white"/>
<path d="M14.4993 27.7373C13.3064 27.3663 13.0524 29.1114 13.0493 29.1114C13.0493 29.1114 14.2452 29.4732 14.4993 27.7373Z" fill="white"/>
<path d="M10.1494 22.7624C10.79 20.9741 11.592 22.3862 11.5994 22.397C11.5994 22.397 10.9514 24.1907 10.1494 22.7624Z" fill="white"/>
<path d="M8.69342 17.4863C7.14386 17.5863 7.2511 18.9306 7.2511 18.9435C7.2511 18.9435 8.80811 18.8371 8.69342 17.4863Z" fill="white"/>
<path d="M33.3489 27.6794C33.335 27.4721 33.2862 27.2703 33.2056 27.0853C33.125 26.9004 33.0142 26.736 32.8794 26.6016C32.7446 26.4674 32.5887 26.3657 32.4203 26.3028C32.2521 26.2396 32.0749 26.2165 31.8989 26.2344C31.9123 26.4419 31.9606 26.6441 32.0409 26.8295C32.1214 27.0147 32.2323 27.1795 32.3671 27.3139C32.5021 27.4482 32.6583 27.5499 32.8268 27.6125C32.9953 27.6753 33.1729 27.6979 33.3489 27.6794Z" fill="white"/>
<path d="M15.9495 24.7619C16.0727 23.1774 17.3868 23.3176 17.3994 23.3176C17.3994 23.3176 17.2699 24.9097 15.9495 24.7619Z" fill="white"/>
<path d="M13.0496 20.4295C12.899 20.4015 12.7412 20.3936 12.5859 20.4062C12.4304 20.4187 12.2804 20.4514 12.145 20.5024C12.0096 20.5534 11.8915 20.6216 11.7977 20.7028C11.7041 20.7841 11.6366 20.8768 11.5996 20.9754C11.7503 21.0037 11.9081 21.0119 12.0639 20.9997C12.2195 20.9873 12.3697 20.9546 12.5053 20.9035C12.6408 20.8525 12.7591 20.7842 12.8526 20.7027C12.9462 20.6212 13.0131 20.5283 13.0496 20.4295Z" fill="white"/>
<path d="M15.9495 26.2578C15.7992 26.2299 15.6418 26.2218 15.4866 26.2341C15.3314 26.2465 15.1817 26.279 15.0462 26.3296C14.9108 26.3803 14.7927 26.4481 14.6987 26.5291C14.6048 26.61 14.537 26.7024 14.4995 26.8007C14.6502 26.8286 14.8079 26.8365 14.9634 26.824C15.1188 26.8114 15.2687 26.7787 15.4041 26.7278C15.5395 26.6768 15.6577 26.6086 15.7514 26.5273C15.8451 26.4461 15.9125 26.3533 15.9495 26.2548V26.2578Z" fill="white"/>
<path d="M11.5994 25.4294C11.578 25.3289 11.5232 25.2321 11.4381 25.1447C11.3531 25.0573 11.2394 24.981 11.1039 24.9206C10.9686 24.8601 10.8143 24.8166 10.6503 24.7927C10.4862 24.7688 10.3159 24.7651 10.1494 24.7816C10.1699 24.8822 10.2243 24.9792 10.3092 25.0669C10.3941 25.1546 10.5077 25.2309 10.6434 25.2916C10.7788 25.3521 10.9334 25.3955 11.0978 25.4192C11.2621 25.443 11.4327 25.4464 11.5994 25.4294Z" fill="white"/>
<path d="M15.3254 26.2285C16.8373 26.996 15.1289 27.6687 15.1126 27.6857C15.1126 27.6857 13.6007 26.911 15.3254 26.2285Z" fill="white"/>
<path d="M8.69971 27.5821C9.03454 25.7611 10.1411 26.3027 10.1497 26.3074C10.1497 26.3074 9.7949 28.133 8.69971 27.5821Z" fill="white"/>
<path d="M17.3478 20.3995C17.7145 19.2028 16.0069 18.9455 15.9802 18.9424C15.9802 18.9424 15.6227 20.1452 17.3478 20.3995Z" fill="white"/>
<path d="M33.5612 21.8574C35.4488 22.298 34.6157 23.3061 34.6157 23.3146C34.6157 23.3146 32.7281 22.8656 33.5612 21.8574Z" fill="white"/>
<path d="M43.2882 24.7715C41.4089 25.2156 42.2221 26.218 42.2321 26.2286C42.2321 26.2286 44.1163 25.7766 43.2882 24.7715Z" fill="white"/>
<path d="M36.2452 14.5713C34.6936 14.6735 34.8001 16.0166 34.8001 16.0284C34.8138 16.0284 36.3571 15.9215 36.2424 14.5713H36.2452Z" fill="white"/>
<path d="M11.7375 16.0283C11.0907 17.1131 12.9283 17.4814 12.9455 17.4855C12.9455 17.4855 13.5751 16.4026 11.7375 16.0283Z" fill="white"/>
<path d="M13.5946 14.5713C12.1838 16.1959 13.9544 17.4856 13.9703 17.4856C13.9703 17.4856 15.3811 15.8426 13.5946 14.5713Z" fill="white"/>
<path d="M29.3178 18.9424C29.3932 19.0454 29.4505 19.1654 29.486 19.2952C29.5216 19.4251 29.5347 19.562 29.5247 19.698C29.5147 19.834 29.4816 19.9662 29.4276 20.0867C29.3736 20.2072 29.2998 20.3136 29.2104 20.3995C29.1348 20.2967 29.0774 20.1769 29.0416 20.0472C29.0057 19.9176 28.9924 19.7806 29.0021 19.6446C29.0118 19.5086 29.0445 19.3764 29.0982 19.2558C29.152 19.1351 29.2256 19.0285 29.3147 18.9424H29.3178Z" fill="white"/>
<path d="M13.5786 17.4863C15.3724 18.1213 13.9947 18.9348 13.9804 18.9435C13.9804 18.9435 12.1866 18.3019 13.5786 17.4863Z" fill="white"/>
<path d="M12.501 18.953C10.718 19.5918 12.1305 20.3995 12.1305 20.3995C12.1305 20.3995 13.9135 19.7528 12.5126 18.9424L12.501 18.953Z" fill="white"/>
<path d="M30.4542 16.0283C31.9971 16.122 31.8976 17.4725 31.8976 17.4855C31.8976 17.4855 30.3475 17.3821 30.4542 16.0283Z" fill="white"/>
<path d="M30.449 19.29C30.3957 19.2211 30.3153 19.1584 30.2127 19.1056C30.1099 19.0528 29.9871 19.0112 29.8515 18.9831C29.7159 18.9551 29.5704 18.9412 29.4238 18.9425C29.2773 18.9436 29.1327 18.9598 28.999 18.9901C29.0523 19.0591 29.1327 19.1217 29.2353 19.1745C29.3381 19.2273 29.4611 19.2689 29.5967 19.297C29.7323 19.325 29.8776 19.3389 30.0241 19.3377C30.1707 19.3365 30.3153 19.3203 30.449 19.29Z" fill="white"/>
<path d="M33.3489 16.1227C33.2207 16.0692 33.0807 16.0378 32.9374 16.0301C32.7941 16.0225 32.6504 16.039 32.515 16.0785C32.3796 16.118 32.2552 16.1797 32.1494 16.26C32.0435 16.3402 31.9583 16.4374 31.8989 16.5455C32.159 16.6484 32.4579 16.6618 32.7297 16.5825C33.0015 16.5032 33.2243 16.3378 33.3489 16.1227Z" fill="white"/>
<path d="M24.9714 20.392C24.8842 20.3093 24.8112 20.2058 24.7568 20.0876C24.7024 19.9692 24.6677 19.8386 24.6548 19.7035C24.642 19.5682 24.6512 19.4311 24.6818 19.3004C24.7125 19.1697 24.764 19.0479 24.8334 18.9424C24.9218 19.0247 24.9959 19.1284 25.0512 19.2472C25.1065 19.366 25.1417 19.4974 25.1549 19.6336C25.1681 19.7697 25.1589 19.9078 25.1278 20.0395C25.0969 20.1711 25.0447 20.2935 24.9745 20.3995L24.9714 20.392Z" fill="white"/>
<path d="M43.4985 22.067C42.4963 21.2419 42.0538 23.118 42.0486 23.1375C42.0486 23.1375 43.0587 23.9578 43.4985 22.067Z" fill="white"/>
<path d="M18.8494 14.6534C19.988 14.1745 20.2965 15.9452 20.2993 15.9715C20.2993 15.9715 19.1551 16.4462 18.8494 14.6534Z" fill="white"/>
<path d="M19.3701 18.9435C19.2769 18.9004 19.1903 18.828 19.1151 18.7309C19.0399 18.6336 18.9779 18.5135 18.9328 18.3776C18.8875 18.2416 18.86 18.0926 18.8519 17.9395C18.8438 17.7864 18.8551 17.6323 18.8854 17.4863C18.9787 17.529 19.0657 17.6009 19.141 17.6981C19.2164 17.7951 19.2786 17.9153 19.3238 18.0514C19.3692 18.1874 19.3966 18.3366 19.4045 18.49C19.4124 18.6434 19.4007 18.7976 19.3701 18.9435Z" fill="white"/>
<path d="M33.2486 14.5714C33.7885 13.4505 31.9729 13.1168 31.9729 13.1143C31.9729 13.1143 31.4372 14.2403 33.2486 14.5714Z" fill="white"/>
<path d="M10.3561 23.3145C12.2311 24.1969 11.4337 26.2093 11.4158 26.2287C11.4158 26.2287 9.53719 25.3347 10.3561 23.3145Z" fill="white"/>
<path d="M26.6597 18.9424C26.5467 18.9994 26.4446 19.0826 26.3591 19.1871C26.2736 19.2917 26.2066 19.4154 26.162 19.5512C26.1174 19.687 26.0961 19.832 26.0995 19.9777C26.1027 20.1233 26.1305 20.2668 26.1812 20.3995C26.2941 20.3426 26.3963 20.2593 26.4818 20.1548C26.5673 20.0502 26.6343 19.9265 26.6789 19.7907C26.7236 19.6549 26.7449 19.5099 26.7415 19.3642C26.7382 19.2186 26.7104 19.0751 26.6597 18.9424Z" fill="white"/>
<path d="M13.1968 17.4855C13.3206 17.4184 13.4297 17.327 13.5174 17.2166C13.6051 17.1061 13.6696 16.9791 13.7072 16.8429C13.7448 16.7068 13.7545 16.5645 13.7358 16.4245C13.7172 16.2845 13.6706 16.1497 13.5986 16.0283C13.4749 16.0953 13.3658 16.1868 13.2781 16.2971C13.1903 16.4075 13.1256 16.5345 13.0878 16.6705C13.05 16.8064 13.0399 16.9488 13.0581 17.0888C13.0763 17.2288 13.1224 17.3638 13.1937 17.4855H13.1968Z" fill="white"/>
<path d="M33.7683 26.2286C35.6221 25.6513 34.4114 24.7797 34.3998 24.7715C34.3998 24.7715 32.5403 25.3544 33.7683 26.2286Z" fill="white"/>
<path d="M31.8936 23.3146C30.3505 23.217 30.4478 21.8695 30.4513 21.8574C30.4513 21.8574 32.0013 21.958 31.8936 23.3115V23.3146Z" fill="white"/>
<path d="M37.6934 23.3146C36.15 23.2184 36.2501 21.8777 36.2501 21.8574C36.2501 21.8574 37.8004 21.9594 37.6934 23.3146Z" fill="white"/>
<path d="M39.0693 18.9425C39.5383 17.7944 37.7709 17.4876 37.7533 17.4854C37.7533 17.4967 37.2879 18.638 39.0693 18.9425Z" fill="white"/>
<path d="M40.5896 24.7716C39.047 24.6777 39.1501 23.3273 39.1501 23.3145C39.1501 23.3145 40.7001 23.4148 40.5934 24.7716H40.5896Z" fill="white"/>
<path d="M37.7041 26.2286C39.2503 26.1317 39.147 24.7843 39.147 24.7715C39.147 24.7715 37.5935 24.8748 37.7041 26.2286Z" fill="white"/>
<path d="M33.3489 27.692C33.475 29.2837 34.7863 29.1393 34.7988 29.1393C34.7988 29.1393 34.6665 27.5438 33.3489 27.6958V27.692Z" fill="white"/>
<path d="M28.999 23.2827C29.1614 23.3267 29.3287 23.3251 29.4907 23.2782C29.6526 23.2312 29.806 23.1399 29.9415 23.0096C30.077 22.8794 30.1917 22.713 30.279 22.5205C30.3662 22.3279 30.4241 22.1131 30.449 21.8892C30.2865 21.8454 30.1192 21.8468 29.9573 21.8939C29.7952 21.9407 29.6419 22.032 29.5064 22.1623C29.3709 22.2925 29.2561 22.4589 29.1689 22.6516C29.0816 22.8441 29.0239 23.0588 28.999 23.2827Z" fill="white"/>
<path d="M39.1484 29.1523C39.0253 30.7389 37.7111 30.5989 37.6985 30.5951C37.6985 30.5951 37.828 29.0045 39.1484 29.1523Z" fill="white"/>
<path d="M42.0546 23.3146C43.6042 23.2149 43.4969 21.8703 43.4969 21.8574C43.4969 21.8574 41.94 21.9668 42.0546 23.3146Z" fill="white"/>
<path d="M43.4584 24.7716C41.7584 24.5411 42.0712 23.3263 42.0712 23.3145C42.0712 23.3145 43.7794 23.5509 43.4584 24.7716Z" fill="white"/>
<path d="M42.0483 26.3211C42.0072 26.5639 41.9363 26.7903 41.8402 26.9869C41.7441 27.1835 41.6247 27.3461 41.4892 27.465C41.3537 27.5838 41.2049 27.6564 41.0518 27.6785C40.8987 27.7006 40.7445 27.6715 40.5984 27.5931C40.6396 27.3503 40.7104 27.1238 40.8065 26.9273C40.9026 26.7307 41.0221 26.568 41.1576 26.449C41.293 26.3302 41.4418 26.2576 41.5949 26.2357C41.7481 26.2136 41.9023 26.2427 42.0483 26.3211Z" fill="white"/>
<path d="M40.9735 27.6855C39.8197 28.5865 41.6945 29.1371 41.7118 29.1427C41.7118 29.1427 42.8366 28.2417 40.9735 27.6855Z" fill="white"/>
<path d="M41.8475 23.3147C39.9697 22.4323 40.7662 20.4197 40.7662 20.4004C40.7843 20.4004 42.6513 21.2944 41.8475 23.3147Z" fill="white"/>
<path d="M31.9924 17.4855C32.109 17.4293 32.2146 17.3466 32.3029 17.2421C32.3912 17.1376 32.4604 17.0137 32.5061 16.8776C32.5519 16.7416 32.5736 16.5962 32.5696 16.4502C32.5657 16.3043 32.5364 16.1608 32.4833 16.0283C32.3649 16.082 32.2575 16.1633 32.1677 16.2674C32.0779 16.3713 32.0078 16.4957 31.9616 16.6327C31.9156 16.7696 31.8944 16.916 31.8997 17.0628C31.9051 17.2096 31.9366 17.3535 31.9924 17.4855Z" fill="white"/>
<path d="M26.0991 51C20.9371 51 15.8912 49.5045 11.5992 46.7025C7.30725 43.9005 3.96206 39.9179 1.98668 35.2585C0.0113083 30.5989 -0.50554 25.4717 0.501498 20.5252C1.50853 15.5787 3.99423 11.0351 7.64425 7.46879C11.2943 3.90255 15.9447 1.47391 21.0074 0.489987C26.0701 -0.493936 31.3178 0.0110487 36.0868 1.94108C40.8557 3.87112 44.9318 7.13952 47.7997 11.333C50.6675 15.5264 52.1981 20.4566 52.1981 25.5C52.19 32.2606 49.4377 38.742 44.5449 43.5225C39.6522 48.3029 33.0184 50.9921 26.0991 51ZM26.0991 2.40001C21.423 2.40001 16.8519 3.7548 12.9639 6.29306C9.07588 8.83133 6.04554 12.4391 4.25609 16.6601C2.46663 20.881 1.99843 25.5256 2.91068 30.0066C3.82294 34.4876 6.07468 38.6036 9.38121 41.8342C12.6876 45.0647 16.9004 47.2648 21.4866 48.1561C26.0728 49.0475 30.8266 48.5901 35.1468 46.8416C39.4668 45.0932 43.1593 42.1325 45.7572 38.3336C48.3552 34.5349 49.7418 30.0687 49.7418 25.5C49.7353 19.3755 47.2422 13.5036 42.8098 9.17283C38.3774 4.84215 32.3675 2.40637 26.0991 2.40001Z" fill="white"/>
<path d="M41.9258 42.8174C41.6134 42.5228 40.7981 42.5228 39.7641 42.567C39.5736 42.567 39.3392 42.5817 39.258 42.567C38.8862 42.4315 38.0615 42.6023 37.921 42.6671C37.2368 42.9882 36.9494 42.9028 36.8558 42.8497C36.3903 42.5875 35.325 42.6141 34.947 42.6318C34.6721 42.4903 33.8662 42.1339 33.2757 42.4109C32.9446 42.564 32.2136 42.5286 31.8387 42.4698C31.8387 42.4698 31.3671 42.3814 29.9394 42.0455H29.8957C28.4337 41.9012 27.1748 39.0999 26.9873 37.3325C26.8217 35.7683 27.3871 34.7137 27.7995 34.3867C29.0241 33.3204 29.1584 31.3792 29.1741 31.0434C29.3053 30.8136 30.1112 30.0212 30.5079 29.8975C30.9046 29.7737 31.6669 29.276 32.6384 28.6367C32.9696 28.4187 33.2632 28.2302 33.3945 28.1506C33.7756 27.9357 35.3937 27.8561 35.7592 28.0004L36.5933 28.3156L36.1466 27.5821C35.8342 27.0784 35.0127 27.0726 34.241 27.1285C34.6484 26.6691 34.9878 26.1598 35.25 25.6144L36.0872 23.847L34.7315 25.2874C34.3856 25.6647 33.9994 26.0073 33.5788 26.3096C33.601 25.7676 33.7629 25.2388 34.0505 24.769L34.6752 23.7527L33.6225 24.3742C32.9009 24.7985 32.7166 25.7234 32.5666 26.4657C32.5385 26.61 32.5104 26.7603 32.4792 26.8782C32.3698 27.3436 31.542 27.8413 30.2361 28.2067C29.5021 28.4128 29.3302 28.2508 29.0897 28.024C28.9616 27.9032 28.9773 27.4791 29.071 27.211C29.3427 26.5718 30.4299 25.797 30.6048 25.853C30.9972 25.9377 31.406 25.9281 31.7934 25.8252C32.1809 25.7222 32.5349 25.5293 32.8227 25.2639L32.401 24.8338C32.1414 24.9785 31.8377 25.0366 31.5388 24.9987C31.8449 24.4813 32.2645 24.0314 32.7696 23.6791C33.5884 23.2403 34.5178 23.0184 35.4593 23.0369L36.4215 23.1872L35.7311 22.5362C35.2219 22.056 34.2348 22.2652 33.2789 22.4654C32.9833 22.5338 32.684 22.5869 32.3823 22.6245C32.2252 22.6516 32.0632 22.621 31.9293 22.539C31.8635 22.4804 31.8234 22.4005 31.8169 22.3153V22.2592C31.795 22.162 31.8543 21.8174 32.8415 20.701L33.4912 19.9675L32.5166 20.2296C32.3188 20.2756 32.1338 20.3616 31.9748 20.4816C31.8156 20.6017 31.6861 20.7529 31.595 20.9249H31.5794C31.5209 20.6674 31.4803 20.4066 31.4576 20.1442L31.3233 18.9424L30.8485 20.0588C30.7214 20.3371 30.6865 20.6452 30.7485 20.9425C30.7882 21.7861 30.7548 22.6314 30.6485 23.47C30.4986 24.3183 29.3771 25.146 29.2366 25.2374C29.1709 25.2697 29.0803 25.2904 29.0491 25.2669C28.9491 25.0753 28.9679 24.4509 28.9803 23.9501C28.9803 23.7438 28.9803 23.5347 28.9803 23.3374C28.9803 22.7689 29.5583 22.0796 29.8707 21.7084L30.0112 21.5405L30.5673 20.8395L29.6739 21.078C29.0491 21.2518 28.5743 21.9087 28.3118 22.4125C28.2366 22.4369 28.157 22.4469 28.0775 22.4418C27.9901 22.3584 27.9107 22.2676 27.8401 22.1708C27.7977 22.1154 27.7518 22.0623 27.7026 22.0118L27.5684 21.8881L27.7089 21.7643L28.0994 21.3961L27.5652 21.2695C26.9405 21.1222 24.9661 22.8601 24.7787 23.0958C24.738 23.1459 24.5569 23.3109 23.904 23.3227C23.726 23.2195 23.2042 22.7924 22.8825 22.5302C22.5045 22.2357 22.3295 22.0796 22.2264 22.0147C22.2146 21.9386 22.2146 21.8612 22.2264 21.785L22.4608 20.6804L21.6923 21.5316C21.6039 21.6296 21.5303 21.7386 21.4736 21.8557L20.8488 22.2504C20.5739 22.4242 20.4428 22.8101 20.4365 23.47C20.1584 23.2755 19.7648 23.0664 19.468 23.1606C19.3623 23.1656 19.2566 23.1526 19.1557 23.1223L19.0307 23.0752C18.961 23.0437 18.8821 23.0353 18.8067 23.0514C18.7313 23.0674 18.6639 23.1069 18.6152 23.1636L18.4809 23.3374L18.6152 23.5111C18.7074 23.5977 18.8248 23.6562 18.9526 23.6791C19.3484 23.8517 19.7217 24.0672 20.0647 24.3212C20.1897 24.5245 20.121 25.6144 20.0959 25.9708C20.0959 26.1446 20.0772 26.2831 20.0772 26.3626C20.074 26.4038 20.074 26.4452 20.0772 26.4863C19.6589 26.3122 19.3247 25.9971 19.14 25.6026C18.8807 24.0443 18.0498 23.4139 17.7905 23.361L17.5531 23.3285L17.45 23.52C17.4193 23.5784 17.4085 23.6442 17.4192 23.7086C17.4298 23.773 17.4613 23.8326 17.5094 23.8793C17.8458 24.3381 17.9812 24.9017 17.8874 25.4524C16.9845 25.4318 16.1223 25.4818 15.9099 25.9826L15.6975 26.4834L16.2598 26.3803C17.7437 26.1152 18.9339 26.881 19.0932 27.1756C18.509 27.9032 18.1061 27.9239 17.7811 27.9385C17.5746 27.9301 17.3704 27.9826 17.197 28.0888L16.7721 28.3834L17.2563 28.5867C17.9405 28.8812 18.6433 28.5867 19.1088 28.3981C19.2361 28.3467 19.3692 28.3091 19.5056 28.2862C21.5955 28.1035 23.0824 30.1685 23.4885 30.8077C24.4007 32.2364 23.6385 34.048 23.3729 34.59C23.0499 35.5023 22.5488 36.3495 21.8954 37.0879C21.5351 37.4311 21.314 37.8824 21.2705 38.3635C21.1432 39.2923 20.9342 40.2096 20.6458 41.1059C20.5208 41.3003 19.7086 42.5257 18.509 42.7348C17.4389 42.9161 16.3387 42.8617 15.2946 42.5758C14.6979 42.3873 13.3078 42.5434 13.1515 42.5758C12.3048 42.6891 11.469 42.8664 10.6523 43.106L10.1494 43.2621L10.5368 43.6009C14.3511 46.9325 18.2872 49.0828 26.1251 49.5189C26.3938 49.5335 26.6625 49.5424 26.931 49.5424C34.3035 49.5424 41.5885 44.1164 42.004 43.2474C42.0433 43.1777 42.057 43.0976 42.0428 43.0198C42.0287 42.9419 41.9876 42.8708 41.9258 42.8174ZM27.6527 23.305C27.8027 24.4155 27.9183 25.7028 27.8558 25.9561C27.7933 26.0386 27.659 26.124 26.9561 25.9061C26.3969 25.7293 26.35 25.0841 26.35 24.3802V23.6761L25.8159 24.1769C24.7975 25.1284 25.9315 26.4363 26.6905 27.2905C26.8889 27.5018 27.0696 27.7273 27.2309 27.9651C27.6745 28.7162 27.6558 31.0139 27.3059 31.2908C27.2245 31.3564 27.1367 31.4147 27.0436 31.4646C27.0184 31.4551 26.9943 31.4432 26.9716 31.4293C26.8726 31.3804 26.7678 31.3429 26.6593 31.3173C26.5375 31.2495 26.425 30.7282 26.3875 30.5602C26.3688 30.4748 26.3532 30.3924 26.3344 30.3275C26.2126 29.8651 25.1255 28.8547 24.9006 28.7633C24.9006 28.7633 24.5225 28.4953 24.5225 26.3626C24.5225 25.5732 24.9943 24.2299 27.1716 22.2386C27.1278 22.6304 27.4715 23.0928 27.6527 23.305ZM39.3767 42.6465C39.3479 42.62 39.314 42.599 39.2767 42.5846C39.3148 42.5975 39.349 42.6187 39.3767 42.6465ZM21.3081 22.8837C21.2936 22.7783 21.301 22.6713 21.3299 22.5685L21.3893 22.3417V22.38C21.4115 22.4821 21.4595 22.5777 21.5291 22.6586C21.5986 22.7397 21.6878 22.8037 21.7891 22.8454C21.9235 22.9073 22.3389 23.2107 23.3511 24.6659L23.3885 24.7189C23.4937 25.1144 23.538 25.5222 23.5198 25.9296C23.4984 26.1551 23.4103 26.3704 23.2656 26.5511C23.121 26.7318 22.9254 26.8705 22.7013 26.9518C21.936 27.2787 21.208 25.9915 21.205 25.9915C21.1809 25.5962 21.2145 25.1998 21.3049 24.8132C21.4236 24.5392 21.4548 23.1606 21.3081 22.8837Z" fill="white"/>
</g>
<defs>
<clipPath id="clip0_5311_2106">
<rect width="236.341" height="51" fill="white"/>
</clipPath>
</defs>
</svg>
