<svg width="237" height="52" viewBox="0 0 237 52" fill="none" xmlns="http://www.w3.org/2000/svg">
<g clip-path="url(#clip0_1191_29131)">
<path d="M68.8352 27.1821H79.8981V22.6859H68.8352V16.4274H80.9663V11.9312H63.7969V38.1597H81.1963V33.6635H68.8352V27.1821Z" fill="#002026"/>
<path d="M94.9717 11.9312H84.0977V16.2788H87.5717V33.8121H84.0977V38.1597H94.9717C98.5224 38.1597 101.223 37.2682 103.073 35.4852C104.924 33.7021 105.849 31.0483 105.847 27.5239V22.5729C105.847 19.0505 104.923 16.3967 103.073 14.6116C101.224 12.8266 98.5242 11.9331 94.9717 11.9312ZM100.863 27.6814C100.863 29.5773 100.398 31.0503 99.4672 32.1004C98.5366 33.1504 97.0639 33.6714 95.0473 33.6635H92.5551V16.4274H95.0473C97.0639 16.4274 98.5366 16.9454 99.4672 17.9816C100.398 19.0178 100.863 20.4977 100.863 22.4214V27.6814Z" fill="#002026"/>
<path d="M113.781 27.1821H124.847V22.6859H113.781V16.4274H125.915V11.9312H108.746V38.1597H126.145V33.6635H113.781V27.1821Z" fill="#002026"/>
<path d="M144.439 34.7868H143.76L138.517 11.9312H129.045V38.1597H133.95V15.304H134.63L139.872 38.1597H149.344V11.9312H144.439V34.7868Z" fill="#002026"/>
<path d="M168.127 24.9009C166.551 24.2087 164.907 23.686 163.224 23.3415L162.359 23.1515C161.47 22.974 160.602 22.7062 159.766 22.3522C159.167 22.1113 158.639 21.7187 158.233 21.2121C157.887 20.726 157.708 20.1374 157.727 19.5381C157.709 19.0905 157.796 18.6449 157.982 18.2385C158.169 17.832 158.448 17.4762 158.797 17.2006C159.512 16.6295 160.621 16.344 162.123 16.344C163.007 16.3244 163.887 16.4728 164.717 16.7813C165.406 17.0423 165.994 17.5228 166.389 18.1507C166.813 18.8946 167.02 19.7448 166.985 20.6028V21.7459H171.874V20.6028C171.874 18.6785 171.454 17.0749 170.613 15.792C169.767 14.5059 168.564 13.5009 167.155 12.9025C165.567 12.2329 163.859 11.9032 162.138 11.9343C160.457 11.8956 158.787 12.213 157.235 12.8664C155.925 13.4169 154.799 14.3385 153.994 15.5206C153.207 16.7608 152.808 18.2125 152.849 19.6859C152.849 21.3086 153.194 22.6267 153.881 23.6401C154.642 24.7113 155.671 25.5578 156.862 26.0922C158.348 26.779 159.906 27.296 161.507 27.6335L162.371 27.8235C163.345 28.0327 164.305 28.3058 165.244 28.6409C165.92 28.8661 166.533 29.2508 167.033 29.7629C167.46 30.2547 167.682 30.8946 167.653 31.5485C167.662 32.0551 167.552 32.5567 167.334 33.0127C167.115 33.4685 166.794 33.866 166.395 34.1725C165.555 34.8562 164.283 35.199 162.58 35.2011C160.877 35.2031 159.549 34.8009 158.597 33.9946C157.62 33.1903 157.13 31.9919 157.13 30.3993V29.3497H152.248V30.4144C152.197 32.157 152.655 33.8761 153.563 35.3579C154.455 36.7409 155.719 37.8367 157.208 38.5158C160.612 39.9637 164.445 39.9844 167.865 38.5732C169.262 37.9541 170.459 36.9522 171.323 35.6807C172.147 34.4128 172.573 32.9214 172.542 31.4037C172.542 29.781 172.154 28.4499 171.379 27.4103C170.522 26.3098 169.403 25.4466 168.127 24.9009Z" fill="#002026"/>
<path d="M191.53 24.0872C190.138 23.4848 188.64 23.1873 187.129 23.2139H185.045V22.8265L195.701 15.4214V11.9312H177.501V14.1022H193.353V14.4896L182.581 21.9746V25.2313H186.492C187.675 25.217 188.85 25.4201 189.963 25.8308C190.952 26.1898 191.82 26.8299 192.465 27.6759C193.085 28.496 193.395 29.5815 193.395 30.9326V31.1663C193.415 32.0025 193.263 32.8338 192.949 33.6062C192.636 34.3786 192.166 35.075 191.572 35.6499C190.357 36.8409 188.662 37.4355 186.488 37.4335C184.315 37.4314 182.571 36.8051 181.255 35.5545C179.913 34.2999 179.244 32.5747 179.246 30.3791V29.6103H176.894V30.3483C176.894 32.3123 177.305 33.9862 178.127 35.37C178.936 36.743 180.124 37.8416 181.541 38.5283C183.087 39.2738 184.78 39.6452 186.488 39.6138C188.176 39.6541 189.851 39.2963 191.383 38.5682C192.707 37.9311 193.826 36.9181 194.604 35.6499C195.383 34.3195 195.777 32.7904 195.741 31.2401V30.8526C195.741 29.1736 195.362 27.7713 194.604 26.6458C193.837 25.5128 192.771 24.6256 191.53 24.0872Z" fill="#002026"/>
<path d="M211.693 22.6743C210.311 21.9407 208.764 21.5679 207.195 21.5912C205.194 21.5912 203.623 21.9522 202.483 22.6743C201.485 23.2568 200.647 24.0732 200.043 25.0515H199.58V20.9818C199.58 18.8278 200.201 17.1353 201.446 15.9044C202.69 14.6735 204.44 14.0591 206.695 14.0611C208.901 14.0611 210.573 14.5931 211.711 15.6571C212.85 16.7209 213.42 18.1288 213.423 19.8806H215.808C215.831 18.4688 215.472 17.0766 214.771 15.847C214.044 14.6237 212.975 13.6338 211.693 12.9961C210.333 12.2842 208.667 11.9292 206.695 11.9312C204.722 11.9332 203.018 12.3133 201.58 13.0716C200.2 13.8021 199.071 14.9199 198.332 16.2845C197.539 17.8197 197.149 19.5272 197.197 21.2503V30.6448C197.148 32.3375 197.581 34.0099 198.445 35.4718C199.255 36.7958 200.429 37.8642 201.831 38.552C203.327 39.2531 204.961 39.6169 206.617 39.6169C208.272 39.6169 209.908 39.2531 211.404 38.552C212.797 37.8708 213.97 36.8174 214.789 35.511C215.648 34.1007 216.081 32.4775 216.04 30.8318V30.3763C216.082 28.746 215.677 27.1349 214.866 25.7152C214.108 24.4348 213.011 23.3832 211.693 22.6743ZM213.655 30.7956C213.655 32.8773 213.001 34.5135 211.693 35.704C210.386 36.8947 208.695 37.4901 206.618 37.4901C204.542 37.4901 202.85 36.8947 201.541 35.704C200.231 34.5135 199.578 32.8773 199.58 30.7956V30.4939C199.547 29.2275 199.863 27.9761 200.495 26.8737C201.084 25.8705 201.942 25.0479 202.974 24.4965C204.107 23.9331 205.358 23.6397 206.626 23.6397C207.895 23.6397 209.145 23.9331 210.279 24.4965C211.311 25.049 212.169 25.8713 212.76 26.8737C213.39 27.9766 213.707 29.2276 213.676 30.4939L213.655 30.7956Z" fill="#002026"/>
<path d="M233.614 14.6466C231.796 12.8363 229.321 11.9312 226.191 11.9312C223.062 11.9312 220.587 12.8363 218.766 14.6466C216.948 16.4569 216.04 19.1513 216.042 22.7297V28.8184C216.042 32.3927 216.95 35.087 218.766 36.9014C220.583 38.7157 223.058 39.6209 226.191 39.6169C229.321 39.6169 231.796 38.7117 233.614 36.9014C235.432 35.0911 236.341 32.3967 236.341 28.8184V22.7297C236.341 19.1553 235.432 16.461 233.614 14.6466ZM233.873 28.9692C233.873 31.6344 233.23 33.7203 231.944 35.2269C230.657 36.7335 228.742 37.4878 226.198 37.4897C223.649 37.4897 221.732 36.7355 220.446 35.2269C219.16 33.7183 218.516 31.6324 218.513 28.9692V22.5789C218.513 19.9157 219.158 17.8298 220.446 16.3212C221.734 14.8126 223.651 14.0583 226.198 14.0583C228.744 14.0583 230.662 14.8126 231.95 16.3212C233.238 17.8298 233.881 19.9157 233.879 22.5789L233.873 28.9692Z" fill="#002026"/>
<path d="M24.8989 16.3033C24.2239 15.4716 25.1259 14.8526 25.1351 14.8462C25.2269 14.9512 25.2947 15.077 25.3331 15.2139C25.3716 15.3507 25.3797 15.495 25.3569 15.6356C25.3341 15.7763 25.281 15.9095 25.2016 16.0253C25.1222 16.1411 25.0186 16.2362 24.8989 16.3033Z" fill="#002026"/>
<path d="M27.5488 11.7919C28.3016 9.94153 30.4279 10.5814 30.4487 10.5849C30.4487 10.6056 29.6855 12.4455 27.5488 11.7919Z" fill="#002026"/>
<path d="M21.9967 13.3883C23.8852 12.8334 22.989 11.9404 22.9776 11.9312C22.9776 11.9312 21.0891 12.4923 21.9967 13.3883Z" fill="#002026"/>
<path d="M24.6484 11.9372C24.7029 13.4383 26.0693 13.3881 26.0984 13.3881C26.0984 13.3881 26.0367 11.8779 24.6484 11.9326V11.9372Z" fill="#002026"/>
<path d="M23.2051 11.9323C24.7546 11.8317 24.6476 10.4882 24.6476 10.4752C24.6476 10.4752 23.0917 10.5823 23.2051 11.9323Z" fill="#002026"/>
<path d="M24.865 11.9322C24.0279 10.93 25.886 10.481 25.9052 10.4751C26.0223 10.6103 26.0879 10.76 26.0972 10.913C26.1066 11.066 26.0595 11.2183 25.9592 11.3585C25.8591 11.4987 25.7088 11.6232 25.5193 11.7226C25.3297 11.8219 25.106 11.8936 24.865 11.9322Z" fill="#002026"/>
<path d="M31.9649 11.9312C31.5402 13.0969 33.2904 13.3848 33.3044 13.3883C33.3044 13.3883 33.7244 12.2154 31.9696 11.9312H31.9649Z" fill="#002026"/>
<path d="M27.5496 14.7766C27.4 14.8443 27.2438 14.863 27.0898 14.8313C26.9358 14.7999 26.7872 14.7185 26.6525 14.5925C26.5177 14.4662 26.3995 14.2976 26.3046 14.0964C26.2097 13.8949 26.14 13.6648 26.0996 13.4191C26.0996 13.4191 27.3013 13.0671 27.5496 14.7766Z" fill="#002026"/>
<path d="M27.5496 14.8559C27.426 16.4408 26.1134 16.3001 26.0996 16.3001C26.0996 16.3001 26.2315 14.7076 27.5496 14.8559Z" fill="#002026"/>
<path d="M36.248 16.314C36.3769 17.9041 37.687 17.7592 37.698 17.7554C37.698 17.7554 37.5637 16.1576 36.248 16.314Z" fill="#002026"/>
<path d="M27.5496 14.748C27.26 14.9132 26.9454 14.8689 26.674 14.625C26.4026 14.381 26.1963 13.9568 26.0996 13.4444C26.0996 13.4444 27.2439 12.9794 27.5496 14.748Z" fill="#002026"/>
<path d="M31.8994 11.834C32.1891 11.9992 32.5039 11.9548 32.7754 11.7106C33.0468 11.4663 33.2531 11.0418 33.3494 10.5293C33.3494 10.5293 32.2006 10.0684 31.8994 11.834Z" fill="#002026"/>
<path d="M28.999 16.411C29.6775 18.2338 31.8778 17.683 31.8989 17.6797C31.8989 17.6596 31.196 15.8501 28.999 16.411Z" fill="#002026"/>
<path d="M15.947 14.8462C16.0256 16.2329 14.5144 16.3033 14.5005 16.3033C14.5005 16.2888 14.4288 14.9093 15.947 14.8462Z" fill="#002026"/>
<path d="M27.7582 11.9323C27.9992 11.8947 28.2233 11.8237 28.4136 11.7248C28.6039 11.6259 28.7553 11.5017 28.8565 11.3614C28.9577 11.2211 29.0061 11.0684 28.9979 10.9149C28.9898 10.7614 28.9254 10.611 28.8095 10.4752C28.8095 10.4752 26.9339 10.9263 27.7582 11.9323Z" fill="#002026"/>
<path d="M24.6484 18.0205C24.8522 18.1804 25.1108 18.2665 25.377 18.2632C25.6432 18.2599 25.8992 18.1674 26.0984 18.0026C25.8942 17.8431 25.6354 17.7575 25.3692 17.7614C25.103 17.7652 24.8473 17.8583 24.6484 18.0236V18.0205Z" fill="#002026"/>
<path d="M24.6484 14.795C25.1455 13.069 27.5222 13.4167 27.5483 13.4198C27.5483 13.4384 27.0401 15.1521 24.6522 14.7982L24.6484 14.795Z" fill="#002026"/>
<path d="M27.5471 23.5046C27.253 23.6568 26.9358 23.6029 26.6647 23.3542C26.3936 23.1056 26.1905 22.6825 26.0996 22.1772C26.0996 22.1772 27.2689 21.7531 27.5496 23.513L27.5471 23.5046Z" fill="#002026"/>
<path d="M20.8497 13.3883C19.4321 12.5815 21.1959 11.9432 21.2144 11.9312C21.2144 11.9312 22.6318 12.7452 20.8497 13.3883Z" fill="#002026"/>
<path d="M34.8065 23.5895C36.3639 23.4893 36.2563 22.1443 36.2419 22.1323C36.2276 22.1323 34.6773 22.2397 34.8065 23.5895Z" fill="#002026"/>
<path d="M24.6484 20.4842C24.9132 20.7218 25.2119 20.7374 25.482 20.5276C25.7521 20.318 25.973 19.899 26.0984 19.3585C26.088 19.3585 25.0627 18.6295 24.6484 20.4842Z" fill="#002026"/>
<path d="M23.5594 26.5035C22.4401 25.5953 24.2838 25.0504 24.32 25.0464C24.32 25.0464 25.4355 25.9606 23.5594 26.5035Z" fill="#002026"/>
<path d="M39.1546 14.8463C40.7063 14.7461 40.5967 13.402 40.5967 13.3892C40.5967 13.3892 39.0385 13.4958 39.1546 14.8463Z" fill="#002026"/>
<path d="M26.0929 23.5895C24.547 23.4956 24.6499 22.1453 24.6499 22.1323C24.6499 22.1323 26.2022 22.2359 26.0929 23.5895Z" fill="#002026"/>
<path d="M32.236 25.0464C32.9262 25.7998 32.1839 26.4965 32.1777 26.5035C32.0854 26.4121 32.0124 26.2974 31.9641 26.1683C31.9158 26.0392 31.8937 25.8991 31.8993 25.7585C31.9049 25.6179 31.9381 25.4806 31.9965 25.3572C32.0549 25.2338 32.1368 25.1275 32.236 25.0464Z" fill="#002026"/>
<path d="M23.2017 14.9265C23.4732 16.6605 24.6392 16.2662 24.6492 16.2619C24.5598 15.759 24.3573 15.3364 24.0857 15.0864C23.8141 14.8363 23.4956 14.7788 23.1992 14.9265H23.2017Z" fill="#002026"/>
<path d="M27.5496 19.12C27.26 19.2852 26.9454 19.241 26.674 18.997C26.4026 18.753 26.1963 18.3289 26.0996 17.8164C26.0996 17.8164 27.2439 17.3515 27.5496 19.12Z" fill="#002026"/>
<path d="M20.2988 16.3217C20.3683 17.8258 21.7358 17.7599 21.7488 17.7599C21.7336 17.5423 21.6833 17.331 21.601 17.1391C21.5187 16.9471 21.4061 16.7786 21.2701 16.6437C21.1342 16.509 20.9779 16.4108 20.8108 16.3554C20.6439 16.3 20.4695 16.2886 20.2988 16.3217Z" fill="#002026"/>
<path d="M22.7287 16.3032C22.486 16.3678 22.2746 16.4608 22.1106 16.5751C21.9466 16.6894 21.8345 16.8219 21.7826 16.9625C21.7309 17.1031 21.7407 17.2481 21.8116 17.3864C21.8825 17.5247 22.0124 17.6526 22.1915 17.7604C22.1915 17.7604 24.0428 17.1583 22.7287 16.3032Z" fill="#002026"/>
<path d="M40.6012 23.6962C41.2823 25.5183 43.4765 24.971 43.4976 24.9644C43.4976 24.9644 42.7954 23.1355 40.5977 23.6962H40.6012Z" fill="#002026"/>
<path d="M17.2275 22.1323C17.9606 24.2133 16.1094 25.0466 16.0911 25.0466C16.0911 25.0466 15.358 22.9538 17.2244 22.1323H17.2275Z" fill="#002026"/>
<path d="M37.909 25.0465C39.7911 24.6064 38.9742 23.6127 38.9647 23.5894C38.9647 23.5894 37.0825 24.0353 37.909 25.0465Z" fill="#002026"/>
<path d="M26.0996 21.3372C27.6043 19.7768 28.9839 21.4631 28.9995 21.4794C28.9995 21.4794 27.4792 23.0397 26.0996 21.3372Z" fill="#002026"/>
<path d="M23.1999 25.0495C23.0073 25.0363 22.8142 25.0648 22.6333 25.1332C22.4526 25.2014 22.2881 25.308 22.1511 25.4455C22.0142 25.5831 21.9078 25.7486 21.839 25.9311C21.7702 26.1135 21.7408 26.3087 21.7525 26.5035C21.7525 26.5035 23.2938 26.3987 23.1802 25.0495H23.1999Z" fill="#002026"/>
<path d="M13.5979 14.8462C12.1751 15.6564 13.9648 16.3033 13.9817 16.3033C14.1746 16.2021 14.32 16.0794 14.4068 15.9448C14.4936 15.81 14.5194 15.6668 14.4824 15.5262C14.4453 15.3854 14.3463 15.251 14.193 15.1332C14.0397 15.0153 13.8362 14.9171 13.5979 14.8462Z" fill="#002026"/>
<path d="M23.1999 24.0101C22.6209 25.8913 21.7591 24.639 21.75 24.6277C21.9198 24.0978 22.1611 23.7423 22.4283 23.6286C22.6954 23.5148 22.97 23.6505 23.1999 24.0101Z" fill="#002026"/>
<path d="M24.6538 9.01709C26.1992 9.11224 26.0985 10.4613 26.0964 10.4742C26.0814 10.4742 24.5466 10.3727 24.6538 9.01709Z" fill="#002026"/>
<path d="M20.7412 25.0464C20.6244 25.1171 20.5246 25.215 20.4494 25.3328C20.3741 25.4505 20.3254 25.585 20.3071 25.7257C20.2887 25.8663 20.3012 26.0096 20.3434 26.1445C20.3856 26.2793 20.4567 26.4022 20.551 26.5035C20.551 26.5035 21.4375 25.8559 20.7412 25.0464Z" fill="#002026"/>
<path d="M20.2996 23.6634C19.9999 23.5219 19.6788 23.5848 19.4068 23.8382C19.135 24.0916 18.9345 24.5149 18.8496 25.0149C18.8496 25.0149 20.0458 25.3753 20.2996 23.6634Z" fill="#002026"/>
<path d="M14.5 18.6778C15.1387 16.8659 15.9414 18.2967 15.9499 18.3132C15.7667 18.8209 15.5183 19.1378 15.2515 19.205C14.9846 19.2721 14.7175 19.0847 14.5 18.6778Z" fill="#002026"/>
<path d="M13.0434 14.8462C11.4947 14.9463 11.6012 16.2904 11.6012 16.3033C11.6012 16.3033 13.1595 16.1967 13.0434 14.8462Z" fill="#002026"/>
<path d="M31.8992 23.5589C31.7723 21.9918 30.4615 22.1322 30.4492 22.1379C30.4723 22.3642 30.5287 22.5819 30.6151 22.7774C30.7015 22.973 30.816 23.1425 30.9516 23.2753C31.0873 23.4083 31.2413 23.502 31.4042 23.5507C31.5671 23.5995 31.7355 23.6022 31.8992 23.5589Z" fill="#002026"/>
<path d="M21.75 22.1208C21.8738 20.5394 23.1889 20.6759 23.1999 20.6797C23.1999 20.6797 23.0734 22.2839 21.75 22.1208Z" fill="#002026"/>
<path d="M18.8494 16.3446C18.5598 16.2754 18.2451 16.2935 17.9736 16.3952C17.702 16.4968 17.4957 16.6738 17.3994 16.8875C17.3994 16.8875 18.5455 17.0824 18.8494 16.3446Z" fill="#002026"/>
<path d="M20.2996 22.1734C20.0095 22.1043 19.6944 22.1229 19.4227 22.2251C19.1511 22.3274 18.945 22.505 18.8496 22.7193C18.8496 22.7193 19.9958 22.9113 20.2996 22.1764V22.1734Z" fill="#002026"/>
<path d="M15.9499 22.7852C15.7627 22.0324 14.5131 22.1373 14.5 22.1373C14.5309 22.2463 14.5933 22.3499 14.6836 22.442C14.7739 22.534 14.8901 22.6126 15.0254 22.6731C15.1607 22.7336 15.3123 22.7746 15.4711 22.7939C15.63 22.8131 15.7928 22.8102 15.9499 22.7852Z" fill="#002026"/>
<path d="M21.1219 22.1323C22.6397 22.8973 20.9261 23.57 20.9118 23.5895C20.9118 23.5895 19.3989 22.8171 21.1267 22.1323H21.1219Z" fill="#002026"/>
<path d="M13.0488 23.4647C13.3873 21.6709 14.4889 22.2058 14.4988 22.2105C14.3926 22.7316 14.1817 23.1549 13.9109 23.39C13.64 23.625 13.3308 23.6535 13.0488 23.4693V23.4647Z" fill="#002026"/>
<path d="M23.1496 16.3033C23.5123 15.1046 21.7965 14.8462 21.7809 14.8462C21.7809 14.8462 21.4222 16.0511 23.1496 16.3033Z" fill="#002026"/>
<path d="M32.111 17.7603C33.9814 18.2036 33.1785 19.2089 33.1694 19.2174C33.1694 19.2174 31.2763 18.7627 32.111 17.7603Z" fill="#002026"/>
<path d="M43.2874 20.6754C41.4092 21.1195 42.2228 22.122 42.2315 22.1326C42.2315 22.1326 44.1182 21.6805 43.2874 20.6754Z" fill="#002026"/>
<path d="M34.7996 11.9312C33.2437 12.0311 33.3512 13.374 33.3512 13.3883C33.3655 13.3883 34.9119 13.2812 34.7852 11.9312H34.7996Z" fill="#002026"/>
<path d="M16.0859 11.9312C15.4401 13.007 17.2929 13.3843 17.2929 13.3883C17.2929 13.3783 17.9296 12.3044 16.0859 11.9312Z" fill="#002026"/>
<path d="M18.8645 13.4861C19.0444 15.2865 20.2996 14.7829 20.2996 14.7775C20.283 14.5428 20.2291 14.3165 20.1418 14.1163C20.0546 13.9161 19.9364 13.747 19.7964 13.6224C19.6563 13.4977 19.4982 13.4206 19.3341 13.3969C19.17 13.3734 19.0042 13.4037 18.8496 13.4861H18.8645Z" fill="#002026"/>
<path d="M21.75 15.0558C22.01 14.8063 22.3043 14.7785 22.5735 14.9782C22.8426 15.1777 23.0665 15.5899 23.1999 16.1312C23.1999 16.1312 22.1874 16.9388 21.75 15.0558Z" fill="#002026"/>
<path d="M17.9233 14.8462C19.7252 15.481 18.3424 16.2968 18.3424 16.3033C18.3424 16.3033 16.5362 15.6621 17.9233 14.8462Z" fill="#002026"/>
<path d="M16.8555 16.3032C16.6164 16.3737 16.4119 16.4716 16.2577 16.5894C16.1035 16.7071 16.0037 16.8415 15.9661 16.9823C15.9284 17.1231 15.954 17.2665 16.0407 17.4013C16.1273 17.5362 16.2729 17.659 16.4662 17.7604C16.4662 17.7604 18.275 17.1151 16.8555 16.3032Z" fill="#002026"/>
<path d="M27.5543 11.9312C29.1003 12.0283 28.9974 13.3753 28.9974 13.3883C28.9974 13.3883 27.445 13.2847 27.5543 11.9312Z" fill="#002026"/>
<path d="M24.6368 14.8468C24.4379 14.8411 24.2401 14.8758 24.0565 14.9484C23.873 15.0211 23.7079 15.1299 23.5725 15.2679C23.437 15.4058 23.3343 15.5696 23.2712 15.7482C23.2082 15.9267 23.1861 16.116 23.2067 16.3033C23.2067 16.3033 24.805 16.1581 24.6368 14.8468Z" fill="#002026"/>
<path d="M30.449 12.0372C30.196 11.9206 29.9062 11.8993 29.6374 11.9776C29.3687 12.056 29.1408 12.2283 28.999 12.46C28.999 12.46 29.9782 12.8499 30.449 12.0372Z" fill="#002026"/>
<path d="M25.5639 14.8463C23.7686 14.2077 25.165 13.3966 25.1792 13.3892C25.1792 13.3892 26.9603 14.0278 25.5639 14.8463Z" fill="#002026"/>
<path d="M43.4988 19.4331C43.2397 19.1793 42.9453 19.1482 42.6759 19.3459C42.4064 19.5436 42.1822 19.9554 42.0488 20.4972C42.0488 20.4972 43.0595 21.3162 43.4988 19.4331Z" fill="#002026"/>
<path d="M40.5977 14.6378C40.7186 14.1262 40.9385 13.7276 41.2099 13.5281C41.4812 13.3287 41.7822 13.3444 42.0476 13.572C42.0476 13.572 41.491 15.4632 40.5977 14.6378Z" fill="#002026"/>
<path d="M25.2422 16.3033C25.1409 16.2788 25.0441 16.2193 24.9589 16.1289C24.8736 16.0385 24.802 15.9198 24.749 15.7807C24.696 15.6417 24.663 15.4859 24.6522 15.3243C24.6416 15.1629 24.6534 14.9996 24.6869 14.8462C24.6869 14.8462 25.4938 15.2008 25.2422 16.3033Z" fill="#002026"/>
<path d="M31.7997 11.9322C32.3346 10.8126 30.5392 10.4777 30.521 10.4751C30.521 10.4751 29.9933 11.6026 31.7997 11.9322Z" fill="#002026"/>
<path d="M14.7077 19.2173C16.5885 20.1009 15.7766 22.1121 15.7704 22.1316C15.7516 22.1316 13.8895 21.2364 14.7077 19.2173Z" fill="#002026"/>
<path d="M25.8842 11.9312C23.9998 12.3749 24.829 13.3789 24.8365 13.3883C24.8365 13.3883 26.7208 12.9376 25.8842 11.9312Z" fill="#002026"/>
<path d="M17.71 13.3883C17.9578 13.3381 18.1817 13.2567 18.3648 13.1504C18.5478 13.0441 18.6851 12.9157 18.7659 12.775C18.8469 12.6344 18.8693 12.4852 18.8316 12.339C18.7939 12.1927 18.6969 12.0532 18.5483 11.9312C18.5483 11.9312 16.6582 12.4599 17.7266 13.3822L17.71 13.3883Z" fill="#002026"/>
<path d="M32.3308 22.1326C32.5736 22.072 32.7875 21.9823 32.9564 21.8703C33.1251 21.7583 33.2441 21.627 33.3044 21.4864C33.3645 21.3458 33.3644 21.1996 33.3038 21.059C33.2434 20.9185 33.124 20.7873 32.955 20.6754C32.955 20.6754 31.0874 21.2604 32.3205 22.1326H32.3308Z" fill="#002026"/>
<path d="M30.4435 19.2174C28.9003 19.1225 29.0003 17.7724 29.0003 17.7603C29.0003 17.7603 30.5526 17.8613 30.4435 19.2174Z" fill="#002026"/>
<path d="M36.2434 19.2174C34.6982 19.1241 34.8002 17.7865 34.8002 17.7603C34.8002 17.7603 36.3513 17.8623 36.2434 19.2174Z" fill="#002026"/>
<path d="M39.0697 14.8463C39.5398 13.6991 37.772 13.3914 37.7537 13.3892C37.7537 13.4004 37.2896 14.5431 39.0697 14.8463Z" fill="#002026"/>
<path d="M40.5929 20.6744C39.0502 20.5805 39.1497 19.2303 39.1497 19.2173C39.1497 19.2173 40.7022 19.321 40.5929 20.6744Z" fill="#002026"/>
<path d="M36.2549 22.1326C37.8006 22.0325 37.6975 20.6884 37.6975 20.6754C37.6975 20.6754 36.1422 20.7789 36.2549 22.1326Z" fill="#002026"/>
<path d="M31.8984 23.5996C32.0248 25.1864 33.3375 25.0455 33.3484 25.0418C33.3484 25.0418 33.2166 23.4474 31.8984 23.5996Z" fill="#002026"/>
<path d="M30.4492 14.8564C30.5755 16.4447 31.8855 16.2999 31.8992 16.2999C31.8992 16.2999 31.7674 14.7042 30.4492 14.8564Z" fill="#002026"/>
<path d="M39.1492 25.0561C39.0254 26.6406 37.7102 26.5004 37.6992 26.5004C37.6992 26.5004 37.8286 24.9083 39.1492 25.0561Z" fill="#002026"/>
<path d="M42.058 19.2184C43.6035 19.1183 43.4972 17.7742 43.4972 17.7612C43.4812 17.7612 41.9421 17.8679 42.0547 19.2184H42.058Z" fill="#002026"/>
<path d="M43.4587 20.6744C41.7595 20.4434 42.0713 19.2291 42.0713 19.2173C42.0893 19.2173 43.7777 19.4542 43.4587 20.6744Z" fill="#002026"/>
<path d="M42.0476 22.2528C41.7123 24.0516 40.6149 23.5162 40.5977 23.511C40.704 22.9897 40.9151 22.5666 41.1858 22.3316C41.4567 22.0966 41.7658 22.0683 42.0476 22.2528Z" fill="#002026"/>
<path d="M39.5172 23.5894C38.3769 24.492 40.2437 25.041 40.2589 25.0465C40.4159 24.929 40.5224 24.7933 40.57 24.6497C40.6176 24.506 40.6052 24.3583 40.5336 24.2177C40.4622 24.0771 40.3333 23.9475 40.1572 23.8386C39.981 23.7296 39.7621 23.6444 39.5172 23.5894Z" fill="#002026"/>
<path d="M41.8387 19.2175C39.959 18.3366 40.7704 16.3227 40.7798 16.3032C40.7985 16.3032 42.6594 17.1996 41.8387 19.2175Z" fill="#002026"/>
<path d="M29.2088 13.3883C29.4492 13.35 29.6725 13.2787 29.8623 13.1798C30.052 13.0809 30.2033 12.9567 30.3046 12.8168C30.4061 12.6768 30.4552 12.5245 30.4483 12.3711C30.4414 12.2178 30.3787 12.0675 30.2647 11.9312C30.2647 11.9312 28.3824 12.3779 29.2088 13.3847V13.3883Z" fill="#002026"/>
<path d="M35.1821 16.3033C35.2545 16.1935 35.3071 16.0686 35.3366 15.9358C35.3661 15.8029 35.3722 15.6648 35.3541 15.5294C35.3362 15.394 35.2947 15.2638 35.232 15.1466C35.1692 15.0293 35.0866 14.9272 34.9888 14.8462C34.9139 14.955 34.8592 15.0798 34.8283 15.213C34.7973 15.3462 34.7907 15.4852 34.8088 15.6215C34.8268 15.7577 34.8692 15.8885 34.9334 16.0057C34.9975 16.1229 35.0822 16.2241 35.1821 16.3033Z" fill="#002026"/>
<path d="M26.0984 19.0819C25.722 17.2257 24.6569 17.8679 24.6484 17.8716C24.6484 17.8716 25.0291 19.7278 26.0984 19.0819Z" fill="#002026"/>
<path d="M31.8909 17.747C31.6865 17.7389 31.4861 17.6947 31.3021 17.6167C31.1178 17.5388 30.9538 17.4291 30.8196 17.294C30.6853 17.159 30.584 17.0016 30.5215 16.8313C30.4589 16.6609 30.4367 16.4813 30.4559 16.3032C30.6618 16.3112 30.8635 16.356 31.0488 16.4346C31.2341 16.5134 31.3989 16.6243 31.5334 16.7609C31.6677 16.8974 31.7688 17.0564 31.8302 17.2283C31.8918 17.4002 31.9124 17.5811 31.8909 17.7604V17.747Z" fill="#002026"/>
<path d="M33.3484 17.7638C33.3488 17.9632 33.3109 18.1604 33.237 18.3433C33.163 18.5262 33.0546 18.6907 32.9185 18.8268C32.7825 18.9628 32.6217 19.0675 32.4463 19.134C32.2707 19.2006 32.0842 19.2279 31.8984 19.2138C31.898 19.0146 31.936 18.8173 32.01 18.6345C32.0838 18.4516 32.1923 18.2869 32.3283 18.1509C32.4644 18.0148 32.6251 17.9102 32.8007 17.8437C32.9761 17.7771 33.1626 17.7499 33.3484 17.7638Z" fill="#002026"/>
<path d="M30.4432 19.2174C28.8928 19.1197 29.0006 17.7741 29.0006 17.7603C29.0006 17.7603 30.555 17.8683 30.4432 19.2174Z" fill="#002026"/>
<path d="M32.5178 17.754C32.5772 17.6236 32.6109 17.4823 32.6169 17.3382C32.6229 17.1941 32.6011 17.0502 32.5528 16.9151C32.5045 16.7799 32.4306 16.6561 32.3356 16.551C32.2405 16.4459 32.1262 16.3617 31.9994 16.3032C31.939 16.4348 31.9049 16.5777 31.8993 16.7234C31.8936 16.869 31.9164 17.0143 31.9663 17.1505C32.0162 17.2868 32.0921 17.411 32.1895 17.5159C32.2871 17.6207 32.4039 17.7039 32.5331 17.7604L32.5178 17.754Z" fill="#002026"/>
<path d="M36.1899 20.6754C36.251 20.8296 36.2647 20.9903 36.2303 21.1481C36.1958 21.3059 36.1139 21.4574 35.9895 21.5935C35.865 21.7296 35.7006 21.8475 35.5062 21.9401C35.3117 22.0327 35.0912 22.0981 34.8577 22.1326C34.7966 21.9784 34.7829 21.8175 34.8173 21.6599C34.8518 21.5021 34.9337 21.3506 35.0581 21.2144C35.1824 21.0784 35.3468 20.9604 35.5414 20.8678C35.7359 20.7751 35.9564 20.7097 36.1899 20.6754Z" fill="#002026"/>
<path d="M26.0996 20.6305C26.2575 20.6827 26.4211 20.6885 26.5807 20.6474C26.7401 20.6063 26.8922 20.5192 27.0277 20.3914C27.1632 20.2635 27.2793 20.0977 27.3689 19.9036C27.4587 19.7096 27.5201 19.4915 27.5496 19.2624C27.3917 19.2094 27.2278 19.203 27.0681 19.2437C26.9085 19.2845 26.7562 19.3715 26.6206 19.4994C26.485 19.6275 26.3689 19.7936 26.2794 19.988C26.1897 20.1825 26.1286 20.4011 26.0996 20.6305Z" fill="#002026"/>
<path d="M27.5488 20.6855C27.6711 22.2705 28.9886 22.1319 28.9988 22.1279C28.9988 22.1279 28.8698 20.5347 27.5488 20.6855Z" fill="#002026"/>
<path d="M15.9499 22.1424C15.8215 23.7315 14.5135 23.5886 14.5 23.5845C14.5 23.5845 14.6352 21.9914 15.9499 22.1424Z" fill="#002026"/>
<path d="M23.1992 20.5936C24.3387 21.0697 24.6461 19.2888 24.6492 19.2745C24.6492 19.2745 23.5067 18.7983 23.1992 20.5936Z" fill="#002026"/>
<path d="M20.2996 17.6802C19.1577 18.1534 18.8526 16.3786 18.8496 16.3597C18.8496 16.3597 19.9974 15.8865 20.2996 17.6802Z" fill="#002026"/>
<path d="M24.6467 20.6754C24.6582 20.861 24.6295 21.0469 24.5623 21.2218C24.4952 21.3969 24.3909 21.5572 24.256 21.6934C24.1209 21.8296 23.9579 21.9387 23.7767 22.0141C23.5955 22.0896 23.3998 22.1299 23.2017 22.1326C23.1902 21.947 23.2189 21.761 23.2861 21.586C23.3532 21.4111 23.4574 21.2507 23.5924 21.1146C23.7275 20.9784 23.8905 20.8693 24.0717 20.7938C24.2529 20.7184 24.4485 20.678 24.6467 20.6754Z" fill="#002026"/>
<path d="M39.1515 20.6754C39.0716 22.0523 40.5779 22.1299 40.5979 22.1326C40.5979 22.1326 40.6691 20.7479 39.1515 20.6754Z" fill="#002026"/>
<path d="M26.7271 17.7604C26.6001 17.7048 26.4851 17.6223 26.389 17.518C26.2929 17.4135 26.2178 17.2894 26.1681 17.1531C26.1185 17.0168 26.0953 16.8711 26.1003 16.725C26.1051 16.579 26.1378 16.4354 26.1963 16.3032C26.3228 16.3596 26.4372 16.4425 26.5328 16.547C26.6284 16.6515 26.7032 16.7755 26.7527 16.9116C26.8023 17.0476 26.8256 17.1929 26.8211 17.3388C26.8167 17.4846 26.7847 17.628 26.7271 17.7604Z" fill="#002026"/>
<path d="M24.6492 23.8138C24.5557 23.888 24.4432 23.947 24.3185 23.9873C24.1939 24.0276 24.0598 24.0485 23.9242 24.0485C23.7886 24.0485 23.6545 24.0276 23.5299 23.9873C23.4053 23.947 23.2928 23.888 23.1992 23.8138C23.2947 23.7412 23.4085 23.6839 23.5339 23.6454C23.6594 23.6068 23.7938 23.5878 23.9293 23.5895C24.0647 23.5912 24.1983 23.6135 24.3219 23.6551C24.4457 23.6968 24.557 23.7569 24.6492 23.8318V23.8138Z" fill="#002026"/>
<path d="M33.3484 16.2549C33.1014 14.5265 31.9099 14.8735 31.8984 14.8768C31.8984 14.8768 32.1524 16.6119 33.3484 16.2549Z" fill="#002026"/>
<path d="M26.1064 30.8746C26.3109 30.8656 26.5113 30.8203 26.6953 30.7414C26.8796 30.6626 27.0436 30.5517 27.1778 30.4156C27.3121 30.2795 27.4136 30.1209 27.4764 29.9494C27.5392 29.7778 27.562 29.5969 27.5431 29.4175C27.3385 29.4258 27.1379 29.4708 26.9534 29.5495C26.7689 29.6282 26.6045 29.739 26.4702 29.8753C26.3358 30.0114 26.2344 30.1702 26.1719 30.342C26.1093 30.5138 26.087 30.695 26.1064 30.8746Z" fill="#002026"/>
<path d="M35.6998 19.2174C37.1158 18.4102 35.3473 17.768 35.3302 17.7603C35.3302 17.7603 33.92 18.5752 35.6942 19.2174H35.6998Z" fill="#002026"/>
<path d="M17.3931 29.4176C15.8422 29.3177 15.9509 27.9732 15.9509 27.9604C15.9656 27.9604 17.5077 28.0654 17.3931 29.4176Z" fill="#002026"/>
<path d="M24.6492 26.328C23.619 27.0725 23.2018 25.2088 23.1992 25.1901C23.1992 25.1901 24.2294 24.4502 24.6492 26.328Z" fill="#002026"/>
<path d="M32.9891 30.8746C34.1118 29.9666 32.2466 29.4218 32.2287 29.4175C32.2287 29.4175 31.1105 30.332 32.9891 30.8746Z" fill="#002026"/>
<path d="M14.4927 20.6744C12.9441 20.5737 13.0476 19.2277 13.0516 19.2173C13.0516 19.2173 14.6081 19.3214 14.4927 20.6744Z" fill="#002026"/>
<path d="M27.5496 29.3822C27.3328 27.687 26.1092 27.9776 26.0996 27.982C26.0996 27.982 26.3227 29.6816 27.5496 29.3822Z" fill="#002026"/>
<path d="M20.5261 29.4175C20.45 29.5156 20.3906 29.6319 20.3516 29.7595C20.3127 29.8869 20.2949 30.0229 20.2996 30.1592C20.3041 30.2955 20.331 30.4291 20.3783 30.5521C20.4257 30.675 20.4927 30.7849 20.5752 30.8746C20.6513 30.7766 20.7108 30.6602 20.7497 30.5328C20.7886 30.4053 20.8064 30.2692 20.8017 30.133C20.7972 29.9967 20.7703 29.863 20.723 29.7401C20.6756 29.6171 20.6086 29.5074 20.5261 29.4175Z" fill="#002026"/>
<path d="M37.6857 14.9259C37.4123 16.6696 36.248 16.2714 36.248 16.2486C36.248 16.2486 36.5276 14.5004 37.698 14.9077L37.6857 14.9259Z" fill="#002026"/>
<path d="M27.5488 24.9656C28.6852 25.4417 28.9957 23.6609 28.9988 23.6466C28.9988 23.6466 27.8533 23.1703 27.5488 24.9656Z" fill="#002026"/>
<path d="M36.2488 22.1362C36.245 22.3386 36.2037 22.5378 36.1277 22.7218C36.0516 22.9059 35.9425 23.0708 35.8067 23.2064C35.6707 23.3421 35.5114 23.4457 35.338 23.5107C35.1647 23.5757 34.9811 23.6009 34.7988 23.5847C34.8041 23.383 34.8463 23.1844 34.9228 23.0012C34.9993 22.818 35.1086 22.6538 35.2441 22.5185C35.3796 22.3832 35.5385 22.2794 35.7111 22.2139C35.8837 22.1481 36.0666 22.1217 36.2488 22.1362Z" fill="#002026"/>
<path d="M34.9921 22.1323C35.1002 22.2105 35.1922 22.3107 35.2627 22.4269C35.3332 22.5431 35.3807 22.673 35.4024 22.809C35.4242 22.9449 35.4197 23.084 35.3893 23.2182C35.3588 23.3522 35.3031 23.4785 35.2253 23.5895C35.1166 23.512 35.0239 23.412 34.9529 23.2959C34.8819 23.1796 34.8341 23.0495 34.8123 22.9133C34.7905 22.7771 34.7952 22.6377 34.8261 22.5034C34.857 22.3692 34.9135 22.243 34.9921 22.1323Z" fill="#002026"/>
<path d="M11.5994 28.0677C11.2591 29.8898 10.1581 29.3421 10.1494 29.3349C10.1494 29.3349 10.4962 27.5057 11.5994 28.0677Z" fill="#002026"/>
<path d="M39.3264 27.9604C38.5727 29.0013 40.4569 29.403 40.4569 29.4176C40.4569 29.4176 41.188 28.3768 39.3264 27.973V27.9604Z" fill="#002026"/>
<path d="M15.7578 30.8746C15.5033 30.8186 15.2729 30.7357 15.0806 30.6313C14.888 30.5268 14.7375 30.4027 14.6379 30.2666C14.5384 30.1304 14.4918 29.985 14.5012 29.839C14.5105 29.6931 14.5755 29.5497 14.6923 29.4175C14.9467 29.4735 15.177 29.5563 15.3696 29.6608C15.5619 29.7653 15.7126 29.8894 15.812 30.0255C15.9117 30.1617 15.9581 30.307 15.9488 30.453C15.9394 30.599 15.8744 30.7424 15.7578 30.8746Z" fill="#002026"/>
<path d="M27.5483 27.1665C26.0444 25.6051 24.6638 27.2887 24.6484 27.3061C24.6484 27.3061 26.1678 28.8677 27.5483 27.1665Z" fill="#002026"/>
<path d="M34.8056 30.8744C35.0113 30.8828 35.2128 30.928 35.3981 31.0068C35.5832 31.0857 35.748 31.1968 35.8823 31.3332C36.0166 31.4695 36.1177 31.6285 36.1794 31.8C36.2409 31.9717 36.2618 32.1527 36.2409 32.3315C36.0358 32.3215 35.835 32.2756 35.6506 32.1961C35.4664 32.1167 35.3024 32.0058 35.1682 31.8697C35.0342 31.7336 34.933 31.5754 34.8708 31.4043C34.8083 31.2332 34.7863 31.0531 34.8056 30.8744Z" fill="#002026"/>
<path d="M40.9825 20.6754C41.0686 20.7805 41.1331 20.9021 41.1719 21.0331C41.2109 21.1642 41.2234 21.3019 41.2088 21.438C41.1941 21.574 41.1527 21.7057 41.0869 21.825C41.0212 21.9445 40.9324 22.049 40.826 22.1326C40.7408 22.0268 40.6772 21.9046 40.6393 21.7733C40.6014 21.6419 40.5898 21.5042 40.6053 21.3681C40.6208 21.2322 40.6629 21.1007 40.7293 20.9817C40.7957 20.8627 40.8849 20.7586 40.9917 20.6754H40.9825Z" fill="#002026"/>
<path d="M33.3496 29.6338C33.9284 30.5546 34.7911 29.9338 34.7996 29.9338C34.7996 29.9338 34.2122 29.01 33.3496 29.6338Z" fill="#002026"/>
<path d="M28.9933 16.3032C27.4497 16.3983 27.5502 17.7488 27.5502 17.7604C27.566 17.7604 29.1017 17.6582 28.9933 16.3032Z" fill="#002026"/>
<path d="M35.0038 29.4175C35.1005 29.5 35.1817 29.6037 35.242 29.7227C35.3025 29.8415 35.341 29.9729 35.3553 30.1091C35.3696 30.2452 35.3595 30.3832 35.3254 30.5148C35.2914 30.6464 35.2341 30.7688 35.1572 30.8746C35.0605 30.792 34.9795 30.6884 34.9191 30.5696C34.8586 30.4509 34.82 30.3196 34.8054 30.1836C34.7908 30.0476 34.8006 29.9096 34.8342 29.7781C34.8677 29.6464 34.9244 29.5237 35.0008 29.4175H35.0038Z" fill="#002026"/>
<path d="M36.248 28.0121C37.4386 27.643 37.6947 29.3721 37.698 29.3867C37.698 29.3867 36.5008 29.7462 36.248 28.0121Z" fill="#002026"/>
<path d="M40.5984 24.4956C39.9575 22.7075 39.1563 24.1141 39.1484 24.132C39.1484 24.132 39.7946 25.9201 40.5984 24.4956Z" fill="#002026"/>
<path d="M42.0549 20.6754C43.6045 20.7758 43.4972 22.1187 43.4972 22.1326C43.4972 22.1326 41.9397 22.0252 42.0549 20.6754Z" fill="#002026"/>
<path d="M36.2488 26.494C36.1265 24.9111 34.809 25.0495 34.7988 25.0495C34.7988 25.0495 34.9278 26.6405 36.2488 26.494Z" fill="#002026"/>
<path d="M37.6992 22.1638C37.8489 22.1353 38.0067 22.1261 38.1626 22.1365C38.3186 22.1469 38.4693 22.1768 38.6054 22.2244C38.7415 22.2719 38.8599 22.3361 38.9536 22.4129C39.0471 22.4897 39.1137 22.5775 39.1492 22.6707C39.0007 22.6968 38.8452 22.7043 38.6917 22.6927C38.5384 22.6813 38.3904 22.6508 38.2567 22.6035C38.1231 22.5561 38.0066 22.4928 37.9141 22.4172C37.8217 22.3416 37.7552 22.2555 37.7189 22.1638H37.6992Z" fill="#002026"/>
<path d="M36.248 27.9875C36.3993 27.9614 36.5577 27.9541 36.7137 27.966C36.8697 27.9779 37.02 28.0088 37.1556 28.0568C37.2912 28.1048 37.4092 28.1688 37.5025 28.245C37.5957 28.3212 37.6622 28.4081 37.698 28.5003C37.5475 28.5264 37.3897 28.5339 37.2343 28.5224C37.0787 28.5108 36.9288 28.4804 36.7934 28.4331C36.6579 28.3857 36.5398 28.3224 36.446 28.2468C36.3523 28.1713 36.285 28.0851 36.248 27.9934V27.9875Z" fill="#002026"/>
<path d="M40.5977 27.1126C40.62 27.0194 40.6754 26.9297 40.761 26.8487C40.8464 26.7677 40.9602 26.6972 41.0953 26.6412C41.2306 26.5853 41.3845 26.5451 41.548 26.523C41.7117 26.501 41.8816 26.4975 42.0476 26.5127C42.0261 26.6061 41.971 26.6961 41.8857 26.7772C41.8004 26.8584 41.6867 26.9291 41.5514 26.9852C41.4159 27.0411 41.2617 27.0813 41.0979 27.1032C40.9339 27.1251 40.7639 27.1283 40.5977 27.1126Z" fill="#002026"/>
<path d="M36.8702 27.9604C35.3611 28.7337 37.0697 29.4124 37.0873 29.4176C37.0873 29.4176 38.5964 28.6285 36.8702 27.9604Z" fill="#002026"/>
<path d="M42.0476 29.3123C41.7126 27.4933 40.6098 28.0346 40.5977 28.0395C40.5977 28.0395 40.9418 29.8685 42.0476 29.3123Z" fill="#002026"/>
<path d="M40.5977 20.5682C40.9379 18.7424 42.0368 19.2937 42.0476 19.3008C42.0476 19.3008 41.7009 21.1267 40.5977 20.5682Z" fill="#002026"/>
<path d="M20.0981 23.5894C18.2116 24.0317 19.0216 25.0374 19.0273 25.0465C19.0273 25.0465 20.9138 24.5982 20.0924 23.5894H20.0981Z" fill="#002026"/>
<path d="M10.355 26.5034C12.2377 26.9492 11.4248 27.952 11.4248 27.9606C11.4248 27.9606 9.53682 27.512 10.355 26.5034Z" fill="#002026"/>
<path d="M33.3556 19.2173C34.9066 19.3196 34.7979 20.6617 34.7979 20.6744C34.7979 20.6744 33.2411 20.5671 33.3556 19.2173Z" fill="#002026"/>
<path d="M40.4636 17.7612C41.1016 18.8374 39.2686 19.2141 39.2538 19.2184C39.2538 19.2184 38.6194 18.1422 40.4636 17.7612Z" fill="#002026"/>
<path d="M37.1547 17.7612C38.5637 19.3819 36.7939 20.6638 36.7767 20.6755C36.7767 20.6755 35.3676 19.043 37.1547 17.7612Z" fill="#002026"/>
<path d="M31.8992 20.8819C30.8905 20.063 30.452 21.9429 30.4492 21.9584C30.4492 21.9584 31.4634 22.7721 31.8992 20.8819Z" fill="#002026"/>
<path d="M38.618 20.6754C36.8231 21.3116 38.2067 22.1255 38.2169 22.1326C38.2169 22.1326 40.0118 21.4917 38.618 20.6754Z" fill="#002026"/>
<path d="M39.4126 22.1323C40.29 22.7701 39.6089 23.581 39.6028 23.5895C39.6028 23.5895 38.7224 22.9431 39.4126 22.1323Z" fill="#002026"/>
<path d="M23.1947 19.2173C21.6496 19.3112 21.7486 20.664 21.7526 20.6744C21.7526 20.6744 23.3015 20.5736 23.1947 19.2173Z" fill="#002026"/>
<path d="M30.462 20.6754C30.6731 20.6902 30.8785 20.7401 31.0657 20.8223C31.2528 20.9043 31.4179 21.0169 31.5508 21.153C31.684 21.2892 31.7822 21.4462 31.84 21.6144C31.8977 21.7827 31.9134 21.959 31.8863 22.1326C31.6751 22.1176 31.4699 22.0677 31.2828 21.9857C31.0956 21.9035 30.9305 21.7911 30.7974 21.6549C30.6643 21.5188 30.566 21.3618 30.5084 21.1934C30.4508 21.0251 30.4351 20.8488 30.462 20.6754Z" fill="#002026"/>
<path d="M20.2998 17.8509C20.4276 17.8005 20.5674 17.7706 20.7106 17.7631C20.8538 17.7556 20.9975 17.7707 21.1329 17.8073C21.2684 17.8441 21.3929 17.9017 21.4989 17.9767C21.6049 18.0517 21.6902 18.1426 21.7498 18.2439C21.6219 18.2944 21.4822 18.3243 21.339 18.3317C21.1958 18.3393 21.0521 18.3242 20.9167 18.2875C20.7812 18.2508 20.6567 18.1932 20.5506 18.1181C20.4446 18.0432 20.3594 17.9522 20.2998 17.8509Z" fill="#002026"/>
<path d="M33.8892 14.8463C35.675 14.2075 34.2848 13.3971 34.2731 13.3892C34.2731 13.3892 32.4815 14.0333 33.8892 14.8463Z" fill="#002026"/>
<path d="M8.69922 23.8016C9.70325 22.9665 10.1463 24.8654 10.1492 24.8654C10.1492 24.8654 9.13956 25.6953 8.69922 23.8016Z" fill="#002026"/>
<path d="M33.3484 16.3843C32.2119 15.9081 31.9014 17.6841 31.8984 17.7032C31.8984 17.7032 33.0439 18.1792 33.3484 16.3843Z" fill="#002026"/>
<path d="M36.2837 16.3033C36.371 16.2613 36.4524 16.1898 36.5229 16.0927C36.5934 15.9957 36.6515 15.8754 36.6937 15.739C36.7359 15.6028 36.7613 15.4533 36.7683 15.2998C36.7754 15.1463 36.7639 14.992 36.7347 14.8462C36.6474 14.888 36.566 14.9597 36.4954 15.0568C36.4249 15.1538 36.3669 15.2741 36.3247 15.4104C36.2825 15.5467 36.2571 15.6962 36.2501 15.8497C36.243 16.0033 36.2544 16.1575 36.2837 16.3033Z" fill="#002026"/>
<path d="M20.3979 17.7576C19.8642 16.6389 21.6597 16.3089 21.6778 16.3032C21.6778 16.3032 22.2025 17.422 20.3979 17.7604V17.7576Z" fill="#002026"/>
<path d="M40.3916 25.0464C38.5116 25.4877 39.3201 26.5035 39.3278 26.5035C39.3278 26.5035 41.2116 26.056 40.3916 25.0464Z" fill="#002026"/>
<path d="M32.1068 13.3892C33.9886 13.8348 33.1748 14.8363 33.1653 14.8463C33.1653 14.8463 31.2835 14.3956 32.1068 13.3892Z" fill="#002026"/>
<path d="M39.6602 19.2184C39.545 19.1514 39.4435 19.0601 39.3617 18.9498C39.2799 18.8395 39.2196 18.7125 39.1844 18.5765C39.1491 18.4404 39.1397 18.2981 39.1566 18.1581C39.1735 18.0179 39.2165 17.883 39.2829 17.7612C39.3985 17.8279 39.5004 17.919 39.5824 18.0292C39.6643 18.1395 39.7249 18.2666 39.7601 18.4028C39.7953 18.5389 39.8047 18.6814 39.7875 18.8216C39.7704 18.9618 39.7271 19.0967 39.6602 19.2184Z" fill="#002026"/>
<path d="M30.9334 27.9606C30.8162 27.8876 30.7148 27.7914 30.6354 27.6776C30.556 27.5638 30.5003 27.4348 30.4715 27.2986C30.4428 27.1623 30.4418 27.0216 30.4685 26.8849C30.4951 26.7482 30.5489 26.6184 30.6266 26.5034C30.7439 26.5763 30.8452 26.6726 30.9246 26.7864C31.004 26.9002 31.0598 27.0291 31.0885 27.1653C31.1172 27.3016 31.1182 27.4424 31.0916 27.5791C31.0649 27.7158 31.0111 27.8456 30.9334 27.9606Z" fill="#002026"/>
<path d="M21.7554 25.0465C23.2995 24.9516 23.1986 23.6025 23.1986 23.5894C23.1986 23.5894 21.647 23.6909 21.7554 25.0465Z" fill="#002026"/>
<path d="M15.9553 25.0465C17.5057 24.9519 17.3975 23.602 17.3975 23.5894C17.3975 23.5894 15.84 23.6903 15.9553 25.0465Z" fill="#002026"/>
<path d="M13.1283 20.6744C12.6582 19.5257 14.4259 19.2173 14.4446 19.2173C14.4446 19.2173 14.9073 20.3733 13.1283 20.6744Z" fill="#002026"/>
<path d="M13.0545 26.5001C14.6004 26.4029 14.4973 25.0568 14.4973 25.0464C14.4973 25.0464 12.9435 25.1505 13.0545 26.5035V26.5001Z" fill="#002026"/>
<path d="M15.9439 27.9606C14.3981 27.8634 14.5014 26.5173 14.5014 26.5034C14.5014 26.5034 16.0591 26.6075 15.9439 27.9606Z" fill="#002026"/>
<path d="M20.2961 29.4276C20.1712 31.0141 18.8597 30.8713 18.8496 30.8713C18.8496 30.8713 18.9848 29.2766 20.2996 29.4276H20.2961Z" fill="#002026"/>
<path d="M20.2996 20.6854C20.1745 22.2745 18.8631 22.1316 18.8496 22.1275C18.8496 22.1275 18.9848 20.5343 20.2996 20.6854Z" fill="#002026"/>
<path d="M13.0488 29.4275C13.1709 31.0126 14.4852 30.874 14.4988 30.8699C14.4988 30.8699 14.3666 29.2768 13.0488 29.4275Z" fill="#002026"/>
<path d="M11.5937 25.0465C10.0437 24.9459 10.151 23.5998 10.151 23.5894C10.151 23.5894 11.705 23.6969 11.5937 25.0465Z" fill="#002026"/>
<path d="M10.189 26.5035C11.8903 26.2745 11.5766 25.0559 11.5766 25.0464C11.5766 25.0464 9.87081 25.2819 10.189 26.5035Z" fill="#002026"/>
<path d="M11.5996 28.0531C11.6414 28.2961 11.7127 28.5226 11.8089 28.7193C11.9052 28.9159 12.0247 29.0785 12.1601 29.1972C12.2955 29.316 12.4441 29.3885 12.597 29.4104C12.7498 29.4325 12.9037 29.4034 13.0496 29.3249C13.0078 29.0819 12.9366 28.8554 12.8403 28.6588C12.7439 28.4621 12.6245 28.2996 12.4891 28.1808C12.3536 28.0621 12.2051 27.9895 12.0522 27.9676C11.8995 27.9455 11.7455 27.9747 11.5996 28.0531Z" fill="#002026"/>
<path d="M12.1328 29.4175C12.2101 29.5357 12.262 29.6679 12.2855 29.8061C12.309 29.9445 12.3034 30.0859 12.2694 30.2221C12.2352 30.3583 12.1732 30.4862 12.087 30.5984C12.0008 30.7105 11.8922 30.8046 11.7677 30.8746C11.6901 30.7566 11.6378 30.6244 11.6141 30.486C11.5904 30.3476 11.5958 30.206 11.63 30.0697C11.6641 29.9335 11.7263 29.8053 11.8127 29.6933C11.8992 29.5811 12.0081 29.4873 12.1328 29.4175Z" fill="#002026"/>
<path d="M11.8091 23.5895C13.6864 23.1481 12.8774 22.1323 12.8696 22.1323C12.8696 22.1323 10.9884 22.5798 11.8051 23.5895H11.8091Z" fill="#002026"/>
<path d="M20.8387 20.6744C20.7307 20.6185 20.6326 20.536 20.5505 20.4319C20.4684 20.3278 20.4038 20.2042 20.3607 20.0683C20.3174 19.9324 20.2965 19.787 20.299 19.6409C20.3016 19.4947 20.3276 19.3507 20.3754 19.2173C20.4838 19.2727 20.5821 19.355 20.6645 19.459C20.7468 19.563 20.8115 19.6868 20.8547 19.8228C20.898 19.9588 20.9188 20.1044 20.9161 20.2506C20.9134 20.397 20.887 20.5412 20.8387 20.6744Z" fill="#002026"/>
<path d="M20.8396 13.3883C20.7307 13.3325 20.6319 13.25 20.5493 13.1457C20.4667 13.0415 20.402 12.9175 20.359 12.7814C20.3161 12.6453 20.2957 12.4997 20.2992 12.3536C20.3027 12.2075 20.33 12.0638 20.3794 11.9312C20.4881 11.9873 20.5865 12.07 20.6688 12.1745C20.7511 12.2789 20.8155 12.403 20.8582 12.539C20.9009 12.6751 20.9209 12.8204 20.9173 12.9664C20.9136 13.1124 20.8861 13.2559 20.8365 13.3883H20.8396Z" fill="#002026"/>
<path d="M38.0762 13.3883C38.1493 13.2787 38.2021 13.1537 38.2319 13.0208C38.2618 12.888 38.2679 12.7498 38.2499 12.6143C38.2319 12.4788 38.1902 12.3486 38.1272 12.2314C38.0642 12.1141 37.9812 12.012 37.883 11.9312C37.8099 12.0408 37.757 12.1657 37.7272 12.2985C37.6974 12.4314 37.6913 12.5697 37.7093 12.7051C37.7273 12.8407 37.769 12.9708 37.832 13.0881C37.8949 13.2054 37.9779 13.3074 38.0762 13.3883Z" fill="#111111" fill-opacity="0.6"/>
<path d="M28.9988 16.1655C28.6224 14.3101 27.5596 14.9521 27.5488 14.9594C27.5488 14.9594 27.9316 16.8148 28.9988 16.1655Z" fill="#111111" fill-opacity="0.6"/>
<path d="M34.7913 14.8463C34.5858 14.8382 34.3842 14.7935 34.1992 14.7147C34.0141 14.6361 33.8493 14.5251 33.7151 14.3887C33.5807 14.2522 33.4798 14.093 33.4183 13.9213C33.357 13.7493 33.3364 13.5683 33.3579 13.3892C33.5634 13.3971 33.7649 13.4419 33.95 13.5206C34.1351 13.5994 34.2998 13.7103 34.4341 13.8468C34.5683 13.9833 34.6693 14.1423 34.7307 14.3142C34.7922 14.4861 34.8128 14.6672 34.7913 14.8463Z" fill="#111111" fill-opacity="0.6"/>
<path d="M36.2488 16.3068C36.2492 16.5061 36.2112 16.7034 36.1374 16.8863C36.0634 17.0691 35.955 17.2337 35.819 17.3698C35.683 17.5058 35.5221 17.6103 35.3467 17.677C35.1711 17.7436 34.9846 17.7708 34.7988 17.7568C34.7984 17.5575 34.8364 17.3603 34.9104 17.1774C34.9842 16.9945 35.0927 16.8299 35.2287 16.6939C35.3648 16.5578 35.5255 16.4532 35.7011 16.3867C35.8765 16.32 36.063 16.2929 36.2488 16.3068Z" fill="#111111" fill-opacity="0.6"/>
<path d="M33.3426 16.3033C31.7921 16.2025 31.9 14.8601 31.9 14.8462C31.9 14.8462 33.4545 14.954 33.3426 16.3033Z" fill="#111111" fill-opacity="0.6"/>
<path d="M36.0518 16.3033C36.1701 16.1716 36.2366 16.0287 36.2472 15.8831C36.258 15.7375 36.2127 15.5923 36.1142 15.4561C36.0159 15.3201 35.8661 15.1958 35.6743 15.091C35.4825 14.9862 35.2524 14.9029 34.9979 14.8462C34.8789 14.9778 34.8116 15.1208 34.8005 15.2666C34.7893 15.4123 34.8345 15.5577 34.933 15.694C35.0315 15.8302 35.1816 15.9545 35.3739 16.0592C35.5663 16.1639 35.7969 16.247 36.0518 16.3033Z" fill="#111111" fill-opacity="0.6"/>
<path d="M23.1398 14.8462C23.2017 15.0006 23.216 15.1616 23.1819 15.3198C23.1478 15.4779 23.0661 15.6298 22.9415 15.7661C22.8171 15.9023 22.6524 16.0203 22.4576 16.1126C22.2628 16.205 22.0421 16.27 21.8088 16.3033C21.7478 16.1491 21.7341 15.9881 21.7685 15.8301C21.8031 15.6721 21.885 15.5206 22.0092 15.3844C22.1337 15.2482 22.2979 15.1303 22.4922 15.0378C22.6865 14.9453 22.9069 14.8801 23.1398 14.8462Z" fill="#111111" fill-opacity="0.6"/>
<path d="M28.999 17.7163C29.1569 17.7687 29.3206 17.7744 29.4801 17.7332C29.6395 17.6921 29.7916 17.6049 29.927 17.477C30.0625 17.3488 30.1786 17.1826 30.2683 16.9883C30.358 16.794 30.4194 16.5756 30.449 16.3461C30.2913 16.2946 30.1281 16.2894 29.9691 16.3309C29.8099 16.3725 29.6583 16.4598 29.5233 16.5878C29.3883 16.7158 29.2725 16.8817 29.1831 17.0756C29.0937 17.2696 29.0324 17.4875 29.0028 17.7163H28.999Z" fill="#111111" fill-opacity="0.6"/>
<path d="M30.4492 17.7708C30.5715 19.3537 31.889 19.2153 31.8992 19.2153C31.8992 19.2153 31.7702 17.6243 30.4492 17.7708Z" fill="#111111" fill-opacity="0.6"/>
<path d="M17.9189 20.6754C19.7204 21.3048 18.3533 22.1246 18.3418 22.1326C18.3418 22.1326 16.5403 21.4979 17.9189 20.6754Z" fill="#111111" fill-opacity="0.6"/>
<path d="M22.2704 10.4751C24.0692 11.103 22.7055 11.9243 22.694 11.9322C22.694 11.9322 20.8894 11.2964 22.2704 10.4751Z" fill="#111111" fill-opacity="0.6"/>
<path d="M26.0996 17.6798C27.2367 18.1544 27.5465 16.3791 27.5496 16.3601C27.5496 16.3601 26.4064 15.8853 26.0996 17.6798Z" fill="#111111" fill-opacity="0.6"/>
<path d="M23.1999 16.2236C22.0581 16.6954 21.753 14.9211 21.75 14.9023C21.75 14.9023 22.8978 14.4304 23.1999 16.2236Z" fill="#111111" fill-opacity="0.6"/>
<path d="M23.1999 19.3143C22.8662 21.1446 21.7609 20.598 21.75 20.598C21.75 20.598 22.0968 18.7604 23.1999 19.3251V19.3143Z" fill="#111111" fill-opacity="0.6"/>
<path d="M42.0519 17.7612C41.972 19.1382 43.4783 19.2184 43.4983 19.2184C43.4983 19.2184 43.5695 17.8337 42.0519 17.7612Z" fill="#111111" fill-opacity="0.6"/>
<path d="M29.6265 14.8463C29.4996 14.7907 29.3845 14.7082 29.2884 14.6038C29.1923 14.4994 29.1172 14.3753 29.0676 14.2391C29.0179 14.1028 28.9948 13.9571 28.9997 13.811C29.0045 13.6649 29.0372 13.5214 29.0958 13.3892C29.2224 13.4452 29.3371 13.5279 29.433 13.6323C29.5289 13.7367 29.6038 13.8608 29.6534 13.997C29.703 14.1332 29.7262 14.2786 29.7216 14.4245C29.717 14.5706 29.6846 14.7141 29.6265 14.8463Z" fill="#111111" fill-opacity="0.6"/>
<path d="M27.5496 20.9194C27.4544 20.9925 27.3406 21.0501 27.2151 21.0889C27.0896 21.1278 26.955 21.1469 26.8195 21.1452C26.684 21.1436 26.5502 21.1211 26.4266 21.0792C26.3028 21.0372 26.1917 20.9767 26.0996 20.9013C26.1948 20.8283 26.3086 20.7706 26.4341 20.7318C26.5595 20.693 26.6941 20.6738 26.8297 20.6755C26.9652 20.6771 27.0989 20.6996 27.2226 20.7416C27.3464 20.7835 27.4576 20.844 27.5496 20.9194Z" fill="#111111" fill-opacity="0.6"/>
<path d="M36.1927 13.3883C36.58 12.2 34.8341 11.9334 34.8341 11.9312C34.8341 11.9312 34.4536 13.1263 36.1927 13.3883Z" fill="#111111" fill-opacity="0.6"/>
<path d="M27.5542 27.9606C29.0968 27.8631 28.9975 26.5162 28.9975 26.5034C28.9975 26.5034 27.4462 26.606 27.5542 27.9606Z" fill="#111111" fill-opacity="0.6"/>
<path d="M38.5968 16.3033C40.0186 15.4947 38.2486 14.8514 38.2315 14.8462C38.2315 14.8462 36.8155 15.6601 38.6026 16.3033H38.5968Z" fill="#111111" fill-opacity="0.6"/>
<path d="M20.2935 26.5035C18.7425 26.4038 18.8513 25.0592 18.8513 25.0464C18.8513 25.0464 20.4081 25.1537 20.2935 26.5035Z" fill="#111111" fill-opacity="0.6"/>
<path d="M27.5496 23.4125C26.5194 24.1609 26.1048 22.2946 26.0996 22.2759C26.0996 22.2759 27.1298 21.5368 27.5496 23.4125Z" fill="#111111" fill-opacity="0.6"/>
<path d="M37.3412 27.9606C38.4592 27.0526 36.5944 26.5077 36.5765 26.5034C36.5765 26.5034 35.4629 27.4179 37.3367 27.9606H37.3412Z" fill="#111111" fill-opacity="0.6"/>
<path d="M17.3931 19.2184C15.8436 19.118 15.9508 17.7751 15.9508 17.7612C15.9508 17.7612 17.5084 17.8685 17.3931 19.2184Z" fill="#111111" fill-opacity="0.6"/>
<path d="M26.1049 26.5035C27.6512 26.4063 27.5481 25.0603 27.5481 25.0464C27.5481 25.0464 25.9978 25.1505 26.1049 26.5035Z" fill="#111111" fill-opacity="0.6"/>
<path d="M22.4587 23.6169C22.3876 23.5939 22.3125 23.5852 22.2379 23.5912C22.1632 23.5973 22.0907 23.618 22.0245 23.6522C21.9583 23.6864 21.8999 23.7333 21.8527 23.7901C21.8055 23.8469 21.7706 23.9125 21.75 23.9828C21.821 24.0063 21.8962 24.0154 21.971 24.0096C22.0457 24.0038 22.1184 23.9831 22.1847 23.9488C22.2511 23.9146 22.3095 23.8675 22.3566 23.8104C22.4037 23.7534 22.4385 23.6876 22.4587 23.6169Z" fill="#111111" fill-opacity="0.6"/>
<path d="M39.1492 11.9914C38.8758 13.7352 37.7115 13.3644 37.6992 13.337C37.6992 13.337 37.9788 11.5887 39.1492 11.9914Z" fill="#111111" fill-opacity="0.6"/>
<path d="M28.999 22.0519C30.1354 22.5266 30.4459 20.7513 30.449 20.7325C30.449 20.7325 29.3035 20.2577 28.999 22.0473V22.0519Z" fill="#111111" fill-opacity="0.6"/>
<path d="M39.1482 20.6797C39.1432 20.8834 39.1011 21.0837 39.0243 21.2685C38.9476 21.4532 38.8379 21.6184 38.7021 21.754C38.5664 21.8895 38.4073 21.9924 38.2347 22.0566C38.0619 22.1208 37.8794 22.1446 37.6982 22.1269C37.7028 21.9251 37.7438 21.7263 37.8189 21.543C37.8942 21.3595 38.0018 21.1952 38.1355 21.0597C38.2691 20.9244 38.426 20.821 38.5964 20.7556C38.767 20.6902 38.9474 20.6644 39.1272 20.6797H39.1482Z" fill="#111111" fill-opacity="0.6"/>
<path d="M37.8925 19.2173C38.0012 19.2948 38.0939 19.3947 38.1649 19.5109C38.2359 19.6272 38.2837 19.7573 38.3055 19.8935C38.3274 20.0297 38.3226 20.1691 38.2917 20.3033C38.2608 20.4375 38.2044 20.5638 38.1257 20.6744C38.0169 20.5969 37.9243 20.497 37.8533 20.3808C37.7823 20.2646 37.7345 20.1344 37.7126 19.9983C37.6909 19.862 37.6956 19.7226 37.7265 19.5884C37.7574 19.4542 37.8139 19.3279 37.8925 19.2173Z" fill="#111111" fill-opacity="0.6"/>
<path d="M14.4988 26.6096C14.1585 28.4354 13.0597 27.8841 13.0488 27.877C13.0488 27.877 13.3956 26.0511 14.4988 26.6096Z" fill="#111111" fill-opacity="0.6"/>
<path d="M42.2268 25.0464C41.4731 26.0947 43.3573 26.4994 43.3573 26.5035C43.3573 26.5035 44.0884 25.4552 42.2268 25.0464Z" fill="#111111" fill-opacity="0.6"/>
<path d="M18.6378 27.9606C16.7566 27.519 17.5762 26.516 17.5821 26.5034C17.5821 26.5034 19.4692 26.9544 18.6378 27.9606Z" fill="#111111" fill-opacity="0.6"/>
<path d="M30.4487 24.2525C28.9448 22.691 27.5642 24.3746 27.5488 24.3921C27.5488 24.3921 29.0682 25.9535 30.4487 24.2525Z" fill="#111111" fill-opacity="0.6"/>
<path d="M37.6995 27.9604C37.8023 27.9691 37.9029 28.0142 37.9955 28.093C38.088 28.1717 38.1703 28.2826 38.2377 28.4187C38.3052 28.555 38.3561 28.7138 38.3875 28.8854C38.4189 29.0571 38.4301 29.2381 38.4204 29.4176C38.3179 29.4082 38.2176 29.3627 38.1255 29.2836C38.0332 29.2044 37.9512 29.0935 37.8841 28.9574C37.8171 28.8213 37.7664 28.6629 37.7352 28.4915C37.704 28.3201 37.6929 28.1395 37.7026 27.9604H37.6995Z" fill="#111111" fill-opacity="0.6"/>
<path d="M43.8943 17.7612C43.9793 17.8672 44.0426 17.9895 44.0803 18.121C44.118 18.2525 44.1293 18.3903 44.1135 18.5264C44.0978 18.6623 44.0553 18.7937 43.9886 18.9126C43.922 19.0316 43.8325 19.1355 43.7255 19.2184C43.64 19.1126 43.5764 18.9903 43.5385 18.8588C43.5005 18.7272 43.4892 18.5893 43.5049 18.4531C43.5207 18.317 43.5633 18.1855 43.6302 18.0666C43.6971 17.9477 43.787 17.8438 43.8943 17.7612Z" fill="#111111" fill-opacity="0.6"/>
<path d="M36.248 26.7185C36.8297 27.6392 37.6896 27.0184 37.698 27.0184C37.698 27.0184 37.1107 26.0977 36.248 26.7185Z" fill="#111111" fill-opacity="0.6"/>
<path d="M31.8963 13.3915C30.3525 13.4888 30.4505 14.8463 30.4505 14.8463C30.4637 14.8463 32.0023 14.7421 31.8937 13.3892L31.8963 13.3915Z" fill="#111111" fill-opacity="0.6"/>
<path d="M37.9048 27.9604C38.0019 28.0426 38.0832 28.1462 38.1438 28.265C38.2044 28.3838 38.243 28.5154 38.2574 28.6517C38.2718 28.788 38.2615 28.9262 38.2273 29.0579C38.193 29.1895 38.1354 29.3119 38.0581 29.4176C37.9611 29.3355 37.8798 29.2319 37.8191 29.1131C37.7585 28.9942 37.7199 28.8627 37.7055 28.7263C37.6911 28.5901 37.7014 28.4519 37.7357 28.3202C37.77 28.1885 37.8275 28.0661 37.9048 27.9604Z" fill="#111111" fill-opacity="0.6"/>
<path d="M39.1484 26.5538C40.3389 26.1905 40.595 27.9106 40.5984 27.9299C40.5984 27.9299 39.4012 28.2885 39.1484 26.5538Z" fill="#111111" fill-opacity="0.6"/>
<path d="M43.4988 21.5803C42.8578 19.7906 42.0567 21.2059 42.0488 21.2177C42.0488 21.2177 42.695 23.0074 43.4988 21.5803Z" fill="#111111" fill-opacity="0.6"/>
<path d="M44.9543 17.7612C46.5039 17.8616 46.3966 19.2045 46.3966 19.2184C46.3966 19.2184 44.8391 19.111 44.9543 17.7612Z" fill="#111111" fill-opacity="0.6"/>
<path d="M34.7988 26.4929C34.9272 24.9028 36.2352 25.05 36.2488 25.05C36.2488 25.05 36.1136 26.6482 34.7988 26.4929Z" fill="#111111" fill-opacity="0.6"/>
<path d="M37.698 25.0364C37.5758 23.4515 36.2582 23.5899 36.248 23.594C36.248 23.594 36.377 25.1871 37.698 25.0364Z" fill="#111111" fill-opacity="0.6"/>
<path d="M40.5986 20.7027C40.7494 20.6766 40.9074 20.6691 41.0631 20.6807C41.2187 20.6923 41.3689 20.7227 41.5045 20.7701C41.6399 20.8174 41.7581 20.8808 41.8515 20.9563C41.9452 21.0319 42.0121 21.1181 42.0486 21.2096C41.8978 21.2361 41.7397 21.2439 41.5837 21.2325C41.4278 21.2212 41.2775 21.1909 41.1417 21.1434C41.0059 21.096 40.8878 21.0324 40.7945 20.9566C40.701 20.8809 40.6344 20.7944 40.5986 20.7027Z" fill="#111111" fill-opacity="0.6"/>
<path d="M39.1484 25.0738C39.299 25.0476 39.4567 25.0401 39.6123 25.0516C39.7677 25.0632 39.9176 25.0935 40.0532 25.1409C40.1887 25.1882 40.3068 25.2516 40.4004 25.3272C40.4941 25.4027 40.5614 25.489 40.5984 25.5806C40.4479 25.6067 40.2901 25.6142 40.1347 25.6027C39.9791 25.5912 39.8292 25.5608 39.6938 25.5135C39.5583 25.4661 39.4402 25.4027 39.3464 25.3272C39.2527 25.2516 39.1854 25.1654 39.1484 25.0738Z" fill="#111111" fill-opacity="0.6"/>
<path d="M43.498 24.1995C43.5189 24.1059 43.5734 24.0158 43.6585 23.9344C43.7435 23.853 43.8573 23.7821 43.9929 23.7261C44.1285 23.67 44.2831 23.6298 44.4473 23.6081C44.6114 23.5864 44.7818 23.5835 44.948 23.5997C44.9273 23.6931 44.8728 23.7834 44.7877 23.8647C44.7026 23.9461 44.5888 24.017 44.4532 24.0731C44.3177 24.1292 44.1631 24.1693 43.9989 24.191C43.8346 24.2127 43.6643 24.2157 43.498 24.1995Z" fill="#111111" fill-opacity="0.6"/>
<path d="M38.3212 25.0464C36.8123 25.8183 38.5209 26.4957 38.5385 26.5035C38.5385 26.5035 40.0475 25.7159 38.3212 25.0464Z" fill="#111111" fill-opacity="0.6"/>
<path d="M44.948 26.4047C44.6129 24.5785 43.5103 25.1203 43.498 25.1253C43.498 25.1253 43.8423 26.9515 44.948 26.3996V26.4047Z" fill="#111111" fill-opacity="0.6"/>
<path d="M42.0488 17.6531C42.3891 15.831 43.4901 16.3787 43.4988 16.3859C43.4988 16.3859 43.152 18.2152 42.0488 17.6531Z" fill="#111111" fill-opacity="0.6"/>
<path d="M23.0119 20.6753C22.7575 20.7306 22.5269 20.813 22.334 20.9171C22.1411 21.0213 21.9899 21.1454 21.8897 21.2816C21.7896 21.4178 21.7424 21.5635 21.751 21.7098C21.7596 21.856 21.8239 21.9998 21.9401 22.1324C22.1939 22.0768 22.424 21.9943 22.6164 21.89C22.8089 21.7858 22.9596 21.6618 23.0598 21.5257C23.1599 21.3895 23.2073 21.244 23.199 21.0978C23.1907 20.9517 23.1271 20.808 23.0119 20.6753Z" fill="#111111" fill-opacity="0.6"/>
<path d="M13.2545 23.5894C15.1372 24.0322 14.3242 25.0351 14.3242 25.0465C14.3242 25.0465 12.4361 24.5951 13.2545 23.5894Z" fill="#111111" fill-opacity="0.6"/>
<path d="M18.8527 14.8462C20.4038 14.9459 20.298 16.2905 20.298 16.3033C20.298 16.3033 18.741 16.1959 18.8556 14.8462H18.8527Z" fill="#111111" fill-opacity="0.6"/>
<path d="M43.3639 14.8462C44.0021 15.9224 42.169 16.3012 42.1542 16.3033C42.1542 16.3033 41.5198 15.2272 43.3639 14.8462Z" fill="#111111" fill-opacity="0.6"/>
<path d="M40.0541 14.8462C41.4632 16.4652 39.6933 17.7488 39.6761 17.7605C39.6761 17.7605 38.267 16.1259 40.0541 14.8462Z" fill="#111111" fill-opacity="0.6"/>
<path d="M33.3484 17.9661C32.3425 17.1497 31.9039 19.0237 31.8984 19.0443C31.8984 19.0443 32.9126 19.8555 33.3484 17.9661Z" fill="#111111" fill-opacity="0.6"/>
<path d="M41.517 17.7612C39.7249 18.3951 41.1061 19.2114 41.1165 19.2184C41.1165 19.2184 42.9137 18.5776 41.517 17.7612Z" fill="#111111" fill-opacity="0.6"/>
<path d="M42.313 19.2173C43.1935 19.8564 42.5094 20.6659 42.5032 20.6744C42.5032 20.6744 41.6228 20.0297 42.313 19.2173Z" fill="#111111" fill-opacity="0.6"/>
<path d="M26.0931 16.3032C24.5468 16.4003 24.6499 17.7465 24.6499 17.7604C24.6499 17.7604 26.2001 17.6563 26.0931 16.3032Z" fill="#111111" fill-opacity="0.6"/>
<path d="M31.9105 17.7603C32.1216 17.7745 32.3269 17.824 32.5141 17.9058C32.7012 17.9877 32.8664 18.1001 32.9998 18.2362C33.1329 18.3726 33.2313 18.5297 33.2891 18.6983C33.3467 18.867 33.3626 19.0435 33.3355 19.2174C33.1248 19.2024 32.9201 19.1525 32.7332 19.0705C32.5465 18.9883 32.3817 18.8759 32.2485 18.7399C32.1155 18.6037 32.017 18.4469 31.959 18.2786C31.9008 18.1102 31.8843 17.934 31.9105 17.7603Z" fill="#111111" fill-opacity="0.6"/>
<path d="M23.1992 14.9339C23.3276 14.8839 23.4677 14.8546 23.611 14.8478C23.7543 14.8409 23.8979 14.8565 24.0331 14.8937C24.1685 14.9309 24.2928 14.989 24.3987 15.0644C24.5045 15.1399 24.5897 15.2311 24.6492 15.3328C24.521 15.3828 24.3811 15.4123 24.2381 15.4194C24.0949 15.4265 23.9514 15.4111 23.8162 15.3742C23.6809 15.3372 23.5565 15.2795 23.4505 15.2043C23.3446 15.1292 23.2591 15.0383 23.1992 14.9369V14.9339Z" fill="#111111" fill-opacity="0.6"/>
<path d="M36.3146 14.8463C38.0855 14.5408 37.6509 13.4014 37.6509 13.3892C37.6509 13.3892 35.8754 13.6947 36.3193 14.8463H36.3146Z" fill="#111111" fill-opacity="0.6"/>
<path d="M11.5996 22.3432C12.6036 21.5112 13.0467 23.4098 13.0496 23.4098C13.0496 23.4098 12.0399 24.2365 11.5996 22.3432Z" fill="#111111" fill-opacity="0.6"/>
<path d="M34.7996 13.4701C33.6631 12.9938 33.3526 14.7748 33.3496 14.7891C33.3496 14.7891 34.495 15.2653 34.7996 13.4701Z" fill="#111111" fill-opacity="0.6"/>
<path d="M39.1824 13.3883C39.2697 13.3464 39.3511 13.2748 39.4216 13.1778C39.4921 13.0808 39.5502 12.9605 39.5923 12.8241C39.6346 12.6878 39.66 12.5383 39.667 12.3847C39.674 12.2314 39.6626 12.0769 39.6334 11.9312C39.5465 11.9744 39.4657 12.0468 39.3956 12.1441C39.3256 12.2414 39.2679 12.3617 39.2258 12.4976C39.1837 12.6335 39.1582 12.7824 39.1507 12.9355C39.1433 13.0885 39.1541 13.2425 39.1824 13.3883Z" fill="#111111" fill-opacity="0.6"/>
<path d="M23.2982 14.8463C22.765 13.7255 24.559 13.392 24.5771 13.3892C24.5771 13.3892 25.1059 14.5101 23.2982 14.8463Z" fill="#111111" fill-opacity="0.6"/>
<path d="M43.2905 22.1323C41.4146 22.5736 42.2191 23.5895 42.2268 23.5895C42.2462 23.5895 44.1104 23.1399 43.2905 22.1323Z" fill="#111111" fill-opacity="0.6"/>
<path d="M37.0521 11.9312C38.5902 12.6936 36.9004 13.3813 36.8845 13.3883C36.8845 13.3883 35.3465 12.6188 37.0521 11.9312Z" fill="#111111" fill-opacity="0.6"/>
<path d="M42.5607 16.3033C42.4451 16.2369 42.3432 16.1457 42.2613 16.0353C42.1793 15.9249 42.119 15.7978 42.0839 15.6614C42.049 15.5251 42.04 15.3826 42.0576 15.2425C42.0752 15.1023 42.1191 14.9675 42.1864 14.8462C42.3017 14.913 42.4033 15.0044 42.4851 15.1148C42.5667 15.2252 42.6269 15.3523 42.6619 15.4885C42.6968 15.6247 42.7059 15.767 42.6885 15.9071C42.6711 16.0471 42.6276 16.182 42.5607 16.3033Z" fill="#111111" fill-opacity="0.6"/>
<path d="M34.3807 26.5036C32.5248 25.349 33.7382 23.6052 33.7508 23.5894C33.7508 23.5894 35.6068 24.7757 34.3807 26.5036Z" fill="#111111" fill-opacity="0.6"/>
<path d="M23.2046 23.5895C24.7512 23.4943 24.6503 22.1455 24.6466 22.1323C24.6466 22.1323 23.0963 22.2341 23.2046 23.5895Z" fill="#111111" fill-opacity="0.6"/>
<path d="M18.8557 22.1324C20.4026 22.0349 20.2981 20.6879 20.2981 20.6753C20.2981 20.6753 18.7404 20.7792 18.8557 22.1324Z" fill="#111111" fill-opacity="0.6"/>
<path d="M17.4779 19.2184C17.0113 18.0697 18.7763 17.7612 18.7952 17.7612C18.7952 17.7612 19.258 18.9148 17.4779 19.2184Z" fill="#111111" fill-opacity="0.6"/>
<path d="M14.5053 23.5895C16.0516 23.4957 15.9485 22.1463 15.9485 22.1323C15.9485 22.1323 14.3982 22.2333 14.5053 23.5895Z" fill="#111111" fill-opacity="0.6"/>
<path d="M18.8437 25.0465C17.2978 24.9494 17.4008 23.6033 17.4008 23.5894C17.4008 23.5894 18.9546 23.6935 18.8437 25.0465Z" fill="#111111" fill-opacity="0.6"/>
<path d="M23.1999 22.6694C23.0605 22.7082 22.9116 22.7265 22.7622 22.723C22.6127 22.7196 22.4656 22.6946 22.3301 22.6494C22.1945 22.6043 22.0733 22.54 21.9735 22.4604C21.8738 22.3808 21.7978 22.2876 21.75 22.1864C21.8893 22.1476 22.0383 22.1293 22.1878 22.1327C22.3373 22.1361 22.4843 22.1611 22.6199 22.2063C22.7555 22.2515 22.8767 22.3157 22.9765 22.3954C23.0761 22.475 23.1522 22.5682 23.1999 22.6694Z" fill="#111111" fill-opacity="0.6"/>
<path d="M23.1999 17.7708C23.0746 19.3578 21.7602 19.2151 21.75 19.2151C21.75 19.2151 21.872 17.6239 23.1999 17.7708Z" fill="#111111" fill-opacity="0.6"/>
<path d="M15.9492 27.97C16.0745 29.5529 17.3856 29.4145 17.3992 29.4145C17.3992 29.4145 17.2671 27.8235 15.9492 27.97Z" fill="#111111" fill-opacity="0.6"/>
<path d="M14.4927 22.1324C12.9432 22.0321 13.0504 20.6892 13.0504 20.6753C13.0504 20.6753 14.6079 20.7825 14.4927 22.1324Z" fill="#111111" fill-opacity="0.6"/>
<path d="M13.0895 23.5895C14.788 23.3577 14.4784 22.145 14.474 22.1323C14.474 22.1323 12.7665 22.3704 13.0895 23.5895Z" fill="#111111" fill-opacity="0.6"/>
<path d="M14.5035 25.1405C14.5449 25.3831 14.6158 25.6094 14.7117 25.8057C14.8077 26.0022 14.9268 26.1645 15.0619 26.2832C15.1971 26.402 15.3454 26.4745 15.498 26.4964C15.6506 26.5184 15.8043 26.4895 15.9499 26.4111C15.9086 26.168 15.8376 25.941 15.7414 25.7442C15.6452 25.5474 15.5257 25.3847 15.3901 25.2659C15.2547 25.147 15.1059 25.0747 14.9529 25.0532C14.7999 25.0317 14.6458 25.0613 14.5 25.1405H14.5035Z" fill="#111111" fill-opacity="0.6"/>
<path d="M15.0347 26.5034C15.5991 27.3992 14.6788 27.9545 14.6696 27.9606C14.5914 27.8426 14.5388 27.7104 14.5148 27.572C14.4908 27.4336 14.4961 27.2919 14.5302 27.1555C14.5644 27.0192 14.6267 26.891 14.7135 26.7789C14.8002 26.6668 14.9095 26.5731 15.0347 26.5034Z" fill="#111111" fill-opacity="0.6"/>
<path d="M14.7116 20.6744C16.5936 20.2331 15.771 19.2173 15.771 19.2173C15.771 19.2173 13.8852 19.6648 14.7077 20.6744H14.7116Z" fill="#111111" fill-opacity="0.6"/>
<path d="M23.74 17.7604C23.6311 17.7046 23.5324 17.6221 23.4498 17.5178C23.3672 17.4135 23.3025 17.2896 23.2595 17.1535C23.2164 17.0173 23.1961 16.8719 23.1996 16.7258C23.2031 16.5796 23.2305 16.436 23.2799 16.3032C23.3891 16.3585 23.4882 16.4409 23.571 16.5451C23.6538 16.6493 23.7187 16.7732 23.7618 16.9095C23.8048 17.0458 23.825 17.1914 23.8213 17.3377C23.8176 17.484 23.7899 17.6277 23.74 17.7604Z" fill="#111111" fill-opacity="0.6"/>
<path d="M19.0543 20.6744C18.9735 20.5657 18.9146 20.4409 18.8813 20.3076C18.848 20.1743 18.8409 20.0352 18.8603 19.899C18.8799 19.7627 18.9256 19.6319 18.9948 19.5147C19.064 19.3975 19.1552 19.2963 19.2628 19.2173C19.3432 19.3262 19.4017 19.4511 19.4348 19.5842C19.4678 19.7175 19.4749 19.8564 19.4554 19.9926C19.4359 20.1288 19.3903 20.2594 19.3214 20.3766C19.2524 20.4938 19.1615 20.5951 19.0543 20.6744Z" fill="#002026"/>
<path d="M24.6484 16.1639C25.4003 14.3134 27.5284 14.9508 27.5483 14.9578C27.5483 14.9749 26.7846 16.8151 24.6484 16.1639Z" fill="#002026"/>
<path d="M20.3055 16.2992C20.5106 16.2895 20.7114 16.2439 20.8957 16.1649C21.0801 16.0859 21.2444 15.9752 21.3786 15.8395C21.5127 15.7039 21.6141 15.5459 21.6764 15.3753C21.7389 15.2045 21.7613 15.0246 21.7421 14.8462C21.5367 14.8564 21.3359 14.9026 21.1515 14.982C20.9671 15.0614 20.8029 15.1725 20.6688 15.3085C20.5346 15.4446 20.4334 15.6027 20.3709 15.7737C20.3086 15.9446 20.2863 16.1247 20.3055 16.3033V16.2992Z" fill="#002026"/>
<path d="M18.8496 16.3061C18.8527 16.5055 18.8931 16.7021 18.9683 16.8842C19.0437 17.0663 19.1523 17.2301 19.2878 17.3657C19.4232 17.5013 19.5828 17.6061 19.7566 17.6734C19.9305 17.7408 20.1152 17.7695 20.2996 17.7578C20.2971 17.5583 20.2572 17.3613 20.1819 17.1788C20.1069 16.9965 19.9982 16.8324 19.8626 16.6967C19.7271 16.5609 19.5674 16.4563 19.3933 16.3891C19.2192 16.3219 19.0342 16.2937 18.8496 16.3061Z" fill="#002026"/>
<path d="M21.7561 16.3033C23.3061 16.203 23.1983 14.8592 23.1983 14.8462C23.1983 14.8462 21.6408 14.9531 21.7561 16.3033Z" fill="#002026"/>
<path d="M19.067 16.3003C18.2253 15.2973 20.098 14.8462 20.1147 14.8462C20.1147 14.8462 20.9508 15.8552 19.067 16.3033V16.3003Z" fill="#002026"/>
<path d="M33.4089 16.3032C33.3473 16.4573 33.3335 16.618 33.3684 16.7757C33.4033 16.9335 33.4861 17.0849 33.6119 17.221C33.7378 17.3571 33.9039 17.475 34.1004 17.5677C34.2971 17.6603 34.52 17.7259 34.7559 17.7604C34.7559 17.7604 35.1761 16.584 33.4089 16.3032Z" fill="#002026"/>
<path d="M26.0984 19.175C25.94 19.2269 25.7758 19.2323 25.616 19.1908C25.4561 19.1492 25.3038 19.0618 25.1682 18.9336C25.0327 18.8054 24.9167 18.6392 24.8273 18.445C24.738 18.2508 24.6772 18.0327 24.6484 17.804C24.8061 17.7527 24.9694 17.7475 25.1284 17.7888C25.2875 17.8299 25.4392 17.9168 25.5742 18.0438C25.7094 18.1709 25.8251 18.3358 25.9145 18.5283C26.004 18.721 26.0654 18.9376 26.0948 19.1649L26.0984 19.175Z" fill="#002026"/>
<path d="M24.6492 19.2306C24.526 20.8111 23.2118 20.6713 23.1992 20.6713C23.1992 20.6713 23.3287 19.0794 24.6492 19.2269V19.2306Z" fill="#002026"/>
<path d="M36.249 20.6856C36.378 22.277 37.6865 22.1289 37.699 22.1289C37.699 22.1289 37.5637 20.5338 36.249 20.6856Z" fill="#002026"/>
<path d="M28.9988 19.1362C27.8623 19.6152 27.5517 17.8446 27.5488 17.8181C27.5488 17.8181 28.6937 17.3436 28.9988 19.1362Z" fill="#002026"/>
<path d="M33.3496 16.2232C34.4904 16.699 34.7967 14.9012 34.7996 14.9012C34.7996 14.9012 33.6531 14.434 33.3496 16.2232Z" fill="#002026"/>
<path d="M31.9035 20.7818C32.5841 22.6058 34.7792 22.0566 34.7993 22.05C34.7993 22.05 34.1066 20.2226 31.8994 20.7818H31.9035Z" fill="#002026"/>
<path d="M11.5963 17.7612C11.6759 19.1504 10.1659 19.2184 10.1499 19.2184C10.1499 19.2184 10.0784 17.822 11.5963 17.7612Z" fill="#002026"/>
<path d="M24.8411 16.3033C25.0955 16.2475 25.3259 16.1648 25.5183 16.0603C25.7107 15.9558 25.8612 15.8317 25.9608 15.6955C26.0603 15.5594 26.1067 15.4139 26.0972 15.2678C26.0878 15.1219 26.0226 14.9784 25.9057 14.8462C25.6513 14.9021 25.421 14.9848 25.2285 15.0893C25.0361 15.1938 24.8856 15.3179 24.786 15.454C24.6865 15.5903 24.6401 15.7358 24.6497 15.8817C24.659 16.0277 24.7242 16.1712 24.8411 16.3033Z" fill="#002026"/>
<path d="M27.5488 22.3948C27.6439 22.4739 27.7576 22.5364 27.8832 22.5785C28.0088 22.6205 28.1436 22.6411 28.2793 22.6392C28.415 22.6372 28.5488 22.6126 28.6725 22.567C28.7962 22.5213 28.9072 22.4556 28.9988 22.3737C28.9038 22.2955 28.7905 22.2338 28.6656 22.1924C28.5406 22.1509 28.4067 22.1305 28.272 22.1325C28.1372 22.1344 28.0043 22.1587 27.8813 22.2037C27.7582 22.2488 27.6476 22.3138 27.5562 22.3948H27.5488Z" fill="#002026"/>
<path d="M26.0996 20.6254C26.3451 18.8983 27.5363 19.2438 27.5496 19.2485C27.5496 19.2485 27.294 20.9851 26.0996 20.6254Z" fill="#002026"/>
<path d="M26.0984 27.8936C24.9333 28.3207 24.6513 26.5657 24.6484 26.5486C24.6484 26.5486 25.8191 26.1215 26.0984 27.8936Z" fill="#002026"/>
<path d="M16.5033 17.7604C15.0789 16.9538 16.8487 16.32 16.8646 16.3032C16.8646 16.3032 18.2835 17.117 16.4979 17.7604H16.5033Z" fill="#002026"/>
<path d="M36.2541 27.9606C37.803 27.8583 37.6964 26.5177 37.6964 26.5034C37.68 26.5034 36.1394 26.6104 36.2541 27.9606Z" fill="#002026"/>
<path d="M21.6965 20.6744C21.7537 20.5184 21.7641 20.3561 21.7269 20.1972C21.6898 20.0385 21.606 19.8865 21.4804 19.7502C21.3548 19.6141 21.1901 19.4967 20.9962 19.4051C20.8024 19.3135 20.5833 19.2496 20.3524 19.2173C20.2943 19.3733 20.2834 19.5357 20.3201 19.6947C20.3571 19.8537 20.4407 20.006 20.5665 20.1422C20.6922 20.2785 20.8571 20.3959 21.0514 20.4874C21.2457 20.5789 21.4651 20.6426 21.6965 20.6744Z" fill="#002026"/>
<path d="M17.7571 29.4176C16.6376 28.5099 18.5021 27.9665 18.5188 27.9604C18.5188 27.9604 19.6383 28.8762 17.7571 29.4176Z" fill="#002026"/>
<path d="M39.1545 19.2184C40.7029 19.1184 40.5995 17.7741 40.5957 17.7612C40.5957 17.7612 39.04 17.8676 39.1545 19.2184Z" fill="#002026"/>
<path d="M28.9931 27.9606C27.4481 27.8669 27.5476 26.5164 27.5513 26.5034C27.5513 26.5034 29.1037 26.6068 28.9931 27.9606Z" fill="#002026"/>
<path d="M33.6453 27.9604C33.7269 28.0587 33.7905 28.1751 33.8322 28.3025C33.8739 28.4299 33.893 28.5658 33.888 28.7018C33.8832 28.838 33.8545 28.9716 33.8039 29.0946C33.7532 29.2176 33.6815 29.3274 33.5932 29.4176C33.5115 29.3193 33.4479 29.2029 33.4062 29.0755C33.3645 28.9481 33.3455 28.8123 33.3503 28.6761C33.3553 28.54 33.3839 28.4065 33.4346 28.2835C33.4853 28.1605 33.5569 28.0506 33.6453 27.9604Z" fill="#002026"/>
<path d="M17.3994 19.2784C17.6854 21.0323 18.8293 20.6378 18.8494 20.6336C18.8494 20.6336 18.5634 18.8709 17.3994 19.2784Z" fill="#002026"/>
<path d="M24.6492 23.5073C23.5274 23.9865 23.202 22.2146 23.1992 22.1882C23.1992 22.1882 24.3435 21.7177 24.6492 23.5073Z" fill="#002026"/>
<path d="M14.5 20.6792C14.5049 20.8817 14.5467 21.0809 14.6232 21.2648C14.6996 21.4488 14.809 21.6136 14.9446 21.7491C15.0804 21.8847 15.2395 21.988 15.4122 22.0532C15.585 22.1183 15.7679 22.1438 15.9499 22.128C15.9437 21.926 15.9009 21.7275 15.824 21.5443C15.7469 21.361 15.6377 21.1969 15.5022 21.0617C15.3669 20.9265 15.2084 20.8229 15.0363 20.7573C14.864 20.6915 14.6817 20.6649 14.5 20.6792Z" fill="#002026"/>
<path d="M16.4068 20.6753C16.2902 20.7531 16.1909 20.8531 16.1148 20.9694C16.0387 21.0856 15.9873 21.2156 15.9639 21.3517C15.9404 21.4878 15.9452 21.6271 15.9781 21.7613C16.011 21.8956 16.0712 22.0219 16.1552 22.1328C16.2722 22.0553 16.3718 21.9555 16.4482 21.8392C16.5246 21.723 16.5761 21.5928 16.5996 21.4566C16.6231 21.3204 16.6182 21.1809 16.585 21.0466C16.5519 20.9123 16.4913 20.786 16.4068 20.6753Z" fill="#002026"/>
<path d="M40.5977 28.0681C41.2783 29.8913 43.4734 29.3413 43.4976 29.3347C43.4976 29.3347 42.8048 27.5048 40.5977 28.0681Z" fill="#002026"/>
<path d="M12.8752 26.5034C13.6157 28.5829 11.7592 29.4098 11.7416 29.4177C11.7416 29.4177 11.0082 27.3266 12.8752 26.5034Z" fill="#002026"/>
<path d="M37.9094 29.4176C39.7906 28.9775 38.9734 27.9809 38.968 27.9604C38.968 27.9604 37.0812 28.4064 37.9094 29.4176Z" fill="#002026"/>
<path d="M24.6484 25.7101C26.1522 24.1475 27.5196 25.8319 27.5483 25.8482C27.5483 25.8482 26.0302 27.4108 24.6484 25.7101Z" fill="#002026"/>
<path d="M17.3928 29.4175C17.1875 29.4268 16.9867 29.4724 16.8021 29.5515C16.6175 29.6304 16.4532 29.7415 16.3191 29.8776C16.1847 30.0137 16.0834 30.1723 16.021 30.3436C15.9587 30.5149 15.9365 30.6956 15.9562 30.8746C16.161 30.8646 16.3615 30.8186 16.5456 30.7393C16.7299 30.66 16.8938 30.549 17.028 30.413C17.162 30.2771 17.2635 30.1188 17.3261 29.9478C17.3889 29.7767 17.4115 29.5964 17.3928 29.4175Z" fill="#002026"/>
<path d="M8.95919 17.7612C8.28737 18.5743 9.13408 19.2184 9.14018 19.2184C9.14018 19.2184 9.81507 18.3995 8.96229 17.7612H8.95919Z" fill="#002026"/>
<path d="M17.3992 28.3904C16.8192 30.2521 15.9596 29.0166 15.9492 29.0054C15.9492 29.0054 16.537 27.1435 17.3992 28.3904Z" fill="#002026"/>
<path d="M20.3055 10.4751C21.8509 10.5698 21.7483 11.9322 21.7483 11.9322C21.7483 11.9322 20.1948 11.8303 20.3055 10.4751Z" fill="#002026"/>
<path d="M16.3335 29.4175C16.2296 29.5 16.1427 29.6039 16.0778 29.7227C16.0129 29.8415 15.9715 29.9728 15.956 30.1089C15.9406 30.245 15.9514 30.3829 15.9878 30.5146C16.0241 30.6461 16.0854 30.7686 16.1679 30.8746C16.2721 30.7924 16.3594 30.6887 16.4245 30.5699C16.4896 30.4511 16.5311 30.3197 16.5466 30.1834C16.5622 30.0471 16.5513 29.9091 16.5146 29.7774C16.478 29.6458 16.4163 29.5233 16.3335 29.4175Z" fill="#002026"/>
<path d="M14.4988 28.0122C13.3059 27.6412 13.0519 29.3863 13.0488 29.3863C13.0488 29.3863 14.2447 29.7481 14.4988 28.0122Z" fill="#002026"/>
<path d="M10.1494 23.0373C10.79 21.249 11.592 22.6611 11.5994 22.6719C11.5994 22.6719 10.9514 24.4656 10.1494 23.0373Z" fill="#002026"/>
<path d="M8.69391 17.7612C7.14435 17.8612 7.25159 19.2055 7.25159 19.2184C7.25159 19.2184 8.8086 19.112 8.69391 17.7612Z" fill="#002026"/>
<path d="M33.3484 27.9543C33.3345 27.747 33.2857 27.5452 33.2051 27.3602C33.1245 27.1753 33.0138 27.0109 32.8789 26.8765C32.7441 26.7423 32.5882 26.6406 32.4198 26.5777C32.2516 26.5145 32.0744 26.4914 31.8984 26.5093C31.9118 26.7168 31.9601 26.919 32.0404 27.1044C32.1209 27.2896 32.2318 27.4544 32.3666 27.5888C32.5016 27.7231 32.6578 27.8248 32.8263 27.8874C32.9948 27.9502 33.1724 27.9728 33.3484 27.9543Z" fill="#002026"/>
<path d="M15.9492 25.0368C16.0725 23.4523 17.3865 23.5925 17.3992 23.5925C17.3992 23.5925 17.2697 25.1846 15.9492 25.0368Z" fill="#002026"/>
<path d="M13.0496 20.7045C12.899 20.6766 12.7412 20.6686 12.5859 20.6812C12.4304 20.6937 12.2804 20.7264 12.145 20.7774C12.0096 20.8284 11.8915 20.8966 11.7977 20.9779C11.7041 21.0591 11.6366 21.1519 11.5996 21.2504C11.7503 21.2787 11.9081 21.287 12.0639 21.2747C12.2195 21.2623 12.3697 21.2297 12.5053 21.1786C12.6408 21.1276 12.7591 21.0592 12.8526 20.9777C12.9462 20.8962 13.0131 20.8033 13.0496 20.7045Z" fill="#002026"/>
<path d="M15.9499 26.5327C15.7997 26.5048 15.6423 26.4967 15.4871 26.509C15.3319 26.5214 15.1821 26.5539 15.0467 26.6045C14.9113 26.6552 14.7932 26.723 14.6992 26.804C14.6053 26.8849 14.5375 26.9773 14.5 27.0756C14.6507 27.1035 14.8084 27.1114 14.9638 27.0989C15.1193 27.0863 15.2692 27.0536 15.4046 27.0027C15.54 26.9517 15.6582 26.8835 15.7518 26.8022C15.8456 26.721 15.913 26.6282 15.9499 26.5297V26.5327Z" fill="#002026"/>
<path d="M11.5994 25.7043C11.578 25.6038 11.5232 25.507 11.4381 25.4196C11.3531 25.3322 11.2394 25.2559 11.1039 25.1955C10.9686 25.135 10.8143 25.0915 10.6503 25.0676C10.4862 25.0437 10.3159 25.04 10.1494 25.0565C10.1699 25.1571 10.2243 25.2541 10.3092 25.3418C10.3941 25.4295 10.5077 25.5058 10.6434 25.5665C10.7788 25.627 10.9334 25.6704 11.0978 25.6941C11.2621 25.7179 11.4327 25.7213 11.5994 25.7043Z" fill="#002026"/>
<path d="M15.3259 26.5034C16.8378 27.2709 15.1294 27.9436 15.1131 27.9606C15.1131 27.9606 13.6012 27.1859 15.3259 26.5034Z" fill="#002026"/>
<path d="M8.69922 27.857C9.03405 26.036 10.1406 26.5776 10.1492 26.5823C10.1492 26.5823 9.79441 28.4079 8.69922 27.857Z" fill="#002026"/>
<path d="M17.3476 20.6744C17.7142 19.4777 16.0067 19.2204 15.9799 19.2173C15.9799 19.2173 15.6224 20.4201 17.3476 20.6744Z" fill="#002026"/>
<path d="M33.5619 22.1323C35.4495 22.5729 34.6164 23.581 34.6164 23.5895C34.6164 23.5895 32.7288 23.1405 33.5619 22.1323Z" fill="#002026"/>
<path d="M43.2885 25.0464C41.4091 25.4905 42.2223 26.4929 42.2323 26.5035C42.2323 26.5035 44.1165 26.0515 43.2885 25.0464Z" fill="#002026"/>
<path d="M36.2454 14.8462C34.6939 14.9484 34.8004 16.2915 34.8004 16.3033C34.8141 16.3033 36.3574 16.1964 36.2427 14.8462H36.2454Z" fill="#002026"/>
<path d="M11.7375 16.3032C11.0907 17.388 12.9283 17.7563 12.9455 17.7604C12.9455 17.7604 13.5751 16.6775 11.7375 16.3032Z" fill="#002026"/>
<path d="M13.5941 14.8462C12.1833 16.4708 13.9539 17.7605 13.9698 17.7605C13.9698 17.7605 15.3807 16.1176 13.5941 14.8462Z" fill="#002026"/>
<path d="M29.3178 19.2173C29.3932 19.3203 29.4505 19.4403 29.486 19.5701C29.5216 19.7 29.5347 19.8369 29.5247 19.9729C29.5147 20.1089 29.4816 20.2411 29.4276 20.3616C29.3736 20.4821 29.2998 20.5885 29.2104 20.6744C29.1348 20.5716 29.0774 20.4518 29.0416 20.3221C29.0057 20.1925 28.9924 20.0555 29.0021 19.9195C29.0118 19.7835 29.0445 19.6513 29.0982 19.5307C29.152 19.41 29.2256 19.3034 29.3147 19.2173H29.3178Z" fill="#002026"/>
<path d="M13.5781 17.7612C15.3719 18.3962 13.9942 19.2097 13.9799 19.2184C13.9799 19.2184 12.1861 18.5768 13.5781 17.7612Z" fill="#002026"/>
<path d="M12.501 19.2279C10.718 19.8667 12.1305 20.6744 12.1305 20.6744C12.1305 20.6744 13.9135 20.0277 12.5126 19.2173L12.501 19.2279Z" fill="#002026"/>
<path d="M30.4545 16.3032C31.9973 16.3969 31.8979 17.7474 31.8979 17.7604C31.8979 17.7604 30.3477 17.657 30.4545 16.3032Z" fill="#002026"/>
<path d="M30.449 19.5649C30.3957 19.496 30.3153 19.4333 30.2127 19.3805C30.1099 19.3277 29.9871 19.2861 29.8515 19.258C29.7159 19.23 29.5704 19.2161 29.4238 19.2174C29.2773 19.2185 29.1327 19.2347 28.999 19.265C29.0523 19.334 29.1327 19.3966 29.2353 19.4494C29.3381 19.5022 29.4611 19.5438 29.5967 19.5719C29.7323 19.5999 29.8776 19.6138 30.0241 19.6126C30.1707 19.6114 30.3153 19.5952 30.449 19.5649Z" fill="#002026"/>
<path d="M33.3484 16.3976C33.2202 16.3441 33.0802 16.3127 32.9369 16.305C32.7936 16.2974 32.6499 16.3139 32.5145 16.3534C32.3791 16.3929 32.2547 16.4546 32.1489 16.5349C32.043 16.6151 31.9578 16.7123 31.8984 16.8204C32.1585 16.9233 32.4574 16.9367 32.7292 16.8574C33.001 16.7781 33.2238 16.6127 33.3484 16.3976Z" fill="#002026"/>
<path d="M24.9707 20.6669C24.8835 20.5842 24.8105 20.4807 24.756 20.3625C24.7017 20.2441 24.667 20.1135 24.6541 19.9784C24.6412 19.8431 24.6504 19.706 24.6811 19.5753C24.7118 19.4446 24.7633 19.3229 24.8327 19.2173C24.9211 19.2996 24.9952 19.4034 25.0505 19.5221C25.1057 19.6409 25.141 19.7723 25.1542 19.9085C25.1674 20.0446 25.1582 20.1827 25.1271 20.3144C25.0962 20.446 25.044 20.5684 24.9738 20.6744L24.9707 20.6669Z" fill="#002026"/>
<path d="M43.4988 22.3419C42.4966 21.5168 42.0541 23.3929 42.0488 23.4124C42.0488 23.4124 43.0589 24.2327 43.4988 22.3419Z" fill="#002026"/>
<path d="M18.8496 14.9283C19.9883 14.4494 20.2967 16.2201 20.2996 16.2465C20.2996 16.2465 19.1553 16.7211 18.8496 14.9283Z" fill="#002026"/>
<path d="M19.3703 19.2184C19.2772 19.1753 19.1905 19.1029 19.1154 19.0058C19.0402 18.9085 18.9782 18.7884 18.933 18.6525C18.8878 18.5165 18.8603 18.3675 18.8522 18.2144C18.844 18.0613 18.8554 17.9072 18.8856 17.7612C18.9789 17.8039 19.066 17.8758 19.1412 17.973C19.2166 18.07 19.2788 18.1902 19.3241 18.3263C19.3694 18.4623 19.3968 18.6115 19.4047 18.7649C19.4126 18.9183 19.401 19.0725 19.3703 19.2184Z" fill="#002026"/>
<path d="M33.2481 14.8463C33.788 13.7254 31.9725 13.3917 31.9725 13.3892C31.9725 13.3892 31.4367 14.5152 33.2481 14.8463Z" fill="#002026"/>
<path d="M10.3561 23.5894C12.2311 24.4718 11.4337 26.4842 11.4158 26.5036C11.4158 26.5036 9.53719 25.6096 10.3561 23.5894Z" fill="#002026"/>
<path d="M26.6602 19.2173C26.5472 19.2743 26.4451 19.3575 26.3596 19.462C26.2741 19.5666 26.2071 19.6904 26.1625 19.8261C26.1179 19.9619 26.0966 20.1069 26.1 20.2526C26.1032 20.3982 26.131 20.5417 26.1817 20.6744C26.2946 20.6175 26.3968 20.5342 26.4823 20.4297C26.5678 20.3251 26.6348 20.2014 26.6794 20.0656C26.724 19.9298 26.7453 19.7848 26.742 19.6391C26.7387 19.4935 26.7109 19.35 26.6602 19.2173Z" fill="#002026"/>
<path d="M13.1963 17.7604C13.3201 17.6934 13.4292 17.6019 13.5169 17.4915C13.6046 17.381 13.6692 17.254 13.7068 17.1178C13.7443 16.9817 13.754 16.8394 13.7353 16.6994C13.7167 16.5594 13.6701 16.4246 13.5981 16.3032C13.4744 16.3702 13.3653 16.4617 13.2776 16.572C13.1898 16.6824 13.1251 16.8094 13.0873 16.9454C13.0495 17.0813 13.0394 17.2237 13.0576 17.3637C13.0758 17.5037 13.1219 17.6387 13.1932 17.7604H13.1963Z" fill="#002026"/>
<path d="M33.769 26.5035C35.6228 25.9262 34.4122 25.0546 34.4005 25.0464C34.4005 25.0464 32.541 25.6293 33.769 26.5035Z" fill="#002026"/>
<path d="M31.8938 23.5895C30.3508 23.4919 30.448 22.1444 30.4515 22.1323C30.4515 22.1323 32.0016 22.2329 31.8938 23.5864V23.5895Z" fill="#002026"/>
<path d="M37.6927 23.5895C36.1492 23.4933 36.2494 22.1526 36.2494 22.1323C36.2494 22.1323 37.7997 22.2343 37.6927 23.5895Z" fill="#002026"/>
<path d="M39.07 19.2174C39.539 18.0693 37.7716 17.7625 37.754 17.7603C37.754 17.7716 37.2886 18.9129 39.07 19.2174Z" fill="#002026"/>
<path d="M40.5894 25.0465C39.0467 24.9526 39.1499 23.6022 39.1499 23.5894C39.1499 23.5894 40.6999 23.6897 40.5931 25.0465H40.5894Z" fill="#002026"/>
<path d="M37.7049 26.5035C39.251 26.4066 39.1477 25.0592 39.1477 25.0464C39.1477 25.0464 37.5943 25.1497 37.7049 26.5035Z" fill="#002026"/>
<path d="M33.3496 27.9669C33.4757 29.5586 34.787 29.4142 34.7996 29.4142C34.7996 29.4142 34.6672 27.8187 33.3496 27.9707V27.9669Z" fill="#002026"/>
<path d="M28.999 23.5576C29.1614 23.6016 29.3287 23.6 29.4907 23.5531C29.6526 23.5061 29.806 23.4148 29.9415 23.2845C30.077 23.1543 30.1917 22.9879 30.279 22.7954C30.3662 22.6028 30.4241 22.388 30.449 22.1641C30.2865 22.1203 30.1192 22.1217 29.9573 22.1688C29.7952 22.2156 29.6419 22.3069 29.5064 22.4372C29.3709 22.5674 29.2561 22.7338 29.1689 22.9265C29.0816 23.119 29.0239 23.3337 28.999 23.5576Z" fill="#002026"/>
<path d="M39.1492 29.4272C39.026 31.0138 37.7119 30.8738 37.6992 30.87C37.6992 30.87 37.8288 29.2794 39.1492 29.4272Z" fill="#002026"/>
<path d="M42.0549 23.5895C43.6044 23.4898 43.4972 22.1452 43.4972 22.1323C43.4972 22.1323 41.9403 22.2417 42.0549 23.5895Z" fill="#002026"/>
<path d="M43.4586 25.0465C41.7586 24.816 42.0715 23.6012 42.0715 23.5894C42.0715 23.5894 43.7796 23.8258 43.4586 25.0465Z" fill="#002026"/>
<path d="M42.0476 26.596C42.0064 26.8388 41.9356 27.0653 41.8395 27.2618C41.7434 27.4584 41.6239 27.621 41.4885 27.7399C41.353 27.8587 41.2042 27.9313 41.0511 27.9534C40.898 27.9755 40.7437 27.9464 40.5977 27.868C40.6388 27.6252 40.7097 27.3987 40.8058 27.2022C40.9019 27.0056 41.0213 26.8429 41.1569 26.7239C41.2923 26.6051 41.4411 26.5325 41.5942 26.5106C41.7474 26.4885 41.9015 26.5176 42.0476 26.596Z" fill="#002026"/>
<path d="M40.9727 27.9604C39.8189 28.8614 41.6938 29.412 41.711 29.4176C41.711 29.4176 42.8359 28.5166 40.9727 27.9604Z" fill="#002026"/>
<path d="M41.8477 23.5897C39.9699 22.7074 40.7664 20.6947 40.7664 20.6754C40.7845 20.6754 42.6515 21.5695 41.8477 23.5897Z" fill="#002026"/>
<path d="M31.9919 17.7604C32.1085 17.7042 32.2141 17.6215 32.3025 17.517C32.3907 17.4125 32.4599 17.2886 32.5057 17.1525C32.5515 17.0165 32.5731 16.8711 32.5691 16.7251C32.5652 16.5792 32.5359 16.4357 32.4828 16.3032C32.3645 16.3569 32.257 16.4382 32.1673 16.5423C32.0774 16.6462 32.0073 16.7706 31.9611 16.9076C31.9151 17.0445 31.894 17.1909 31.8992 17.3377C31.9046 17.4845 31.9361 17.6284 31.9919 17.7604Z" fill="#002026"/>
<path d="M26.0991 51.2749C20.9371 51.2749 15.8912 49.7794 11.5992 46.9774C7.30725 44.1754 3.96206 40.1928 1.98668 35.5334C0.0113083 30.8738 -0.50554 25.7466 0.501498 20.8001C1.50853 15.8536 3.99423 11.31 7.64425 7.74369C11.2943 4.17745 15.9447 1.74881 21.0074 0.764889C26.0701 -0.219034 31.3178 0.285951 36.0868 2.21598C40.8557 4.14602 44.9318 7.41442 47.7997 11.6079C50.6675 15.8013 52.1981 20.7315 52.1981 25.7749C52.19 32.5355 49.4377 39.0169 44.5449 43.7974C39.6522 48.5778 33.0184 51.267 26.0991 51.2749ZM26.0991 2.67491C21.423 2.67491 16.8519 4.02971 12.9639 6.56796C9.07588 9.10623 6.04554 12.714 4.25609 16.935C2.46663 21.1559 1.99843 25.8005 2.91068 30.2815C3.82294 34.7625 6.07468 38.8785 9.38121 42.1091C12.6876 45.3396 16.9004 47.5397 21.4866 48.431C26.0728 49.3224 30.8266 48.865 35.1468 47.1165C39.4668 45.3681 43.1593 42.4074 45.7572 38.6085C48.3552 34.8098 49.7418 30.3436 49.7418 25.7749C49.7353 19.6504 47.2422 13.7785 42.8098 9.44773C38.3774 5.11705 32.3675 2.68127 26.0991 2.67491Z" fill="#002026"/>
<path d="M41.9258 43.0923C41.6134 42.7977 40.7981 42.7977 39.7641 42.8419C39.5736 42.8419 39.3392 42.8566 39.258 42.8419C38.8862 42.7064 38.0615 42.8772 37.921 42.942C37.2368 43.2631 36.9494 43.1777 36.8558 43.1246C36.3903 42.8624 35.325 42.889 34.947 42.9067C34.6721 42.7652 33.8662 42.4088 33.2757 42.6858C32.9446 42.8389 32.2136 42.8035 31.8387 42.7447C31.8387 42.7447 31.3671 42.6563 29.9394 42.3204H29.8957C28.4337 42.1761 27.1748 39.3748 26.9873 37.6074C26.8217 36.0432 27.3871 34.9886 27.7995 34.6616C29.0241 33.5953 29.1584 31.6541 29.1741 31.3183C29.3053 31.0885 30.1112 30.2961 30.5079 30.1724C30.9046 30.0486 31.6669 29.5509 32.6384 28.9116C32.9696 28.6936 33.2632 28.5051 33.3945 28.4255C33.7756 28.2106 35.3937 28.131 35.7592 28.2753L36.5933 28.5905L36.1466 27.857C35.8342 27.3533 35.0127 27.3475 34.241 27.4034C34.6484 26.944 34.9878 26.4347 35.25 25.8893L36.0872 24.1219L34.7315 25.5623C34.3856 25.9396 33.9994 26.2822 33.5788 26.5845C33.601 26.0425 33.7629 25.5137 34.0505 25.0439L34.6752 24.0276L33.6225 24.6491C32.9009 25.0734 32.7166 25.9983 32.5666 26.7406C32.5385 26.8849 32.5104 27.0352 32.4792 27.1531C32.3698 27.6185 31.542 28.1162 30.2361 28.4816C29.5021 28.6877 29.3302 28.5257 29.0897 28.2989C28.9616 28.1781 28.9773 27.754 29.071 27.4859C29.3427 26.8467 30.4299 26.0719 30.6048 26.1279C30.9972 26.2126 31.406 26.203 31.7934 26.1001C32.1809 25.9971 32.5349 25.8042 32.8227 25.5388L32.401 25.1087C32.1414 25.2534 31.8377 25.3115 31.5388 25.2736C31.8449 24.7562 32.2645 24.3063 32.7696 23.954C33.5884 23.5152 34.5178 23.2933 35.4593 23.3118L36.4215 23.4621L35.7311 22.8111C35.2219 22.3309 34.2348 22.5401 33.2789 22.7403C32.9833 22.8087 32.684 22.8618 32.3823 22.8994C32.2252 22.9265 32.0632 22.8959 31.9293 22.8139C31.8635 22.7553 31.8234 22.6754 31.8169 22.5902V22.5341C31.795 22.4369 31.8543 22.0923 32.8415 20.9759L33.4912 20.2424L32.5166 20.5045C32.3188 20.5505 32.1338 20.6365 31.9748 20.7566C31.8156 20.8766 31.6861 21.0278 31.595 21.1998H31.5794C31.5209 20.9423 31.4803 20.6815 31.4576 20.4191L31.3233 19.2173L30.8485 20.3337C30.7214 20.612 30.6865 20.9201 30.7485 21.2174C30.7882 22.061 30.7548 22.9063 30.6485 23.7449C30.4986 24.5932 29.3771 25.4209 29.2366 25.5123C29.1709 25.5446 29.0803 25.5653 29.0491 25.5418C28.9491 25.3502 28.9679 24.7258 28.9803 24.225C28.9803 24.0188 28.9803 23.8096 28.9803 23.6123C28.9803 23.0438 29.5583 22.3545 29.8707 21.9833L30.0112 21.8154L30.5673 21.1144L29.6739 21.3529C29.0491 21.5267 28.5743 22.1836 28.3118 22.6874C28.2366 22.7118 28.157 22.7218 28.0775 22.7167C27.9901 22.6333 27.9107 22.5425 27.8401 22.4457C27.7977 22.3903 27.7518 22.3372 27.7026 22.2867L27.5684 22.163L27.7089 22.0392L28.0994 21.671L27.5652 21.5444C26.9405 21.3971 24.9661 23.135 24.7787 23.3707C24.738 23.4208 24.5569 23.5858 23.904 23.5976C23.726 23.4944 23.2042 23.0673 22.8825 22.8051C22.5045 22.5106 22.3295 22.3545 22.2264 22.2896C22.2146 22.2135 22.2146 22.1361 22.2264 22.0599L22.4608 20.9553L21.6923 21.8065C21.6039 21.9045 21.5303 22.0135 21.4736 22.1306L20.8488 22.5253C20.5739 22.6991 20.4428 23.085 20.4365 23.7449C20.1584 23.5504 19.7648 23.3413 19.468 23.4355C19.3623 23.4405 19.2566 23.4275 19.1557 23.3972L19.0307 23.3501C18.961 23.3186 18.8821 23.3102 18.8067 23.3263C18.7313 23.3423 18.6639 23.3818 18.6152 23.4385L18.4809 23.6123L18.6152 23.786C18.7074 23.8726 18.8248 23.9311 18.9526 23.954C19.3484 24.1266 19.7217 24.3421 20.0647 24.5962C20.1897 24.7994 20.121 25.8893 20.0959 26.2457C20.0959 26.4195 20.0772 26.558 20.0772 26.6375C20.074 26.6787 20.074 26.7201 20.0772 26.7612C19.6589 26.5871 19.3247 26.272 19.14 25.8775C18.8807 24.3192 18.0498 23.6888 17.7905 23.6359L17.5531 23.6034L17.45 23.7949C17.4193 23.8533 17.4085 23.9191 17.4192 23.9835C17.4298 24.0479 17.4613 24.1075 17.5094 24.1542C17.8458 24.613 17.9812 25.1766 17.8874 25.7273C16.9845 25.7067 16.1223 25.7567 15.9099 26.2575L15.6975 26.7583L16.2598 26.6552C17.7437 26.3901 18.9339 27.1559 19.0932 27.4505C18.509 28.1781 18.1061 28.1988 17.7811 28.2134C17.5746 28.205 17.3704 28.2575 17.197 28.3637L16.7721 28.6583L17.2563 28.8616C17.9405 29.1561 18.6433 28.8616 19.1088 28.673C19.2361 28.6216 19.3692 28.584 19.5056 28.5611C21.5955 28.3784 23.0824 30.4434 23.4885 31.0826C24.4007 32.5113 23.6385 34.3229 23.3729 34.8649C23.0499 35.7772 22.5488 36.6244 21.8954 37.3628C21.5351 37.706 21.314 38.1573 21.2705 38.6384C21.1432 39.5672 20.9342 40.4845 20.6458 41.3808C20.5208 41.5752 19.7086 42.8006 18.509 43.0097C17.4389 43.191 16.3387 43.1366 15.2946 42.8507C14.6979 42.6622 13.3078 42.8183 13.1515 42.8507C12.3048 42.964 11.469 43.1413 10.6523 43.3809L10.1494 43.537L10.5368 43.8758C14.3511 47.2074 18.2872 49.3577 26.1251 49.7938C26.3938 49.8084 26.6625 49.8173 26.931 49.8173C34.3035 49.8173 41.5885 44.3913 42.004 43.5223C42.0433 43.4526 42.057 43.3725 42.0428 43.2947C42.0287 43.2168 41.9876 43.1457 41.9258 43.0923ZM27.6527 23.5799C27.8027 24.6904 27.9183 25.9777 27.8558 26.231C27.7933 26.3135 27.659 26.3989 26.9561 26.181C26.3969 26.0042 26.35 25.3591 26.35 24.6551V23.951L25.8159 24.4518C24.7975 25.4033 25.9315 26.7112 26.6905 27.5654C26.8889 27.7767 27.0696 28.0022 27.2309 28.24C27.6745 28.9911 27.6558 31.2888 27.3059 31.5657C27.2245 31.6313 27.1367 31.6896 27.0436 31.7395C27.0184 31.73 26.9943 31.7181 26.9716 31.7042C26.8726 31.6553 26.7678 31.6178 26.6593 31.5922C26.5375 31.5244 26.425 31.0031 26.3875 30.8351C26.3688 30.7497 26.3532 30.6673 26.3344 30.6024C26.2126 30.14 25.1255 29.1296 24.9006 29.0382C24.9006 29.0382 24.5225 28.7702 24.5225 26.6375C24.5225 25.8481 24.9943 24.5048 27.1716 22.5135C27.1278 22.9053 27.4715 23.3677 27.6527 23.5799ZM39.3767 42.9214C39.3479 42.8949 39.314 42.8739 39.2767 42.8595C39.3148 42.8724 39.349 42.8936 39.3767 42.9214ZM21.3081 23.1586C21.2936 23.0532 21.301 22.9462 21.3299 22.8434L21.3893 22.6166V22.6549C21.4115 22.757 21.4595 22.8526 21.5291 22.9335C21.5986 23.0146 21.6878 23.0786 21.7891 23.1203C21.9235 23.1822 22.3389 23.4856 23.3511 24.9408L23.3885 24.9938C23.4937 25.3893 23.538 25.7971 23.5198 26.2045C23.4984 26.43 23.4103 26.6453 23.2656 26.826C23.121 27.0067 22.9254 27.1454 22.7013 27.2267C21.936 27.5536 21.208 26.2664 21.205 26.2664C21.1809 25.8711 21.2145 25.4747 21.3049 25.0881C21.4236 24.8141 21.4548 23.4355 21.3081 23.1586Z" fill="#002026"/>
</g>
<defs>
<clipPath id="clip0_1191_29131">
<rect width="236.341" height="51" fill="white" transform="translate(0 0.274902)"/>
</clipPath>
</defs>
</svg>
