<svg width="69" height="70" viewBox="0 0 69 70" fill="none" xmlns="http://www.w3.org/2000/svg">
<rect y="0.518066" width="69" height="69" rx="14" fill="#92CCBF" fill-opacity="0.2"/>
<rect x="21.7717" y="19.2685" width="26.3468" height="28.5979" fill="#1BC1BF"/>
<path d="M22.0817 17.9307H47.808C48.2925 17.9307 48.6852 18.3237 48.6852 18.8082V47.4084H50.5769C51.0614 47.4084 51.4545 47.8015 51.4545 48.286V52.1269C51.4545 52.6114 51.0614 53.0044 50.5769 53.0044H19.3128C18.8283 53.0044 18.4357 52.6114 18.4357 52.1269V48.286C18.4357 47.8015 18.8283 47.4084 19.3128 47.4084H21.2046V18.8082C21.2046 18.3237 21.5976 17.9307 22.0817 17.9307ZM22.2324 30.5096L48.1118 30.4586L48.0297 34.3509H22.2324V30.5096ZM26.526 22.9153H30.3669V26.7566H26.526V22.9153ZM39.5228 22.9153H43.3641V26.7566H39.5228V22.9153ZM33.0244 22.9153H36.8653V26.7566H33.0244V22.9153ZM37.5972 47.4084V39.8719H32.2925V47.4084H37.5972ZM29.2859 47.4084V37.7425C29.2859 37.2584 29.6789 36.8653 30.1635 36.8653H39.7267C40.2108 36.8653 40.6038 37.2584 40.6038 37.7425V47.4084H46.9305V19.6854H22.9593V47.4084H29.2859ZM20.1899 49.1631V51.2497H49.6998V49.1631C39.8632 49.1631 30.0266 49.1631 20.1899 49.1631Z" fill="#102E34" stroke="#102E34" stroke-width="0.625943"/>
</svg>
