<svg width="218" height="330" viewBox="0 0 218 330" fill="none" xmlns="http://www.w3.org/2000/svg">
<mask id="mask0_1190_29255" style="mask-type:alpha" maskUnits="userSpaceOnUse" x="5" y="0" width="208" height="329">
<rect x="5.5" y="0.295654" width="206.754" height="328.375" rx="10.8107" fill="white"/>
</mask>
<g mask="url(#mask0_1190_29255)">
<rect x="-56.6611" y="-1.05518" width="330.708" height="330.708" fill="#1BC1BF"/>
</g>
<g clip-path="url(#clip0_1190_29255)">
<path d="M163.614 69.0891C163.271 68.9897 162.923 68.5811 162.85 68.1911C162.802 67.9371 162.86 67.7609 163.224 67.0568C164.695 64.2117 165.334 61.5935 165.334 58.4155C165.334 55.3442 164.768 52.9546 163.362 50.0904C163.06 49.4756 162.813 48.9047 162.813 48.8221C162.813 48.5174 163.068 48.0755 163.344 47.9022C163.723 47.6645 164.358 47.709 164.661 47.9942C164.778 48.1038 165.082 48.6018 165.335 49.1005C166.341 51.0757 167.031 53.2428 167.371 55.4985C167.582 56.8944 167.623 59.5401 167.455 60.818C167.145 63.1755 166.523 65.2789 165.526 67.3396C164.924 68.5853 164.546 69.0977 164.23 69.0977C164.166 69.0977 164.063 69.1134 164 69.1328C163.937 69.1519 163.763 69.1323 163.614 69.0891ZM159.52 66.9474C158.994 66.7941 158.614 66.1481 158.766 65.664C158.803 65.5468 159.051 65.0069 159.317 64.4643C160.443 62.167 160.912 59.7042 160.682 57.2862C160.494 55.2994 160.138 54.0464 159.241 52.2131C158.639 50.9831 158.611 50.7924 158.961 50.2972C159.294 49.8263 160.124 49.75 160.56 50.1501C160.862 50.4274 161.803 52.3912 162.166 53.5033C163.367 57.1838 163.184 61.1346 161.644 64.7502C160.856 66.6023 160.302 67.1749 159.52 66.9474ZM155.299 64.7754C154.973 64.6287 154.693 64.2847 154.617 63.9379C154.57 63.7266 154.65 63.4929 155.037 62.7111C156.454 59.8394 156.47 57.0734 155.083 54.2685C154.474 53.0366 154.461 52.7914 154.976 52.3056C155.23 52.0658 155.338 52.0235 155.695 52.0235C156.294 52.0235 156.604 52.3243 157.139 53.4232C157.962 55.1134 158.299 56.5797 158.296 58.4584C158.293 60.3894 157.978 61.715 157.099 63.4974C156.596 64.5179 156.347 64.7873 155.843 64.8564C155.689 64.8775 155.444 64.841 155.299 64.7754ZM151.359 62.7523C151.101 62.6456 150.807 62.2948 150.72 61.9899C150.622 61.6491 150.702 61.3787 151.089 60.7424C151.587 59.924 151.702 59.4849 151.702 58.4153C151.702 57.3459 151.587 56.9066 151.089 56.0883C150.92 55.8108 150.751 55.4784 150.712 55.3495C150.552 54.8102 151.002 54.1492 151.605 54.036C152.117 53.9399 152.468 54.1683 152.939 54.9027C154.301 57.0292 154.301 59.8698 152.938 61.9782C152.458 62.7221 151.921 62.985 151.359 62.7523Z" fill="black"/>
</g>
<rect x="141.984" y="37.1195" width="41.8914" height="29.7294" rx="5.06751" transform="rotate(90 141.984 37.1195)" fill="url(#paint0_linear_1190_29255)" stroke="#47453F" stroke-width="0.675668"/>
<path fill-rule="evenodd" clip-rule="evenodd" d="M142.224 63.9072L136.382 58.065L142.224 52.2229L141.746 51.7451L135.764 57.7272H132.525V36.7815H131.85V51.6461H122.39V36.7815H121.714V57.7272H118.476L112.494 51.7451L112.016 52.2229L117.858 58.065L112.016 63.9072L112.494 64.3849L118.476 58.4029H121.714V79.3486H122.39V64.4839H131.849V79.3486H132.525V64.1461C132.525 63.9595 132.374 63.8083 132.187 63.8083H122.39V58.065V52.3218H131.85V58.065C131.85 58.2516 132.001 58.4029 132.188 58.4029H135.764L141.746 64.3849L142.224 63.9072Z" fill="#47453F"/>
<path d="M167.947 288.105H182.183V314.261H167.947V288.105Z" fill="#FF5F00"/>
<path d="M168.852 301.184C168.852 295.87 171.293 291.156 175.043 288.106C172.287 285.888 168.807 284.547 165.011 284.547C156.017 284.547 148.741 291.988 148.741 301.184C148.741 310.38 156.017 317.82 165.011 317.82C168.807 317.82 172.287 316.48 175.043 314.262C171.293 311.258 168.852 306.498 168.852 301.184Z" fill="#EB001B"/>
<path d="M201.39 301.184C201.39 310.38 194.114 317.82 185.121 317.82C181.324 317.82 177.845 316.48 175.088 314.262C178.884 311.212 181.279 306.498 181.279 301.184C181.279 295.869 178.839 291.156 175.088 288.106C177.844 285.887 181.324 284.547 185.121 284.547C194.114 284.547 201.39 292.034 201.39 301.184H201.39Z" fill="#F79E1B"/>
<path d="M81.0305 165.793H87.6954V163.035H81.0305V159.196H88.3407V156.438H77.9971V172.527H88.4774V169.769H81.0305V165.793Z" fill="#002026"/>
<path d="M96.708 156.438H90.0869V159.105H92.2052V169.86H90.0906V172.527H96.708C98.8689 172.527 100.51 171.981 101.63 170.887C102.751 169.793 103.316 168.164 103.325 165.999V162.966C103.325 160.805 102.762 159.177 101.636 158.082C100.509 156.987 98.8664 156.439 96.708 156.438ZM100.294 166.1C100.294 167.263 100.01 168.166 99.4425 168.81C98.8749 169.454 97.9817 169.774 96.7627 169.769H95.246V159.196H96.7627C97.978 159.196 98.8713 159.514 99.4425 160.149C100.014 160.785 100.297 161.693 100.294 162.873V166.1Z" fill="#002026"/>
<path d="M107.978 165.793H114.643V163.035H107.978V159.196H115.286V156.438H104.944V172.527H115.425V169.769H107.978V165.793Z" fill="#002026"/>
<path d="M126.327 170.458H125.913L122.717 156.438H116.947V172.527H119.937V158.507H120.349L123.545 172.527H129.314V156.438H126.327V170.458Z" fill="#002026"/>
<path d="M140.594 163.954C139.631 163.536 138.627 163.22 137.599 163.012L137.07 162.897C136.526 162.79 135.995 162.628 135.484 162.414C135.12 162.267 134.799 162.03 134.552 161.725C134.34 161.431 134.231 161.075 134.242 160.713C134.231 160.442 134.285 160.173 134.399 159.927C134.513 159.681 134.685 159.466 134.899 159.3C135.334 158.955 136.011 158.783 136.931 158.783C137.472 158.771 138.01 158.86 138.517 159.047C138.939 159.205 139.298 159.495 139.54 159.874C139.8 160.324 139.926 160.838 139.905 161.357V162.046H142.885V161.357C142.885 160.194 142.629 159.224 142.116 158.449C141.598 157.672 140.862 157.065 140.001 156.702C139.029 156.298 137.984 156.098 136.931 156.117C135.904 156.094 134.882 156.286 133.933 156.679C133.13 157.012 132.441 157.57 131.947 158.285C131.464 159.034 131.22 159.912 131.245 160.802C131.245 161.783 131.456 162.58 131.878 163.192C132.343 163.84 132.972 164.352 133.701 164.674C134.61 165.089 135.562 165.402 136.539 165.606L137.068 165.721C137.665 165.847 138.252 166.012 138.827 166.215C139.24 166.352 139.615 166.584 139.921 166.893C140.181 167.191 140.317 167.577 140.3 167.972C140.306 168.279 140.239 168.582 140.105 168.858C139.971 169.133 139.773 169.373 139.529 169.558C139.017 169.971 138.24 170.179 137.197 170.18C136.155 170.181 135.342 169.938 134.76 169.451C134.162 168.965 133.864 168.24 133.865 167.278V166.643H130.875V167.287C130.844 168.34 131.125 169.38 131.681 170.275C132.226 171.111 133 171.773 133.911 172.183C135.992 173.058 138.336 173.071 140.426 172.218C141.28 171.844 142.013 171.239 142.541 170.47C143.046 169.704 143.306 168.802 143.288 167.885C143.288 166.904 143.05 166.099 142.575 165.471C142.053 164.806 141.372 164.285 140.594 163.954Z" fill="#002026"/>
<path d="M154.051 163.644C153.208 163.287 152.3 163.11 151.386 163.126H150.12V162.897L156.579 158.507V156.438H145.546V157.725H155.155V157.954L148.627 162.392V164.322H150.997C151.712 164.314 152.422 164.435 153.094 164.678C153.693 164.89 154.22 165.269 154.61 165.771C154.986 166.258 155.174 166.901 155.174 167.702V167.841C155.189 168.337 155.099 168.83 154.91 169.29C154.722 169.749 154.439 170.163 154.08 170.506C153.351 171.212 152.324 171.564 150.999 171.563C149.674 171.562 148.618 171.191 147.829 170.449C147.016 169.705 146.609 168.683 146.609 167.381V166.918H145.186V167.356C145.186 168.52 145.434 169.512 145.931 170.333C146.419 171.144 147.135 171.795 147.989 172.205C148.926 172.647 149.952 172.867 150.988 172.848C152.011 172.872 153.026 172.66 153.954 172.228C154.76 171.852 155.44 171.251 155.914 170.498C156.385 169.711 156.624 168.807 156.603 167.89V167.655C156.603 166.659 156.373 165.828 155.914 165.161C155.449 164.489 154.803 163.963 154.051 163.644Z" fill="#002026"/>
<path d="M165.727 162.609C164.901 162.166 163.976 161.941 163.039 161.955C161.845 161.955 160.907 162.173 160.224 162.609C159.628 162.962 159.127 163.455 158.765 164.046H158.49V161.587C158.49 160.285 158.862 159.262 159.604 158.519C160.347 157.775 161.392 157.403 162.741 157.405C164.06 157.405 165.06 157.726 165.742 158.369C166.424 159.012 166.765 159.863 166.765 160.921H168.189C168.202 160.068 167.988 159.227 167.569 158.484C167.135 157.744 166.496 157.146 165.729 156.761C164.919 156.331 163.923 156.116 162.741 156.118C161.56 156.119 160.541 156.349 159.684 156.807C158.86 157.248 158.184 157.924 157.743 158.748C157.268 159.676 157.035 160.708 157.063 161.749V167.426C157.034 168.449 157.293 169.459 157.81 170.342C158.295 171.144 158.999 171.79 159.839 172.206C160.734 172.629 161.711 172.849 162.701 172.849C163.691 172.849 164.669 172.629 165.563 172.206C166.395 171.793 167.096 171.157 167.585 170.368C168.098 169.516 168.358 168.535 168.333 167.541V167.265C168.359 166.28 168.117 165.307 167.633 164.449C167.177 163.673 166.519 163.037 165.727 162.609ZM166.9 167.517C166.9 168.775 166.509 169.763 165.727 170.483C164.946 171.202 163.935 171.562 162.694 171.562C161.453 171.562 160.442 171.202 159.661 170.483C158.879 169.763 158.488 168.775 158.488 167.517V167.335C158.469 166.569 158.658 165.813 159.035 165.147C159.388 164.541 159.901 164.045 160.517 163.71C161.196 163.369 161.945 163.191 162.705 163.191C163.465 163.191 164.214 163.369 164.893 163.71C165.509 164.045 166.021 164.541 166.375 165.147C166.751 165.813 166.94 166.569 166.922 167.335L166.9 167.517Z" fill="#002026"/>
<path d="M178.933 157.759C177.883 156.666 176.453 156.119 174.645 156.119C172.837 156.119 171.408 156.666 170.359 157.759C169.309 158.853 168.784 160.481 168.784 162.643V166.322C168.784 168.482 169.309 170.109 170.359 171.206C171.409 172.302 172.838 172.849 174.645 172.846C176.453 172.846 177.883 172.299 178.933 171.206C179.983 170.112 180.507 168.484 180.506 166.322V162.643C180.506 160.483 179.982 158.856 178.933 157.759ZM179.082 166.413C179.082 168.023 178.71 169.284 177.967 170.194C177.223 171.104 176.116 171.56 174.645 171.561C173.173 171.561 172.066 171.105 171.324 170.194C170.581 169.282 170.21 168.022 170.21 166.413V162.552C170.21 160.943 170.581 159.683 171.324 158.771C172.066 157.86 173.173 157.404 174.645 157.404C176.116 157.404 177.223 157.86 177.967 158.771C178.71 159.683 179.082 160.943 179.082 162.552V166.413Z" fill="#002026"/>
<path d="M53.0113 148.987C50.73 148.988 48.4772 149.493 46.4135 150.466C44.3499 151.438 42.5265 152.854 41.0734 154.613C39.6203 156.372 38.5735 158.429 38.0077 160.639C37.4418 162.849 37.3709 165.157 37.8 167.397C38.2292 169.638 39.1477 171.756 40.4901 173.601C41.8325 175.445 43.5656 176.971 45.5656 178.068C47.5656 179.165 49.7833 179.807 52.0602 179.948C54.3371 180.09 56.6171 179.726 58.7373 178.884C58.8102 178.857 58.8795 178.828 58.9488 178.799C62.2615 177.426 64.9958 174.948 66.6857 171.786C68.3755 168.623 68.9164 164.973 68.216 161.456C67.5156 157.939 65.6173 154.775 62.8448 152.501C60.0722 150.227 56.5969 148.986 53.0113 148.987ZM55.1533 177.791C54.9629 177.807 54.7714 177.807 54.5809 177.791H54.4551C54.3807 177.788 54.3092 177.761 54.252 177.714C54.1948 177.666 54.1553 177.601 54.1397 177.528C53.9574 176.584 53.7751 170.965 53.8262 170.699C53.9173 170.267 54.8489 166.34 54.7103 165.959L54.5736 165.595L54.5426 165.985C54.5262 166.176 53.7624 166.966 53.571 166.986C53.5436 166.986 53.5199 166.92 53.5126 166.9V166.88L53.4962 166.864C53.3504 166.718 53.5746 165.843 53.7223 165.265C53.9246 164.475 53.9848 164.191 53.8718 164.085C53.8524 164.069 53.829 164.058 53.8039 164.054C53.7789 164.05 53.7532 164.052 53.7296 164.062L53.6567 164.087L53.6731 164.162C53.6795 164.469 53.5832 164.77 53.3996 165.017C53.3791 165.047 53.3522 165.073 53.3207 165.092C53.2892 165.111 53.2539 165.123 53.2173 165.126C52.9913 164.993 53.1389 162.536 53.3759 161.633V161.566L53.323 161.531C53.2902 161.508 53.2518 161.494 53.2118 161.491C53.1718 161.487 53.1315 161.494 53.0952 161.511C52.7524 161.668 52.5683 162.787 52.4079 163.901C52.3897 164.02 52.3733 164.142 52.3587 164.233C52.1764 164.04 51.9777 163.868 51.8118 163.868C51.7729 163.873 51.7359 163.887 51.704 163.91C51.6721 163.932 51.6465 163.963 51.6295 163.998L51.5967 164.058L51.6459 164.104C52.2511 164.674 52.1709 166.989 52.1016 167.914C51.9193 167.42 51.5949 166.647 51.3724 166.548C51.3444 166.535 51.3131 166.531 51.2826 166.536C51.252 166.54 51.2237 166.554 51.2011 166.575L51.0753 166.685L51.2357 166.721C51.3925 166.82 51.6732 168.223 51.7699 170.289C51.8738 172.56 51.7589 176.653 51.686 177.142C51.6154 177.377 51.5295 177.608 51.429 177.832C51.4089 177.878 51.3925 177.918 51.3797 177.949C51.2509 177.943 51.1238 177.918 51.0024 177.874C50.8075 177.812 50.6011 177.795 50.3985 177.823C50.196 177.852 50.0024 177.925 49.832 178.038C47.2829 177.437 44.9549 176.13 43.1147 174.266C41.2744 172.403 39.9966 170.058 39.4276 167.502C38.8585 164.945 39.0213 162.28 39.8974 159.812C40.7734 157.344 42.3272 155.173 44.3806 153.547C46.4339 151.921 48.9039 150.907 51.5072 150.621C54.1105 150.334 56.7418 150.787 59.0995 151.928C61.4573 153.068 63.446 154.85 64.8377 157.068C66.2293 159.287 66.9677 161.853 66.9681 164.472C66.9794 167.633 65.9025 170.702 63.9183 173.164C61.984 175.584 59.3025 177.295 56.2927 178.029C56.2362 177.984 56.1778 177.938 56.1104 177.896C55.7841 177.674 55.5197 177.537 55.1533 177.791Z" fill="#002026"/>
<path d="M52.9822 156.644C52.4024 157.072 51.5693 158.132 51.5693 159.174C51.5693 160.217 52.2019 161.202 52.9822 161.202H53.0405C52.7889 160.523 52.8965 159.379 52.8965 159.379C52.9124 159.996 53.0074 160.608 53.179 161.202C53.8663 161.052 54.395 160.144 54.395 159.196C54.395 158.132 53.5582 157.072 52.9822 156.644Z" fill="#002026"/>
<path d="M49.2906 164.468C49.9035 164.484 50.516 164.423 51.1136 164.286C51.006 163.593 50.1328 163.025 49.183 162.963C48.1403 162.904 47.0356 163.677 46.5762 164.239C46.9718 164.84 47.9835 165.732 49.0263 165.79C50.069 165.848 51.0881 165.263 51.1318 164.483C51.1318 164.463 51.1318 164.443 51.1318 164.425C50.4373 164.64 49.2906 164.468 49.2906 164.468Z" fill="#002026"/>
<path d="M45.4893 163.004C46.3753 163.237 47.3542 162.92 47.5293 162.26C47.5293 162.242 47.5293 162.225 47.5402 162.207C46.9058 162.269 45.9505 161.921 45.9505 161.921C46.4759 162.045 47.0151 162.101 47.5548 162.087C47.5821 161.471 46.9295 160.811 46.1201 160.607C45.2341 160.375 44.1494 160.845 43.6572 161.241C43.896 161.828 44.6034 162.77 45.4893 163.004Z" fill="#002026"/>
<path d="M50.4229 159.991L50.4648 159.971C50.0765 159.56 49.7976 158.722 49.7976 158.722C49.998 159.154 50.2529 159.558 50.5559 159.925C50.9934 159.61 51.0882 158.806 50.7947 158.133C50.4757 157.404 49.5624 156.906 49.0228 156.782C48.7439 157.262 48.4759 158.264 48.8022 159.001C49.1285 159.737 49.8741 160.231 50.4229 159.991Z" fill="#002026"/>
<path d="M47.2307 166.225C46.8004 166.59 45.9363 166.805 45.9363 166.805C46.3776 166.632 46.7948 166.402 47.1778 166.123C46.8934 165.664 46.0986 165.516 45.4059 165.759C44.6493 166.027 44.0969 166.903 43.9365 167.434C44.3959 167.744 45.3785 168.074 46.135 167.798C46.8916 167.523 47.444 166.816 47.2434 166.251L47.2307 166.225Z" fill="#002026"/>
<path d="M50.9937 160.815C50.3228 160.476 49.3712 160.667 48.9082 160.901C49.0012 161.413 49.4059 162.295 50.0767 162.631C50.7476 162.966 51.588 162.882 51.8414 162.383C51.8479 162.37 51.8534 162.357 51.8578 162.343C51.3382 162.284 50.6419 161.841 50.6419 161.841C51.0421 162.03 51.4648 162.168 51.8997 162.25C52.0182 161.759 51.6062 161.125 50.9937 160.815Z" fill="#002026"/>
<path d="M50.6047 166.885C50.3452 167.088 50.0522 167.244 49.7388 167.346C50.0362 167.208 50.3143 167.031 50.5664 166.821C50.3477 166.517 49.7917 166.457 49.325 166.657C48.8145 166.88 48.4755 167.514 48.3916 167.888C48.7234 168.07 49.4179 168.252 49.9284 168.037C50.4388 167.822 50.7852 167.293 50.6193 166.912C50.6138 166.903 50.6102 166.892 50.6047 166.885Z" fill="#002026"/>
<path d="M48.5139 160.505L48.5339 160.478C48.225 160.329 47.9448 160.127 47.7063 159.881C47.9722 160.095 48.2644 160.274 48.5759 160.414C48.7582 160.069 48.5649 159.521 48.162 159.178C47.7209 158.813 46.9734 158.777 46.5852 158.868C46.5578 159.265 46.7073 159.998 47.1485 160.372C47.5896 160.746 48.235 160.837 48.5139 160.505Z" fill="#002026"/>
<path d="M45.7718 164.393C45.7727 164.382 45.7727 164.371 45.7718 164.36C45.4377 164.437 45.0928 164.454 44.7527 164.411C45.0941 164.413 45.4342 164.37 45.7645 164.284C45.6916 163.901 45.1975 163.595 44.6707 163.578C44.0928 163.564 43.4912 164.008 43.2451 164.322C43.4748 164.65 44.0491 165.128 44.6269 165.144C45.2048 165.16 45.759 164.825 45.7718 164.393Z" fill="#002026"/>
<path d="M56.9987 165.782C58.0414 165.724 59.0514 164.832 59.447 164.231C58.9876 163.684 57.8828 162.904 56.8401 162.955C55.8885 163.008 55.0171 163.586 54.9004 164.28C55.4981 164.417 56.1105 164.478 56.7234 164.462C56.7234 164.462 55.5768 164.634 54.8822 164.42C54.8804 164.44 54.8804 164.459 54.8822 164.479C54.9332 165.263 55.9559 165.841 56.9987 165.782Z" fill="#002026"/>
<path d="M58.4657 162.087C59.0053 162.101 59.5445 162.045 60.0699 161.921C60.0699 161.921 59.1165 162.269 58.4821 162.207C58.484 162.225 58.4876 162.243 58.493 162.26C58.6753 162.92 59.6451 163.237 60.5311 163.004C61.4171 162.77 62.1299 161.828 62.3632 161.241C61.871 160.845 60.7863 160.375 59.9004 160.607C59.091 160.82 58.4383 161.471 58.4657 162.087Z" fill="#002026"/>
<path d="M55.4668 159.925C55.7684 159.56 56.0227 159.159 56.2233 158.731C56.2233 158.731 55.9444 159.56 55.5634 159.97L55.6035 159.991C56.1504 160.231 56.9033 159.728 57.2242 158.992C57.545 158.255 57.2825 157.252 57.0054 156.773C56.4585 156.897 55.547 157.387 55.2316 158.124C54.9327 158.796 55.0275 159.6 55.4668 159.925Z" fill="#002026"/>
<path d="M60.6115 165.77C59.9205 165.524 59.1257 165.671 58.8413 166.134C59.2252 166.411 59.643 166.638 60.0846 166.809C60.0846 166.809 59.2205 166.588 58.7921 166.229C58.7853 166.243 58.7792 166.258 58.7739 166.273C58.5734 166.838 59.1257 167.549 59.8823 167.821C60.6388 168.092 61.6214 167.759 62.0808 167.456C61.9204 166.915 61.368 166.038 60.6115 165.77Z" fill="#002026"/>
<path d="M55.9445 162.63C56.6154 162.291 57.0256 161.412 57.1131 160.9C56.6573 160.667 55.6984 160.472 55.0276 160.814C54.415 161.124 54.003 161.759 54.1306 162.249C54.5662 162.167 54.9895 162.03 55.3903 161.841C55.3903 161.841 54.683 162.284 54.1635 162.342C54.1684 162.356 54.1745 162.369 54.1817 162.382C54.4351 162.882 55.2755 162.969 55.9445 162.63Z" fill="#002026"/>
<path d="M56.6953 166.657C56.2304 166.453 55.6744 166.517 55.4538 166.821C55.7059 167.031 55.9841 167.208 56.2815 167.346C55.9681 167.244 55.675 167.088 55.4155 166.885C55.4102 166.893 55.4059 166.903 55.4028 166.912C55.2351 167.293 55.5851 167.813 56.0919 168.037C56.5987 168.261 57.2969 168.079 57.6305 167.888C57.5448 167.514 57.2039 166.879 56.6953 166.657Z" fill="#002026"/>
<path d="M58.3163 159.881C58.0765 160.125 57.7958 160.325 57.4868 160.472L57.5087 160.499C57.7876 160.827 58.4329 160.741 58.8741 160.366C59.3152 159.99 59.4629 159.259 59.4374 158.862C59.0473 158.771 58.3017 158.798 57.8605 159.172C57.4576 159.515 57.2626 160.063 57.4467 160.408C57.7574 160.269 58.0495 160.092 58.3163 159.881Z" fill="#002026"/>
<path d="M61.3549 163.571C60.8262 163.588 60.3303 163.894 60.2611 164.277C60.5907 164.363 60.9302 164.406 61.271 164.404C60.931 164.447 60.586 164.43 60.252 164.353V164.386C60.2629 164.818 60.8207 165.154 61.4004 165.137C61.9801 165.121 62.5526 164.643 62.7804 164.315C62.5325 164.009 61.9327 163.571 61.3549 163.571Z" fill="#002026"/>
<path d="M81.0305 165.793H87.6954V163.035H81.0305V159.196H88.3407V156.438H77.9971V172.527H88.4774V169.769H81.0305V165.793Z" fill="#002026"/>
<path d="M96.708 156.438H90.0869V159.105H92.2052V169.86H90.0906V172.527H96.708C98.8689 172.527 100.51 171.981 101.63 170.887C102.751 169.793 103.316 168.164 103.325 165.999V162.966C103.325 160.805 102.762 159.177 101.636 158.082C100.509 156.987 98.8664 156.439 96.708 156.438ZM100.294 166.1C100.294 167.263 100.01 168.166 99.4425 168.81C98.8749 169.454 97.9817 169.774 96.7627 169.769H95.246V159.196H96.7627C97.978 159.196 98.8713 159.514 99.4425 160.149C100.014 160.785 100.297 161.693 100.294 162.873V166.1Z" fill="#002026"/>
<path d="M107.978 165.793H114.643V163.035H107.978V159.196H115.286V156.438H104.944V172.527H115.425V169.769H107.978V165.793Z" fill="#002026"/>
<path d="M126.327 170.458H125.913L122.717 156.438H116.947V172.527H119.937V158.507H120.349L123.545 172.527H129.314V156.438H126.327V170.458Z" fill="#002026"/>
<path d="M140.594 163.954C139.631 163.536 138.627 163.22 137.599 163.012L137.07 162.897C136.526 162.79 135.995 162.628 135.484 162.414C135.12 162.267 134.799 162.03 134.552 161.725C134.34 161.431 134.231 161.075 134.242 160.713C134.231 160.442 134.285 160.173 134.399 159.927C134.513 159.681 134.685 159.466 134.899 159.3C135.334 158.955 136.011 158.783 136.931 158.783C137.472 158.771 138.01 158.86 138.517 159.047C138.939 159.205 139.298 159.495 139.54 159.874C139.8 160.324 139.926 160.838 139.905 161.357V162.046H142.885V161.357C142.885 160.194 142.629 159.224 142.116 158.449C141.598 157.672 140.862 157.065 140.001 156.702C139.029 156.298 137.984 156.098 136.931 156.117C135.904 156.094 134.882 156.286 133.933 156.679C133.13 157.012 132.441 157.57 131.947 158.285C131.464 159.034 131.22 159.912 131.245 160.802C131.245 161.783 131.456 162.58 131.878 163.192C132.343 163.84 132.972 164.352 133.701 164.674C134.61 165.089 135.562 165.402 136.539 165.606L137.068 165.721C137.665 165.847 138.252 166.012 138.827 166.215C139.24 166.352 139.615 166.584 139.921 166.893C140.181 167.191 140.317 167.577 140.3 167.972C140.306 168.279 140.239 168.582 140.105 168.858C139.971 169.133 139.773 169.373 139.529 169.558C139.017 169.971 138.24 170.179 137.197 170.18C136.155 170.181 135.342 169.938 134.76 169.451C134.162 168.965 133.864 168.24 133.865 167.278V166.643H130.875V167.287C130.844 168.34 131.125 169.38 131.681 170.275C132.226 171.111 133 171.773 133.911 172.183C135.992 173.058 138.336 173.071 140.426 172.218C141.28 171.844 142.013 171.239 142.541 170.47C143.046 169.704 143.306 168.802 143.288 167.885C143.288 166.904 143.05 166.099 142.575 165.471C142.053 164.806 141.372 164.285 140.594 163.954Z" fill="#002026"/>
<path d="M154.051 163.644C153.208 163.287 152.3 163.11 151.386 163.126H150.12V162.897L156.579 158.507V156.438H145.546V157.725H155.155V157.954L148.627 162.392V164.322H150.997C151.712 164.314 152.422 164.435 153.094 164.678C153.693 164.89 154.22 165.269 154.61 165.771C154.986 166.258 155.174 166.901 155.174 167.702V167.841C155.189 168.337 155.099 168.83 154.91 169.29C154.722 169.749 154.439 170.163 154.08 170.506C153.351 171.212 152.324 171.564 150.999 171.563C149.674 171.562 148.618 171.191 147.829 170.449C147.016 169.705 146.609 168.683 146.609 167.381V166.918H145.186V167.356C145.186 168.52 145.434 169.512 145.931 170.333C146.419 171.144 147.135 171.795 147.989 172.205C148.926 172.647 149.952 172.867 150.988 172.848C152.011 172.872 153.026 172.66 153.954 172.228C154.76 171.852 155.44 171.251 155.914 170.498C156.385 169.711 156.624 168.807 156.603 167.89V167.655C156.603 166.659 156.373 165.828 155.914 165.161C155.449 164.489 154.803 163.963 154.051 163.644Z" fill="#002026"/>
<path d="M165.727 162.609C164.901 162.166 163.976 161.941 163.039 161.955C161.845 161.955 160.907 162.173 160.224 162.609C159.628 162.962 159.127 163.455 158.765 164.046H158.49V161.587C158.49 160.285 158.862 159.262 159.604 158.519C160.347 157.775 161.392 157.403 162.741 157.405C164.06 157.405 165.06 157.726 165.742 158.369C166.424 159.012 166.765 159.863 166.765 160.921H168.189C168.202 160.068 167.988 159.227 167.569 158.484C167.135 157.744 166.496 157.146 165.729 156.761C164.919 156.331 163.923 156.116 162.741 156.118C161.56 156.119 160.541 156.349 159.684 156.807C158.86 157.248 158.184 157.924 157.743 158.748C157.268 159.676 157.035 160.708 157.063 161.749V167.426C157.034 168.449 157.293 169.459 157.81 170.342C158.295 171.144 158.999 171.79 159.839 172.206C160.734 172.629 161.711 172.849 162.701 172.849C163.691 172.849 164.669 172.629 165.563 172.206C166.395 171.793 167.096 171.157 167.585 170.368C168.098 169.516 168.358 168.535 168.333 167.541V167.265C168.359 166.28 168.117 165.307 167.633 164.449C167.177 163.673 166.519 163.037 165.727 162.609ZM166.9 167.517C166.9 168.775 166.509 169.763 165.727 170.483C164.946 171.202 163.935 171.562 162.694 171.562C161.453 171.562 160.442 171.202 159.661 170.483C158.879 169.763 158.488 168.775 158.488 167.517V167.335C158.469 166.569 158.658 165.813 159.035 165.147C159.388 164.541 159.901 164.045 160.517 163.71C161.196 163.369 161.945 163.191 162.705 163.191C163.465 163.191 164.214 163.369 164.893 163.71C165.509 164.045 166.021 164.541 166.375 165.147C166.751 165.813 166.94 166.569 166.922 167.335L166.9 167.517Z" fill="#002026"/>
<path d="M178.933 157.759C177.883 156.666 176.453 156.119 174.645 156.119C172.837 156.119 171.408 156.666 170.359 157.759C169.309 158.853 168.784 160.481 168.784 162.643V166.322C168.784 168.482 169.309 170.109 170.359 171.206C171.409 172.302 172.838 172.849 174.645 172.846C176.453 172.846 177.883 172.299 178.933 171.206C179.983 170.112 180.507 168.484 180.506 166.322V162.643C180.506 160.483 179.982 158.856 178.933 157.759ZM179.082 166.413C179.082 168.023 178.71 169.284 177.967 170.194C177.223 171.104 176.116 171.56 174.645 171.561C173.173 171.561 172.066 171.105 171.324 170.194C170.581 169.282 170.21 168.022 170.21 166.413V162.552C170.21 160.943 170.581 159.683 171.324 158.771C172.066 157.86 173.173 157.404 174.645 157.404C176.116 157.404 177.223 157.86 177.967 158.771C178.71 159.683 179.082 160.943 179.082 162.552V166.413Z" fill="#002026"/>
<path d="M53.0113 148.987C50.73 148.988 48.4772 149.493 46.4135 150.466C44.3499 151.438 42.5265 152.854 41.0734 154.613C39.6203 156.372 38.5735 158.429 38.0077 160.639C37.4418 162.849 37.3709 165.157 37.8 167.397C38.2292 169.638 39.1477 171.756 40.4901 173.601C41.8325 175.445 43.5656 176.971 45.5656 178.068C47.5656 179.165 49.7833 179.807 52.0602 179.948C54.3371 180.09 56.6171 179.726 58.7373 178.884C58.8102 178.857 58.8795 178.828 58.9488 178.799C62.2615 177.426 64.9958 174.948 66.6857 171.786C68.3755 168.623 68.9164 164.973 68.216 161.456C67.5156 157.939 65.6173 154.775 62.8448 152.501C60.0722 150.227 56.5969 148.986 53.0113 148.987ZM55.1533 177.791C54.9629 177.807 54.7714 177.807 54.5809 177.791H54.4551C54.3807 177.788 54.3092 177.761 54.252 177.714C54.1948 177.666 54.1553 177.601 54.1397 177.528C53.9574 176.584 53.7751 170.965 53.8262 170.699C53.9173 170.267 54.8489 166.34 54.7103 165.959L54.5736 165.595L54.5426 165.985C54.5262 166.176 53.7624 166.966 53.571 166.986C53.5436 166.986 53.5199 166.92 53.5126 166.9V166.88L53.4962 166.864C53.3504 166.718 53.5746 165.843 53.7223 165.265C53.9246 164.475 53.9848 164.191 53.8718 164.085C53.8524 164.069 53.829 164.058 53.8039 164.054C53.7789 164.05 53.7532 164.052 53.7296 164.062L53.6567 164.087L53.6731 164.162C53.6795 164.469 53.5832 164.77 53.3996 165.017C53.3791 165.047 53.3522 165.073 53.3207 165.092C53.2892 165.111 53.2539 165.123 53.2173 165.126C52.9913 164.993 53.1389 162.536 53.3759 161.633V161.566L53.323 161.531C53.2902 161.508 53.2518 161.494 53.2118 161.491C53.1718 161.487 53.1315 161.494 53.0952 161.511C52.7524 161.668 52.5683 162.787 52.4079 163.901C52.3897 164.02 52.3733 164.142 52.3587 164.233C52.1764 164.04 51.9777 163.868 51.8118 163.868C51.7729 163.873 51.7359 163.887 51.704 163.91C51.6721 163.932 51.6465 163.963 51.6295 163.998L51.5967 164.058L51.6459 164.104C52.2511 164.674 52.1709 166.989 52.1016 167.914C51.9193 167.42 51.5949 166.647 51.3724 166.548C51.3444 166.535 51.3131 166.531 51.2826 166.536C51.252 166.54 51.2237 166.554 51.2011 166.575L51.0753 166.685L51.2357 166.721C51.3925 166.82 51.6732 168.223 51.7699 170.289C51.8738 172.56 51.7589 176.653 51.686 177.142C51.6154 177.377 51.5295 177.608 51.429 177.832C51.4089 177.878 51.3925 177.918 51.3797 177.949C51.2509 177.943 51.1238 177.918 51.0024 177.874C50.8075 177.812 50.6011 177.795 50.3985 177.823C50.196 177.852 50.0024 177.925 49.832 178.038C47.2829 177.437 44.9549 176.13 43.1147 174.266C41.2744 172.403 39.9966 170.058 39.4276 167.502C38.8585 164.945 39.0213 162.28 39.8974 159.812C40.7734 157.344 42.3272 155.173 44.3806 153.547C46.4339 151.921 48.9039 150.907 51.5072 150.621C54.1105 150.334 56.7418 150.787 59.0995 151.928C61.4573 153.068 63.446 154.85 64.8377 157.068C66.2293 159.287 66.9677 161.853 66.9681 164.472C66.9794 167.633 65.9025 170.702 63.9183 173.164C61.984 175.584 59.3025 177.295 56.2927 178.029C56.2362 177.984 56.1778 177.938 56.1104 177.896C55.7841 177.674 55.5197 177.537 55.1533 177.791Z" fill="#002026"/>
<path d="M52.9822 156.644C52.4024 157.072 51.5693 158.132 51.5693 159.174C51.5693 160.217 52.2019 161.202 52.9822 161.202H53.0405C52.7889 160.523 52.8965 159.379 52.8965 159.379C52.9124 159.996 53.0074 160.608 53.179 161.202C53.8663 161.052 54.395 160.144 54.395 159.196C54.395 158.132 53.5582 157.072 52.9822 156.644Z" fill="#002026"/>
<path d="M49.2906 164.468C49.9035 164.484 50.516 164.423 51.1136 164.286C51.006 163.593 50.1328 163.025 49.183 162.963C48.1403 162.904 47.0356 163.677 46.5762 164.239C46.9718 164.84 47.9835 165.732 49.0263 165.79C50.069 165.848 51.0881 165.263 51.1318 164.483C51.1318 164.463 51.1318 164.443 51.1318 164.425C50.4373 164.64 49.2906 164.468 49.2906 164.468Z" fill="#002026"/>
<path d="M45.4893 163.004C46.3753 163.237 47.3542 162.92 47.5293 162.26C47.5293 162.242 47.5293 162.225 47.5402 162.207C46.9058 162.269 45.9505 161.921 45.9505 161.921C46.4759 162.045 47.0151 162.101 47.5548 162.087C47.5821 161.471 46.9295 160.811 46.1201 160.607C45.2341 160.375 44.1494 160.845 43.6572 161.241C43.896 161.828 44.6034 162.77 45.4893 163.004Z" fill="#002026"/>
<path d="M50.4229 159.991L50.4648 159.971C50.0765 159.56 49.7976 158.722 49.7976 158.722C49.998 159.154 50.2529 159.558 50.5559 159.925C50.9934 159.61 51.0882 158.806 50.7947 158.133C50.4757 157.404 49.5624 156.906 49.0228 156.782C48.7439 157.262 48.4759 158.264 48.8022 159.001C49.1285 159.737 49.8741 160.231 50.4229 159.991Z" fill="#002026"/>
<path d="M47.2307 166.225C46.8004 166.59 45.9363 166.805 45.9363 166.805C46.3776 166.632 46.7948 166.402 47.1778 166.123C46.8934 165.664 46.0986 165.516 45.4059 165.759C44.6493 166.027 44.0969 166.903 43.9365 167.434C44.3959 167.744 45.3785 168.074 46.135 167.798C46.8916 167.523 47.444 166.816 47.2434 166.251L47.2307 166.225Z" fill="#002026"/>
<path d="M50.9937 160.815C50.3228 160.476 49.3712 160.667 48.9082 160.901C49.0012 161.413 49.4059 162.295 50.0767 162.631C50.7476 162.966 51.588 162.882 51.8414 162.383C51.8479 162.37 51.8534 162.357 51.8578 162.343C51.3382 162.284 50.6419 161.841 50.6419 161.841C51.0421 162.03 51.4648 162.168 51.8997 162.25C52.0182 161.759 51.6062 161.125 50.9937 160.815Z" fill="#002026"/>
<path d="M50.6047 166.885C50.3452 167.088 50.0522 167.244 49.7388 167.346C50.0362 167.208 50.3143 167.031 50.5664 166.821C50.3477 166.517 49.7917 166.457 49.325 166.657C48.8145 166.88 48.4755 167.514 48.3916 167.888C48.7234 168.07 49.4179 168.252 49.9284 168.037C50.4388 167.822 50.7852 167.293 50.6193 166.912C50.6138 166.903 50.6102 166.892 50.6047 166.885Z" fill="#002026"/>
<path d="M48.5139 160.505L48.5339 160.478C48.225 160.329 47.9448 160.127 47.7063 159.881C47.9722 160.095 48.2644 160.274 48.5759 160.414C48.7582 160.069 48.5649 159.521 48.162 159.178C47.7209 158.813 46.9734 158.777 46.5852 158.868C46.5578 159.265 46.7073 159.998 47.1485 160.372C47.5896 160.746 48.235 160.837 48.5139 160.505Z" fill="#002026"/>
<path d="M45.7718 164.393C45.7727 164.382 45.7727 164.371 45.7718 164.36C45.4377 164.437 45.0928 164.454 44.7527 164.411C45.0941 164.413 45.4342 164.37 45.7645 164.284C45.6916 163.901 45.1975 163.595 44.6707 163.578C44.0928 163.564 43.4912 164.008 43.2451 164.322C43.4748 164.65 44.0491 165.128 44.6269 165.144C45.2048 165.16 45.759 164.825 45.7718 164.393Z" fill="#002026"/>
<path d="M56.9987 165.782C58.0414 165.724 59.0514 164.832 59.447 164.231C58.9876 163.684 57.8828 162.904 56.8401 162.955C55.8885 163.008 55.0171 163.586 54.9004 164.28C55.4981 164.417 56.1105 164.478 56.7234 164.462C56.7234 164.462 55.5768 164.634 54.8822 164.42C54.8804 164.44 54.8804 164.459 54.8822 164.479C54.9332 165.263 55.9559 165.841 56.9987 165.782Z" fill="#002026"/>
<path d="M58.4657 162.087C59.0053 162.101 59.5445 162.045 60.0699 161.921C60.0699 161.921 59.1165 162.269 58.4821 162.207C58.484 162.225 58.4876 162.243 58.493 162.26C58.6753 162.92 59.6451 163.237 60.5311 163.004C61.4171 162.77 62.1299 161.828 62.3632 161.241C61.871 160.845 60.7863 160.375 59.9004 160.607C59.091 160.82 58.4383 161.471 58.4657 162.087Z" fill="#002026"/>
<path d="M55.4668 159.925C55.7684 159.56 56.0227 159.159 56.2233 158.731C56.2233 158.731 55.9444 159.56 55.5634 159.97L55.6035 159.991C56.1504 160.231 56.9033 159.728 57.2242 158.992C57.545 158.255 57.2825 157.252 57.0054 156.773C56.4585 156.897 55.547 157.387 55.2316 158.124C54.9327 158.796 55.0275 159.6 55.4668 159.925Z" fill="#002026"/>
<path d="M60.6115 165.77C59.9205 165.524 59.1257 165.671 58.8413 166.134C59.2252 166.411 59.643 166.638 60.0846 166.809C60.0846 166.809 59.2205 166.588 58.7921 166.229C58.7853 166.243 58.7792 166.258 58.7739 166.273C58.5734 166.838 59.1257 167.549 59.8823 167.821C60.6388 168.092 61.6214 167.759 62.0808 167.456C61.9204 166.915 61.368 166.038 60.6115 165.77Z" fill="#002026"/>
<path d="M55.9445 162.63C56.6154 162.291 57.0256 161.412 57.1131 160.9C56.6573 160.667 55.6984 160.472 55.0276 160.814C54.415 161.124 54.003 161.759 54.1306 162.249C54.5662 162.167 54.9895 162.03 55.3903 161.841C55.3903 161.841 54.683 162.284 54.1635 162.342C54.1684 162.356 54.1745 162.369 54.1817 162.382C54.4351 162.882 55.2755 162.969 55.9445 162.63Z" fill="#002026"/>
<path d="M56.6953 166.657C56.2304 166.453 55.6744 166.517 55.4538 166.821C55.7059 167.031 55.9841 167.208 56.2815 167.346C55.9681 167.244 55.675 167.088 55.4155 166.885C55.4102 166.893 55.4059 166.903 55.4028 166.912C55.2351 167.293 55.5851 167.813 56.0919 168.037C56.5987 168.261 57.2969 168.079 57.6305 167.888C57.5448 167.514 57.2039 166.879 56.6953 166.657Z" fill="#002026"/>
<path d="M58.3163 159.881C58.0765 160.125 57.7958 160.325 57.4868 160.472L57.5087 160.499C57.7876 160.827 58.4329 160.741 58.8741 160.366C59.3152 159.99 59.4629 159.259 59.4374 158.862C59.0473 158.771 58.3017 158.798 57.8605 159.172C57.4576 159.515 57.2626 160.063 57.4467 160.408C57.7574 160.269 58.0495 160.092 58.3163 159.881Z" fill="#002026"/>
<path d="M61.3549 163.571C60.8262 163.588 60.3303 163.894 60.2611 164.277C60.5907 164.363 60.9302 164.406 61.271 164.404C60.931 164.447 60.586 164.43 60.252 164.353V164.386C60.2629 164.818 60.8207 165.154 61.4004 165.137C61.9801 165.121 62.5526 164.643 62.7804 164.315C62.5325 164.009 61.9327 163.571 61.3549 163.571Z" fill="#002026"/>
<defs>
<linearGradient id="paint0_linear_1190_29255" x1="142.322" y1="37.1194" x2="185.565" y2="66.8488" gradientUnits="userSpaceOnUse">
<stop stop-color="#F7F1B4"/>
<stop offset="1" stop-color="#BEA475"/>
</linearGradient>
<clipPath id="clip0_1190_29255">
<rect width="16.9882" height="21.6214" fill="white" transform="translate(150.674 47.5923)"/>
</clipPath>
</defs>
</svg>
