<svg width="350" height="243" viewBox="0 0 350 243" fill="none" xmlns="http://www.w3.org/2000/svg">
<rect opacity="0.21" x="-35.5225" y="61.8635" width="420.107" height="331.328" rx="14.5586" fill="white"/>
<g filter="url(#filter0_d_1191_51100)">
<rect x="27.8408" y="31.2678" width="293.38" height="392.519" rx="7.1775" fill="white"/>
<rect x="28.2894" y="31.7164" width="292.483" height="391.622" rx="6.7289" stroke="#002026" stroke-opacity="0.1" stroke-width="0.897187"/>
</g>
<rect x="274.566" y="45.6223" width="28.71" height="28.71" rx="14.355" fill="#92CCBF" fill-opacity="0.1"/>
<path d="M294.305 55.4915L284.436 65.3605" stroke="#92CCBF" stroke-width="1.79437" stroke-linecap="round" stroke-linejoin="round"/>
<path d="M284.436 55.4915L294.305 65.3605" stroke="#92CCBF" stroke-width="1.79437" stroke-linecap="round" stroke-linejoin="round"/>
<path d="M54.1533 63.4122C52.9283 63.4122 51.9569 63.0676 51.2392 62.3786C50.5214 61.68 50.1626 60.6751 50.1626 59.364V57.0098C50.1626 55.6987 50.5214 54.6987 51.2392 54.0096C51.9569 53.311 52.9283 52.9617 54.1533 52.9617C55.3591 52.9617 56.2874 53.2967 56.9381 53.9666C57.5985 54.6365 57.9286 55.5504 57.9286 56.7084V56.7945H56.3926V56.6653C56.3926 55.9858 56.206 55.4308 55.8328 55.0001C55.4691 54.5695 54.9093 54.3542 54.1533 54.3542C53.3877 54.3542 52.7895 54.5886 52.3589 55.0575C51.9282 55.5169 51.7129 56.1581 51.7129 56.9811V59.3928C51.7129 60.2062 51.9282 60.8474 52.3589 61.3163C52.7895 61.7853 53.3877 62.0197 54.1533 62.0197C54.9093 62.0197 55.4691 61.8044 55.8328 61.3737C56.206 60.9335 56.3926 60.3785 56.3926 59.7086V59.4645H57.9286V59.6655C57.9286 60.8235 57.5985 61.7374 56.9381 62.4073C56.2874 63.0772 55.3591 63.4122 54.1533 63.4122ZM59.6882 63.2112V56.1342H61.1381V56.9668H61.3678C61.4826 56.6701 61.6644 56.4548 61.9133 56.3208C62.1716 56.1772 62.4875 56.1055 62.8607 56.1055H63.7076V57.4405H62.8033C62.3248 57.4405 61.9324 57.5745 61.6262 57.8424C61.3199 58.1008 61.1668 58.5027 61.1668 59.0482V63.2112H59.6882ZM68.2315 63.4122C67.5137 63.4122 66.8869 63.2638 66.351 62.9671C65.815 62.6609 65.394 62.235 65.0877 61.6896C64.7911 61.1345 64.6427 60.4933 64.6427 59.766V59.5937C64.6427 58.8568 64.7911 58.2156 65.0877 57.6702C65.3844 57.1151 65.7959 56.6892 66.3223 56.3926C66.8582 56.0863 67.4754 55.9332 68.174 55.9332C68.8535 55.9332 69.4469 56.0863 69.9541 56.3926C70.4708 56.6892 70.8728 57.1055 71.1599 57.6414C71.447 58.1774 71.5905 58.8042 71.5905 59.5219V60.0818H66.15C66.1691 60.7038 66.3749 61.2015 66.7673 61.5747C67.1692 61.9384 67.6668 62.1202 68.2602 62.1202C68.8152 62.1202 69.2315 61.9958 69.5091 61.747C69.7962 61.4982 70.0163 61.2111 70.1694 60.8857L71.3896 61.5173C71.2556 61.7853 71.0594 62.0676 70.801 62.3642C70.5522 62.6609 70.222 62.9097 69.8105 63.1107C69.399 63.3117 68.8727 63.4122 68.2315 63.4122ZM66.1644 58.9477H70.0833C70.045 58.4118 69.8536 57.9955 69.5091 57.6989C69.1645 57.3926 68.7148 57.2395 68.1597 57.2395C67.6046 57.2395 67.1501 57.3926 66.796 57.6989C66.4514 57.9955 66.2409 58.4118 66.1644 58.9477ZM75.5666 63.4122C75.0594 63.4122 74.6049 63.326 74.2029 63.1538C73.8106 62.9815 73.4947 62.7279 73.2555 62.3929C73.0258 62.058 72.911 61.6513 72.911 61.1728C72.911 60.6847 73.0258 60.2828 73.2555 59.967C73.4947 59.6416 73.8153 59.3975 74.2173 59.2348C74.6288 59.0722 75.0929 58.9908 75.6097 58.9908H77.763V58.5315C77.763 58.1199 77.6385 57.7898 77.3897 57.541C77.1409 57.2921 76.7581 57.1677 76.2413 57.1677C75.7341 57.1677 75.3465 57.2874 75.0786 57.5266C74.8106 57.7659 74.6336 58.0769 74.5474 58.4597L73.1694 58.0147C73.2842 57.6319 73.466 57.2874 73.7149 56.9811C73.9732 56.6653 74.313 56.4117 74.7341 56.2203C75.1551 56.0289 75.6623 55.9332 76.2557 55.9332C77.1744 55.9332 77.8969 56.1677 78.4233 56.6366C78.9496 57.1055 79.2128 57.7706 79.2128 58.6319V61.546C79.2128 61.8331 79.3468 61.9767 79.6148 61.9767H80.2177V63.2112H79.1123C78.7774 63.2112 78.5046 63.1251 78.2941 62.9528C78.0836 62.7805 77.9783 62.5461 77.9783 62.2494V62.2063H77.763C77.6864 62.3499 77.5716 62.5174 77.4184 62.7088C77.2653 62.9002 77.0404 63.0676 76.7438 63.2112C76.4471 63.3452 76.0547 63.4122 75.5666 63.4122ZM75.782 62.192C76.3753 62.192 76.8538 62.0245 77.2175 61.6896C77.5811 61.345 77.763 60.8761 77.763 60.2828V60.1392H75.6958C75.3035 60.1392 74.9877 60.2253 74.7484 60.3976C74.5092 60.5603 74.3895 60.8043 74.3895 61.1297C74.3895 61.4551 74.5139 61.7135 74.7628 61.9049C75.0116 62.0963 75.3513 62.192 75.782 62.192ZM83.8203 63.2112C83.3897 63.2112 83.0451 63.082 82.7868 62.8236C82.5379 62.5652 82.4135 62.2207 82.4135 61.79V57.3831H80.4613V56.1342H82.4135V53.7943H83.8921V56.1342H86.0023V57.3831H83.8921V61.5316C83.8921 61.8187 84.0261 61.9623 84.294 61.9623H85.7726V63.2112H83.8203ZM90.7312 63.4122C90.0135 63.4122 89.3867 63.2638 88.8507 62.9671C88.3148 62.6609 87.8937 62.235 87.5875 61.6896C87.2908 61.1345 87.1425 60.4933 87.1425 59.766V59.5937C87.1425 58.8568 87.2908 58.2156 87.5875 57.6702C87.8842 57.1151 88.2957 56.6892 88.822 56.3926C89.3579 56.0863 89.9752 55.9332 90.6738 55.9332C91.3533 55.9332 91.9466 56.0863 92.4538 56.3926C92.9706 56.6892 93.3726 57.1055 93.6597 57.6414C93.9468 58.1774 94.0903 58.8042 94.0903 59.5219V60.0818H88.6498C88.6689 60.7038 88.8747 61.2015 89.267 61.5747C89.669 61.9384 90.1666 62.1202 90.7599 62.1202C91.315 62.1202 91.7313 61.9958 92.0088 61.747C92.2959 61.4982 92.516 61.2111 92.6692 60.8857L93.8893 61.5173C93.7554 61.7853 93.5592 62.0676 93.3008 62.3642C93.052 62.6609 92.7218 62.9097 92.3103 63.1107C91.8988 63.3117 91.3724 63.4122 90.7312 63.4122ZM88.6641 58.9477H92.583C92.5448 58.4118 92.3534 57.9955 92.0088 57.6989C91.6643 57.3926 91.2145 57.2395 90.6595 57.2395C90.1044 57.2395 89.6498 57.3926 89.2957 57.6989C88.9512 57.9955 88.7407 58.4118 88.6641 58.9477ZM98.7985 63.4122C98.2147 63.4122 97.674 63.2686 97.1764 62.9815C96.6788 62.6944 96.2768 62.2829 95.9706 61.747C95.6739 61.2015 95.5256 60.5459 95.5256 59.7803V59.565C95.5256 58.809 95.6739 58.1582 95.9706 57.6127C96.2673 57.0672 96.6644 56.6509 97.1621 56.3639C97.6597 56.0768 98.2052 55.9332 98.7985 55.9332C99.2579 55.9332 99.6407 55.9906 99.9469 56.1055C100.263 56.2203 100.521 56.3686 100.722 56.5505C100.923 56.7227 101.076 56.9046 101.181 57.096H101.411V53.1627H102.89V63.2112H101.44V62.2063H101.21C101.028 62.5126 100.751 62.7901 100.378 63.0389C100.014 63.2877 99.4876 63.4122 98.7985 63.4122ZM99.2148 62.1202C99.856 62.1202 100.382 61.9144 100.794 61.5029C101.215 61.0914 101.425 60.5029 101.425 59.7373V59.6081C101.425 58.852 101.22 58.2683 100.808 57.8568C100.397 57.4453 99.8656 57.2395 99.2148 57.2395C98.5832 57.2395 98.0568 57.4453 97.6358 57.8568C97.2243 58.2683 97.0185 58.852 97.0185 59.6081V59.7373C97.0185 60.5029 97.2243 61.0914 97.6358 61.5029C98.0568 61.9144 98.5832 62.1202 99.2148 62.1202ZM108.725 63.2112V56.1342H110.175V56.9668H110.405C110.519 56.6701 110.701 56.4548 110.95 56.3208C111.209 56.1772 111.524 56.1055 111.898 56.1055H112.745V57.4405H111.84C111.362 57.4405 110.969 57.5745 110.663 57.8424C110.357 58.1008 110.204 58.5027 110.204 59.0482V63.2112H108.725ZM117.268 63.4122C116.551 63.4122 115.924 63.2638 115.388 62.9671C114.852 62.6609 114.431 62.235 114.125 61.6896C113.828 61.1345 113.68 60.4933 113.68 59.766V59.5937C113.68 58.8568 113.828 58.2156 114.125 57.6702C114.421 57.1151 114.833 56.6892 115.359 56.3926C115.895 56.0863 116.512 55.9332 117.211 55.9332C117.89 55.9332 118.484 56.0863 118.991 56.3926C119.508 56.6892 119.91 57.1055 120.197 57.6414C120.484 58.1774 120.627 58.8042 120.627 59.5219V60.0818H115.187C115.206 60.7038 115.412 61.2015 115.804 61.5747C116.206 61.9384 116.704 62.1202 117.297 62.1202C117.852 62.1202 118.268 61.9958 118.546 61.747C118.833 61.4982 119.053 61.2111 119.206 60.8857L120.426 61.5173C120.292 61.7853 120.096 62.0676 119.838 62.3642C119.589 62.6609 119.259 62.9097 118.847 63.1107C118.436 63.3117 117.91 63.4122 117.268 63.4122ZM115.201 58.9477H119.12C119.082 58.4118 118.89 57.9955 118.546 57.6989C118.201 57.3926 117.752 57.2395 117.197 57.2395C116.642 57.2395 116.187 57.3926 115.833 57.6989C115.488 57.9955 115.278 58.4118 115.201 58.9477ZM127.948 66.0822V62.2494H127.719C127.613 62.4408 127.46 62.6274 127.259 62.8092C127.058 62.9815 126.8 63.1251 126.484 63.2399C126.178 63.3547 125.795 63.4122 125.336 63.4122C124.742 63.4122 124.197 63.2686 123.699 62.9815C123.202 62.6944 122.804 62.2829 122.508 61.747C122.211 61.2015 122.063 60.5459 122.063 59.7803V59.565C122.063 58.7994 122.211 58.1487 122.508 57.6127C122.814 57.0672 123.216 56.6509 123.714 56.3639C124.211 56.0768 124.752 55.9332 125.336 55.9332C126.025 55.9332 126.551 56.0576 126.915 56.3064C127.288 56.5553 127.565 56.8376 127.747 57.1534H127.977V56.1342H129.427V66.0822H127.948ZM125.752 62.1202C126.403 62.1202 126.934 61.9144 127.345 61.5029C127.757 61.0914 127.963 60.5029 127.963 59.7373V59.6081C127.963 58.852 127.752 58.2683 127.331 57.8568C126.919 57.4453 126.393 57.2395 125.752 57.2395C125.12 57.2395 124.594 57.4453 124.173 57.8568C123.761 58.2683 123.556 58.852 123.556 59.6081V59.7373C123.556 60.5029 123.761 61.0914 124.173 61.5029C124.594 61.9144 125.12 62.1202 125.752 62.1202ZM134.316 63.3404C133.781 63.3404 133.302 63.2208 132.881 62.9815C132.46 62.7423 132.13 62.4025 131.89 61.9623C131.651 61.5221 131.532 60.9957 131.532 60.3832V56.1342H133.01V60.2828C133.01 60.8952 133.163 61.3498 133.47 61.6465C133.776 61.9336 134.202 62.0771 134.747 62.0771C135.35 62.0771 135.833 61.8762 136.197 61.4742C136.57 61.0627 136.757 60.4742 136.757 59.7086V56.1342H138.235V63.2112H136.786V62.1489H136.556C136.422 62.436 136.183 62.7088 135.838 62.9671C135.494 63.216 134.986 63.3404 134.316 63.3404ZM143.665 63.4122C142.948 63.4122 142.321 63.2638 141.785 62.9671C141.249 62.6609 140.828 62.235 140.522 61.6896C140.225 61.1345 140.077 60.4933 140.077 59.766V59.5937C140.077 58.8568 140.225 58.2156 140.522 57.6702C140.818 57.1151 141.23 56.6892 141.756 56.3926C142.292 56.0863 142.909 55.9332 143.608 55.9332C144.287 55.9332 144.881 56.0863 145.388 56.3926C145.905 56.6892 146.307 57.1055 146.594 57.6414C146.881 58.1774 147.024 58.8042 147.024 59.5219V60.0818H141.584C141.603 60.7038 141.809 61.2015 142.201 61.5747C142.603 61.9384 143.101 62.1202 143.694 62.1202C144.249 62.1202 144.665 61.9958 144.943 61.747C145.23 61.4982 145.45 61.2111 145.603 60.8857L146.823 61.5173C146.689 61.7853 146.493 62.0676 146.235 62.3642C145.986 62.6609 145.656 62.9097 145.244 63.1107C144.833 63.3117 144.306 63.4122 143.665 63.4122ZM141.598 58.9477H145.517C145.479 58.4118 145.287 57.9955 144.943 57.6989C144.598 57.3926 144.149 57.2395 143.593 57.2395C143.038 57.2395 142.584 57.3926 142.23 57.6989C141.885 57.9955 141.675 58.4118 141.598 58.9477ZM151.704 63.4122C150.804 63.4122 150.058 63.2112 149.464 62.8092C148.871 62.4073 148.507 61.7996 148.373 60.9862L149.752 60.656C149.828 61.0484 149.957 61.3594 150.139 61.5891C150.321 61.8187 150.546 61.9814 150.814 62.0771C151.091 62.1728 151.388 62.2207 151.704 62.2207C152.173 62.2207 152.532 62.1298 152.78 61.9479C153.039 61.7661 153.168 61.5316 153.168 61.2445C153.168 60.9574 153.048 60.7469 152.809 60.6129C152.57 60.4789 152.216 60.3689 151.747 60.2828L151.259 60.1966C150.78 60.1105 150.345 59.9861 149.953 59.8234C149.56 59.6607 149.249 59.4358 149.019 59.1487C148.79 58.8616 148.675 58.4932 148.675 58.0434C148.675 57.3735 148.924 56.8567 149.421 56.493C149.919 56.1198 150.579 55.9332 151.402 55.9332C152.197 55.9332 152.847 56.115 153.355 56.4787C153.871 56.8328 154.206 57.3161 154.36 57.9285L152.981 58.3161C152.895 57.8855 152.713 57.584 152.436 57.4118C152.158 57.2299 151.814 57.139 151.402 57.139C151 57.139 150.685 57.2156 150.455 57.3687C150.225 57.5122 150.11 57.718 150.11 57.986C150.11 58.2731 150.22 58.4836 150.441 58.6176C150.67 58.7516 150.977 58.852 151.359 58.919L151.862 59.0052C152.369 59.0913 152.833 59.2109 153.254 59.364C153.675 59.5172 154.005 59.7373 154.245 60.0244C154.493 60.3115 154.618 60.6943 154.618 61.1728C154.618 61.881 154.355 62.4312 153.828 62.8236C153.302 63.216 152.594 63.4122 151.704 63.4122ZM158.848 63.2112C158.417 63.2112 158.072 63.082 157.814 62.8236C157.565 62.5652 157.441 62.2207 157.441 61.79V57.3831H155.489V56.1342H157.441V53.7943H158.919V56.1342H161.03V57.3831H158.919V61.5316C158.919 61.8187 159.053 61.9623 159.321 61.9623H160.8V63.2112H158.848Z" fill="#002026"/>
<path d="M228.233 129.125C227.571 129.125 226.985 129.008 226.474 128.773C225.964 128.539 225.562 128.196 225.269 127.743C224.984 127.283 224.842 126.726 224.842 126.073V125.759H226.186V126.073C226.186 126.692 226.37 127.157 226.738 127.467C227.115 127.777 227.613 127.932 228.233 127.932C228.861 127.932 229.334 127.802 229.652 127.542C229.97 127.274 230.13 126.931 230.13 126.512C230.13 126.236 230.054 126.01 229.903 125.834C229.761 125.658 229.552 125.52 229.275 125.42C228.999 125.311 228.668 125.21 228.283 125.118L227.818 125.005C227.257 124.871 226.772 124.708 226.361 124.515C225.951 124.314 225.633 124.051 225.407 123.724C225.181 123.397 225.068 122.979 225.068 122.468C225.068 121.949 225.193 121.505 225.444 121.137C225.696 120.768 226.047 120.483 226.5 120.282C226.952 120.081 227.483 119.981 228.095 119.981C228.706 119.981 229.25 120.086 229.728 120.295C230.213 120.504 230.594 120.814 230.871 121.224C231.155 121.635 231.298 122.15 231.298 122.769V123.222H229.954V122.769C229.954 122.393 229.874 122.087 229.715 121.852C229.564 121.618 229.347 121.446 229.062 121.337C228.786 121.229 228.463 121.174 228.095 121.174C227.559 121.174 227.144 121.287 226.851 121.513C226.558 121.731 226.412 122.037 226.412 122.43C226.412 122.698 226.474 122.92 226.6 123.096C226.734 123.263 226.927 123.402 227.178 123.51C227.429 123.619 227.739 123.716 228.107 123.799L228.572 123.912C229.141 124.038 229.644 124.201 230.079 124.402C230.515 124.595 230.854 124.859 231.097 125.194C231.348 125.529 231.474 125.96 231.474 126.487C231.474 127.015 231.34 127.475 231.072 127.869C230.812 128.263 230.439 128.572 229.954 128.798C229.468 129.016 228.894 129.125 228.233 129.125ZM227.605 130.406V118.7H228.848V130.406H227.605ZM235.209 128.949V121.086H235.008L233.563 124.051H232.169L234.116 120.157H236.528V128.949H235.209ZM241.484 129.125C240.462 129.125 239.646 128.836 239.034 128.258C238.431 127.672 238.13 126.793 238.13 125.621V123.485C238.13 122.338 238.431 121.467 239.034 120.873C239.646 120.278 240.462 119.981 241.484 119.981C242.514 119.981 243.33 120.278 243.933 120.873C244.544 121.467 244.85 122.338 244.85 123.485V125.621C244.85 126.793 244.544 127.672 243.933 128.258C243.33 128.836 242.514 129.125 241.484 129.125ZM241.484 127.944C242.179 127.944 242.694 127.748 243.029 127.354C243.364 126.952 243.531 126.391 243.531 125.671V123.41C243.531 122.69 243.351 122.137 242.991 121.752C242.631 121.358 242.128 121.162 241.484 121.162C240.831 121.162 240.328 121.363 239.976 121.765C239.625 122.158 239.449 122.707 239.449 123.41V125.671C239.449 126.408 239.616 126.973 239.951 127.367C240.295 127.752 240.805 127.944 241.484 127.944ZM249.579 129.125C248.558 129.125 247.741 128.836 247.13 128.258C246.527 127.672 246.226 126.793 246.226 125.621V123.485C246.226 122.338 246.527 121.467 247.13 120.873C247.741 120.278 248.558 119.981 249.579 119.981C250.609 119.981 251.426 120.278 252.029 120.873C252.64 121.467 252.946 122.338 252.946 123.485V125.621C252.946 126.793 252.64 127.672 252.029 128.258C251.426 128.836 250.609 129.125 249.579 129.125ZM249.579 127.944C250.274 127.944 250.789 127.748 251.124 127.354C251.459 126.952 251.627 126.391 251.627 125.671V123.41C251.627 122.69 251.447 122.137 251.087 121.752C250.727 121.358 250.224 121.162 249.579 121.162C248.926 121.162 248.424 121.363 248.072 121.765C247.72 122.158 247.545 122.707 247.545 123.41V125.671C247.545 126.408 247.712 126.973 248.047 127.367C248.39 127.752 248.901 127.944 249.579 127.944ZM254.426 130.657V129.916H254.853C255.196 129.916 255.368 129.745 255.368 129.401V128.999H255.18C254.887 128.999 254.644 128.912 254.451 128.736C254.259 128.56 254.162 128.338 254.162 128.07C254.162 127.777 254.259 127.542 254.451 127.367C254.644 127.182 254.887 127.09 255.18 127.09C255.473 127.09 255.711 127.187 255.896 127.379C256.088 127.563 256.184 127.806 256.184 128.108V129.414C256.184 130.243 255.77 130.657 254.941 130.657H254.426ZM260.766 129.125C259.745 129.125 258.928 128.836 258.317 128.258C257.714 127.672 257.412 126.793 257.412 125.621V123.485C257.412 122.338 257.714 121.467 258.317 120.873C258.928 120.278 259.745 119.981 260.766 119.981C261.796 119.981 262.613 120.278 263.215 120.873C263.827 121.467 264.132 122.338 264.132 123.485V125.621C264.132 126.793 263.827 127.672 263.215 128.258C262.613 128.836 261.796 129.125 260.766 129.125ZM260.766 127.944C261.461 127.944 261.976 127.748 262.311 127.354C262.646 126.952 262.814 126.391 262.814 125.671V123.41C262.814 122.69 262.634 122.137 262.273 121.752C261.913 121.358 261.411 121.162 260.766 121.162C260.113 121.162 259.611 121.363 259.259 121.765C258.907 122.158 258.731 122.707 258.731 123.41V125.671C258.731 126.408 258.899 126.973 259.234 127.367C259.577 127.752 260.088 127.944 260.766 127.944ZM268.862 129.125C267.84 129.125 267.024 128.836 266.413 128.258C265.81 127.672 265.508 126.793 265.508 125.621V123.485C265.508 122.338 265.81 121.467 266.413 120.873C267.024 120.278 267.84 119.981 268.862 119.981C269.892 119.981 270.708 120.278 271.311 120.873C271.922 121.467 272.228 122.338 272.228 123.485V125.621C272.228 126.793 271.922 127.672 271.311 128.258C270.708 128.836 269.892 129.125 268.862 129.125ZM268.862 127.944C269.557 127.944 270.072 127.748 270.407 127.354C270.742 126.952 270.909 126.391 270.909 125.671V123.41C270.909 122.69 270.729 122.137 270.369 121.752C270.009 121.358 269.507 121.162 268.862 121.162C268.209 121.162 267.706 121.363 267.355 121.765C267.003 122.158 266.827 122.707 266.827 123.41V125.671C266.827 126.408 266.995 126.973 267.329 127.367C267.673 127.752 268.184 127.944 268.862 127.944ZM276.958 129.125C275.936 129.125 275.12 128.836 274.508 128.258C273.905 127.672 273.604 126.793 273.604 125.621V123.485C273.604 122.338 273.905 121.467 274.508 120.873C275.12 120.278 275.936 119.981 276.958 119.981C277.988 119.981 278.804 120.278 279.407 120.873C280.018 121.467 280.324 122.338 280.324 123.485V125.621C280.324 126.793 280.018 127.672 279.407 128.258C278.804 128.836 277.988 129.125 276.958 129.125ZM276.958 127.944C277.653 127.944 278.168 127.748 278.503 127.354C278.838 126.952 279.005 126.391 279.005 125.671V123.41C279.005 122.69 278.825 122.137 278.465 121.752C278.105 121.358 277.602 121.162 276.958 121.162C276.304 121.162 275.802 121.363 275.45 121.765C275.099 122.158 274.923 122.707 274.923 123.41V125.671C274.923 126.408 275.09 126.973 275.425 127.367C275.769 127.752 276.279 127.944 276.958 127.944Z" fill="#002026"/>
<path d="M67.5802 127.155L70.0923 118.362H72.4788L74.9784 127.155H73.5842L73.0064 125.082H69.5648L68.987 127.155H67.5802ZM69.9039 123.826H72.6672L71.386 119.204H71.1851L69.9039 123.826ZM76.2073 127.155V120.962H77.4759V121.691H77.6769C77.7941 121.473 77.9825 121.281 78.2421 121.113C78.5017 120.946 78.8534 120.862 79.2972 120.862C79.7577 120.862 80.1262 120.958 80.4025 121.151C80.6872 121.335 80.9007 121.574 81.0431 121.867H81.2441C81.3864 121.582 81.5916 121.343 81.8595 121.151C82.1359 120.958 82.5253 120.862 83.0277 120.862C83.4296 120.862 83.7855 120.946 84.0953 121.113C84.4052 121.272 84.6522 121.515 84.8364 121.842C85.0206 122.16 85.1127 122.558 85.1127 123.035V127.155H83.819V123.135C83.819 122.759 83.7143 122.47 83.505 122.269C83.304 122.059 83.0151 121.955 82.6383 121.955C82.2364 121.955 81.914 122.084 81.6711 122.344C81.4283 122.604 81.3069 122.976 81.3069 123.462V127.155H80.0131V123.135C80.0131 122.759 79.9085 122.47 79.6991 122.269C79.4981 122.059 79.2093 121.955 78.8324 121.955C78.4305 121.955 78.1081 122.084 77.8653 122.344C77.6224 122.604 77.501 122.976 77.501 123.462V127.155H76.2073ZM89.8785 127.331C89.2589 127.331 88.7062 127.205 88.2205 126.954C87.7432 126.694 87.3664 126.326 87.0901 125.848C86.8137 125.371 86.6756 124.806 86.6756 124.153V123.964C86.6756 123.311 86.8137 122.75 87.0901 122.281C87.3664 121.804 87.7432 121.436 88.2205 121.176C88.7062 120.916 89.2589 120.787 89.8785 120.787C90.4982 120.787 91.0508 120.916 91.5365 121.176C92.0222 121.436 92.4032 121.804 92.6795 122.281C92.9559 122.75 93.094 123.311 93.094 123.964V124.153C93.094 124.806 92.9559 125.371 92.6795 125.848C92.4032 126.326 92.0222 126.694 91.5365 126.954C91.0508 127.205 90.4982 127.331 89.8785 127.331ZM89.8785 126.175C90.4479 126.175 90.9085 125.995 91.2602 125.635C91.6203 125.267 91.8003 124.76 91.8003 124.115V124.002C91.8003 123.357 91.6244 122.855 91.2727 122.495C90.921 122.126 90.4563 121.942 89.8785 121.942C89.3175 121.942 88.8569 122.126 88.4968 122.495C88.1452 122.855 87.9693 123.357 87.9693 124.002V124.115C87.9693 124.76 88.1452 125.267 88.4968 125.635C88.8569 125.995 89.3175 126.175 89.8785 126.175ZM97.0787 127.268C96.6098 127.268 96.1911 127.163 95.8226 126.954C95.4542 126.744 95.1653 126.447 94.9559 126.062C94.7466 125.677 94.6419 125.216 94.6419 124.68V120.962H95.9357V124.592C95.9357 125.128 96.0697 125.526 96.3376 125.786C96.6056 126.037 96.9782 126.162 97.4555 126.162C97.9831 126.162 98.4059 125.987 98.7241 125.635C99.0507 125.275 99.214 124.76 99.214 124.09V120.962H100.508V127.155H99.2391V126.225H99.0382C98.9209 126.477 98.7116 126.715 98.4101 126.941C98.1087 127.159 97.6649 127.268 97.0787 127.268ZM102.42 127.155V120.962H103.689V121.892H103.89C104.007 121.641 104.216 121.406 104.518 121.188C104.819 120.971 105.267 120.862 105.862 120.862C106.331 120.862 106.745 120.967 107.105 121.176C107.474 121.385 107.763 121.683 107.972 122.068C108.181 122.445 108.286 122.901 108.286 123.437V127.155H106.992V123.537C106.992 123.001 106.858 122.608 106.59 122.357C106.322 122.097 105.954 121.967 105.485 121.967C104.949 121.967 104.518 122.143 104.191 122.495C103.873 122.846 103.714 123.357 103.714 124.027V127.155H102.42ZM112.3 127.155C111.923 127.155 111.622 127.042 111.396 126.816C111.178 126.59 111.069 126.288 111.069 125.911V122.055H109.361V120.962H111.069V118.915H112.363V120.962H114.209V122.055H112.363V125.685C112.363 125.936 112.48 126.062 112.714 126.062H114.008V127.155H112.3ZM118.931 127.155V120.962H120.199V121.691H120.4C120.501 121.431 120.66 121.243 120.877 121.126C121.104 121 121.38 120.937 121.706 120.937H122.448V122.105H121.656C121.238 122.105 120.894 122.223 120.626 122.457C120.358 122.683 120.224 123.035 120.224 123.512V127.155H118.931ZM126.406 127.331C125.778 127.331 125.229 127.201 124.76 126.941C124.292 126.673 123.923 126.301 123.655 125.823C123.396 125.338 123.266 124.777 123.266 124.14V123.99C123.266 123.345 123.396 122.784 123.655 122.306C123.915 121.821 124.275 121.448 124.735 121.188C125.204 120.921 125.744 120.787 126.356 120.787C126.95 120.787 127.469 120.921 127.913 121.188C128.365 121.448 128.717 121.812 128.968 122.281C129.219 122.75 129.345 123.299 129.345 123.927V124.417H124.585C124.601 124.961 124.781 125.396 125.125 125.723C125.476 126.041 125.912 126.2 126.431 126.2C126.917 126.2 127.281 126.091 127.524 125.874C127.775 125.656 127.968 125.405 128.102 125.12L129.169 125.673C129.052 125.907 128.88 126.154 128.654 126.414C128.437 126.673 128.148 126.891 127.788 127.067C127.427 127.243 126.967 127.331 126.406 127.331ZM124.597 123.424H128.026C127.993 122.955 127.825 122.591 127.524 122.332C127.222 122.064 126.829 121.93 126.343 121.93C125.857 121.93 125.46 122.064 125.15 122.332C124.848 122.591 124.664 122.955 124.597 123.424ZM135.751 129.667V126.313H135.55C135.458 126.481 135.324 126.644 135.148 126.803C134.972 126.954 134.746 127.079 134.47 127.18C134.202 127.28 133.867 127.331 133.465 127.331C132.946 127.331 132.468 127.205 132.033 126.954C131.597 126.703 131.25 126.343 130.99 125.874C130.731 125.396 130.601 124.823 130.601 124.153V123.964C130.601 123.294 130.731 122.725 130.99 122.256C131.258 121.779 131.61 121.415 132.045 121.163C132.481 120.912 132.954 120.787 133.465 120.787C134.068 120.787 134.528 120.895 134.846 121.113C135.173 121.331 135.416 121.578 135.575 121.854H135.776V120.962H137.045V129.667H135.751ZM133.829 126.2C134.398 126.2 134.863 126.02 135.223 125.66C135.583 125.3 135.763 124.785 135.763 124.115V124.002C135.763 123.341 135.579 122.83 135.211 122.47C134.851 122.11 134.39 121.93 133.829 121.93C133.276 121.93 132.816 122.11 132.447 122.47C132.087 122.83 131.907 123.341 131.907 124.002V124.115C131.907 124.785 132.087 125.3 132.447 125.66C132.816 126.02 133.276 126.2 133.829 126.2ZM141.323 127.268C140.854 127.268 140.435 127.163 140.067 126.954C139.698 126.744 139.41 126.447 139.2 126.062C138.991 125.677 138.886 125.216 138.886 124.68V120.962H140.18V124.592C140.18 125.128 140.314 125.526 140.582 125.786C140.85 126.037 141.222 126.162 141.7 126.162C142.227 126.162 142.65 125.987 142.968 125.635C143.295 125.275 143.458 124.76 143.458 124.09V120.962H144.752V127.155H143.483V126.225H143.282C143.165 126.477 142.956 126.715 142.654 126.941C142.353 127.159 141.909 127.268 141.323 127.268ZM149.503 127.331C148.875 127.331 148.327 127.201 147.858 126.941C147.389 126.673 147.02 126.301 146.752 125.823C146.493 125.338 146.363 124.777 146.363 124.14V123.99C146.363 123.345 146.493 122.784 146.752 122.306C147.012 121.821 147.372 121.448 147.833 121.188C148.302 120.921 148.842 120.787 149.453 120.787C150.047 120.787 150.567 120.921 151.01 121.188C151.463 121.448 151.814 121.812 152.066 122.281C152.317 122.75 152.442 123.299 152.442 123.927V124.417H147.682C147.699 124.961 147.879 125.396 148.222 125.723C148.574 126.041 149.009 126.2 149.528 126.2C150.014 126.2 150.378 126.091 150.621 125.874C150.872 125.656 151.065 125.405 151.199 125.12L152.267 125.673C152.149 125.907 151.978 126.154 151.752 126.414C151.534 126.673 151.245 126.891 150.885 127.067C150.525 127.243 150.064 127.331 149.503 127.331ZM147.694 123.424H151.124C151.09 122.955 150.923 122.591 150.621 122.332C150.32 122.064 149.926 121.93 149.44 121.93C148.955 121.93 148.557 122.064 148.247 122.332C147.946 122.591 147.761 122.955 147.694 123.424ZM156.537 127.331C155.75 127.331 155.097 127.155 154.577 126.803C154.058 126.451 153.74 125.92 153.623 125.208L154.829 124.919C154.896 125.262 155.009 125.534 155.168 125.735C155.327 125.936 155.524 126.079 155.758 126.162C156.001 126.246 156.261 126.288 156.537 126.288C156.947 126.288 157.261 126.209 157.479 126.049C157.705 125.89 157.818 125.685 157.818 125.434C157.818 125.183 157.713 124.999 157.504 124.881C157.295 124.764 156.985 124.668 156.575 124.592L156.148 124.517C155.729 124.442 155.348 124.333 155.005 124.19C154.661 124.048 154.389 123.851 154.188 123.6C153.987 123.349 153.887 123.027 153.887 122.633C153.887 122.047 154.104 121.595 154.54 121.276C154.975 120.95 155.553 120.787 156.273 120.787C156.968 120.787 157.538 120.946 157.981 121.264C158.434 121.574 158.727 121.997 158.861 122.532L157.655 122.872C157.579 122.495 157.42 122.231 157.178 122.08C156.935 121.921 156.633 121.842 156.273 121.842C155.921 121.842 155.645 121.909 155.444 122.043C155.243 122.168 155.143 122.348 155.143 122.583C155.143 122.834 155.239 123.018 155.432 123.135C155.633 123.253 155.901 123.341 156.235 123.399L156.675 123.475C157.119 123.55 157.525 123.655 157.893 123.789C158.262 123.923 158.551 124.115 158.76 124.366C158.978 124.618 159.087 124.952 159.087 125.371C159.087 125.991 158.856 126.472 158.396 126.816C157.935 127.159 157.316 127.331 156.537 127.331ZM162.788 127.155C162.411 127.155 162.109 127.042 161.883 126.816C161.666 126.59 161.557 126.288 161.557 125.911V122.055H159.849V120.962H161.557V118.915H162.851V120.962H164.697V122.055H162.851V125.685C162.851 125.936 162.968 126.062 163.202 126.062H164.496V127.155H162.788ZM168.835 127.331C168.207 127.331 167.658 127.201 167.189 126.941C166.72 126.673 166.352 126.301 166.084 125.823C165.824 125.338 165.695 124.777 165.695 124.14V123.99C165.695 123.345 165.824 122.784 166.084 122.306C166.344 121.821 166.704 121.448 167.164 121.188C167.633 120.921 168.173 120.787 168.785 120.787C169.379 120.787 169.898 120.921 170.342 121.188C170.794 121.448 171.146 121.812 171.397 122.281C171.648 122.75 171.774 123.299 171.774 123.927V124.417H167.013C167.03 124.961 167.21 125.396 167.554 125.723C167.905 126.041 168.341 126.2 168.86 126.2C169.346 126.2 169.71 126.091 169.953 125.874C170.204 125.656 170.396 125.405 170.53 125.12L171.598 125.673C171.481 125.907 171.309 126.154 171.083 126.414C170.865 126.673 170.576 126.891 170.216 127.067C169.856 127.243 169.396 127.331 168.835 127.331ZM167.026 123.424H170.455C170.422 122.955 170.254 122.591 169.953 122.332C169.651 122.064 169.258 121.93 168.772 121.93C168.286 121.93 167.889 122.064 167.579 122.332C167.277 122.591 167.093 122.955 167.026 123.424ZM175.894 127.331C175.383 127.331 174.91 127.205 174.474 126.954C174.039 126.703 173.687 126.343 173.419 125.874C173.16 125.396 173.03 124.823 173.03 124.153V123.964C173.03 123.303 173.16 122.733 173.419 122.256C173.679 121.779 174.026 121.415 174.462 121.163C174.897 120.912 175.374 120.787 175.894 120.787C176.296 120.787 176.631 120.837 176.898 120.937C177.175 121.038 177.401 121.168 177.577 121.327C177.753 121.477 177.887 121.636 177.979 121.804H178.18V118.362H179.473V127.155H178.205V126.276H178.004C177.845 126.544 177.602 126.786 177.275 127.004C176.957 127.222 176.497 127.331 175.894 127.331ZM176.258 126.2C176.819 126.2 177.279 126.02 177.64 125.66C178.008 125.3 178.192 124.785 178.192 124.115V124.002C178.192 123.341 178.012 122.83 177.652 122.47C177.292 122.11 176.827 121.93 176.258 121.93C175.705 121.93 175.245 122.11 174.876 122.47C174.516 122.83 174.336 123.341 174.336 124.002V124.115C174.336 124.785 174.516 125.3 174.876 125.66C175.245 126.02 175.705 126.2 176.258 126.2ZM182.157 127.331C181.864 127.331 181.617 127.234 181.416 127.042C181.223 126.849 181.127 126.602 181.127 126.301C181.127 125.999 181.223 125.756 181.416 125.572C181.617 125.38 181.864 125.283 182.157 125.283C182.45 125.283 182.693 125.38 182.885 125.572C183.086 125.765 183.187 126.008 183.187 126.301C183.187 126.602 183.086 126.849 182.885 127.042C182.693 127.234 182.45 127.331 182.157 127.331ZM182.157 122.846C181.864 122.846 181.617 122.75 181.416 122.558C181.223 122.365 181.127 122.118 181.127 121.817C181.127 121.515 181.223 121.272 181.416 121.088C181.617 120.895 181.864 120.799 182.157 120.799C182.45 120.799 182.693 120.895 182.885 121.088C183.086 121.281 183.187 121.523 183.187 121.817C183.187 122.118 183.086 122.365 182.885 122.558C182.693 122.75 182.45 122.846 182.157 122.846Z" fill="#002026" fill-opacity="0.6"/>
<path opacity="0.2" d="M50.0635 151.042H300.585" stroke="#002026" stroke-width="0.897187"/>
<path d="M71.2228 198.209C70.5612 198.209 69.9751 198.092 69.4643 197.857C68.9535 197.623 68.5515 197.279 68.2585 196.827C67.9737 196.367 67.8314 195.81 67.8314 195.157V194.843H69.1754V195.157C69.1754 195.776 69.3596 196.241 69.728 196.551C70.1049 196.861 70.6031 197.016 71.2228 197.016C71.8508 197.016 72.3239 196.886 72.6421 196.626C72.9603 196.358 73.1194 196.015 73.1194 195.596C73.1194 195.32 73.044 195.094 72.8933 194.918C72.7426 194.742 72.5291 194.604 72.2527 194.503C71.9764 194.395 71.6456 194.294 71.2604 194.202L70.7957 194.089C70.2347 193.955 69.7448 193.792 69.3261 193.599C68.9158 193.398 68.5976 193.134 68.3715 192.808C68.1454 192.481 68.0324 192.062 68.0324 191.552C68.0324 191.033 68.158 190.589 68.4092 190.22C68.6688 189.852 69.0247 189.567 69.4768 189.366C69.929 189.165 70.4607 189.065 71.072 189.065C71.6833 189.065 72.2276 189.169 72.7049 189.379C73.1906 189.588 73.5716 189.898 73.8479 190.308C74.1243 190.718 74.2624 191.233 74.2624 191.853V192.305H72.9184V191.853C72.9184 191.476 72.8389 191.171 72.6798 190.936C72.5291 190.702 72.3155 190.53 72.0392 190.421C71.7629 190.312 71.4405 190.258 71.072 190.258C70.5361 190.258 70.1174 190.371 69.816 190.597C69.5229 190.815 69.3763 191.12 69.3763 191.514C69.3763 191.782 69.4392 192.004 69.5648 192.18C69.6987 192.347 69.8913 192.485 70.1425 192.594C70.3938 192.703 70.7078 192.799 71.0846 192.883L71.5493 192.996C72.1187 193.122 72.6212 193.285 73.0566 193.486C73.492 193.679 73.8354 193.942 74.0866 194.277C74.3378 194.612 74.4634 195.044 74.4634 195.571C74.4634 196.099 74.3294 196.559 74.0615 196.953C73.8019 197.346 73.4292 197.656 72.9436 197.882C72.4579 198.1 71.8843 198.209 71.2228 198.209ZM78.7638 198.209C78.1358 198.209 77.5873 198.079 77.1184 197.819C76.6495 197.551 76.281 197.179 76.0131 196.702C75.7535 196.216 75.6237 195.655 75.6237 195.018V194.868C75.6237 194.223 75.7535 193.662 76.0131 193.185C76.2727 192.699 76.6327 192.326 77.0933 192.067C77.5622 191.799 78.1023 191.665 78.7136 191.665C79.3081 191.665 79.8273 191.799 80.2711 192.067C80.7233 192.326 81.075 192.691 81.3262 193.159C81.5774 193.628 81.703 194.177 81.703 194.805V195.295H76.9426C76.9593 195.839 77.1393 196.274 77.4827 196.601C77.8344 196.919 78.2698 197.078 78.789 197.078C79.2746 197.078 79.6389 196.969 79.8817 196.752C80.1329 196.534 80.3255 196.283 80.4595 195.998L81.5272 196.551C81.4099 196.785 81.2383 197.032 81.0122 197.292C80.7945 197.551 80.5056 197.769 80.1455 197.945C79.7854 198.121 79.3249 198.209 78.7638 198.209ZM76.9551 194.302H80.3842C80.3507 193.834 80.1832 193.469 79.8817 193.21C79.5803 192.942 79.1867 192.808 78.701 192.808C78.2154 192.808 77.8176 192.942 77.5078 193.21C77.2063 193.469 77.0221 193.834 76.9551 194.302ZM85.5841 198.033C85.2072 198.033 84.9058 197.92 84.6797 197.694C84.462 197.468 84.3531 197.166 84.3531 196.789V192.933H82.6449V191.841H84.3531V189.793H85.6469V191.841H87.1039V192.933H85.6469V196.563C85.6469 196.815 85.7641 196.94 85.9986 196.94H87.2923V198.033H85.5841ZM89.6537 198.033C89.2769 198.033 88.9754 197.92 88.7493 197.694C88.5232 197.468 88.4102 197.166 88.4102 196.789V192.933H87.1039V191.841H88.4102V189.793H89.7039V191.841H91.5629V192.933H89.7039V196.563C89.7039 196.815 89.8254 196.94 90.0682 196.94H91.3494V198.033H89.6537ZM93.0856 198.033V189.241H94.3793V198.033H93.0856ZM99.138 198.209C98.51 198.209 97.9615 198.079 97.4926 197.819C97.0237 197.551 96.6552 197.179 96.3873 196.702C96.1277 196.216 95.9979 195.655 95.9979 195.018V194.868C95.9979 194.223 96.1277 193.662 96.3873 193.185C96.6469 192.699 97.0069 192.326 97.4675 192.067C97.9364 191.799 98.4765 191.665 99.0878 191.665C99.6823 191.665 100.202 191.799 100.645 192.067C101.098 192.326 101.449 192.691 101.7 193.159C101.952 193.628 102.077 194.177 102.077 194.805V195.295H97.3168C97.3335 195.839 97.5135 196.274 97.8569 196.601C98.2086 196.919 98.644 197.078 99.1632 197.078C99.6488 197.078 100.013 196.969 100.256 196.752C100.507 196.534 100.7 196.283 100.834 195.998L101.901 196.551C101.784 196.785 101.612 197.032 101.386 197.292C101.169 197.551 100.88 197.769 100.52 197.945C100.16 198.121 99.6991 198.209 99.138 198.209ZM97.3293 194.302H100.758C100.725 193.834 100.557 193.469 100.256 193.21C99.9545 192.942 99.5609 192.808 99.0752 192.808C98.5896 192.808 98.1918 192.942 97.882 193.21C97.5805 193.469 97.3963 193.834 97.3293 194.302ZM103.635 198.033V191.841H104.903V192.569H105.104C105.221 192.351 105.41 192.159 105.669 191.991C105.929 191.824 106.281 191.74 106.724 191.74C107.185 191.74 107.553 191.836 107.83 192.029C108.115 192.213 108.328 192.452 108.47 192.745H108.671C108.814 192.46 109.019 192.222 109.287 192.029C109.563 191.836 109.953 191.74 110.455 191.74C110.857 191.74 111.213 191.824 111.523 191.991C111.832 192.15 112.079 192.393 112.264 192.72C112.448 193.038 112.54 193.436 112.54 193.913V198.033H111.246V194.014C111.246 193.637 111.142 193.348 110.932 193.147C110.731 192.938 110.442 192.833 110.066 192.833C109.664 192.833 109.341 192.963 109.098 193.222C108.856 193.482 108.734 193.854 108.734 194.34V198.033H107.44V194.014C107.44 193.637 107.336 193.348 107.126 193.147C106.925 192.938 106.637 192.833 106.26 192.833C105.858 192.833 105.535 192.963 105.293 193.222C105.05 193.482 104.928 193.854 104.928 194.34V198.033H103.635ZM117.243 198.209C116.615 198.209 116.066 198.079 115.598 197.819C115.129 197.551 114.76 197.179 114.492 196.702C114.233 196.216 114.103 195.655 114.103 195.018V194.868C114.103 194.223 114.233 193.662 114.492 193.185C114.752 192.699 115.112 192.326 115.572 192.067C116.041 191.799 116.581 191.665 117.193 191.665C117.787 191.665 118.306 191.799 118.75 192.067C119.202 192.326 119.554 192.691 119.805 193.159C120.057 193.628 120.182 194.177 120.182 194.805V195.295H115.422C115.438 195.839 115.618 196.274 115.962 196.601C116.314 196.919 116.749 197.078 117.268 197.078C117.754 197.078 118.118 196.969 118.361 196.752C118.612 196.534 118.805 196.283 118.939 195.998L120.006 196.551C119.889 196.785 119.717 197.032 119.491 197.292C119.274 197.551 118.985 197.769 118.625 197.945C118.265 198.121 117.804 198.209 117.243 198.209ZM115.434 194.302H118.863C118.83 193.834 118.662 193.469 118.361 193.21C118.059 192.942 117.666 192.808 117.18 192.808C116.695 192.808 116.297 192.942 115.987 193.21C115.685 193.469 115.501 193.834 115.434 194.302ZM121.74 198.033V191.841H123.008V192.77H123.209C123.326 192.519 123.536 192.284 123.837 192.067C124.139 191.849 124.587 191.74 125.181 191.74C125.65 191.74 126.065 191.845 126.425 192.054C126.793 192.263 127.082 192.561 127.291 192.946C127.501 193.323 127.605 193.779 127.605 194.315V198.033H126.312V194.416C126.312 193.88 126.178 193.486 125.91 193.235C125.642 192.975 125.273 192.845 124.804 192.845C124.268 192.845 123.837 193.021 123.511 193.373C123.192 193.725 123.033 194.235 123.033 194.905V198.033H121.74ZM131.619 198.033C131.242 198.033 130.941 197.92 130.715 197.694C130.497 197.468 130.388 197.166 130.388 196.789V192.933H128.68V191.841H130.388V189.793H131.682V191.841H133.528V192.933H131.682V196.563C131.682 196.815 131.799 196.94 132.034 196.94H133.327V198.033H131.619ZM139.368 198.033V192.933H137.634V191.841H139.368V190.484C139.368 190.107 139.481 189.806 139.707 189.58C139.933 189.354 140.234 189.241 140.611 189.241H142.206V190.333H141.026C140.783 190.333 140.661 190.459 140.661 190.71V191.841H142.445V192.933H140.661V198.033H139.368ZM146.414 198.209C145.794 198.209 145.241 198.083 144.756 197.832C144.278 197.572 143.901 197.204 143.625 196.727C143.349 196.249 143.211 195.684 143.211 195.031V194.843C143.211 194.189 143.349 193.628 143.625 193.159C143.901 192.682 144.278 192.314 144.756 192.054C145.241 191.795 145.794 191.665 146.414 191.665C147.033 191.665 147.586 191.795 148.072 192.054C148.557 192.314 148.938 192.682 149.215 193.159C149.491 193.628 149.629 194.189 149.629 194.843V195.031C149.629 195.684 149.491 196.249 149.215 196.727C148.938 197.204 148.557 197.572 148.072 197.832C147.586 198.083 147.033 198.209 146.414 198.209ZM146.414 197.053C146.983 197.053 147.444 196.873 147.795 196.513C148.155 196.145 148.335 195.638 148.335 194.993V194.88C148.335 194.235 148.159 193.733 147.808 193.373C147.456 193.005 146.991 192.82 146.414 192.82C145.853 192.82 145.392 193.005 145.032 193.373C144.68 193.733 144.504 194.235 144.504 194.88V194.993C144.504 195.638 144.68 196.145 145.032 196.513C145.392 196.873 145.853 197.053 146.414 197.053ZM151.24 198.033V191.841H152.508V192.569H152.709C152.81 192.31 152.969 192.121 153.187 192.004C153.413 191.878 153.689 191.815 154.016 191.815H154.757V192.984H153.965C153.547 192.984 153.203 193.101 152.935 193.335C152.668 193.561 152.534 193.913 152.534 194.39V198.033H151.24ZM161.622 198.033C161.246 198.033 160.944 197.92 160.718 197.694C160.5 197.468 160.391 197.166 160.391 196.789V192.933H158.683V191.841H160.391V189.793H161.685V191.841H163.532V192.933H161.685V196.563C161.685 196.815 161.802 196.94 162.037 196.94H163.331V198.033H161.622ZM165.052 198.033V189.241H166.345V192.72H166.546C166.63 192.561 166.747 192.406 166.898 192.255C167.057 192.104 167.262 191.983 167.513 191.891C167.773 191.79 168.1 191.74 168.493 191.74C168.962 191.74 169.377 191.845 169.737 192.054C170.105 192.263 170.394 192.561 170.603 192.946C170.813 193.323 170.917 193.779 170.917 194.315V198.033H169.624V194.416C169.624 193.88 169.49 193.486 169.222 193.235C168.954 192.975 168.585 192.845 168.116 192.845C167.58 192.845 167.149 193.021 166.823 193.373C166.504 193.725 166.345 194.235 166.345 194.905V198.033H165.052ZM175.618 198.209C174.99 198.209 174.441 198.079 173.973 197.819C173.504 197.551 173.135 197.179 172.867 196.702C172.608 196.216 172.478 195.655 172.478 195.018V194.868C172.478 194.223 172.608 193.662 172.867 193.185C173.127 192.699 173.487 192.326 173.947 192.067C174.416 191.799 174.956 191.665 175.568 191.665C176.162 191.665 176.681 191.799 177.125 192.067C177.577 192.326 177.929 192.691 178.18 193.159C178.432 193.628 178.557 194.177 178.557 194.805V195.295H173.797C173.813 195.839 173.993 196.274 174.337 196.601C174.688 196.919 175.124 197.078 175.643 197.078C176.129 197.078 176.493 196.969 176.736 196.752C176.987 196.534 177.18 196.283 177.314 195.998L178.381 196.551C178.264 196.785 178.092 197.032 177.866 197.292C177.649 197.551 177.36 197.769 177 197.945C176.64 198.121 176.179 198.209 175.618 198.209ZM173.809 194.302H177.238C177.205 193.834 177.037 193.469 176.736 193.21C176.434 192.942 176.041 192.808 175.555 192.808C175.07 192.808 174.672 192.942 174.362 193.21C174.06 193.469 173.876 193.834 173.809 194.302ZM183.015 194.968V194.78C183.015 194.127 183.144 193.57 183.404 193.109C183.672 192.649 184.024 192.293 184.459 192.042C184.894 191.79 185.372 191.665 185.891 191.665C186.494 191.665 186.954 191.778 187.273 192.004C187.599 192.23 187.838 192.473 187.989 192.732H188.189V191.841H189.446V199.302C189.446 199.678 189.333 199.98 189.106 200.206C188.889 200.432 188.587 200.545 188.202 200.545H184.032V199.415H187.8C188.043 199.415 188.164 199.289 188.164 199.038V197.066H187.963C187.871 197.217 187.741 197.371 187.574 197.531C187.407 197.69 187.185 197.819 186.908 197.92C186.64 198.02 186.301 198.071 185.891 198.071C185.372 198.071 184.89 197.949 184.446 197.706C184.011 197.455 183.663 197.099 183.404 196.639C183.144 196.17 183.015 195.613 183.015 194.968ZM186.243 196.94C186.804 196.94 187.264 196.764 187.624 196.413C187.993 196.053 188.177 195.559 188.177 194.93V194.817C188.177 194.173 187.997 193.679 187.637 193.335C187.277 192.984 186.812 192.808 186.243 192.808C185.69 192.808 185.229 192.984 184.861 193.335C184.501 193.679 184.321 194.173 184.321 194.817V194.93C184.321 195.559 184.501 196.053 184.861 196.413C185.229 196.764 185.69 196.94 186.243 196.94ZM194.252 198.209C193.632 198.209 193.08 198.083 192.594 197.832C192.117 197.572 191.74 197.204 191.463 196.727C191.187 196.249 191.049 195.684 191.049 195.031V194.843C191.049 194.189 191.187 193.628 191.463 193.159C191.74 192.682 192.117 192.314 192.594 192.054C193.08 191.795 193.632 191.665 194.252 191.665C194.872 191.665 195.424 191.795 195.91 192.054C196.396 192.314 196.777 192.682 197.053 193.159C197.329 193.628 197.467 194.189 197.467 194.843V195.031C197.467 195.684 197.329 196.249 197.053 196.727C196.777 197.204 196.396 197.572 195.91 197.832C195.424 198.083 194.872 198.209 194.252 198.209ZM194.252 197.053C194.821 197.053 195.282 196.873 195.634 196.513C195.994 196.145 196.174 195.638 196.174 194.993V194.88C196.174 194.235 195.998 193.733 195.646 193.373C195.294 193.005 194.83 192.82 194.252 192.82C193.691 192.82 193.23 193.005 192.87 193.373C192.518 193.733 192.343 194.235 192.343 194.88V194.993C192.343 195.638 192.518 196.145 192.87 196.513C193.23 196.873 193.691 197.053 194.252 197.053ZM201.98 198.209C201.36 198.209 200.807 198.083 200.322 197.832C199.844 197.572 199.467 197.204 199.191 196.727C198.915 196.249 198.777 195.684 198.777 195.031V194.843C198.777 194.189 198.915 193.628 199.191 193.159C199.467 192.682 199.844 192.314 200.322 192.054C200.807 191.795 201.36 191.665 201.98 191.665C202.599 191.665 203.152 191.795 203.638 192.054C204.123 192.314 204.504 192.682 204.781 193.159C205.057 193.628 205.195 194.189 205.195 194.843V195.031C205.195 195.684 205.057 196.249 204.781 196.727C204.504 197.204 204.123 197.572 203.638 197.832C203.152 198.083 202.599 198.209 201.98 198.209ZM201.98 197.053C202.549 197.053 203.01 196.873 203.361 196.513C203.721 196.145 203.901 195.638 203.901 194.993V194.88C203.901 194.235 203.726 193.733 203.374 193.373C203.022 193.005 202.557 192.82 201.98 192.82C201.419 192.82 200.958 193.005 200.598 193.373C200.246 193.733 200.07 194.235 200.07 194.88V194.993C200.07 195.638 200.246 196.145 200.598 196.513C200.958 196.873 201.419 197.053 201.98 197.053ZM209.368 198.209C208.857 198.209 208.384 198.083 207.949 197.832C207.513 197.581 207.162 197.221 206.894 196.752C206.634 196.274 206.504 195.701 206.504 195.031V194.843C206.504 194.181 206.634 193.612 206.894 193.134C207.153 192.657 207.501 192.293 207.936 192.042C208.372 191.79 208.849 191.665 209.368 191.665C209.77 191.665 210.105 191.715 210.373 191.815C210.649 191.916 210.875 192.046 211.051 192.205C211.227 192.356 211.361 192.515 211.453 192.682H211.654V189.241H212.948V198.033H211.679V197.154H211.478C211.319 197.422 211.076 197.665 210.75 197.882C210.432 198.1 209.971 198.209 209.368 198.209ZM209.732 197.078C210.293 197.078 210.754 196.898 211.114 196.538C211.483 196.178 211.667 195.663 211.667 194.993V194.88C211.667 194.219 211.487 193.708 211.127 193.348C210.767 192.988 210.302 192.808 209.732 192.808C209.18 192.808 208.719 192.988 208.351 193.348C207.991 193.708 207.811 194.219 207.811 194.88V194.993C207.811 195.663 207.991 196.178 208.351 196.538C208.719 196.898 209.18 197.078 209.732 197.078ZM217.39 198.209C216.603 198.209 215.949 198.033 215.43 197.681C214.911 197.33 214.593 196.798 214.476 196.086L215.681 195.797C215.748 196.14 215.861 196.413 216.021 196.614C216.18 196.815 216.376 196.957 216.611 197.041C216.854 197.124 217.113 197.166 217.39 197.166C217.8 197.166 218.114 197.087 218.332 196.928C218.558 196.769 218.671 196.563 218.671 196.312C218.671 196.061 218.566 195.877 218.357 195.759C218.148 195.642 217.838 195.546 217.427 195.471L217 195.395C216.582 195.32 216.201 195.211 215.857 195.069C215.514 194.926 215.242 194.73 215.041 194.478C214.84 194.227 214.739 193.905 214.739 193.511C214.739 192.925 214.957 192.473 215.393 192.155C215.828 191.828 216.406 191.665 217.126 191.665C217.821 191.665 218.39 191.824 218.834 192.142C219.286 192.452 219.579 192.875 219.713 193.411L218.508 193.75C218.432 193.373 218.273 193.109 218.03 192.958C217.787 192.799 217.486 192.72 217.126 192.72C216.774 192.72 216.498 192.787 216.297 192.921C216.096 193.046 215.995 193.226 215.995 193.461C215.995 193.712 216.092 193.896 216.284 194.014C216.485 194.131 216.753 194.219 217.088 194.277L217.528 194.353C217.972 194.428 218.378 194.533 218.746 194.667C219.115 194.801 219.404 194.993 219.613 195.245C219.831 195.496 219.94 195.831 219.94 196.249C219.94 196.869 219.709 197.35 219.249 197.694C218.788 198.037 218.168 198.209 217.39 198.209ZM227.53 198.209C226.935 198.209 226.395 198.083 225.909 197.832C225.432 197.581 225.051 197.217 224.766 196.739C224.49 196.262 224.352 195.688 224.352 195.018V194.855C224.352 194.185 224.49 193.616 224.766 193.147C225.051 192.67 225.432 192.305 225.909 192.054C226.395 191.795 226.935 191.665 227.53 191.665C228.124 191.665 228.631 191.774 229.049 191.991C229.468 192.209 229.803 192.498 230.054 192.858C230.314 193.218 230.481 193.616 230.557 194.051L229.301 194.315C229.259 194.039 229.171 193.787 229.037 193.561C228.903 193.335 228.714 193.155 228.472 193.021C228.229 192.887 227.923 192.82 227.555 192.82C227.195 192.82 226.868 192.904 226.575 193.072C226.29 193.231 226.064 193.465 225.897 193.775C225.729 194.076 225.645 194.445 225.645 194.88V194.993C225.645 195.429 225.729 195.801 225.897 196.111C226.064 196.421 226.29 196.655 226.575 196.815C226.868 196.974 227.195 197.053 227.555 197.053C228.099 197.053 228.513 196.915 228.798 196.639C229.083 196.354 229.263 195.994 229.338 195.559L230.594 195.847C230.494 196.274 230.314 196.668 230.054 197.028C229.803 197.388 229.468 197.677 229.049 197.895C228.631 198.104 228.124 198.209 227.53 198.209ZM234.988 198.209C234.368 198.209 233.816 198.083 233.33 197.832C232.853 197.572 232.476 197.204 232.2 196.727C231.923 196.249 231.785 195.684 231.785 195.031V194.843C231.785 194.189 231.923 193.628 232.2 193.159C232.476 192.682 232.853 192.314 233.33 192.054C233.816 191.795 234.368 191.665 234.988 191.665C235.608 191.665 236.16 191.795 236.646 192.054C237.132 192.314 237.513 192.682 237.789 193.159C238.065 193.628 238.204 194.189 238.204 194.843V195.031C238.204 195.684 238.065 196.249 237.789 196.727C237.513 197.204 237.132 197.572 236.646 197.832C236.16 198.083 235.608 198.209 234.988 198.209ZM234.988 197.053C235.557 197.053 236.018 196.873 236.37 196.513C236.73 196.145 236.91 195.638 236.91 194.993V194.88C236.91 194.235 236.734 193.733 236.382 193.373C236.031 193.005 235.566 192.82 234.988 192.82C234.427 192.82 233.966 193.005 233.606 193.373C233.255 193.733 233.079 194.235 233.079 194.88V194.993C233.079 195.638 233.255 196.145 233.606 196.513C233.966 196.873 234.427 197.053 234.988 197.053ZM239.814 198.033V191.841H241.083V192.569H241.284C241.401 192.351 241.589 192.159 241.849 191.991C242.109 191.824 242.46 191.74 242.904 191.74C243.365 191.74 243.733 191.836 244.009 192.029C244.294 192.213 244.508 192.452 244.65 192.745H244.851C244.993 192.46 245.199 192.222 245.467 192.029C245.743 191.836 246.132 191.74 246.635 191.74C247.037 191.74 247.392 191.824 247.702 191.991C248.012 192.15 248.259 192.393 248.443 192.72C248.628 193.038 248.72 193.436 248.72 193.913V198.033H247.426V194.014C247.426 193.637 247.321 193.348 247.112 193.147C246.911 192.938 246.622 192.833 246.245 192.833C245.843 192.833 245.521 192.963 245.278 193.222C245.035 193.482 244.914 193.854 244.914 194.34V198.033H243.62V194.014C243.62 193.637 243.515 193.348 243.306 193.147C243.105 192.938 242.816 192.833 242.439 192.833C242.037 192.833 241.715 192.963 241.472 193.222C241.229 193.482 241.108 193.854 241.108 194.34V198.033H239.814ZM250.584 198.033V191.841H251.878V198.033H250.584ZM251.237 190.999C250.986 190.999 250.772 190.919 250.597 190.76C250.429 190.593 250.345 190.379 250.345 190.12C250.345 189.86 250.429 189.651 250.597 189.492C250.772 189.324 250.986 189.241 251.237 189.241C251.497 189.241 251.71 189.324 251.878 189.492C252.045 189.651 252.129 189.86 252.129 190.12C252.129 190.379 252.045 190.593 251.878 190.76C251.71 190.919 251.497 190.999 251.237 190.999ZM253.798 198.033V191.841H255.066V192.77H255.267C255.385 192.519 255.594 192.284 255.895 192.067C256.197 191.849 256.645 191.74 257.239 191.74C257.708 191.74 258.123 191.845 258.483 192.054C258.851 192.263 259.14 192.561 259.35 192.946C259.559 193.323 259.664 193.779 259.664 194.315V198.033H258.37V194.416C258.37 193.88 258.236 193.486 257.968 193.235C257.7 192.975 257.331 192.845 256.863 192.845C256.327 192.845 255.895 193.021 255.569 193.373C255.251 193.725 255.091 194.235 255.091 194.905V198.033H253.798ZM261.224 194.968V194.78C261.224 194.127 261.354 193.57 261.613 193.109C261.881 192.649 262.233 192.293 262.668 192.042C263.104 191.79 263.581 191.665 264.1 191.665C264.703 191.665 265.164 191.778 265.482 192.004C265.809 192.23 266.047 192.473 266.198 192.732H266.399V191.841H267.655V199.302C267.655 199.678 267.542 199.98 267.316 200.206C267.098 200.432 266.797 200.545 266.412 200.545H262.241V199.415H266.01C266.252 199.415 266.374 199.289 266.374 199.038V197.066H266.173C266.081 197.217 265.951 197.371 265.784 197.531C265.616 197.69 265.394 197.819 265.118 197.92C264.85 198.02 264.511 198.071 264.1 198.071C263.581 198.071 263.1 197.949 262.656 197.706C262.22 197.455 261.873 197.099 261.613 196.639C261.354 196.17 261.224 195.613 261.224 194.968ZM264.452 196.94C265.013 196.94 265.474 196.764 265.834 196.413C266.202 196.053 266.386 195.559 266.386 194.93V194.817C266.386 194.173 266.206 193.679 265.846 193.335C265.486 192.984 265.021 192.808 264.452 192.808C263.899 192.808 263.439 192.984 263.07 193.335C262.71 193.679 262.53 194.173 262.53 194.817V194.93C262.53 195.559 262.71 196.053 263.07 196.413C263.439 196.764 263.899 196.94 264.452 196.94ZM272.761 198.033V191.841H274.055V198.033H272.761ZM273.414 190.999C273.163 190.999 272.95 190.919 272.774 190.76C272.606 190.593 272.523 190.379 272.523 190.12C272.523 189.86 272.606 189.651 272.774 189.492C272.95 189.324 273.163 189.241 273.414 189.241C273.674 189.241 273.888 189.324 274.055 189.492C274.223 189.651 274.306 189.86 274.306 190.12C274.306 190.379 274.223 190.593 274.055 190.76C273.888 190.919 273.674 190.999 273.414 190.999ZM275.975 198.033V191.841H277.244V192.77H277.445C277.562 192.519 277.771 192.284 278.073 192.067C278.374 191.849 278.822 191.74 279.417 191.74C279.886 191.74 280.3 191.845 280.66 192.054C281.029 192.263 281.318 192.561 281.527 192.946C281.736 193.323 281.841 193.779 281.841 194.315V198.033H280.547V194.416C280.547 193.88 280.413 193.486 280.145 193.235C279.877 192.975 279.509 192.845 279.04 192.845C278.504 192.845 278.073 193.021 277.746 193.373C277.428 193.725 277.269 194.235 277.269 194.905V198.033H275.975ZM69.3889 214.033V208.933H67.6555V207.841H69.3889V206.484C69.3889 206.107 69.502 205.806 69.728 205.58C69.9541 205.354 70.2556 205.241 70.6324 205.241H72.2276V206.333H71.0469C70.8041 206.333 70.6827 206.459 70.6827 206.71V207.841H72.4663V208.933H70.6827V214.033H69.3889ZM73.7908 214.033V207.841H75.0594V208.569H75.2604C75.3609 208.31 75.52 208.121 75.7377 208.004C75.9638 207.878 76.2401 207.815 76.5667 207.815H77.3078V208.984H76.5165C76.0978 208.984 75.7545 209.101 75.4865 209.335C75.2185 209.561 75.0846 209.913 75.0846 210.39V214.033H73.7908ZM81.329 214.209C80.7093 214.209 80.1566 214.083 79.671 213.832C79.1936 213.572 78.8168 213.204 78.5405 212.727C78.2642 212.249 78.126 211.684 78.126 211.031V210.843C78.126 210.189 78.2642 209.628 78.5405 209.159C78.8168 208.682 79.1936 208.314 79.671 208.054C80.1566 207.795 80.7093 207.665 81.329 207.665C81.9486 207.665 82.5013 207.795 82.987 208.054C83.4726 208.314 83.8536 208.682 84.13 209.159C84.4063 209.628 84.5445 210.189 84.5445 210.843V211.031C84.5445 211.684 84.4063 212.249 84.13 212.727C83.8536 213.204 83.4726 213.572 82.987 213.832C82.5013 214.083 81.9486 214.209 81.329 214.209ZM81.329 213.053C81.8984 213.053 82.3589 212.873 82.7106 212.513C83.0707 212.145 83.2507 211.638 83.2507 210.993V210.88C83.2507 210.235 83.0749 209.733 82.7232 209.373C82.3715 209.005 81.9067 208.82 81.329 208.82C80.7679 208.82 80.3074 209.005 79.9473 209.373C79.5956 209.733 79.4197 210.235 79.4197 210.88V210.993C79.4197 211.638 79.5956 212.145 79.9473 212.513C80.3074 212.873 80.7679 213.053 81.329 213.053ZM86.1552 214.033V207.841H87.4238V208.569H87.6248C87.742 208.351 87.9304 208.159 88.19 207.991C88.4496 207.824 88.8013 207.74 89.2451 207.74C89.7056 207.74 90.0741 207.836 90.3504 208.029C90.6351 208.213 90.8487 208.452 90.991 208.745H91.192C91.3343 208.46 91.5395 208.222 91.8075 208.029C92.0838 207.836 92.4732 207.74 92.9756 207.74C93.3775 207.74 93.7334 207.824 94.0432 207.991C94.3531 208.15 94.6001 208.393 94.7843 208.72C94.9685 209.038 95.0607 209.436 95.0607 209.913V214.033H93.7669V210.014C93.7669 209.637 93.6622 209.348 93.4529 209.147C93.2519 208.938 92.963 208.833 92.5862 208.833C92.1843 208.833 91.8619 208.963 91.619 209.222C91.3762 209.482 91.2548 209.854 91.2548 210.34V214.033H89.961V210.014C89.961 209.637 89.8564 209.348 89.647 209.147C89.4461 208.938 89.1572 208.833 88.7803 208.833C88.3784 208.833 88.056 208.963 87.8132 209.222C87.5703 209.482 87.4489 209.854 87.4489 210.34V214.033H86.1552ZM100.089 214.033V205.241H101.445V214.033H100.089ZM105.639 214.033C105.263 214.033 104.961 213.92 104.735 213.694C104.517 213.468 104.408 213.166 104.408 212.789V208.933H102.7V207.841H104.408V205.793H105.702V207.841H107.549V208.933H105.702V212.563C105.702 212.815 105.819 212.94 106.054 212.94H107.348V214.033H105.639ZM110.978 214.209C110.534 214.209 110.136 214.133 109.785 213.983C109.441 213.832 109.165 213.61 108.956 213.317C108.755 213.024 108.654 212.668 108.654 212.249C108.654 211.822 108.755 211.471 108.956 211.194C109.165 210.91 109.446 210.696 109.797 210.554C110.157 210.411 110.563 210.34 111.016 210.34H112.9V209.938C112.9 209.578 112.791 209.289 112.573 209.072C112.355 208.854 112.021 208.745 111.568 208.745C111.125 208.745 110.785 208.85 110.551 209.059C110.316 209.268 110.162 209.54 110.086 209.875L108.88 209.486C108.981 209.151 109.14 208.85 109.358 208.582C109.584 208.305 109.881 208.083 110.249 207.916C110.618 207.748 111.062 207.665 111.581 207.665C112.385 207.665 113.017 207.87 113.478 208.28C113.938 208.691 114.168 209.272 114.168 210.026V212.576C114.168 212.827 114.286 212.953 114.52 212.953H115.048V214.033H114.08C113.787 214.033 113.549 213.958 113.365 213.807C113.18 213.656 113.088 213.451 113.088 213.191V213.154H112.9C112.833 213.279 112.732 213.426 112.598 213.593C112.464 213.761 112.268 213.907 112.008 214.033C111.748 214.15 111.405 214.209 110.978 214.209ZM111.166 213.141C111.686 213.141 112.104 212.995 112.422 212.702C112.741 212.4 112.9 211.99 112.9 211.471V211.345H111.091C110.748 211.345 110.471 211.42 110.262 211.571C110.053 211.713 109.948 211.927 109.948 212.212C109.948 212.496 110.057 212.722 110.275 212.89C110.492 213.057 110.79 213.141 111.166 213.141ZM116.306 214.033V205.241H117.599V214.033H116.306ZM120.235 216.545V215.415H123.689C123.924 215.415 124.041 215.289 124.041 215.038V213.129H123.84C123.765 213.296 123.648 213.459 123.488 213.618C123.338 213.769 123.133 213.895 122.873 213.995C122.613 214.096 122.287 214.146 121.893 214.146C121.424 214.146 121.006 214.041 120.637 213.832C120.269 213.623 119.98 213.325 119.771 212.94C119.561 212.555 119.457 212.099 119.457 211.571V207.841H120.75V211.471C120.75 212.007 120.884 212.404 121.152 212.664C121.42 212.915 121.793 213.041 122.27 213.041C122.798 213.041 123.221 212.865 123.539 212.513C123.865 212.161 124.029 211.651 124.029 210.981V207.841H125.322V215.302C125.322 215.678 125.209 215.98 124.983 216.206C124.765 216.432 124.464 216.545 124.079 216.545H120.235ZM130.436 214.033V207.841H131.705V208.77H131.906C132.023 208.519 132.232 208.284 132.534 208.067C132.835 207.849 133.283 207.74 133.878 207.74C134.347 207.74 134.761 207.845 135.121 208.054C135.49 208.263 135.779 208.561 135.988 208.946C136.197 209.323 136.302 209.779 136.302 210.315V214.033H135.008V210.416C135.008 209.88 134.874 209.486 134.606 209.235C134.338 208.975 133.97 208.845 133.501 208.845C132.965 208.845 132.534 209.021 132.207 209.373C131.889 209.725 131.73 210.235 131.73 210.905V214.033H130.436ZM141.003 214.209C140.375 214.209 139.826 214.079 139.357 213.819C138.888 213.551 138.52 213.179 138.252 212.702C137.992 212.216 137.863 211.655 137.863 211.018V210.868C137.863 210.223 137.992 209.662 138.252 209.185C138.511 208.699 138.872 208.326 139.332 208.067C139.801 207.799 140.341 207.665 140.952 207.665C141.547 207.665 142.066 207.799 142.51 208.067C142.962 208.326 143.314 208.691 143.565 209.159C143.816 209.628 143.942 210.177 143.942 210.805V211.295H139.181C139.198 211.839 139.378 212.274 139.722 212.601C140.073 212.919 140.509 213.078 141.028 213.078C141.513 213.078 141.878 212.969 142.121 212.752C142.372 212.534 142.564 212.283 142.698 211.998L143.766 212.551C143.649 212.785 143.477 213.032 143.251 213.292C143.033 213.551 142.744 213.769 142.384 213.945C142.024 214.121 141.564 214.209 141.003 214.209ZM139.194 210.302H142.623C142.59 209.834 142.422 209.469 142.121 209.21C141.819 208.942 141.426 208.808 140.94 208.808C140.454 208.808 140.056 208.942 139.747 209.21C139.445 209.469 139.261 209.834 139.194 210.302ZM144.567 214.033L146.928 210.905L144.617 207.841H146.137L147.757 210.064H147.958L149.579 207.841H151.111L148.787 210.905L151.149 214.033H149.604L147.958 211.759H147.757L146.112 214.033H144.567ZM154.864 214.033C154.487 214.033 154.185 213.92 153.959 213.694C153.742 213.468 153.633 213.166 153.633 212.789V208.933H151.925V207.841H153.633V205.793H154.927V207.841H156.773V208.933H154.927V212.563C154.927 212.815 155.044 212.94 155.278 212.94H156.572V214.033H154.864ZM162.173 214.033L161.118 207.841H162.411L163.19 213.166H163.391L164.471 207.841H166.569L167.636 213.166H167.837L168.616 207.841H169.91L168.855 214.033H166.682L165.614 208.72H165.413L164.346 214.033H162.173ZM174.207 214.209C173.579 214.209 173.031 214.079 172.562 213.819C172.093 213.551 171.725 213.179 171.457 212.702C171.197 212.216 171.067 211.655 171.067 211.018V210.868C171.067 210.223 171.197 209.662 171.457 209.185C171.716 208.699 172.076 208.326 172.537 208.067C173.006 207.799 173.546 207.665 174.157 207.665C174.752 207.665 175.271 207.799 175.715 208.067C176.167 208.326 176.519 208.691 176.77 209.159C177.021 209.628 177.147 210.177 177.147 210.805V211.295H172.386C172.403 211.839 172.583 212.274 172.926 212.601C173.278 212.919 173.713 213.078 174.232 213.078C174.718 213.078 175.082 212.969 175.325 212.752C175.576 212.534 175.769 212.283 175.903 211.998L176.971 212.551C176.853 212.785 176.682 213.032 176.456 213.292C176.238 213.551 175.949 213.769 175.589 213.945C175.229 214.121 174.768 214.209 174.207 214.209ZM172.399 210.302H175.828C175.794 209.834 175.627 209.469 175.325 209.21C175.024 208.942 174.63 208.808 174.145 208.808C173.659 208.808 173.261 208.942 172.951 209.21C172.65 209.469 172.466 209.834 172.399 210.302ZM181.543 214.209C180.915 214.209 180.366 214.079 179.897 213.819C179.428 213.551 179.06 213.179 178.792 212.702C178.532 212.216 178.402 211.655 178.402 211.018V210.868C178.402 210.223 178.532 209.662 178.792 209.185C179.051 208.699 179.411 208.326 179.872 208.067C180.341 207.799 180.881 207.665 181.492 207.665C182.087 207.665 182.606 207.799 183.05 208.067C183.502 208.326 183.854 208.691 184.105 209.159C184.356 209.628 184.482 210.177 184.482 210.805V211.295H179.721C179.738 211.839 179.918 212.274 180.261 212.601C180.613 212.919 181.049 213.078 181.568 213.078C182.053 213.078 182.418 212.969 182.66 212.752C182.912 212.534 183.104 212.283 183.238 211.998L184.306 212.551C184.189 212.785 184.017 213.032 183.791 213.292C183.573 213.551 183.284 213.769 182.924 213.945C182.564 214.121 182.104 214.209 181.543 214.209ZM179.734 210.302H183.163C183.129 209.834 182.962 209.469 182.66 209.21C182.359 208.942 181.965 208.808 181.48 208.808C180.994 208.808 180.596 208.942 180.287 209.21C179.985 209.469 179.801 209.834 179.734 210.302ZM186.039 214.033V205.241H187.333V210.252H187.534L189.971 207.841H191.691L188.564 210.843L191.792 214.033H190.084L187.534 211.458H187.333V214.033H186.039ZM195.44 214.209C194.812 214.209 194.264 214.079 193.795 213.819C193.326 213.551 192.957 213.179 192.689 212.702C192.43 212.216 192.3 211.655 192.3 211.018V210.868C192.3 210.223 192.43 209.662 192.689 209.185C192.949 208.699 193.309 208.326 193.77 208.067C194.239 207.799 194.779 207.665 195.39 207.665C195.985 207.665 196.504 207.799 196.947 208.067C197.4 208.326 197.751 208.691 198.003 209.159C198.254 209.628 198.379 210.177 198.379 210.805V211.295H193.619C193.636 211.839 193.816 212.274 194.159 212.601C194.511 212.919 194.946 213.078 195.465 213.078C195.951 213.078 196.315 212.969 196.558 212.752C196.809 212.534 197.002 212.283 197.136 211.998L198.204 212.551C198.086 212.785 197.915 213.032 197.689 213.292C197.471 213.551 197.182 213.769 196.822 213.945C196.462 214.121 196.001 214.209 195.44 214.209ZM193.631 210.302H197.061C197.027 209.834 196.86 209.469 196.558 209.21C196.257 208.942 195.863 208.808 195.377 208.808C194.892 208.808 194.494 208.942 194.184 209.21C193.883 209.469 193.698 209.834 193.631 210.302ZM199.937 214.033V207.841H201.205V208.77H201.406C201.524 208.519 201.733 208.284 202.034 208.067C202.336 207.849 202.784 207.74 203.378 207.74C203.847 207.74 204.262 207.845 204.622 208.054C204.99 208.263 205.279 208.561 205.489 208.946C205.698 209.323 205.803 209.779 205.803 210.315V214.033H204.509V210.416C204.509 209.88 204.375 209.486 204.107 209.235C203.839 208.975 203.47 208.845 203.001 208.845C202.466 208.845 202.034 209.021 201.708 209.373C201.39 209.725 201.23 210.235 201.23 210.905V214.033H199.937ZM210.227 214.209C209.716 214.209 209.243 214.083 208.807 213.832C208.372 213.581 208.02 213.221 207.752 212.752C207.493 212.274 207.363 211.701 207.363 211.031V210.843C207.363 210.181 207.493 209.612 207.752 209.134C208.012 208.657 208.359 208.293 208.795 208.042C209.23 207.79 209.708 207.665 210.227 207.665C210.629 207.665 210.964 207.715 211.232 207.815C211.508 207.916 211.734 208.046 211.91 208.205C212.086 208.356 212.22 208.515 212.312 208.682H212.513V205.241H213.807V214.033H212.538V213.154H212.337C212.178 213.422 211.935 213.665 211.608 213.882C211.29 214.1 210.83 214.209 210.227 214.209ZM210.591 213.078C211.152 213.078 211.613 212.898 211.973 212.538C212.341 212.178 212.525 211.663 212.525 210.993V210.88C212.525 210.219 212.345 209.708 211.985 209.348C211.625 208.988 211.16 208.808 210.591 208.808C210.038 208.808 209.578 208.988 209.209 209.348C208.849 209.708 208.669 210.219 208.669 210.88V210.993C208.669 211.663 208.849 212.178 209.209 212.538C209.578 212.898 210.038 213.078 210.591 213.078ZM220.834 214.209C220.391 214.209 219.993 214.133 219.641 213.983C219.298 213.832 219.021 213.61 218.812 213.317C218.611 213.024 218.511 212.668 218.511 212.249C218.511 211.822 218.611 211.471 218.812 211.194C219.021 210.91 219.302 210.696 219.654 210.554C220.014 210.411 220.42 210.34 220.872 210.34H222.756V209.938C222.756 209.578 222.647 209.289 222.43 209.072C222.212 208.854 221.877 208.745 221.425 208.745C220.981 208.745 220.642 208.85 220.407 209.059C220.173 209.268 220.018 209.54 219.943 209.875L218.737 209.486C218.837 209.151 218.996 208.85 219.214 208.582C219.44 208.305 219.737 208.083 220.106 207.916C220.474 207.748 220.918 207.665 221.437 207.665C222.241 207.665 222.873 207.87 223.334 208.28C223.794 208.691 224.025 209.272 224.025 210.026V212.576C224.025 212.827 224.142 212.953 224.376 212.953H224.904V214.033H223.937C223.644 214.033 223.405 213.958 223.221 213.807C223.037 213.656 222.945 213.451 222.945 213.191V213.154H222.756C222.689 213.279 222.589 213.426 222.455 213.593C222.321 213.761 222.124 213.907 221.864 214.033C221.605 214.15 221.261 214.209 220.834 214.209ZM221.023 213.141C221.542 213.141 221.961 212.995 222.279 212.702C222.597 212.4 222.756 211.99 222.756 211.471V211.345H220.947C220.604 211.345 220.328 211.42 220.118 211.571C219.909 211.713 219.804 211.927 219.804 212.212C219.804 212.496 219.913 212.722 220.131 212.89C220.349 213.057 220.646 213.141 221.023 213.141ZM226.162 214.033V207.841H227.431V208.77H227.632C227.749 208.519 227.958 208.284 228.26 208.067C228.561 207.849 229.009 207.74 229.604 207.74C230.072 207.74 230.487 207.845 230.847 208.054C231.215 208.263 231.504 208.561 231.714 208.946C231.923 209.323 232.028 209.779 232.028 210.315V214.033H230.734V210.416C230.734 209.88 230.6 209.486 230.332 209.235C230.064 208.975 229.696 208.845 229.227 208.845C228.691 208.845 228.26 209.021 227.933 209.373C227.615 209.725 227.456 210.235 227.456 210.905V214.033H226.162ZM236.452 214.209C235.941 214.209 235.468 214.083 235.033 213.832C234.597 213.581 234.246 213.221 233.978 212.752C233.718 212.274 233.588 211.701 233.588 211.031V210.843C233.588 210.181 233.718 209.612 233.978 209.134C234.237 208.657 234.585 208.293 235.02 208.042C235.456 207.79 235.933 207.665 236.452 207.665C236.854 207.665 237.189 207.715 237.457 207.815C237.733 207.916 237.959 208.046 238.135 208.205C238.311 208.356 238.445 208.515 238.537 208.682H238.738V205.241H240.032V214.033H238.763V213.154H238.562C238.403 213.422 238.16 213.665 237.834 213.882C237.515 214.1 237.055 214.209 236.452 214.209ZM236.816 213.078C237.377 213.078 237.838 212.898 238.198 212.538C238.566 212.178 238.751 211.663 238.751 210.993V210.88C238.751 210.219 238.571 209.708 238.21 209.348C237.85 208.988 237.386 208.808 236.816 208.808C236.264 208.808 235.803 208.988 235.435 209.348C235.075 209.708 234.894 210.219 234.894 210.88V210.993C234.894 211.663 235.075 212.178 235.435 212.538C235.803 212.898 236.264 213.078 236.816 213.078ZM247.06 214.209C246.616 214.209 246.218 214.133 245.866 213.983C245.523 213.832 245.247 213.61 245.037 213.317C244.836 213.024 244.736 212.668 244.736 212.249C244.736 211.822 244.836 211.471 245.037 211.194C245.247 210.91 245.527 210.696 245.879 210.554C246.239 210.411 246.645 210.34 247.097 210.34H248.981V209.938C248.981 209.578 248.872 209.289 248.655 209.072C248.437 208.854 248.102 208.745 247.65 208.745C247.206 208.745 246.867 208.85 246.632 209.059C246.398 209.268 246.243 209.54 246.168 209.875L244.962 209.486C245.062 209.151 245.222 208.85 245.439 208.582C245.665 208.305 245.963 208.083 246.331 207.916C246.699 207.748 247.143 207.665 247.662 207.665C248.466 207.665 249.099 207.87 249.559 208.28C250.02 208.691 250.25 209.272 250.25 210.026V212.576C250.25 212.827 250.367 212.953 250.602 212.953H251.129V214.033H250.162C249.869 214.033 249.63 213.958 249.446 213.807C249.262 213.656 249.17 213.451 249.17 213.191V213.154H248.981C248.914 213.279 248.814 213.426 248.68 213.593C248.546 213.761 248.349 213.907 248.09 214.033C247.83 214.15 247.487 214.209 247.06 214.209ZM247.248 213.141C247.767 213.141 248.186 212.995 248.504 212.702C248.822 212.4 248.981 211.99 248.981 211.471V211.345H247.173C246.829 211.345 246.553 211.42 246.344 211.571C246.134 211.713 246.03 211.927 246.03 212.212C246.03 212.496 246.138 212.722 246.356 212.89C246.574 213.057 246.871 213.141 247.248 213.141ZM252.387 214.033V205.241H253.681V214.033H252.387ZM258.138 214.209C257.351 214.209 256.698 214.033 256.179 213.681C255.659 213.33 255.341 212.798 255.224 212.086L256.43 211.797C256.497 212.14 256.61 212.413 256.769 212.614C256.928 212.815 257.125 212.957 257.359 213.041C257.602 213.124 257.862 213.166 258.138 213.166C258.548 213.166 258.862 213.087 259.08 212.928C259.306 212.769 259.419 212.563 259.419 212.312C259.419 212.061 259.315 211.877 259.105 211.759C258.896 211.642 258.586 211.546 258.176 211.471L257.749 211.395C257.33 211.32 256.949 211.211 256.606 211.069C256.262 210.926 255.99 210.73 255.789 210.478C255.588 210.227 255.488 209.905 255.488 209.511C255.488 208.925 255.706 208.473 256.141 208.155C256.576 207.828 257.154 207.665 257.874 207.665C258.569 207.665 259.139 207.824 259.583 208.142C260.035 208.452 260.328 208.875 260.462 209.411L259.256 209.75C259.181 209.373 259.022 209.109 258.779 208.958C258.536 208.799 258.234 208.72 257.874 208.72C257.523 208.72 257.246 208.787 257.045 208.921C256.844 209.046 256.744 209.226 256.744 209.461C256.744 209.712 256.84 209.896 257.033 210.014C257.234 210.131 257.502 210.219 257.837 210.277L258.276 210.353C258.72 210.428 259.126 210.533 259.495 210.667C259.863 210.801 260.152 210.993 260.361 211.245C260.579 211.496 260.688 211.831 260.688 212.249C260.688 212.869 260.458 213.35 259.997 213.694C259.537 214.037 258.917 214.209 258.138 214.209ZM265.102 214.209C264.482 214.209 263.929 214.083 263.444 213.832C262.966 213.572 262.589 213.204 262.313 212.727C262.037 212.249 261.899 211.684 261.899 211.031V210.843C261.899 210.189 262.037 209.628 262.313 209.159C262.589 208.682 262.966 208.314 263.444 208.054C263.929 207.795 264.482 207.665 265.102 207.665C265.721 207.665 266.274 207.795 266.76 208.054C267.245 208.314 267.626 208.682 267.903 209.159C268.179 209.628 268.317 210.189 268.317 210.843V211.031C268.317 211.684 268.179 212.249 267.903 212.727C267.626 213.204 267.245 213.572 266.76 213.832C266.274 214.083 265.721 214.209 265.102 214.209ZM265.102 213.053C265.671 213.053 266.132 212.873 266.483 212.513C266.843 212.145 267.023 211.638 267.023 210.993V210.88C267.023 210.235 266.848 209.733 266.496 209.373C266.144 209.005 265.679 208.82 265.102 208.82C264.541 208.82 264.08 209.005 263.72 209.373C263.368 209.733 263.192 210.235 263.192 210.88V210.993C263.192 211.638 263.368 212.145 263.72 212.513C264.08 212.873 264.541 213.053 265.102 213.053ZM71.1474 230.209C70.5529 230.209 70.0128 230.083 69.5271 229.832C69.0498 229.581 68.6688 229.217 68.3841 228.739C68.1077 228.262 67.9696 227.688 67.9696 227.018V226.855C67.9696 226.185 68.1077 225.616 68.3841 225.147C68.6688 224.67 69.0498 224.305 69.5271 224.054C70.0128 223.795 70.5529 223.665 71.1474 223.665C71.7419 223.665 72.2485 223.774 72.6672 223.991C73.0859 224.209 73.4209 224.498 73.6721 224.858C73.9317 225.218 74.0991 225.616 74.1745 226.051L72.9184 226.315C72.8766 226.039 72.7886 225.787 72.6547 225.561C72.5207 225.335 72.3323 225.155 72.0894 225.021C71.8466 224.887 71.541 224.82 71.1725 224.82C70.8124 224.82 70.4859 224.904 70.1928 225.072C69.9081 225.231 69.682 225.465 69.5145 225.775C69.347 226.076 69.2633 226.445 69.2633 226.88V226.993C69.2633 227.429 69.347 227.801 69.5145 228.111C69.682 228.421 69.9081 228.655 70.1928 228.815C70.4859 228.974 70.8124 229.053 71.1725 229.053C71.7168 229.053 72.1313 228.915 72.416 228.639C72.7007 228.354 72.8808 227.994 72.9561 227.559L74.2122 227.847C74.1117 228.274 73.9317 228.668 73.6721 229.028C73.4209 229.388 73.0859 229.677 72.6672 229.895C72.2485 230.104 71.7419 230.209 71.1474 230.209ZM78.0783 230.146C77.6094 230.146 77.1907 230.041 76.8222 229.832C76.4538 229.623 76.1649 229.325 75.9556 228.94C75.7462 228.555 75.6415 228.094 75.6415 227.559V223.841H76.9353V227.471C76.9353 228.007 77.0693 228.404 77.3372 228.664C77.6052 228.915 77.9778 229.041 78.4551 229.041C78.9827 229.041 79.4055 228.865 79.7237 228.513C80.0503 228.153 80.2136 227.638 80.2136 226.968V223.841H81.5074V230.033H80.2387V229.103H80.0378C79.9205 229.355 79.7112 229.593 79.4097 229.819C79.1083 230.037 78.6645 230.146 78.0783 230.146ZM85.9571 230.209C85.1699 230.209 84.5168 230.033 83.9976 229.681C83.4784 229.33 83.1602 228.798 83.043 228.086L84.2488 227.797C84.3158 228.14 84.4288 228.413 84.5879 228.614C84.747 228.815 84.9438 228.957 85.1783 229.041C85.4211 229.124 85.6807 229.166 85.9571 229.166C86.3674 229.166 86.6814 229.087 86.8991 228.928C87.1252 228.769 87.2382 228.563 87.2382 228.312C87.2382 228.061 87.1336 227.877 86.9242 227.759C86.7149 227.642 86.405 227.546 85.9947 227.471L85.5677 227.395C85.149 227.32 84.768 227.211 84.4247 227.069C84.0813 226.926 83.8092 226.73 83.6082 226.478C83.4072 226.227 83.3068 225.905 83.3068 225.511C83.3068 224.925 83.5245 224.473 83.9599 224.155C84.3953 223.828 84.9731 223.665 85.6933 223.665C86.3883 223.665 86.9577 223.824 87.4015 224.142C87.8537 224.452 88.1468 224.875 88.2808 225.411L87.0749 225.75C86.9996 225.373 86.8405 225.109 86.5976 224.958C86.3548 224.799 86.0533 224.72 85.6933 224.72C85.3416 224.72 85.0652 224.787 84.8643 224.921C84.6633 225.046 84.5628 225.226 84.5628 225.461C84.5628 225.712 84.6591 225.896 84.8517 226.014C85.0527 226.131 85.3206 226.219 85.6556 226.277L86.0952 226.353C86.539 226.428 86.9452 226.533 87.3136 226.667C87.682 226.801 87.9709 226.993 88.1803 227.245C88.398 227.496 88.5069 227.831 88.5069 228.249C88.5069 228.869 88.2766 229.35 87.816 229.694C87.3555 230.037 86.7358 230.209 85.9571 230.209ZM92.2078 230.033C91.831 230.033 91.5295 229.92 91.3035 229.694C91.0857 229.468 90.9769 229.166 90.9769 228.789V224.933H89.2686V223.841H90.9769V221.793H92.2706V223.841H94.117V224.933H92.2706V228.563C92.2706 228.815 92.3879 228.94 92.6223 228.94H93.9161V230.033H92.2078ZM98.3177 230.209C97.698 230.209 97.1454 230.083 96.6597 229.832C96.1824 229.572 95.8056 229.204 95.5292 228.727C95.2529 228.249 95.1147 227.684 95.1147 227.031V226.843C95.1147 226.189 95.2529 225.628 95.5292 225.159C95.8056 224.682 96.1824 224.314 96.6597 224.054C97.1454 223.795 97.698 223.665 98.3177 223.665C98.9373 223.665 99.49 223.795 99.9757 224.054C100.461 224.314 100.842 224.682 101.119 225.159C101.395 225.628 101.533 226.189 101.533 226.843V227.031C101.533 227.684 101.395 228.249 101.119 228.727C100.842 229.204 100.461 229.572 99.9757 229.832C99.49 230.083 98.9373 230.209 98.3177 230.209ZM98.3177 229.053C98.8871 229.053 99.3477 228.873 99.6993 228.513C100.059 228.145 100.239 227.638 100.239 226.993V226.88C100.239 226.235 100.064 225.733 99.7119 225.373C99.3602 225.005 98.8955 224.82 98.3177 224.82C97.7566 224.82 97.2961 225.005 96.936 225.373C96.5843 225.733 96.4085 226.235 96.4085 226.88V226.993C96.4085 227.638 96.5843 228.145 96.936 228.513C97.2961 228.873 97.7566 229.053 98.3177 229.053ZM103.144 230.033V223.841H104.413V224.569H104.613C104.731 224.351 104.919 224.159 105.179 223.991C105.438 223.824 105.79 223.74 106.234 223.74C106.694 223.74 107.063 223.836 107.339 224.029C107.624 224.213 107.837 224.452 107.98 224.745H108.181C108.323 224.46 108.528 224.222 108.796 224.029C109.073 223.836 109.462 223.74 109.964 223.74C110.366 223.74 110.722 223.824 111.032 223.991C111.342 224.15 111.589 224.393 111.773 224.72C111.957 225.038 112.049 225.436 112.049 225.913V230.033H110.756V226.014C110.756 225.637 110.651 225.348 110.442 225.147C110.241 224.938 109.952 224.833 109.575 224.833C109.173 224.833 108.851 224.963 108.608 225.222C108.365 225.482 108.244 225.854 108.244 226.34V230.033H106.95V226.014C106.95 225.637 106.845 225.348 106.636 225.147C106.435 224.938 106.146 224.833 105.769 224.833C105.367 224.833 105.045 224.963 104.802 225.222C104.559 225.482 104.438 225.854 104.438 226.34V230.033H103.144ZM119.992 230.209C119.397 230.209 118.857 230.083 118.371 229.832C117.894 229.581 117.513 229.217 117.228 228.739C116.952 228.262 116.814 227.688 116.814 227.018V226.855C116.814 226.185 116.952 225.616 117.228 225.147C117.513 224.67 117.894 224.305 118.371 224.054C118.857 223.795 119.397 223.665 119.992 223.665C120.586 223.665 121.093 223.774 121.511 223.991C121.93 224.209 122.265 224.498 122.516 224.858C122.776 225.218 122.943 225.616 123.019 226.051L121.763 226.315C121.721 226.039 121.633 225.787 121.499 225.561C121.365 225.335 121.176 225.155 120.934 225.021C120.691 224.887 120.385 224.82 120.017 224.82C119.657 224.82 119.33 224.904 119.037 225.072C118.752 225.231 118.526 225.465 118.359 225.775C118.191 226.076 118.107 226.445 118.107 226.88V226.993C118.107 227.429 118.191 227.801 118.359 228.111C118.526 228.421 118.752 228.655 119.037 228.815C119.33 228.974 119.657 229.053 120.017 229.053C120.561 229.053 120.975 228.915 121.26 228.639C121.545 228.354 121.725 227.994 121.8 227.559L123.056 227.847C122.956 228.274 122.776 228.668 122.516 229.028C122.265 229.388 121.93 229.677 121.511 229.895C121.093 230.104 120.586 230.209 119.992 230.209ZM124.548 230.033V221.241H125.842V230.033H124.548ZM130.601 230.209C129.973 230.209 129.424 230.079 128.955 229.819C128.487 229.551 128.118 229.179 127.85 228.702C127.591 228.216 127.461 227.655 127.461 227.018V226.868C127.461 226.223 127.591 225.662 127.85 225.185C128.11 224.699 128.47 224.326 128.93 224.067C129.399 223.799 129.939 223.665 130.551 223.665C131.145 223.665 131.664 223.799 132.108 224.067C132.56 224.326 132.912 224.691 133.163 225.159C133.415 225.628 133.54 226.177 133.54 226.805V227.295H128.78C128.796 227.839 128.976 228.274 129.32 228.601C129.671 228.919 130.107 229.078 130.626 229.078C131.112 229.078 131.476 228.969 131.719 228.752C131.97 228.534 132.163 228.283 132.297 227.998L133.364 228.551C133.247 228.785 133.075 229.032 132.849 229.292C132.632 229.551 132.343 229.769 131.983 229.945C131.623 230.121 131.162 230.209 130.601 230.209ZM128.792 226.302H132.221C132.188 225.834 132.02 225.469 131.719 225.21C131.417 224.942 131.024 224.808 130.538 224.808C130.052 224.808 129.655 224.942 129.345 225.21C129.043 225.469 128.859 225.834 128.792 226.302ZM137.019 230.209C136.575 230.209 136.178 230.133 135.826 229.983C135.483 229.832 135.206 229.61 134.997 229.317C134.796 229.024 134.695 228.668 134.695 228.249C134.695 227.822 134.796 227.471 134.997 227.194C135.206 226.91 135.487 226.696 135.839 226.554C136.199 226.411 136.605 226.34 137.057 226.34H138.941V225.938C138.941 225.578 138.832 225.289 138.614 225.072C138.397 224.854 138.062 224.745 137.61 224.745C137.166 224.745 136.827 224.85 136.592 225.059C136.358 225.268 136.203 225.54 136.127 225.875L134.922 225.486C135.022 225.151 135.181 224.85 135.399 224.582C135.625 224.305 135.922 224.083 136.291 223.916C136.659 223.748 137.103 223.665 137.622 223.665C138.426 223.665 139.058 223.87 139.519 224.28C139.979 224.691 140.21 225.272 140.21 226.026V228.576C140.21 228.827 140.327 228.953 140.561 228.953H141.089V230.033H140.122C139.829 230.033 139.59 229.958 139.406 229.807C139.221 229.656 139.129 229.451 139.129 229.191V229.154H138.941C138.874 229.279 138.774 229.426 138.64 229.593C138.506 229.761 138.309 229.907 138.049 230.033C137.79 230.15 137.446 230.209 137.019 230.209ZM137.208 229.141C137.727 229.141 138.145 228.995 138.464 228.702C138.782 228.4 138.941 227.99 138.941 227.471V227.345H137.132C136.789 227.345 136.513 227.42 136.303 227.571C136.094 227.713 135.989 227.927 135.989 228.212C135.989 228.496 136.098 228.722 136.316 228.89C136.534 229.057 136.831 229.141 137.208 229.141ZM142.347 230.033V223.841H143.615V224.569H143.816C143.917 224.31 144.076 224.121 144.294 224.004C144.52 223.878 144.796 223.815 145.123 223.815H145.864V224.984H145.072C144.654 224.984 144.31 225.101 144.042 225.335C143.774 225.561 143.641 225.913 143.641 226.39V230.033H142.347ZM148.954 230.209C148.51 230.209 148.113 230.133 147.761 229.983C147.418 229.832 147.141 229.61 146.932 229.317C146.731 229.024 146.631 228.668 146.631 228.249C146.631 227.822 146.731 227.471 146.932 227.194C147.141 226.91 147.422 226.696 147.774 226.554C148.134 226.411 148.54 226.34 148.992 226.34H150.876V225.938C150.876 225.578 150.767 225.289 150.549 225.072C150.332 224.854 149.997 224.745 149.545 224.745C149.101 224.745 148.762 224.85 148.527 225.059C148.293 225.268 148.138 225.54 148.062 225.875L146.857 225.486C146.957 225.151 147.116 224.85 147.334 224.582C147.56 224.305 147.857 224.083 148.226 223.916C148.594 223.748 149.038 223.665 149.557 223.665C150.361 223.665 150.993 223.87 151.454 224.28C151.914 224.691 152.145 225.272 152.145 226.026V228.576C152.145 228.827 152.262 228.953 152.496 228.953H153.024V230.033H152.057C151.764 230.033 151.525 229.958 151.341 229.807C151.157 229.656 151.064 229.451 151.064 229.191V229.154H150.876C150.809 229.279 150.709 229.426 150.575 229.593C150.441 229.761 150.244 229.907 149.984 230.033C149.725 230.15 149.381 230.209 148.954 230.209ZM149.143 229.141C149.662 229.141 150.081 228.995 150.399 228.702C150.717 228.4 150.876 227.99 150.876 227.471V227.345H149.067C148.724 227.345 148.448 227.42 148.238 227.571C148.029 227.713 147.924 227.927 147.924 228.212C147.924 228.496 148.033 228.722 148.251 228.89C148.469 229.057 148.766 229.141 149.143 229.141ZM154.282 230.033V223.841H155.55V224.77H155.751C155.869 224.519 156.078 224.284 156.379 224.067C156.681 223.849 157.129 223.74 157.723 223.74C158.192 223.74 158.607 223.845 158.967 224.054C159.335 224.263 159.624 224.561 159.834 224.946C160.043 225.323 160.148 225.779 160.148 226.315V230.033H158.854V226.416C158.854 225.88 158.72 225.486 158.452 225.235C158.184 224.975 157.816 224.845 157.347 224.845C156.811 224.845 156.379 225.021 156.053 225.373C155.735 225.725 155.576 226.235 155.576 226.905V230.033H154.282ZM164.886 230.209C164.291 230.209 163.751 230.083 163.266 229.832C162.788 229.581 162.407 229.217 162.123 228.739C161.846 228.262 161.708 227.688 161.708 227.018V226.855C161.708 226.185 161.846 225.616 162.123 225.147C162.407 224.67 162.788 224.305 163.266 224.054C163.751 223.795 164.291 223.665 164.886 223.665C165.48 223.665 165.987 223.774 166.406 223.991C166.824 224.209 167.159 224.498 167.411 224.858C167.67 225.218 167.838 225.616 167.913 226.051L166.657 226.315C166.615 226.039 166.527 225.787 166.393 225.561C166.259 225.335 166.071 225.155 165.828 225.021C165.585 224.887 165.279 224.82 164.911 224.82C164.551 224.82 164.224 224.904 163.931 225.072C163.647 225.231 163.421 225.465 163.253 225.775C163.086 226.076 163.002 226.445 163.002 226.88V226.993C163.002 227.429 163.086 227.801 163.253 228.111C163.421 228.421 163.647 228.655 163.931 228.815C164.224 228.974 164.551 229.053 164.911 229.053C165.455 229.053 165.87 228.915 166.155 228.639C166.439 228.354 166.619 227.994 166.695 227.559L167.951 227.847C167.85 228.274 167.67 228.668 167.411 229.028C167.159 229.388 166.824 229.677 166.406 229.895C165.987 230.104 165.48 230.209 164.886 230.209ZM172.282 230.209C171.654 230.209 171.105 230.079 170.636 229.819C170.167 229.551 169.799 229.179 169.531 228.702C169.271 228.216 169.141 227.655 169.141 227.018V226.868C169.141 226.223 169.271 225.662 169.531 225.185C169.79 224.699 170.15 224.326 170.611 224.067C171.08 223.799 171.62 223.665 172.231 223.665C172.826 223.665 173.345 223.799 173.789 224.067C174.241 224.326 174.593 224.691 174.844 225.159C175.095 225.628 175.221 226.177 175.221 226.805V227.295H170.46C170.477 227.839 170.657 228.274 171 228.601C171.352 228.919 171.788 229.078 172.307 229.078C172.792 229.078 173.157 228.969 173.399 228.752C173.651 228.534 173.843 228.283 173.977 227.998L175.045 228.551C174.928 228.785 174.756 229.032 174.53 229.292C174.312 229.551 174.023 229.769 173.663 229.945C173.303 230.121 172.843 230.209 172.282 230.209ZM170.473 226.302H173.902C173.868 225.834 173.701 225.469 173.399 225.21C173.098 224.942 172.704 224.808 172.219 224.808C171.733 224.808 171.335 224.942 171.026 225.21C170.724 225.469 170.54 225.834 170.473 226.302Z" fill="#002026"/>
<path d="M68.2333 177.397V168.605H70.8459L73.2325 176.493H73.4334V168.605H74.7774V177.397H72.1648L69.7783 169.497H69.5773V177.397H68.2333ZM79.5504 177.573C78.9307 177.573 78.378 177.448 77.8923 177.196C77.415 176.937 77.0382 176.568 76.7619 176.091C76.4856 175.614 76.3474 175.049 76.3474 174.395V174.207C76.3474 173.554 76.4856 172.993 76.7619 172.524C77.0382 172.047 77.415 171.678 77.8923 171.419C78.378 171.159 78.9307 171.029 79.5504 171.029C80.17 171.029 80.7227 171.159 81.2084 171.419C81.694 171.678 82.075 172.047 82.3514 172.524C82.6277 172.993 82.7659 173.554 82.7659 174.207V174.395C82.7659 175.049 82.6277 175.614 82.3514 176.091C82.075 176.568 81.694 176.937 81.2084 177.196C80.7227 177.448 80.17 177.573 79.5504 177.573ZM79.5504 176.418C80.1198 176.418 80.5803 176.238 80.932 175.878C81.2921 175.509 81.4721 175.003 81.4721 174.358V174.245C81.4721 173.6 81.2963 173.098 80.9446 172.737C80.5929 172.369 80.1281 172.185 79.5504 172.185C78.9893 172.185 78.5288 172.369 78.1687 172.737C77.817 173.098 77.6411 173.6 77.6411 174.245V174.358C77.6411 175.003 77.817 175.509 78.1687 175.878C78.5288 176.238 78.9893 176.418 79.5504 176.418ZM86.4672 177.397C86.0904 177.397 85.789 177.284 85.5629 177.058C85.3451 176.832 85.2363 176.531 85.2363 176.154V172.298H83.528V171.205H85.2363V169.158H86.53V171.205H88.3764V172.298H86.53V175.928C86.53 176.179 86.6473 176.305 86.8817 176.305H88.1755V177.397H86.4672ZM92.5143 177.573C91.8863 177.573 91.3378 177.444 90.8688 177.184C90.3999 176.916 90.0315 176.543 89.7635 176.066C89.5039 175.58 89.3741 175.019 89.3741 174.383V174.232C89.3741 173.587 89.5039 173.026 89.7635 172.549C90.0231 172.063 90.3832 171.691 90.8437 171.431C91.3127 171.163 91.8528 171.029 92.464 171.029C93.0586 171.029 93.5777 171.163 94.0216 171.431C94.4737 171.691 94.8254 172.055 95.0766 172.524C95.3279 172.993 95.4535 173.541 95.4535 174.169V174.659H90.693C90.7097 175.204 90.8898 175.639 91.2331 175.966C91.5848 176.284 92.0202 176.443 92.5394 176.443C93.0251 176.443 93.3893 176.334 93.6322 176.116C93.8834 175.899 94.076 175.647 94.21 175.363L95.2776 175.915C95.1604 176.15 94.9887 176.397 94.7626 176.656C94.5449 176.916 94.256 177.134 93.896 177.31C93.5359 177.485 93.0753 177.573 92.5143 177.573ZM90.7056 173.667H94.1346C94.1011 173.198 93.9336 172.834 93.6322 172.574C93.3307 172.306 92.9372 172.172 92.4515 172.172C91.9658 172.172 91.568 172.306 91.2582 172.574C90.9568 172.834 90.7725 173.198 90.7056 173.667ZM97.7895 177.573C97.4965 177.573 97.2494 177.477 97.0485 177.284C96.8559 177.092 96.7596 176.845 96.7596 176.543C96.7596 176.242 96.8559 175.999 97.0485 175.815C97.2494 175.622 97.4965 175.526 97.7895 175.526C98.0826 175.526 98.3255 175.622 98.5181 175.815C98.719 176.007 98.8195 176.25 98.8195 176.543C98.8195 176.845 98.719 177.092 98.5181 177.284C98.3255 177.477 98.0826 177.573 97.7895 177.573ZM97.7895 173.089C97.4965 173.089 97.2494 172.993 97.0485 172.8C96.8559 172.608 96.7596 172.361 96.7596 172.059C96.7596 171.758 96.8559 171.515 97.0485 171.331C97.2494 171.138 97.4965 171.042 97.7895 171.042C98.0826 171.042 98.3255 171.138 98.5181 171.331C98.719 171.523 98.8195 171.766 98.8195 172.059C98.8195 172.361 98.719 172.608 98.5181 172.8C98.3255 172.993 98.0826 173.089 97.7895 173.089Z" fill="#002026" fill-opacity="0.6"/>
<path d="M49.8216 104.389C49.8216 100.672 52.8343 97.6598 56.5505 97.6598H293.408C297.124 97.6598 300.137 100.672 300.137 104.389V319.714C300.137 323.43 297.124 326.442 293.408 326.442H56.5505C52.8343 326.442 49.8216 323.43 49.8216 319.714V104.389Z" stroke="#002026" stroke-opacity="0.2" stroke-width="0.897187"/>
<defs>
<filter id="filter0_d_1191_51100" x="-8.04666" y="0.763467" width="365.155" height="464.294" filterUnits="userSpaceOnUse" color-interpolation-filters="sRGB">
<feFlood flood-opacity="0" result="BackgroundImageFix"/>
<feColorMatrix in="SourceAlpha" type="matrix" values="0 0 0 0 0 0 0 0 0 0 0 0 0 0 0 0 0 0 127 0" result="hardAlpha"/>
<feMorphology radius="4.48593" operator="dilate" in="SourceAlpha" result="effect1_dropShadow_1191_51100"/>
<feOffset dy="5.38312"/>
<feGaussianBlur stdDeviation="15.7008"/>
<feComposite in2="hardAlpha" operator="out"/>
<feColorMatrix type="matrix" values="0 0 0 0 0 0 0 0 0 0 0 0 0 0 0 0 0 0 0.2 0"/>
<feBlend mode="normal" in2="BackgroundImageFix" result="effect1_dropShadow_1191_51100"/>
<feBlend mode="normal" in="SourceGraphic" in2="effect1_dropShadow_1191_51100" result="shape"/>
</filter>
</defs>
</svg>
