<svg width="69" height="70" viewBox="0 0 69 70" fill="none" xmlns="http://www.w3.org/2000/svg">
<rect y="0.518066" width="69" height="69" rx="14" fill="#92CCBF" fill-opacity="0.2"/>
<ellipse cx="21.5093" cy="31.2859" rx="4.69843" ry="4.71343" fill="#1BC1BF"/>
<ellipse cx="21.5093" cy="42.4263" rx="4.69843" ry="4.71343" fill="#1BC1BF"/>
<ellipse cx="47.3179" cy="27.9851" rx="4.69843" ry="4.71343" fill="#1BC1BF"/>
<ellipse cx="47.3179" cy="39.1254" rx="4.69843" ry="4.71343" fill="#1BC1BF"/>
<ellipse cx="35.1516" cy="35.7488" rx="8.46968" ry="7.11326" fill="#1BC1BF"/>
<path d="M52.4686 23.1666C50.1541 22.2113 47.8379 21.8479 45.5228 21.8479C38.1737 21.8473 30.8252 25.5081 23.4761 25.5081C21.633 25.5081 19.7911 25.278 17.948 24.7026C17.741 24.638 17.5334 24.6075 17.3305 24.6075C16.3036 24.6075 15.4062 25.3895 15.4062 26.4752V45.1028C15.4062 45.8444 15.8376 46.5472 16.5304 46.8326C18.8448 47.7884 21.1611 48.1519 23.4761 48.1519C30.8252 48.1519 38.1743 44.491 45.5234 44.491C47.3665 44.491 49.2084 44.7212 51.0515 45.2966C51.2586 45.3612 51.4662 45.3917 51.6691 45.3917C52.6959 45.3917 53.5933 44.6096 53.5933 43.524V24.8969C53.5927 24.1548 53.1613 23.4526 52.4686 23.1666ZM18.2702 27.7322C19.4707 28.0282 20.7237 28.1767 22.0125 28.2566C21.6617 29.9822 20.1199 31.2827 18.2702 31.2827V27.7322ZM18.2702 44.4658V41.6604C20.321 41.6604 21.9803 43.2616 22.0716 45.2655C20.7273 45.1592 19.4707 44.895 18.2702 44.4658ZM34.4995 40.6364C31.8628 40.6364 29.7262 38.1123 29.7262 34.9999C29.7262 31.8869 31.8634 29.3633 34.4995 29.3633C37.1355 29.3633 39.2728 31.8869 39.2728 34.9999C39.2728 38.1135 37.1349 40.6364 34.4995 40.6364ZM50.7287 42.2675C49.6834 42.0098 48.598 41.8653 47.4876 41.772C47.8379 40.2407 49.1285 39.0782 50.7287 38.8785V42.2675ZM50.7287 28.4045C48.8856 28.1749 47.4554 26.6607 47.3987 24.7907C48.5646 24.9181 49.6714 25.1564 50.7287 25.534V28.4045Z" fill="#002026"/>
</svg>
