<svg width="24" height="24" viewBox="0 0 24 24" fill="none" xmlns="http://www.w3.org/2000/svg">
<rect x="1" y="1" width="22" height="22" rx="11" stroke="#99A6A8" stroke-width="2"/>
<path d="M12 6.27051V17.7288" stroke="#99A6A8" stroke-width="2" stroke-linecap="round" stroke-linejoin="round"/>
<path d="M14.6041 8.35352H10.6979C10.2144 8.35352 9.75078 8.54557 9.40892 8.88743C9.06706 9.22929 8.875 9.69296 8.875 10.1764C8.875 10.6599 9.06706 11.1236 9.40892 11.4654C9.75078 11.8073 10.2144 11.9993 10.6979 11.9993H13.3021C13.7855 11.9993 14.2492 12.1914 14.591 12.5332C14.9329 12.8751 15.125 13.3388 15.125 13.8222C15.125 14.3057 14.9329 14.7694 14.591 15.1112C14.2492 15.4531 13.7855 15.6451 13.3021 15.6451H8.875" stroke="#99A6A8" stroke-width="2" stroke-linecap="round" stroke-linejoin="round"/>
</svg>
