<svg width="472" height="342" viewBox="0 0 472 342" fill="none" xmlns="http://www.w3.org/2000/svg">
<g filter="url(#filter0_d_546_39327)">
<rect x="34.1836" y="29.4949" width="403.633" height="491.636" rx="13.539" fill="white"/>
</g>
<path d="M58.8822 64.8035V54.1415H63.5126C64.1828 54.1415 64.7666 54.2582 65.2642 54.4918C65.7618 54.7253 66.1476 55.0554 66.4218 55.4818C66.6959 55.9083 66.833 56.411 66.833 56.9897V57.1725C66.833 57.8122 66.6807 58.3301 66.3761 58.7261C66.0715 59.1221 65.6957 59.4115 65.249 59.5943V59.8685C65.6551 59.8888 65.9699 60.031 66.1933 60.295C66.4167 60.5488 66.5284 60.889 66.5284 61.3155V64.8035H64.5179V61.6049C64.5179 61.3612 64.4518 61.1632 64.3198 61.0108C64.198 60.8585 63.9898 60.7824 63.6954 60.7824H60.8928V64.8035H58.8822ZM60.8928 58.9546H63.2993C63.7766 58.9546 64.1472 58.8277 64.4112 58.5738C64.6854 58.3098 64.8225 57.9646 64.8225 57.5381V57.3858C64.8225 56.9593 64.6905 56.6191 64.4265 56.3653C64.1625 56.1013 63.7867 55.9692 63.2993 55.9692H60.8928V58.9546ZM72.0092 65.0167C71.2578 65.0167 70.5927 64.8593 70.0139 64.5445C69.4453 64.2196 68.9985 63.7677 68.6735 63.1889C68.3587 62.6 68.2014 61.9095 68.2014 61.1175V60.9347C68.2014 60.1427 68.3587 59.4572 68.6735 58.8784C68.9883 58.2895 69.43 57.8376 69.9987 57.5228C70.5673 57.1979 71.2273 57.0354 71.9787 57.0354C72.72 57.0354 73.3648 57.203 73.9131 57.5381C74.4615 57.863 74.8879 58.32 75.1926 58.9089C75.4972 59.4877 75.6495 60.163 75.6495 60.9347V61.5896H70.151C70.1713 62.1075 70.3642 62.5289 70.7298 62.8538C71.0953 63.1788 71.5421 63.3413 72.0701 63.3413C72.6083 63.3413 73.0043 63.2245 73.2582 62.9909C73.512 62.7574 73.705 62.4984 73.837 62.2141L75.4058 63.0366C75.2637 63.3006 75.0555 63.59 74.7813 63.9048C74.5173 64.2094 74.1619 64.4735 73.7151 64.6968C73.2683 64.9101 72.6997 65.0167 72.0092 65.0167ZM70.1662 60.1579H73.6999C73.6593 59.7213 73.4816 59.3709 73.1668 59.1069C72.8622 58.8429 72.4611 58.7109 71.9635 58.7109C71.4456 58.7109 71.0344 58.8429 70.7298 59.1069C70.4251 59.3709 70.2373 59.7213 70.1662 60.1579ZM83.0238 67.8498V63.9353H82.7496C82.6481 64.1079 82.5008 64.2805 82.3079 64.4531C82.115 64.6156 81.8611 64.7476 81.5463 64.8492C81.2417 64.9609 80.8609 65.0167 80.404 65.0167C79.7947 65.0167 79.2312 64.8695 78.7133 64.575C78.1954 64.2704 77.7791 63.8287 77.4643 63.2499C77.1495 62.6711 76.9921 61.9704 76.9921 61.1479V60.9042C76.9921 60.0817 77.1495 59.3811 77.4643 58.8023C77.7791 58.2235 78.1954 57.7869 78.7133 57.4924C79.2413 57.1878 79.8049 57.0354 80.404 57.0354C81.0945 57.0354 81.6174 57.1522 81.9728 57.3858C82.3384 57.6092 82.6075 57.8681 82.7801 58.1626H83.0542V57.2487H84.9429V67.8498H83.0238ZM80.9828 63.3413C81.5819 63.3413 82.0744 63.1534 82.4602 62.7777C82.8562 62.3918 83.0542 61.8333 83.0542 61.1022V60.9499C83.0542 60.2188 82.8562 59.6654 82.4602 59.2897C82.0642 58.9038 81.5717 58.7109 80.9828 58.7109C80.3938 58.7109 79.9013 58.9038 79.5053 59.2897C79.1093 59.6654 78.9113 60.2188 78.9113 60.9499V61.1022C78.9113 61.8333 79.1093 62.3918 79.5053 62.7777C79.9013 63.1534 80.3938 63.3413 80.9828 63.3413ZM89.9494 64.9253C89.3605 64.9253 88.8426 64.7933 88.3958 64.5293C87.9592 64.2551 87.619 63.8794 87.3753 63.4022C87.1316 62.9249 87.0098 62.3766 87.0098 61.7572V57.2487H88.9289V61.6049C88.9289 62.1735 89.066 62.6 89.3402 62.8843C89.6245 63.1686 90.0256 63.3108 90.5435 63.3108C91.1324 63.3108 91.5894 63.1179 91.9143 62.732C92.2392 62.336 92.4017 61.7876 92.4017 61.087V57.2487H94.3209V64.8035H92.4322V63.8134H92.158C92.0361 64.0673 91.8077 64.3161 91.4726 64.5598C91.1375 64.8035 90.6298 64.9253 89.9494 64.9253ZM99.8988 65.0167C99.1473 65.0167 98.4822 64.8593 97.9035 64.5445C97.3348 64.2196 96.888 63.7677 96.5631 63.1889C96.2483 62.6 96.0909 61.9095 96.0909 61.1175V60.9347C96.0909 60.1427 96.2483 59.4572 96.5631 58.8784C96.8779 58.2895 97.3196 57.8376 97.8882 57.5228C98.4569 57.1979 99.1169 57.0354 99.8683 57.0354C100.61 57.0354 101.254 57.203 101.803 57.5381C102.351 57.863 102.778 58.32 103.082 58.9089C103.387 59.4877 103.539 60.163 103.539 60.9347V61.5896H98.0405C98.0608 62.1075 98.2538 62.5289 98.6193 62.8538C98.9849 63.1788 99.4317 63.3413 99.9597 63.3413C100.498 63.3413 100.894 63.2245 101.148 62.9909C101.402 62.7574 101.595 62.4984 101.727 62.2141L103.295 63.0366C103.153 63.3006 102.945 63.59 102.671 63.9048C102.407 64.2094 102.051 64.4735 101.605 64.6968C101.158 64.9101 100.589 65.0167 99.8988 65.0167ZM98.0558 60.1579H101.589C101.549 59.7213 101.371 59.3709 101.056 59.1069C100.752 58.8429 100.351 58.7109 99.8531 58.7109C99.3352 58.7109 98.924 58.8429 98.6193 59.1069C98.3147 59.3709 98.1268 59.7213 98.0558 60.1579ZM108.385 65.0167C107.4 65.0167 106.593 64.8035 105.963 64.377C105.334 63.9505 104.953 63.3413 104.821 62.5492L106.588 62.0923C106.659 62.4477 106.775 62.7269 106.938 62.93C107.111 63.1331 107.319 63.2803 107.562 63.3717C107.816 63.4529 108.09 63.4936 108.385 63.4936C108.832 63.4936 109.162 63.4174 109.375 63.2651C109.588 63.1026 109.695 62.9046 109.695 62.6711C109.695 62.4375 109.593 62.2598 109.39 62.138C109.187 62.006 108.862 61.8993 108.415 61.8181L107.989 61.742C107.461 61.6404 106.979 61.5033 106.542 61.3307C106.105 61.1479 105.755 60.8991 105.491 60.5844C105.227 60.2696 105.095 59.8634 105.095 59.3659C105.095 58.6144 105.369 58.0407 105.917 57.6447C106.466 57.2385 107.187 57.0354 108.08 57.0354C108.923 57.0354 109.624 57.2233 110.182 57.599C110.741 57.9747 111.106 58.4672 111.279 59.0765L109.497 59.6248C109.416 59.2389 109.248 58.9648 108.994 58.8023C108.75 58.6398 108.446 58.5586 108.08 58.5586C107.715 58.5586 107.436 58.6246 107.243 58.7566C107.05 58.8784 106.953 59.0511 106.953 59.2745C106.953 59.5182 107.055 59.7009 107.258 59.8228C107.461 59.9345 107.735 60.0208 108.08 60.0817L108.507 60.1579C109.075 60.2594 109.588 60.3965 110.045 60.5691C110.512 60.7316 110.878 60.9702 111.142 61.285C111.416 61.5896 111.553 62.006 111.553 62.534C111.553 63.326 111.264 63.9404 110.685 64.377C110.116 64.8035 109.35 65.0167 108.385 65.0167ZM115.98 64.8035C115.482 64.8035 115.076 64.6512 114.762 64.3465C114.457 64.0317 114.305 63.6154 114.305 63.0975V58.8328H112.416V57.2487H114.305V54.903H116.224V57.2487H118.295V58.8328H116.224V62.7625C116.224 63.0671 116.366 63.2194 116.65 63.2194H118.112V64.8035H115.98ZM123.9 64.8035V57.2487H125.788V58.0712H126.063C126.195 57.8173 126.413 57.599 126.718 57.4162C127.022 57.2233 127.423 57.1268 127.921 57.1268C128.459 57.1268 128.891 57.2335 129.216 57.4467C129.54 57.6498 129.789 57.9189 129.962 58.254H130.236C130.409 57.929 130.652 57.6599 130.967 57.4467C131.282 57.2335 131.729 57.1268 132.308 57.1268C132.775 57.1268 133.196 57.2284 133.572 57.4315C133.958 57.6244 134.262 57.9239 134.486 58.3301C134.719 58.7261 134.836 59.2288 134.836 59.838V64.8035H132.917V59.9751C132.917 59.5588 132.81 59.2491 132.597 59.046C132.384 58.8328 132.084 58.7261 131.698 58.7261C131.262 58.7261 130.921 58.8683 130.678 59.1526C130.444 59.4268 130.327 59.8228 130.327 60.3407V64.8035H128.408V59.9751C128.408 59.5588 128.302 59.2491 128.088 59.046C127.875 58.8328 127.576 58.7261 127.19 58.7261C126.753 58.7261 126.413 58.8683 126.169 59.1526C125.936 59.4268 125.819 59.8228 125.819 60.3407V64.8035H123.9ZM140.495 65.0167C139.743 65.0167 139.068 64.8644 138.469 64.5598C137.87 64.2551 137.398 63.8134 137.052 63.2346C136.707 62.6558 136.534 61.9603 136.534 61.1479V60.9042C136.534 60.0919 136.707 59.3963 137.052 58.8175C137.398 58.2387 137.87 57.797 138.469 57.4924C139.068 57.1878 139.743 57.0354 140.495 57.0354C141.246 57.0354 141.921 57.1878 142.52 57.4924C143.12 57.797 143.592 58.2387 143.937 58.8175C144.282 59.3963 144.455 60.0919 144.455 60.9042V61.1479C144.455 61.9603 144.282 62.6558 143.937 63.2346C143.592 63.8134 143.12 64.2551 142.52 64.5598C141.921 64.8644 141.246 65.0167 140.495 65.0167ZM140.495 63.3108C141.084 63.3108 141.571 63.1229 141.957 62.7472C142.343 62.3614 142.536 61.813 142.536 61.1022V60.9499C142.536 60.2391 142.343 59.6959 141.957 59.3202C141.581 58.9343 141.094 58.7414 140.495 58.7414C139.906 58.7414 139.418 58.9343 139.032 59.3202C138.647 59.6959 138.454 60.2391 138.454 60.9499V61.1022C138.454 61.813 138.647 62.3614 139.032 62.7472C139.418 63.1229 139.906 63.3108 140.495 63.3108ZM146.226 64.8035V57.2487H148.115V58.2387H148.389C148.511 57.9747 148.739 57.7259 149.075 57.4924C149.41 57.2487 149.917 57.1268 150.598 57.1268C151.187 57.1268 151.699 57.2639 152.136 57.5381C152.583 57.8021 152.928 58.1727 153.172 58.65C153.416 59.1171 153.537 59.6654 153.537 60.295V64.8035H151.618V60.4473C151.618 59.8786 151.476 59.4522 151.192 59.1678C150.918 58.8835 150.522 58.7414 150.004 58.7414C149.415 58.7414 148.958 58.9394 148.633 59.3354C148.308 59.7213 148.145 60.2645 148.145 60.9651V64.8035H146.226ZM159.054 65.0167C158.303 65.0167 157.638 64.8593 157.059 64.5445C156.49 64.2196 156.044 63.7677 155.719 63.1889C155.404 62.6 155.247 61.9095 155.247 61.1175V60.9347C155.247 60.1427 155.404 59.4572 155.719 58.8784C156.033 58.2895 156.475 57.8376 157.044 57.5228C157.612 57.1979 158.272 57.0354 159.024 57.0354C159.765 57.0354 160.41 57.203 160.958 57.5381C161.507 57.863 161.933 58.32 162.238 58.9089C162.542 59.4877 162.695 60.163 162.695 60.9347V61.5896H157.196C157.216 62.1075 157.409 62.5289 157.775 62.8538C158.14 63.1788 158.587 63.3413 159.115 63.3413C159.653 63.3413 160.049 63.2245 160.303 62.9909C160.557 62.7574 160.75 62.4984 160.882 62.2141L162.451 63.0366C162.309 63.3006 162.101 63.59 161.826 63.9048C161.562 64.2094 161.207 64.4735 160.76 64.6968C160.314 64.9101 159.745 65.0167 159.054 65.0167ZM157.211 60.1579H160.745C160.704 59.7213 160.527 59.3709 160.212 59.1069C159.907 58.8429 159.506 58.7109 159.009 58.7109C158.491 58.7109 158.08 58.8429 157.775 59.1069C157.47 59.3709 157.282 59.7213 157.211 60.1579ZM165.225 67.8498V66.1743H169.338C169.622 66.1743 169.764 66.022 169.764 65.7174V63.8134H169.49C169.409 63.986 169.282 64.1587 169.109 64.3313C168.937 64.5039 168.703 64.6461 168.409 64.7578C168.114 64.8695 167.739 64.9253 167.282 64.9253C166.693 64.9253 166.175 64.7933 165.728 64.5293C165.291 64.2551 164.951 63.8794 164.707 63.4022C164.464 62.9249 164.342 62.3766 164.342 61.7572V57.2487H166.261V61.6049C166.261 62.1735 166.398 62.6 166.672 62.8843C166.957 63.1686 167.358 63.3108 167.876 63.3108C168.465 63.3108 168.922 63.1179 169.246 62.732C169.571 62.336 169.734 61.7876 169.734 61.087V57.2487H171.653V66.1438C171.653 66.6617 171.501 67.0729 171.196 67.3776C170.891 67.6924 170.485 67.8498 169.978 67.8498H165.225Z" fill="#002026"/>
<rect x="387.045" y="46.4187" width="27.0781" height="27.0781" rx="13.539" fill="#92CCBF" fill-opacity="0.1"/>
<path d="M405.661 55.7267L396.353 65.0348" stroke="#92CCBF" stroke-width="1.69238" stroke-linecap="round" stroke-linejoin="round"/>
<path d="M396.353 55.7267L405.661 65.0348" stroke="#92CCBF" stroke-width="1.69238" stroke-linecap="round" stroke-linejoin="round"/>
<path d="M34.1836 91.2666H437.816" stroke="#002026" stroke-opacity="0.1" stroke-width="0.84619"/>
<path d="M65.0696 114.96H407.776C411.281 114.96 414.123 117.801 414.123 121.307V390.76C414.123 394.265 411.281 397.106 407.776 397.106H65.0696C61.5645 397.106 58.7231 394.265 58.7231 390.76V121.307C58.7231 117.801 61.5645 114.96 65.0696 114.96Z" stroke="#002026" stroke-opacity="0.2" stroke-width="0.84619"/>
<path d="M136.434 151.23L139.142 141.753H141.714L144.408 151.23H142.905L142.283 148.996H138.573L137.95 151.23H136.434ZM138.938 147.642H141.917L140.536 142.66H140.319L138.938 147.642ZM145.733 151.23V144.555H147.1V145.341H147.317C147.443 145.106 147.646 144.898 147.926 144.718C148.206 144.537 148.585 144.447 149.063 144.447C149.56 144.447 149.957 144.551 150.255 144.758C150.562 144.957 150.792 145.214 150.945 145.53H151.162C151.315 145.223 151.537 144.966 151.825 144.758C152.123 144.551 152.543 144.447 153.085 144.447C153.518 144.447 153.901 144.537 154.235 144.718C154.569 144.889 154.836 145.151 155.034 145.503C155.233 145.846 155.332 146.275 155.332 146.789V151.23H153.937V146.898C153.937 146.491 153.825 146.18 153.599 145.963C153.382 145.738 153.071 145.625 152.665 145.625C152.232 145.625 151.884 145.765 151.622 146.045C151.361 146.324 151.23 146.726 151.23 147.25V151.23H149.835V146.898C149.835 146.491 149.722 146.18 149.497 145.963C149.28 145.738 148.969 145.625 148.562 145.625C148.129 145.625 147.782 145.765 147.52 146.045C147.258 146.324 147.127 146.726 147.127 147.25V151.23H145.733ZM160.469 151.42C159.801 151.42 159.205 151.284 158.682 151.013C158.167 150.734 157.761 150.337 157.463 149.822C157.165 149.308 157.017 148.698 157.017 147.994V147.791C157.017 147.087 157.165 146.482 157.463 145.977C157.761 145.462 158.167 145.065 158.682 144.786C159.205 144.506 159.801 144.366 160.469 144.366C161.137 144.366 161.733 144.506 162.256 144.786C162.78 145.065 163.19 145.462 163.488 145.977C163.786 146.482 163.935 147.087 163.935 147.791V147.994C163.935 148.698 163.786 149.308 163.488 149.822C163.19 150.337 162.78 150.734 162.256 151.013C161.733 151.284 161.137 151.42 160.469 151.42ZM160.469 150.174C161.083 150.174 161.579 149.98 161.958 149.592C162.346 149.195 162.54 148.649 162.54 147.954V147.832C162.54 147.137 162.351 146.595 161.972 146.207C161.593 145.81 161.092 145.611 160.469 145.611C159.864 145.611 159.368 145.81 158.98 146.207C158.601 146.595 158.411 147.137 158.411 147.832V147.954C158.411 148.649 158.601 149.195 158.98 149.592C159.368 149.98 159.864 150.174 160.469 150.174ZM168.23 151.352C167.725 151.352 167.273 151.239 166.876 151.013C166.479 150.788 166.168 150.467 165.942 150.052C165.716 149.637 165.603 149.141 165.603 148.563V144.555H166.998V148.468C166.998 149.046 167.142 149.475 167.431 149.754C167.72 150.025 168.122 150.161 168.636 150.161C169.205 150.161 169.661 149.971 170.004 149.592C170.356 149.204 170.532 148.649 170.532 147.927V144.555H171.926V151.23H170.559V150.228H170.342C170.216 150.499 169.99 150.756 169.665 151C169.34 151.235 168.862 151.352 168.23 151.352ZM173.988 151.23V144.555H175.355V145.557H175.572C175.698 145.286 175.924 145.034 176.249 144.799C176.574 144.564 177.056 144.447 177.697 144.447C178.203 144.447 178.65 144.56 179.038 144.786C179.435 145.011 179.746 145.332 179.972 145.747C180.198 146.153 180.31 146.645 180.31 147.223V151.23H178.916V147.331C178.916 146.753 178.771 146.329 178.483 146.058C178.194 145.778 177.797 145.638 177.291 145.638C176.713 145.638 176.249 145.828 175.897 146.207C175.554 146.586 175.382 147.137 175.382 147.859V151.23H173.988ZM184.637 151.23C184.231 151.23 183.906 151.108 183.662 150.865C183.427 150.621 183.31 150.296 183.31 149.89V145.733H181.469V144.555H183.31V142.348H184.705V144.555H186.695V145.733H184.705V149.646C184.705 149.917 184.831 150.052 185.084 150.052H186.478V151.23H184.637ZM191.784 151.23V144.555H193.152V145.341H193.368C193.476 145.061 193.648 144.858 193.883 144.731C194.126 144.596 194.424 144.528 194.776 144.528H195.575V145.787H194.722C194.271 145.787 193.901 145.914 193.612 146.167C193.323 146.41 193.179 146.789 193.179 147.304V151.23H191.784ZM199.842 151.42C199.165 151.42 198.574 151.28 198.068 151C197.563 150.711 197.165 150.309 196.877 149.795C196.597 149.271 196.457 148.667 196.457 147.981V147.818C196.457 147.123 196.597 146.519 196.877 146.004C197.156 145.481 197.545 145.079 198.041 144.799C198.546 144.51 199.129 144.366 199.788 144.366C200.428 144.366 200.988 144.51 201.466 144.799C201.954 145.079 202.333 145.471 202.604 145.977C202.874 146.482 203.01 147.074 203.01 147.751V148.279H197.879C197.897 148.865 198.091 149.335 198.461 149.687C198.84 150.03 199.309 150.201 199.869 150.201C200.392 150.201 200.785 150.084 201.047 149.849C201.317 149.614 201.525 149.344 201.669 149.037L202.82 149.632C202.694 149.885 202.509 150.151 202.265 150.431C202.031 150.711 201.719 150.946 201.331 151.135C200.943 151.325 200.446 151.42 199.842 151.42ZM197.892 147.209H201.588C201.552 146.704 201.372 146.311 201.047 146.031C200.722 145.742 200.298 145.598 199.774 145.598C199.25 145.598 198.822 145.742 198.488 146.031C198.163 146.311 197.964 146.704 197.892 147.209ZM209.915 153.938V150.323H209.698C209.599 150.504 209.454 150.68 209.265 150.851C209.075 151.013 208.831 151.149 208.534 151.257C208.245 151.365 207.884 151.42 207.45 151.42C206.891 151.42 206.376 151.284 205.907 151.013C205.438 150.743 205.063 150.355 204.783 149.849C204.503 149.335 204.364 148.716 204.364 147.994V147.791C204.364 147.069 204.503 146.455 204.783 145.95C205.072 145.435 205.451 145.043 205.921 144.772C206.39 144.501 206.9 144.366 207.45 144.366C208.1 144.366 208.597 144.483 208.94 144.718C209.292 144.953 209.553 145.219 209.725 145.517H209.942V144.555H211.309V153.938H209.915ZM207.843 150.201C208.457 150.201 208.958 150.007 209.346 149.619C209.734 149.231 209.928 148.676 209.928 147.954V147.832C209.928 147.119 209.729 146.568 209.332 146.18C208.944 145.792 208.448 145.598 207.843 145.598C207.247 145.598 206.751 145.792 206.354 146.18C205.966 146.568 205.772 147.119 205.772 147.832V147.954C205.772 148.676 205.966 149.231 206.354 149.619C206.751 150.007 207.247 150.201 207.843 150.201ZM215.921 151.352C215.415 151.352 214.964 151.239 214.567 151.013C214.17 150.788 213.858 150.467 213.633 150.052C213.407 149.637 213.294 149.141 213.294 148.563V144.555H214.689V148.468C214.689 149.046 214.833 149.475 215.122 149.754C215.411 150.025 215.812 150.161 216.327 150.161C216.896 150.161 217.351 149.971 217.694 149.592C218.046 149.204 218.222 148.649 218.222 147.927V144.555H219.617V151.23H218.249V150.228H218.033C217.907 150.499 217.681 150.756 217.356 151C217.031 151.235 216.553 151.352 215.921 151.352ZM224.738 151.42C224.061 151.42 223.47 151.28 222.965 151C222.459 150.711 222.062 150.309 221.773 149.795C221.493 149.271 221.353 148.667 221.353 147.981V147.818C221.353 147.123 221.493 146.519 221.773 146.004C222.053 145.481 222.441 145.079 222.937 144.799C223.443 144.51 224.025 144.366 224.684 144.366C225.325 144.366 225.884 144.51 226.363 144.799C226.85 145.079 227.229 145.471 227.5 145.977C227.771 146.482 227.906 147.074 227.906 147.751V148.279H222.775C222.793 148.865 222.987 149.335 223.357 149.687C223.736 150.03 224.206 150.201 224.765 150.201C225.289 150.201 225.681 150.084 225.943 149.849C226.214 149.614 226.422 149.344 226.566 149.037L227.717 149.632C227.59 149.885 227.405 150.151 227.162 150.431C226.927 150.711 226.616 150.946 226.227 151.135C225.839 151.325 225.343 151.42 224.738 151.42ZM222.789 147.209H226.485C226.449 146.704 226.268 146.311 225.943 146.031C225.618 145.742 225.194 145.598 224.67 145.598C224.147 145.598 223.718 145.742 223.384 146.031C223.059 146.311 222.861 146.704 222.789 147.209ZM232.32 151.42C231.471 151.42 230.767 151.23 230.208 150.851C229.648 150.472 229.305 149.899 229.179 149.132L230.479 148.82C230.551 149.19 230.673 149.484 230.844 149.7C231.016 149.917 231.228 150.07 231.48 150.161C231.742 150.251 232.022 150.296 232.32 150.296C232.762 150.296 233.101 150.21 233.335 150.039C233.579 149.867 233.701 149.646 233.701 149.375C233.701 149.104 233.588 148.906 233.362 148.78C233.137 148.653 232.803 148.549 232.36 148.468L231.9 148.387C231.449 148.306 231.038 148.188 230.668 148.035C230.298 147.881 230.005 147.669 229.788 147.399C229.571 147.128 229.463 146.78 229.463 146.356C229.463 145.724 229.698 145.237 230.167 144.894C230.636 144.542 231.259 144.366 232.036 144.366C232.785 144.366 233.398 144.537 233.877 144.88C234.364 145.214 234.68 145.67 234.825 146.248L233.525 146.613C233.444 146.207 233.272 145.923 233.01 145.76C232.749 145.589 232.424 145.503 232.036 145.503C231.656 145.503 231.359 145.575 231.142 145.72C230.925 145.855 230.817 146.049 230.817 146.302C230.817 146.573 230.921 146.771 231.128 146.898C231.345 147.024 231.634 147.119 231.995 147.182L232.469 147.263C232.947 147.344 233.385 147.457 233.782 147.602C234.179 147.746 234.491 147.954 234.716 148.224C234.951 148.495 235.068 148.856 235.068 149.308C235.068 149.975 234.82 150.494 234.324 150.865C233.827 151.235 233.159 151.42 232.32 151.42ZM239.058 151.23C238.651 151.23 238.326 151.108 238.083 150.865C237.848 150.621 237.731 150.296 237.731 149.89V145.733H235.889V144.555H237.731V142.348H239.125V144.555H241.115V145.733H239.125V149.646C239.125 149.917 239.252 150.052 239.504 150.052H240.899V151.23H239.058ZM245.576 151.42C244.899 151.42 244.307 151.28 243.802 151C243.297 150.711 242.899 150.309 242.611 149.795C242.331 149.271 242.191 148.667 242.191 147.981V147.818C242.191 147.123 242.331 146.519 242.611 146.004C242.89 145.481 243.278 145.079 243.775 144.799C244.28 144.51 244.863 144.366 245.521 144.366C246.162 144.366 246.722 144.51 247.2 144.799C247.688 145.079 248.067 145.471 248.338 145.977C248.608 146.482 248.744 147.074 248.744 147.751V148.279H243.612C243.631 148.865 243.825 149.335 244.195 149.687C244.574 150.03 245.043 150.201 245.603 150.201C246.126 150.201 246.519 150.084 246.781 149.849C247.051 149.614 247.259 149.344 247.403 149.037L248.554 149.632C248.428 149.885 248.243 150.151 247.999 150.431C247.764 150.711 247.453 150.946 247.065 151.135C246.677 151.325 246.18 151.42 245.576 151.42ZM243.626 147.209H247.322C247.286 146.704 247.106 146.311 246.781 146.031C246.456 145.742 246.031 145.598 245.508 145.598C244.984 145.598 244.556 145.742 244.222 146.031C243.897 146.311 243.698 146.704 243.626 147.209ZM253.184 151.42C252.634 151.42 252.124 151.284 251.654 151.013C251.185 150.743 250.806 150.355 250.517 149.849C250.237 149.335 250.097 148.716 250.097 147.994V147.791C250.097 147.078 250.237 146.464 250.517 145.95C250.797 145.435 251.172 145.043 251.641 144.772C252.11 144.501 252.625 144.366 253.184 144.366C253.618 144.366 253.979 144.42 254.267 144.528C254.565 144.637 254.809 144.776 254.999 144.948C255.188 145.11 255.333 145.282 255.432 145.462H255.648V141.753H257.043V151.23H255.676V150.282H255.459C255.287 150.571 255.026 150.833 254.674 151.068C254.331 151.302 253.834 151.42 253.184 151.42ZM253.577 150.201C254.182 150.201 254.678 150.007 255.066 149.619C255.463 149.231 255.662 148.676 255.662 147.954V147.832C255.662 147.119 255.468 146.568 255.08 146.18C254.692 145.792 254.191 145.598 253.577 145.598C252.981 145.598 252.485 145.792 252.088 146.18C251.7 146.568 251.505 147.119 251.505 147.832V147.954C251.505 148.676 251.7 149.231 252.088 149.619C252.485 150.007 252.981 150.201 253.577 150.201ZM259.935 151.42C259.619 151.42 259.353 151.316 259.136 151.108C258.929 150.901 258.825 150.634 258.825 150.309C258.825 149.985 258.929 149.723 259.136 149.524C259.353 149.317 259.619 149.213 259.935 149.213C260.251 149.213 260.513 149.317 260.721 149.524C260.937 149.732 261.045 149.994 261.045 150.309C261.045 150.634 260.937 150.901 260.721 151.108C260.513 151.316 260.251 151.42 259.935 151.42ZM259.935 146.586C259.619 146.586 259.353 146.482 259.136 146.275C258.929 146.067 258.825 145.801 258.825 145.476C258.825 145.151 258.929 144.889 259.136 144.691C259.353 144.483 259.619 144.379 259.935 144.379C260.251 144.379 260.513 144.483 260.721 144.691C260.937 144.898 261.045 145.16 261.045 145.476C261.045 145.801 260.937 146.067 260.721 146.275C260.513 146.482 260.251 146.586 259.935 146.586Z" fill="#002026" fill-opacity="0.4"/>
<path d="M139.834 174.089C139.21 174.089 138.657 173.979 138.175 173.758C137.693 173.536 137.314 173.213 137.038 172.786C136.769 172.352 136.635 171.827 136.635 171.211V170.914H137.903V171.211C137.903 171.795 138.076 172.233 138.424 172.526C138.779 172.818 139.249 172.964 139.834 172.964C140.426 172.964 140.872 172.841 141.172 172.597C141.473 172.344 141.623 172.02 141.623 171.625C141.623 171.365 141.551 171.151 141.409 170.985C141.275 170.82 141.078 170.689 140.817 170.595C140.556 170.492 140.244 170.397 139.881 170.31L139.443 170.204C138.914 170.077 138.456 169.923 138.069 169.742C137.682 169.552 137.381 169.303 137.168 168.995C136.955 168.687 136.848 168.292 136.848 167.811C136.848 167.321 136.967 166.902 137.204 166.555C137.441 166.207 137.772 165.939 138.199 165.749C138.625 165.56 139.127 165.465 139.703 165.465C140.28 165.465 140.793 165.564 141.243 165.761C141.702 165.959 142.061 166.251 142.322 166.638C142.59 167.025 142.724 167.51 142.724 168.095V168.521H141.457V168.095C141.457 167.74 141.382 167.451 141.232 167.23C141.089 167.009 140.884 166.847 140.616 166.744C140.355 166.642 140.051 166.59 139.703 166.59C139.198 166.59 138.807 166.697 138.531 166.91C138.254 167.116 138.116 167.404 138.116 167.775C138.116 168.028 138.175 168.237 138.294 168.403C138.42 168.561 138.602 168.691 138.839 168.794C139.076 168.897 139.368 168.987 139.715 169.066L140.154 169.173C140.691 169.291 141.164 169.445 141.575 169.635C141.986 169.817 142.306 170.065 142.535 170.381C142.772 170.697 142.89 171.104 142.89 171.602C142.89 172.099 142.764 172.533 142.511 172.905C142.266 173.276 141.915 173.568 141.457 173.781C140.999 173.987 140.458 174.089 139.834 174.089ZM139.241 175.298V164.257H140.414V175.298H139.241ZM146.413 173.923V166.507H146.224L144.861 169.303H143.546L145.382 165.631H147.657V173.923H146.413ZM152.331 174.089C151.368 174.089 150.598 173.817 150.021 173.272C149.453 172.719 149.168 171.89 149.168 170.784V168.77C149.168 167.688 149.453 166.867 150.021 166.306C150.598 165.745 151.368 165.465 152.331 165.465C153.303 165.465 154.073 165.745 154.641 166.306C155.218 166.867 155.506 167.688 155.506 168.77V170.784C155.506 171.89 155.218 172.719 154.641 173.272C154.073 173.817 153.303 174.089 152.331 174.089ZM152.331 172.976C152.987 172.976 153.473 172.79 153.788 172.419C154.104 172.04 154.262 171.511 154.262 170.831V168.699C154.262 168.02 154.093 167.499 153.753 167.135C153.413 166.764 152.939 166.579 152.331 166.579C151.715 166.579 151.241 166.768 150.91 167.147C150.578 167.518 150.412 168.036 150.412 168.699V170.831C150.412 171.526 150.57 172.06 150.886 172.431C151.21 172.794 151.692 172.976 152.331 172.976ZM159.967 174.089C159.003 174.089 158.233 173.817 157.657 173.272C157.088 172.719 156.804 171.89 156.804 170.784V168.77C156.804 167.688 157.088 166.867 157.657 166.306C158.233 165.745 159.003 165.465 159.967 165.465C160.938 165.465 161.708 165.745 162.277 166.306C162.853 166.867 163.142 167.688 163.142 168.77V170.784C163.142 171.89 162.853 172.719 162.277 173.272C161.708 173.817 160.938 174.089 159.967 174.089ZM159.967 172.976C160.622 172.976 161.108 172.79 161.424 172.419C161.74 172.04 161.898 171.511 161.898 170.831V168.699C161.898 168.02 161.728 167.499 161.388 167.135C161.049 166.764 160.575 166.579 159.967 166.579C159.351 166.579 158.877 166.768 158.545 167.147C158.214 167.518 158.048 168.036 158.048 168.699V170.831C158.048 171.526 158.206 172.06 158.522 172.431C158.845 172.794 159.327 172.976 159.967 172.976ZM164.538 175.535V174.836H164.941C165.265 174.836 165.426 174.674 165.426 174.35V173.971H165.249C164.972 173.971 164.743 173.888 164.562 173.722C164.38 173.556 164.289 173.347 164.289 173.094C164.289 172.818 164.38 172.597 164.562 172.431C164.743 172.257 164.972 172.17 165.249 172.17C165.525 172.17 165.75 172.261 165.924 172.443C166.106 172.616 166.197 172.845 166.197 173.13V174.362C166.197 175.144 165.806 175.535 165.024 175.535H164.538ZM170.518 174.089C169.554 174.089 168.784 173.817 168.208 173.272C167.639 172.719 167.355 171.89 167.355 170.784V168.77C167.355 167.688 167.639 166.867 168.208 166.306C168.784 165.745 169.554 165.465 170.518 165.465C171.489 165.465 172.259 165.745 172.828 166.306C173.404 166.867 173.693 167.688 173.693 168.77V170.784C173.693 171.89 173.404 172.719 172.828 173.272C172.259 173.817 171.489 174.089 170.518 174.089ZM170.518 172.976C171.173 172.976 171.659 172.79 171.975 172.419C172.291 172.04 172.449 171.511 172.449 170.831V168.699C172.449 168.02 172.279 167.499 171.939 167.135C171.6 166.764 171.126 166.579 170.518 166.579C169.902 166.579 169.428 166.768 169.096 167.147C168.764 167.518 168.599 168.036 168.599 168.699V170.831C168.599 171.526 168.757 172.06 169.072 172.431C169.396 172.794 169.878 172.976 170.518 172.976ZM178.153 174.089C177.19 174.089 176.42 173.817 175.843 173.272C175.275 172.719 174.99 171.89 174.99 170.784V168.77C174.99 167.688 175.275 166.867 175.843 166.306C176.42 165.745 177.19 165.465 178.153 165.465C179.125 165.465 179.895 165.745 180.463 166.306C181.04 166.867 181.328 167.688 181.328 168.77V170.784C181.328 171.89 181.04 172.719 180.463 173.272C179.895 173.817 179.125 174.089 178.153 174.089ZM178.153 172.976C178.809 172.976 179.295 172.79 179.61 172.419C179.926 172.04 180.084 171.511 180.084 170.831V168.699C180.084 168.02 179.915 167.499 179.575 167.135C179.235 166.764 178.761 166.579 178.153 166.579C177.537 166.579 177.063 166.768 176.732 167.147C176.4 167.518 176.234 168.036 176.234 168.699V170.831C176.234 171.526 176.392 172.06 176.708 172.431C177.032 172.794 177.514 172.976 178.153 172.976ZM185.789 174.089C184.825 174.089 184.055 173.817 183.479 173.272C182.91 172.719 182.626 171.89 182.626 170.784V168.77C182.626 167.688 182.91 166.867 183.479 166.306C184.055 165.745 184.825 165.465 185.789 165.465C186.76 165.465 187.53 165.745 188.099 166.306C188.675 166.867 188.964 167.688 188.964 168.77V170.784C188.964 171.89 188.675 172.719 188.099 173.272C187.53 173.817 186.76 174.089 185.789 174.089ZM185.789 172.976C186.444 172.976 186.93 172.79 187.246 172.419C187.562 172.04 187.72 171.511 187.72 170.831V168.699C187.72 168.02 187.55 167.499 187.21 167.135C186.871 166.764 186.397 166.579 185.789 166.579C185.173 166.579 184.699 166.768 184.367 167.147C184.036 167.518 183.87 168.036 183.87 168.699V170.831C183.87 171.526 184.028 172.06 184.344 172.431C184.667 172.794 185.149 172.976 185.789 172.976Z" fill="#002026"/>
<path d="M137.138 222.315V212.838H139.954L142.526 221.34H142.743V212.838H144.192V222.315H141.375L138.803 213.799H138.586V222.315H137.138ZM149.336 222.504C148.668 222.504 148.073 222.369 147.549 222.098C147.035 221.819 146.629 221.421 146.331 220.907C146.033 220.392 145.884 219.783 145.884 219.079V218.876C145.884 218.172 146.033 217.567 146.331 217.062C146.629 216.547 147.035 216.15 147.549 215.87C148.073 215.591 148.668 215.451 149.336 215.451C150.004 215.451 150.6 215.591 151.123 215.87C151.647 216.15 152.058 216.547 152.356 217.062C152.653 217.567 152.802 218.172 152.802 218.876V219.079C152.802 219.783 152.653 220.392 152.356 220.907C152.058 221.421 151.647 221.819 151.123 222.098C150.6 222.369 150.004 222.504 149.336 222.504ZM149.336 221.259C149.95 221.259 150.447 221.065 150.826 220.677C151.214 220.28 151.408 219.733 151.408 219.038V218.917C151.408 218.222 151.218 217.68 150.839 217.292C150.46 216.895 149.959 216.696 149.336 216.696C148.732 216.696 148.235 216.895 147.847 217.292C147.468 217.68 147.278 218.222 147.278 218.917V219.038C147.278 219.733 147.468 220.28 147.847 220.677C148.235 221.065 148.732 221.259 149.336 221.259ZM156.792 222.315C156.386 222.315 156.061 222.193 155.817 221.949C155.583 221.706 155.465 221.381 155.465 220.975V216.818H153.624V215.64H155.465V213.433H156.86V215.64H158.85V216.818H156.86V220.731C156.86 221.002 156.986 221.137 157.239 221.137H158.633V222.315H156.792ZM163.31 222.504C162.633 222.504 162.042 222.365 161.536 222.085C161.031 221.796 160.634 221.394 160.345 220.88C160.065 220.356 159.925 219.752 159.925 219.066V218.903C159.925 218.208 160.065 217.603 160.345 217.089C160.625 216.565 161.013 216.164 161.509 215.884C162.015 215.595 162.597 215.451 163.256 215.451C163.897 215.451 164.456 215.595 164.935 215.884C165.422 216.164 165.801 216.556 166.072 217.062C166.343 217.567 166.478 218.158 166.478 218.835V219.363H161.347C161.365 219.95 161.559 220.419 161.929 220.771C162.308 221.114 162.778 221.286 163.337 221.286C163.861 221.286 164.253 221.169 164.515 220.934C164.786 220.699 164.993 220.429 165.138 220.122L166.289 220.717C166.162 220.97 165.977 221.236 165.734 221.516C165.499 221.796 165.188 222.031 164.799 222.22C164.411 222.41 163.915 222.504 163.31 222.504ZM161.36 218.294H165.057C165.021 217.788 164.84 217.396 164.515 217.116C164.19 216.827 163.766 216.683 163.242 216.683C162.719 216.683 162.29 216.827 161.956 217.116C161.631 217.396 161.433 217.788 161.36 218.294ZM168.996 222.504C168.68 222.504 168.414 222.401 168.197 222.193C167.99 221.985 167.886 221.719 167.886 221.394C167.886 221.069 167.99 220.808 168.197 220.609C168.414 220.401 168.68 220.298 168.996 220.298C169.312 220.298 169.574 220.401 169.782 220.609C169.998 220.817 170.106 221.078 170.106 221.394C170.106 221.719 169.998 221.985 169.782 222.193C169.574 222.401 169.312 222.504 168.996 222.504ZM168.996 217.671C168.68 217.671 168.414 217.567 168.197 217.36C167.99 217.152 167.886 216.886 167.886 216.561C167.886 216.236 167.99 215.974 168.197 215.776C168.414 215.568 168.68 215.464 168.996 215.464C169.312 215.464 169.574 215.568 169.782 215.776C169.998 215.983 170.106 216.245 170.106 216.561C170.106 216.886 169.998 217.152 169.782 217.36C169.574 217.567 169.312 217.671 168.996 217.671Z" fill="#002026" fill-opacity="0.4"/>
<path d="M139.834 245.174C139.21 245.174 138.657 245.064 138.175 244.843C137.693 244.621 137.314 244.298 137.038 243.871C136.769 243.437 136.635 242.912 136.635 242.296V241.999H137.903V242.296C137.903 242.88 138.076 243.318 138.424 243.611C138.779 243.903 139.249 244.049 139.834 244.049C140.426 244.049 140.872 243.926 141.172 243.682C141.473 243.429 141.623 243.105 141.623 242.71C141.623 242.45 141.551 242.236 141.409 242.07C141.267 241.905 141.066 241.774 140.805 241.68C140.545 241.577 140.233 241.482 139.869 241.395L139.431 241.289C138.902 241.162 138.44 241.008 138.045 240.827C137.658 240.637 137.358 240.388 137.145 240.08C136.931 239.772 136.825 239.377 136.825 238.896C136.825 238.406 136.943 237.987 137.18 237.64C137.425 237.292 137.761 237.024 138.187 236.834C138.614 236.645 139.115 236.55 139.692 236.55C140.268 236.55 140.781 236.649 141.232 236.846C141.69 237.044 142.049 237.336 142.31 237.723C142.57 238.11 142.701 238.595 142.701 239.18V239.606H141.433V239.18C141.433 238.824 141.358 238.536 141.208 238.315C141.066 238.094 140.864 237.932 140.604 237.829C140.343 237.727 140.039 237.675 139.692 237.675C139.186 237.675 138.791 237.782 138.507 237.995C138.23 238.201 138.092 238.489 138.092 238.86C138.092 239.113 138.151 239.322 138.27 239.488C138.396 239.646 138.578 239.776 138.815 239.879C139.052 239.981 139.348 240.072 139.703 240.151L140.142 240.258C140.679 240.376 141.153 240.53 141.563 240.72C141.974 240.902 142.298 241.15 142.535 241.466C142.772 241.782 142.89 242.189 142.89 242.686C142.89 243.184 142.764 243.618 142.511 243.99C142.266 244.361 141.915 244.653 141.457 244.866C140.999 245.072 140.458 245.174 139.834 245.174ZM146.946 245.174C146.354 245.174 145.837 245.052 145.394 244.807C144.952 244.554 144.604 244.203 144.352 243.753C144.107 243.295 143.984 242.765 143.984 242.165V242.023C143.984 241.415 144.107 240.886 144.352 240.436C144.597 239.978 144.936 239.626 145.371 239.381C145.813 239.129 146.322 239.002 146.899 239.002C147.46 239.002 147.949 239.129 148.368 239.381C148.794 239.626 149.126 239.97 149.363 240.412C149.6 240.854 149.718 241.371 149.718 241.964V242.426H145.228C145.244 242.939 145.414 243.35 145.738 243.658C146.07 243.958 146.48 244.108 146.97 244.108C147.428 244.108 147.771 244.005 148.001 243.8C148.237 243.595 148.419 243.358 148.545 243.089L149.552 243.611C149.442 243.832 149.28 244.065 149.067 244.309C148.861 244.554 148.589 244.76 148.249 244.925C147.91 245.091 147.475 245.174 146.946 245.174ZM145.24 241.49H148.474C148.443 241.048 148.285 240.704 148.001 240.459C147.716 240.207 147.345 240.08 146.887 240.08C146.429 240.08 146.054 240.207 145.761 240.459C145.477 240.704 145.303 241.048 145.24 241.49ZM153.379 245.008C153.023 245.008 152.739 244.902 152.526 244.689C152.32 244.475 152.218 244.191 152.218 243.836V240.199H150.607V239.168H152.218V237.237H153.438V239.168H154.812V240.199H153.438V243.622C153.438 243.859 153.549 243.978 153.77 243.978H154.99V245.008H153.379ZM157.217 245.008C156.862 245.008 156.577 244.902 156.364 244.689C156.151 244.475 156.044 244.191 156.044 243.836V240.199H154.812V239.168H156.044V237.237H157.264V239.168H159.018V240.199H157.264V243.622C157.264 243.859 157.379 243.978 157.608 243.978H158.816V245.008H157.217ZM160.454 245.008V236.716H161.674V245.008H160.454ZM166.162 245.174C165.57 245.174 165.053 245.052 164.61 244.807C164.168 244.554 163.821 244.203 163.568 243.753C163.323 243.295 163.201 242.765 163.201 242.165V242.023C163.201 241.415 163.323 240.886 163.568 240.436C163.813 239.978 164.152 239.626 164.587 239.381C165.029 239.129 165.538 239.002 166.115 239.002C166.676 239.002 167.165 239.129 167.584 239.381C168.01 239.626 168.342 239.97 168.579 240.412C168.816 240.854 168.934 241.371 168.934 241.964V242.426H164.445C164.46 242.939 164.63 243.35 164.954 243.658C165.286 243.958 165.696 244.108 166.186 244.108C166.644 244.108 166.988 244.005 167.217 243.8C167.454 243.595 167.635 243.358 167.762 243.089L168.769 243.611C168.658 243.832 168.496 244.065 168.283 244.309C168.077 244.554 167.805 244.76 167.465 244.925C167.126 245.091 166.691 245.174 166.162 245.174ZM164.456 241.49H167.69C167.659 241.048 167.501 240.704 167.217 240.459C166.932 240.207 166.561 240.08 166.103 240.08C165.645 240.08 165.27 240.207 164.978 240.459C164.693 240.704 164.52 241.048 164.456 241.49ZM170.403 245.008V239.168H171.6V239.855H171.789C171.9 239.65 172.078 239.468 172.322 239.31C172.567 239.152 172.899 239.073 173.317 239.073C173.752 239.073 174.099 239.164 174.36 239.346C174.628 239.519 174.83 239.745 174.964 240.021H175.154C175.288 239.752 175.481 239.527 175.734 239.346C175.995 239.164 176.362 239.073 176.836 239.073C177.215 239.073 177.551 239.152 177.843 239.31C178.135 239.46 178.368 239.689 178.542 239.997C178.716 240.297 178.802 240.673 178.802 241.123V245.008H177.582V241.217C177.582 240.862 177.484 240.59 177.286 240.4C177.097 240.203 176.824 240.104 176.469 240.104C176.09 240.104 175.786 240.226 175.556 240.471C175.327 240.716 175.213 241.067 175.213 241.526V245.008H173.993V241.217C173.993 240.862 173.894 240.59 173.697 240.4C173.507 240.203 173.235 240.104 172.879 240.104C172.5 240.104 172.196 240.226 171.967 240.471C171.738 240.716 171.623 241.067 171.623 241.526V245.008H170.403ZM183.238 245.174C182.646 245.174 182.128 245.052 181.686 244.807C181.244 244.554 180.896 244.203 180.644 243.753C180.399 243.295 180.276 242.765 180.276 242.165V242.023C180.276 241.415 180.399 240.886 180.644 240.436C180.889 239.978 181.228 239.626 181.663 239.381C182.105 239.129 182.614 239.002 183.191 239.002C183.751 239.002 184.241 239.129 184.66 239.381C185.086 239.626 185.418 239.97 185.655 240.412C185.892 240.854 186.01 241.371 186.01 241.964V242.426H181.52C181.536 242.939 181.706 243.35 182.03 243.658C182.361 243.958 182.772 244.108 183.262 244.108C183.72 244.108 184.063 244.005 184.292 243.8C184.529 243.595 184.711 243.358 184.837 243.089L185.844 243.611C185.734 243.832 185.572 244.065 185.359 244.309C185.153 244.554 184.881 244.76 184.541 244.925C184.202 245.091 183.767 245.174 183.238 245.174ZM181.532 241.49H184.766C184.735 241.048 184.577 240.704 184.292 240.459C184.008 240.207 183.637 240.08 183.179 240.08C182.721 240.08 182.346 240.207 182.053 240.459C181.769 240.704 181.595 241.048 181.532 241.49ZM187.479 245.008V239.168H188.676V240.045H188.865C188.976 239.808 189.173 239.587 189.457 239.381C189.742 239.176 190.164 239.073 190.725 239.073C191.167 239.073 191.558 239.172 191.898 239.369C192.245 239.567 192.518 239.847 192.715 240.211C192.913 240.566 193.011 240.996 193.011 241.502V245.008H191.791V241.597C191.791 241.091 191.665 240.72 191.412 240.483C191.159 240.238 190.812 240.116 190.37 240.116C189.864 240.116 189.457 240.282 189.149 240.613C188.849 240.945 188.699 241.427 188.699 242.059V245.008H187.479ZM196.797 245.008C196.442 245.008 196.157 244.902 195.944 244.689C195.739 244.475 195.636 244.191 195.636 243.836V240.199H194.025V239.168H195.636V237.237H196.856V239.168H198.598V240.199H196.856V243.622C196.856 243.859 196.967 243.978 197.188 243.978H198.408V245.008H196.797ZM204.105 245.008V240.199H202.47V239.168H204.105V237.889C204.105 237.533 204.212 237.249 204.425 237.036C204.638 236.822 204.923 236.716 205.278 236.716H206.783V237.746H205.669C205.44 237.746 205.325 237.865 205.325 238.102V239.168H207.008V240.199H205.325V245.008H204.105ZM210.751 245.174C210.166 245.174 209.645 245.056 209.187 244.819C208.737 244.574 208.381 244.227 208.121 243.776C207.86 243.326 207.73 242.793 207.73 242.177V241.999C207.73 241.383 207.86 240.854 208.121 240.412C208.381 239.962 208.737 239.614 209.187 239.369C209.645 239.125 210.166 239.002 210.751 239.002C211.335 239.002 211.856 239.125 212.314 239.369C212.772 239.614 213.132 239.962 213.392 240.412C213.653 240.854 213.783 241.383 213.783 241.999V242.177C213.783 242.793 213.653 243.326 213.392 243.776C213.132 244.227 212.772 244.574 212.314 244.819C211.856 245.056 211.335 245.174 210.751 245.174ZM210.751 244.084C211.288 244.084 211.722 243.915 212.054 243.575C212.393 243.227 212.563 242.75 212.563 242.142V242.035C212.563 241.427 212.397 240.953 212.066 240.613C211.734 240.266 211.296 240.092 210.751 240.092C210.221 240.092 209.787 240.266 209.447 240.613C209.116 240.953 208.95 241.427 208.95 242.035V242.142C208.95 242.75 209.116 243.227 209.447 243.575C209.787 243.915 210.221 244.084 210.751 244.084ZM215.302 245.008V239.168H216.499V239.855H216.689C216.783 239.61 216.933 239.433 217.139 239.322C217.352 239.204 217.613 239.144 217.921 239.144H218.62V240.246H217.873C217.478 240.246 217.155 240.357 216.902 240.578C216.649 240.791 216.523 241.123 216.523 241.573V245.008H215.302ZM225.095 245.008C224.74 245.008 224.455 244.902 224.242 244.689C224.037 244.475 223.934 244.191 223.934 243.836V240.199H222.323V239.168H223.934V237.237H225.154V239.168H226.896V240.199H225.154V243.622C225.154 243.859 225.265 243.978 225.486 243.978H226.706V245.008H225.095ZM228.329 245.008V236.716H229.549V239.997H229.739C229.818 239.847 229.928 239.701 230.071 239.559C230.221 239.417 230.414 239.302 230.651 239.215C230.896 239.121 231.204 239.073 231.575 239.073C232.017 239.073 232.408 239.172 232.748 239.369C233.095 239.567 233.368 239.847 233.565 240.211C233.763 240.566 233.862 240.996 233.862 241.502V245.008H232.641V241.597C232.641 241.091 232.515 240.72 232.262 240.483C232.01 240.238 231.662 240.116 231.22 240.116C230.714 240.116 230.308 240.282 230 240.613C229.699 240.945 229.549 241.427 229.549 242.059V245.008H228.329ZM238.295 245.174C237.703 245.174 237.185 245.052 236.743 244.807C236.301 244.554 235.953 244.203 235.701 243.753C235.456 243.295 235.333 242.765 235.333 242.165V242.023C235.333 241.415 235.456 240.886 235.701 240.436C235.945 239.978 236.285 239.626 236.719 239.381C237.162 239.129 237.671 239.002 238.248 239.002C238.808 239.002 239.298 239.129 239.717 239.381C240.143 239.626 240.475 239.97 240.712 240.412C240.949 240.854 241.067 241.371 241.067 241.964V242.426H236.577C236.593 242.939 236.763 243.35 237.087 243.658C237.418 243.958 237.829 244.108 238.319 244.108C238.777 244.108 239.12 244.005 239.349 243.8C239.586 243.595 239.768 243.358 239.894 243.089L240.901 243.611C240.791 243.832 240.629 244.065 240.416 244.309C240.21 244.554 239.938 244.76 239.598 244.925C239.259 245.091 238.824 245.174 238.295 245.174ZM236.589 241.49H239.823C239.792 241.048 239.634 240.704 239.349 240.459C239.065 240.207 238.694 240.08 238.236 240.08C237.778 240.08 237.403 240.207 237.11 240.459C236.826 240.704 236.652 241.048 236.589 241.49ZM245.271 242.118V241.94C245.271 241.324 245.394 240.799 245.638 240.365C245.891 239.93 246.223 239.595 246.633 239.358C247.044 239.121 247.494 239.002 247.984 239.002C248.553 239.002 248.987 239.109 249.287 239.322C249.595 239.535 249.82 239.764 249.962 240.009H250.152V239.168H251.337V246.205C251.337 246.56 251.23 246.845 251.017 247.058C250.811 247.271 250.527 247.378 250.164 247.378H246.231V246.312H249.785C250.014 246.312 250.128 246.193 250.128 245.956V244.096H249.939C249.852 244.238 249.729 244.384 249.571 244.535C249.413 244.685 249.204 244.807 248.944 244.902C248.691 244.997 248.371 245.044 247.984 245.044C247.494 245.044 247.04 244.929 246.622 244.7C246.211 244.463 245.883 244.128 245.638 243.693C245.394 243.251 245.271 242.726 245.271 242.118ZM248.316 243.978C248.845 243.978 249.279 243.812 249.619 243.48C249.966 243.141 250.14 242.675 250.14 242.082V241.976C250.14 241.368 249.97 240.902 249.631 240.578C249.291 240.246 248.853 240.08 248.316 240.08C247.794 240.08 247.36 240.246 247.013 240.578C246.673 240.902 246.503 241.368 246.503 241.976V242.082C246.503 242.675 246.673 243.141 247.013 243.48C247.36 243.812 247.794 243.978 248.316 243.978ZM255.87 245.174C255.285 245.174 254.764 245.056 254.306 244.819C253.856 244.574 253.5 244.227 253.24 243.776C252.979 243.326 252.849 242.793 252.849 242.177V241.999C252.849 241.383 252.979 240.854 253.24 240.412C253.5 239.962 253.856 239.614 254.306 239.369C254.764 239.125 255.285 239.002 255.87 239.002C256.454 239.002 256.975 239.125 257.433 239.369C257.892 239.614 258.251 239.962 258.511 240.412C258.772 240.854 258.902 241.383 258.902 241.999V242.177C258.902 242.793 258.772 243.326 258.511 243.776C258.251 244.227 257.892 244.574 257.433 244.819C256.975 245.056 256.454 245.174 255.87 245.174ZM255.87 244.084C256.407 244.084 256.841 243.915 257.173 243.575C257.512 243.227 257.682 242.75 257.682 242.142V242.035C257.682 241.427 257.516 240.953 257.185 240.613C256.853 240.266 256.415 240.092 255.87 240.092C255.341 240.092 254.906 240.266 254.567 240.613C254.235 240.953 254.069 241.427 254.069 242.035V242.142C254.069 242.75 254.235 243.227 254.567 243.575C254.906 243.915 255.341 244.084 255.87 244.084ZM263.158 245.174C262.574 245.174 262.052 245.056 261.594 244.819C261.144 244.574 260.789 244.227 260.528 243.776C260.268 243.326 260.137 242.793 260.137 242.177V241.999C260.137 241.383 260.268 240.854 260.528 240.412C260.789 239.962 261.144 239.614 261.594 239.369C262.052 239.125 262.574 239.002 263.158 239.002C263.743 239.002 264.264 239.125 264.722 239.369C265.18 239.614 265.539 239.962 265.8 240.412C266.061 240.854 266.191 241.383 266.191 241.999V242.177C266.191 242.793 266.061 243.326 265.8 243.776C265.539 244.227 265.18 244.574 264.722 244.819C264.264 245.056 263.743 245.174 263.158 245.174ZM263.158 244.084C263.695 244.084 264.13 243.915 264.461 243.575C264.801 243.227 264.971 242.75 264.971 242.142V242.035C264.971 241.427 264.805 240.953 264.473 240.613C264.141 240.266 263.703 240.092 263.158 240.092C262.629 240.092 262.195 240.266 261.855 240.613C261.523 240.953 261.357 241.427 261.357 242.035V242.142C261.357 242.75 261.523 243.227 261.855 243.575C262.195 243.915 262.629 244.084 263.158 244.084ZM270.127 245.174C269.645 245.174 269.199 245.056 268.788 244.819C268.377 244.582 268.046 244.242 267.793 243.8C267.548 243.35 267.426 242.809 267.426 242.177V241.999C267.426 241.375 267.548 240.838 267.793 240.388C268.038 239.938 268.366 239.595 268.776 239.358C269.187 239.121 269.637 239.002 270.127 239.002C270.506 239.002 270.822 239.05 271.075 239.144C271.335 239.239 271.548 239.362 271.714 239.512C271.88 239.654 272.006 239.804 272.093 239.962H272.283V236.716H273.503V245.008H272.307V244.179H272.117C271.967 244.432 271.738 244.661 271.43 244.866C271.13 245.072 270.695 245.174 270.127 245.174ZM270.47 244.108C270.999 244.108 271.434 243.938 271.773 243.599C272.121 243.259 272.295 242.773 272.295 242.142V242.035C272.295 241.411 272.125 240.929 271.785 240.59C271.446 240.25 271.007 240.08 270.47 240.08C269.949 240.08 269.515 240.25 269.167 240.59C268.828 240.929 268.658 241.411 268.658 242.035V242.142C268.658 242.773 268.828 243.259 269.167 243.599C269.515 243.938 269.949 244.108 270.47 244.108ZM277.692 245.174C276.95 245.174 276.334 245.008 275.844 244.677C275.355 244.345 275.054 243.844 274.944 243.172L276.081 242.9C276.144 243.224 276.251 243.48 276.401 243.67C276.551 243.859 276.737 243.994 276.958 244.073C277.187 244.152 277.432 244.191 277.692 244.191C278.079 244.191 278.375 244.116 278.581 243.966C278.794 243.816 278.901 243.622 278.901 243.385C278.901 243.148 278.802 242.975 278.605 242.864C278.407 242.754 278.115 242.663 277.728 242.592L277.325 242.521C276.93 242.45 276.571 242.347 276.247 242.213C275.923 242.078 275.667 241.893 275.477 241.656C275.287 241.419 275.193 241.115 275.193 240.744C275.193 240.191 275.398 239.764 275.809 239.464C276.219 239.156 276.764 239.002 277.444 239.002C278.099 239.002 278.636 239.152 279.055 239.452C279.481 239.745 279.758 240.143 279.884 240.649L278.747 240.969C278.676 240.613 278.526 240.365 278.297 240.222C278.067 240.072 277.783 239.997 277.444 239.997C277.112 239.997 276.851 240.06 276.662 240.187C276.472 240.305 276.377 240.475 276.377 240.696C276.377 240.933 276.468 241.107 276.65 241.217C276.839 241.328 277.092 241.411 277.408 241.466L277.823 241.537C278.241 241.608 278.624 241.707 278.972 241.834C279.319 241.96 279.592 242.142 279.789 242.378C279.995 242.615 280.097 242.931 280.097 243.326C280.097 243.911 279.88 244.365 279.446 244.689C279.011 245.012 278.427 245.174 277.692 245.174ZM287.256 245.174C286.695 245.174 286.186 245.056 285.728 244.819C285.277 244.582 284.918 244.238 284.65 243.788C284.389 243.338 284.259 242.797 284.259 242.165V242.011C284.259 241.379 284.389 240.842 284.65 240.4C284.918 239.95 285.277 239.606 285.728 239.369C286.186 239.125 286.695 239.002 287.256 239.002C287.817 239.002 288.294 239.105 288.689 239.31C289.084 239.516 289.4 239.788 289.637 240.128C289.882 240.467 290.04 240.842 290.111 241.253L288.926 241.502C288.887 241.241 288.804 241.004 288.677 240.791C288.551 240.578 288.373 240.408 288.144 240.282C287.915 240.155 287.627 240.092 287.28 240.092C286.94 240.092 286.632 240.171 286.355 240.329C286.087 240.479 285.874 240.7 285.716 240.992C285.558 241.277 285.479 241.624 285.479 242.035V242.142C285.479 242.552 285.558 242.904 285.716 243.196C285.874 243.488 286.087 243.709 286.355 243.859C286.632 244.009 286.94 244.084 287.28 244.084C287.793 244.084 288.184 243.954 288.452 243.693C288.721 243.425 288.891 243.085 288.962 242.675L290.146 242.947C290.052 243.35 289.882 243.721 289.637 244.061C289.4 244.4 289.084 244.673 288.689 244.878C288.294 245.076 287.817 245.174 287.256 245.174ZM294.29 245.174C293.706 245.174 293.185 245.056 292.727 244.819C292.276 244.574 291.921 244.227 291.66 243.776C291.4 243.326 291.269 242.793 291.269 242.177V241.999C291.269 241.383 291.4 240.854 291.66 240.412C291.921 239.962 292.276 239.614 292.727 239.369C293.185 239.125 293.706 239.002 294.29 239.002C294.875 239.002 295.396 239.125 295.854 239.369C296.312 239.614 296.672 239.962 296.932 240.412C297.193 240.854 297.323 241.383 297.323 241.999V242.177C297.323 242.793 297.193 243.326 296.932 243.776C296.672 244.227 296.312 244.574 295.854 244.819C295.396 245.056 294.875 245.174 294.29 245.174ZM294.29 244.084C294.827 244.084 295.262 243.915 295.593 243.575C295.933 243.227 296.103 242.75 296.103 242.142V242.035C296.103 241.427 295.937 240.953 295.605 240.613C295.274 240.266 294.835 240.092 294.29 240.092C293.761 240.092 293.327 240.266 292.987 240.613C292.655 240.953 292.49 241.427 292.49 242.035V242.142C292.49 242.75 292.655 243.227 292.987 243.575C293.327 243.915 293.761 244.084 294.29 244.084ZM298.842 245.008V239.168H300.039V239.855H300.228C300.339 239.65 300.517 239.468 300.761 239.31C301.006 239.152 301.338 239.073 301.757 239.073C302.191 239.073 302.538 239.164 302.799 239.346C303.068 239.519 303.269 239.745 303.403 240.021H303.593C303.727 239.752 303.921 239.527 304.173 239.346C304.434 239.164 304.801 239.073 305.275 239.073C305.654 239.073 305.99 239.152 306.282 239.31C306.574 239.46 306.807 239.689 306.981 239.997C307.155 240.297 307.242 240.673 307.242 241.123V245.008H306.021V241.217C306.021 240.862 305.923 240.59 305.725 240.4C305.536 240.203 305.263 240.104 304.908 240.104C304.529 240.104 304.225 240.226 303.996 240.471C303.767 240.716 303.652 241.067 303.652 241.526V245.008H302.432V241.217C302.432 240.862 302.333 240.59 302.136 240.4C301.946 240.203 301.674 240.104 301.318 240.104C300.939 240.104 300.635 240.226 300.406 240.471C300.177 240.716 300.062 241.067 300.062 241.526V245.008H298.842ZM309 245.008V239.168H310.22V245.008H309ZM309.616 238.374C309.379 238.374 309.178 238.299 309.012 238.149C308.854 237.991 308.775 237.79 308.775 237.545C308.775 237.3 308.854 237.103 309.012 236.953C309.178 236.795 309.379 236.716 309.616 236.716C309.861 236.716 310.062 236.795 310.22 236.953C310.378 237.103 310.457 237.3 310.457 237.545C310.457 237.79 310.378 237.991 310.22 238.149C310.062 238.299 309.861 238.374 309.616 238.374ZM312.031 245.008V239.168H313.227V240.045H313.417C313.528 239.808 313.725 239.587 314.009 239.381C314.294 239.176 314.716 239.073 315.277 239.073C315.719 239.073 316.11 239.172 316.45 239.369C316.797 239.567 317.07 239.847 317.267 240.211C317.465 240.566 317.563 240.996 317.563 241.502V245.008H316.343V241.597C316.343 241.091 316.217 240.72 315.964 240.483C315.711 240.238 315.364 240.116 314.921 240.116C314.416 240.116 314.009 240.282 313.701 240.613C313.401 240.945 313.251 241.427 313.251 242.059V245.008H312.031ZM319.035 242.118V241.94C319.035 241.324 319.157 240.799 319.402 240.365C319.655 239.93 319.987 239.595 320.397 239.358C320.808 239.121 321.258 239.002 321.748 239.002C322.317 239.002 322.751 239.109 323.051 239.322C323.359 239.535 323.584 239.764 323.726 240.009H323.916V239.168H325.101V246.205C325.101 246.56 324.994 246.845 324.781 247.058C324.575 247.271 324.291 247.378 323.928 247.378H319.995V246.312H323.549C323.778 246.312 323.892 246.193 323.892 245.956V244.096H323.703C323.616 244.238 323.493 244.384 323.335 244.535C323.177 244.685 322.968 244.807 322.708 244.902C322.455 244.997 322.135 245.044 321.748 245.044C321.258 245.044 320.804 244.929 320.386 244.7C319.975 244.463 319.647 244.128 319.402 243.693C319.157 243.251 319.035 242.726 319.035 242.118ZM322.08 243.978C322.609 243.978 323.043 243.812 323.383 243.48C323.73 243.141 323.904 242.675 323.904 242.082V241.976C323.904 241.368 323.734 240.902 323.395 240.578C323.055 240.246 322.617 240.08 322.08 240.08C321.558 240.08 321.124 240.246 320.777 240.578C320.437 240.902 320.267 241.368 320.267 241.976V242.082C320.267 242.675 320.437 243.141 320.777 243.48C321.124 243.812 321.558 243.978 322.08 243.978ZM329.917 245.008V239.168H331.137V245.008H329.917ZM330.533 238.374C330.296 238.374 330.094 238.299 329.928 238.149C329.77 237.991 329.691 237.79 329.691 237.545C329.691 237.3 329.77 237.103 329.928 236.953C330.094 236.795 330.296 236.716 330.533 236.716C330.777 236.716 330.979 236.795 331.137 236.953C331.295 237.103 331.374 237.3 331.374 237.545C331.374 237.79 331.295 237.991 331.137 238.149C330.979 238.299 330.777 238.374 330.533 238.374ZM332.948 245.008V239.168H334.144V240.045H334.334C334.444 239.808 334.642 239.587 334.926 239.381C335.21 239.176 335.633 239.073 336.194 239.073C336.636 239.073 337.027 239.172 337.366 239.369C337.714 239.567 337.986 239.847 338.184 240.211C338.381 240.566 338.48 240.996 338.48 241.502V245.008H337.26V241.597C337.26 241.091 337.133 240.72 336.881 240.483C336.628 240.238 336.281 240.116 335.838 240.116C335.333 240.116 334.926 240.282 334.618 240.613C334.318 240.945 334.168 241.427 334.168 242.059V245.008H332.948ZM344.31 245.008V240.199H342.675V239.168H344.31V237.889C344.31 237.533 344.417 237.249 344.63 237.036C344.843 236.822 345.127 236.716 345.483 236.716H346.987V237.746H345.874C345.645 237.746 345.53 237.865 345.53 238.102V239.168H347.212V240.199H345.53V245.008H344.31ZM348.462 245.008V239.168H349.658V239.855H349.848C349.943 239.61 350.093 239.433 350.298 239.322C350.511 239.204 350.772 239.144 351.08 239.144H351.779V240.246H351.032C350.638 240.246 350.314 240.357 350.061 240.578C349.808 240.791 349.682 241.123 349.682 241.573V245.008H348.462ZM355.571 245.174C354.987 245.174 354.466 245.056 354.008 244.819C353.557 244.574 353.202 244.227 352.941 243.776C352.681 243.326 352.55 242.793 352.55 242.177V241.999C352.55 241.383 352.681 240.854 352.941 240.412C353.202 239.962 353.557 239.614 354.008 239.369C354.466 239.125 354.987 239.002 355.571 239.002C356.156 239.002 356.677 239.125 357.135 239.369C357.593 239.614 357.953 239.962 358.213 240.412C358.474 240.854 358.604 241.383 358.604 241.999V242.177C358.604 242.793 358.474 243.326 358.213 243.776C357.953 244.227 357.593 244.574 357.135 244.819C356.677 245.056 356.156 245.174 355.571 245.174ZM355.571 244.084C356.108 244.084 356.543 243.915 356.874 243.575C357.214 243.227 357.384 242.75 357.384 242.142V242.035C357.384 241.427 357.218 240.953 356.886 240.613C356.555 240.266 356.116 240.092 355.571 240.092C355.042 240.092 354.608 240.266 354.268 240.613C353.937 240.953 353.771 241.427 353.771 242.035V242.142C353.771 242.75 353.937 243.227 354.268 243.575C354.608 243.915 355.042 244.084 355.571 244.084ZM360.123 245.008V239.168H361.32V239.855H361.509C361.62 239.65 361.798 239.468 362.042 239.31C362.287 239.152 362.619 239.073 363.038 239.073C363.472 239.073 363.819 239.164 364.08 239.346C364.349 239.519 364.55 239.745 364.684 240.021H364.874C365.008 239.752 365.201 239.527 365.454 239.346C365.715 239.164 366.082 239.073 366.556 239.073C366.935 239.073 367.271 239.152 367.563 239.31C367.855 239.46 368.088 239.689 368.262 239.997C368.436 240.297 368.523 240.673 368.523 241.123V245.008H367.302V241.217C367.302 240.862 367.204 240.59 367.006 240.4C366.817 240.203 366.544 240.104 366.189 240.104C365.81 240.104 365.506 240.226 365.277 240.471C365.047 240.716 364.933 241.067 364.933 241.526V245.008H363.713V241.217C363.713 240.862 363.614 240.59 363.417 240.4C363.227 240.203 362.955 240.104 362.599 240.104C362.22 240.104 361.916 240.226 361.687 240.471C361.458 240.716 361.343 241.067 361.343 241.526V245.008H360.123ZM137.014 260.008V251.716H138.294V260.008H137.014ZM142.249 260.008C141.894 260.008 141.61 259.902 141.396 259.689C141.191 259.475 141.088 259.191 141.088 258.836V255.199H139.477V254.168H141.088V252.237H142.309V254.168H144.05V255.199H142.309V258.622C142.309 258.859 142.419 258.978 142.64 258.978H143.86V260.008H142.249ZM147.285 260.174C146.866 260.174 146.491 260.103 146.159 259.961C145.835 259.819 145.575 259.61 145.377 259.333C145.188 259.057 145.093 258.721 145.093 258.326C145.093 257.923 145.188 257.592 145.377 257.331C145.575 257.063 145.839 256.861 146.171 256.727C146.511 256.593 146.894 256.526 147.32 256.526H149.097V256.146C149.097 255.807 148.994 255.534 148.789 255.329C148.584 255.124 148.268 255.021 147.841 255.021C147.423 255.021 147.103 255.12 146.882 255.317C146.661 255.515 146.514 255.771 146.443 256.087L145.306 255.72C145.401 255.404 145.551 255.12 145.756 254.867C145.97 254.606 146.25 254.397 146.597 254.239C146.945 254.081 147.364 254.002 147.853 254.002C148.611 254.002 149.208 254.196 149.642 254.583C150.076 254.97 150.294 255.519 150.294 256.229V258.634C150.294 258.871 150.404 258.99 150.625 258.99H151.123V260.008H150.211C149.934 260.008 149.709 259.937 149.535 259.795C149.362 259.653 149.275 259.46 149.275 259.215V259.179H149.097C149.034 259.298 148.939 259.436 148.813 259.594C148.686 259.752 148.501 259.89 148.256 260.008C148.011 260.119 147.687 260.174 147.285 260.174ZM147.462 259.167C147.952 259.167 148.347 259.029 148.647 258.753C148.947 258.468 149.097 258.081 149.097 257.592V257.473H147.391C147.067 257.473 146.807 257.544 146.609 257.686C146.412 257.821 146.313 258.022 146.313 258.291C146.313 258.559 146.416 258.772 146.621 258.93C146.826 259.088 147.107 259.167 147.462 259.167ZM152.309 260.008V251.716H153.529V260.008H152.309ZM156.016 262.378V261.312H159.273C159.495 261.312 159.605 261.193 159.605 260.956V259.155H159.416C159.345 259.313 159.234 259.467 159.084 259.617C158.942 259.76 158.748 259.878 158.503 259.973C158.259 260.068 157.951 260.115 157.579 260.115C157.137 260.115 156.742 260.016 156.395 259.819C156.047 259.621 155.775 259.341 155.577 258.978C155.38 258.614 155.281 258.184 155.281 257.686V254.168H156.501V257.592C156.501 258.097 156.628 258.472 156.88 258.717C157.133 258.954 157.485 259.073 157.935 259.073C158.432 259.073 158.831 258.907 159.131 258.575C159.439 258.243 159.593 257.762 159.593 257.13V254.168H160.814V261.205C160.814 261.56 160.707 261.845 160.494 262.058C160.288 262.271 160.004 262.378 159.641 262.378H156.016ZM165.637 260.008V254.168H166.833V255.045H167.023C167.133 254.808 167.331 254.587 167.615 254.381C167.899 254.176 168.322 254.073 168.883 254.073C169.325 254.073 169.716 254.172 170.056 254.369C170.403 254.567 170.676 254.847 170.873 255.211C171.07 255.566 171.169 255.996 171.169 256.502V260.008H169.949V256.597C169.949 256.091 169.823 255.72 169.57 255.483C169.317 255.238 168.97 255.116 168.527 255.116C168.022 255.116 167.615 255.282 167.307 255.613C167.007 255.945 166.857 256.427 166.857 257.059V260.008H165.637ZM175.603 260.174C175.01 260.174 174.493 260.052 174.051 259.807C173.608 259.554 173.261 259.203 173.008 258.753C172.763 258.295 172.641 257.765 172.641 257.165V257.023C172.641 256.415 172.763 255.886 173.008 255.436C173.253 254.978 173.593 254.626 174.027 254.381C174.469 254.129 174.979 254.002 175.555 254.002C176.116 254.002 176.606 254.129 177.024 254.381C177.451 254.626 177.782 254.97 178.019 255.412C178.256 255.854 178.375 256.371 178.375 256.964V257.426H173.885C173.901 257.939 174.07 258.35 174.394 258.658C174.726 258.958 175.137 259.108 175.626 259.108C176.084 259.108 176.428 259.005 176.657 258.8C176.894 258.595 177.076 258.358 177.202 258.089L178.209 258.611C178.098 258.832 177.936 259.065 177.723 259.309C177.518 259.554 177.245 259.76 176.906 259.925C176.566 260.091 176.132 260.174 175.603 260.174ZM173.897 256.49H177.131C177.099 256.048 176.941 255.704 176.657 255.459C176.373 255.207 176.001 255.08 175.543 255.08C175.085 255.08 174.71 255.207 174.418 255.459C174.134 255.704 173.96 256.048 173.897 256.49ZM178.964 260.008L181.191 257.059L179.012 254.168H180.445L181.973 256.265H182.163L183.691 254.168H185.136L182.945 257.059L185.172 260.008H183.715L182.163 257.864H181.973L180.421 260.008H178.964ZM188.676 260.008C188.32 260.008 188.036 259.902 187.823 259.689C187.617 259.475 187.515 259.191 187.515 258.836V255.199H185.904V254.168H187.515V252.237H188.735V254.168H190.476V255.199H188.735V258.622C188.735 258.859 188.846 258.978 189.067 258.978H190.287V260.008H188.676ZM195.569 260.008L194.574 254.168H195.794L196.529 259.191H196.718L197.737 254.168H199.716L200.722 259.191H200.912L201.647 254.168H202.867L201.872 260.008H199.822L198.815 254.997H198.626L197.619 260.008H195.569ZM206.92 260.174C206.328 260.174 205.81 260.052 205.368 259.807C204.926 259.554 204.578 259.203 204.325 258.753C204.081 258.295 203.958 257.765 203.958 257.165V257.023C203.958 256.415 204.081 255.886 204.325 255.436C204.57 254.978 204.91 254.626 205.344 254.381C205.787 254.129 206.296 254.002 206.872 254.002C207.433 254.002 207.923 254.129 208.341 254.381C208.768 254.626 209.1 254.97 209.337 255.412C209.574 255.854 209.692 256.371 209.692 256.964V257.426H205.202C205.218 257.939 205.388 258.35 205.712 258.658C206.043 258.958 206.454 259.108 206.944 259.108C207.402 259.108 207.745 259.005 207.974 258.8C208.211 258.595 208.393 258.358 208.519 258.089L209.526 258.611C209.416 258.832 209.254 259.065 209.04 259.309C208.835 259.554 208.563 259.76 208.223 259.925C207.883 260.091 207.449 260.174 206.92 260.174ZM205.214 256.49H208.448C208.416 256.048 208.259 255.704 207.974 255.459C207.69 255.207 207.319 255.08 206.861 255.08C206.403 255.08 206.027 255.207 205.735 255.459C205.451 255.704 205.277 256.048 205.214 256.49ZM213.838 260.174C213.246 260.174 212.728 260.052 212.286 259.807C211.844 259.554 211.496 259.203 211.244 258.753C210.999 258.295 210.876 257.765 210.876 257.165V257.023C210.876 256.415 210.999 255.886 211.244 255.436C211.489 254.978 211.828 254.626 212.263 254.381C212.705 254.129 213.214 254.002 213.791 254.002C214.351 254.002 214.841 254.129 215.26 254.381C215.686 254.626 216.018 254.97 216.255 255.412C216.492 255.854 216.61 256.371 216.61 256.964V257.426H212.12C212.136 257.939 212.306 258.35 212.63 258.658C212.961 258.958 213.372 259.108 213.862 259.108C214.32 259.108 214.663 259.005 214.892 258.8C215.129 258.595 215.311 258.358 215.437 258.089L216.444 258.611C216.334 258.832 216.172 259.065 215.959 259.309C215.753 259.554 215.481 259.76 215.141 259.925C214.802 260.091 214.367 260.174 213.838 260.174ZM212.132 256.49H215.366C215.335 256.048 215.177 255.704 214.892 255.459C214.608 255.207 214.237 255.08 213.779 255.08C213.321 255.08 212.946 255.207 212.653 255.459C212.369 255.704 212.195 256.048 212.132 256.49ZM218.079 260.008V251.716H219.299V256.443H219.489L221.787 254.168H223.41L220.46 256.999L223.505 260.008H221.894L219.489 257.58H219.299V260.008H218.079ZM226.946 260.174C226.353 260.174 225.836 260.052 225.394 259.807C224.952 259.554 224.604 259.203 224.351 258.753C224.107 258.295 223.984 257.765 223.984 257.165V257.023C223.984 256.415 224.107 255.886 224.351 255.436C224.596 254.978 224.936 254.626 225.37 254.381C225.812 254.129 226.322 254.002 226.898 254.002C227.459 254.002 227.949 254.129 228.367 254.381C228.794 254.626 229.126 254.97 229.363 255.412C229.599 255.854 229.718 256.371 229.718 256.964V257.426H225.228C225.244 257.939 225.414 258.35 225.737 258.658C226.069 258.958 226.48 259.108 226.969 259.108C227.428 259.108 227.771 259.005 228 258.8C228.237 258.595 228.419 258.358 228.545 258.089L229.552 258.611C229.441 258.832 229.28 259.065 229.066 259.309C228.861 259.554 228.589 259.76 228.249 259.925C227.909 260.091 227.475 260.174 226.946 260.174ZM225.24 256.49H228.474C228.442 256.048 228.284 255.704 228 255.459C227.716 255.207 227.345 255.08 226.887 255.08C226.428 255.08 226.053 255.207 225.761 255.459C225.477 255.704 225.303 256.048 225.24 256.49ZM231.187 260.008V254.168H232.383V255.045H232.573C232.683 254.808 232.881 254.587 233.165 254.381C233.449 254.176 233.872 254.073 234.433 254.073C234.875 254.073 235.266 254.172 235.606 254.369C235.953 254.567 236.226 254.847 236.423 255.211C236.62 255.566 236.719 255.996 236.719 256.502V260.008H235.499V256.597C235.499 256.091 235.373 255.72 235.12 255.483C234.867 255.238 234.52 255.116 234.077 255.116C233.572 255.116 233.165 255.282 232.857 255.613C232.557 255.945 232.407 256.427 232.407 257.059V260.008H231.187ZM240.892 260.174C240.41 260.174 239.964 260.056 239.553 259.819C239.143 259.582 238.811 259.242 238.558 258.8C238.313 258.35 238.191 257.809 238.191 257.177V256.999C238.191 256.375 238.313 255.838 238.558 255.388C238.803 254.938 239.131 254.595 239.541 254.358C239.952 254.121 240.402 254.002 240.892 254.002C241.271 254.002 241.587 254.05 241.84 254.144C242.1 254.239 242.314 254.362 242.479 254.512C242.645 254.654 242.772 254.804 242.858 254.962H243.048V251.716H244.268V260.008H243.072V259.179H242.882C242.732 259.432 242.503 259.661 242.195 259.866C241.895 260.072 241.461 260.174 240.892 260.174ZM241.235 259.108C241.765 259.108 242.199 258.938 242.539 258.599C242.886 258.259 243.06 257.773 243.06 257.142V257.035C243.06 256.411 242.89 255.929 242.55 255.59C242.211 255.25 241.773 255.08 241.235 255.08C240.714 255.08 240.28 255.25 239.932 255.59C239.593 255.929 239.423 256.411 239.423 257.035V257.142C239.423 257.773 239.593 258.259 239.932 258.599C240.28 258.938 240.714 259.108 241.235 259.108ZM250.897 260.174C250.478 260.174 250.103 260.103 249.771 259.961C249.447 259.819 249.187 259.61 248.989 259.333C248.8 259.057 248.705 258.721 248.705 258.326C248.705 257.923 248.8 257.592 248.989 257.331C249.187 257.063 249.451 256.861 249.783 256.727C250.123 256.593 250.506 256.526 250.932 256.526H252.709V256.146C252.709 255.807 252.606 255.534 252.401 255.329C252.196 255.124 251.88 255.021 251.453 255.021C251.035 255.021 250.715 255.12 250.494 255.317C250.273 255.515 250.126 255.771 250.055 256.087L248.918 255.72C249.013 255.404 249.163 255.12 249.368 254.867C249.582 254.606 249.862 254.397 250.209 254.239C250.557 254.081 250.975 254.002 251.465 254.002C252.223 254.002 252.82 254.196 253.254 254.583C253.688 254.97 253.906 255.519 253.906 256.229V258.634C253.906 258.871 254.016 258.99 254.237 258.99H254.735V260.008H253.823C253.546 260.008 253.321 259.937 253.147 259.795C252.974 259.653 252.887 259.46 252.887 259.215V259.179H252.709C252.646 259.298 252.551 259.436 252.425 259.594C252.298 259.752 252.113 259.89 251.868 260.008C251.623 260.119 251.299 260.174 250.897 260.174ZM251.074 259.167C251.564 259.167 251.959 259.029 252.259 258.753C252.559 258.468 252.709 258.081 252.709 257.592V257.473H251.003C250.679 257.473 250.419 257.544 250.221 257.686C250.024 257.821 249.925 258.022 249.925 258.291C249.925 258.559 250.028 258.772 250.233 258.93C250.438 259.088 250.719 259.167 251.074 259.167ZM255.921 260.008V254.168H257.118V255.045H257.307C257.418 254.808 257.615 254.587 257.9 254.381C258.184 254.176 258.606 254.073 259.167 254.073C259.61 254.073 260 254.172 260.34 254.369C260.688 254.567 260.96 254.847 261.157 255.211C261.355 255.566 261.454 255.996 261.454 256.502V260.008H260.233V256.597C260.233 256.091 260.107 255.72 259.854 255.483C259.602 255.238 259.254 255.116 258.812 255.116C258.306 255.116 257.9 255.282 257.592 255.613C257.292 255.945 257.141 256.427 257.141 257.059V260.008H255.921ZM265.626 260.174C265.145 260.174 264.698 260.056 264.288 259.819C263.877 259.582 263.545 259.242 263.293 258.8C263.048 258.35 262.925 257.809 262.925 257.177V256.999C262.925 256.375 263.048 255.838 263.293 255.388C263.537 254.938 263.865 254.595 264.276 254.358C264.687 254.121 265.137 254.002 265.626 254.002C266.006 254.002 266.321 254.05 266.574 254.144C266.835 254.239 267.048 254.362 267.214 254.512C267.38 254.654 267.506 254.804 267.593 254.962H267.783V251.716H269.003V260.008H267.806V259.179H267.617C267.467 259.432 267.238 259.661 266.93 259.866C266.629 260.072 266.195 260.174 265.626 260.174ZM265.97 259.108C266.499 259.108 266.934 258.938 267.273 258.599C267.621 258.259 267.794 257.773 267.794 257.142V257.035C267.794 256.411 267.625 255.929 267.285 255.59C266.945 255.25 266.507 255.08 265.97 255.08C265.449 255.08 265.014 255.25 264.667 255.59C264.327 255.929 264.157 256.411 264.157 257.035V257.142C264.157 257.773 264.327 258.259 264.667 258.599C265.014 258.938 265.449 259.108 265.97 259.108ZM275.631 260.174C275.212 260.174 274.837 260.103 274.506 259.961C274.182 259.819 273.921 259.61 273.724 259.333C273.534 259.057 273.439 258.721 273.439 258.326C273.439 257.923 273.534 257.592 273.724 257.331C273.921 257.063 274.186 256.861 274.517 256.727C274.857 256.593 275.24 256.526 275.667 256.526H277.444V256.146C277.444 255.807 277.341 255.534 277.136 255.329C276.93 255.124 276.614 255.021 276.188 255.021C275.769 255.021 275.449 255.12 275.228 255.317C275.007 255.515 274.861 255.771 274.79 256.087L273.653 255.72C273.747 255.404 273.897 255.12 274.103 254.867C274.316 254.606 274.596 254.397 274.944 254.239C275.291 254.081 275.71 254.002 276.2 254.002C276.958 254.002 277.554 254.196 277.989 254.583C278.423 254.97 278.64 255.519 278.64 256.229V258.634C278.64 258.871 278.751 258.99 278.972 258.99H279.469V260.008H278.557C278.281 260.008 278.056 259.937 277.882 259.795C277.708 259.653 277.621 259.46 277.621 259.215V259.179H277.444C277.38 259.298 277.286 259.436 277.159 259.594C277.033 259.752 276.847 259.89 276.602 260.008C276.358 260.119 276.034 260.174 275.631 260.174ZM275.809 259.167C276.298 259.167 276.693 259.029 276.993 258.753C277.294 258.468 277.444 258.081 277.444 257.592V257.473H275.738C275.414 257.473 275.153 257.544 274.956 257.686C274.758 257.821 274.66 258.022 274.66 258.291C274.66 258.559 274.762 258.772 274.968 258.93C275.173 259.088 275.453 259.167 275.809 259.167ZM280.656 260.008V251.716H281.876V260.008H280.656ZM286.08 260.174C285.337 260.174 284.721 260.008 284.232 259.677C283.742 259.345 283.442 258.844 283.331 258.172L284.469 257.9C284.532 258.224 284.639 258.48 284.789 258.67C284.939 258.859 285.124 258.994 285.345 259.073C285.574 259.152 285.819 259.191 286.08 259.191C286.467 259.191 286.763 259.116 286.968 258.966C287.182 258.816 287.288 258.622 287.288 258.385C287.288 258.148 287.19 257.975 286.992 257.864C286.795 257.754 286.502 257.663 286.115 257.592L285.713 257.521C285.318 257.45 284.958 257.347 284.635 257.213C284.311 257.078 284.054 256.893 283.865 256.656C283.675 256.419 283.58 256.115 283.58 255.744C283.58 255.191 283.786 254.764 284.196 254.464C284.607 254.156 285.152 254.002 285.831 254.002C286.487 254.002 287.024 254.152 287.442 254.452C287.869 254.745 288.145 255.143 288.272 255.649L287.134 255.969C287.063 255.613 286.913 255.365 286.684 255.222C286.455 255.072 286.171 254.997 285.831 254.997C285.499 254.997 285.239 255.06 285.049 255.187C284.86 255.305 284.765 255.475 284.765 255.696C284.765 255.933 284.856 256.107 285.037 256.217C285.227 256.328 285.48 256.411 285.796 256.466L286.21 256.537C286.629 256.608 287.012 256.707 287.359 256.834C287.707 256.96 287.979 257.142 288.177 257.378C288.382 257.615 288.485 257.931 288.485 258.326C288.485 258.911 288.268 259.365 287.833 259.689C287.399 260.012 286.814 260.174 286.08 260.174ZM292.648 260.174C292.063 260.174 291.542 260.056 291.084 259.819C290.634 259.574 290.278 259.227 290.018 258.776C289.757 258.326 289.627 257.793 289.627 257.177V256.999C289.627 256.383 289.757 255.854 290.018 255.412C290.278 254.962 290.634 254.614 291.084 254.369C291.542 254.125 292.063 254.002 292.648 254.002C293.232 254.002 293.753 254.125 294.211 254.369C294.669 254.614 295.029 254.962 295.289 255.412C295.55 255.854 295.68 256.383 295.68 256.999V257.177C295.68 257.793 295.55 258.326 295.289 258.776C295.029 259.227 294.669 259.574 294.211 259.819C293.753 260.056 293.232 260.174 292.648 260.174ZM292.648 259.084C293.185 259.084 293.619 258.915 293.951 258.575C294.29 258.227 294.46 257.75 294.46 257.142V257.035C294.46 256.427 294.294 255.953 293.963 255.613C293.631 255.266 293.192 255.092 292.648 255.092C292.118 255.092 291.684 255.266 291.344 255.613C291.013 255.953 290.847 256.427 290.847 257.035V257.142C290.847 257.75 291.013 258.227 291.344 258.575C291.684 258.915 292.118 259.084 292.648 259.084ZM302.932 260.174C302.371 260.174 301.862 260.056 301.404 259.819C300.953 259.582 300.594 259.238 300.326 258.788C300.065 258.338 299.935 257.797 299.935 257.165V257.011C299.935 256.379 300.065 255.842 300.326 255.4C300.594 254.95 300.953 254.606 301.404 254.369C301.862 254.125 302.371 254.002 302.932 254.002C303.493 254.002 303.97 254.105 304.365 254.31C304.76 254.516 305.076 254.788 305.313 255.128C305.558 255.467 305.716 255.842 305.787 256.253L304.602 256.502C304.563 256.241 304.48 256.004 304.353 255.791C304.227 255.578 304.049 255.408 303.82 255.282C303.591 255.155 303.303 255.092 302.956 255.092C302.616 255.092 302.308 255.171 302.031 255.329C301.763 255.479 301.55 255.7 301.392 255.992C301.234 256.277 301.155 256.624 301.155 257.035V257.142C301.155 257.552 301.234 257.904 301.392 258.196C301.55 258.488 301.763 258.709 302.031 258.859C302.308 259.009 302.616 259.084 302.956 259.084C303.469 259.084 303.86 258.954 304.128 258.693C304.397 258.425 304.567 258.085 304.638 257.675L305.822 257.947C305.728 258.35 305.558 258.721 305.313 259.061C305.076 259.4 304.76 259.673 304.365 259.878C303.97 260.076 303.493 260.174 302.932 260.174ZM309.469 260.115C309.027 260.115 308.632 260.016 308.284 259.819C307.937 259.621 307.664 259.341 307.467 258.978C307.269 258.614 307.171 258.18 307.171 257.675V254.168H308.391V257.592C308.391 258.097 308.517 258.472 308.77 258.717C309.023 258.954 309.374 259.073 309.824 259.073C310.322 259.073 310.721 258.907 311.021 258.575C311.329 258.235 311.483 257.75 311.483 257.118V254.168H312.703V260.008H311.506V259.132H311.317C311.206 259.369 311.009 259.594 310.725 259.807C310.44 260.012 310.022 260.115 309.469 260.115ZM316.9 260.174C316.157 260.174 315.541 260.008 315.052 259.677C314.562 259.345 314.262 258.844 314.151 258.172L315.289 257.9C315.352 258.224 315.458 258.48 315.608 258.67C315.758 258.859 315.944 258.994 316.165 259.073C316.394 259.152 316.639 259.191 316.9 259.191C317.287 259.191 317.583 259.116 317.788 258.966C318.001 258.816 318.108 258.622 318.108 258.385C318.108 258.148 318.009 257.975 317.812 257.864C317.614 257.754 317.322 257.663 316.935 257.592L316.532 257.521C316.138 257.45 315.778 257.347 315.454 257.213C315.131 257.078 314.874 256.893 314.684 256.656C314.495 256.419 314.4 256.115 314.4 255.744C314.4 255.191 314.605 254.764 315.016 254.464C315.427 254.156 315.972 254.002 316.651 254.002C317.306 254.002 317.843 254.152 318.262 254.452C318.689 254.745 318.965 255.143 319.091 255.649L317.954 255.969C317.883 255.613 317.733 255.365 317.504 255.222C317.275 255.072 316.991 254.997 316.651 254.997C316.319 254.997 316.059 255.06 315.869 255.187C315.679 255.305 315.585 255.475 315.585 255.696C315.585 255.933 315.676 256.107 315.857 256.217C316.047 256.328 316.299 256.411 316.615 256.466L317.03 256.537C317.449 256.608 317.832 256.707 318.179 256.834C318.527 256.96 318.799 257.142 318.997 257.378C319.202 257.615 319.305 257.931 319.305 258.326C319.305 258.911 319.087 259.365 318.653 259.689C318.219 260.012 317.634 260.174 316.9 260.174ZM322.795 260.008C322.44 260.008 322.155 259.902 321.942 259.689C321.737 259.475 321.634 259.191 321.634 258.836V255.199H320.023V254.168H321.634V252.237H322.854V254.168H324.596V255.199H322.854V258.622C322.854 258.859 322.965 258.978 323.186 258.978H324.406V260.008H322.795ZM328.558 260.174C327.973 260.174 327.452 260.056 326.994 259.819C326.544 259.574 326.188 259.227 325.928 258.776C325.667 258.326 325.537 257.793 325.537 257.177V256.999C325.537 256.383 325.667 255.854 325.928 255.412C326.188 254.962 326.544 254.614 326.994 254.369C327.452 254.125 327.973 254.002 328.558 254.002C329.142 254.002 329.663 254.125 330.121 254.369C330.58 254.614 330.939 254.962 331.2 255.412C331.46 255.854 331.59 256.383 331.59 256.999V257.177C331.59 257.793 331.46 258.326 331.2 258.776C330.939 259.227 330.58 259.574 330.121 259.819C329.663 260.056 329.142 260.174 328.558 260.174ZM328.558 259.084C329.095 259.084 329.529 258.915 329.861 258.575C330.2 258.227 330.37 257.75 330.37 257.142V257.035C330.37 256.427 330.204 255.953 329.873 255.613C329.541 255.266 329.103 255.092 328.558 255.092C328.029 255.092 327.594 255.266 327.255 255.613C326.923 255.953 326.757 256.427 326.757 257.035V257.142C326.757 257.75 326.923 258.227 327.255 258.575C327.594 258.915 328.029 259.084 328.558 259.084ZM333.11 260.008V254.168H334.306V254.855H334.496C334.606 254.65 334.784 254.468 335.029 254.31C335.274 254.152 335.605 254.073 336.024 254.073C336.458 254.073 336.806 254.164 337.066 254.346C337.335 254.519 337.536 254.745 337.671 255.021H337.86C337.994 254.752 338.188 254.527 338.441 254.346C338.701 254.164 339.068 254.073 339.542 254.073C339.921 254.073 340.257 254.152 340.549 254.31C340.842 254.46 341.075 254.689 341.248 254.997C341.422 255.297 341.509 255.673 341.509 256.123V260.008H340.289V256.217C340.289 255.862 340.19 255.59 339.993 255.4C339.803 255.203 339.531 255.104 339.175 255.104C338.796 255.104 338.492 255.226 338.263 255.471C338.034 255.716 337.919 256.067 337.919 256.526V260.008H336.699V256.217C336.699 255.862 336.6 255.59 336.403 255.4C336.213 255.203 335.941 255.104 335.586 255.104C335.206 255.104 334.902 255.226 334.673 255.471C334.444 255.716 334.33 256.067 334.33 256.526V260.008H333.11ZM139.763 275.174C139.202 275.174 138.692 275.056 138.234 274.819C137.784 274.582 137.425 274.238 137.156 273.788C136.896 273.338 136.765 272.797 136.765 272.165V272.011C136.765 271.379 136.896 270.842 137.156 270.4C137.425 269.95 137.784 269.606 138.234 269.369C138.692 269.125 139.202 269.002 139.763 269.002C140.323 269.002 140.801 269.105 141.196 269.31C141.591 269.516 141.907 269.788 142.144 270.128C142.389 270.467 142.547 270.842 142.618 271.253L141.433 271.502C141.394 271.241 141.311 271.004 141.184 270.791C141.058 270.578 140.88 270.408 140.651 270.282C140.422 270.155 140.134 270.092 139.786 270.092C139.447 270.092 139.139 270.171 138.862 270.329C138.594 270.479 138.381 270.7 138.223 270.992C138.065 271.277 137.986 271.624 137.986 272.035V272.142C137.986 272.552 138.065 272.904 138.223 273.196C138.381 273.488 138.594 273.709 138.862 273.859C139.139 274.009 139.447 274.084 139.786 274.084C140.3 274.084 140.691 273.954 140.959 273.693C141.228 273.425 141.397 273.085 141.469 272.675L142.653 272.947C142.558 273.35 142.389 273.721 142.144 274.061C141.907 274.4 141.591 274.673 141.196 274.878C140.801 275.076 140.323 275.174 139.763 275.174ZM144.061 275.008V266.716H145.281V275.008H144.061ZM149.769 275.174C149.177 275.174 148.659 275.052 148.217 274.807C147.775 274.554 147.427 274.203 147.175 273.753C146.93 273.295 146.807 272.765 146.807 272.165V272.023C146.807 271.415 146.93 270.886 147.175 270.436C147.419 269.978 147.759 269.626 148.193 269.381C148.636 269.129 149.145 269.002 149.722 269.002C150.282 269.002 150.772 269.129 151.191 269.381C151.617 269.626 151.949 269.97 152.186 270.412C152.423 270.854 152.541 271.371 152.541 271.964V272.426H148.051C148.067 272.939 148.237 273.35 148.561 273.658C148.892 273.958 149.303 274.108 149.793 274.108C150.251 274.108 150.594 274.005 150.823 273.8C151.06 273.595 151.242 273.358 151.368 273.089L152.375 273.611C152.265 273.832 152.103 274.065 151.89 274.309C151.684 274.554 151.412 274.76 151.072 274.925C150.733 275.091 150.298 275.174 149.769 275.174ZM148.063 271.49H151.297C151.266 271.048 151.108 270.704 150.823 270.459C150.539 270.207 150.168 270.08 149.71 270.08C149.252 270.08 148.877 270.207 148.584 270.459C148.3 270.704 148.126 271.048 148.063 271.49ZM155.822 275.174C155.404 275.174 155.029 275.103 154.697 274.961C154.373 274.819 154.113 274.61 153.915 274.333C153.726 274.057 153.631 273.721 153.631 273.326C153.631 272.923 153.726 272.592 153.915 272.331C154.113 272.063 154.377 271.861 154.709 271.727C155.048 271.593 155.432 271.526 155.858 271.526H157.635V271.146C157.635 270.807 157.532 270.534 157.327 270.329C157.122 270.124 156.806 270.021 156.379 270.021C155.961 270.021 155.641 270.12 155.42 270.317C155.199 270.515 155.052 270.771 154.981 271.087L153.844 270.72C153.939 270.404 154.089 270.12 154.294 269.867C154.507 269.606 154.788 269.397 155.135 269.239C155.483 269.081 155.901 269.002 156.391 269.002C157.149 269.002 157.746 269.196 158.18 269.583C158.614 269.97 158.832 270.519 158.832 271.229V273.634C158.832 273.871 158.942 273.99 159.163 273.99H159.661V275.008H158.749C158.472 275.008 158.247 274.937 158.073 274.795C157.9 274.653 157.813 274.46 157.813 274.215V274.179H157.635C157.572 274.298 157.477 274.436 157.351 274.594C157.224 274.752 157.039 274.89 156.794 275.008C156.549 275.119 156.225 275.174 155.822 275.174ZM156 274.167C156.49 274.167 156.885 274.029 157.185 273.753C157.485 273.468 157.635 273.081 157.635 272.592V272.473H155.929C155.605 272.473 155.345 272.544 155.147 272.686C154.95 272.821 154.851 273.022 154.851 273.291C154.851 273.559 154.954 273.772 155.159 273.93C155.364 274.088 155.645 274.167 156 274.167ZM160.847 275.008V269.168H162.044V269.855H162.233C162.328 269.61 162.478 269.433 162.683 269.322C162.897 269.204 163.157 269.144 163.465 269.144H164.164V270.246H163.418C163.023 270.246 162.699 270.357 162.446 270.578C162.194 270.791 162.067 271.123 162.067 271.573V275.008H160.847ZM167.079 275.174C166.661 275.174 166.285 275.103 165.954 274.961C165.63 274.819 165.369 274.61 165.172 274.333C164.982 274.057 164.887 273.721 164.887 273.326C164.887 272.923 164.982 272.592 165.172 272.331C165.369 272.063 165.634 271.861 165.966 271.727C166.305 271.593 166.688 271.526 167.115 271.526H168.892V271.146C168.892 270.807 168.789 270.534 168.584 270.329C168.378 270.124 168.062 270.021 167.636 270.021C167.217 270.021 166.897 270.12 166.676 270.317C166.455 270.515 166.309 270.771 166.238 271.087L165.101 270.72C165.195 270.404 165.346 270.12 165.551 269.867C165.764 269.606 166.044 269.397 166.392 269.239C166.739 269.081 167.158 269.002 167.648 269.002C168.406 269.002 169.002 269.196 169.437 269.583C169.871 269.97 170.088 270.519 170.088 271.229V273.634C170.088 273.871 170.199 273.99 170.42 273.99H170.917V275.008H170.005C169.729 275.008 169.504 274.937 169.33 274.795C169.156 274.653 169.069 274.46 169.069 274.215V274.179H168.892C168.828 274.298 168.734 274.436 168.607 274.594C168.481 274.752 168.295 274.89 168.051 275.008C167.806 275.119 167.482 275.174 167.079 275.174ZM167.257 274.167C167.746 274.167 168.141 274.029 168.441 273.753C168.742 273.468 168.892 273.081 168.892 272.592V272.473H167.186C166.862 272.473 166.601 272.544 166.404 272.686C166.206 272.821 166.108 273.022 166.108 273.291C166.108 273.559 166.21 273.772 166.416 273.93C166.621 274.088 166.901 274.167 167.257 274.167ZM172.104 275.008V269.168H173.3V270.045H173.49C173.6 269.808 173.798 269.587 174.082 269.381C174.367 269.176 174.789 269.073 175.35 269.073C175.792 269.073 176.183 269.172 176.523 269.369C176.87 269.567 177.143 269.847 177.34 270.211C177.538 270.566 177.636 270.996 177.636 271.502V275.008H176.416V271.597C176.416 271.091 176.29 270.72 176.037 270.483C175.784 270.238 175.437 270.116 174.994 270.116C174.489 270.116 174.082 270.282 173.774 270.613C173.474 270.945 173.324 271.427 173.324 272.059V275.008H172.104ZM182.105 275.174C181.544 275.174 181.035 275.056 180.577 274.819C180.127 274.582 179.767 274.238 179.499 273.788C179.238 273.338 179.108 272.797 179.108 272.165V272.011C179.108 271.379 179.238 270.842 179.499 270.4C179.767 269.95 180.127 269.606 180.577 269.369C181.035 269.125 181.544 269.002 182.105 269.002C182.666 269.002 183.144 269.105 183.539 269.31C183.934 269.516 184.249 269.788 184.486 270.128C184.731 270.467 184.889 270.842 184.96 271.253L183.776 271.502C183.736 271.241 183.653 271.004 183.527 270.791C183.4 270.578 183.223 270.408 182.994 270.282C182.765 270.155 182.476 270.092 182.129 270.092C181.789 270.092 181.481 270.171 181.205 270.329C180.936 270.479 180.723 270.7 180.565 270.992C180.407 271.277 180.328 271.624 180.328 272.035V272.142C180.328 272.552 180.407 272.904 180.565 273.196C180.723 273.488 180.936 273.709 181.205 273.859C181.481 274.009 181.789 274.084 182.129 274.084C182.642 274.084 183.033 273.954 183.302 273.693C183.57 273.425 183.74 273.085 183.811 272.675L184.996 272.947C184.901 273.35 184.731 273.721 184.486 274.061C184.249 274.4 183.934 274.673 183.539 274.878C183.144 275.076 182.666 275.174 182.105 275.174ZM189.08 275.174C188.488 275.174 187.971 275.052 187.529 274.807C187.086 274.554 186.739 274.203 186.486 273.753C186.241 273.295 186.119 272.765 186.119 272.165V272.023C186.119 271.415 186.241 270.886 186.486 270.436C186.731 269.978 187.07 269.626 187.505 269.381C187.947 269.129 188.457 269.002 189.033 269.002C189.594 269.002 190.083 269.129 190.502 269.381C190.929 269.626 191.26 269.97 191.497 270.412C191.734 270.854 191.853 271.371 191.853 271.964V272.426H187.363C187.378 272.939 187.548 273.35 187.872 273.658C188.204 273.958 188.614 274.108 189.104 274.108C189.562 274.108 189.906 274.005 190.135 273.8C190.372 273.595 190.553 273.358 190.68 273.089L191.687 273.611C191.576 273.832 191.414 274.065 191.201 274.309C190.996 274.554 190.723 274.76 190.384 274.925C190.044 275.091 189.61 275.174 189.08 275.174ZM187.375 271.49H190.609C190.577 271.048 190.419 270.704 190.135 270.459C189.85 270.207 189.479 270.08 189.021 270.08C188.563 270.08 188.188 270.207 187.896 270.459C187.611 270.704 187.438 271.048 187.375 271.49Z" fill="#002026"/>
<path d="M137.138 345.434V335.957H138.6V344.107H143.163V345.434H137.138ZM144.543 345.434V338.759H145.937V345.434H144.543ZM145.247 337.852C144.976 337.852 144.746 337.767 144.556 337.595C144.376 337.415 144.286 337.184 144.286 336.905C144.286 336.625 144.376 336.399 144.556 336.228C144.746 336.047 144.976 335.957 145.247 335.957C145.527 335.957 145.757 336.047 145.937 336.228C146.118 336.399 146.208 336.625 146.208 336.905C146.208 337.184 146.118 337.415 145.937 337.595C145.757 337.767 145.527 337.852 145.247 337.852ZM148.007 345.434V338.759H149.374V339.761H149.591C149.717 339.491 149.943 339.238 150.268 339.003C150.593 338.768 151.076 338.651 151.717 338.651C152.222 338.651 152.669 338.764 153.057 338.99C153.454 339.215 153.766 339.536 153.991 339.951C154.217 340.357 154.33 340.849 154.33 341.427V345.434H152.935V341.535C152.935 340.957 152.791 340.533 152.502 340.262C152.213 339.982 151.816 339.843 151.31 339.843C150.733 339.843 150.268 340.032 149.916 340.411C149.573 340.79 149.401 341.341 149.401 342.063V345.434H148.007ZM156.337 345.434V335.957H157.731V341.359H157.948L160.574 338.759H162.429L159.058 341.995L162.538 345.434H160.696L157.948 342.659H157.731V345.434H156.337ZM164.633 345.624C164.317 345.624 164.051 345.52 163.834 345.312C163.627 345.105 163.523 344.838 163.523 344.514C163.523 344.189 163.627 343.927 163.834 343.728C164.051 343.521 164.317 343.417 164.633 343.417C164.949 343.417 165.211 343.521 165.418 343.728C165.635 343.936 165.743 344.198 165.743 344.514C165.743 344.838 165.635 345.105 165.418 345.312C165.211 345.52 164.949 345.624 164.633 345.624ZM164.633 340.79C164.317 340.79 164.051 340.687 163.834 340.479C163.627 340.271 163.523 340.005 163.523 339.68C163.523 339.355 163.627 339.093 163.834 338.895C164.051 338.687 164.317 338.583 164.633 338.583C164.949 338.583 165.211 338.687 165.418 338.895C165.635 339.102 165.743 339.364 165.743 339.68C165.743 340.005 165.635 340.271 165.418 340.479C165.211 340.687 164.949 340.79 164.633 340.79Z" fill="#002026" fill-opacity="0.4"/>
<path opacity="0.2" d="M139.236 194.424H379.064" stroke="#002026" stroke-width="0.84619"/>
<path opacity="0.2" d="M139.236 317.622H379.064" stroke="#002026" stroke-width="0.84619"/>
<circle cx="97.2248" cy="156.846" r="18.6162" fill="#92CCBF" fill-opacity="0.2"/>
<g clip-path="url(#clip0_546_39327)">
<rect x="92.9163" y="153.445" width="9.3504" height="10.7141" fill="#002026"/>
<path d="M106.766 148.383H104.982H90.2696H88.4702H87.9719V153.959H90.2696V150.608H104.982V153.959H107.264V148.383H106.766Z" fill="#002026"/>
<path d="M98.0938 158.415C97.371 158.153 97.0735 157.981 97.0735 157.711C97.0735 157.482 97.2523 157.253 97.8051 157.253C98.4174 157.253 98.8098 157.441 99.0303 157.531L99.2768 156.607C98.9959 156.476 98.6127 156.361 98.0434 156.337V155.617H97.2097V156.394C96.2994 156.566 95.7718 157.13 95.7718 157.85C95.7718 158.643 96.3929 159.052 97.3032 159.347C97.933 159.551 98.2052 159.747 98.2052 160.059C98.2052 160.385 97.8734 160.565 97.388 160.565C96.8352 160.565 96.3333 160.393 95.9758 160.206L95.7209 161.163C96.0441 161.342 96.5969 161.49 97.1671 161.515V162.291H98.0008V161.457C98.9785 161.294 99.5147 160.672 99.5147 159.944C99.5152 159.208 99.1063 158.758 98.0938 158.415Z" fill="#F0F5F4"/>
<path d="M103.015 163.398V160.976V157.107V156.227V152.701H92.2203V155.671V157.107V160.976V161.949V163.851H88.9092L97.6179 169.538L106.327 163.852H103.015V163.398ZM93.413 163.08V162.292V161.95V160.977V157.108V155.671V155.625C93.5257 155.65 93.6417 155.667 93.7622 155.667C94.6138 155.667 95.3046 155.003 95.3046 154.184C95.3046 154.078 95.2917 153.974 95.2697 153.875H99.9656C99.944 153.975 99.9312 154.078 99.9312 154.184C99.9312 155.003 100.622 155.667 101.473 155.667C101.549 155.667 101.622 155.656 101.694 155.646V156.227V157.108V160.977V161.813V163.061V163.852H93.413V163.08Z" fill="#002026"/>
</g>
<defs>
<filter id="filter0_d_546_39327" x="0.336003" y="0.724421" width="471.328" height="559.331" filterUnits="userSpaceOnUse" color-interpolation-filters="sRGB">
<feFlood flood-opacity="0" result="BackgroundImageFix"/>
<feColorMatrix in="SourceAlpha" type="matrix" values="0 0 0 0 0 0 0 0 0 0 0 0 0 0 0 0 0 0 127 0" result="hardAlpha"/>
<feMorphology radius="4.23095" operator="dilate" in="SourceAlpha" result="effect1_dropShadow_546_39327"/>
<feOffset dy="5.07714"/>
<feGaussianBlur stdDeviation="14.8083"/>
<feColorMatrix type="matrix" values="0 0 0 0 0 0 0 0 0 0 0 0 0 0 0 0 0 0 0.2 0"/>
<feBlend mode="normal" in2="BackgroundImageFix" result="effect1_dropShadow_546_39327"/>
<feBlend mode="normal" in="SourceGraphic" in2="effect1_dropShadow_546_39327" result="shape"/>
</filter>
<clipPath id="clip0_546_39327">
<rect width="22.0009" height="21.1547" fill="white" transform="translate(86.2244 148.384)"/>
</clipPath>
</defs>
</svg>
