<svg width="465" height="312" viewBox="0 0 465 312" fill="none" xmlns="http://www.w3.org/2000/svg">
<g clip-path="url(#clip0_4974_181532)">
<path d="M433.879 116.077C413.463 80.8417 384.05 51.4675 348.767 31.0796C314.565 11.3181 274.857 0 232.5 0C190.143 0 150.435 11.3181 116.233 31.0796C80.9502 51.4675 51.5366 80.8417 31.1213 116.077C11.3333 150.233 0 189.888 0 232.188H82.9088C82.9088 204.972 90.2343 179.475 102.969 157.5C116.1 134.829 135.017 115.945 157.718 102.824C179.723 90.1064 205.254 82.7907 232.507 82.7907C259.76 82.7907 285.291 90.1064 307.296 102.824C329.997 115.938 348.907 134.829 362.045 157.5C374.78 179.475 382.105 204.972 382.105 232.188H465.014C465 189.888 453.667 150.233 433.879 116.077Z" fill="white"/>
<path d="M307.289 102.824L348.767 31.0796C314.565 11.3181 274.857 0 232.5 0V82.7977C259.753 82.7977 285.284 90.1134 307.289 102.824Z" fill="#619DF5"/>
<path d="M157.711 102.824L116.233 31.0796C80.9502 51.4675 51.5366 80.8417 31.1213 116.077L102.962 157.5C116.1 134.836 135.017 115.945 157.711 102.824Z" fill="#A5C9FF"/>
<path d="M232.5 82.7977V0C190.143 0 150.435 11.3181 116.233 31.0796L157.711 102.824C179.723 90.1134 205.247 82.7977 232.5 82.7977Z" fill="#89B6F9"/>
<path d="M362.038 157.5L433.879 116.077C413.463 80.8417 384.05 51.4675 348.767 31.0796L307.289 102.824C329.99 115.945 348.9 134.836 362.038 157.5Z" fill="#4A84DA"/>
<path d="M382.091 232.188H465C465 189.888 453.667 150.233 433.879 116.077L362.038 157.5C374.773 179.482 382.091 204.972 382.091 232.188Z" fill="#2168D1"/>
<path d="M82.9088 232.188C82.9088 204.972 90.2343 179.475 102.969 157.5L31.1213 116.077C11.3333 150.233 0 189.888 0 232.188H82.9088Z" fill="#CBE0FF"/>
<path d="M377.393 149.252C362.701 123.894 341.546 102.768 316.155 88.0948C291.536 73.874 262.987 65.6882 232.5 65.6882C202.013 65.6882 173.464 73.8671 148.845 88.0948C123.454 102.768 102.299 123.894 87.6066 149.252C73.4574 173.67 65.2884 201.972 65.1839 232.188H82.9018C82.9018 204.972 90.2273 179.475 102.962 157.5C116.093 134.829 135.01 115.945 157.711 102.824C179.716 90.1064 205.247 82.7907 232.5 82.7907C259.753 82.7907 285.284 90.1064 307.289 102.824C329.99 115.938 348.9 134.829 362.038 157.5C374.773 179.475 382.098 204.972 382.098 232.188H399.816C399.705 201.972 391.536 173.67 377.393 149.252Z" fill="#F4F4F4"/>
<path d="M229.238 219.367L235.999 244.585L414.39 183.331L229.238 219.367Z" fill="#303030"/>
<path d="M232.5 260.588C248.217 260.588 260.959 247.864 260.959 232.168C260.959 216.471 248.217 203.747 232.5 203.747C216.783 203.747 204.041 216.471 204.041 232.168C204.041 247.864 216.783 260.588 232.5 260.588Z" fill="#303030"/>
<path d="M232.5 252.367C243.671 252.367 252.727 243.324 252.727 232.168C252.727 221.011 243.671 211.968 232.5 211.968C221.329 211.968 212.273 221.011 212.273 232.168C212.273 243.324 221.329 252.367 232.5 252.367Z" fill="white"/>
<path d="M232.5 246.34C240.337 246.34 246.691 239.994 246.691 232.168C246.691 224.341 240.337 217.995 232.5 217.995C224.662 217.995 218.309 224.341 218.309 232.168C218.309 239.994 224.662 246.34 232.5 246.34Z" fill="#303030"/>
<path d="M31.1213 125.39C51.5366 90.1551 80.9502 60.7809 116.233 40.393C150.435 20.6315 190.143 9.31343 232.5 9.31343C274.857 9.31343 314.565 20.6315 348.767 40.393C384.05 60.7809 413.463 90.1551 433.879 125.39C452.21 157.027 463.264 193.383 464.798 232.188H465C465 189.888 453.667 150.233 433.879 116.077C413.463 80.8417 384.05 51.4675 348.767 31.0796C314.565 11.3181 274.857 0 232.5 0C190.143 0 150.435 11.3181 116.233 31.0796C80.9502 51.4675 51.5366 80.8417 31.1213 116.077C11.3333 150.233 0 189.888 0 232.188H0.202131C1.73554 193.389 12.79 157.027 31.1213 125.39Z" fill="white"/>
<path d="M232.5 312C359.189 312 461.891 304.387 461.891 294.995C461.891 285.603 359.189 277.99 232.5 277.99C105.811 277.99 3.10864 285.603 3.10864 294.995C3.10864 304.387 105.811 312 232.5 312Z" fill="url(#paint0_radial_4974_181532)"/>
</g>
<defs>
<radialGradient id="paint0_radial_4974_181532" cx="0" cy="0" r="1" gradientUnits="userSpaceOnUse" gradientTransform="translate(232.501 293.832) scale(212.651 12.3597)">
<stop stop-color="#C1D6E3"/>
<stop offset="1" stop-color="white"/>
</radialGradient>
<clipPath id="clip0_4974_181532">
<rect width="465" height="312" fill="white"/>
</clipPath>
</defs>
</svg>
