<svg width="461" height="278" viewBox="0 0 461 278" fill="none" xmlns="http://www.w3.org/2000/svg">
<g clip-path="url(#clip0_546_37929)">
<rect x="29.2887" y="68.708" width="404" height="439.939" rx="9.91411" fill="white"/>
<rect x="29.9083" y="69.3276" width="402.761" height="438.699" rx="9.29448" stroke="#002026" stroke-opacity="0.1" stroke-width="1.23926"/>
<circle cx="228.81" cy="109.604" r="3.71779" fill="#E9C300"/>
<path d="M237.797 114.69L240.771 104.28H243.597L246.556 114.69H244.906L244.222 112.236H240.147L239.463 114.69H237.797ZM240.548 110.749H243.82L242.303 105.276H242.065L240.548 110.749ZM250.057 114.69L248.525 104.28H250.131L251.38 113.604H251.618L253.224 104.28H256.035L257.641 113.604H257.879L259.113 104.28H260.719L259.187 114.69H256.377L254.741 105.232H254.503L252.882 114.69H250.057ZM262.686 114.69L265.66 104.28H268.486L271.445 114.69H269.794L269.11 112.236H265.036L264.352 114.69H262.686ZM265.437 110.749H268.709L267.192 105.276H266.954L265.437 110.749ZM274.343 114.69V104.28H275.949V114.69H274.343ZM282.089 114.69V105.737H278.892V104.28H286.892V105.737H283.695V114.69H282.089ZM289.835 114.69V104.28H291.441V114.69H289.835ZM295.098 114.69V104.28H298.192L301.017 113.619H301.255V104.28H302.846V114.69H299.753L296.927 105.336H296.69V114.69H295.098ZM310.118 114.898C309.375 114.898 308.71 114.74 308.125 114.422C307.54 114.095 307.079 113.619 306.742 112.995C306.405 112.37 306.237 111.607 306.237 110.704V108.266C306.237 106.907 306.608 105.871 307.352 105.158C308.096 104.434 309.102 104.072 310.371 104.072C311.62 104.072 312.582 104.414 313.256 105.098C313.93 105.772 314.267 106.679 314.267 107.819V107.894H312.676V107.775C312.676 107.349 312.592 106.967 312.423 106.63C312.255 106.283 312.002 106.01 311.665 105.812C311.328 105.614 310.896 105.514 310.371 105.514C309.578 105.514 308.958 105.757 308.512 106.243C308.066 106.719 307.843 107.383 307.843 108.236V110.734C307.843 111.577 308.066 112.246 308.512 112.742C308.958 113.228 309.583 113.471 310.386 113.471C311.179 113.471 311.759 113.252 312.126 112.816C312.493 112.38 312.676 111.815 312.676 111.121V110.928H309.88V109.545H314.267V114.69H312.78V113.634H312.542C312.453 113.822 312.319 114.016 312.141 114.214C311.972 114.412 311.724 114.576 311.397 114.705C311.08 114.834 310.653 114.898 310.118 114.898ZM322.139 114.69L325.113 104.28H327.938L330.898 114.69H329.247L328.563 112.236H324.488L323.804 114.69H322.139ZM324.89 110.749H328.162L326.645 105.276H326.407L324.89 110.749ZM333.795 114.69V104.28H337.929C338.564 104.28 339.129 104.409 339.625 104.667C340.13 104.915 340.522 105.272 340.8 105.737C341.087 106.194 341.231 106.744 341.231 107.388V107.582C341.231 108.226 341.082 108.781 340.785 109.247C340.497 109.713 340.106 110.07 339.61 110.318C339.114 110.566 338.554 110.69 337.929 110.69H335.401V114.69H333.795ZM335.401 109.232H337.766C338.331 109.232 338.782 109.084 339.119 108.786C339.456 108.489 339.625 108.082 339.625 107.567V107.418C339.625 106.892 339.456 106.481 339.119 106.184C338.782 105.886 338.331 105.737 337.766 105.737H335.401V109.232ZM344.243 114.69V104.28H348.377C349.012 104.28 349.577 104.409 350.072 104.667C350.578 104.915 350.97 105.272 351.247 105.737C351.535 106.194 351.678 106.744 351.678 107.388V107.582C351.678 108.226 351.53 108.781 351.232 109.247C350.945 109.713 350.553 110.07 350.057 110.318C349.562 110.566 349.002 110.69 348.377 110.69H345.849V114.69H344.243ZM345.849 109.232H348.213C348.779 109.232 349.23 109.084 349.567 108.786C349.904 108.489 350.072 108.082 350.072 107.567V107.418C350.072 106.892 349.904 106.481 349.567 106.184C349.23 105.886 348.779 105.737 348.213 105.737H345.849V109.232ZM354.69 114.69V104.28H359.063C359.707 104.28 360.272 104.394 360.758 104.622C361.254 104.84 361.635 105.158 361.903 105.574C362.181 105.99 362.319 106.486 362.319 107.061V107.225C362.319 107.879 362.161 108.404 361.843 108.801C361.536 109.188 361.159 109.46 360.713 109.619V109.857C361.09 109.877 361.392 110.006 361.62 110.243C361.848 110.471 361.962 110.804 361.962 111.24V114.69H360.341V111.463C360.341 111.195 360.272 110.982 360.133 110.823C359.994 110.665 359.771 110.585 359.464 110.585H356.297V114.69H354.69ZM356.297 109.128H358.884C359.459 109.128 359.905 108.984 360.223 108.697C360.54 108.399 360.698 107.998 360.698 107.492V107.373C360.698 106.868 360.54 106.471 360.223 106.184C359.915 105.886 359.469 105.737 358.884 105.737H356.297V109.128ZM369.485 114.898C368.206 114.898 367.19 114.541 366.436 113.827C365.683 113.104 365.306 112.063 365.306 110.704V108.266C365.306 106.907 365.683 105.871 366.436 105.158C367.19 104.434 368.206 104.072 369.485 104.072C370.764 104.072 371.78 104.434 372.533 105.158C373.297 105.871 373.678 106.907 373.678 108.266V110.704C373.678 112.063 373.297 113.104 372.533 113.827C371.78 114.541 370.764 114.898 369.485 114.898ZM369.485 113.456C370.308 113.456 370.942 113.218 371.388 112.742C371.834 112.256 372.058 111.597 372.058 110.764V108.206C372.058 107.373 371.834 106.719 371.388 106.243C370.942 105.757 370.308 105.514 369.485 105.514C368.682 105.514 368.052 105.757 367.596 106.243C367.14 106.719 366.912 107.373 366.912 108.206V110.764C366.912 111.597 367.14 112.256 367.596 112.742C368.052 113.218 368.682 113.456 369.485 113.456ZM378.976 114.69L376.076 104.28H377.741L380.269 113.679H380.463L382.976 104.28H384.642L381.757 114.69H378.976ZM386.044 114.69L389.018 104.28H391.844L394.803 114.69H393.153L392.468 112.236H388.394L387.71 114.69H386.044ZM388.795 110.749H392.067L390.55 105.276H390.312L388.795 110.749ZM397.701 114.69V104.28H399.307V113.233H404.318V114.69H397.701Z" fill="#E9C300"/>
<path d="M60.2975 115.451V103.306H62.1713V113.75H68.0181V115.451H60.2975ZM73.7608 115.694C72.9048 115.694 72.1415 115.52 71.4706 115.173C70.8113 114.815 70.2908 114.306 69.9091 113.646C69.5274 112.987 69.3366 112.206 69.3366 111.304V111.044C69.3366 110.142 69.5274 109.367 69.9091 108.719C70.2908 108.06 70.8113 107.551 71.4706 107.192C72.1415 106.834 72.9048 106.654 73.7608 106.654C74.6167 106.654 75.3801 106.834 76.0509 107.192C76.7218 107.551 77.248 108.06 77.6297 108.719C78.0114 109.367 78.2023 110.142 78.2023 111.044V111.304C78.2023 112.206 78.0114 112.987 77.6297 113.646C77.248 114.306 76.7218 114.815 76.0509 115.173C75.3801 115.52 74.6167 115.694 73.7608 115.694ZM73.7608 114.097C74.5473 114.097 75.1834 113.849 75.6692 113.351C76.1666 112.842 76.4153 112.143 76.4153 111.252V111.096C76.4153 110.205 76.1724 109.511 75.6866 109.014C75.2008 108.505 74.5588 108.251 73.7608 108.251C72.9858 108.251 72.3497 108.505 71.8523 109.014C71.3665 109.511 71.1236 110.205 71.1236 111.096V111.252C71.1236 112.143 71.3665 112.842 71.8523 113.351C72.3497 113.849 72.9858 114.097 73.7608 114.097ZM83.0816 115.694C82.4686 115.694 81.9192 115.589 81.4334 115.381C80.9592 115.173 80.5775 114.867 80.2883 114.462C80.0107 114.057 79.8719 113.565 79.8719 112.987C79.8719 112.397 80.0107 111.911 80.2883 111.53C80.5775 111.136 80.9649 110.841 81.4507 110.645C81.9481 110.448 82.5091 110.35 83.1337 110.35H85.7361V109.795C85.7361 109.297 85.5858 108.898 85.285 108.598C84.9843 108.297 84.5216 108.146 83.897 108.146C83.284 108.146 82.8156 108.291 82.4917 108.58C82.1679 108.869 81.9539 109.245 81.8498 109.708L80.1842 109.17C80.323 108.707 80.5428 108.291 80.8435 107.921C81.1558 107.539 81.5664 107.233 82.0753 107.001C82.5843 106.77 83.1973 106.654 83.9144 106.654C85.0248 106.654 85.898 106.938 86.5342 107.505C87.1704 108.071 87.4884 108.875 87.4884 109.916V113.438C87.4884 113.785 87.6504 113.959 87.9742 113.959H88.7029V115.451H87.367C86.9622 115.451 86.6325 115.347 86.3781 115.138C86.1236 114.93 85.9964 114.647 85.9964 114.288V114.236H85.7361C85.6436 114.41 85.5048 114.612 85.3197 114.843C85.1347 115.075 84.8628 115.277 84.5043 115.451C84.1457 115.613 83.6715 115.694 83.0816 115.694ZM83.3419 114.219C84.059 114.219 84.6373 114.016 85.0768 113.612C85.5164 113.195 85.7361 112.628 85.7361 111.911V111.738H83.2378C82.7635 111.738 82.3818 111.842 82.0927 112.05C81.8035 112.247 81.6589 112.542 81.6589 112.935C81.6589 113.328 81.8093 113.641 82.11 113.872C82.4108 114.103 82.8214 114.219 83.3419 114.219ZM90.4405 115.451V106.897H92.1928V108.181H92.4704C92.6323 107.834 92.9215 107.51 93.3379 107.21C93.7542 106.909 94.3731 106.758 95.1943 106.758C95.842 106.758 96.4145 106.903 96.9119 107.192C97.4208 107.481 97.8199 107.892 98.109 108.424C98.3982 108.945 98.5428 109.575 98.5428 110.315V115.451H96.7557V110.454C96.7557 109.714 96.5707 109.17 96.2006 108.823C95.8304 108.465 95.3215 108.285 94.6738 108.285C93.9335 108.285 93.3379 108.528 92.8868 109.014C92.4472 109.5 92.2275 110.205 92.2275 111.131V115.451H90.4405ZM105.028 111.825V110.194H110.163V111.825H105.028ZM115.528 115.451L118.998 103.306H122.294L125.747 115.451H123.821L123.023 112.588H118.269L117.471 115.451H115.528ZM118.737 110.853H122.554L120.785 104.468H120.507L118.737 110.853ZM126.941 115.451V113.785H128.572V104.971H126.941V103.306H131.799C133.418 103.306 134.656 103.717 135.512 104.538C136.379 105.359 136.813 106.597 136.813 108.251V110.523C136.813 112.177 136.379 113.415 135.512 114.236C134.656 115.046 133.418 115.451 131.799 115.451H126.941ZM130.463 113.75H131.816C132.869 113.75 133.65 113.484 134.158 112.952C134.667 112.42 134.922 111.628 134.922 110.575V108.181C134.922 107.117 134.667 106.325 134.158 105.804C133.65 105.284 132.869 105.024 131.816 105.024H130.463V113.75ZM142.938 115.694C142.047 115.694 141.255 115.532 140.561 115.208C139.867 114.884 139.324 114.415 138.93 113.802C138.549 113.189 138.358 112.461 138.358 111.616V111.304H140.179V111.582C140.179 112.345 140.428 112.952 140.925 113.403C141.434 113.843 142.105 114.063 142.938 114.063C143.771 114.063 144.419 113.855 144.881 113.438C145.344 113.022 145.575 112.495 145.575 111.859V111.703C145.575 111.252 145.465 110.888 145.246 110.61C145.026 110.333 144.731 110.13 144.361 110.003C143.991 109.864 143.574 109.795 143.112 109.795H140.908V107.695L145.176 105.18V104.937H138.653V103.306H147.154V105.77L143.077 108.199V108.441H143.823C144.436 108.441 145.014 108.557 145.558 108.788C146.101 109.02 146.541 109.373 146.876 109.847C147.223 110.321 147.397 110.922 147.397 111.651V111.859C147.397 112.634 147.212 113.311 146.842 113.889C146.472 114.456 145.951 114.901 145.28 115.225C144.609 115.537 143.829 115.694 142.938 115.694ZM154.83 115.451V112.97H148.689V110.853L153.338 103.306H156.652V111.356H158.699V112.97H156.652V115.451H154.83ZM150.458 111.356H154.83V104.451H154.553L150.458 111.113V111.356ZM159.478 115.451L162.948 103.306H166.244L169.697 115.451H167.771L166.973 112.588H162.219L161.421 115.451H159.478ZM162.688 110.853H166.505L164.735 104.468H164.457L162.688 110.853Z" fill="#002026" fill-opacity="0.6"/>
<rect x="59.031" y="145.542" width="344.515" height="335.84" rx="9.91411" fill="white"/>
<rect x="59.6506" y="146.162" width="343.276" height="334.601" rx="9.29448" stroke="#002026" stroke-opacity="0.1" stroke-width="1.23926"/>
<line x1="88.7733" y1="255.217" x2="373.804" y2="255.217" stroke="#002026" stroke-opacity="0.1" stroke-width="1.23926"/>
<path d="M119.782 187.328V175.183H121.656V185.627H127.503V187.328H119.782ZM133.246 187.571C132.39 187.571 131.626 187.397 130.955 187.05C130.296 186.691 129.776 186.183 129.394 185.523C129.012 184.864 128.821 184.083 128.821 183.181V182.921C128.821 182.019 129.012 181.244 129.394 180.596C129.776 179.937 130.296 179.428 130.955 179.069C131.626 178.711 132.39 178.531 133.246 178.531C134.101 178.531 134.865 178.711 135.536 179.069C136.207 179.428 136.733 179.937 137.114 180.596C137.496 181.244 137.687 182.019 137.687 182.921V183.181C137.687 184.083 137.496 184.864 137.114 185.523C136.733 186.183 136.207 186.691 135.536 187.05C134.865 187.397 134.101 187.571 133.246 187.571ZM133.246 185.974C134.032 185.974 134.668 185.726 135.154 185.228C135.651 184.719 135.9 184.02 135.9 183.129V182.973C135.9 182.082 135.657 181.388 135.171 180.891C134.686 180.382 134.044 180.128 133.246 180.128C132.471 180.128 131.834 180.382 131.337 180.891C130.851 181.388 130.608 182.082 130.608 182.973V183.129C130.608 184.02 130.851 184.719 131.337 185.228C131.834 185.726 132.471 185.974 133.246 185.974ZM142.566 187.571C141.953 187.571 141.404 187.466 140.918 187.258C140.444 187.05 140.062 186.744 139.773 186.339C139.495 185.934 139.357 185.442 139.357 184.864C139.357 184.274 139.495 183.788 139.773 183.407C140.062 183.013 140.45 182.718 140.935 182.522C141.433 182.325 141.994 182.227 142.618 182.227H145.221V181.672C145.221 181.174 145.07 180.775 144.77 180.475C144.469 180.174 144.006 180.023 143.382 180.023C142.769 180.023 142.3 180.168 141.976 180.457C141.653 180.746 141.439 181.122 141.335 181.585L139.669 181.047C139.808 180.584 140.028 180.168 140.328 179.798C140.641 179.416 141.051 179.11 141.56 178.878C142.069 178.647 142.682 178.531 143.399 178.531C144.51 178.531 145.383 178.815 146.019 179.381C146.655 179.948 146.973 180.752 146.973 181.793V185.315C146.973 185.662 147.135 185.836 147.459 185.836H148.188V187.328H146.852C146.447 187.328 146.117 187.224 145.863 187.015C145.608 186.807 145.481 186.524 145.481 186.165V186.113H145.221C145.128 186.287 144.99 186.489 144.804 186.72C144.619 186.952 144.348 187.154 143.989 187.328C143.63 187.49 143.156 187.571 142.566 187.571ZM142.827 186.096C143.544 186.096 144.122 185.893 144.562 185.489C145.001 185.072 145.221 184.505 145.221 183.788V183.615H142.723C142.248 183.615 141.867 183.719 141.577 183.927C141.288 184.124 141.144 184.419 141.144 184.812C141.144 185.205 141.294 185.517 141.595 185.749C141.895 185.98 142.306 186.096 142.827 186.096ZM149.925 187.328V178.774H151.678V180.058H151.955C152.117 179.711 152.406 179.387 152.823 179.087C153.239 178.786 153.858 178.635 154.679 178.635C155.327 178.635 155.899 178.78 156.397 179.069C156.906 179.358 157.305 179.769 157.594 180.301C157.883 180.822 158.028 181.452 158.028 182.192V187.328H156.24V182.331C156.24 181.591 156.055 181.047 155.685 180.7C155.315 180.341 154.806 180.162 154.159 180.162C153.418 180.162 152.823 180.405 152.372 180.891C151.932 181.377 151.712 182.082 151.712 183.008V187.328H149.925ZM167.676 187.571C167.063 187.571 166.514 187.466 166.028 187.258C165.554 187.05 165.172 186.744 164.883 186.339C164.605 185.934 164.466 185.442 164.466 184.864C164.466 184.274 164.605 183.788 164.883 183.407C165.172 183.013 165.559 182.718 166.045 182.522C166.542 182.325 167.103 182.227 167.728 182.227H170.33V181.672C170.33 181.174 170.18 180.775 169.879 180.475C169.579 180.174 169.116 180.023 168.491 180.023C167.878 180.023 167.41 180.168 167.086 180.457C166.762 180.746 166.548 181.122 166.444 181.585L164.779 181.047C164.917 180.584 165.137 180.168 165.438 179.798C165.75 179.416 166.161 179.11 166.67 178.878C167.179 178.647 167.792 178.531 168.509 178.531C169.619 178.531 170.492 178.815 171.129 179.381C171.765 179.948 172.083 180.752 172.083 181.793V185.315C172.083 185.662 172.245 185.836 172.569 185.836H173.297V187.328H171.961C171.557 187.328 171.227 187.224 170.972 187.015C170.718 186.807 170.591 186.524 170.591 186.165V186.113H170.33C170.238 186.287 170.099 186.489 169.914 186.72C169.729 186.952 169.457 187.154 169.099 187.328C168.74 187.49 168.266 187.571 167.676 187.571ZM167.936 186.096C168.653 186.096 169.232 185.893 169.671 185.489C170.111 185.072 170.33 184.505 170.33 183.788V183.615H167.832C167.358 183.615 166.976 183.719 166.687 183.927C166.398 184.124 166.253 184.419 166.253 184.812C166.253 185.205 166.404 185.517 166.704 185.749C167.005 185.98 167.416 186.096 167.936 186.096ZM175.035 187.328V178.774H176.787V179.781H177.065C177.227 179.48 177.487 179.214 177.845 178.982C178.204 178.751 178.69 178.635 179.303 178.635C179.939 178.635 180.448 178.768 180.83 179.034C181.223 179.289 181.518 179.619 181.714 180.023H181.992C182.189 179.63 182.472 179.301 182.842 179.034C183.224 178.768 183.762 178.635 184.456 178.635C185.011 178.635 185.502 178.751 185.93 178.982C186.358 179.202 186.7 179.538 186.954 179.989C187.209 180.428 187.336 180.978 187.336 181.637V187.328H185.549V181.776C185.549 181.255 185.404 180.856 185.115 180.579C184.837 180.289 184.438 180.145 183.918 180.145C183.363 180.145 182.917 180.324 182.582 180.683C182.247 181.041 182.079 181.556 182.079 182.227V187.328H180.292V181.776C180.292 181.255 180.147 180.856 179.858 180.579C179.58 180.289 179.181 180.145 178.661 180.145C178.106 180.145 177.66 180.324 177.325 180.683C176.99 181.041 176.822 181.556 176.822 182.227V187.328H175.035ZM193.919 187.571C193.063 187.571 192.299 187.397 191.628 187.05C190.969 186.691 190.449 186.183 190.067 185.523C189.685 184.864 189.494 184.083 189.494 183.181V182.921C189.494 182.019 189.685 181.244 190.067 180.596C190.449 179.937 190.969 179.428 191.628 179.069C192.299 178.711 193.063 178.531 193.919 178.531C194.775 178.531 195.538 178.711 196.209 179.069C196.88 179.428 197.406 179.937 197.788 180.596C198.169 181.244 198.36 182.019 198.36 182.921V183.181C198.36 184.083 198.169 184.864 197.788 185.523C197.406 186.183 196.88 186.691 196.209 187.05C195.538 187.397 194.775 187.571 193.919 187.571ZM193.919 185.974C194.705 185.974 195.341 185.726 195.827 185.228C196.324 184.719 196.573 184.02 196.573 183.129V182.973C196.573 182.082 196.33 181.388 195.844 180.891C195.359 180.382 194.717 180.128 193.919 180.128C193.144 180.128 192.507 180.382 192.01 180.891C191.524 181.388 191.281 182.082 191.281 182.973V183.129C191.281 184.02 191.524 184.719 192.01 185.228C192.507 185.726 193.144 185.974 193.919 185.974ZM203.864 187.484C203.216 187.484 202.638 187.339 202.129 187.05C201.62 186.761 201.221 186.35 200.932 185.818C200.643 185.286 200.498 184.65 200.498 183.91V178.774H202.285V183.788C202.285 184.529 202.47 185.078 202.84 185.437C203.211 185.784 203.725 185.957 204.385 185.957C205.113 185.957 205.697 185.714 206.137 185.228C206.588 184.731 206.813 184.02 206.813 183.094V178.774H208.601V187.328H206.848V186.044H206.571C206.409 186.391 206.12 186.72 205.703 187.033C205.287 187.333 204.674 187.484 203.864 187.484ZM211.242 187.328V178.774H212.994V180.058H213.272C213.434 179.711 213.723 179.387 214.14 179.087C214.556 178.786 215.175 178.635 215.996 178.635C216.644 178.635 217.216 178.78 217.714 179.069C218.222 179.358 218.622 179.769 218.911 180.301C219.2 180.822 219.344 181.452 219.344 182.192V187.328H217.557V182.331C217.557 181.591 217.372 181.047 217.002 180.7C216.632 180.341 216.123 180.162 215.475 180.162C214.735 180.162 214.14 180.405 213.688 180.891C213.249 181.377 213.029 182.082 213.029 183.008V187.328H211.242ZM224.889 187.328C224.368 187.328 223.952 187.171 223.64 186.859C223.339 186.547 223.188 186.131 223.188 185.61V180.284H220.829V178.774H223.188V175.946H224.975V178.774H227.526V180.284H224.975V185.298C224.975 185.645 225.137 185.818 225.461 185.818H227.248V187.328H224.889Z" fill="#002026" fill-opacity="0.6"/>
<rect x="88.7733" y="174.045" width="14.8712" height="14.8712" rx="4.95706" fill="#1BC1BF"/>
<path d="M94.9399 221.826C93.8956 221.826 92.9703 221.641 92.1639 221.271C91.3576 220.901 90.7231 220.359 90.2604 219.645C89.811 218.918 89.5863 218.039 89.5863 217.008V216.512H91.7079V217.008C91.7079 217.986 91.9987 218.72 92.5803 219.209C93.1752 219.698 93.9617 219.942 94.9399 219.942C95.9313 219.942 96.6782 219.737 97.1805 219.328C97.6828 218.905 97.934 218.363 97.934 217.702C97.934 217.265 97.815 216.909 97.577 216.631C97.3523 216.353 97.0219 216.135 96.5856 215.977C96.1494 215.805 95.6273 215.646 95.0192 215.501L94.2856 215.322C93.3999 215.111 92.6332 214.853 91.9855 214.549C91.3378 214.232 90.8355 213.815 90.4785 213.3C90.1216 212.784 89.9432 212.123 89.9432 211.317C89.9432 210.497 90.1415 209.797 90.538 209.215C90.9346 208.634 91.4898 208.184 92.2036 207.867C92.9174 207.55 93.7568 207.391 94.7218 207.391C95.6868 207.391 96.546 207.556 97.2995 207.887C98.0661 208.217 98.6676 208.706 99.1038 209.354C99.5533 210.002 99.778 210.815 99.778 211.793V212.507H97.6564V211.793C97.6564 211.198 97.5308 210.716 97.2796 210.345C97.0417 209.975 96.698 209.704 96.2486 209.532C95.8123 209.361 95.3034 209.275 94.7218 209.275C93.8758 209.275 93.2214 209.453 92.7588 209.81C92.2961 210.154 92.0648 210.636 92.0648 211.257C92.0648 211.68 92.1639 212.031 92.3622 212.308C92.5737 212.573 92.8778 212.791 93.2743 212.963C93.6709 213.135 94.16 213.287 94.7416 213.419L95.4753 213.597C96.3741 213.796 97.1673 214.053 97.8546 214.371C98.542 214.675 99.0774 215.091 99.4607 215.62C99.8573 216.148 100.056 216.829 100.056 217.662C100.056 218.495 99.8441 219.222 99.4211 219.843C99.0113 220.464 98.423 220.953 97.6564 221.31C96.8897 221.654 95.9842 221.826 94.9399 221.826ZM93.9485 223.848V205.369H95.9115V223.848H93.9485ZM111.938 221.826C110.92 221.826 110.014 221.641 109.221 221.271C108.428 220.901 107.807 220.365 107.357 219.665C106.921 218.964 106.703 218.131 106.703 217.166V216.809H108.785V217.127C108.785 217.999 109.069 218.693 109.638 219.209C110.219 219.711 110.986 219.962 111.938 219.962C112.89 219.962 113.63 219.724 114.159 219.248C114.687 218.772 114.952 218.171 114.952 217.444V217.265C114.952 216.75 114.826 216.334 114.575 216.016C114.324 215.699 113.987 215.468 113.564 215.322C113.141 215.164 112.665 215.084 112.136 215.084H109.618V212.685L114.496 209.81V209.532H107.04V207.669H116.756V210.484L112.096 213.26V213.538H112.949C113.65 213.538 114.311 213.67 114.932 213.934C115.553 214.199 116.055 214.602 116.439 215.144C116.835 215.686 117.034 216.373 117.034 217.206V217.444C117.034 218.33 116.822 219.103 116.399 219.764C115.976 220.412 115.381 220.92 114.615 221.291C113.848 221.647 112.956 221.826 111.938 221.826ZM119.462 224.245V223.075H120.136C120.678 223.075 120.949 222.804 120.949 222.262V221.628H120.651C120.189 221.628 119.805 221.489 119.501 221.211C119.197 220.934 119.045 220.583 119.045 220.16C119.045 219.698 119.197 219.328 119.501 219.05C119.805 218.759 120.189 218.614 120.651 218.614C121.114 218.614 121.491 218.766 121.781 219.07C122.085 219.361 122.237 219.744 122.237 220.22V222.282C122.237 223.591 121.583 224.245 120.274 224.245H119.462ZM130.951 221.548V218.713H123.932V216.294L129.246 207.669H133.033V216.869H135.372V218.713H133.033V221.548H130.951ZM125.954 216.869H130.951V208.977H130.633L125.954 216.591V216.869ZM142.231 221.826C140.618 221.826 139.329 221.37 138.364 220.458C137.412 219.532 136.937 218.144 136.937 216.294V212.923C136.937 211.112 137.412 209.737 138.364 208.799C139.329 207.86 140.618 207.391 142.231 207.391C143.857 207.391 145.145 207.86 146.097 208.799C147.062 209.737 147.545 211.112 147.545 212.923V216.294C147.545 218.144 147.062 219.532 146.097 220.458C145.145 221.37 143.857 221.826 142.231 221.826ZM142.231 219.962C143.328 219.962 144.141 219.651 144.67 219.03C145.198 218.396 145.463 217.51 145.463 216.373V212.804C145.463 211.667 145.178 210.795 144.61 210.187C144.042 209.565 143.249 209.255 142.231 209.255C141.2 209.255 140.406 209.572 139.851 210.207C139.296 210.828 139.018 211.694 139.018 212.804V216.373C139.018 217.536 139.283 218.429 139.812 219.05C140.354 219.658 141.16 219.962 142.231 219.962ZM155.011 221.826C153.398 221.826 152.109 221.37 151.144 220.458C150.192 219.532 149.716 218.144 149.716 216.294V212.923C149.716 211.112 150.192 209.737 151.144 208.799C152.109 207.86 153.398 207.391 155.011 207.391C156.636 207.391 157.925 207.86 158.877 208.799C159.842 209.737 160.325 211.112 160.325 212.923V216.294C160.325 218.144 159.842 219.532 158.877 220.458C157.925 221.37 156.636 221.826 155.011 221.826ZM155.011 219.962C156.108 219.962 156.921 219.651 157.449 219.03C157.978 218.396 158.243 217.51 158.243 216.373V212.804C158.243 211.667 157.958 210.795 157.39 210.187C156.822 209.565 156.028 209.255 155.011 209.255C153.98 209.255 153.186 209.572 152.631 210.207C152.076 210.828 151.798 211.694 151.798 212.804V216.373C151.798 217.536 152.063 218.429 152.592 219.05C153.134 219.658 153.94 219.962 155.011 219.962ZM163.871 221.826C163.408 221.826 163.018 221.674 162.701 221.37C162.397 221.066 162.245 220.676 162.245 220.2C162.245 219.724 162.397 219.341 162.701 219.05C163.018 218.746 163.408 218.594 163.871 218.594C164.334 218.594 164.717 218.746 165.021 219.05C165.338 219.354 165.497 219.737 165.497 220.2C165.497 220.676 165.338 221.066 165.021 221.37C164.717 221.674 164.334 221.826 163.871 221.826ZM172.728 221.826C171.115 221.826 169.827 221.37 168.862 220.458C167.91 219.532 167.434 218.144 167.434 216.294V212.923C167.434 211.112 167.91 209.737 168.862 208.799C169.827 207.86 171.115 207.391 172.728 207.391C174.354 207.391 175.643 207.86 176.595 208.799C177.56 209.737 178.042 211.112 178.042 212.923V216.294C178.042 218.144 177.56 219.532 176.595 220.458C175.643 221.37 174.354 221.826 172.728 221.826ZM172.728 219.962C173.825 219.962 174.638 219.651 175.167 219.03C175.696 218.396 175.96 217.51 175.96 216.373V212.804C175.96 211.667 175.676 210.795 175.108 210.187C174.539 209.565 173.746 209.255 172.728 209.255C171.697 209.255 170.904 209.572 170.349 210.207C169.794 210.828 169.516 211.694 169.516 212.804V216.373C169.516 217.536 169.78 218.429 170.309 219.05C170.851 219.658 171.657 219.962 172.728 219.962ZM185.508 221.826C183.895 221.826 182.607 221.37 181.642 220.458C180.69 219.532 180.214 218.144 180.214 216.294V212.923C180.214 211.112 180.69 209.737 181.642 208.799C182.607 207.86 183.895 207.391 185.508 207.391C187.134 207.391 188.423 207.86 189.375 208.799C190.34 209.737 190.822 211.112 190.822 212.923V216.294C190.822 218.144 190.34 219.532 189.375 220.458C188.423 221.37 187.134 221.826 185.508 221.826ZM185.508 219.962C186.605 219.962 187.418 219.651 187.947 219.03C188.476 218.396 188.74 217.51 188.74 216.373V212.804C188.74 211.667 188.456 210.795 187.887 210.187C187.319 209.565 186.526 209.255 185.508 209.255C184.477 209.255 183.684 209.572 183.129 210.207C182.574 210.828 182.296 211.694 182.296 212.804V216.373C182.296 217.536 182.56 218.429 183.089 219.05C183.631 219.658 184.437 219.962 185.508 219.962Z" fill="#002026"/>
<g filter="url(#filter0_d_546_37929)">
<rect x="1.99171" y="0.370986" width="458.367" height="147.634" rx="10.5453" fill="#FCFCFC" stroke="#E9C300" stroke-width="1.40604" stroke-dasharray="11.25 11.25"/>
<path d="M138.203 51.5093C136.268 51.5093 134.731 50.9694 133.591 49.8895C132.451 48.7947 131.881 47.2199 131.881 45.1653V41.4758C131.881 39.4211 132.451 37.8539 133.591 36.774C134.731 35.6792 136.268 35.1318 138.203 35.1318C140.138 35.1318 141.675 35.6792 142.815 36.774C143.97 37.8539 144.547 39.4211 144.547 41.4758V45.1653C144.547 47.2199 143.97 48.7947 142.815 49.8895C141.675 50.9694 140.138 51.5093 138.203 51.5093ZM138.203 49.3271C139.448 49.3271 140.408 48.9672 141.083 48.2473C141.757 47.5124 142.095 46.5151 142.095 45.2552V41.3858C142.095 40.126 141.757 39.1362 141.083 38.4163C140.408 37.6814 139.448 37.314 138.203 37.314C136.988 37.314 136.036 37.6814 135.346 38.4163C134.656 39.1362 134.311 40.126 134.311 41.3858V45.2552C134.311 46.5151 134.656 47.5124 135.346 48.2473C136.036 48.9672 136.988 49.3271 138.203 49.3271ZM147.491 51.1943V40.1035H149.763V41.4083H150.123C150.303 40.9434 150.588 40.606 150.978 40.396C151.383 40.171 151.878 40.0585 152.462 40.0585H153.79V42.1507H152.373C151.623 42.1507 151.008 42.3607 150.528 42.7806C150.048 43.1856 149.808 43.8155 149.808 44.6703V51.1943H147.491ZM155.255 45.7052V45.3677C155.255 44.1979 155.488 43.2006 155.953 42.3757C156.433 41.5508 157.062 40.9134 157.842 40.4635C158.622 40.0135 159.477 39.7886 160.407 39.7886C161.487 39.7886 162.312 39.991 162.882 40.396C163.466 40.8009 163.894 41.2359 164.164 41.7008H164.524V40.1035H166.773V53.4665C166.773 54.1414 166.571 54.6813 166.166 55.0862C165.776 55.4912 165.236 55.6936 164.546 55.6936H157.077V53.669H163.826C164.261 53.669 164.479 53.444 164.479 52.9941V49.4621H164.119C163.954 49.7321 163.721 50.0095 163.421 50.2945C163.122 50.5794 162.724 50.8119 162.229 50.9919C161.749 51.1718 161.142 51.2618 160.407 51.2618C159.477 51.2618 158.615 51.0444 157.82 50.6094C157.04 50.1595 156.418 49.5221 155.953 48.6972C155.488 47.8573 155.255 46.86 155.255 45.7052ZM161.037 49.2371C162.042 49.2371 162.867 48.9222 163.511 48.2923C164.171 47.6474 164.501 46.7625 164.501 45.6377V45.4352C164.501 44.2804 164.179 43.3955 163.534 42.7806C162.889 42.1507 162.057 41.8358 161.037 41.8358C160.047 41.8358 159.222 42.1507 158.562 42.7806C157.917 43.3955 157.595 44.2804 157.595 45.4352V45.6377C157.595 46.7625 157.917 47.6474 158.562 48.2923C159.222 48.9222 160.047 49.2371 161.037 49.2371ZM173.627 51.5093C172.832 51.5093 172.12 51.3743 171.49 51.1043C170.875 50.8344 170.38 50.437 170.005 49.912C169.645 49.3871 169.465 48.7497 169.465 47.9998C169.465 47.2349 169.645 46.605 170.005 46.1101C170.38 45.6002 170.882 45.2177 171.512 44.9628C172.157 44.7078 172.885 44.5803 173.695 44.5803H177.069V43.8605C177.069 43.2156 176.874 42.6981 176.484 42.3082C176.094 41.9183 175.494 41.7233 174.684 41.7233C173.889 41.7233 173.282 41.9108 172.862 42.2857C172.442 42.6606 172.165 43.1481 172.03 43.748L169.87 43.0506C170.05 42.4507 170.335 41.9108 170.725 41.4308C171.13 40.9359 171.662 40.5385 172.322 40.2385C172.982 39.9386 173.777 39.7886 174.707 39.7886C176.147 39.7886 177.279 40.156 178.104 40.8909C178.929 41.6258 179.341 42.6681 179.341 44.0179V48.5847C179.341 49.0347 179.551 49.2596 179.971 49.2596H180.916V51.1943H179.184C178.659 51.1943 178.231 51.0594 177.901 50.7894C177.571 50.5194 177.406 50.152 177.406 49.6871V49.6196H177.069C176.949 49.8445 176.769 50.107 176.529 50.407C176.289 50.7069 175.937 50.9694 175.472 51.1943C175.007 51.4043 174.392 51.5093 173.627 51.5093ZM173.964 49.5971C174.894 49.5971 175.644 49.3346 176.214 48.8097C176.784 48.2698 177.069 47.5349 177.069 46.605V46.3801H173.829C173.215 46.3801 172.72 46.5151 172.345 46.785C171.97 47.04 171.782 47.4224 171.782 47.9323C171.782 48.4423 171.977 48.8472 172.367 49.1471C172.757 49.4471 173.29 49.5971 173.964 49.5971ZM183.169 51.1943V40.1035H185.441V41.7683H185.801C186.011 41.3183 186.386 40.8984 186.926 40.5085C187.466 40.1185 188.268 39.9236 189.333 39.9236C190.173 39.9236 190.915 40.111 191.56 40.486C192.22 40.8609 192.737 41.3933 193.112 42.0832C193.487 42.7581 193.675 43.5755 193.675 44.5354V51.1943H191.358V44.7153C191.358 43.7555 191.118 43.0506 190.638 42.6006C190.158 42.1357 189.498 41.9033 188.658 41.9033C187.698 41.9033 186.926 42.2182 186.341 42.8481C185.771 43.478 185.486 44.3929 185.486 45.5927V51.1943H183.169ZM197.01 51.1943V40.1035H199.327V51.1943H197.01ZM198.179 38.5963C197.729 38.5963 197.347 38.4538 197.032 38.1688C196.732 37.8689 196.582 37.4864 196.582 37.0215C196.582 36.5566 196.732 36.1816 197.032 35.8967C197.347 35.5967 197.729 35.4467 198.179 35.4467C198.644 35.4467 199.027 35.5967 199.327 35.8967C199.627 36.1816 199.777 36.5566 199.777 37.0215C199.777 37.4864 199.627 37.8689 199.327 38.1688C199.027 38.4538 198.644 38.5963 198.179 38.5963ZM202.316 51.1943V48.3598L208.862 42.3757V42.0607H202.541V40.1035H211.382V42.9606L204.813 48.9447V49.2371H211.562V51.1943H202.316ZM217.851 51.5093C217.056 51.5093 216.344 51.3743 215.714 51.1043C215.099 50.8344 214.604 50.437 214.229 49.912C213.869 49.3871 213.689 48.7497 213.689 47.9998C213.689 47.2349 213.869 46.605 214.229 46.1101C214.604 45.6002 215.107 45.2177 215.737 44.9628C216.381 44.7078 217.109 44.5803 217.919 44.5803H221.293V43.8605C221.293 43.2156 221.098 42.6981 220.708 42.3082C220.318 41.9183 219.718 41.7233 218.909 41.7233C218.114 41.7233 217.506 41.9108 217.086 42.2857C216.666 42.6606 216.389 43.1481 216.254 43.748L214.094 43.0506C214.274 42.4507 214.559 41.9108 214.949 41.4308C215.354 40.9359 215.887 40.5385 216.546 40.2385C217.206 39.9386 218.001 39.7886 218.931 39.7886C220.371 39.7886 221.503 40.156 222.328 40.8909C223.153 41.6258 223.565 42.6681 223.565 44.0179V48.5847C223.565 49.0347 223.775 49.2596 224.195 49.2596H225.14V51.1943H223.408C222.883 51.1943 222.456 51.0594 222.126 50.7894C221.796 50.5194 221.631 50.152 221.631 49.6871V49.6196H221.293C221.173 49.8445 220.993 50.107 220.753 50.407C220.513 50.7069 220.161 50.9694 219.696 51.1943C219.231 51.4043 218.616 51.5093 217.851 51.5093ZM218.189 49.5971C219.119 49.5971 219.868 49.3346 220.438 48.8097C221.008 48.2698 221.293 47.5349 221.293 46.605V46.3801H218.054C217.439 46.3801 216.944 46.5151 216.569 46.785C216.194 47.04 216.007 47.4224 216.007 47.9323C216.007 48.4423 216.201 48.8472 216.591 49.1471C216.981 49.4471 217.514 49.5971 218.189 49.5971ZM230.786 51.1943C230.111 51.1943 229.571 50.9919 229.166 50.5869C228.776 50.182 228.581 49.6421 228.581 48.9672V42.0607H225.522V40.1035H228.581V36.4366H230.899V40.1035H234.206V42.0607H230.899V48.5622C230.899 49.0122 231.108 49.2371 231.528 49.2371H233.846V51.1943H230.786ZM236.928 51.1943V40.1035H239.245V51.1943H236.928ZM238.098 38.5963C237.648 38.5963 237.265 38.4538 236.95 38.1688C236.65 37.8689 236.5 37.4864 236.5 37.0215C236.5 36.5566 236.65 36.1816 236.95 35.8967C237.265 35.5967 237.648 35.4467 238.098 35.4467C238.563 35.4467 238.945 35.5967 239.245 35.8967C239.545 36.1816 239.695 36.5566 239.695 37.0215C239.695 37.4864 239.545 37.8689 239.245 38.1688C238.945 38.4538 238.563 38.5963 238.098 38.5963ZM247.88 51.5093C246.771 51.5093 245.781 51.2843 244.911 50.8344C244.056 50.3695 243.381 49.7096 242.886 48.8547C242.391 47.9998 242.144 46.9875 242.144 45.8177V45.4802C242.144 44.3104 242.391 43.3055 242.886 42.4657C243.381 41.6108 244.056 40.9509 244.911 40.486C245.781 40.021 246.771 39.7886 247.88 39.7886C248.99 39.7886 249.98 40.021 250.85 40.486C251.72 40.9509 252.402 41.6108 252.897 42.4657C253.392 43.3055 253.64 44.3104 253.64 45.4802V45.8177C253.64 46.9875 253.392 47.9998 252.897 48.8547C252.402 49.7096 251.72 50.3695 250.85 50.8344C249.98 51.2843 248.99 51.5093 247.88 51.5093ZM247.88 49.4396C248.9 49.4396 249.725 49.1172 250.355 48.4723C251 47.8124 251.322 46.905 251.322 45.7502V45.5477C251.322 44.3929 251.007 43.493 250.378 42.8481C249.748 42.1882 248.915 41.8583 247.88 41.8583C246.876 41.8583 246.051 42.1882 245.406 42.8481C244.776 43.493 244.461 44.3929 244.461 45.5477V45.7502C244.461 46.905 244.776 47.8124 245.406 48.4723C246.051 49.1172 246.876 49.4396 247.88 49.4396ZM256.524 51.1943V40.1035H258.797V41.7683H259.156C259.366 41.3183 259.741 40.8984 260.281 40.5085C260.821 40.1185 261.624 39.9236 262.688 39.9236C263.528 39.9236 264.271 40.111 264.916 40.486C265.576 40.8609 266.093 41.3933 266.468 42.0832C266.843 42.7581 267.03 43.5755 267.03 44.5354V51.1943H264.713V44.7153C264.713 43.7555 264.473 43.0506 263.993 42.6006C263.513 42.1357 262.853 41.9033 262.014 41.9033C261.054 41.9033 260.281 42.2182 259.696 42.8481C259.127 43.478 258.842 44.3929 258.842 45.5927V51.1943H256.524ZM276.032 51.1943V35.4467H278.461V48.9897H286.043V51.1943H276.032ZM293.489 51.5093C292.379 51.5093 291.389 51.2843 290.519 50.8344C289.664 50.3695 288.989 49.7096 288.494 48.8547C288 47.9998 287.752 46.9875 287.752 45.8177V45.4802C287.752 44.3104 288 43.3055 288.494 42.4657C288.989 41.6108 289.664 40.9509 290.519 40.486C291.389 40.021 292.379 39.7886 293.489 39.7886C294.599 39.7886 295.588 40.021 296.458 40.486C297.328 40.9509 298.011 41.6108 298.505 42.4657C299 43.3055 299.248 44.3104 299.248 45.4802V45.8177C299.248 46.9875 299 47.9998 298.505 48.8547C298.011 49.7096 297.328 50.3695 296.458 50.8344C295.588 51.2843 294.599 51.5093 293.489 51.5093ZM293.489 49.4396C294.509 49.4396 295.333 49.1172 295.963 48.4723C296.608 47.8124 296.931 46.905 296.931 45.7502V45.5477C296.931 44.3929 296.616 43.493 295.986 42.8481C295.356 42.1882 294.524 41.8583 293.489 41.8583C292.484 41.8583 291.659 42.1882 291.014 42.8481C290.384 43.493 290.069 44.3929 290.069 45.5477V45.7502C290.069 46.905 290.384 47.8124 291.014 48.4723C291.659 49.1172 292.484 49.4396 293.489 49.4396ZM305.575 51.5093C304.78 51.5093 304.067 51.3743 303.437 51.1043C302.823 50.8344 302.328 50.437 301.953 49.912C301.593 49.3871 301.413 48.7497 301.413 47.9998C301.413 47.2349 301.593 46.605 301.953 46.1101C302.328 45.6002 302.83 45.2177 303.46 44.9628C304.105 44.7078 304.832 44.5803 305.642 44.5803H309.017V43.8605C309.017 43.2156 308.822 42.6981 308.432 42.3082C308.042 41.9183 307.442 41.7233 306.632 41.7233C305.837 41.7233 305.23 41.9108 304.81 42.2857C304.39 42.6606 304.112 43.1481 303.977 43.748L301.818 43.0506C301.998 42.4507 302.283 41.9108 302.673 41.4308C303.078 40.9359 303.61 40.5385 304.27 40.2385C304.93 39.9386 305.725 39.7886 306.654 39.7886C308.094 39.7886 309.227 40.156 310.051 40.8909C310.876 41.6258 311.289 42.6681 311.289 44.0179V48.5847C311.289 49.0347 311.499 49.2596 311.919 49.2596H312.864V51.1943H311.131C310.606 51.1943 310.179 51.0594 309.849 50.7894C309.519 50.5194 309.354 50.152 309.354 49.6871V49.6196H309.017C308.897 49.8445 308.717 50.107 308.477 50.407C308.237 50.7069 307.884 50.9694 307.419 51.1943C306.954 51.4043 306.34 51.5093 305.575 51.5093ZM305.912 49.5971C306.842 49.5971 307.592 49.3346 308.162 48.8097C308.732 48.2698 309.017 47.5349 309.017 46.605V46.3801H305.777C305.162 46.3801 304.667 46.5151 304.292 46.785C303.917 47.04 303.73 47.4224 303.73 47.9323C303.73 48.4423 303.925 48.8472 304.315 49.1471C304.705 49.4471 305.237 49.5971 305.912 49.5971ZM315.117 51.1943V40.1035H317.389V41.7683H317.749C317.959 41.3183 318.334 40.8984 318.873 40.5085C319.413 40.1185 320.216 39.9236 321.281 39.9236C322.12 39.9236 322.863 40.111 323.508 40.486C324.168 40.8609 324.685 41.3933 325.06 42.0832C325.435 42.7581 325.622 43.5755 325.622 44.5354V51.1943H323.305V44.7153C323.305 43.7555 323.065 43.0506 322.585 42.6006C322.105 42.1357 321.446 41.9033 320.606 41.9033C319.646 41.9033 318.873 42.2182 318.289 42.8481C317.719 43.478 317.434 44.3929 317.434 45.5927V51.1943H315.117Z" fill="#102E34"/>
<path d="M132.081 87.5635V73.7843H136.077L139.089 86.1462H139.404L142.415 73.7843H146.411V87.5635H144.345V75.2804H144.03L141.038 87.5635H137.455L134.463 75.2804H134.148V87.5635H132.081ZM150.467 91.5004V89.7288H155.88C156.248 89.7288 156.431 89.5319 156.431 89.1382V86.1462H156.116C155.998 86.4087 155.815 86.6646 155.565 86.9139C155.329 87.1501 155.007 87.3469 154.601 87.5044C154.194 87.6619 153.682 87.7406 153.065 87.7406C152.33 87.7406 151.674 87.5766 151.097 87.2485C150.519 86.9204 150.067 86.4546 149.739 85.8509C149.411 85.2473 149.246 84.5321 149.246 83.7053V77.859H151.274V83.5478C151.274 84.3877 151.484 85.0111 151.904 85.4179C152.324 85.8116 152.908 86.0084 153.656 86.0084C154.483 86.0084 155.145 85.7328 155.644 85.1817C156.156 84.6305 156.412 83.83 156.412 82.7801V77.859H158.439V89.5516C158.439 90.1421 158.262 90.6146 157.908 90.9689C157.566 91.3232 157.094 91.5004 156.49 91.5004H150.467ZM171.001 87.8391C170.03 87.8391 169.163 87.6422 168.402 87.2485C167.654 86.8417 167.064 86.2643 166.631 85.5163C166.198 84.7683 165.981 83.8825 165.981 82.8589V82.5636C165.981 81.54 166.198 80.6608 166.631 79.9259C167.064 79.1779 167.654 78.6005 168.402 78.1937C169.163 77.7868 170.03 77.5834 171.001 77.5834C171.972 77.5834 172.838 77.7868 173.599 78.1937C174.36 78.6005 174.957 79.1779 175.39 79.9259C175.823 80.6608 176.04 81.54 176.04 82.5636V82.8589C176.04 83.8825 175.823 84.7683 175.39 85.5163C174.957 86.2643 174.36 86.8417 173.599 87.2485C172.838 87.6422 171.972 87.8391 171.001 87.8391ZM171.001 86.0281C171.893 86.0281 172.615 85.7459 173.166 85.1817C173.73 84.6042 174.012 83.8103 174.012 82.7998V82.6227C174.012 81.6122 173.737 80.8248 173.186 80.2605C172.634 79.6831 171.906 79.3944 171.001 79.3944C170.121 79.3944 169.4 79.6831 168.835 80.2605C168.284 80.8248 168.009 81.6122 168.009 82.6227V82.7998C168.009 83.8103 168.284 84.6042 168.835 85.1817C169.4 85.7459 170.121 86.0281 171.001 86.0281ZM178.564 87.5635V77.859H180.552V79.0007H180.867C181.025 78.5939 181.274 78.2986 181.615 78.1149C181.969 77.9181 182.403 77.8197 182.914 77.8197H184.076V79.6503H182.836C182.179 79.6503 181.641 79.834 181.221 80.2015C180.802 80.5558 180.592 81.107 180.592 81.855V87.5635H178.564ZM185.358 82.7605V82.4652C185.358 81.4416 185.561 80.5689 185.968 79.8472C186.388 79.1254 186.939 78.5677 187.622 78.174C188.304 77.7803 189.052 77.5834 189.866 77.5834C190.811 77.5834 191.532 77.7606 192.031 78.1149C192.543 78.4692 192.917 78.8498 193.153 79.2566H193.468V77.859H195.436V89.5516C195.436 90.1421 195.259 90.6146 194.905 90.9689C194.564 91.3232 194.091 91.5004 193.488 91.5004H186.952V89.7288H192.858C193.238 89.7288 193.429 89.5319 193.429 89.1382V86.0478H193.114C192.969 86.284 192.766 86.5268 192.503 86.7761C192.241 87.0254 191.893 87.2288 191.46 87.3863C191.04 87.5438 190.509 87.6225 189.866 87.6225C189.052 87.6225 188.298 87.4322 187.602 87.0517C186.92 86.658 186.375 86.1003 185.968 85.3785C185.561 84.6436 185.358 83.7709 185.358 82.7605ZM190.417 85.8509C191.296 85.8509 192.018 85.5753 192.582 85.0242C193.16 84.4599 193.448 83.6856 193.448 82.7014V82.5242C193.448 81.5138 193.166 80.7395 192.602 80.2015C192.038 79.6503 191.309 79.3747 190.417 79.3747C189.551 79.3747 188.829 79.6503 188.252 80.2015C187.687 80.7395 187.405 81.5138 187.405 82.5242V82.7014C187.405 83.6856 187.687 84.4599 188.252 85.0242C188.829 85.5753 189.551 85.8509 190.417 85.8509ZM201.433 87.8391C200.738 87.8391 200.114 87.721 199.563 87.4847C199.025 87.2485 198.592 86.9008 198.264 86.4415C197.949 85.9822 197.792 85.4244 197.792 84.7683C197.792 84.099 197.949 83.5478 198.264 83.1148C198.592 82.6686 199.032 82.334 199.583 82.1109C200.147 81.8878 200.784 81.7762 201.492 81.7762H204.445V81.1463C204.445 80.582 204.274 80.1293 203.933 79.7881C203.592 79.4469 203.067 79.2763 202.358 79.2763C201.663 79.2763 201.131 79.4403 200.764 79.7684C200.397 80.0965 200.154 80.523 200.036 81.0479L198.146 80.4377C198.303 79.9128 198.553 79.4403 198.894 79.0204C199.248 78.5873 199.714 78.2396 200.292 77.9771C200.869 77.7147 201.565 77.5834 202.378 77.5834C203.638 77.5834 204.629 77.905 205.351 78.548C206.072 79.191 206.433 80.1031 206.433 81.2841V85.2801C206.433 85.6738 206.617 85.8706 206.984 85.8706H207.811V87.5635H206.295C205.836 87.5635 205.462 87.4454 205.173 87.2092C204.885 86.9729 204.74 86.6514 204.74 86.2446V86.1856H204.445C204.34 86.3824 204.183 86.6121 203.973 86.8745C203.763 87.137 203.454 87.3666 203.047 87.5635C202.641 87.7472 202.103 87.8391 201.433 87.8391ZM201.729 86.1659C202.542 86.1659 203.198 85.9362 203.697 85.4769C204.196 85.0045 204.445 84.3615 204.445 83.5478V83.351H201.61C201.072 83.351 200.639 83.4691 200.311 83.7053C199.983 83.9284 199.819 84.263 199.819 84.7092C199.819 85.1554 199.99 85.5097 200.331 85.7722C200.672 86.0346 201.138 86.1659 201.729 86.1659ZM209.782 87.5635V77.859H211.771V79.3157H212.086C212.269 78.922 212.597 78.5545 213.07 78.2133C213.542 77.8721 214.244 77.7015 215.176 77.7015C215.911 77.7015 216.56 77.8656 217.125 78.1937C217.702 78.5217 218.155 78.9876 218.483 79.5913C218.811 80.1818 218.975 80.897 218.975 81.7369V87.5635H216.948V81.8943C216.948 81.0545 216.738 80.4377 216.318 80.044C215.898 79.6372 215.32 79.4338 214.585 79.4338C213.746 79.4338 213.07 79.7094 212.558 80.2605C212.059 80.8117 211.81 81.6122 211.81 82.662V87.5635H209.782ZM221.893 87.5635V77.859H223.921V87.5635H221.893ZM222.917 76.5402C222.523 76.5402 222.188 76.4155 221.913 76.1662C221.65 75.9037 221.519 75.5691 221.519 75.1622C221.519 74.7554 221.65 74.4274 221.913 74.178C222.188 73.9156 222.523 73.7843 222.917 73.7843C223.323 73.7843 223.658 73.9156 223.921 74.178C224.183 74.4274 224.314 74.7554 224.314 75.1622C224.314 75.5691 224.183 75.9037 223.921 76.1662C223.658 76.4155 223.323 76.5402 222.917 76.5402ZM226.536 87.5635V85.0832L232.264 79.8472V79.5716H226.733V77.859H234.469V80.359L228.721 85.595V85.8509H234.626V87.5635H226.536ZM240.129 87.8391C239.434 87.8391 238.811 87.721 238.259 87.4847C237.721 87.2485 237.288 86.9008 236.96 86.4415C236.645 85.9822 236.488 85.4244 236.488 84.7683C236.488 84.099 236.645 83.5478 236.96 83.1148C237.288 82.6686 237.728 82.334 238.279 82.1109C238.843 81.8878 239.48 81.7762 240.189 81.7762H243.141V81.1463C243.141 80.582 242.971 80.1293 242.629 79.7881C242.288 79.4469 241.763 79.2763 241.055 79.2763C240.359 79.2763 239.828 79.4403 239.46 79.7684C239.093 80.0965 238.85 80.523 238.732 81.0479L236.842 80.4377C237 79.9128 237.249 79.4403 237.59 79.0204C237.944 78.5873 238.41 78.2396 238.988 77.9771C239.565 77.7147 240.261 77.5834 241.074 77.5834C242.334 77.5834 243.325 77.905 244.047 78.548C244.768 79.191 245.129 80.1031 245.129 81.2841V85.2801C245.129 85.6738 245.313 85.8706 245.681 85.8706H246.507V87.5635H244.992C244.532 87.5635 244.158 87.4454 243.87 87.2092C243.581 86.9729 243.436 86.6514 243.436 86.2446V86.1856H243.141C243.036 86.3824 242.879 86.6121 242.669 86.8745C242.459 87.137 242.15 87.3666 241.744 87.5635C241.337 87.7472 240.799 87.8391 240.129 87.8391ZM240.425 86.1659C241.238 86.1659 241.895 85.9362 242.393 85.4769C242.892 85.0045 243.141 84.3615 243.141 83.5478V83.351H240.307C239.769 83.351 239.336 83.4691 239.007 83.7053C238.679 83.9284 238.515 84.263 238.515 84.7092C238.515 85.1554 238.686 85.5097 239.027 85.7722C239.368 86.0346 239.834 86.1659 240.425 86.1659ZM251.447 87.5635C250.857 87.5635 250.384 87.3863 250.03 87.032C249.689 86.6777 249.518 86.2052 249.518 85.6147V79.5716H246.841V77.859H249.518V74.6504H251.546V77.859H254.439V79.5716H251.546V85.2604C251.546 85.6541 251.73 85.8509 252.097 85.8509H254.125V87.5635H251.447ZM256.821 87.5635V77.859H258.849V87.5635H256.821ZM257.845 76.5402C257.451 76.5402 257.117 76.4155 256.841 76.1662C256.579 75.9037 256.447 75.5691 256.447 75.1622C256.447 74.7554 256.579 74.4274 256.841 74.178C257.117 73.9156 257.451 73.7843 257.845 73.7843C258.252 73.7843 258.587 73.9156 258.849 74.178C259.111 74.4274 259.243 74.7554 259.243 75.1622C259.243 75.5691 259.111 75.9037 258.849 76.1662C258.587 76.4155 258.252 76.5402 257.845 76.5402ZM266.405 87.8391C265.434 87.8391 264.568 87.6422 263.807 87.2485C263.059 86.8417 262.468 86.2643 262.035 85.5163C261.602 84.7683 261.386 83.8825 261.386 82.8589V82.5636C261.386 81.54 261.602 80.6608 262.035 79.9259C262.468 79.1779 263.059 78.6005 263.807 78.1937C264.568 77.7868 265.434 77.5834 266.405 77.5834C267.376 77.5834 268.242 77.7868 269.003 78.1937C269.765 78.6005 270.362 79.1779 270.795 79.9259C271.228 80.6608 271.444 81.54 271.444 82.5636V82.8589C271.444 83.8825 271.228 84.7683 270.795 85.5163C270.362 86.2643 269.765 86.8417 269.003 87.2485C268.242 87.6422 267.376 87.8391 266.405 87.8391ZM266.405 86.0281C267.297 86.0281 268.019 85.7459 268.57 85.1817C269.135 84.6042 269.417 83.8103 269.417 82.7998V82.6227C269.417 81.6122 269.141 80.8248 268.59 80.2605C268.039 79.6831 267.311 79.3944 266.405 79.3944C265.526 79.3944 264.804 79.6831 264.24 80.2605C263.689 80.8248 263.413 81.6122 263.413 82.6227V82.7998C263.413 83.8103 263.689 84.6042 264.24 85.1817C264.804 85.7459 265.526 86.0281 266.405 86.0281ZM273.969 87.5635V77.859H275.957V79.3157H276.272C276.455 78.922 276.783 78.5545 277.256 78.2133C277.728 77.8721 278.43 77.7015 279.362 77.7015C280.097 77.7015 280.747 77.8656 281.311 78.1937C281.888 78.5217 282.341 78.9876 282.669 79.5913C282.997 80.1818 283.161 80.897 283.161 81.7369V87.5635H281.134V81.8943C281.134 81.0545 280.924 80.4377 280.504 80.044C280.084 79.6372 279.506 79.4338 278.772 79.4338C277.932 79.4338 277.256 79.7094 276.744 80.2605C276.245 80.8117 275.996 81.6122 275.996 82.662V87.5635H273.969ZM291.096 87.5635V77.859H293.124V87.5635H291.096ZM292.12 76.5402C291.726 76.5402 291.392 76.4155 291.116 76.1662C290.854 75.9037 290.722 75.5691 290.722 75.1622C290.722 74.7554 290.854 74.4274 291.116 74.178C291.392 73.9156 291.726 73.7843 292.12 73.7843C292.527 73.7843 292.861 73.9156 293.124 74.178C293.386 74.4274 293.518 74.7554 293.518 75.1622C293.518 75.5691 293.386 75.9037 293.124 76.1662C292.861 76.4155 292.527 76.5402 292.12 76.5402ZM300.109 87.8391C298.875 87.8391 297.852 87.5635 297.038 87.0123C296.225 86.4611 295.726 85.6278 295.542 84.5124L297.432 84.0596C297.537 84.5977 297.714 85.0242 297.963 85.3391C298.213 85.6541 298.521 85.8772 298.889 86.0084C299.269 86.1396 299.676 86.2052 300.109 86.2052C300.752 86.2052 301.244 86.0806 301.585 85.8312C301.94 85.5819 302.117 85.2604 302.117 84.8667C302.117 84.473 301.953 84.1843 301.625 84.0006C301.297 83.8169 300.811 83.6659 300.168 83.5478L299.499 83.4297C298.843 83.3116 298.246 83.141 297.708 82.9179C297.17 82.6948 296.743 82.3865 296.428 81.9928C296.113 81.5991 295.956 81.0938 295.956 80.4771C295.956 79.5584 296.297 78.8498 296.979 78.3511C297.662 77.8393 298.567 77.5834 299.696 77.5834C300.785 77.5834 301.677 77.8328 302.373 78.3314C303.081 78.817 303.541 79.4797 303.751 80.3196L301.861 80.8511C301.743 80.2605 301.494 79.8472 301.113 79.6109C300.732 79.3616 300.26 79.2369 299.696 79.2369C299.145 79.2369 298.711 79.3419 298.397 79.5519C298.082 79.7487 297.924 80.0309 297.924 80.3983C297.924 80.792 298.075 81.0807 298.377 81.2644C298.692 81.4482 299.112 81.586 299.637 81.6778L300.326 81.7959C301.021 81.914 301.658 82.0781 302.235 82.288C302.812 82.498 303.265 82.7998 303.593 83.1935C303.934 83.5872 304.105 84.1121 304.105 84.7683C304.105 85.7394 303.744 86.494 303.022 87.032C302.301 87.57 301.329 87.8391 300.109 87.8391ZM311.492 87.5635V77.859H313.48V79.0007H313.795C313.953 78.5939 314.202 78.2986 314.543 78.1149C314.897 77.9181 315.331 77.8197 315.842 77.8197H317.004V79.6503H315.764C315.107 79.6503 314.569 79.834 314.149 80.2015C313.73 80.5558 313.52 81.107 313.52 81.855V87.5635H311.492ZM323.207 87.8391C322.223 87.8391 321.363 87.6357 320.628 87.2288C319.894 86.8089 319.316 86.2249 318.896 85.4769C318.489 84.7158 318.286 83.8365 318.286 82.8392V82.603C318.286 81.5925 318.489 80.7133 318.896 79.9653C319.303 79.2041 319.867 78.6202 320.589 78.2133C321.324 77.7934 322.17 77.5834 323.128 77.5834C324.06 77.5834 324.874 77.7934 325.569 78.2133C326.278 78.6202 326.829 79.191 327.223 79.9259C327.616 80.6608 327.813 81.5203 327.813 82.5046V83.2723H320.353C320.379 84.1253 320.661 84.8076 321.199 85.3194C321.75 85.8181 322.433 86.0675 323.246 86.0675C324.008 86.0675 324.578 85.8969 324.959 85.5557C325.353 85.2145 325.655 84.8208 325.865 84.3746L327.538 85.2407C327.354 85.6082 327.085 85.9953 326.731 86.4021C326.389 86.8089 325.937 87.1501 325.372 87.4257C324.808 87.7013 324.086 87.8391 323.207 87.8391ZM320.373 81.7172H325.746C325.694 80.9823 325.431 80.4114 324.959 80.0046C324.487 79.5847 323.87 79.3747 323.109 79.3747C322.348 79.3747 321.724 79.5847 321.239 80.0046C320.766 80.4114 320.478 80.9823 320.373 81.7172ZM334.23 87.8391C332.997 87.8391 331.973 87.5635 331.159 87.0123C330.346 86.4611 329.847 85.6278 329.663 84.5124L331.553 84.0596C331.658 84.5977 331.835 85.0242 332.085 85.3391C332.334 85.6541 332.642 85.8772 333.01 86.0084C333.39 86.1396 333.797 86.2052 334.23 86.2052C334.873 86.2052 335.365 86.0806 335.706 85.8312C336.061 85.5819 336.238 85.2604 336.238 84.8667C336.238 84.473 336.074 84.1843 335.746 84.0006C335.418 83.8169 334.932 83.6659 334.289 83.5478L333.62 83.4297C332.964 83.3116 332.367 83.141 331.829 82.9179C331.291 82.6948 330.864 82.3865 330.549 81.9928C330.234 81.5991 330.077 81.0938 330.077 80.4771C330.077 79.5584 330.418 78.8498 331.1 78.3511C331.783 77.8393 332.688 77.5834 333.817 77.5834C334.906 77.5834 335.798 77.8328 336.494 78.3314C337.202 78.817 337.662 79.4797 337.872 80.3196L335.982 80.8511C335.864 80.2605 335.615 79.8472 335.234 79.6109C334.853 79.3616 334.381 79.2369 333.817 79.2369C333.266 79.2369 332.833 79.3419 332.518 79.5519C332.203 79.7487 332.045 80.0309 332.045 80.3983C332.045 80.792 332.196 81.0807 332.498 81.2644C332.813 81.4482 333.233 81.586 333.758 81.6778L334.447 81.7959C335.142 81.914 335.779 82.0781 336.356 82.288C336.933 82.498 337.386 82.7998 337.714 83.1935C338.055 83.5872 338.226 84.1121 338.226 84.7683C338.226 85.7394 337.865 86.494 337.143 87.032C336.422 87.57 335.451 87.8391 334.23 87.8391ZM340.596 91.5004V77.859H342.584V79.2566H342.899C343.148 78.8236 343.522 78.4364 344.021 78.0952C344.533 77.754 345.261 77.5834 346.206 77.5834C347.02 77.5834 347.761 77.7803 348.43 78.174C349.113 78.5677 349.657 79.1385 350.064 79.8865C350.484 80.6214 350.694 81.5138 350.694 82.5636V82.8589C350.694 83.9087 350.491 84.8076 350.084 85.5557C349.677 86.2905 349.132 86.8548 348.45 87.2485C347.768 87.6422 347.02 87.8391 346.206 87.8391C345.576 87.8391 345.045 87.7603 344.612 87.6028C344.178 87.4454 343.831 87.2485 343.568 87.0123C343.306 86.763 343.096 86.5071 342.938 86.2446H342.623V91.5004H340.596ZM345.615 86.0675C346.508 86.0675 347.236 85.7853 347.8 85.221C348.365 84.6567 348.647 83.8497 348.647 82.7998V82.6227C348.647 81.586 348.358 80.7854 347.781 80.2212C347.216 79.6569 346.495 79.3747 345.615 79.3747C344.749 79.3747 344.028 79.6569 343.45 80.2212C342.886 80.7854 342.604 81.586 342.604 82.6227V82.7998C342.604 83.8497 342.886 84.6567 343.45 85.221C344.028 85.7853 344.749 86.0675 345.615 86.0675ZM357.753 87.8391C356.782 87.8391 355.916 87.6422 355.155 87.2485C354.407 86.8417 353.817 86.2643 353.383 85.5163C352.95 84.7683 352.734 83.8825 352.734 82.8589V82.5636C352.734 81.54 352.95 80.6608 353.383 79.9259C353.817 79.1779 354.407 78.6005 355.155 78.1937C355.916 77.7868 356.782 77.5834 357.753 77.5834C358.725 77.5834 359.591 77.7868 360.352 78.1937C361.113 78.6005 361.71 79.1779 362.143 79.9259C362.576 80.6608 362.793 81.54 362.793 82.5636V82.8589C362.793 83.8825 362.576 84.7683 362.143 85.5163C361.71 86.2643 361.113 86.8417 360.352 87.2485C359.591 87.6422 358.725 87.8391 357.753 87.8391ZM357.753 86.0281C358.646 86.0281 359.368 85.7459 359.919 85.1817C360.483 84.6042 360.765 83.8103 360.765 82.7998V82.6227C360.765 81.6122 360.49 80.8248 359.938 80.2605C359.387 79.6831 358.659 79.3944 357.753 79.3944C356.874 79.3944 356.152 79.6831 355.588 80.2605C355.037 80.8248 354.761 81.6122 354.761 82.6227V82.7998C354.761 83.8103 355.037 84.6042 355.588 85.1817C356.152 85.7459 356.874 86.0281 357.753 86.0281ZM365.317 87.5635V77.859H367.305V79.3157H367.62C367.804 78.922 368.132 78.5545 368.604 78.2133C369.077 77.8721 369.779 77.7015 370.71 77.7015C371.445 77.7015 372.095 77.8656 372.659 78.1937C373.237 78.5217 373.689 78.9876 374.017 79.5913C374.345 80.1818 374.51 80.897 374.51 81.7369V87.5635H372.482V81.8943C372.482 81.0545 372.272 80.4377 371.852 80.044C371.432 79.6372 370.855 79.4338 370.12 79.4338C369.28 79.4338 368.604 79.7094 368.092 80.2605C367.594 80.8117 367.344 81.6122 367.344 82.662V87.5635H365.317ZM381.404 87.8391C380.17 87.8391 379.147 87.5635 378.333 87.0123C377.519 86.4611 377.021 85.6278 376.837 84.5124L378.727 84.0596C378.832 84.5977 379.009 85.0242 379.258 85.3391C379.507 85.6541 379.816 85.8772 380.183 86.0084C380.564 86.1396 380.971 86.2052 381.404 86.2052C382.047 86.2052 382.539 86.0806 382.88 85.8312C383.234 85.5819 383.412 85.2604 383.412 84.8667C383.412 84.473 383.247 84.1843 382.919 84.0006C382.591 83.8169 382.106 83.6659 381.463 83.5478L380.793 83.4297C380.137 83.3116 379.54 83.141 379.002 82.9179C378.464 82.6948 378.038 82.3865 377.723 81.9928C377.408 81.5991 377.25 81.0938 377.25 80.4771C377.25 79.5584 377.591 78.8498 378.274 78.3511C378.956 77.8393 379.862 77.5834 380.99 77.5834C382.08 77.5834 382.972 77.8328 383.667 78.3314C384.376 78.817 384.835 79.4797 385.045 80.3196L383.156 80.8511C383.038 80.2605 382.788 79.8472 382.408 79.6109C382.027 79.3616 381.555 79.2369 380.99 79.2369C380.439 79.2369 380.006 79.3419 379.691 79.5519C379.376 79.7487 379.219 80.0309 379.219 80.3983C379.219 80.792 379.37 81.0807 379.671 81.2644C379.986 81.4482 380.406 81.586 380.931 81.6778L381.62 81.7959C382.316 81.914 382.952 82.0781 383.53 82.288C384.107 82.498 384.56 82.7998 384.888 83.1935C385.229 83.5872 385.4 84.1121 385.4 84.7683C385.4 85.7394 385.039 86.494 384.317 87.032C383.595 87.57 382.624 87.8391 381.404 87.8391ZM387.769 87.5635V77.859H389.797V87.5635H387.769ZM388.793 76.5402C388.399 76.5402 388.065 76.4155 387.789 76.1662C387.527 75.9037 387.395 75.5691 387.395 75.1622C387.395 74.7554 387.527 74.4274 387.789 74.178C388.065 73.9156 388.399 73.7843 388.793 73.7843C389.2 73.7843 389.535 73.9156 389.797 74.178C390.059 74.4274 390.191 74.7554 390.191 75.1622C390.191 75.5691 390.059 75.9037 389.797 76.1662C389.535 76.4155 389.2 76.5402 388.793 76.5402ZM398.416 87.8391C397.471 87.8391 396.743 87.6685 396.231 87.3273C395.732 86.9861 395.358 86.6055 395.109 86.1856H394.794V87.5635H392.806V73.7843H394.833V79.1779H395.148C395.306 78.9154 395.516 78.6661 395.778 78.4299C396.041 78.1805 396.389 77.9771 396.822 77.8197C397.255 77.6622 397.786 77.5834 398.416 77.5834C399.23 77.5834 399.978 77.7803 400.66 78.174C401.342 78.5677 401.887 79.1385 402.294 79.8865C402.701 80.6345 402.904 81.5269 402.904 82.5636V82.8589C402.904 83.9087 402.694 84.8076 402.274 85.5557C401.867 86.2905 401.323 86.8548 400.64 87.2485C399.971 87.6422 399.23 87.8391 398.416 87.8391ZM397.826 86.0675C398.705 86.0675 399.427 85.7853 399.991 85.221C400.568 84.6567 400.857 83.8497 400.857 82.7998V82.6227C400.857 81.586 400.575 80.7854 400.01 80.2212C399.446 79.6569 398.718 79.3747 397.826 79.3747C396.959 79.3747 396.238 79.6569 395.66 80.2212C395.096 80.7854 394.814 81.586 394.814 82.6227V82.7998C394.814 83.8497 395.096 84.6567 395.66 85.221C396.238 85.7853 396.959 86.0675 397.826 86.0675ZM405.416 87.5635V73.7843H407.444V87.5635H405.416ZM414.901 87.8391C413.917 87.8391 413.058 87.6357 412.323 87.2288C411.588 86.8089 411.011 86.2249 410.591 85.4769C410.184 84.7158 409.98 83.8365 409.98 82.8392V82.603C409.98 81.5925 410.184 80.7133 410.591 79.9653C410.997 79.2041 411.562 78.6202 412.283 78.2133C413.018 77.7934 413.865 77.5834 414.823 77.5834C415.754 77.5834 416.568 77.7934 417.264 78.2133C417.972 78.6202 418.523 79.191 418.917 79.9259C419.311 80.6608 419.508 81.5203 419.508 82.5046V83.2723H412.047C412.073 84.1253 412.356 84.8076 412.894 85.3194C413.445 85.8181 414.127 86.0675 414.941 86.0675C415.702 86.0675 416.273 85.8969 416.653 85.5557C417.047 85.2145 417.349 84.8208 417.559 84.3746L419.232 85.2407C419.048 85.6082 418.779 85.9953 418.425 86.4021C418.084 86.8089 417.631 87.1501 417.067 87.4257C416.502 87.7013 415.781 87.8391 414.901 87.8391ZM412.067 81.7172H417.441C417.388 80.9823 417.126 80.4114 416.653 80.0046C416.181 79.5847 415.564 79.3747 414.803 79.3747C414.042 79.3747 413.419 79.5847 412.933 80.0046C412.461 80.4114 412.172 80.9823 412.067 81.7172ZM133.892 112.563V104.572H131.176V102.859H133.892V100.733C133.892 100.143 134.069 99.6701 134.424 99.3158C134.778 98.9615 135.25 98.7843 135.841 98.7843H138.341V100.497H136.49C136.11 100.497 135.92 100.694 135.92 101.087V102.859H138.715V104.572H135.92V112.563H133.892ZM144.934 112.839C143.963 112.839 143.097 112.642 142.336 112.249C141.588 111.842 140.997 111.264 140.564 110.516C140.131 109.768 139.914 108.882 139.914 107.859V107.564C139.914 106.54 140.131 105.661 140.564 104.926C140.997 104.178 141.588 103.6 142.336 103.194C143.097 102.787 143.963 102.583 144.934 102.583C145.905 102.583 146.771 102.787 147.532 103.194C148.294 103.6 148.891 104.178 149.324 104.926C149.757 105.661 149.973 106.54 149.973 107.564V107.859C149.973 108.882 149.757 109.768 149.324 110.516C148.891 111.264 148.294 111.842 147.532 112.249C146.771 112.642 145.905 112.839 144.934 112.839ZM144.934 111.028C145.826 111.028 146.548 110.746 147.099 110.182C147.664 109.604 147.946 108.81 147.946 107.8V107.623C147.946 106.612 147.67 105.825 147.119 105.261C146.568 104.683 145.84 104.394 144.934 104.394C144.055 104.394 143.333 104.683 142.769 105.261C142.218 105.825 141.942 106.612 141.942 107.623V107.8C141.942 108.81 142.218 109.604 142.769 110.182C143.333 110.746 144.055 111.028 144.934 111.028ZM152.497 112.563V102.859H154.486V104.001H154.801C154.958 103.594 155.207 103.299 155.549 103.115C155.903 102.918 156.336 102.82 156.848 102.82H158.009V104.65H156.769C156.113 104.65 155.575 104.834 155.155 105.201C154.735 105.556 154.525 106.107 154.525 106.855V112.563H152.497ZM168.769 112.563C168.178 112.563 167.706 112.386 167.351 112.032C167.01 111.678 166.84 111.205 166.84 110.615V104.572H164.163V102.859H166.84V99.6504H168.867V102.859H171.761V104.572H168.867V110.26C168.867 110.654 169.051 110.851 169.418 110.851H171.446V112.563H168.769ZM174.143 112.563V98.7843H176.17V104.237H176.485C176.616 103.988 176.8 103.745 177.036 103.509C177.286 103.272 177.607 103.082 178.001 102.938C178.408 102.78 178.92 102.702 179.536 102.702C180.271 102.702 180.921 102.866 181.485 103.194C182.062 103.522 182.515 103.988 182.843 104.591C183.171 105.182 183.335 105.897 183.335 106.737V112.563H181.308V106.894C181.308 106.054 181.098 105.438 180.678 105.044C180.258 104.637 179.681 104.434 178.946 104.434C178.106 104.434 177.43 104.709 176.918 105.261C176.42 105.812 176.17 106.612 176.17 107.662V112.563H174.143ZM190.702 112.839C189.718 112.839 188.858 112.636 188.123 112.229C187.388 111.809 186.811 111.225 186.391 110.477C185.984 109.716 185.781 108.837 185.781 107.839V107.603C185.781 106.593 185.984 105.713 186.391 104.965C186.798 104.204 187.362 103.62 188.084 103.213C188.819 102.793 189.665 102.583 190.623 102.583C191.555 102.583 192.369 102.793 193.064 103.213C193.773 103.62 194.324 104.191 194.718 104.926C195.111 105.661 195.308 106.52 195.308 107.505V108.272H187.848C187.874 109.125 188.156 109.808 188.694 110.319C189.245 110.818 189.928 111.067 190.741 111.067C191.503 111.067 192.073 110.897 192.454 110.556C192.848 110.214 193.149 109.821 193.359 109.375L195.033 110.241C194.849 110.608 194.58 110.995 194.226 111.402C193.884 111.809 193.432 112.15 192.867 112.426C192.303 112.701 191.581 112.839 190.702 112.839ZM187.867 106.717H193.241C193.189 105.982 192.926 105.411 192.454 105.005C191.982 104.585 191.365 104.375 190.604 104.375C189.842 104.375 189.219 104.585 188.734 105.005C188.261 105.411 187.972 105.982 187.867 106.717ZM202.766 116.5V102.859H204.754V104.257H205.069C205.318 103.824 205.692 103.436 206.191 103.095C206.703 102.754 207.431 102.583 208.376 102.583C209.19 102.583 209.931 102.78 210.6 103.174C211.283 103.568 211.827 104.139 212.234 104.887C212.654 105.621 212.864 106.514 212.864 107.564V107.859C212.864 108.909 212.661 109.808 212.254 110.556C211.847 111.291 211.303 111.855 210.62 112.249C209.938 112.642 209.19 112.839 208.376 112.839C207.746 112.839 207.215 112.76 206.782 112.603C206.349 112.445 206.001 112.249 205.738 112.012C205.476 111.763 205.266 111.507 205.108 111.245H204.793V116.5H202.766ZM207.786 111.067C208.678 111.067 209.406 110.785 209.971 110.221C210.535 109.657 210.817 108.85 210.817 107.8V107.623C210.817 106.586 210.528 105.785 209.951 105.221C209.387 104.657 208.665 104.375 207.786 104.375C206.919 104.375 206.198 104.657 205.62 105.221C205.056 105.785 204.774 106.586 204.774 107.623V107.8C204.774 108.85 205.056 109.657 205.62 110.221C206.198 110.785 206.919 111.067 207.786 111.067ZM218.388 112.839C217.693 112.839 217.069 112.721 216.518 112.485C215.98 112.249 215.547 111.901 215.219 111.441C214.904 110.982 214.746 110.424 214.746 109.768C214.746 109.099 214.904 108.548 215.219 108.115C215.547 107.669 215.987 107.334 216.538 107.111C217.102 106.888 217.739 106.776 218.447 106.776H221.4V106.146C221.4 105.582 221.229 105.129 220.888 104.788C220.547 104.447 220.022 104.276 219.313 104.276C218.618 104.276 218.086 104.44 217.719 104.768C217.351 105.096 217.109 105.523 216.991 106.048L215.101 105.438C215.258 104.913 215.508 104.44 215.849 104.02C216.203 103.587 216.669 103.24 217.246 102.977C217.824 102.715 218.519 102.583 219.333 102.583C220.593 102.583 221.584 102.905 222.305 103.548C223.027 104.191 223.388 105.103 223.388 106.284V110.28C223.388 110.674 223.572 110.871 223.939 110.871H224.766V112.563H223.25C222.791 112.563 222.417 112.445 222.128 112.209C221.839 111.973 221.695 111.651 221.695 111.245V111.186H221.4C221.295 111.382 221.137 111.612 220.927 111.875C220.717 112.137 220.409 112.367 220.002 112.563C219.595 112.747 219.057 112.839 218.388 112.839ZM218.683 111.166C219.497 111.166 220.153 110.936 220.652 110.477C221.15 110.004 221.4 109.361 221.4 108.548V108.351H218.565C218.027 108.351 217.594 108.469 217.266 108.705C216.938 108.928 216.774 109.263 216.774 109.709C216.774 110.155 216.945 110.51 217.286 110.772C217.627 111.035 218.093 111.166 218.683 111.166ZM227.609 116.5V114.729H233.023C233.39 114.729 233.574 114.532 233.574 114.138V111.146H233.259C233.141 111.409 232.957 111.665 232.708 111.914C232.471 112.15 232.15 112.347 231.743 112.504C231.336 112.662 230.825 112.741 230.208 112.741C229.473 112.741 228.817 112.577 228.239 112.249C227.662 111.92 227.209 111.455 226.881 110.851C226.553 110.247 226.389 109.532 226.389 108.705V102.859H228.416V108.548C228.416 109.388 228.626 110.011 229.046 110.418C229.466 110.812 230.05 111.008 230.798 111.008C231.625 111.008 232.288 110.733 232.786 110.182C233.298 109.63 233.554 108.83 233.554 107.78V102.859H235.582V114.552C235.582 115.142 235.404 115.615 235.05 115.969C234.709 116.323 234.236 116.5 233.633 116.5H227.609ZM238.579 112.563V102.859H240.567V104.001H240.882C241.066 103.66 241.361 103.358 241.768 103.095C242.174 102.833 242.726 102.702 243.421 102.702C244.143 102.702 244.72 102.852 245.153 103.154C245.6 103.443 245.934 103.817 246.157 104.276H246.472C246.695 103.83 247.017 103.456 247.437 103.154C247.87 102.852 248.48 102.702 249.267 102.702C249.897 102.702 250.455 102.833 250.941 103.095C251.426 103.345 251.813 103.725 252.102 104.237C252.391 104.736 252.535 105.359 252.535 106.107V112.563H250.508V106.264C250.508 105.674 250.343 105.221 250.015 104.906C249.7 104.578 249.248 104.414 248.657 104.414C248.027 104.414 247.522 104.618 247.141 105.024C246.761 105.431 246.571 106.015 246.571 106.776V112.563H244.543V106.264C244.543 105.674 244.379 105.221 244.051 104.906C243.736 104.578 243.283 104.414 242.693 104.414C242.063 104.414 241.558 104.618 241.177 105.024C240.796 105.431 240.606 106.015 240.606 106.776V112.563H238.579ZM259.905 112.839C258.921 112.839 258.062 112.636 257.327 112.229C256.592 111.809 256.014 111.225 255.594 110.477C255.188 109.716 254.984 108.837 254.984 107.839V107.603C254.984 106.593 255.188 105.713 255.594 104.965C256.001 104.204 256.566 103.62 257.287 103.213C258.022 102.793 258.869 102.583 259.827 102.583C260.758 102.583 261.572 102.793 262.267 103.213C262.976 103.62 263.527 104.191 263.921 104.926C264.315 105.661 264.511 106.52 264.511 107.505V108.272H257.051C257.077 109.125 257.359 109.808 257.898 110.319C258.449 110.818 259.131 111.067 259.945 111.067C260.706 111.067 261.277 110.897 261.657 110.556C262.051 110.214 262.353 109.821 262.563 109.375L264.236 110.241C264.052 110.608 263.783 110.995 263.429 111.402C263.088 111.809 262.635 112.15 262.071 112.426C261.506 112.701 260.785 112.839 259.905 112.839ZM257.071 106.717H262.445C262.392 105.982 262.13 105.411 261.657 105.005C261.185 104.585 260.568 104.375 259.807 104.375C259.046 104.375 258.422 104.585 257.937 105.005C257.464 105.411 257.176 105.982 257.071 106.717ZM266.952 112.563V102.859H268.94V104.316H269.255C269.439 103.922 269.767 103.555 270.239 103.213C270.712 102.872 271.414 102.702 272.346 102.702C273.081 102.702 273.73 102.866 274.294 103.194C274.872 103.522 275.325 103.988 275.653 104.591C275.981 105.182 276.145 105.897 276.145 106.737V112.563H274.117V106.894C274.117 106.054 273.907 105.438 273.487 105.044C273.067 104.637 272.49 104.434 271.755 104.434C270.915 104.434 270.239 104.709 269.728 105.261C269.229 105.812 268.98 106.612 268.98 107.662V112.563H266.952ZM282.435 112.563C281.845 112.563 281.372 112.386 281.018 112.032C280.677 111.678 280.506 111.205 280.506 110.615V104.572H277.829V102.859H280.506V99.6504H282.534V102.859H285.427V104.572H282.534V110.26C282.534 110.654 282.717 110.851 283.085 110.851H285.112V112.563H282.435ZM297.374 112.839C296.402 112.839 295.536 112.642 294.775 112.249C294.027 111.842 293.437 111.264 293.004 110.516C292.571 109.768 292.354 108.882 292.354 107.859V107.564C292.354 106.54 292.571 105.661 293.004 104.926C293.437 104.178 294.027 103.6 294.775 103.194C295.536 102.787 296.402 102.583 297.374 102.583C298.345 102.583 299.211 102.787 299.972 103.194C300.733 103.6 301.33 104.178 301.763 104.926C302.196 105.661 302.413 106.54 302.413 107.564V107.859C302.413 108.882 302.196 109.768 301.763 110.516C301.33 111.264 300.733 111.842 299.972 112.249C299.211 112.642 298.345 112.839 297.374 112.839ZM297.374 111.028C298.266 111.028 298.988 110.746 299.539 110.182C300.103 109.604 300.385 108.81 300.385 107.8V107.623C300.385 106.612 300.11 105.825 299.559 105.261C299.007 104.683 298.279 104.394 297.374 104.394C296.494 104.394 295.773 104.683 295.208 105.261C294.657 105.825 294.381 106.612 294.381 107.623V107.8C294.381 108.81 294.657 109.604 295.208 110.182C295.773 110.746 296.494 111.028 297.374 111.028ZM306.324 112.563V104.572H303.607V102.859H306.324V100.733C306.324 100.143 306.501 99.6701 306.855 99.3158C307.209 98.9615 307.682 98.7843 308.272 98.7843H310.772V100.497H308.922C308.541 100.497 308.351 100.694 308.351 101.087V102.859H311.146V104.572H308.351V112.563H306.324ZM321.881 112.563C321.29 112.563 320.818 112.386 320.464 112.032C320.123 111.678 319.952 111.205 319.952 110.615V104.572H317.275V102.859H319.952V99.6504H321.979V102.859H324.873V104.572H321.979V110.26C321.979 110.654 322.163 110.851 322.531 110.851H324.558V112.563H321.881ZM327.255 112.563V98.7843H329.283V104.237H329.597C329.729 103.988 329.912 103.745 330.149 103.509C330.398 103.272 330.72 103.082 331.113 102.938C331.52 102.78 332.032 102.702 332.649 102.702C333.383 102.702 334.033 102.866 334.597 103.194C335.175 103.522 335.628 103.988 335.956 104.591C336.284 105.182 336.448 105.897 336.448 106.737V112.563H334.42V106.894C334.42 106.054 334.21 105.438 333.79 105.044C333.37 104.637 332.793 104.434 332.058 104.434C331.218 104.434 330.542 104.709 330.031 105.261C329.532 105.812 329.283 106.612 329.283 107.662V112.563H327.255ZM339.366 112.563V102.859H341.393V112.563H339.366ZM340.389 101.54C339.996 101.54 339.661 101.415 339.385 101.166C339.123 100.904 338.992 100.569 338.992 100.162C338.992 99.7554 339.123 99.4274 339.385 99.178C339.661 98.9156 339.996 98.7843 340.389 98.7843C340.796 98.7843 341.131 98.9156 341.393 99.178C341.656 99.4274 341.787 99.7554 341.787 100.162C341.787 100.569 341.656 100.904 341.393 101.166C341.131 101.415 340.796 101.54 340.389 101.54ZM348.378 112.839C347.145 112.839 346.121 112.563 345.308 112.012C344.494 111.461 343.995 110.628 343.812 109.512L345.701 109.06C345.806 109.598 345.983 110.024 346.233 110.339C346.482 110.654 346.79 110.877 347.158 111.008C347.538 111.14 347.945 111.205 348.378 111.205C349.021 111.205 349.513 111.081 349.855 110.831C350.209 110.582 350.386 110.26 350.386 109.867C350.386 109.473 350.222 109.184 349.894 109.001C349.566 108.817 349.08 108.666 348.437 108.548L347.768 108.43C347.112 108.312 346.515 108.141 345.977 107.918C345.439 107.695 345.012 107.386 344.697 106.993C344.382 106.599 344.225 106.094 344.225 105.477C344.225 104.558 344.566 103.85 345.249 103.351C345.931 102.839 346.836 102.583 347.965 102.583C349.054 102.583 349.947 102.833 350.642 103.331C351.351 103.817 351.81 104.48 352.02 105.32L350.13 105.851C350.012 105.261 349.763 104.847 349.382 104.611C349.002 104.362 348.529 104.237 347.965 104.237C347.414 104.237 346.981 104.342 346.666 104.552C346.351 104.749 346.193 105.031 346.193 105.398C346.193 105.792 346.344 106.081 346.646 106.264C346.961 106.448 347.381 106.586 347.906 106.678L348.595 106.796C349.29 106.914 349.927 107.078 350.504 107.288C351.082 107.498 351.534 107.8 351.863 108.194C352.204 108.587 352.374 109.112 352.374 109.768C352.374 110.739 352.013 111.494 351.292 112.032C350.57 112.57 349.599 112.839 348.378 112.839ZM359.761 112.563V98.7843H361.789V112.563H359.761ZM369.345 112.839C368.374 112.839 367.508 112.642 366.747 112.249C365.999 111.842 365.408 111.264 364.975 110.516C364.542 109.768 364.325 108.882 364.325 107.859V107.564C364.325 106.54 364.542 105.661 364.975 104.926C365.408 104.178 365.999 103.6 366.747 103.194C367.508 102.787 368.374 102.583 369.345 102.583C370.316 102.583 371.182 102.787 371.943 103.194C372.704 103.6 373.302 104.178 373.735 104.926C374.168 105.661 374.384 106.54 374.384 107.564V107.859C374.384 108.882 374.168 109.768 373.735 110.516C373.302 111.264 372.704 111.842 371.943 112.249C371.182 112.642 370.316 112.839 369.345 112.839ZM369.345 111.028C370.237 111.028 370.959 110.746 371.51 110.182C372.075 109.604 372.357 108.81 372.357 107.8V107.623C372.357 106.612 372.081 105.825 371.53 105.261C370.979 104.683 370.25 104.394 369.345 104.394C368.466 104.394 367.744 104.683 367.18 105.261C366.628 105.825 366.353 106.612 366.353 107.623V107.8C366.353 108.81 366.628 109.604 367.18 110.182C367.744 110.746 368.466 111.028 369.345 111.028ZM379.92 112.839C379.225 112.839 378.601 112.721 378.05 112.485C377.512 112.249 377.079 111.901 376.751 111.441C376.436 110.982 376.279 110.424 376.279 109.768C376.279 109.099 376.436 108.548 376.751 108.115C377.079 107.669 377.519 107.334 378.07 107.111C378.634 106.888 379.271 106.776 379.979 106.776H382.932V106.146C382.932 105.582 382.761 105.129 382.42 104.788C382.079 104.447 381.554 104.276 380.845 104.276C380.15 104.276 379.618 104.44 379.251 104.768C378.883 105.096 378.641 105.523 378.523 106.048L376.633 105.438C376.79 104.913 377.04 104.44 377.381 104.02C377.735 103.587 378.201 103.24 378.778 102.977C379.356 102.715 380.051 102.583 380.865 102.583C382.125 102.583 383.116 102.905 383.837 103.548C384.559 104.191 384.92 105.103 384.92 106.284V110.28C384.92 110.674 385.104 110.871 385.471 110.871H386.298V112.563H384.782C384.323 112.563 383.949 112.445 383.66 112.209C383.371 111.973 383.227 111.651 383.227 111.245V111.186H382.932C382.827 111.382 382.669 111.612 382.459 111.875C382.249 112.137 381.941 112.367 381.534 112.563C381.127 112.747 380.589 112.839 379.92 112.839ZM380.215 111.166C381.029 111.166 381.685 110.936 382.184 110.477C382.683 110.004 382.932 109.361 382.932 108.548V108.351H380.097C379.559 108.351 379.126 108.469 378.798 108.705C378.47 108.928 378.306 109.263 378.306 109.709C378.306 110.155 378.477 110.51 378.818 110.772C379.159 111.035 379.625 111.166 380.215 111.166ZM388.269 112.563V102.859H390.257V104.316H390.572C390.756 103.922 391.084 103.555 391.557 103.213C392.029 102.872 392.731 102.702 393.663 102.702C394.398 102.702 395.047 102.866 395.612 103.194C396.189 103.522 396.642 103.988 396.97 104.591C397.298 105.182 397.462 105.897 397.462 106.737V112.563H395.434V106.894C395.434 106.054 395.224 105.438 394.805 105.044C394.385 104.637 393.807 104.434 393.072 104.434C392.232 104.434 391.557 104.709 391.045 105.261C390.546 105.812 390.297 106.612 390.297 107.662V112.563H388.269Z" fill="#102E34"/>
<circle cx="65.9665" cy="74.1877" r="30.9328" fill="#E9E9E9"/>
<path fill-rule="evenodd" clip-rule="evenodd" d="M65.9665 88.2484C72.9552 88.2484 78.6208 82.5827 78.6208 75.594C78.6208 68.6053 72.9552 62.9397 65.9665 62.9397C58.9778 62.9397 53.3122 68.6053 53.3122 75.594C53.3122 82.5827 58.9778 88.2484 65.9665 88.2484ZM65.9665 89.6544C73.732 89.6544 80.0268 83.3596 80.0268 75.594C80.0268 67.8285 73.732 61.5337 65.9665 61.5337C58.2009 61.5337 51.9061 67.8285 51.9061 75.594C51.9061 83.3596 58.2009 89.6544 65.9665 89.6544Z" fill="#102E34"/>
<circle opacity="0.2" cx="65.9665" cy="75.5938" r="12.6543" fill="#102E34"/>
<path d="M57.5303 83.7702C57.5303 83.044 58.073 82.4302 58.7957 82.3501C64.2195 81.7497 67.7381 81.8038 73.1499 82.3634C73.4202 82.3918 73.6763 82.4983 73.887 82.6698C74.0978 82.8414 74.254 83.0706 74.3366 83.3295C74.4192 83.5883 74.4246 83.8657 74.3522 84.1276C74.2798 84.3895 74.1327 84.6246 73.9289 84.8043C67.5419 90.3715 63.8919 90.2949 57.9802 84.8099C57.692 84.5428 57.5303 84.1632 57.5303 83.7709V83.7702Z" fill="#102E34"/>
<path fill-rule="evenodd" clip-rule="evenodd" d="M73.0775 83.0625C67.7086 82.5071 64.2406 82.4551 58.8724 83.0491C58.511 83.0892 58.2333 83.3978 58.2333 83.7711C58.2333 83.9722 58.317 84.1627 58.4583 84.2949C61.3885 87.0127 63.6086 88.2409 65.7788 88.2486C67.9567 88.2564 70.2964 87.038 73.467 84.2752C73.5677 84.1855 73.6402 84.0685 73.6757 83.9384C73.7112 83.8083 73.7081 83.6707 73.6669 83.5424C73.6256 83.414 73.548 83.3003 73.4433 83.2153C73.3387 83.1302 73.2116 83.0774 73.0775 83.0632V83.0625ZM58.7184 81.6515C64.1991 81.0448 67.769 81.0996 73.2231 81.6642C73.6296 81.7066 74.015 81.8667 74.332 82.1247C74.649 82.3828 74.8838 82.7277 75.0078 83.1172C75.1318 83.5067 75.1395 83.9239 75.0301 84.3178C74.9206 84.7116 74.6987 85.065 74.3915 85.3346C71.1752 88.1383 68.4967 89.6652 65.7746 89.6547C63.0448 89.6448 60.4844 88.0919 57.5029 85.3255C57.2894 85.1266 57.1192 84.8859 57.003 84.6184C56.8867 84.3508 56.8269 84.0621 56.8273 83.7704C56.8262 83.2463 57.0186 82.7402 57.3676 82.349C57.7165 81.9579 58.1975 81.7093 58.7184 81.6508V81.6515Z" fill="#102E34"/>
<path d="M71.5906 72.7819C71.5906 74.2735 70.998 75.704 69.9433 76.7587C68.8886 77.8135 67.458 78.406 65.9664 78.406C64.4748 78.406 63.0443 77.8135 61.9896 76.7587C60.9348 75.704 60.3423 74.2735 60.3423 72.7819C60.3423 71.2902 60.9348 69.8597 61.9896 68.805C63.0443 67.7503 64.4748 67.1577 65.9664 67.1577C67.458 67.1577 68.8886 67.7503 69.9433 68.805C70.998 69.8597 71.5906 71.2902 71.5906 72.7819Z" fill="#102E34"/>
</g>
</g>
<defs>
<filter id="filter0_d_546_37929" x="-70.3994" y="-36.0201" width="603.15" height="292.416" filterUnits="userSpaceOnUse" color-interpolation-filters="sRGB">
<feFlood flood-opacity="0" result="BackgroundImageFix"/>
<feColorMatrix in="SourceAlpha" type="matrix" values="0 0 0 0 0 0 0 0 0 0 0 0 0 0 0 0 0 0 127 0" result="hardAlpha"/>
<feMorphology radius="7.68807" operator="dilate" in="SourceAlpha" result="effect1_dropShadow_546_37929"/>
<feOffset dy="36"/>
<feGaussianBlur stdDeviation="32"/>
<feComposite in2="hardAlpha" operator="out"/>
<feColorMatrix type="matrix" values="0 0 0 0 0.0590972 0 0 0 0 0.143837 0 0 0 0 0.308333 0 0 0 0.2 0"/>
<feBlend mode="normal" in2="BackgroundImageFix" result="effect1_dropShadow_546_37929"/>
<feBlend mode="normal" in="SourceGraphic" in2="effect1_dropShadow_546_37929" result="shape"/>
</filter>
<clipPath id="clip0_546_37929">
<rect width="460" height="380" fill="white" transform="translate(0.968018 0.0668945)"/>
</clipPath>
</defs>
</svg>
