<svg width="461" height="278" viewBox="0 0 461 278" fill="none" xmlns="http://www.w3.org/2000/svg">
<rect x="29.2888" y="68.708" width="404" height="439.939" rx="9.91411" fill="white"/>
<rect x="29.9085" y="69.3276" width="402.761" height="438.699" rx="9.29448" stroke="#002026" stroke-opacity="0.1" stroke-width="1.23926"/>
<circle cx="228.81" cy="109.604" r="3.71779" fill="#E9C300"/>
<path d="M237.797 114.69L240.772 104.28H243.597L246.556 114.69H244.906L244.222 112.236H240.147L239.463 114.69H237.797ZM240.548 110.749H243.82L242.303 105.276H242.065L240.548 110.749ZM250.057 114.69L248.525 104.28H250.131L251.38 113.604H251.618L253.224 104.28H256.035L257.641 113.604H257.879L259.113 104.28H260.719L259.188 114.69H256.377L254.741 105.232H254.503L252.882 114.69H250.057ZM262.686 114.69L265.66 104.28H268.486L271.445 114.69H269.795L269.11 112.236H265.036L264.352 114.69H262.686ZM265.437 110.749H268.709L267.192 105.276H266.954L265.437 110.749ZM274.343 114.69V104.28H275.949V114.69H274.343ZM282.089 114.69V105.737H278.892V104.28H286.893V105.737H283.695V114.69H282.089ZM289.835 114.69V104.28H291.442V114.69H289.835ZM295.098 114.69V104.28H298.192L301.017 113.619H301.255V104.28H302.846V114.69H299.753L296.928 105.336H296.69V114.69H295.098ZM310.118 114.898C309.375 114.898 308.71 114.74 308.125 114.422C307.541 114.095 307.08 113.619 306.742 112.995C306.405 112.37 306.237 111.607 306.237 110.704V108.266C306.237 106.907 306.609 105.871 307.352 105.158C308.096 104.434 309.102 104.072 310.371 104.072C311.62 104.072 312.582 104.414 313.256 105.098C313.93 105.772 314.267 106.679 314.267 107.819V107.894H312.676V107.775C312.676 107.349 312.592 106.967 312.423 106.63C312.255 106.283 312.002 106.01 311.665 105.812C311.328 105.614 310.896 105.514 310.371 105.514C309.578 105.514 308.958 105.757 308.512 106.243C308.066 106.719 307.843 107.383 307.843 108.236V110.734C307.843 111.577 308.066 112.246 308.512 112.742C308.958 113.228 309.583 113.471 310.386 113.471C311.179 113.471 311.759 113.252 312.126 112.816C312.493 112.38 312.676 111.815 312.676 111.121V110.928H309.88V109.545H314.267V114.69H312.78V113.634H312.542C312.453 113.822 312.319 114.016 312.141 114.214C311.972 114.412 311.724 114.576 311.397 114.705C311.08 114.834 310.654 114.898 310.118 114.898ZM322.139 114.69L325.113 104.28H327.939L330.898 114.69H329.247L328.563 112.236H324.489L323.804 114.69H322.139ZM324.89 110.749H328.162L326.645 105.276H326.407L324.89 110.749ZM333.795 114.69V104.28H337.93C338.564 104.28 339.129 104.409 339.625 104.667C340.131 104.915 340.522 105.272 340.8 105.737C341.087 106.194 341.231 106.744 341.231 107.388V107.582C341.231 108.226 341.082 108.781 340.785 109.247C340.497 109.713 340.106 110.07 339.61 110.318C339.114 110.566 338.554 110.69 337.93 110.69H335.402V114.69H333.795ZM335.402 109.232H337.766C338.331 109.232 338.782 109.084 339.119 108.786C339.456 108.489 339.625 108.082 339.625 107.567V107.418C339.625 106.892 339.456 106.481 339.119 106.184C338.782 105.886 338.331 105.737 337.766 105.737H335.402V109.232ZM344.243 114.69V104.28H348.377C349.012 104.28 349.577 104.409 350.072 104.667C350.578 104.915 350.97 105.272 351.247 105.737C351.535 106.194 351.679 106.744 351.679 107.388V107.582C351.679 108.226 351.53 108.781 351.232 109.247C350.945 109.713 350.553 110.07 350.058 110.318C349.562 110.566 349.002 110.69 348.377 110.69H345.849V114.69H344.243ZM345.849 109.232H348.214C348.779 109.232 349.23 109.084 349.567 108.786C349.904 108.489 350.072 108.082 350.072 107.567V107.418C350.072 106.892 349.904 106.481 349.567 106.184C349.23 105.886 348.779 105.737 348.214 105.737H345.849V109.232ZM354.691 114.69V104.28H359.063C359.707 104.28 360.272 104.394 360.758 104.622C361.254 104.84 361.635 105.158 361.903 105.574C362.181 105.99 362.319 106.486 362.319 107.061V107.225C362.319 107.879 362.161 108.404 361.844 108.801C361.536 109.188 361.16 109.46 360.713 109.619V109.857C361.09 109.877 361.393 110.006 361.621 110.243C361.849 110.471 361.963 110.804 361.963 111.24V114.69H360.342V111.463C360.342 111.195 360.272 110.982 360.133 110.823C359.995 110.665 359.772 110.585 359.464 110.585H356.297V114.69H354.691ZM356.297 109.128H358.884C359.459 109.128 359.905 108.984 360.223 108.697C360.54 108.399 360.699 107.998 360.699 107.492V107.373C360.699 106.868 360.54 106.471 360.223 106.184C359.915 105.886 359.469 105.737 358.884 105.737H356.297V109.128ZM369.485 114.898C368.206 114.898 367.19 114.541 366.436 113.827C365.683 113.104 365.306 112.063 365.306 110.704V108.266C365.306 106.907 365.683 105.871 366.436 105.158C367.19 104.434 368.206 104.072 369.485 104.072C370.764 104.072 371.78 104.434 372.534 105.158C373.297 105.871 373.679 106.907 373.679 108.266V110.704C373.679 112.063 373.297 113.104 372.534 113.827C371.78 114.541 370.764 114.898 369.485 114.898ZM369.485 113.456C370.308 113.456 370.942 113.218 371.388 112.742C371.835 112.256 372.058 111.597 372.058 110.764V108.206C372.058 107.373 371.835 106.719 371.388 106.243C370.942 105.757 370.308 105.514 369.485 105.514C368.682 105.514 368.052 105.757 367.596 106.243C367.14 106.719 366.912 107.373 366.912 108.206V110.764C366.912 111.597 367.14 112.256 367.596 112.742C368.052 113.218 368.682 113.456 369.485 113.456ZM378.976 114.69L376.076 104.28H377.741L380.27 113.679H380.463L382.976 104.28H384.642L381.757 114.69H378.976ZM386.044 114.69L389.018 104.28H391.844L394.803 114.69H393.153L392.469 112.236H388.394L387.71 114.69H386.044ZM388.795 110.749H392.067L390.55 105.276H390.312L388.795 110.749ZM397.701 114.69V104.28H399.307V113.233H404.318V114.69H397.701Z" fill="#E9C300"/>
<path d="M60.2977 115.451V103.306H62.1714V113.75H68.0183V115.451H60.2977ZM73.7609 115.694C72.905 115.694 72.1416 115.52 71.4707 115.173C70.8114 114.815 70.2909 114.306 69.9093 113.646C69.5276 112.987 69.3367 112.206 69.3367 111.304V111.044C69.3367 110.142 69.5276 109.367 69.9093 108.719C70.2909 108.06 70.8114 107.551 71.4707 107.192C72.1416 106.834 72.905 106.654 73.7609 106.654C74.6168 106.654 75.3802 106.834 76.051 107.192C76.7219 107.551 77.2482 108.06 77.6299 108.719C78.0116 109.367 78.2024 110.142 78.2024 111.044V111.304C78.2024 112.206 78.0116 112.987 77.6299 113.646C77.2482 114.306 76.7219 114.815 76.051 115.173C75.3802 115.52 74.6168 115.694 73.7609 115.694ZM73.7609 114.097C74.5474 114.097 75.1836 113.849 75.6693 113.351C76.1667 112.842 76.4154 112.143 76.4154 111.252V111.096C76.4154 110.205 76.1725 109.511 75.6867 109.014C75.2009 108.505 74.559 108.251 73.7609 108.251C72.9859 108.251 72.3498 108.505 71.8524 109.014C71.3666 109.511 71.1237 110.205 71.1237 111.096V111.252C71.1237 112.143 71.3666 112.842 71.8524 113.351C72.3498 113.849 72.9859 114.097 73.7609 114.097ZM83.0817 115.694C82.4687 115.694 81.9193 115.589 81.4335 115.381C80.9593 115.173 80.5776 114.867 80.2884 114.462C80.0108 114.057 79.872 113.565 79.872 112.987C79.872 112.397 80.0108 111.911 80.2884 111.53C80.5776 111.136 80.9651 110.841 81.4509 110.645C81.9482 110.448 82.5092 110.35 83.1338 110.35H85.7362V109.795C85.7362 109.297 85.5859 108.898 85.2851 108.598C84.9844 108.297 84.5218 108.146 83.8972 108.146C83.2841 108.146 82.8157 108.291 82.4918 108.58C82.168 108.869 81.954 109.245 81.8499 109.708L80.1843 109.17C80.3231 108.707 80.5429 108.291 80.8436 107.921C81.1559 107.539 81.5665 107.233 82.0755 107.001C82.5844 106.77 83.1974 106.654 83.9145 106.654C85.0249 106.654 85.8982 106.938 86.5343 107.505C87.1705 108.071 87.4886 108.875 87.4886 109.916V113.438C87.4886 113.785 87.6505 113.959 87.9743 113.959H88.703V115.451H87.3671C86.9623 115.451 86.6326 115.347 86.3782 115.138C86.1237 114.93 85.9965 114.647 85.9965 114.288V114.236H85.7362C85.6437 114.41 85.5049 114.612 85.3198 114.843C85.1348 115.075 84.863 115.277 84.5044 115.451C84.1458 115.613 83.6716 115.694 83.0817 115.694ZM83.342 114.219C84.0591 114.219 84.6374 114.016 85.0769 113.612C85.5165 113.195 85.7362 112.628 85.7362 111.911V111.738H83.2379C82.7637 111.738 82.382 111.842 82.0928 112.05C81.8036 112.247 81.6591 112.542 81.6591 112.935C81.6591 113.328 81.8094 113.641 82.1102 113.872C82.4109 114.103 82.8215 114.219 83.342 114.219ZM90.4406 115.451V106.897H92.1929V108.181H92.4705C92.6324 107.834 92.9216 107.51 93.338 107.21C93.7544 106.909 94.3732 106.758 95.1944 106.758C95.8421 106.758 96.4147 106.903 96.912 107.192C97.4209 107.481 97.82 107.892 98.1091 108.424C98.3983 108.945 98.5429 109.575 98.5429 110.315V115.451H96.7559V110.454C96.7559 109.714 96.5708 109.17 96.2007 108.823C95.8306 108.465 95.3216 108.285 94.6739 108.285C93.9337 108.285 93.338 108.528 92.8869 109.014C92.4474 109.5 92.2276 110.205 92.2276 111.131V115.451H90.4406ZM105.028 111.825V110.194H110.163V111.825H105.028ZM115.528 115.451L118.998 103.306H122.294L125.747 115.451H123.821L123.023 112.588H118.269L117.471 115.451H115.528ZM118.738 110.853H122.554L120.785 104.468H120.507L118.738 110.853ZM126.941 115.451V113.785H128.572V104.971H126.941V103.306H131.799C133.418 103.306 134.656 103.717 135.512 104.538C136.379 105.359 136.813 106.597 136.813 108.251V110.523C136.813 112.177 136.379 113.415 135.512 114.236C134.656 115.046 133.418 115.451 131.799 115.451H126.941ZM130.463 113.75H131.816C132.869 113.75 133.65 113.484 134.159 112.952C134.667 112.42 134.922 111.628 134.922 110.575V108.181C134.922 107.117 134.667 106.325 134.159 105.804C133.65 105.284 132.869 105.024 131.816 105.024H130.463V113.75ZM142.938 115.694C142.048 115.694 141.255 115.532 140.561 115.208C139.867 114.884 139.324 114.415 138.93 113.802C138.549 113.189 138.358 112.461 138.358 111.616V111.304H140.18V111.582C140.18 112.345 140.428 112.952 140.926 113.403C141.435 113.843 142.105 114.063 142.938 114.063C143.771 114.063 144.419 113.855 144.881 113.438C145.344 113.022 145.575 112.495 145.575 111.859V111.703C145.575 111.252 145.465 110.888 145.246 110.61C145.026 110.333 144.731 110.13 144.361 110.003C143.991 109.864 143.574 109.795 143.112 109.795H140.908V107.695L145.176 105.18V104.937H138.653V103.306H147.154V105.77L143.077 108.199V108.441H143.823C144.436 108.441 145.014 108.557 145.558 108.788C146.102 109.02 146.541 109.373 146.877 109.847C147.224 110.321 147.397 110.922 147.397 111.651V111.859C147.397 112.634 147.212 113.311 146.842 113.889C146.472 114.456 145.951 114.901 145.28 115.225C144.61 115.537 143.829 115.694 142.938 115.694ZM154.83 115.451V112.97H148.689V110.853L153.338 103.306H156.652V111.356H158.699V112.97H156.652V115.451H154.83ZM150.458 111.356H154.83V104.451H154.553L150.458 111.113V111.356ZM159.478 115.451L162.948 103.306H166.245L169.697 115.451H167.771L166.973 112.588H162.219L161.421 115.451H159.478ZM162.688 110.853H166.505L164.735 104.468H164.457L162.688 110.853Z" fill="#002026" fill-opacity="0.6"/>
<rect x="59.0311" y="145.542" width="344.515" height="335.84" rx="9.91411" fill="white"/>
<rect x="59.6508" y="146.162" width="343.276" height="334.601" rx="9.29448" stroke="#002026" stroke-opacity="0.1" stroke-width="1.23926"/>
<line x1="88.7734" y1="255.217" x2="373.804" y2="255.217" stroke="#002026" stroke-opacity="0.1" stroke-width="1.23926"/>
<path d="M119.782 187.328V175.183H121.656V185.627H127.503V187.328H119.782ZM133.246 187.571C132.39 187.571 131.626 187.397 130.955 187.05C130.296 186.691 129.776 186.183 129.394 185.523C129.012 184.864 128.821 184.083 128.821 183.181V182.921C128.821 182.019 129.012 181.244 129.394 180.596C129.776 179.937 130.296 179.428 130.955 179.069C131.626 178.711 132.39 178.531 133.246 178.531C134.102 178.531 134.865 178.711 135.536 179.069C136.207 179.428 136.733 179.937 137.115 180.596C137.496 181.244 137.687 182.019 137.687 182.921V183.181C137.687 184.083 137.496 184.864 137.115 185.523C136.733 186.183 136.207 186.691 135.536 187.05C134.865 187.397 134.102 187.571 133.246 187.571ZM133.246 185.974C134.032 185.974 134.668 185.726 135.154 185.228C135.651 184.719 135.9 184.02 135.9 183.129V182.973C135.9 182.082 135.657 181.388 135.171 180.891C134.686 180.382 134.044 180.128 133.246 180.128C132.471 180.128 131.835 180.382 131.337 180.891C130.851 181.388 130.608 182.082 130.608 182.973V183.129C130.608 184.02 130.851 184.719 131.337 185.228C131.835 185.726 132.471 185.974 133.246 185.974ZM142.566 187.571C141.953 187.571 141.404 187.466 140.918 187.258C140.444 187.05 140.062 186.744 139.773 186.339C139.496 185.934 139.357 185.442 139.357 184.864C139.357 184.274 139.496 183.788 139.773 183.407C140.062 183.013 140.45 182.718 140.936 182.522C141.433 182.325 141.994 182.227 142.619 182.227H145.221V181.672C145.221 181.174 145.071 180.775 144.77 180.475C144.469 180.174 144.006 180.023 143.382 180.023C142.769 180.023 142.3 180.168 141.977 180.457C141.653 180.746 141.439 181.122 141.335 181.585L139.669 181.047C139.808 180.584 140.028 180.168 140.328 179.798C140.641 179.416 141.051 179.11 141.56 178.878C142.069 178.647 142.682 178.531 143.399 178.531C144.51 178.531 145.383 178.815 146.019 179.381C146.655 179.948 146.973 180.752 146.973 181.793V185.315C146.973 185.662 147.135 185.836 147.459 185.836H148.188V187.328H146.852C146.447 187.328 146.117 187.224 145.863 187.015C145.608 186.807 145.481 186.524 145.481 186.165V186.113H145.221C145.128 186.287 144.99 186.489 144.805 186.72C144.62 186.952 144.348 187.154 143.989 187.328C143.631 187.49 143.156 187.571 142.566 187.571ZM142.827 186.096C143.544 186.096 144.122 185.893 144.562 185.489C145.001 185.072 145.221 184.505 145.221 183.788V183.615H142.723C142.248 183.615 141.867 183.719 141.578 183.927C141.288 184.124 141.144 184.419 141.144 184.812C141.144 185.205 141.294 185.517 141.595 185.749C141.896 185.98 142.306 186.096 142.827 186.096ZM149.925 187.328V178.774H151.678V180.058H151.955C152.117 179.711 152.406 179.387 152.823 179.087C153.239 178.786 153.858 178.635 154.679 178.635C155.327 178.635 155.899 178.78 156.397 179.069C156.906 179.358 157.305 179.769 157.594 180.301C157.883 180.822 158.028 181.452 158.028 182.192V187.328H156.241V182.331C156.241 181.591 156.056 181.047 155.685 180.7C155.315 180.341 154.806 180.162 154.159 180.162C153.418 180.162 152.823 180.405 152.372 180.891C151.932 181.377 151.712 182.082 151.712 183.008V187.328H149.925ZM167.676 187.571C167.063 187.571 166.514 187.466 166.028 187.258C165.554 187.05 165.172 186.744 164.883 186.339C164.605 185.934 164.466 185.442 164.466 184.864C164.466 184.274 164.605 183.788 164.883 183.407C165.172 183.013 165.559 182.718 166.045 182.522C166.543 182.325 167.104 182.227 167.728 182.227H170.331V181.672C170.331 181.174 170.18 180.775 169.88 180.475C169.579 180.174 169.116 180.023 168.492 180.023C167.879 180.023 167.41 180.168 167.086 180.457C166.762 180.746 166.548 181.122 166.444 181.585L164.779 181.047C164.917 180.584 165.137 180.168 165.438 179.798C165.75 179.416 166.161 179.11 166.67 178.878C167.179 178.647 167.792 178.531 168.509 178.531C169.619 178.531 170.493 178.815 171.129 179.381C171.765 179.948 172.083 180.752 172.083 181.793V185.315C172.083 185.662 172.245 185.836 172.569 185.836H173.297V187.328H171.961C171.557 187.328 171.227 187.224 170.973 187.015C170.718 186.807 170.591 186.524 170.591 186.165V186.113H170.331C170.238 186.287 170.099 186.489 169.914 186.72C169.729 186.952 169.457 187.154 169.099 187.328C168.74 187.49 168.266 187.571 167.676 187.571ZM167.936 186.096C168.653 186.096 169.232 185.893 169.671 185.489C170.111 185.072 170.331 184.505 170.331 183.788V183.615H167.832C167.358 183.615 166.976 183.719 166.687 183.927C166.398 184.124 166.253 184.419 166.253 184.812C166.253 185.205 166.404 185.517 166.705 185.749C167.005 185.98 167.416 186.096 167.936 186.096ZM175.035 187.328V178.774H176.787V179.781H177.065C177.227 179.48 177.487 179.214 177.846 178.982C178.204 178.751 178.69 178.635 179.303 178.635C179.939 178.635 180.448 178.768 180.83 179.034C181.223 179.289 181.518 179.619 181.715 180.023H181.992C182.189 179.63 182.472 179.301 182.842 179.034C183.224 178.768 183.762 178.635 184.456 178.635C185.011 178.635 185.503 178.751 185.931 178.982C186.359 179.202 186.7 179.538 186.954 179.989C187.209 180.428 187.336 180.978 187.336 181.637V187.328H185.549V181.776C185.549 181.255 185.404 180.856 185.115 180.579C184.838 180.289 184.438 180.145 183.918 180.145C183.363 180.145 182.917 180.324 182.582 180.683C182.247 181.041 182.079 181.556 182.079 182.227V187.328H180.292V181.776C180.292 181.255 180.147 180.856 179.858 180.579C179.581 180.289 179.182 180.145 178.661 180.145C178.106 180.145 177.661 180.324 177.325 180.683C176.99 181.041 176.822 181.556 176.822 182.227V187.328H175.035ZM193.919 187.571C193.063 187.571 192.299 187.397 191.629 187.05C190.969 186.691 190.449 186.183 190.067 185.523C189.685 184.864 189.495 184.083 189.495 183.181V182.921C189.495 182.019 189.685 181.244 190.067 180.596C190.449 179.937 190.969 179.428 191.629 179.069C192.299 178.711 193.063 178.531 193.919 178.531C194.775 178.531 195.538 178.711 196.209 179.069C196.88 179.428 197.406 179.937 197.788 180.596C198.169 181.244 198.36 182.019 198.36 182.921V183.181C198.36 184.083 198.169 184.864 197.788 185.523C197.406 186.183 196.88 186.691 196.209 187.05C195.538 187.397 194.775 187.571 193.919 187.571ZM193.919 185.974C194.705 185.974 195.341 185.726 195.827 185.228C196.325 184.719 196.573 184.02 196.573 183.129V182.973C196.573 182.082 196.33 181.388 195.845 180.891C195.359 180.382 194.717 180.128 193.919 180.128C193.144 180.128 192.508 180.382 192.01 180.891C191.524 181.388 191.282 182.082 191.282 182.973V183.129C191.282 184.02 191.524 184.719 192.01 185.228C192.508 185.726 193.144 185.974 193.919 185.974ZM203.864 187.484C203.216 187.484 202.638 187.339 202.129 187.05C201.62 186.761 201.221 186.35 200.932 185.818C200.643 185.286 200.498 184.65 200.498 183.91V178.774H202.285V183.788C202.285 184.529 202.47 185.078 202.841 185.437C203.211 185.784 203.725 185.957 204.385 185.957C205.113 185.957 205.697 185.714 206.137 185.228C206.588 184.731 206.814 184.02 206.814 183.094V178.774H208.601V187.328H206.848V186.044H206.571C206.409 186.391 206.12 186.72 205.703 187.033C205.287 187.333 204.674 187.484 203.864 187.484ZM211.242 187.328V178.774H212.995V180.058H213.272C213.434 179.711 213.723 179.387 214.14 179.087C214.556 178.786 215.175 178.635 215.996 178.635C216.644 178.635 217.216 178.78 217.714 179.069C218.223 179.358 218.622 179.769 218.911 180.301C219.2 180.822 219.345 181.452 219.345 182.192V187.328H217.558V182.331C217.558 181.591 217.372 181.047 217.002 180.7C216.632 180.341 216.123 180.162 215.476 180.162C214.735 180.162 214.14 180.405 213.689 180.891C213.249 181.377 213.029 182.082 213.029 183.008V187.328H211.242ZM224.889 187.328C224.368 187.328 223.952 187.171 223.64 186.859C223.339 186.547 223.189 186.131 223.189 185.61V180.284H220.829V178.774H223.189V175.946H224.976V178.774H227.526V180.284H224.976V185.298C224.976 185.645 225.138 185.818 225.461 185.818H227.248V187.328H224.889Z" fill="#002026" fill-opacity="0.6"/>
<rect x="88.7734" y="174.045" width="14.8712" height="14.8712" rx="4.95706" fill="#1BC1BF"/>
<path d="M94.94 221.826C93.8957 221.826 92.9704 221.641 92.1641 221.271C91.3577 220.901 90.7232 220.359 90.2606 219.645C89.8111 218.918 89.5864 218.039 89.5864 217.008V216.512H91.708V217.008C91.708 217.986 91.9988 218.72 92.5805 219.209C93.1753 219.698 93.9618 219.942 94.94 219.942C95.9314 219.942 96.6783 219.737 97.1806 219.328C97.6829 218.905 97.9341 218.363 97.9341 217.702C97.9341 217.265 97.8151 216.909 97.5772 216.631C97.3524 216.353 97.022 216.135 96.5858 215.977C96.1495 215.805 95.6274 215.646 95.0193 215.501L94.2857 215.322C93.4 215.111 92.6333 214.853 91.9856 214.549C91.3379 214.232 90.8356 213.815 90.4787 213.3C90.1218 212.784 89.9433 212.123 89.9433 211.317C89.9433 210.497 90.1416 209.797 90.5381 209.215C90.9347 208.634 91.4899 208.184 92.2037 207.867C92.9175 207.55 93.7569 207.391 94.7219 207.391C95.6869 207.391 96.5461 207.556 97.2996 207.887C98.0663 208.217 98.6677 208.706 99.1039 209.354C99.5534 210.002 99.7781 210.815 99.7781 211.793V212.507H97.6565V211.793C97.6565 211.198 97.5309 210.716 97.2797 210.345C97.0418 209.975 96.6981 209.704 96.2487 209.532C95.8125 209.361 95.3035 209.275 94.7219 209.275C93.8759 209.275 93.2216 209.453 92.7589 209.81C92.2963 210.154 92.0649 210.636 92.0649 211.257C92.0649 211.68 92.1641 212.031 92.3623 212.308C92.5738 212.573 92.8779 212.791 93.2744 212.963C93.671 213.135 94.1601 213.287 94.7417 213.419L95.4754 213.597C96.3743 213.796 97.1674 214.053 97.8548 214.371C98.5421 214.675 99.0775 215.091 99.4608 215.62C99.8574 216.148 100.056 216.829 100.056 217.662C100.056 218.495 99.8442 219.222 99.4212 219.843C99.0114 220.464 98.4232 220.953 97.6565 221.31C96.8898 221.654 95.9843 221.826 94.94 221.826ZM93.9486 223.848V205.369H95.9116V223.848H93.9486ZM111.938 221.826C110.92 221.826 110.015 221.641 109.221 221.271C108.428 220.901 107.807 220.365 107.358 219.665C106.921 218.964 106.703 218.131 106.703 217.166V216.809H108.785V217.127C108.785 217.999 109.069 218.693 109.638 219.209C110.219 219.711 110.986 219.962 111.938 219.962C112.89 219.962 113.63 219.724 114.159 219.248C114.687 218.772 114.952 218.171 114.952 217.444V217.265C114.952 216.75 114.826 216.334 114.575 216.016C114.324 215.699 113.987 215.468 113.564 215.322C113.141 215.164 112.665 215.084 112.136 215.084H109.618V212.685L114.496 209.81V209.532H107.04V207.669H116.756V210.484L112.097 213.26V213.538H112.949C113.65 213.538 114.311 213.67 114.932 213.934C115.553 214.199 116.056 214.602 116.439 215.144C116.835 215.686 117.034 216.373 117.034 217.206V217.444C117.034 218.33 116.822 219.103 116.399 219.764C115.976 220.412 115.381 220.92 114.615 221.291C113.848 221.647 112.956 221.826 111.938 221.826ZM119.462 224.245V223.075H120.136C120.678 223.075 120.949 222.804 120.949 222.262V221.628H120.651C120.189 221.628 119.805 221.489 119.501 221.211C119.197 220.934 119.045 220.583 119.045 220.16C119.045 219.698 119.197 219.328 119.501 219.05C119.805 218.759 120.189 218.614 120.651 218.614C121.114 218.614 121.491 218.766 121.782 219.07C122.086 219.361 122.238 219.744 122.238 220.22V222.282C122.238 223.591 121.583 224.245 120.275 224.245H119.462ZM130.951 221.548V218.713H123.932V216.294L129.246 207.669H133.033V216.869H135.373V218.713H133.033V221.548H130.951ZM125.954 216.869H130.951V208.977H130.634L125.954 216.591V216.869ZM142.231 221.826C140.618 221.826 139.329 221.37 138.364 220.458C137.413 219.532 136.937 218.144 136.937 216.294V212.923C136.937 211.112 137.413 209.737 138.364 208.799C139.329 207.86 140.618 207.391 142.231 207.391C143.857 207.391 145.146 207.86 146.097 208.799C147.062 209.737 147.545 211.112 147.545 212.923V216.294C147.545 218.144 147.062 219.532 146.097 220.458C145.146 221.37 143.857 221.826 142.231 221.826ZM142.231 219.962C143.328 219.962 144.141 219.651 144.67 219.03C145.198 218.396 145.463 217.51 145.463 216.373V212.804C145.463 211.667 145.179 210.795 144.61 210.187C144.042 209.565 143.249 209.255 142.231 209.255C141.2 209.255 140.407 209.572 139.851 210.207C139.296 210.828 139.019 211.694 139.019 212.804V216.373C139.019 217.536 139.283 218.429 139.812 219.05C140.354 219.658 141.16 219.962 142.231 219.962ZM155.011 221.826C153.398 221.826 152.109 221.37 151.144 220.458C150.192 219.532 149.717 218.144 149.717 216.294V212.923C149.717 211.112 150.192 209.737 151.144 208.799C152.109 207.86 153.398 207.391 155.011 207.391C156.637 207.391 157.925 207.86 158.877 208.799C159.842 209.737 160.325 211.112 160.325 212.923V216.294C160.325 218.144 159.842 219.532 158.877 220.458C157.925 221.37 156.637 221.826 155.011 221.826ZM155.011 219.962C156.108 219.962 156.921 219.651 157.45 219.03C157.978 218.396 158.243 217.51 158.243 216.373V212.804C158.243 211.667 157.958 210.795 157.39 210.187C156.822 209.565 156.029 209.255 155.011 209.255C153.98 209.255 153.186 209.572 152.631 210.207C152.076 210.828 151.799 211.694 151.799 212.804V216.373C151.799 217.536 152.063 218.429 152.592 219.05C153.134 219.658 153.94 219.962 155.011 219.962ZM163.871 221.826C163.408 221.826 163.019 221.674 162.701 221.37C162.397 221.066 162.245 220.676 162.245 220.2C162.245 219.724 162.397 219.341 162.701 219.05C163.019 218.746 163.408 218.594 163.871 218.594C164.334 218.594 164.717 218.746 165.021 219.05C165.338 219.354 165.497 219.737 165.497 220.2C165.497 220.676 165.338 221.066 165.021 221.37C164.717 221.674 164.334 221.826 163.871 221.826ZM172.728 221.826C171.116 221.826 169.827 221.37 168.862 220.458C167.91 219.532 167.434 218.144 167.434 216.294V212.923C167.434 211.112 167.91 209.737 168.862 208.799C169.827 207.86 171.116 207.391 172.728 207.391C174.354 207.391 175.643 207.86 176.595 208.799C177.56 209.737 178.042 211.112 178.042 212.923V216.294C178.042 218.144 177.56 219.532 176.595 220.458C175.643 221.37 174.354 221.826 172.728 221.826ZM172.728 219.962C173.825 219.962 174.638 219.651 175.167 219.03C175.696 218.396 175.96 217.51 175.96 216.373V212.804C175.96 211.667 175.676 210.795 175.108 210.187C174.539 209.565 173.746 209.255 172.728 209.255C171.697 209.255 170.904 209.572 170.349 210.207C169.794 210.828 169.516 211.694 169.516 212.804V216.373C169.516 217.536 169.78 218.429 170.309 219.05C170.851 219.658 171.658 219.962 172.728 219.962ZM185.508 221.826C183.896 221.826 182.607 221.37 181.642 220.458C180.69 219.532 180.214 218.144 180.214 216.294V212.923C180.214 211.112 180.69 209.737 181.642 208.799C182.607 207.86 183.896 207.391 185.508 207.391C187.134 207.391 188.423 207.86 189.375 208.799C190.34 209.737 190.822 211.112 190.822 212.923V216.294C190.822 218.144 190.34 219.532 189.375 220.458C188.423 221.37 187.134 221.826 185.508 221.826ZM185.508 219.962C186.605 219.962 187.418 219.651 187.947 219.03C188.476 218.396 188.74 217.51 188.74 216.373V212.804C188.74 211.667 188.456 210.795 187.888 210.187C187.319 209.565 186.526 209.255 185.508 209.255C184.477 209.255 183.684 209.572 183.129 210.207C182.574 210.828 182.296 211.694 182.296 212.804V216.373C182.296 217.536 182.56 218.429 183.089 219.05C183.631 219.658 184.437 219.962 185.508 219.962Z" fill="#002026"/>
<g filter="url(#filter0_d_546_37973)">
<rect x="1.99184" y="0.370986" width="458.367" height="147.634" rx="10.5453" fill="#FCFCFC" stroke="#E9C300" stroke-width="1.40604" stroke-dasharray="11.25 11.25"/>
<path d="M132.287 51.1943V35.4467H138.541C139.5 35.4467 140.355 35.6417 141.105 36.0317C141.87 36.4066 142.462 36.9465 142.882 37.6514C143.317 38.3413 143.535 39.1737 143.535 40.1485V40.441C143.535 41.4158 143.31 42.2557 142.86 42.9606C142.425 43.6655 141.833 44.2054 141.083 44.5803C140.333 44.9553 139.485 45.1428 138.541 45.1428H134.716V51.1943H132.287ZM134.716 42.9381H138.293C139.148 42.9381 139.83 42.7131 140.34 42.2632C140.85 41.8133 141.105 41.1984 141.105 40.4185V40.1935C141.105 39.3986 140.85 38.7762 140.34 38.3263C139.83 37.8764 139.148 37.6514 138.293 37.6514H134.716V42.9381ZM150.686 51.5093C149.561 51.5093 148.579 51.2768 147.739 50.8119C146.899 50.332 146.239 49.6646 145.759 48.8097C145.294 47.9398 145.062 46.935 145.062 45.7952V45.5252C145.062 44.3704 145.294 43.3655 145.759 42.5107C146.224 41.6408 146.869 40.9734 147.694 40.5085C148.534 40.0285 149.501 39.7886 150.596 39.7886C151.661 39.7886 152.59 40.0285 153.385 40.5085C154.195 40.9734 154.825 41.6258 155.275 42.4657C155.725 43.3055 155.95 44.2879 155.95 45.4127V46.2901H147.424C147.454 47.2649 147.776 48.0448 148.391 48.6297C149.021 49.1996 149.801 49.4846 150.731 49.4846C151.601 49.4846 152.253 49.2896 152.688 48.8997C153.138 48.5097 153.483 48.0598 153.723 47.5499L155.635 48.5397C155.425 48.9597 155.118 49.4021 154.713 49.867C154.323 50.332 153.805 50.7219 153.16 51.0369C152.515 51.3518 151.691 51.5093 150.686 51.5093ZM147.446 44.5129H153.588C153.528 43.673 153.228 43.0206 152.688 42.5557C152.148 42.0757 151.443 41.8358 150.573 41.8358C149.703 41.8358 148.991 42.0757 148.436 42.5557C147.896 43.0206 147.566 43.673 147.446 44.5129ZM158.739 51.1943V40.1035H161.011V41.4083H161.371C161.551 40.9434 161.836 40.606 162.226 40.396C162.631 40.171 163.126 40.0585 163.711 40.0585H165.038V42.1507H163.621C162.871 42.1507 162.256 42.3607 161.776 42.7806C161.296 43.1856 161.056 43.8155 161.056 44.6703V51.1943H158.739ZM171.742 51.5093C170.332 51.5093 169.162 51.1943 168.232 50.5644C167.302 49.9345 166.732 48.9822 166.522 47.7074L168.682 47.1899C168.802 47.8049 169.005 48.2923 169.29 48.6522C169.574 49.0122 169.927 49.2671 170.347 49.4171C170.782 49.5671 171.247 49.6421 171.742 49.6421C172.477 49.6421 173.039 49.4996 173.429 49.2146C173.834 48.9297 174.036 48.5622 174.036 48.1123C174.036 47.6624 173.849 47.3324 173.474 47.1225C173.099 46.9125 172.544 46.74 171.809 46.605L171.044 46.4701C170.294 46.3351 169.612 46.1401 168.997 45.8851C168.382 45.6302 167.895 45.2777 167.535 44.8278C167.175 44.3779 166.995 43.8005 166.995 43.0956C166.995 42.0457 167.385 41.2359 168.165 40.6659C168.945 40.081 169.979 39.7886 171.269 39.7886C172.514 39.7886 173.534 40.0735 174.329 40.6434C175.139 41.1984 175.664 41.9557 175.904 42.9156L173.744 43.523C173.609 42.8481 173.324 42.3757 172.889 42.1057C172.454 41.8208 171.914 41.6783 171.269 41.6783C170.639 41.6783 170.144 41.7983 169.784 42.0382C169.424 42.2632 169.245 42.5856 169.245 43.0056C169.245 43.4555 169.417 43.7855 169.762 43.9954C170.122 44.2054 170.602 44.3629 171.202 44.4679L171.989 44.6028C172.784 44.7378 173.511 44.9253 174.171 45.1653C174.831 45.4052 175.349 45.7502 175.724 46.2001C176.113 46.65 176.308 47.2499 176.308 47.9998C176.308 49.1097 175.896 49.972 175.071 50.5869C174.246 51.2018 173.136 51.5093 171.742 51.5093ZM184.214 51.5093C183.104 51.5093 182.114 51.2843 181.244 50.8344C180.389 50.3695 179.714 49.7096 179.219 48.8547C178.724 47.9998 178.477 46.9875 178.477 45.8177V45.4802C178.477 44.3104 178.724 43.3055 179.219 42.4657C179.714 41.6108 180.389 40.9509 181.244 40.486C182.114 40.021 183.104 39.7886 184.214 39.7886C185.323 39.7886 186.313 40.021 187.183 40.486C188.053 40.9509 188.735 41.6108 189.23 42.4657C189.725 43.3055 189.973 44.3104 189.973 45.4802V45.8177C189.973 46.9875 189.725 47.9998 189.23 48.8547C188.735 49.7096 188.053 50.3695 187.183 50.8344C186.313 51.2843 185.323 51.5093 184.214 51.5093ZM184.214 49.4396C185.233 49.4396 186.058 49.1172 186.688 48.4723C187.333 47.8124 187.656 46.905 187.656 45.7502V45.5477C187.656 44.3929 187.341 43.493 186.711 42.8481C186.081 42.1882 185.248 41.8583 184.214 41.8583C183.209 41.8583 182.384 42.1882 181.739 42.8481C181.109 43.493 180.794 44.3929 180.794 45.5477V45.7502C180.794 46.905 181.109 47.8124 181.739 48.4723C182.384 49.1172 183.209 49.4396 184.214 49.4396ZM192.857 51.1943V40.1035H195.13V41.7683H195.49C195.7 41.3183 196.074 40.8984 196.614 40.5085C197.154 40.1185 197.957 39.9236 199.022 39.9236C199.861 39.9236 200.604 40.111 201.249 40.486C201.909 40.8609 202.426 41.3933 202.801 42.0832C203.176 42.7581 203.363 43.5755 203.363 44.5354V51.1943H201.046V44.7153C201.046 43.7555 200.806 43.0506 200.326 42.6006C199.846 42.1357 199.187 41.9033 198.347 41.9033C197.387 41.9033 196.614 42.2182 196.029 42.8481C195.46 43.478 195.175 44.3929 195.175 45.5927V51.1943H192.857ZM210.14 51.5093C209.345 51.5093 208.633 51.3743 208.003 51.1043C207.388 50.8344 206.893 50.437 206.518 49.912C206.158 49.3871 205.978 48.7497 205.978 47.9998C205.978 47.2349 206.158 46.605 206.518 46.1101C206.893 45.6002 207.396 45.2177 208.025 44.9628C208.67 44.7078 209.398 44.5803 210.208 44.5803H213.582V43.8605C213.582 43.2156 213.387 42.6981 212.997 42.3082C212.607 41.9183 212.007 41.7233 211.197 41.7233C210.403 41.7233 209.795 41.9108 209.375 42.2857C208.955 42.6606 208.678 43.1481 208.543 43.748L206.383 43.0506C206.563 42.4507 206.848 41.9108 207.238 41.4308C207.643 40.9359 208.175 40.5385 208.835 40.2385C209.495 39.9386 210.29 39.7886 211.22 39.7886C212.66 39.7886 213.792 40.156 214.617 40.8909C215.442 41.6258 215.854 42.6681 215.854 44.0179V48.5847C215.854 49.0347 216.064 49.2596 216.484 49.2596H217.429V51.1943H215.697C215.172 51.1943 214.744 51.0594 214.414 50.7894C214.085 50.5194 213.92 50.152 213.92 49.6871V49.6196H213.582C213.462 49.8445 213.282 50.107 213.042 50.407C212.802 50.7069 212.45 50.9694 211.985 51.1943C211.52 51.4043 210.905 51.5093 210.14 51.5093ZM210.478 49.5971C211.407 49.5971 212.157 49.3346 212.727 48.8097C213.297 48.2698 213.582 47.5349 213.582 46.605V46.3801H210.343C209.728 46.3801 209.233 46.5151 208.858 46.785C208.483 47.04 208.295 47.4224 208.295 47.9323C208.295 48.4423 208.49 48.8472 208.88 49.1471C209.27 49.4471 209.803 49.5971 210.478 49.5971ZM219.682 51.1943V35.4467H221.999V51.1943H219.682ZM231.104 51.1943V35.4467H233.534V48.9897H241.115V51.1943H231.104ZM248.562 51.5093C247.452 51.5093 246.462 51.2843 245.592 50.8344C244.737 50.3695 244.062 49.7096 243.567 48.8547C243.072 47.9998 242.825 46.9875 242.825 45.8177V45.4802C242.825 44.3104 243.072 43.3055 243.567 42.4657C244.062 41.6108 244.737 40.9509 245.592 40.486C246.462 40.021 247.452 39.7886 248.562 39.7886C249.671 39.7886 250.661 40.021 251.531 40.486C252.401 40.9509 253.083 41.6108 253.578 42.4657C254.073 43.3055 254.321 44.3104 254.321 45.4802V45.8177C254.321 46.9875 254.073 47.9998 253.578 48.8547C253.083 49.7096 252.401 50.3695 251.531 50.8344C250.661 51.2843 249.671 51.5093 248.562 51.5093ZM248.562 49.4396C249.581 49.4396 250.406 49.1172 251.036 48.4723C251.681 47.8124 252.004 46.905 252.004 45.7502V45.5477C252.004 44.3929 251.689 43.493 251.059 42.8481C250.429 42.1882 249.596 41.8583 248.562 41.8583C247.557 41.8583 246.732 42.1882 246.087 42.8481C245.457 43.493 245.142 44.3929 245.142 45.5477V45.7502C245.142 46.905 245.457 47.8124 246.087 48.4723C246.732 49.1172 247.557 49.4396 248.562 49.4396ZM260.648 51.5093C259.853 51.5093 259.14 51.3743 258.51 51.1043C257.895 50.8344 257.401 50.437 257.026 49.912C256.666 49.3871 256.486 48.7497 256.486 47.9998C256.486 47.2349 256.666 46.605 257.026 46.1101C257.401 45.6002 257.903 45.2177 258.533 44.9628C259.178 44.7078 259.905 44.5803 260.715 44.5803H264.09V43.8605C264.09 43.2156 263.895 42.6981 263.505 42.3082C263.115 41.9183 262.515 41.7233 261.705 41.7233C260.91 41.7233 260.303 41.9108 259.883 42.2857C259.463 42.6606 259.185 43.1481 259.05 43.748L256.891 43.0506C257.071 42.4507 257.356 41.9108 257.745 41.4308C258.15 40.9359 258.683 40.5385 259.343 40.2385C260.003 39.9386 260.798 39.7886 261.727 39.7886C263.167 39.7886 264.299 40.156 265.124 40.8909C265.949 41.6258 266.362 42.6681 266.362 44.0179V48.5847C266.362 49.0347 266.572 49.2596 266.992 49.2596H267.936V51.1943H266.204C265.679 51.1943 265.252 51.0594 264.922 50.7894C264.592 50.5194 264.427 50.152 264.427 49.6871V49.6196H264.09C263.97 49.8445 263.79 50.107 263.55 50.407C263.31 50.7069 262.957 50.9694 262.492 51.1943C262.027 51.4043 261.412 51.5093 260.648 51.5093ZM260.985 49.5971C261.915 49.5971 262.665 49.3346 263.235 48.8097C263.805 48.2698 264.09 47.5349 264.09 46.605V46.3801H260.85C260.235 46.3801 259.74 46.5151 259.365 46.785C258.99 47.04 258.803 47.4224 258.803 47.9323C258.803 48.4423 258.998 48.8472 259.388 49.1471C259.778 49.4471 260.31 49.5971 260.985 49.5971ZM270.189 51.1943V40.1035H272.462V41.7683H272.822C273.031 41.3183 273.406 40.8984 273.946 40.5085C274.486 40.1185 275.289 39.9236 276.353 39.9236C277.193 39.9236 277.936 40.111 278.581 40.486C279.241 40.8609 279.758 41.3933 280.133 42.0832C280.508 42.7581 280.695 43.5755 280.695 44.5354V51.1943H278.378V44.7153C278.378 43.7555 278.138 43.0506 277.658 42.6006C277.178 42.1357 276.518 41.9033 275.679 41.9033C274.719 41.9033 273.946 42.2182 273.361 42.8481C272.792 43.478 272.507 44.3929 272.507 45.5927V51.1943H270.189Z" fill="#102E34"/>
<path d="M132.081 87.5635V73.7843H134.207V87.5635H132.081ZM137.158 79.0991V77.9378H137.827C138.365 77.9378 138.634 77.6687 138.634 77.1307V76.5008H138.339C137.88 76.5008 137.499 76.363 137.197 76.0874C136.896 75.8118 136.745 75.4641 136.745 75.0441C136.745 74.5848 136.896 74.2174 137.197 73.9418C137.499 73.6531 137.88 73.5087 138.339 73.5087C138.798 73.5087 139.172 73.6597 139.461 73.9615C139.763 74.2502 139.914 74.6308 139.914 75.1032V77.1504C139.914 78.4496 139.264 79.0991 137.965 79.0991H137.158ZM142.521 87.5635V77.859H144.509V79.0007H144.824C145.008 78.6595 145.303 78.3577 145.71 78.0952C146.117 77.8328 146.668 77.7015 147.363 77.7015C148.085 77.7015 148.662 77.8525 149.095 78.1543C149.542 78.443 149.876 78.817 150.099 79.2763H150.414C150.637 78.8301 150.959 78.4561 151.379 78.1543C151.812 77.8525 152.422 77.7015 153.209 77.7015C153.839 77.7015 154.397 77.8328 154.883 78.0952C155.368 78.3446 155.755 78.7251 156.044 79.2369C156.333 79.7356 156.477 80.359 156.477 81.107V87.5635H154.45V81.2644C154.45 80.6739 154.286 80.2212 153.957 79.9062C153.643 79.5781 153.19 79.4141 152.599 79.4141C151.969 79.4141 151.464 79.6175 151.084 80.0243C150.703 80.4311 150.513 81.0151 150.513 81.7762V87.5635H148.485V81.2644C148.485 80.6739 148.321 80.2212 147.993 79.9062C147.678 79.5781 147.225 79.4141 146.635 79.4141C146.005 79.4141 145.5 79.6175 145.119 80.0243C144.739 80.4311 144.548 81.0151 144.548 81.7762V87.5635H142.521ZM164.416 87.5635V77.859H166.404V79.0007H166.719C166.877 78.5939 167.126 78.2986 167.467 78.1149C167.821 77.9181 168.254 77.8197 168.766 77.8197H169.928V79.6503H168.687C168.031 79.6503 167.493 79.834 167.073 80.2015C166.653 80.5558 166.443 81.107 166.443 81.855V87.5635H164.416ZM176.131 87.8391C175.147 87.8391 174.287 87.6357 173.552 87.2288C172.817 86.8089 172.24 86.2249 171.82 85.4769C171.413 84.7158 171.21 83.8365 171.21 82.8392V82.603C171.21 81.5925 171.413 80.7133 171.82 79.9653C172.227 79.2041 172.791 78.6202 173.513 78.2133C174.248 77.7934 175.094 77.5834 176.052 77.5834C176.984 77.5834 177.798 77.7934 178.493 78.2133C179.202 78.6202 179.753 79.191 180.147 79.9259C180.54 80.6608 180.737 81.5203 180.737 82.5046V83.2723H173.277C173.303 84.1253 173.585 84.8076 174.123 85.3194C174.674 85.8181 175.357 86.0675 176.17 86.0675C176.932 86.0675 177.502 85.8969 177.883 85.5557C178.277 85.2145 178.578 84.8208 178.788 84.3746L180.462 85.2407C180.278 85.6082 180.009 85.9953 179.655 86.4021C179.313 86.8089 178.861 87.1501 178.296 87.4257C177.732 87.7013 177.01 87.8391 176.131 87.8391ZM173.296 81.7172H178.67C178.618 80.9823 178.355 80.4114 177.883 80.0046C177.41 79.5847 176.794 79.3747 176.033 79.3747C175.271 79.3747 174.648 79.5847 174.163 80.0046C173.69 80.4114 173.401 80.9823 173.296 81.7172ZM187.154 87.8391C185.92 87.8391 184.897 87.5635 184.083 87.0123C183.27 86.4611 182.771 85.6278 182.587 84.5124L184.477 84.0596C184.582 84.5977 184.759 85.0242 185.008 85.3391C185.258 85.6541 185.566 85.8772 185.934 86.0084C186.314 86.1396 186.721 86.2052 187.154 86.2052C187.797 86.2052 188.289 86.0806 188.63 85.8312C188.985 85.5819 189.162 85.2604 189.162 84.8667C189.162 84.473 188.998 84.1843 188.67 84.0006C188.342 83.8169 187.856 83.6659 187.213 83.5478L186.544 83.4297C185.888 83.3116 185.291 83.141 184.753 82.9179C184.214 82.6948 183.788 82.3865 183.473 81.9928C183.158 81.5991 183.001 81.0938 183.001 80.4771C183.001 79.5584 183.342 78.8498 184.024 78.3511C184.707 77.8393 185.612 77.5834 186.741 77.5834C187.83 77.5834 188.722 77.8328 189.418 78.3314C190.126 78.817 190.586 79.4797 190.796 80.3196L188.906 80.8511C188.788 80.2605 188.538 79.8472 188.158 79.6109C187.777 79.3616 187.305 79.2369 186.741 79.2369C186.189 79.2369 185.756 79.3419 185.441 79.5519C185.127 79.7487 184.969 80.0309 184.969 80.3983C184.969 80.792 185.12 81.0807 185.422 81.2644C185.737 81.4482 186.157 81.586 186.682 81.6778L187.371 81.7959C188.066 81.914 188.703 82.0781 189.28 82.288C189.857 82.498 190.31 82.7998 190.638 83.1935C190.979 83.5872 191.15 84.1121 191.15 84.7683C191.15 85.7394 190.789 86.494 190.067 87.032C189.346 87.57 188.374 87.8391 187.154 87.8391ZM193.52 91.5004V77.859H195.508V79.2566H195.823C196.072 78.8236 196.446 78.4364 196.945 78.0952C197.457 77.754 198.185 77.5834 199.13 77.5834C199.943 77.5834 200.685 77.7803 201.354 78.174C202.037 78.5677 202.581 79.1385 202.988 79.8865C203.408 80.6214 203.618 81.5138 203.618 82.5636V82.8589C203.618 83.9087 203.415 84.8076 203.008 85.5557C202.601 86.2905 202.056 86.8548 201.374 87.2485C200.692 87.6422 199.943 87.8391 199.13 87.8391C198.5 87.8391 197.968 87.7603 197.535 87.6028C197.102 87.4454 196.755 87.2485 196.492 87.0123C196.23 86.763 196.02 86.5071 195.862 86.2446H195.547V91.5004H193.52ZM198.539 86.0675C199.432 86.0675 200.16 85.7853 200.724 85.221C201.289 84.6567 201.571 83.8497 201.571 82.7998V82.6227C201.571 81.586 201.282 80.7854 200.705 80.2212C200.14 79.6569 199.419 79.3747 198.539 79.3747C197.673 79.3747 196.951 79.6569 196.374 80.2212C195.81 80.7854 195.528 81.586 195.528 82.6227V82.7998C195.528 83.8497 195.81 84.6567 196.374 85.221C196.951 85.7853 197.673 86.0675 198.539 86.0675ZM210.677 87.8391C209.706 87.8391 208.84 87.6422 208.079 87.2485C207.331 86.8417 206.74 86.2643 206.307 85.5163C205.874 84.7683 205.658 83.8825 205.658 82.8589V82.5636C205.658 81.54 205.874 80.6608 206.307 79.9259C206.74 79.1779 207.331 78.6005 208.079 78.1937C208.84 77.7868 209.706 77.5834 210.677 77.5834C211.648 77.5834 212.515 77.7868 213.276 78.1937C214.037 78.6005 214.634 79.1779 215.067 79.9259C215.5 80.6608 215.717 81.54 215.717 82.5636V82.8589C215.717 83.8825 215.5 84.7683 215.067 85.5163C214.634 86.2643 214.037 86.8417 213.276 87.2485C212.515 87.6422 211.648 87.8391 210.677 87.8391ZM210.677 86.0281C211.57 86.0281 212.291 85.7459 212.843 85.1817C213.407 84.6042 213.689 83.8103 213.689 82.7998V82.6227C213.689 81.6122 213.413 80.8248 212.862 80.2605C212.311 79.6831 211.583 79.3944 210.677 79.3944C209.798 79.3944 209.076 79.6831 208.512 80.2605C207.961 80.8248 207.685 81.6122 207.685 82.6227V82.7998C207.685 83.8103 207.961 84.6042 208.512 85.1817C209.076 85.7459 209.798 86.0281 210.677 86.0281ZM218.241 87.5635V77.859H220.229V79.3157H220.544C220.728 78.922 221.056 78.5545 221.528 78.2133C222 77.8721 222.703 77.7015 223.634 77.7015C224.369 77.7015 225.019 77.8656 225.583 78.1937C226.16 78.5217 226.613 78.9876 226.941 79.5913C227.269 80.1818 227.433 80.897 227.433 81.7369V87.5635H225.406V81.8943C225.406 81.0545 225.196 80.4377 224.776 80.044C224.356 79.6372 223.779 79.4338 223.044 79.4338C222.204 79.4338 221.528 79.7094 221.016 80.2605C220.518 80.8117 220.268 81.6122 220.268 82.662V87.5635H218.241ZM234.328 87.8391C233.094 87.8391 232.07 87.5635 231.257 87.0123C230.443 86.4611 229.945 85.6278 229.761 84.5124L231.65 84.0596C231.755 84.5977 231.933 85.0242 232.182 85.3391C232.431 85.6541 232.74 85.8772 233.107 86.0084C233.488 86.1396 233.895 86.2052 234.328 86.2052C234.971 86.2052 235.463 86.0806 235.804 85.8312C236.158 85.5819 236.335 85.2604 236.335 84.8667C236.335 84.473 236.171 84.1843 235.843 84.0006C235.515 83.8169 235.03 83.6659 234.387 83.5478L233.717 83.4297C233.061 83.3116 232.464 83.141 231.926 82.9179C231.388 82.6948 230.962 82.3865 230.647 81.9928C230.332 81.5991 230.174 81.0938 230.174 80.4771C230.174 79.5584 230.515 78.8498 231.198 78.3511C231.88 77.8393 232.786 77.5834 233.914 77.5834C235.003 77.5834 235.896 77.8328 236.591 78.3314C237.3 78.817 237.759 79.4797 237.969 80.3196L236.08 80.8511C235.961 80.2605 235.712 79.8472 235.331 79.6109C234.951 79.3616 234.479 79.2369 233.914 79.2369C233.363 79.2369 232.93 79.3419 232.615 79.5519C232.3 79.7487 232.143 80.0309 232.143 80.3983C232.143 80.792 232.294 81.0807 232.595 81.2644C232.91 81.4482 233.33 81.586 233.855 81.6778L234.544 81.7959C235.24 81.914 235.876 82.0781 236.454 82.288C237.031 82.498 237.484 82.7998 237.812 83.1935C238.153 83.5872 238.324 84.1121 238.324 84.7683C238.324 85.7394 237.963 86.494 237.241 87.032C236.519 87.57 235.548 87.8391 234.328 87.8391ZM240.693 87.5635V77.859H242.721V87.5635H240.693ZM241.717 76.5402C241.323 76.5402 240.989 76.4155 240.713 76.1662C240.451 75.9037 240.319 75.5691 240.319 75.1622C240.319 74.7554 240.451 74.4274 240.713 74.178C240.989 73.9156 241.323 73.7843 241.717 73.7843C242.124 73.7843 242.458 73.9156 242.721 74.178C242.983 74.4274 243.115 74.7554 243.115 75.1622C243.115 75.5691 242.983 75.9037 242.721 76.1662C242.458 76.4155 242.124 76.5402 241.717 76.5402ZM251.34 87.8391C250.395 87.8391 249.667 87.6685 249.155 87.3273C248.656 86.9861 248.282 86.6055 248.033 86.1856H247.718V87.5635H245.73V73.7843H247.757V79.1779H248.072C248.23 78.9154 248.44 78.6661 248.702 78.4299C248.965 78.1805 249.312 77.9771 249.745 77.8197C250.179 77.6622 250.71 77.5834 251.34 77.5834C252.154 77.5834 252.902 77.7803 253.584 78.174C254.266 78.5677 254.811 79.1385 255.218 79.8865C255.625 80.6345 255.828 81.5269 255.828 82.5636V82.8589C255.828 83.9087 255.618 84.8076 255.198 85.5557C254.791 86.2905 254.247 86.8548 253.564 87.2485C252.895 87.6422 252.154 87.8391 251.34 87.8391ZM250.749 86.0675C251.629 86.0675 252.35 85.7853 252.915 85.221C253.492 84.6567 253.781 83.8497 253.781 82.7998V82.6227C253.781 81.586 253.499 80.7854 252.934 80.2212C252.37 79.6569 251.642 79.3747 250.749 79.3747C249.883 79.3747 249.161 79.6569 248.584 80.2212C248.02 80.7854 247.738 81.586 247.738 82.6227V82.7998C247.738 83.8497 248.02 84.6567 248.584 85.221C249.161 85.7853 249.883 86.0675 250.749 86.0675ZM258.34 87.5635V73.7843H260.368V87.5635H258.34ZM267.825 87.8391C266.841 87.8391 265.982 87.6357 265.247 87.2288C264.512 86.8089 263.934 86.2249 263.514 85.4769C263.108 84.7158 262.904 83.8365 262.904 82.8392V82.603C262.904 81.5925 263.108 80.7133 263.514 79.9653C263.921 79.2041 264.486 78.6202 265.207 78.2133C265.942 77.7934 266.789 77.5834 267.747 77.5834C268.678 77.5834 269.492 77.7934 270.188 78.2133C270.896 78.6202 271.447 79.191 271.841 79.9259C272.235 80.6608 272.432 81.5203 272.432 82.5046V83.2723H264.971C264.997 84.1253 265.28 84.8076 265.818 85.3194C266.369 85.8181 267.051 86.0675 267.865 86.0675C268.626 86.0675 269.197 85.8969 269.577 85.5557C269.971 85.2145 270.273 84.8208 270.483 84.3746L272.156 85.2407C271.972 85.6082 271.703 85.9953 271.349 86.4021C271.008 86.8089 270.555 87.1501 269.991 87.4257C269.426 87.7013 268.705 87.8391 267.825 87.8391ZM264.991 81.7172H270.365C270.312 80.9823 270.05 80.4114 269.577 80.0046C269.105 79.5847 268.488 79.3747 267.727 79.3747C266.966 79.3747 266.342 79.5847 265.857 80.0046C265.385 80.4114 265.096 80.9823 264.991 81.7172ZM281.641 87.5635V79.5716H278.925V77.859H281.641V75.7331C281.641 75.1426 281.818 74.6701 282.173 74.3158C282.527 73.9615 282.999 73.7843 283.59 73.7843H286.09V75.4969H284.24C283.859 75.4969 283.669 75.6937 283.669 76.0874V77.859H286.464V79.5716H283.669V87.5635H281.641ZM292.683 87.8391C291.712 87.8391 290.846 87.6422 290.085 87.2485C289.337 86.8417 288.746 86.2643 288.313 85.5163C287.88 84.7683 287.664 83.8825 287.664 82.8589V82.5636C287.664 81.54 287.88 80.6608 288.313 79.9259C288.746 79.1779 289.337 78.6005 290.085 78.1937C290.846 77.7868 291.712 77.5834 292.683 77.5834C293.654 77.5834 294.52 77.7868 295.282 78.1937C296.043 78.6005 296.64 79.1779 297.073 79.9259C297.506 80.6608 297.722 81.54 297.722 82.5636V82.8589C297.722 83.8825 297.506 84.7683 297.073 85.5163C296.64 86.2643 296.043 86.8417 295.282 87.2485C294.52 87.6422 293.654 87.8391 292.683 87.8391ZM292.683 86.0281C293.576 86.0281 294.297 85.7459 294.848 85.1817C295.413 84.6042 295.695 83.8103 295.695 82.7998V82.6227C295.695 81.6122 295.419 80.8248 294.868 80.2605C294.317 79.6831 293.589 79.3944 292.683 79.3944C291.804 79.3944 291.082 79.6831 290.518 80.2605C289.967 80.8248 289.691 81.6122 289.691 82.6227V82.7998C289.691 83.8103 289.967 84.6042 290.518 85.1817C291.082 85.7459 291.804 86.0281 292.683 86.0281ZM300.247 87.5635V77.859H302.235V79.0007H302.55C302.707 78.5939 302.957 78.2986 303.298 78.1149C303.652 77.9181 304.085 77.8197 304.597 77.8197H305.758V79.6503H304.518C303.862 79.6503 303.324 79.834 302.904 80.2015C302.484 80.5558 302.274 81.107 302.274 81.855V87.5635H300.247ZM316.518 87.5635C315.927 87.5635 315.455 87.3863 315.101 87.032C314.759 86.6777 314.589 86.2052 314.589 85.6147V79.5716H311.912V77.859H314.589V74.6504H316.616V77.859H319.51V79.5716H316.616V85.2604C316.616 85.6541 316.8 85.8509 317.167 85.8509H319.195V87.5635H316.518ZM321.892 87.5635V73.7843H323.919V79.2369H324.234C324.366 78.9876 324.549 78.7448 324.786 78.5086C325.035 78.2724 325.356 78.0821 325.75 77.9378C326.157 77.7803 326.669 77.7015 327.285 77.7015C328.02 77.7015 328.67 77.8656 329.234 78.1937C329.812 78.5217 330.264 78.9876 330.592 79.5913C330.921 80.1818 331.085 80.897 331.085 81.7369V87.5635H329.057V81.8943C329.057 81.0545 328.847 80.4377 328.427 80.044C328.007 79.6372 327.43 79.4338 326.695 79.4338C325.855 79.4338 325.179 79.7094 324.667 80.2605C324.169 80.8117 323.919 81.6122 323.919 82.662V87.5635H321.892ZM338.451 87.8391C337.467 87.8391 336.607 87.6357 335.873 87.2288C335.138 86.8089 334.56 86.2249 334.14 85.4769C333.733 84.7158 333.53 83.8365 333.53 82.8392V82.603C333.53 81.5925 333.733 80.7133 334.14 79.9653C334.547 79.2041 335.111 78.6202 335.833 78.2133C336.568 77.7934 337.414 77.5834 338.372 77.5834C339.304 77.5834 340.118 77.7934 340.813 78.2133C341.522 78.6202 342.073 79.191 342.467 79.9259C342.861 80.6608 343.057 81.5203 343.057 82.5046V83.2723H335.597C335.623 84.1253 335.905 84.8076 336.443 85.3194C336.995 85.8181 337.677 86.0675 338.491 86.0675C339.252 86.0675 339.823 85.8969 340.203 85.5557C340.597 85.2145 340.899 84.8208 341.109 84.3746L342.782 85.2407C342.598 85.6082 342.329 85.9953 341.975 86.4021C341.634 86.8089 341.181 87.1501 340.616 87.4257C340.052 87.7013 339.33 87.8391 338.451 87.8391ZM335.617 81.7172H340.99C340.938 80.9823 340.676 80.4114 340.203 80.0046C339.731 79.5847 339.114 79.3747 338.353 79.3747C337.592 79.3747 336.968 79.5847 336.483 80.0046C336.01 80.4114 335.722 80.9823 335.617 81.7172ZM132.14 116.5V102.859H134.128V104.257H134.443C134.693 103.824 135.067 103.436 135.565 103.095C136.077 102.754 136.806 102.583 137.75 102.583C138.564 102.583 139.305 102.78 139.975 103.174C140.657 103.568 141.202 104.139 141.609 104.887C142.028 105.621 142.238 106.514 142.238 107.564V107.859C142.238 108.909 142.035 109.808 141.628 110.556C141.221 111.291 140.677 111.855 139.994 112.249C139.312 112.642 138.564 112.839 137.75 112.839C137.12 112.839 136.589 112.76 136.156 112.603C135.723 112.445 135.375 112.249 135.113 112.012C134.85 111.763 134.64 111.507 134.483 111.245H134.168V116.5H132.14ZM137.16 111.067C138.052 111.067 138.781 110.785 139.345 110.221C139.909 109.657 140.191 108.85 140.191 107.8V107.623C140.191 106.586 139.903 105.785 139.325 105.221C138.761 104.657 138.039 104.375 137.16 104.375C136.294 104.375 135.572 104.657 134.995 105.221C134.43 105.785 134.148 106.586 134.148 107.623V107.8C134.148 108.85 134.43 109.657 134.995 110.221C135.572 110.785 136.294 111.067 137.16 111.067ZM147.762 112.839C147.067 112.839 146.444 112.721 145.892 112.485C145.354 112.249 144.921 111.901 144.593 111.441C144.278 110.982 144.121 110.424 144.121 109.768C144.121 109.099 144.278 108.548 144.593 108.115C144.921 107.669 145.361 107.334 145.912 107.111C146.476 106.888 147.113 106.776 147.821 106.776H150.774V106.146C150.774 105.582 150.604 105.129 150.262 104.788C149.921 104.447 149.396 104.276 148.688 104.276C147.992 104.276 147.461 104.44 147.093 104.768C146.726 105.096 146.483 105.523 146.365 106.048L144.475 105.438C144.633 104.913 144.882 104.44 145.223 104.02C145.577 103.587 146.043 103.24 146.621 102.977C147.198 102.715 147.894 102.583 148.707 102.583C149.967 102.583 150.958 102.905 151.68 103.548C152.401 104.191 152.762 105.103 152.762 106.284V110.28C152.762 110.674 152.946 110.871 153.313 110.871H154.14V112.563H152.624C152.165 112.563 151.791 112.445 151.502 112.209C151.214 111.973 151.069 111.651 151.069 111.245V111.186H150.774C150.669 111.382 150.512 111.612 150.302 111.875C150.092 112.137 149.783 112.367 149.377 112.563C148.97 112.747 148.432 112.839 147.762 112.839ZM148.058 111.166C148.871 111.166 149.527 110.936 150.026 110.477C150.525 110.004 150.774 109.361 150.774 108.548V108.351H147.94C147.402 108.351 146.968 108.469 146.64 108.705C146.312 108.928 146.148 109.263 146.148 109.709C146.148 110.155 146.319 110.51 146.66 110.772C147.001 111.035 147.467 111.166 148.058 111.166ZM156.984 116.5V114.729H162.397C162.764 114.729 162.948 114.532 162.948 114.138V111.146H162.633C162.515 111.409 162.331 111.665 162.082 111.914C161.846 112.15 161.524 112.347 161.117 112.504C160.711 112.662 160.199 112.741 159.582 112.741C158.847 112.741 158.191 112.577 157.614 112.249C157.036 111.92 156.583 111.455 156.255 110.851C155.927 110.247 155.763 109.532 155.763 108.705V102.859H157.791V108.548C157.791 109.388 158.001 110.011 158.421 110.418C158.841 110.812 159.425 111.008 160.173 111.008C160.999 111.008 161.662 110.733 162.161 110.182C162.672 109.63 162.928 108.83 162.928 107.78V102.859H164.956V114.552C164.956 115.142 164.779 115.615 164.424 115.969C164.083 116.323 163.611 116.5 163.007 116.5H156.984ZM167.953 112.563V102.859H169.941V104.001H170.256C170.44 103.66 170.735 103.358 171.142 103.095C171.549 102.833 172.1 102.702 172.795 102.702C173.517 102.702 174.095 102.852 174.528 103.154C174.974 103.443 175.308 103.817 175.532 104.276H175.846C176.07 103.83 176.391 103.456 176.811 103.154C177.244 102.852 177.854 102.702 178.642 102.702C179.272 102.702 179.829 102.833 180.315 103.095C180.8 103.345 181.188 103.725 181.476 104.237C181.765 104.736 181.909 105.359 181.909 106.107V112.563H179.882V106.264C179.882 105.674 179.718 105.221 179.39 104.906C179.075 104.578 178.622 104.414 178.031 104.414C177.402 104.414 176.896 104.618 176.516 105.024C176.135 105.431 175.945 106.015 175.945 106.776V112.563H173.917V106.264C173.917 105.674 173.753 105.221 173.425 104.906C173.11 104.578 172.658 104.414 172.067 104.414C171.437 104.414 170.932 104.618 170.551 105.024C170.171 105.431 169.981 106.015 169.981 106.776V112.563H167.953ZM189.28 112.839C188.295 112.839 187.436 112.636 186.701 112.229C185.966 111.809 185.389 111.225 184.969 110.477C184.562 109.716 184.359 108.837 184.359 107.839V107.603C184.359 106.593 184.562 105.713 184.969 104.965C185.376 104.204 185.94 103.62 186.662 103.213C187.396 102.793 188.243 102.583 189.201 102.583C190.133 102.583 190.946 102.793 191.642 103.213C192.35 103.62 192.902 104.191 193.295 104.926C193.689 105.661 193.886 106.52 193.886 107.505V108.272H186.425C186.452 109.125 186.734 109.808 187.272 110.319C187.823 110.818 188.505 111.067 189.319 111.067C190.08 111.067 190.651 110.897 191.032 110.556C191.425 110.214 191.727 109.821 191.937 109.375L193.61 110.241C193.426 110.608 193.157 110.995 192.803 111.402C192.462 111.809 192.009 112.15 191.445 112.426C190.881 112.701 190.159 112.839 189.28 112.839ZM186.445 106.717H191.819C191.766 105.982 191.504 105.411 191.032 105.005C190.559 104.585 189.942 104.375 189.181 104.375C188.42 104.375 187.797 104.585 187.311 105.005C186.839 105.411 186.55 105.982 186.445 106.717ZM196.326 112.563V102.859H198.315V104.316H198.629C198.813 103.922 199.141 103.555 199.614 103.213C200.086 102.872 200.788 102.702 201.72 102.702C202.455 102.702 203.104 102.866 203.669 103.194C204.246 103.522 204.699 103.988 205.027 104.591C205.355 105.182 205.519 105.897 205.519 106.737V112.563H203.492V106.894C203.492 106.054 203.282 105.438 202.862 105.044C202.442 104.637 201.864 104.434 201.129 104.434C200.29 104.434 199.614 104.709 199.102 105.261C198.603 105.812 198.354 106.612 198.354 107.662V112.563H196.326ZM211.809 112.563C211.219 112.563 210.746 112.386 210.392 112.032C210.051 111.678 209.88 111.205 209.88 110.615V104.572H207.203V102.859H209.88V99.6504H211.908V102.859H214.801V104.572H211.908V110.26C211.908 110.654 212.092 110.851 212.459 110.851H214.487V112.563H211.809ZM226.748 112.839C225.777 112.839 224.911 112.642 224.149 112.249C223.401 111.842 222.811 111.264 222.378 110.516C221.945 109.768 221.728 108.882 221.728 107.859V107.564C221.728 106.54 221.945 105.661 222.378 104.926C222.811 104.178 223.401 103.6 224.149 103.194C224.911 102.787 225.777 102.583 226.748 102.583C227.719 102.583 228.585 102.787 229.346 103.194C230.107 103.6 230.704 104.178 231.137 104.926C231.571 105.661 231.787 106.54 231.787 107.564V107.859C231.787 108.882 231.571 109.768 231.137 110.516C230.704 111.264 230.107 111.842 229.346 112.249C228.585 112.642 227.719 112.839 226.748 112.839ZM226.748 111.028C227.64 111.028 228.362 110.746 228.913 110.182C229.477 109.604 229.76 108.81 229.76 107.8V107.623C229.76 106.612 229.484 105.825 228.933 105.261C228.382 104.683 227.653 104.394 226.748 104.394C225.869 104.394 225.147 104.683 224.583 105.261C224.031 105.825 223.756 106.612 223.756 107.623V107.8C223.756 108.81 224.031 109.604 224.583 110.182C225.147 110.746 225.869 111.028 226.748 111.028ZM235.698 112.563V104.572H232.982V102.859H235.698V100.733C235.698 100.143 235.875 99.6701 236.229 99.3158C236.584 98.9615 237.056 98.7843 237.647 98.7843H240.147V100.497H238.296C237.916 100.497 237.725 100.694 237.725 101.087V102.859H240.521V104.572H237.725V112.563H235.698ZM251.255 112.563C250.665 112.563 250.192 112.386 249.838 112.032C249.497 111.678 249.326 111.205 249.326 110.615V104.572H246.649V102.859H249.326V99.6504H251.354V102.859H254.247V104.572H251.354V110.26C251.354 110.654 251.537 110.851 251.905 110.851H253.932V112.563H251.255ZM256.629 112.563V98.7843H258.657V104.237H258.972C259.103 103.988 259.287 103.745 259.523 103.509C259.772 103.272 260.094 103.082 260.488 102.938C260.894 102.78 261.406 102.702 262.023 102.702C262.758 102.702 263.407 102.866 263.972 103.194C264.549 103.522 265.002 103.988 265.33 104.591C265.658 105.182 265.822 105.897 265.822 106.737V112.563H263.795V106.894C263.795 106.054 263.585 105.438 263.165 105.044C262.745 104.637 262.167 104.434 261.432 104.434C260.592 104.434 259.917 104.709 259.405 105.261C258.906 105.812 258.657 106.612 258.657 107.662V112.563H256.629ZM268.74 112.563V102.859H270.767V112.563H268.74ZM269.764 101.54C269.37 101.54 269.035 101.415 268.76 101.166C268.497 100.904 268.366 100.569 268.366 100.162C268.366 99.7554 268.497 99.4274 268.76 99.178C269.035 98.9156 269.37 98.7843 269.764 98.7843C270.17 98.7843 270.505 98.9156 270.767 99.178C271.03 99.4274 271.161 99.7554 271.161 100.162C271.161 100.569 271.03 100.904 270.767 101.166C270.505 101.415 270.17 101.54 269.764 101.54ZM277.753 112.839C276.519 112.839 275.496 112.563 274.682 112.012C273.868 111.461 273.37 110.628 273.186 109.512L275.076 109.06C275.181 109.598 275.358 110.024 275.607 110.339C275.856 110.654 276.165 110.877 276.532 111.008C276.913 111.14 277.32 111.205 277.753 111.205C278.396 111.205 278.888 111.081 279.229 110.831C279.583 110.582 279.76 110.26 279.76 109.867C279.76 109.473 279.596 109.184 279.268 109.001C278.94 108.817 278.455 108.666 277.812 108.548L277.142 108.43C276.486 108.312 275.889 108.141 275.351 107.918C274.813 107.695 274.387 107.386 274.072 106.993C273.757 106.599 273.599 106.094 273.599 105.477C273.599 104.558 273.94 103.85 274.623 103.351C275.305 102.839 276.211 102.583 277.339 102.583C278.429 102.583 279.321 102.833 280.016 103.331C280.725 103.817 281.184 104.48 281.394 105.32L279.505 105.851C279.386 105.261 279.137 104.847 278.757 104.611C278.376 104.362 277.904 104.237 277.339 104.237C276.788 104.237 276.355 104.342 276.04 104.552C275.725 104.749 275.568 105.031 275.568 105.398C275.568 105.792 275.719 106.081 276.02 106.264C276.335 106.448 276.755 106.586 277.28 106.678L277.969 106.796C278.665 106.914 279.301 107.078 279.879 107.288C280.456 107.498 280.909 107.8 281.237 108.194C281.578 108.587 281.749 109.112 281.749 109.768C281.749 110.739 281.388 111.494 280.666 112.032C279.944 112.57 278.973 112.839 277.753 112.839ZM289.136 112.563V98.7843H291.163V112.563H289.136ZM298.719 112.839C297.748 112.839 296.882 112.642 296.121 112.249C295.373 111.842 294.782 111.264 294.349 110.516C293.916 109.768 293.7 108.882 293.7 107.859V107.564C293.7 106.54 293.916 105.661 294.349 104.926C294.782 104.178 295.373 103.6 296.121 103.194C296.882 102.787 297.748 102.583 298.719 102.583C299.69 102.583 300.556 102.787 301.318 103.194C302.079 103.6 302.676 104.178 303.109 104.926C303.542 105.661 303.758 106.54 303.758 107.564V107.859C303.758 108.882 303.542 109.768 303.109 110.516C302.676 111.264 302.079 111.842 301.318 112.249C300.556 112.642 299.69 112.839 298.719 112.839ZM298.719 111.028C299.612 111.028 300.333 110.746 300.885 110.182C301.449 109.604 301.731 108.81 301.731 107.8V107.623C301.731 106.612 301.455 105.825 300.904 105.261C300.353 104.683 299.625 104.394 298.719 104.394C297.84 104.394 297.118 104.683 296.554 105.261C296.003 105.825 295.727 106.612 295.727 107.623V107.8C295.727 108.81 296.003 109.604 296.554 110.182C297.118 110.746 297.84 111.028 298.719 111.028ZM309.294 112.839C308.599 112.839 307.976 112.721 307.424 112.485C306.886 112.249 306.453 111.901 306.125 111.441C305.81 110.982 305.653 110.424 305.653 109.768C305.653 109.099 305.81 108.548 306.125 108.115C306.453 107.669 306.893 107.334 307.444 107.111C308.008 106.888 308.645 106.776 309.354 106.776H312.306V106.146C312.306 105.582 312.136 105.129 311.794 104.788C311.453 104.447 310.928 104.276 310.22 104.276C309.524 104.276 308.993 104.44 308.625 104.768C308.258 105.096 308.015 105.523 307.897 106.048L306.007 105.438C306.165 104.913 306.414 104.44 306.755 104.02C307.109 103.587 307.575 103.24 308.153 102.977C308.73 102.715 309.426 102.583 310.239 102.583C311.499 102.583 312.49 102.905 313.212 103.548C313.933 104.191 314.294 105.103 314.294 106.284V110.28C314.294 110.674 314.478 110.871 314.845 110.871H315.672V112.563H314.157C313.697 112.563 313.323 112.445 313.035 112.209C312.746 111.973 312.601 111.651 312.601 111.245V111.186H312.306C312.201 111.382 312.044 111.612 311.834 111.875C311.624 112.137 311.315 112.367 310.909 112.563C310.502 112.747 309.964 112.839 309.294 112.839ZM309.59 111.166C310.403 111.166 311.059 110.936 311.558 110.477C312.057 110.004 312.306 109.361 312.306 108.548V108.351H309.472C308.934 108.351 308.501 108.469 308.172 108.705C307.844 108.928 307.68 109.263 307.68 109.709C307.68 110.155 307.851 110.51 308.192 110.772C308.533 111.035 308.999 111.166 309.59 111.166ZM317.644 112.563V102.859H319.632V104.316H319.947C320.13 103.922 320.458 103.555 320.931 103.213C321.403 102.872 322.105 102.702 323.037 102.702C323.772 102.702 324.422 102.866 324.986 103.194C325.563 103.522 326.016 103.988 326.344 104.591C326.672 105.182 326.836 105.897 326.836 106.737V112.563H324.809V106.894C324.809 106.054 324.599 105.438 324.179 105.044C323.759 104.637 323.182 104.434 322.447 104.434C321.607 104.434 320.931 104.709 320.419 105.261C319.92 105.812 319.671 106.612 319.671 107.662V112.563H317.644Z" fill="#102E34"/>
<circle cx="65.9666" cy="74.1877" r="30.9328" fill="#E9E9E9"/>
<path fill-rule="evenodd" clip-rule="evenodd" d="M65.9666 88.2484C72.9553 88.2484 78.6209 82.5827 78.6209 75.594C78.6209 68.6053 72.9553 62.9397 65.9666 62.9397C58.9779 62.9397 53.3123 68.6053 53.3123 75.594C53.3123 82.5827 58.9779 88.2484 65.9666 88.2484ZM65.9666 89.6544C73.7321 89.6544 80.027 83.3596 80.027 75.594C80.027 67.8285 73.7321 61.5337 65.9666 61.5337C58.2011 61.5337 51.9062 67.8285 51.9062 75.594C51.9062 83.3596 58.2011 89.6544 65.9666 89.6544Z" fill="#102E34"/>
<circle opacity="0.2" cx="65.9666" cy="75.5938" r="12.6543" fill="#102E34"/>
<path d="M57.5304 83.7702C57.5304 83.044 58.0731 82.4302 58.7958 82.3501C64.2196 81.7497 67.7382 81.8038 73.15 82.3634C73.4203 82.3918 73.6764 82.4983 73.8872 82.6698C74.0979 82.8414 74.2541 83.0706 74.3367 83.3295C74.4193 83.5883 74.4248 83.8657 74.3524 84.1276C74.28 84.3895 74.1328 84.6246 73.929 84.8043C67.5421 90.3715 63.892 90.2949 57.9803 84.8099C57.6921 84.5428 57.5304 84.1632 57.5304 83.7709V83.7702Z" fill="#102E34"/>
<path fill-rule="evenodd" clip-rule="evenodd" d="M73.0777 83.0625C67.7087 82.5071 64.2407 82.4551 58.8725 83.0491C58.5111 83.0892 58.2334 83.3978 58.2334 83.7711C58.2334 83.9722 58.3171 84.1627 58.4584 84.2949C61.3886 87.0127 63.6087 88.2409 65.7789 88.2486C67.9569 88.2564 70.2965 87.038 73.4671 84.2752C73.5678 84.1855 73.6404 84.0685 73.6758 83.9384C73.7113 83.8083 73.7083 83.6707 73.667 83.5424C73.6258 83.414 73.5481 83.3003 73.4435 83.2153C73.3388 83.1302 73.2117 83.0774 73.0777 83.0632V83.0625ZM58.7185 81.6515C64.1992 81.0448 67.7692 81.0996 73.2232 81.6642C73.6297 81.7066 74.0151 81.8667 74.3321 82.1247C74.6491 82.3828 74.8839 82.7277 75.0079 83.1172C75.1319 83.5067 75.1397 83.9239 75.0302 84.3178C74.9207 84.7116 74.6988 85.065 74.3916 85.3346C71.1753 88.1383 68.4968 89.6652 65.7747 89.6547C63.0449 89.6448 60.4845 88.0919 57.503 85.3255C57.2895 85.1266 57.1194 84.8859 57.0031 84.6184C56.8869 84.3508 56.827 84.0621 56.8274 83.7704C56.8264 83.2463 57.0188 82.7402 57.3677 82.349C57.7167 81.9579 58.1976 81.7093 58.7185 81.6508V81.6515Z" fill="#102E34"/>
<path d="M71.5907 72.7819C71.5907 74.2735 70.9981 75.704 69.9434 76.7587C68.8887 77.8135 67.4582 78.406 65.9665 78.406C64.4749 78.406 63.0444 77.8135 61.9897 76.7587C60.9349 75.704 60.3424 74.2735 60.3424 72.7819C60.3424 71.2902 60.9349 69.8597 61.9897 68.805C63.0444 67.7503 64.4749 67.1577 65.9665 67.1577C67.4582 67.1577 68.8887 67.7503 69.9434 68.805C70.9981 69.8597 71.5907 71.2902 71.5907 72.7819Z" fill="#102E34"/>
</g>
<defs>
<filter id="filter0_d_546_37973" x="-70.3993" y="-36.0201" width="603.15" height="292.416" filterUnits="userSpaceOnUse" color-interpolation-filters="sRGB">
<feFlood flood-opacity="0" result="BackgroundImageFix"/>
<feColorMatrix in="SourceAlpha" type="matrix" values="0 0 0 0 0 0 0 0 0 0 0 0 0 0 0 0 0 0 127 0" result="hardAlpha"/>
<feMorphology radius="7.68807" operator="dilate" in="SourceAlpha" result="effect1_dropShadow_546_37973"/>
<feOffset dy="36"/>
<feGaussianBlur stdDeviation="32"/>
<feComposite in2="hardAlpha" operator="out"/>
<feColorMatrix type="matrix" values="0 0 0 0 0.0590972 0 0 0 0 0.143837 0 0 0 0 0.308333 0 0 0 0.2 0"/>
<feBlend mode="normal" in2="BackgroundImageFix" result="effect1_dropShadow_546_37973"/>
<feBlend mode="normal" in="SourceGraphic" in2="effect1_dropShadow_546_37973" result="shape"/>
</filter>
</defs>
</svg>
