<svg width="404" height="129" viewBox="0 0 404 129" fill="none" xmlns="http://www.w3.org/2000/svg">
<rect x="0.372375" y="0.519043" width="403.272" height="128.258" rx="9.86598" fill="#F4FAF9"/>
<rect x="0.988999" y="1.13567" width="402.039" height="127.024" rx="9.24935" stroke="#002026" stroke-opacity="0.2" stroke-width="1.23325" stroke-dasharray="9.87 9.87"/>
<path d="M118.893 44.1821V30.3698H127.693V32.5205H121.281V36.1512H127.141V38.302H121.281V42.0313H127.792V44.1821H118.893ZM129.936 44.1821V30.3698H132.205V44.1821H129.936ZM139.541 44.4584C138.567 44.4584 137.706 44.2545 136.956 43.8467C136.219 43.4257 135.64 42.8404 135.219 42.0905C134.811 41.3276 134.608 40.4396 134.608 39.4267V39.1899C134.608 38.1639 134.811 37.2759 135.219 36.5261C135.627 35.7763 136.199 35.1975 136.936 34.7897C137.673 34.3688 138.521 34.1583 139.481 34.1583C140.429 34.1583 141.257 34.3688 141.968 34.7897C142.678 35.1975 143.23 35.7763 143.625 36.5261C144.02 37.2759 144.217 38.1507 144.217 39.1505V39.9595H136.896C136.923 40.7225 137.192 41.3342 137.706 41.7946C138.219 42.255 138.85 42.4852 139.6 42.4852C140.336 42.4852 140.882 42.3273 141.238 42.0116C141.593 41.6827 141.862 41.3144 142.047 40.9066L143.921 41.8735C143.737 42.2287 143.467 42.6101 143.112 43.0179C142.77 43.4126 142.31 43.7546 141.731 44.044C141.152 44.3203 140.422 44.4584 139.541 44.4584ZM136.916 38.2428H141.908C141.856 37.5982 141.606 37.0852 141.159 36.7037C140.724 36.3222 140.159 36.1315 139.462 36.1315C138.738 36.1315 138.159 36.3222 137.725 36.7037C137.291 37.0852 137.021 37.5982 136.916 38.2428ZM151.105 44.4584C150.157 44.4584 149.302 44.2611 148.539 43.8664C147.776 43.4718 147.171 42.8996 146.724 42.1497C146.29 41.3999 146.073 40.4988 146.073 39.4465V39.1702C146.073 38.1178 146.29 37.2167 146.724 36.4669C147.171 35.7171 147.776 35.1449 148.539 34.7503C149.302 34.3556 150.157 34.1583 151.105 34.1583C152.039 34.1583 152.834 34.3227 153.492 34.6516C154.163 34.9805 154.702 35.4343 155.11 36.0131C155.518 36.5787 155.781 37.2167 155.899 37.9271L153.709 38.3809C153.657 37.9731 153.532 37.6048 153.334 37.2759C153.137 36.9339 152.854 36.6643 152.486 36.4669C152.131 36.2696 151.69 36.171 151.164 36.171C150.624 36.171 150.138 36.2893 149.704 36.5261C149.283 36.7498 148.947 37.0918 148.697 37.5522C148.46 38.0126 148.342 38.5651 148.342 39.2097V39.407C148.342 40.0516 148.46 40.6041 148.697 41.0645C148.947 41.5117 149.283 41.8538 149.704 42.0905C150.138 42.3273 150.624 42.4457 151.164 42.4457C151.966 42.4457 152.571 42.2418 152.979 41.834C153.4 41.4131 153.663 40.8737 153.768 40.216L155.959 40.729C155.801 41.4131 155.518 42.0379 155.11 42.6036C154.702 43.1692 154.163 43.6231 153.492 43.9651C152.834 44.2939 152.039 44.4584 151.105 44.4584ZM161.548 44.1821C160.917 44.1821 160.41 43.998 160.029 43.6296C159.66 43.2481 159.476 42.7351 159.476 42.0905V36.3091H156.931V34.4345H159.476V31.2972H161.745V34.4345H164.547V36.3091H161.745V41.7156C161.745 42.1103 161.93 42.3076 162.298 42.3076H164.251V44.1821H161.548ZM166.857 44.1821V34.4345H169.086V35.5593H169.422C169.566 35.1515 169.81 34.8555 170.152 34.6713C170.494 34.4872 170.902 34.3951 171.375 34.3951H172.559V36.4077H171.336C170.678 36.4077 170.145 36.5853 169.737 36.9405C169.33 37.2825 169.126 37.8153 169.126 38.5388V44.1821H166.857ZM174.564 44.1821V34.4345H176.834V44.1821H174.564ZM175.689 33.1914C175.281 33.1914 174.926 33.0599 174.624 32.7968C174.334 32.5205 174.189 32.1588 174.189 31.7115C174.189 31.2643 174.334 30.9091 174.624 30.646C174.926 30.3698 175.281 30.2316 175.689 30.2316C176.123 30.2316 176.478 30.3698 176.755 30.646C177.044 30.9091 177.189 31.2643 177.189 31.7115C177.189 32.1588 177.044 32.5205 176.755 32.7968C176.478 33.0599 176.123 33.1914 175.689 33.1914ZM184.267 44.4584C183.32 44.4584 182.465 44.2611 181.702 43.8664C180.939 43.4718 180.334 42.8996 179.887 42.1497C179.453 41.3999 179.236 40.4988 179.236 39.4465V39.1702C179.236 38.1178 179.453 37.2167 179.887 36.4669C180.334 35.7171 180.939 35.1449 181.702 34.7503C182.465 34.3556 183.32 34.1583 184.267 34.1583C185.201 34.1583 185.997 34.3227 186.655 34.6516C187.326 34.9805 187.865 35.4343 188.273 36.0131C188.681 36.5787 188.944 37.2167 189.062 37.9271L186.872 38.3809C186.819 37.9731 186.694 37.6048 186.497 37.2759C186.3 36.9339 186.017 36.6643 185.649 36.4669C185.293 36.2696 184.853 36.171 184.327 36.171C183.787 36.171 183.3 36.2893 182.866 36.5261C182.445 36.7498 182.11 37.0918 181.86 37.5522C181.623 38.0126 181.505 38.5651 181.505 39.2097V39.407C181.505 40.0516 181.623 40.6041 181.86 41.0645C182.11 41.5117 182.445 41.8538 182.866 42.0905C183.3 42.3273 183.787 42.4457 184.327 42.4457C185.129 42.4457 185.734 42.2418 186.142 41.834C186.563 41.4131 186.826 40.8737 186.931 40.216L189.121 40.729C188.964 41.4131 188.681 42.0379 188.273 42.6036C187.865 43.1692 187.326 43.6231 186.655 43.9651C185.997 44.2939 185.201 44.4584 184.267 44.4584ZM191.329 44.1821V34.4345H193.598V44.1821H191.329ZM192.454 33.1914C192.046 33.1914 191.691 33.0599 191.388 32.7968C191.099 32.5205 190.954 32.1588 190.954 31.7115C190.954 31.2643 191.099 30.9091 191.388 30.646C191.691 30.3698 192.046 30.2316 192.454 30.2316C192.888 30.2316 193.243 30.3698 193.519 30.646C193.808 30.9091 193.953 31.2643 193.953 31.7115C193.953 32.1588 193.808 32.5205 193.519 32.7968C193.243 33.0599 192.888 33.1914 192.454 33.1914ZM200.183 44.1821C199.552 44.1821 199.045 43.998 198.664 43.6296C198.296 43.2481 198.111 42.7351 198.111 42.0905V36.3091H195.566V34.4345H198.111V31.2972H200.381V34.4345H203.183V36.3091H200.381V41.7156C200.381 42.1103 200.565 42.3076 200.933 42.3076H202.887V44.1821H200.183ZM206.577 48.1285V46.1553H211.964C212.332 46.1553 212.516 45.958 212.516 45.5634V42.8404H212.181C212.076 43.0771 211.905 43.3139 211.668 43.5507C211.431 43.7743 211.115 43.9651 210.721 44.1229C210.326 44.2676 209.826 44.34 209.221 44.34C208.471 44.34 207.807 44.1756 207.228 43.8467C206.649 43.5047 206.202 43.0311 205.886 42.426C205.571 41.8077 205.413 41.0908 205.413 40.2752V34.4345H207.662V40.0976C207.662 40.8869 207.853 41.4723 208.235 41.8538C208.629 42.2352 209.182 42.426 209.892 42.426C210.695 42.426 211.326 42.1629 211.786 41.6367C212.26 41.1105 212.497 40.3541 212.497 39.3675V34.4345H214.746V46.0369C214.746 46.6815 214.562 47.188 214.194 47.5563C213.825 47.9378 213.325 48.1285 212.694 48.1285H206.577Z" fill="#002026"/>
<path d="M118.722 76.7124V64.6266H123.609C124.368 64.6266 125.036 64.7762 125.611 65.0755C126.187 65.3748 126.642 65.8006 126.975 66.3531C127.309 66.8941 127.476 67.5387 127.476 68.2869V68.5286C127.476 69.2652 127.303 69.9098 126.958 70.4623C126.624 71.0148 126.164 71.4407 125.577 71.74C125.001 72.0392 124.345 72.1889 123.609 72.1889H120.812V76.7124H118.722ZM120.812 70.3069H123.401C124 70.3069 124.478 70.1458 124.834 69.8235C125.203 69.5012 125.387 69.058 125.387 68.494V68.3214C125.387 67.7574 125.209 67.3142 124.852 66.9919C124.495 66.6697 124.011 66.5085 123.401 66.5085H120.812V70.3069ZM131.668 76.9541C131.069 76.9541 130.528 76.8505 130.045 76.6433C129.561 76.4246 129.176 76.1139 128.888 75.711C128.612 75.3081 128.474 74.8132 128.474 74.2262C128.474 73.6507 128.612 73.1672 128.888 72.7759C129.176 72.3845 129.567 72.091 130.062 71.8953C130.557 71.6882 131.121 71.5846 131.754 71.5846H134.223V71.0666C134.223 70.6177 134.085 70.2551 133.809 69.9789C133.532 69.6911 133.101 69.5472 132.514 69.5472C131.938 69.5472 131.501 69.6854 131.201 69.9616C130.914 70.2263 130.724 70.5717 130.632 70.9975L128.802 70.3932C128.94 69.9443 129.158 69.5357 129.458 69.1674C129.768 68.7991 130.177 68.5056 130.684 68.2869C131.19 68.0567 131.812 67.9415 132.548 67.9415C133.665 67.9415 134.539 68.2236 135.173 68.7876C135.817 69.3401 136.139 70.1458 136.139 71.2047V74.5542C136.139 74.8995 136.301 75.0722 136.623 75.0722H137.348V76.7124H135.949C135.535 76.7124 135.196 76.6088 134.931 76.4016C134.666 76.1944 134.534 75.9124 134.534 75.5556V75.5211H134.24C134.171 75.6822 134.05 75.8779 133.878 76.1081C133.705 76.3383 133.44 76.5397 133.083 76.7124C132.738 76.8735 132.266 76.9541 131.668 76.9541ZM131.996 75.3312C132.652 75.3312 133.187 75.147 133.601 74.7787C134.016 74.3988 134.223 73.8924 134.223 73.2593V73.0867H131.875C131.449 73.0867 131.104 73.1787 130.839 73.3629C130.574 73.5471 130.442 73.8176 130.442 74.1744C130.442 74.5197 130.58 74.8017 130.856 75.0204C131.132 75.2276 131.512 75.3312 131.996 75.3312ZM139.704 80.1655V78.4389H144.418C144.74 78.4389 144.901 78.2663 144.901 77.921V75.5384H144.608C144.516 75.7455 144.366 75.9527 144.159 76.1599C143.952 76.3556 143.675 76.5225 143.33 76.6606C142.985 76.7872 142.547 76.8505 142.018 76.8505C141.362 76.8505 140.781 76.7066 140.274 76.4189C139.768 76.1196 139.376 75.7053 139.1 75.1758C138.824 74.6348 138.686 74.0075 138.686 73.2938V68.1833H140.654V73.1385C140.654 73.8291 140.821 74.3413 141.155 74.6751C141.5 75.0089 141.983 75.1758 142.605 75.1758C143.307 75.1758 143.86 74.9456 144.262 74.4852C144.677 74.0247 144.884 73.3629 144.884 72.4996V68.1833H146.852V78.3354C146.852 78.8994 146.691 79.3425 146.369 79.6648C146.046 79.9986 145.609 80.1655 145.057 80.1655H139.704ZM154.727 80.1655V78.4389H159.441C159.763 78.4389 159.924 78.2663 159.924 77.921V75.5384H159.631C159.539 75.7455 159.389 75.9527 159.182 76.1599C158.975 76.3556 158.698 76.5225 158.353 76.6606C158.008 76.7872 157.57 76.8505 157.041 76.8505C156.385 76.8505 155.804 76.7066 155.297 76.4189C154.791 76.1196 154.399 75.7053 154.123 75.1758C153.847 74.6348 153.709 74.0075 153.709 73.2938V68.1833H155.677V73.1385C155.677 73.8291 155.844 74.3413 156.178 74.6751C156.523 75.0089 157.006 75.1758 157.628 75.1758C158.33 75.1758 158.883 74.9456 159.285 74.4852C159.7 74.0247 159.907 73.3629 159.907 72.4996V68.1833H161.875V78.3354C161.875 78.8994 161.714 79.3425 161.392 79.6648C161.069 79.9986 160.632 80.1655 160.08 80.1655H154.727ZM168.44 76.9541C167.588 76.9541 166.823 76.7815 166.144 76.4362C165.476 76.0793 164.947 75.5786 164.555 74.9341C164.176 74.278 163.986 73.4953 163.986 72.586V72.3097C163.986 71.4004 164.176 70.6177 164.555 69.9616C164.947 69.3055 165.476 68.8048 166.144 68.4595C166.823 68.1142 167.588 67.9415 168.44 67.9415C169.292 67.9415 170.052 68.1142 170.719 68.4595C171.387 68.8048 171.91 69.3055 172.29 69.9616C172.682 70.6177 172.877 71.4004 172.877 72.3097V72.586C172.877 73.4953 172.682 74.278 172.29 74.9341C171.91 75.5786 171.387 76.0793 170.719 76.4362C170.052 76.7815 169.292 76.9541 168.44 76.9541ZM168.44 75.193C169.165 75.193 169.758 74.9628 170.218 74.5024C170.679 74.0305 170.909 73.3744 170.909 72.5342V72.3615C170.909 71.5213 170.679 70.8709 170.218 70.4105C169.758 69.9386 169.165 69.7026 168.44 69.7026C167.715 69.7026 167.122 69.9386 166.662 70.4105C166.201 70.8709 165.971 71.5213 165.971 72.3615V72.5342C165.971 73.3744 166.201 74.0305 166.662 74.5024C167.122 74.9628 167.715 75.193 168.44 75.193ZM178.252 76.8505C177.596 76.8505 177.014 76.7066 176.508 76.4189C176.001 76.1196 175.61 75.7053 175.334 75.1758C175.058 74.6348 174.92 74.0075 174.92 73.2938V68.1833H176.888V73.1385C176.888 73.8291 177.055 74.3413 177.388 74.6751C177.734 75.0089 178.217 75.1758 178.839 75.1758C179.541 75.1758 180.093 74.9456 180.496 74.4852C180.911 74.0247 181.118 73.3629 181.118 72.4996V68.1833H183.086V76.7124H181.152V75.5211H180.859C180.709 75.8319 180.433 76.1311 180.03 76.4189C179.639 76.7066 179.046 76.8505 178.252 76.8505ZM185.611 76.7124V68.1833H187.562V69.1674H187.855C187.982 68.8106 188.195 68.5516 188.494 68.3905C188.793 68.2293 189.15 68.1487 189.565 68.1487H190.601V69.9098H189.53C188.955 69.9098 188.488 70.0652 188.132 70.376C187.775 70.6752 187.596 71.1414 187.596 71.7745V76.7124H185.611ZM200.658 76.9541C199.806 76.9541 199.052 76.7757 198.396 76.4189C197.752 76.0506 197.245 75.5384 196.877 74.8823C196.52 74.2147 196.341 73.4377 196.341 72.5514V72.3442C196.341 71.4464 196.52 70.6695 196.877 70.0134C197.234 69.3573 197.734 68.8509 198.379 68.494C199.023 68.1257 199.766 67.9415 200.606 67.9415C201.435 67.9415 202.16 68.1257 202.782 68.494C203.403 68.8509 203.887 69.3573 204.232 70.0134C204.577 70.6695 204.75 71.4349 204.75 72.3097V73.0176H198.344C198.367 73.6852 198.603 74.2204 199.052 74.6233C199.501 75.0261 200.054 75.2276 200.71 75.2276C201.354 75.2276 201.832 75.0894 202.143 74.8132C202.453 74.5254 202.689 74.2032 202.851 73.8463L204.491 74.6923C204.33 75.0031 204.094 75.3369 203.783 75.6937C203.484 76.039 203.081 76.3383 202.574 76.5915C202.068 76.8333 201.429 76.9541 200.658 76.9541ZM198.362 71.5155H202.73C202.684 70.9515 202.465 70.5026 202.074 70.1688C201.694 69.835 201.199 69.6681 200.589 69.6681C199.956 69.6681 199.449 69.835 199.069 70.1688C198.69 70.5026 198.454 70.9515 198.362 71.5155ZM206.788 76.7124V64.6266H208.774V76.7124H206.788ZM215.192 76.9541C214.34 76.9541 213.586 76.7757 212.93 76.4189C212.286 76.0506 211.779 75.5384 211.411 74.8823C211.054 74.2147 210.876 73.4377 210.876 72.5514V72.3442C210.876 71.4464 211.054 70.6695 211.411 70.0134C211.768 69.3573 212.268 68.8509 212.913 68.494C213.557 68.1257 214.3 67.9415 215.14 67.9415C215.969 67.9415 216.694 68.1257 217.316 68.494C217.937 68.8509 218.421 69.3573 218.766 70.0134C219.111 70.6695 219.284 71.4349 219.284 72.3097V73.0176H212.878C212.901 73.6852 213.137 74.2204 213.586 74.6233C214.035 75.0261 214.588 75.2276 215.244 75.2276C215.888 75.2276 216.366 75.0894 216.677 74.8132C216.987 74.5254 217.223 74.2032 217.385 73.8463L219.025 74.6923C218.864 75.0031 218.628 75.3369 218.317 75.6937C218.018 76.039 217.615 76.3383 217.108 76.5915C216.602 76.8333 215.963 76.9541 215.192 76.9541ZM212.896 71.5155H217.264C217.218 70.9515 216.999 70.5026 216.608 70.1688C216.228 69.835 215.733 69.6681 215.123 69.6681C214.49 69.6681 213.983 69.835 213.603 70.1688C213.224 70.5026 212.988 70.9515 212.896 71.5155ZM225.31 76.9541C224.482 76.9541 223.733 76.7815 223.066 76.4362C222.398 76.0908 221.869 75.5901 221.477 74.9341C221.098 74.278 220.908 73.4895 220.908 72.5687V72.327C220.908 71.4062 221.098 70.6177 221.477 69.9616C221.869 69.3055 222.398 68.8048 223.066 68.4595C223.733 68.1142 224.482 67.9415 225.31 67.9415C226.128 67.9415 226.824 68.0854 227.399 68.3732C227.987 68.6609 228.458 69.058 228.815 69.5645C229.172 70.0594 229.402 70.6177 229.506 71.2393L227.589 71.6364C227.543 71.2795 227.434 70.9572 227.261 70.6695C227.089 70.3702 226.841 70.1343 226.519 69.9616C226.208 69.789 225.823 69.7026 225.362 69.7026C224.89 69.7026 224.464 69.8062 224.085 70.0134C223.716 70.2091 223.423 70.5083 223.204 70.9112C222.997 71.3141 222.893 71.7975 222.893 72.3615V72.5342C222.893 73.0982 222.997 73.5816 223.204 73.9845C223.423 74.3758 223.716 74.6751 224.085 74.8823C224.464 75.0894 224.89 75.193 225.362 75.193C226.064 75.193 226.594 75.0146 226.951 74.6578C227.319 74.2895 227.549 73.8176 227.641 73.242L229.558 73.6909C229.42 74.2895 229.172 74.8362 228.815 75.3312C228.458 75.8261 227.987 76.2232 227.399 76.5225C226.824 76.8102 226.128 76.9541 225.31 76.9541ZM234.448 76.7124C233.896 76.7124 233.453 76.5513 233.119 76.229C232.797 75.8952 232.636 75.4463 232.636 74.8823V69.8235H230.408V68.1833H232.636V65.4381H234.621V68.1833H237.073V69.8235H234.621V74.5542C234.621 74.8995 234.782 75.0722 235.104 75.0722H236.814V76.7124H234.448ZM239.093 76.7124V68.1833H241.044V69.1674H241.338C241.464 68.8106 241.677 68.5516 241.977 68.3905C242.276 68.2293 242.633 68.1487 243.047 68.1487H244.083V69.9098H243.013C242.437 69.9098 241.971 70.0652 241.614 70.376C241.257 70.6752 241.079 71.1414 241.079 71.7745V76.7124H239.093ZM245.838 76.7124V68.1833H247.823V76.7124H245.838ZM246.822 67.0955C246.465 67.0955 246.154 66.9804 245.889 66.7502C245.636 66.5085 245.51 66.192 245.51 65.8006C245.51 65.4093 245.636 65.0985 245.889 64.8683C246.154 64.6266 246.465 64.5057 246.822 64.5057C247.202 64.5057 247.512 64.6266 247.754 64.8683C248.007 65.0985 248.134 65.4093 248.134 65.8006C248.134 66.192 248.007 66.5085 247.754 66.7502C247.512 66.9804 247.202 67.0955 246.822 67.0955ZM254.328 76.9541C253.499 76.9541 252.751 76.7815 252.083 76.4362C251.416 76.0908 250.886 75.5901 250.495 74.9341C250.115 74.278 249.925 73.4895 249.925 72.5687V72.327C249.925 71.4062 250.115 70.6177 250.495 69.9616C250.886 69.3055 251.416 68.8048 252.083 68.4595C252.751 68.1142 253.499 67.9415 254.328 67.9415C255.145 67.9415 255.841 68.0854 256.417 68.3732C257.004 68.6609 257.476 69.058 257.833 69.5645C258.19 70.0594 258.42 70.6177 258.523 71.2393L256.607 71.6364C256.561 71.2795 256.451 70.9572 256.279 70.6695C256.106 70.3702 255.859 70.1343 255.536 69.9616C255.226 69.789 254.84 69.7026 254.38 69.7026C253.908 69.7026 253.482 69.8062 253.102 70.0134C252.734 70.2091 252.44 70.5083 252.221 70.9112C252.014 71.3141 251.911 71.7975 251.911 72.3615V72.5342C251.911 73.0982 252.014 73.5816 252.221 73.9845C252.44 74.3758 252.734 74.6751 253.102 74.8823C253.482 75.0894 253.908 75.193 254.38 75.193C255.082 75.193 255.611 75.0146 255.968 74.6578C256.336 74.2895 256.567 73.8176 256.659 73.242L258.575 73.6909C258.437 74.2895 258.19 74.8362 257.833 75.3312C257.476 75.8261 257.004 76.2232 256.417 76.5225C255.841 76.8102 255.145 76.9541 254.328 76.9541ZM260.507 76.7124V68.1833H262.492V76.7124H260.507ZM261.491 67.0955C261.134 67.0955 260.823 66.9804 260.558 66.7502C260.305 66.5085 260.179 66.192 260.179 65.8006C260.179 65.4093 260.305 65.0985 260.558 64.8683C260.823 64.6266 261.134 64.5057 261.491 64.5057C261.871 64.5057 262.181 64.6266 262.423 64.8683C262.676 65.0985 262.803 65.4093 262.803 65.8006C262.803 66.192 262.676 66.5085 262.423 66.7502C262.181 66.9804 261.871 67.0955 261.491 67.0955ZM268.254 76.7124C267.702 76.7124 267.259 76.5513 266.925 76.229C266.603 75.8952 266.441 75.4463 266.441 74.8823V69.8235H264.214V68.1833H266.441V65.4381H268.427V68.1833H270.879V69.8235H268.427V74.5542C268.427 74.8995 268.588 75.0722 268.91 75.0722H270.62V76.7124H268.254ZM273.849 80.1655V78.4389H278.562C278.885 78.4389 279.046 78.2663 279.046 77.921V75.5384H278.752C278.66 75.7455 278.511 75.9527 278.303 76.1599C278.096 76.3556 277.82 76.5225 277.475 76.6606C277.129 76.7872 276.692 76.8505 276.162 76.8505C275.506 76.8505 274.925 76.7066 274.419 76.4189C273.912 76.1196 273.521 75.7053 273.245 75.1758C272.968 74.6348 272.83 74.0075 272.83 73.2938V68.1833H274.798V73.1385C274.798 73.8291 274.965 74.3413 275.299 74.6751C275.644 75.0089 276.128 75.1758 276.749 75.1758C277.452 75.1758 278.004 74.9456 278.407 74.4852C278.821 74.0247 279.028 73.3629 279.028 72.4996V68.1833H280.997V78.3354C280.997 78.8994 280.836 79.3425 280.513 79.6648C280.191 79.9986 279.754 80.1655 279.201 80.1655H273.849ZM290.564 76.9541C289.965 76.9541 289.424 76.8505 288.941 76.6433C288.457 76.4246 288.072 76.1139 287.784 75.711C287.508 75.3081 287.37 74.8132 287.37 74.2262C287.37 73.6507 287.508 73.1672 287.784 72.7759C288.072 72.3845 288.463 72.091 288.958 71.8953C289.453 71.6882 290.017 71.5846 290.65 71.5846H293.119V71.0666C293.119 70.6177 292.981 70.2551 292.705 69.9789C292.428 69.6911 291.997 69.5472 291.41 69.5472C290.834 69.5472 290.397 69.6854 290.098 69.9616C289.81 70.2263 289.62 70.5717 289.528 70.9975L287.698 70.3932C287.836 69.9443 288.055 69.5357 288.354 69.1674C288.665 68.7991 289.073 68.5056 289.58 68.2869C290.086 68.0567 290.708 67.9415 291.444 67.9415C292.561 67.9415 293.436 68.2236 294.069 68.7876C294.713 69.3401 295.036 70.1458 295.036 71.2047V74.5542C295.036 74.8995 295.197 75.0722 295.519 75.0722H296.244V76.7124H294.846C294.431 76.7124 294.092 76.6088 293.827 76.4016C293.562 76.1944 293.43 75.9124 293.43 75.5556V75.5211H293.136C293.067 75.6822 292.946 75.8779 292.774 76.1081C292.601 76.3383 292.336 76.5397 291.98 76.7124C291.634 76.8735 291.162 76.9541 290.564 76.9541ZM290.892 75.3312C291.548 75.3312 292.083 75.147 292.498 74.7787C292.912 74.3988 293.119 73.8924 293.119 73.2593V73.0867H290.771C290.345 73.0867 290 73.1787 289.735 73.3629C289.47 73.5471 289.338 73.8176 289.338 74.1744C289.338 74.5197 289.476 74.8017 289.752 75.0204C290.029 75.2276 290.408 75.3312 290.892 75.3312ZM297.887 76.7124V68.1833H299.838V69.3746H300.131C300.281 69.0523 300.552 68.7473 300.943 68.4595C301.334 68.1718 301.927 68.0279 302.721 68.0279C303.377 68.0279 303.959 68.1775 304.465 68.4768C304.972 68.776 305.363 69.1904 305.639 69.7199C305.927 70.2494 306.071 70.8767 306.071 71.6018V76.7124H304.085V71.7572C304.085 71.0666 303.913 70.5544 303.567 70.2206C303.233 69.8753 302.756 69.7026 302.134 69.7026C301.432 69.7026 300.88 69.9386 300.477 70.4105C300.074 70.8709 299.872 71.5328 299.872 72.396V76.7124H297.887ZM311.997 76.9541C311.306 76.9541 310.662 76.7872 310.063 76.4534C309.465 76.1081 308.987 75.6074 308.63 74.9513C308.273 74.2952 308.095 73.5068 308.095 72.586V72.3097C308.095 71.3889 308.273 70.6004 308.63 69.9443C308.987 69.2883 309.459 68.7933 310.046 68.4595C310.644 68.1142 311.295 67.9415 311.997 67.9415C312.526 67.9415 312.975 68.0049 313.344 68.1315C313.712 68.2581 314.005 68.4192 314.224 68.6149C314.454 68.8106 314.633 69.0235 314.759 69.2537H315.053V64.6266H317.021V76.7124H315.087V75.5901H314.794C314.587 75.9355 314.27 76.252 313.844 76.5397C313.418 76.816 312.803 76.9541 311.997 76.9541ZM312.584 75.2276C313.298 75.2276 313.89 74.9974 314.362 74.537C314.834 74.065 315.07 73.3974 315.07 72.5342V72.3615C315.07 71.4867 314.834 70.8191 314.362 70.3587C313.902 69.8983 313.309 69.6681 312.584 69.6681C311.87 69.6681 311.272 69.8983 310.788 70.3587C310.316 70.8191 310.08 71.4867 310.08 72.3615V72.5342C310.08 73.3974 310.316 74.065 310.788 74.537C311.272 74.9974 311.87 75.2276 312.584 75.2276ZM323.937 80.1655V68.1833H325.888V69.3055H326.181C326.377 68.9487 326.688 68.6322 327.114 68.3559C327.551 68.0797 328.173 67.9415 328.978 67.9415C329.669 67.9415 330.308 68.1142 330.895 68.4595C331.493 68.7933 331.971 69.2883 332.328 69.9443C332.685 70.6004 332.863 71.3889 332.863 72.3097V72.586C332.863 73.5068 332.685 74.2952 332.328 74.9513C331.971 75.6074 331.499 76.1081 330.912 76.4534C330.325 76.7872 329.681 76.9541 328.978 76.9541C328.437 76.9541 327.983 76.8908 327.614 76.7642C327.258 76.6376 326.964 76.4707 326.734 76.2635C326.515 76.0563 326.343 75.8491 326.216 75.6419H325.922V80.1655H323.937ZM328.391 75.2276C329.116 75.2276 329.709 74.9974 330.17 74.537C330.642 74.065 330.878 73.3974 330.878 72.5342V72.3615C330.878 71.4867 330.642 70.8191 330.17 70.3587C329.698 69.8983 329.105 69.6681 328.391 69.6681C327.678 69.6681 327.079 69.8983 326.596 70.3587C326.124 70.8191 325.888 71.4867 325.888 72.3615V72.5342C325.888 73.3974 326.124 74.065 326.596 74.537C327.079 74.9974 327.678 75.2276 328.391 75.2276ZM339.004 76.9541C338.152 76.9541 337.387 76.7815 336.708 76.4362C336.04 76.0793 335.511 75.5786 335.119 74.9341C334.739 74.278 334.549 73.4953 334.549 72.586V72.3097C334.549 71.4004 334.739 70.6177 335.119 69.9616C335.511 69.3055 336.04 68.8048 336.708 68.4595C337.387 68.1142 338.152 67.9415 339.004 67.9415C339.856 67.9415 340.615 68.1142 341.283 68.4595C341.951 68.8048 342.474 69.3055 342.854 69.9616C343.245 70.6177 343.441 71.4004 343.441 72.3097V72.586C343.441 73.4953 343.245 74.278 342.854 74.9341C342.474 75.5786 341.951 76.0793 341.283 76.4362C340.615 76.7815 339.856 76.9541 339.004 76.9541ZM339.004 75.193C339.729 75.193 340.322 74.9628 340.782 74.5024C341.243 74.0305 341.473 73.3744 341.473 72.5342V72.3615C341.473 71.5213 341.243 70.8709 340.782 70.4105C340.322 69.9386 339.729 69.7026 339.004 69.7026C338.279 69.7026 337.686 69.9386 337.226 70.4105C336.765 70.8709 336.535 71.5213 336.535 72.3615V72.5342C336.535 73.3744 336.765 74.0305 337.226 74.5024C337.686 74.9628 338.279 75.193 339.004 75.193ZM346.296 76.7124L344.967 68.1833H346.935L347.85 75.383H348.144L349.439 68.1833H352.616L353.911 75.383H354.204L355.119 68.1833H357.087L355.758 76.7124H352.46L351.183 69.5127H350.889L349.594 76.7124H346.296ZM362.926 76.9541C362.074 76.9541 361.32 76.7757 360.664 76.4189C360.02 76.0506 359.513 75.5384 359.145 74.8823C358.788 74.2147 358.61 73.4377 358.61 72.5514V72.3442C358.61 71.4464 358.788 70.6695 359.145 70.0134C359.502 69.3573 360.003 68.8509 360.647 68.494C361.292 68.1257 362.034 67.9415 362.874 67.9415C363.703 67.9415 364.428 68.1257 365.05 68.494C365.671 68.8509 366.155 69.3573 366.5 70.0134C366.845 70.6695 367.018 71.4349 367.018 72.3097V73.0176H360.613C360.636 73.6852 360.872 74.2204 361.32 74.6233C361.769 75.0261 362.322 75.2276 362.978 75.2276C363.623 75.2276 364.1 75.0894 364.411 74.8132C364.722 74.5254 364.958 74.2032 365.119 73.8463L366.759 74.6923C366.598 75.0031 366.362 75.3369 366.051 75.6937C365.752 76.039 365.349 76.3383 364.843 76.5915C364.336 76.8333 363.697 76.9541 362.926 76.9541ZM360.63 71.5155H364.998C364.952 70.9515 364.733 70.5026 364.342 70.1688C363.962 69.835 363.467 69.6681 362.857 69.6681C362.224 69.6681 361.718 69.835 361.338 70.1688C360.958 70.5026 360.722 70.9515 360.63 71.5155ZM369.056 76.7124V68.1833H371.007V69.1674H371.301C371.427 68.8106 371.64 68.5516 371.94 68.3905C372.239 68.2293 372.596 68.1487 373.01 68.1487H374.046V69.9098H372.976C372.4 69.9098 371.934 70.0652 371.577 70.376C371.22 70.6752 371.042 71.1414 371.042 71.7745V76.7124H369.056ZM123.833 98.9541C123.027 98.9541 122.406 98.816 121.968 98.5397C121.542 98.252 121.232 97.9355 121.036 97.5901H120.743V98.7124H118.792V86.6266H120.777V91.2537H121.071C121.197 91.0235 121.37 90.8106 121.589 90.6149C121.819 90.4192 122.112 90.2581 122.469 90.1315C122.837 90.0049 123.292 89.9415 123.833 89.9415C124.535 89.9415 125.18 90.1142 125.767 90.4595C126.354 90.7933 126.826 91.2883 127.183 91.9443C127.539 92.6004 127.718 93.3889 127.718 94.3097V94.586C127.718 95.5068 127.539 96.2952 127.183 96.9513C126.826 97.6074 126.348 98.1081 125.75 98.4534C125.162 98.7872 124.524 98.9541 123.833 98.9541ZM123.246 97.2276C123.96 97.2276 124.552 96.9974 125.024 96.537C125.496 96.065 125.732 95.3974 125.732 94.5342V94.3615C125.732 93.4867 125.496 92.8191 125.024 92.3587C124.564 91.8983 123.971 91.6681 123.246 91.6681C122.532 91.6681 121.934 91.8983 121.45 92.3587C120.978 92.8191 120.743 93.4867 120.743 94.3615V94.5342C120.743 95.3974 120.978 96.065 121.45 96.537C121.934 96.9974 122.532 97.2276 123.246 97.2276ZM129.818 98.7124V90.1833H131.804V98.7124H129.818ZM130.803 89.0955C130.446 89.0955 130.135 88.9804 129.87 88.7502C129.617 88.5085 129.49 88.192 129.49 87.8006C129.49 87.4093 129.617 87.0985 129.87 86.8683C130.135 86.6266 130.446 86.5057 130.803 86.5057C131.182 86.5057 131.493 86.6266 131.735 86.8683C131.988 87.0985 132.115 87.4093 132.115 87.8006C132.115 88.192 131.988 88.5085 131.735 88.7502C131.493 88.9804 131.182 89.0955 130.803 89.0955ZM134.32 98.7124V86.6266H136.306V98.7124H134.32ZM138.822 98.7124V86.6266H140.808V98.7124H138.822ZM146.846 98.9541C145.741 98.9541 144.832 98.7124 144.118 98.229C143.405 97.7455 142.973 97.0377 142.823 96.1053L144.653 95.6392C144.734 96.0765 144.878 96.4219 145.085 96.6751C145.292 96.9283 145.545 97.1067 145.845 97.2103C146.156 97.3139 146.489 97.3657 146.846 97.3657C147.387 97.3657 147.79 97.2679 148.055 97.0722C148.331 96.8765 148.469 96.629 148.469 96.3298C148.469 96.019 148.337 95.7888 148.072 95.6392C147.819 95.4895 147.427 95.3629 146.898 95.2593L146.363 95.173C145.776 95.0579 145.24 94.9025 144.757 94.7068C144.274 94.4996 143.882 94.2234 143.583 93.8781C143.295 93.5213 143.151 93.0724 143.151 92.5314C143.151 91.7026 143.456 91.0638 144.066 90.6149C144.688 90.166 145.499 89.9415 146.501 89.9415C147.456 89.9415 148.245 90.1545 148.866 90.5804C149.488 91.0063 149.891 91.576 150.075 92.2897L148.245 92.8421C148.153 92.3587 147.951 92.0192 147.64 91.8235C147.33 91.6163 146.95 91.5127 146.501 91.5127C146.04 91.5127 145.684 91.5933 145.43 91.7544C145.189 91.9156 145.068 92.1458 145.068 92.445C145.068 92.7443 145.194 92.9688 145.448 93.1184C145.701 93.268 146.04 93.3774 146.466 93.4464L147.002 93.55C147.635 93.6651 148.204 93.8148 148.711 93.9989C149.229 94.1831 149.637 94.4478 149.937 94.7931C150.236 95.1385 150.386 95.6046 150.386 96.1916C150.386 97.0779 150.063 97.7628 149.419 98.2462C148.786 98.7182 147.928 98.9541 146.846 98.9541ZM153.621 98.9541C153.184 98.9541 152.815 98.8102 152.516 98.5225C152.228 98.2347 152.084 97.8664 152.084 97.4175C152.084 96.9801 152.228 96.6175 152.516 96.3298C152.815 96.042 153.184 95.8981 153.621 95.8981C154.058 95.8981 154.421 96.042 154.709 96.3298C154.996 96.6175 155.14 96.9859 155.14 97.4348C155.14 97.8837 154.996 98.252 154.709 98.5397C154.421 98.816 154.058 98.9541 153.621 98.9541Z" fill="#002026" fill-opacity="0.6"/>
<circle cx="60.802" cy="64.6466" r="27.1314" fill="#92CCBF"/>
<path d="M61.8982 53.5479L50.936 66.8669H60.8019L59.7057 75.7463L70.6679 62.4272H60.8019L61.8982 53.5479Z" fill="#92CCBF" stroke="#002026" stroke-width="2.46649" stroke-linecap="round" stroke-linejoin="round"/>
</svg>
