<svg width="176" height="49" viewBox="0 0 176 49" fill="none" xmlns="http://www.w3.org/2000/svg">
<rect y="0.800339" width="176" height="48" rx="7" fill="black"/>
<path d="M29.4441 13.1717C29.1628 13.4592 29 13.9067 29 14.4864V35.1612C29 35.7409 29.1628 36.1884 29.4441 36.4759L29.5135 36.539L41.3797 24.9582V24.6847L29.5135 13.1039L29.4441 13.1717Z" fill="url(#paint0_linear_4599_166408)"/>
<path d="M45.3309 28.8196L41.3799 24.9574V24.6839L45.3357 20.8217L45.4243 20.8719L50.109 23.4744C51.446 24.213 51.446 25.4283 50.109 26.1715L45.4243 28.7693L45.3309 28.8196Z" fill="url(#paint1_linear_4599_166408)"/>
<path d="M45.4241 28.77L41.3797 24.8213L29.4441 36.4758C29.8881 36.9315 30.6123 36.9864 31.4358 36.5307L45.4241 28.77Z" fill="url(#paint2_linear_4599_166408)"/>
<path d="M45.4241 20.8727L31.4358 13.112C30.6123 12.6609 29.8881 12.7158 29.4441 13.1716L41.3797 24.8214L45.4241 20.8727Z" fill="url(#paint3_linear_4599_166408)"/>
<path d="M72.303 15.9594C72.303 16.74 72.0637 17.3652 71.5921 17.8315C71.0499 18.3842 70.3437 18.6623 69.4783 18.6623C68.6513 18.6623 67.9451 18.3795 67.3658 17.8221C66.7853 17.2565 66.4956 16.5624 66.4956 15.7315C66.4956 14.9006 66.7853 14.2065 67.3658 13.6455C67.9451 13.0834 68.6513 12.8006 69.4783 12.8006C69.8901 12.8006 70.2826 12.8836 70.6573 13.0379C71.0307 13.1933 71.3347 13.4036 71.555 13.6631L71.0547 14.1562C70.6705 13.7133 70.1474 13.4948 69.4783 13.4948C68.8751 13.4948 68.352 13.7005 67.908 14.1153C67.4687 14.5313 67.2485 15.0701 67.2485 15.7315C67.2485 16.3929 67.4687 16.9363 67.908 17.3523C68.352 17.7625 68.8751 17.9729 69.4783 17.9729C70.1187 17.9729 70.6573 17.7625 71.0822 17.3477C71.3623 17.073 71.5215 16.6944 71.5634 16.2106H69.4783V15.5352H72.26C72.2935 15.6812 72.303 15.8226 72.303 15.9594Z" fill="#FAFFF5" stroke="#FAFFF5" stroke-width="0.138296" stroke-miterlimit="10"/>
<path d="M76.7161 13.6152H74.1032V15.3915H76.4588V16.0669H74.1032V17.8432H76.7161V18.5315H73.3635V12.9269H76.7161V13.6152Z" fill="#FAFFF5" stroke="#FAFFF5" stroke-width="0.138296" stroke-miterlimit="10"/>
<path d="M79.8302 18.5315H79.0905V13.6152H77.4878V12.9269H81.434V13.6152H79.8302V18.5315Z" fill="#FAFFF5" stroke="#FAFFF5" stroke-width="0.138296" stroke-miterlimit="10"/>
<path d="M84.29 18.5315V12.9269H85.0285V18.5315H84.29Z" fill="#FAFFF5" stroke="#FAFFF5" stroke-width="0.138296" stroke-miterlimit="10"/>
<path d="M88.3023 18.5315H87.5686V13.6152H85.96V12.9269H89.911V13.6152H88.3023V18.5315Z" fill="#FAFFF5" stroke="#FAFFF5" stroke-width="0.138296" stroke-miterlimit="10"/>
<path d="M97.3819 17.8128C96.8157 18.3795 96.1143 18.6623 95.2777 18.6623C94.4363 18.6623 93.7349 18.3795 93.1687 17.8128C92.6038 17.2472 92.3225 16.553 92.3225 15.7315C92.3225 14.91 92.6038 14.2158 93.1687 13.6502C93.7349 13.0834 94.4363 12.8006 95.2777 12.8006C96.1096 12.8006 96.811 13.0834 97.3771 13.6549C97.9468 14.2252 98.2281 14.9146 98.2281 15.7315C98.2281 16.553 97.9468 17.2472 97.3819 17.8128ZM93.7157 17.343C94.1418 17.7625 94.6601 17.9729 95.2777 17.9729C95.8905 17.9729 96.4136 17.7625 96.8349 17.343C97.2598 16.9235 97.4752 16.3847 97.4752 15.7315C97.4752 15.0782 97.2598 14.5395 96.8349 14.12C96.4136 13.7005 95.8905 13.4901 95.2777 13.4901C94.6601 13.4901 94.1418 13.7005 93.7157 14.12C93.2908 14.5395 93.0754 15.0782 93.0754 15.7315C93.0754 16.3847 93.2908 16.9235 93.7157 17.343Z" fill="#FAFFF5" stroke="#FAFFF5" stroke-width="0.138296" stroke-miterlimit="10"/>
<path d="M99.2659 18.5315V12.9269H100.164L102.955 17.2858H102.987L102.955 16.2083V12.9269H103.693V18.5315H102.922L99.9996 13.9576H99.9673L99.9996 15.0397V18.5315H99.2659Z" fill="#FAFFF5" stroke="#FAFFF5" stroke-width="0.138296" stroke-miterlimit="10"/>
<path d="M92.1407 26.717C89.8916 26.717 88.0544 28.3881 88.0544 30.6938C88.0544 32.9807 89.8916 34.6694 92.1407 34.6694C94.3944 34.6694 96.2317 32.9807 96.2317 30.6938C96.2317 28.3881 94.3944 26.717 92.1407 26.717ZM92.1407 33.1034C90.9066 33.1034 89.845 32.1089 89.845 30.6938C89.845 29.2599 90.9066 28.283 92.1407 28.283C93.3747 28.283 94.4411 29.2599 94.4411 30.6938C94.4411 32.1089 93.3747 33.1034 92.1407 33.1034ZM83.2248 26.717C80.971 26.717 79.1386 28.3881 79.1386 30.6938C79.1386 32.9807 80.971 34.6694 83.2248 34.6694C85.4774 34.6694 87.3111 32.9807 87.3111 30.6938C87.3111 28.3881 85.4774 26.717 83.2248 26.717ZM83.2248 33.1034C81.9896 33.1034 80.9243 32.1089 80.9243 30.6938C80.9243 29.2599 81.9896 28.283 83.2248 28.283C84.4588 28.283 85.5205 29.2599 85.5205 30.6938C85.5205 32.1089 84.4588 33.1034 83.2248 33.1034ZM72.6154 27.9359V29.6257H76.7483C76.6274 30.5699 76.3042 31.2641 75.8087 31.7479C75.2055 32.3322 74.2659 32.9807 72.6154 32.9807C70.0719 32.9807 68.0802 30.9766 68.0802 28.4933C68.0802 26.01 70.0719 24.0059 72.6154 24.0059C73.9906 24.0059 74.9912 24.5306 75.7297 25.2107L76.9494 24.0199C75.9165 23.057 74.5424 22.3172 72.6154 22.3172C69.1275 22.3172 66.1963 25.088 66.1963 28.4933C66.1963 31.8986 69.1275 34.6694 72.6154 34.6694C74.5005 34.6694 75.9164 34.0664 77.0296 32.9351C78.1702 31.8215 78.5257 30.2555 78.5257 28.9911C78.5257 28.5985 78.4922 28.2374 78.4324 27.9359H72.6154ZM115.999 29.2459C115.662 28.3566 114.625 26.717 112.511 26.717C110.416 26.717 108.672 28.3285 108.672 30.6938C108.672 32.9211 110.398 34.6694 112.712 34.6694C114.583 34.6694 115.662 33.5557 116.107 32.9071L114.718 32.0038C114.255 32.6652 113.624 33.1034 112.712 33.1034C111.806 33.1034 111.156 32.6979 110.74 31.8986L116.187 29.6981L115.999 29.2459ZM110.445 30.5699C110.398 29.0367 111.665 28.2514 112.572 28.2514C113.283 28.2514 113.886 28.5985 114.087 29.0951L110.445 30.5699ZM106.018 34.4275H107.808V22.7414H106.018V34.4275ZM103.085 27.6028H103.025C102.623 27.1377 101.856 26.717 100.884 26.717C98.8446 26.717 96.9798 28.4653 96.9798 30.7066C96.9798 32.9351 98.8446 34.6694 100.884 34.6694C101.856 34.6694 102.623 34.2452 103.025 33.766H103.085V34.3363C103.085 35.8567 102.253 36.6735 100.912 36.6735C99.8177 36.6735 99.139 35.9022 98.859 35.2537L97.3018 35.8882C97.7506 36.9423 98.9391 38.2394 100.912 38.2394C103.011 38.2394 104.782 37.0334 104.782 34.0991V26.9589H103.085V27.6028ZM101.037 33.1034C99.8033 33.1034 98.7704 32.0949 98.7704 30.7066C98.7704 29.3055 99.8033 28.283 101.037 28.283C102.253 28.283 103.212 29.3055 103.212 30.7066C103.212 32.0949 102.253 33.1034 101.037 33.1034ZM124.382 22.7414H120.099V34.4275H121.885V29.9996H124.382C126.365 29.9996 128.31 28.5985 128.31 26.37C128.31 24.1426 126.361 22.7414 124.382 22.7414ZM124.429 28.3741H121.885V24.367H124.429C125.762 24.367 126.523 25.4479 126.523 26.37C126.523 27.2745 125.762 28.3741 124.429 28.3741ZM135.468 26.6948C134.178 26.6948 132.836 27.2511 132.284 28.484L133.869 29.1325C134.21 28.484 134.837 28.2736 135.5 28.2736C136.427 28.2736 137.366 28.817 137.381 29.7764V29.8991C137.057 29.7168 136.366 29.4469 135.515 29.4469C133.808 29.4469 132.069 30.3642 132.069 32.0762C132.069 33.6422 133.467 34.6507 135.038 34.6507C136.24 34.6507 136.903 34.1213 137.319 33.5054H137.381V34.4088H139.105V29.926C139.105 27.8541 137.521 26.6948 135.468 26.6948ZM135.252 33.0988C134.668 33.0988 133.854 32.816 133.854 32.1089C133.854 31.2045 134.869 30.8574 135.748 30.8574C136.534 30.8574 136.903 31.0268 137.381 31.25C137.24 32.3322 136.287 33.0988 135.252 33.0988ZM145.389 26.9507L143.336 32.0166H143.275L141.153 26.9507H139.227L142.416 34.0301L140.597 37.9695H142.463L147.376 26.9507H145.389ZM129.292 34.4275H131.082V22.7414H129.292V34.4275Z" fill="#FAFFF5"/>
<defs>
<linearGradient id="paint0_linear_4599_166408" x1="40.3261" y1="35.3765" x2="24.6411" y2="19.3114" gradientUnits="userSpaceOnUse">
<stop stop-color="#00A0FF"/>
<stop offset="0.0066" stop-color="#00A1FF"/>
<stop offset="0.2601" stop-color="#00BEFF"/>
<stop offset="0.5122" stop-color="#00D2FF"/>
<stop offset="0.7604" stop-color="#00DFFF"/>
<stop offset="1" stop-color="#00E3FF"/>
</linearGradient>
<linearGradient id="paint1_linear_4599_166408" x1="51.8499" y1="24.8193" x2="28.6806" y2="24.8193" gradientUnits="userSpaceOnUse">
<stop stop-color="#FFE000"/>
<stop offset="0.4087" stop-color="#FFBD00"/>
<stop offset="0.7754" stop-color="#FFA500"/>
<stop offset="1" stop-color="#FF9C00"/>
</linearGradient>
<linearGradient id="paint2_linear_4599_166408" x1="43.2249" y1="22.6747" x2="21.9547" y2="0.88913" gradientUnits="userSpaceOnUse">
<stop stop-color="#FF3A44"/>
<stop offset="1" stop-color="#C31162"/>
</linearGradient>
<linearGradient id="paint3_linear_4599_166408" x1="26.4396" y1="43.3542" x2="35.9377" y2="33.6261" gradientUnits="userSpaceOnUse">
<stop stop-color="#32A071"/>
<stop offset="0.0685" stop-color="#2DA771"/>
<stop offset="0.4762" stop-color="#15CF74"/>
<stop offset="0.8009" stop-color="#06E775"/>
<stop offset="1" stop-color="#00F076"/>
</linearGradient>
</defs>
</svg>
