<svg width="298" height="180" viewBox="0 0 298 180" fill="none" xmlns="http://www.w3.org/2000/svg">
<g clip-path="url(#clip0_1191_57674)">
<rect x="18.5947" y="44.453" width="261.012" height="284.231" rx="6.40521" fill="white"/>
<rect x="18.9951" y="44.8533" width="260.212" height="283.431" rx="6.00489" stroke="#002026" stroke-opacity="0.1" stroke-width="0.800652"/>
<circle cx="147.499" cy="70.8747" r="2.40195" fill="#E9C300"/>
<path d="M153.305 73.4695L155.227 66.744H157.052L158.964 73.4695H157.898L157.456 71.8842H154.823L154.381 73.4695H153.305ZM155.083 70.9234H157.196L156.216 67.3877H156.063L155.083 70.9234ZM161.226 73.4695L160.236 66.744H161.274L162.081 72.7681H162.235L163.272 66.744H165.088L166.126 72.7681H166.279L167.077 66.744H168.115L167.125 73.4695H165.309L164.252 67.3589H164.098L163.051 73.4695H161.226ZM169.385 73.4695L171.307 66.744H173.132L175.044 73.4695H173.978L173.536 71.8842H170.903L170.461 73.4695H169.385ZM171.163 70.9234H173.276L172.296 67.3877H172.143L171.163 70.9234ZM176.916 73.4695V66.744H177.954V73.4695H176.916ZM181.921 73.4695V67.6856H179.855V66.744H185.024V67.6856H182.959V73.4695H181.921ZM186.926 73.4695V66.744H187.963V73.4695H186.926ZM190.326 73.4695V66.744H192.324L194.15 72.7777H194.304V66.744H195.332V73.4695H193.333L191.508 67.4262H191.354V73.4695H190.326ZM200.03 73.604C199.549 73.604 199.12 73.5015 198.742 73.2965C198.364 73.0852 198.066 72.7777 197.849 72.3742C197.631 71.9707 197.522 71.4775 197.522 70.8946V69.3189C197.522 68.4414 197.762 67.772 198.243 67.3109C198.723 66.8433 199.373 66.6095 200.193 66.6095C201 66.6095 201.621 66.8305 202.057 67.2724C202.492 67.708 202.71 68.2941 202.71 69.0307V69.0787H201.682V69.0018C201.682 68.7264 201.628 68.4798 201.519 68.262C201.41 68.0379 201.247 67.8617 201.029 67.7336C200.811 67.6055 200.532 67.5415 200.193 67.5415C199.681 67.5415 199.28 67.6984 198.992 68.0122C198.704 68.3197 198.56 68.7488 198.56 69.2997V70.9138C198.56 71.4582 198.704 71.8906 198.992 72.2109C199.28 72.5247 199.684 72.6816 200.203 72.6816C200.715 72.6816 201.09 72.5407 201.327 72.2589C201.564 71.9771 201.682 71.612 201.682 71.1636V71.0387H199.876V70.1452H202.71V73.4695H201.749V72.7873H201.596C201.538 72.909 201.452 73.0339 201.336 73.162C201.227 73.2901 201.067 73.3958 200.856 73.4791C200.651 73.5624 200.376 73.604 200.03 73.604ZM207.796 73.4695L209.717 66.744H211.543L213.455 73.4695H212.388L211.946 71.8842H209.314L208.872 73.4695H207.796ZM209.573 70.9234H211.687L210.707 67.3877H210.553L209.573 70.9234ZM215.327 73.4695V66.744H217.998C218.408 66.744 218.773 66.8273 219.093 66.9938C219.42 67.1539 219.673 67.3845 219.852 67.6856C220.038 67.9802 220.131 68.3357 220.131 68.752V68.8769C220.131 69.2933 220.035 69.652 219.843 69.953C219.657 70.2541 219.404 70.4847 219.083 70.6448C218.763 70.8049 218.401 70.885 217.998 70.885H216.364V73.4695H215.327ZM216.364 69.9434H217.892C218.257 69.9434 218.549 69.8473 218.766 69.6552C218.984 69.463 219.093 69.2004 219.093 68.8673V68.7713C219.093 68.4318 218.984 68.166 218.766 67.9738C218.549 67.7817 218.257 67.6856 217.892 67.6856H216.364V69.9434ZM222.077 73.4695V66.744H224.748C225.158 66.744 225.523 66.8273 225.843 66.9938C226.17 67.1539 226.423 67.3845 226.602 67.6856C226.788 67.9802 226.881 68.3357 226.881 68.752V68.8769C226.881 69.2933 226.785 69.652 226.592 69.953C226.407 70.2541 226.154 70.4847 225.833 70.6448C225.513 70.8049 225.151 70.885 224.748 70.885H223.114V73.4695H222.077ZM223.114 69.9434H224.642C225.007 69.9434 225.299 69.8473 225.516 69.6552C225.734 69.463 225.843 69.2004 225.843 68.8673V68.7713C225.843 68.4318 225.734 68.166 225.516 67.9738C225.299 67.7817 225.007 67.6856 224.642 67.6856H223.114V69.9434ZM228.827 73.4695V66.744H231.651C232.068 66.744 232.433 66.8177 232.747 66.965C233.067 67.1059 233.313 67.3109 233.486 67.5799C233.666 67.8489 233.755 68.1692 233.755 68.5407V68.6464C233.755 69.0691 233.653 69.4086 233.448 69.6648C233.249 69.9146 233.006 70.0907 232.718 70.1932V70.3469C232.961 70.3598 233.157 70.443 233.304 70.5967C233.451 70.7441 233.525 70.9586 233.525 71.2405V73.4695H232.478V71.3846C232.478 71.2116 232.433 71.0739 232.343 70.9714C232.253 70.869 232.109 70.8177 231.911 70.8177H229.864V73.4695H228.827ZM229.864 69.8762H231.536C231.907 69.8762 232.196 69.7833 232.401 69.5975C232.606 69.4054 232.708 69.146 232.708 68.8193V68.7424C232.708 68.4158 232.606 68.1596 232.401 67.9738C232.202 67.7817 231.914 67.6856 231.536 67.6856H229.864V69.8762ZM238.385 73.604C237.559 73.604 236.902 73.3734 236.415 72.9122C235.928 72.4446 235.685 71.7721 235.685 70.8946V69.3189C235.685 68.4414 235.928 67.772 236.415 67.3109C236.902 66.8433 237.559 66.6095 238.385 66.6095C239.211 66.6095 239.868 66.8433 240.354 67.3109C240.848 67.772 241.094 68.4414 241.094 69.3189V70.8946C241.094 71.7721 240.848 72.4446 240.354 72.9122C239.868 73.3734 239.211 73.604 238.385 73.604ZM238.385 72.672C238.916 72.672 239.326 72.5183 239.615 72.2109C239.903 71.897 240.047 71.4711 240.047 70.933V69.2805C240.047 68.7424 239.903 68.3197 239.615 68.0122C239.326 67.6984 238.916 67.5415 238.385 67.5415C237.866 67.5415 237.459 67.6984 237.165 68.0122C236.87 68.3197 236.723 68.7424 236.723 69.2805V70.933C236.723 71.4711 236.87 71.897 237.165 72.2109C237.459 72.5183 237.866 72.672 238.385 72.672ZM244.517 73.4695L242.643 66.744H243.719L245.352 72.8162H245.477L247.101 66.744H248.177L246.313 73.4695H244.517ZM249.083 73.4695L251.005 66.744H252.83L254.742 73.4695H253.676L253.234 71.8842H250.601L250.159 73.4695H249.083ZM250.861 70.9234H252.974L251.994 67.3877H251.841L250.861 70.9234ZM256.614 73.4695V66.744H257.652V72.5279H260.89V73.4695H256.614Z" fill="#E9C300"/>
<path d="M38.6278 74.6688V66.8224H39.8384V73.5703H43.6159V74.6688H38.6278ZM47.326 74.8258C46.773 74.8258 46.2798 74.7137 45.8464 74.4895C45.4205 74.2578 45.0842 73.929 44.8376 73.5031C44.591 73.0771 44.4677 72.5727 44.4677 71.9898V71.8217C44.4677 71.2388 44.591 70.7382 44.8376 70.3197C45.0842 69.8937 45.4205 69.5649 45.8464 69.3333C46.2798 69.1016 46.773 68.9858 47.326 68.9858C47.879 68.9858 48.3722 69.1016 48.8056 69.3333C49.2391 69.5649 49.5791 69.8937 49.8257 70.3197C50.0723 70.7382 50.1956 71.2388 50.1956 71.8217V71.9898C50.1956 72.5727 50.0723 73.0771 49.8257 73.5031C49.5791 73.929 49.2391 74.2578 48.8056 74.4895C48.3722 74.7137 47.879 74.8258 47.326 74.8258ZM47.326 73.7945C47.8342 73.7945 48.2452 73.6338 48.559 73.3125C48.8804 72.9837 49.041 72.5316 49.041 71.9562V71.8553C49.041 71.2799 48.8841 70.8316 48.5702 70.5102C48.2564 70.1814 47.8416 70.017 47.326 70.017C46.8254 70.017 46.4144 70.1814 46.093 70.5102C45.7792 70.8316 45.6222 71.2799 45.6222 71.8553V71.9562C45.6222 72.5316 45.7792 72.9837 46.093 73.3125C46.4144 73.6338 46.8254 73.7945 47.326 73.7945ZM53.348 74.8258C52.9519 74.8258 52.5969 74.7585 52.2831 74.624C51.9767 74.4895 51.7301 74.2914 51.5433 74.0299C51.3639 73.7684 51.2743 73.4508 51.2743 73.0771C51.2743 72.696 51.3639 72.3822 51.5433 72.1356C51.7301 71.8815 51.9804 71.6909 52.2943 71.5639C52.6156 71.4369 52.9781 71.3733 53.3816 71.3733H55.063V71.0146C55.063 70.6933 54.9658 70.4355 54.7715 70.2412C54.5772 70.0469 54.2783 69.9498 53.8748 69.9498C53.4787 69.9498 53.1761 70.0432 52.9668 70.23C52.7576 70.4168 52.6194 70.6597 52.5521 70.9586L51.476 70.6111C51.5657 70.3122 51.7077 70.0432 51.902 69.8041C52.1037 69.5575 52.369 69.3594 52.6978 69.21C53.0266 69.0605 53.4227 68.9858 53.886 68.9858C54.6034 68.9858 55.1676 69.1689 55.5786 69.535C55.9896 69.9012 56.1951 70.4206 56.1951 71.0931V73.3686C56.1951 73.5927 56.2997 73.7048 56.5089 73.7048H56.9797V74.6688H56.1166C55.8551 74.6688 55.6421 74.6016 55.4777 74.4671C55.3133 74.3325 55.2311 74.1495 55.2311 73.9178V73.8842H55.063C55.0032 73.9963 54.9135 74.127 54.7939 74.2765C54.6744 74.426 54.4988 74.5567 54.2671 74.6688C54.0354 74.7734 53.7291 74.8258 53.348 74.8258ZM53.5161 73.873C53.9794 73.873 54.353 73.7422 54.637 73.4807C54.921 73.2116 55.063 72.8455 55.063 72.3822V72.2701H53.4488C53.1425 72.2701 52.8959 72.3373 52.709 72.4718C52.5222 72.5989 52.4288 72.7894 52.4288 73.0435C52.4288 73.2976 52.526 73.4993 52.7202 73.6488C52.9145 73.7982 53.1798 73.873 53.5161 73.873ZM58.1023 74.6688V69.1427H59.2344V69.9722H59.4138C59.5184 69.748 59.7052 69.5388 59.9742 69.3445C60.2432 69.1502 60.643 69.0531 61.1736 69.0531C61.5921 69.0531 61.962 69.1465 62.2833 69.3333C62.6121 69.5201 62.8699 69.7854 63.0567 70.1291C63.2435 70.4654 63.3369 70.8727 63.3369 71.3509V74.6688H62.1824V71.4406C62.1824 70.9623 62.0628 70.6111 61.8237 70.3869C61.5846 70.1553 61.2558 70.0395 60.8373 70.0395C60.3591 70.0395 59.9742 70.1964 59.6828 70.5102C59.3988 70.8241 59.2568 71.2799 59.2568 71.8778V74.6688H58.1023ZM67.5266 72.3261V71.2725H70.8445V72.3261H67.5266ZM74.3104 74.6688L76.5522 66.8224H78.682L80.9126 74.6688H79.6684L79.1528 72.8193H76.0815L75.5658 74.6688H74.3104ZM76.3841 71.6984H78.8501L77.7068 67.5734H77.5274L76.3841 71.6984ZM81.6842 74.6688V73.5927H82.7378V67.8985H81.6842V66.8224H84.8227C85.8689 66.8224 86.6685 67.0877 87.2215 67.6183C87.7819 68.1488 88.0622 68.9484 88.0622 70.017V71.4854C88.0622 72.554 87.7819 73.3536 87.2215 73.8842C86.6685 74.4073 85.8689 74.6688 84.8227 74.6688H81.6842ZM83.9596 73.5703H84.8339C85.514 73.5703 86.0184 73.3985 86.3472 73.0547C86.676 72.711 86.8404 72.1991 86.8404 71.5191V69.9722C86.8404 69.2847 86.676 68.7728 86.3472 68.4365C86.0184 68.1003 85.514 67.9321 84.8339 67.9321H83.9596V73.5703ZM92.0194 74.8258C91.444 74.8258 90.9321 74.7211 90.4838 74.5119C90.0354 74.3027 89.6842 74 89.4301 73.604C89.1835 73.2079 89.0602 72.7371 89.0602 72.1916V71.9898H90.2372V72.1692C90.2372 72.6624 90.3978 73.0547 90.7192 73.3461C91.048 73.6301 91.4814 73.7721 92.0194 73.7721C92.5575 73.7721 92.9759 73.6376 93.2749 73.3686C93.5738 73.0995 93.7232 72.7595 93.7232 72.3485V72.2477C93.7232 71.9562 93.6522 71.7208 93.5102 71.5415C93.3683 71.3621 93.1777 71.2314 92.9386 71.1492C92.6995 71.0595 92.4304 71.0146 92.1315 71.0146H90.708V69.6583L93.4654 68.033V67.8761H89.2508V66.8224H94.7432V68.4141L92.1091 69.9834V70.1403H92.5911C92.9872 70.1403 93.3608 70.2151 93.712 70.3645C94.0632 70.514 94.3472 70.7419 94.5639 71.0483C94.7881 71.3547 94.9002 71.7432 94.9002 72.214V72.3485C94.9002 72.8492 94.7806 73.2864 94.5415 73.66C94.3024 74.0262 93.9661 74.3139 93.5327 74.5231C93.0992 74.7249 92.5948 74.8258 92.0194 74.8258ZM99.7027 74.6688V73.0659H95.7346V71.6984L98.7387 66.8224H100.88V72.0235H102.202V73.0659H100.88V74.6688H99.7027ZM96.878 72.0235H99.7027V67.5622H99.5233L96.878 71.8665V72.0235ZM102.705 74.6688L104.947 66.8224H107.077L109.308 74.6688H108.063L107.548 72.8193H104.476L103.961 74.6688H102.705ZM104.779 71.6984H107.245L106.102 67.5734H105.922L104.779 71.6984Z" fill="#002026" fill-opacity="0.6"/>
<rect x="37.8096" y="94.0935" width="222.581" height="216.977" rx="6.40521" fill="white"/>
<rect x="38.2099" y="94.4938" width="221.781" height="216.176" rx="6.00489" stroke="#002026" stroke-opacity="0.1" stroke-width="0.800652"/>
<line x1="57.0254" y1="164.951" x2="241.175" y2="164.951" stroke="#002026" stroke-opacity="0.1" stroke-width="0.800652"/>
<path d="M77.0595 121.106V113.26H78.2701V120.008H82.0475V121.106H77.0595ZM85.7577 121.263C85.2047 121.263 84.7115 121.151 84.2781 120.927C83.8521 120.695 83.5158 120.367 83.2692 119.941C83.0226 119.515 82.8993 119.01 82.8993 118.427V118.259C82.8993 117.676 83.0226 117.176 83.2692 116.757C83.5158 116.331 83.8521 116.003 84.2781 115.771C84.7115 115.539 85.2047 115.423 85.7577 115.423C86.3107 115.423 86.8039 115.539 87.2373 115.771C87.6707 116.003 88.0107 116.331 88.2573 116.757C88.5039 117.176 88.6272 117.676 88.6272 118.259V118.427C88.6272 119.01 88.5039 119.515 88.2573 119.941C88.0107 120.367 87.6707 120.695 87.2373 120.927C86.8039 121.151 86.3107 121.263 85.7577 121.263ZM85.7577 120.232C86.2658 120.232 86.6768 120.071 86.9907 119.75C87.312 119.421 87.4727 118.969 87.4727 118.394V118.293C87.4727 117.718 87.3157 117.269 87.0019 116.948C86.688 116.619 86.2733 116.455 85.7577 116.455C85.257 116.455 84.846 116.619 84.5247 116.948C84.2108 117.269 84.0539 117.718 84.0539 118.293V118.394C84.0539 118.969 84.2108 119.421 84.5247 119.75C84.846 120.071 85.257 120.232 85.7577 120.232ZM91.7796 121.263C91.3835 121.263 91.0286 121.196 90.7147 121.062C90.4083 120.927 90.1617 120.729 89.9749 120.468C89.7956 120.206 89.7059 119.888 89.7059 119.515C89.7059 119.134 89.7956 118.82 89.9749 118.573C90.1617 118.319 90.4121 118.129 90.7259 118.002C91.0473 117.874 91.4097 117.811 91.8132 117.811H93.4946V117.452C93.4946 117.131 93.3974 116.873 93.2032 116.679C93.0089 116.485 92.71 116.387 92.3064 116.387C91.9104 116.387 91.6077 116.481 91.3985 116.668C91.1892 116.854 91.051 117.097 90.9837 117.396L89.9077 117.049C89.9973 116.75 90.1393 116.481 90.3336 116.242C90.5354 115.995 90.8007 115.797 91.1295 115.648C91.4583 115.498 91.8543 115.423 92.3176 115.423C93.035 115.423 93.5992 115.607 94.0102 115.973C94.4212 116.339 94.6267 116.858 94.6267 117.531V119.806C94.6267 120.03 94.7313 120.142 94.9406 120.142H95.4114V121.106H94.5482C94.2867 121.106 94.0737 121.039 93.9093 120.905C93.7449 120.77 93.6627 120.587 93.6627 120.355V120.322H93.4946C93.4348 120.434 93.3451 120.565 93.2256 120.714C93.106 120.864 92.9304 120.994 92.6987 121.106C92.4671 121.211 92.1607 121.263 91.7796 121.263ZM91.9477 120.311C92.411 120.311 92.7847 120.18 93.0686 119.918C93.3526 119.649 93.4946 119.283 93.4946 118.82V118.708H91.8805C91.5741 118.708 91.3275 118.775 91.1407 118.909C90.9539 119.036 90.8604 119.227 90.8604 119.481C90.8604 119.735 90.9576 119.937 91.1519 120.086C91.3462 120.236 91.6115 120.311 91.9477 120.311ZM96.5339 121.106V115.58H97.6661V116.41H97.8454C97.95 116.186 98.1368 115.976 98.4059 115.782C98.6749 115.588 99.0747 115.491 99.6052 115.491C100.024 115.491 100.394 115.584 100.715 115.771C101.044 115.958 101.302 116.223 101.488 116.567C101.675 116.903 101.769 117.31 101.769 117.789V121.106H100.614V117.878C100.614 117.4 100.494 117.049 100.255 116.825C100.016 116.593 99.6874 116.477 99.269 116.477C98.7907 116.477 98.4059 116.634 98.1144 116.948C97.8305 117.262 97.6885 117.718 97.6885 118.315V121.106H96.5339ZM108.002 121.263C107.606 121.263 107.251 121.196 106.937 121.062C106.631 120.927 106.384 120.729 106.198 120.468C106.018 120.206 105.928 119.888 105.928 119.515C105.928 119.134 106.018 118.82 106.198 118.573C106.384 118.319 106.635 118.129 106.949 118.002C107.27 117.874 107.632 117.811 108.036 117.811H109.717V117.452C109.717 117.131 109.62 116.873 109.426 116.679C109.231 116.485 108.933 116.387 108.529 116.387C108.133 116.387 107.83 116.481 107.621 116.668C107.412 116.854 107.274 117.097 107.206 117.396L106.13 117.049C106.22 116.75 106.362 116.481 106.556 116.242C106.758 115.995 107.023 115.797 107.352 115.648C107.681 115.498 108.077 115.423 108.54 115.423C109.258 115.423 109.822 115.607 110.233 115.973C110.644 116.339 110.849 116.858 110.849 117.531V119.806C110.849 120.03 110.954 120.142 111.163 120.142H111.634V121.106H110.771C110.509 121.106 110.296 121.039 110.132 120.905C109.968 120.77 109.885 120.587 109.885 120.355V120.322H109.717C109.657 120.434 109.568 120.565 109.448 120.714C109.329 120.864 109.153 120.994 108.921 121.106C108.69 121.211 108.383 121.263 108.002 121.263ZM108.17 120.311C108.634 120.311 109.007 120.18 109.291 119.918C109.575 119.649 109.717 119.283 109.717 118.82V118.708H108.103C107.797 118.708 107.55 118.775 107.363 118.909C107.176 119.036 107.083 119.227 107.083 119.481C107.083 119.735 107.18 119.937 107.374 120.086C107.569 120.236 107.834 120.311 108.17 120.311ZM112.757 121.106V115.58H113.889V116.23H114.068C114.173 116.036 114.341 115.864 114.572 115.715C114.804 115.565 115.118 115.491 115.514 115.491C115.925 115.491 116.254 115.577 116.5 115.748C116.754 115.913 116.945 116.126 117.072 116.387H117.251C117.378 116.133 117.561 115.92 117.801 115.748C118.047 115.577 118.395 115.491 118.843 115.491C119.202 115.491 119.519 115.565 119.796 115.715C120.072 115.857 120.293 116.074 120.457 116.365C120.622 116.649 120.704 117.004 120.704 117.43V121.106H119.549V117.52C119.549 117.183 119.456 116.925 119.269 116.746C119.09 116.559 118.832 116.466 118.496 116.466C118.137 116.466 117.849 116.582 117.632 116.813C117.416 117.045 117.307 117.378 117.307 117.811V121.106H116.153V117.52C116.153 117.183 116.059 116.925 115.873 116.746C115.693 116.559 115.435 116.466 115.099 116.466C114.741 116.466 114.453 116.582 114.236 116.813C114.019 117.045 113.911 117.378 113.911 117.811V121.106H112.757ZM124.957 121.263C124.404 121.263 123.911 121.151 123.477 120.927C123.051 120.695 122.715 120.367 122.468 119.941C122.222 119.515 122.098 119.01 122.098 118.427V118.259C122.098 117.676 122.222 117.176 122.468 116.757C122.715 116.331 123.051 116.003 123.477 115.771C123.911 115.539 124.404 115.423 124.957 115.423C125.51 115.423 126.003 115.539 126.436 115.771C126.87 116.003 127.21 116.331 127.456 116.757C127.703 117.176 127.826 117.676 127.826 118.259V118.427C127.826 119.01 127.703 119.515 127.456 119.941C127.21 120.367 126.87 120.695 126.436 120.927C126.003 121.151 125.51 121.263 124.957 121.263ZM124.957 120.232C125.465 120.232 125.876 120.071 126.19 119.75C126.511 119.421 126.672 118.969 126.672 118.394V118.293C126.672 117.718 126.515 117.269 126.201 116.948C125.887 116.619 125.472 116.455 124.957 116.455C124.456 116.455 124.045 116.619 123.724 116.948C123.41 117.269 123.253 117.718 123.253 118.293V118.394C123.253 118.969 123.41 119.421 123.724 119.75C124.045 120.071 124.456 120.232 124.957 120.232ZM131.382 121.207C130.964 121.207 130.59 121.114 130.261 120.927C129.933 120.74 129.675 120.475 129.488 120.131C129.301 119.788 129.208 119.377 129.208 118.898V115.58H130.362V118.82C130.362 119.298 130.482 119.653 130.721 119.885C130.96 120.109 131.293 120.221 131.718 120.221C132.189 120.221 132.567 120.064 132.851 119.75C133.142 119.429 133.288 118.969 133.288 118.371V115.58H134.442V121.106H133.31V120.277H133.131C133.026 120.501 132.839 120.714 132.57 120.916C132.301 121.11 131.905 121.207 131.382 121.207ZM136.149 121.106V115.58H137.281V116.41H137.46C137.565 116.186 137.752 115.976 138.021 115.782C138.29 115.588 138.69 115.491 139.22 115.491C139.639 115.491 140.009 115.584 140.33 115.771C140.659 115.958 140.917 116.223 141.103 116.567C141.29 116.903 141.384 117.31 141.384 117.789V121.106H140.229V117.878C140.229 117.4 140.11 117.049 139.87 116.825C139.631 116.593 139.302 116.477 138.884 116.477C138.406 116.477 138.021 116.634 137.729 116.948C137.446 117.262 137.304 117.718 137.304 118.315V121.106H136.149ZM144.966 121.106C144.629 121.106 144.36 121.006 144.159 120.804C143.964 120.602 143.867 120.333 143.867 119.997V116.556H142.343V115.58H143.867V113.753H145.022V115.58H146.669V116.556H145.022V119.795C145.022 120.019 145.126 120.131 145.336 120.131H146.49V121.106H144.966Z" fill="#002026" fill-opacity="0.6"/>
<rect x="57.0254" y="112.508" width="9.60782" height="9.60782" rx="3.20261" fill="#1BC1BF"/>
<path d="M61.0094 143.103C60.3348 143.103 59.7369 142.983 59.216 142.744C58.695 142.505 58.2851 142.155 57.9862 141.693C57.6958 141.224 57.5506 140.656 57.5506 139.99V139.669H58.9213V139.99C58.9213 140.622 59.1092 141.096 59.485 141.412C59.8693 141.728 60.3775 141.886 61.0094 141.886C61.65 141.886 62.1325 141.753 62.457 141.488C62.7815 141.215 62.9438 140.865 62.9438 140.438C62.9438 140.156 62.8669 139.926 62.7132 139.746C62.568 139.567 62.3545 139.426 62.0727 139.323C61.7909 139.212 61.4535 139.11 61.0607 139.016L60.5867 138.901C60.0145 138.764 59.5192 138.598 59.1007 138.401C58.6822 138.196 58.3577 137.927 58.1271 137.594C57.8965 137.261 57.7812 136.834 57.7812 136.313C57.7812 135.784 57.9093 135.331 58.1655 134.955C58.4217 134.579 58.7804 134.289 59.2416 134.084C59.7028 133.879 60.2451 133.777 60.8685 133.777C61.492 133.777 62.0471 133.883 62.5339 134.097C63.0292 134.31 63.4178 134.626 63.6996 135.045C63.99 135.463 64.1352 135.989 64.1352 136.62V137.082H62.7645V136.62C62.7645 136.236 62.6833 135.924 62.5211 135.685C62.3673 135.446 62.1453 135.271 61.8549 135.16C61.5731 135.049 61.2443 134.994 60.8685 134.994C60.3219 134.994 59.8992 135.109 59.6003 135.339C59.3014 135.561 59.1519 135.873 59.1519 136.275C59.1519 136.548 59.216 136.774 59.3441 136.954C59.4807 137.124 59.6771 137.265 59.9334 137.376C60.1896 137.487 60.5056 137.586 60.8813 137.671L61.3553 137.786C61.9361 137.914 62.4485 138.081 62.8926 138.286C63.3367 138.482 63.6825 138.751 63.9302 139.093C64.1864 139.435 64.3145 139.874 64.3145 140.412C64.3145 140.95 64.1779 141.42 63.9046 141.822C63.6398 142.223 63.2598 142.539 62.7645 142.769C62.2691 142.992 61.6841 143.103 61.0094 143.103ZM60.3689 144.409V132.47H61.6371V144.409H60.3689ZM71.9913 143.103C71.3337 143.103 70.7487 142.983 70.2362 142.744C69.7238 142.505 69.3224 142.159 69.0321 141.706C68.7502 141.254 68.6093 140.716 68.6093 140.092V139.862H69.9544V140.066C69.9544 140.63 70.138 141.079 70.5053 141.412C70.881 141.736 71.3764 141.898 71.9913 141.898C72.6062 141.898 73.0844 141.745 73.426 141.437C73.7677 141.13 73.9385 140.741 73.9385 140.271V140.156C73.9385 139.823 73.8573 139.554 73.6951 139.349C73.5328 139.144 73.315 138.995 73.0417 138.901C72.7684 138.798 72.461 138.747 72.1194 138.747H70.4925V137.197L73.6438 135.339V135.16H68.8271V133.956H75.1042V135.775L72.0938 137.568V137.748H72.6446C73.0972 137.748 73.5243 137.833 73.9256 138.004C74.327 138.175 74.6516 138.435 74.8992 138.785C75.1554 139.136 75.2836 139.58 75.2836 140.118V140.271C75.2836 140.844 75.1469 141.343 74.8736 141.77C74.6003 142.189 74.216 142.518 73.7207 142.757C73.2253 142.987 72.6489 143.103 71.9913 143.103ZM76.8521 144.665V143.91H77.2877C77.6378 143.91 77.8129 143.735 77.8129 143.384V142.974H77.6208C77.3218 142.974 77.0742 142.885 76.8777 142.705C76.6813 142.526 76.5831 142.3 76.5831 142.026C76.5831 141.728 76.6813 141.488 76.8777 141.309C77.0742 141.121 77.3218 141.027 77.6208 141.027C77.9197 141.027 78.1631 141.125 78.3509 141.322C78.5474 141.51 78.6456 141.757 78.6456 142.065V143.397C78.6456 144.243 78.2228 144.665 77.3774 144.665H76.8521ZM84.275 142.923V141.091H79.7401V139.528L83.1733 133.956H85.6201V139.9H87.1317V141.091H85.6201V142.923H84.275ZM81.0467 139.9H84.275V134.801H84.07L81.0467 139.721V139.9ZM91.5626 143.103C90.5207 143.103 89.688 142.808 89.0646 142.219C88.4497 141.621 88.1422 140.724 88.1422 139.528V137.351C88.1422 136.181 88.4497 135.292 89.0646 134.686C89.688 134.08 90.5207 133.777 91.5626 133.777C92.6131 133.777 93.4457 134.08 94.0606 134.686C94.6841 135.292 94.9958 136.181 94.9958 137.351V139.528C94.9958 140.724 94.6841 141.621 94.0606 142.219C93.4457 142.808 92.6131 143.103 91.5626 143.103ZM91.5626 141.898C92.2714 141.898 92.7967 141.698 93.1383 141.296C93.4799 140.886 93.6507 140.314 93.6507 139.58V137.274C93.6507 136.539 93.4671 135.976 93.0999 135.583C92.7326 135.181 92.2202 134.981 91.5626 134.981C90.8965 134.981 90.384 135.186 90.0254 135.596C89.6667 135.997 89.4873 136.556 89.4873 137.274V139.58C89.4873 140.331 89.6581 140.908 89.9997 141.309C90.3499 141.702 90.8708 141.898 91.5626 141.898ZM99.8193 143.103C98.7774 143.103 97.9447 142.808 97.3213 142.219C96.7064 141.621 96.3989 140.724 96.3989 139.528V137.351C96.3989 136.181 96.7064 135.292 97.3213 134.686C97.9447 134.08 98.7774 133.777 99.8193 133.777C100.87 133.777 101.702 134.08 102.317 134.686C102.941 135.292 103.253 136.181 103.253 137.351V139.528C103.253 140.724 102.941 141.621 102.317 142.219C101.702 142.808 100.87 143.103 99.8193 143.103ZM99.8193 141.898C100.528 141.898 101.053 141.698 101.395 141.296C101.737 140.886 101.907 140.314 101.907 139.58V137.274C101.907 136.539 101.724 135.976 101.357 135.583C100.989 135.181 100.477 134.981 99.8193 134.981C99.1532 134.981 98.6408 135.186 98.2821 135.596C97.9234 135.997 97.744 136.556 97.744 137.274V139.58C97.744 140.331 97.9148 140.908 98.2565 141.309C98.6066 141.702 99.1276 141.898 99.8193 141.898ZM105.544 143.103C105.245 143.103 104.993 143.004 104.788 142.808C104.592 142.611 104.493 142.36 104.493 142.052C104.493 141.745 104.592 141.497 104.788 141.309C104.993 141.113 105.245 141.014 105.544 141.014C105.843 141.014 106.09 141.113 106.287 141.309C106.492 141.506 106.594 141.753 106.594 142.052C106.594 142.36 106.492 142.611 106.287 142.808C106.09 143.004 105.843 143.103 105.544 143.103ZM111.266 143.103C110.224 143.103 109.392 142.808 108.768 142.219C108.153 141.621 107.846 140.724 107.846 139.528V137.351C107.846 136.181 108.153 135.292 108.768 134.686C109.392 134.08 110.224 133.777 111.266 133.777C112.317 133.777 113.149 134.08 113.764 134.686C114.388 135.292 114.699 136.181 114.699 137.351V139.528C114.699 140.724 114.388 141.621 113.764 142.219C113.149 142.808 112.317 143.103 111.266 143.103ZM111.266 141.898C111.975 141.898 112.5 141.698 112.842 141.296C113.183 140.886 113.354 140.314 113.354 139.58V137.274C113.354 136.539 113.171 135.976 112.803 135.583C112.436 135.181 111.924 134.981 111.266 134.981C110.6 134.981 110.088 135.186 109.729 135.596C109.37 135.997 109.191 136.556 109.191 137.274V139.58C109.191 140.331 109.362 140.908 109.703 141.309C110.053 141.702 110.574 141.898 111.266 141.898ZM119.523 143.103C118.481 143.103 117.648 142.808 117.025 142.219C116.41 141.621 116.102 140.724 116.102 139.528V137.351C116.102 136.181 116.41 135.292 117.025 134.686C117.648 134.08 118.481 133.777 119.523 133.777C120.573 133.777 121.406 134.08 122.021 134.686C122.644 135.292 122.956 136.181 122.956 137.351V139.528C122.956 140.724 122.644 141.621 122.021 142.219C121.406 142.808 120.573 143.103 119.523 143.103ZM119.523 141.898C120.232 141.898 120.757 141.698 121.099 141.296C121.44 140.886 121.611 140.314 121.611 139.58V137.274C121.611 136.539 121.427 135.976 121.06 135.583C120.693 135.181 120.18 134.981 119.523 134.981C118.857 134.981 118.344 135.186 117.986 135.596C117.627 135.997 117.448 136.556 117.448 137.274V139.58C117.448 140.331 117.618 140.908 117.96 141.309C118.31 141.702 118.831 141.898 119.523 141.898Z" fill="#002026"/>
<g filter="url(#filter0_d_1191_57674)">
<rect x="0.959082" y="0.302588" width="296.138" height="95.3818" rx="6.81298" fill="#FCFCFC" stroke="#E9C300" stroke-width="0.908398" stroke-dasharray="7.27 7.27"/>
<path d="M85.1382 33.9244V23.7504H89.1787C89.7988 23.7504 90.3511 23.8763 90.8356 24.1283C91.3298 24.3705 91.7125 24.7193 91.9838 25.1748C92.2648 25.6205 92.4053 26.1582 92.4053 26.7881V26.977C92.4053 27.6068 92.26 28.1495 91.9693 28.6049C91.6883 29.0603 91.3056 29.4091 90.8211 29.6513C90.3366 29.8936 89.7892 30.0147 89.1787 30.0147H86.7079V33.9244H85.1382ZM86.7079 28.5903H89.0188C89.5711 28.5903 90.012 28.445 90.3415 28.1543C90.6709 27.8636 90.8356 27.4663 90.8356 26.9625V26.8171C90.8356 26.3036 90.6709 25.9015 90.3415 25.6108C90.012 25.3201 89.5711 25.1748 89.0188 25.1748H86.7079V28.5903ZM97.0253 34.1279C96.2986 34.1279 95.664 33.9777 95.1213 33.6774C94.5787 33.3673 94.1524 32.9361 93.8423 32.3838C93.5419 31.8218 93.3917 31.1726 93.3917 30.4362V30.2618C93.3917 29.5157 93.5419 28.8665 93.8423 28.3142C94.1427 27.7522 94.5593 27.321 95.0923 27.0206C95.6349 26.7105 96.2599 26.5555 96.9672 26.5555C97.6552 26.5555 98.2559 26.7105 98.7695 27.0206C99.2927 27.321 99.6997 27.7425 99.9903 28.2851C100.281 28.8277 100.426 29.4624 100.426 30.1891V30.7559H94.9179C94.9372 31.3858 95.1456 31.8896 95.5428 32.2675C95.9498 32.6357 96.4537 32.8198 97.0544 32.8198C97.6164 32.8198 98.0379 32.6939 98.3189 32.4419C98.6096 32.19 98.8324 31.8993 98.9875 31.5699L100.223 32.2094C100.087 32.4807 99.8886 32.7665 99.627 33.0669C99.3751 33.3673 99.0408 33.6192 98.6241 33.8227C98.2075 34.0262 97.6745 34.1279 97.0253 34.1279ZM94.9324 29.6077H98.9003C98.8615 29.0651 98.6677 28.6436 98.3189 28.3432C97.9701 28.0332 97.5147 27.8781 96.9527 27.8781C96.3907 27.8781 95.9304 28.0332 95.5719 28.3432C95.2231 28.6436 95.0099 29.0651 94.9324 29.6077ZM102.228 33.9244V26.759H103.696V27.602H103.929C104.045 27.3016 104.229 27.0836 104.481 26.9479C104.743 26.8026 105.063 26.7299 105.441 26.7299H106.298V28.0816H105.382C104.898 28.0816 104.501 28.2173 104.191 28.4886C103.88 28.7502 103.725 29.1572 103.725 29.7095V33.9244H102.228ZM110.629 34.1279C109.718 34.1279 108.962 33.9244 108.362 33.5175C107.761 33.1105 107.393 32.4952 107.257 31.6716L108.652 31.3373C108.73 31.7346 108.861 32.0495 109.045 32.2821C109.229 32.5146 109.456 32.6793 109.728 32.7762C110.009 32.8731 110.309 32.9216 110.629 32.9216C111.104 32.9216 111.467 32.8295 111.719 32.6454C111.981 32.4613 112.111 32.2239 112.111 31.9332C112.111 31.6425 111.99 31.4294 111.748 31.2937C111.506 31.1581 111.147 31.0466 110.673 30.9594L110.178 30.8722C109.694 30.785 109.253 30.6591 108.856 30.4943C108.458 30.3296 108.144 30.1019 107.911 29.8112C107.678 29.5205 107.562 29.1475 107.562 28.6921C107.562 28.0138 107.814 27.4906 108.318 27.1224C108.822 26.7445 109.49 26.5555 110.324 26.5555C111.128 26.5555 111.787 26.7396 112.3 27.1078C112.824 27.4663 113.163 27.9557 113.318 28.5758L111.922 28.9682C111.835 28.5322 111.651 28.227 111.37 28.0526C111.089 27.8685 110.74 27.7764 110.324 27.7764C109.917 27.7764 109.597 27.8539 109.364 28.009C109.132 28.1543 109.016 28.3626 109.016 28.6339C109.016 28.9246 109.127 29.1378 109.35 29.2734C109.582 29.4091 109.893 29.5108 110.28 29.5787L110.789 29.6659C111.302 29.7531 111.772 29.8742 112.199 30.0292C112.625 30.1843 112.959 30.4071 113.202 30.6978C113.453 30.9885 113.579 31.3761 113.579 31.8606C113.579 32.5776 113.313 33.1347 112.78 33.532C112.247 33.9293 111.53 34.1279 110.629 34.1279ZM118.687 34.1279C117.97 34.1279 117.33 33.9826 116.768 33.6919C116.216 33.3915 115.78 32.9652 115.46 32.4129C115.14 31.8606 114.98 31.2065 114.98 30.4507V30.2327C114.98 29.4769 115.14 28.8277 115.46 28.2851C115.78 27.7328 116.216 27.3065 116.768 27.0061C117.33 26.7057 117.97 26.5555 118.687 26.5555C119.404 26.5555 120.043 26.7057 120.605 27.0061C121.167 27.3065 121.608 27.7328 121.928 28.2851C122.248 28.8277 122.407 29.4769 122.407 30.2327V30.4507C122.407 31.2065 122.248 31.8606 121.928 32.4129C121.608 32.9652 121.167 33.3915 120.605 33.6919C120.043 33.9826 119.404 34.1279 118.687 34.1279ZM118.687 32.7908C119.346 32.7908 119.878 32.5824 120.285 32.1658C120.702 31.7394 120.91 31.1532 120.91 30.4071V30.2763C120.91 29.5302 120.707 28.9488 120.3 28.5322C119.893 28.1058 119.355 27.8927 118.687 27.8927C118.037 27.8927 117.505 28.1058 117.088 28.5322C116.681 28.9488 116.477 29.5302 116.477 30.2763V30.4071C116.477 31.1532 116.681 31.7394 117.088 32.1658C117.505 32.5824 118.037 32.7908 118.687 32.7908ZM124.271 33.9244V26.759H125.739V27.8345H125.972C126.107 27.5439 126.35 27.2725 126.698 27.0206C127.047 26.7687 127.566 26.6427 128.254 26.6427C128.796 26.6427 129.276 26.7638 129.693 27.0061C130.119 27.2483 130.453 27.5923 130.695 28.038C130.938 28.4741 131.059 29.0021 131.059 29.6223V33.9244H129.562V29.7385C129.562 29.1184 129.407 28.663 129.097 28.3723C128.787 28.0719 128.36 27.9217 127.818 27.9217C127.198 27.9217 126.698 28.1252 126.321 28.5322C125.952 28.9392 125.768 29.5302 125.768 30.3054V33.9244H124.271ZM135.437 34.1279C134.924 34.1279 134.463 34.0407 134.056 33.8663C133.659 33.6919 133.339 33.4351 133.097 33.096C132.864 32.7568 132.748 32.345 132.748 31.8606C132.748 31.3664 132.864 30.9594 133.097 30.6397C133.339 30.3102 133.664 30.0631 134.071 29.8984C134.487 29.7337 134.957 29.6513 135.481 29.6513H137.661V29.1862C137.661 28.7696 137.535 28.4353 137.283 28.1834C137.031 27.9314 136.643 27.8055 136.12 27.8055C135.607 27.8055 135.214 27.9266 134.943 28.1688C134.672 28.4111 134.492 28.726 134.405 29.1136L133.01 28.663C133.126 28.2754 133.31 27.9266 133.562 27.6165C133.824 27.2968 134.168 27.04 134.594 26.8462C135.02 26.6524 135.534 26.5555 136.135 26.5555C137.065 26.5555 137.796 26.7929 138.329 27.2677C138.862 27.7425 139.129 28.4159 139.129 29.288V32.2385C139.129 32.5291 139.264 32.6745 139.536 32.6745H140.146V33.9244H139.027C138.688 33.9244 138.412 33.8372 138.199 33.6628C137.985 33.4884 137.879 33.251 137.879 32.9506V32.907H137.661C137.583 33.0524 137.467 33.2219 137.312 33.4157C137.157 33.6095 136.929 33.7791 136.629 33.9244C136.328 34.0601 135.931 34.1279 135.437 34.1279ZM135.655 32.8925C136.256 32.8925 136.74 32.7229 137.109 32.3838C137.477 32.035 137.661 31.5602 137.661 30.9594V30.8141H135.568C135.171 30.8141 134.851 30.9013 134.609 31.0757C134.366 31.2404 134.245 31.4875 134.245 31.817C134.245 32.1464 134.371 32.408 134.623 32.6018C134.875 32.7956 135.219 32.8925 135.655 32.8925ZM141.602 33.9244V23.7504H143.099V33.9244H141.602ZM148.981 33.9244V23.7504H150.551V32.5001H155.449V33.9244H148.981ZM160.26 34.1279C159.543 34.1279 158.903 33.9826 158.342 33.6919C157.789 33.3915 157.353 32.9652 157.033 32.4129C156.714 31.8606 156.554 31.2065 156.554 30.4507V30.2327C156.554 29.4769 156.714 28.8277 157.033 28.2851C157.353 27.7328 157.789 27.3065 158.342 27.0061C158.903 26.7057 159.543 26.5555 160.26 26.5555C160.977 26.5555 161.617 26.7057 162.179 27.0061C162.741 27.3065 163.181 27.7328 163.501 28.2851C163.821 28.8277 163.981 29.4769 163.981 30.2327V30.4507C163.981 31.2065 163.821 31.8606 163.501 32.4129C163.181 32.9652 162.741 33.3915 162.179 33.6919C161.617 33.9826 160.977 34.1279 160.26 34.1279ZM160.26 32.7908C160.919 32.7908 161.452 32.5824 161.859 32.1658C162.275 31.7394 162.484 31.1532 162.484 30.4071V30.2763C162.484 29.5302 162.28 28.9488 161.873 28.5322C161.466 28.1058 160.929 27.8927 160.26 27.8927C159.611 27.8927 159.078 28.1058 158.661 28.5322C158.254 28.9488 158.051 29.5302 158.051 30.2763V30.4071C158.051 31.1532 158.254 31.7394 158.661 32.1658C159.078 32.5824 159.611 32.7908 160.26 32.7908ZM168.068 34.1279C167.555 34.1279 167.095 34.0407 166.688 33.8663C166.29 33.6919 165.971 33.4351 165.728 33.096C165.496 32.7568 165.38 32.345 165.38 31.8606C165.38 31.3664 165.496 30.9594 165.728 30.6397C165.971 30.3102 166.295 30.0631 166.702 29.8984C167.119 29.7337 167.589 29.6513 168.112 29.6513H170.292V29.1862C170.292 28.7696 170.166 28.4353 169.914 28.1834C169.662 27.9314 169.275 27.8055 168.752 27.8055C168.238 27.8055 167.846 27.9266 167.574 28.1688C167.303 28.4111 167.124 28.726 167.036 29.1136L165.641 28.663C165.757 28.2754 165.942 27.9266 166.193 27.6165C166.455 27.2968 166.799 27.04 167.225 26.8462C167.652 26.6524 168.165 26.5555 168.766 26.5555C169.696 26.5555 170.428 26.7929 170.961 27.2677C171.494 27.7425 171.76 28.4159 171.76 29.288V32.2385C171.76 32.5291 171.896 32.6745 172.167 32.6745H172.778V33.9244H171.658C171.319 33.9244 171.043 33.8372 170.83 33.6628C170.617 33.4884 170.51 33.251 170.51 32.9506V32.907H170.292C170.215 33.0524 170.098 33.2219 169.943 33.4157C169.788 33.6095 169.561 33.7791 169.26 33.9244C168.96 34.0601 168.563 34.1279 168.068 34.1279ZM168.286 32.8925C168.887 32.8925 169.372 32.7229 169.74 32.3838C170.108 32.035 170.292 31.5602 170.292 30.9594V30.8141H168.199C167.802 30.8141 167.482 30.9013 167.24 31.0757C166.998 31.2404 166.877 31.4875 166.877 31.817C166.877 32.1464 167.003 32.408 167.254 32.6018C167.506 32.7956 167.85 32.8925 168.286 32.8925ZM174.233 33.9244V26.759H175.701V27.8345H175.934C176.069 27.5439 176.312 27.2725 176.66 27.0206C177.009 26.7687 177.528 26.6427 178.216 26.6427C178.758 26.6427 179.238 26.7638 179.654 27.0061C180.081 27.2483 180.415 27.5923 180.657 28.038C180.9 28.4741 181.021 29.0021 181.021 29.6223V33.9244H179.524V29.7385C179.524 29.1184 179.369 28.663 179.059 28.3723C178.748 28.0719 178.322 27.9217 177.78 27.9217C177.159 27.9217 176.66 28.1252 176.282 28.5322C175.914 28.9392 175.73 29.5302 175.73 30.3054V33.9244H174.233Z" fill="#102E34"/>
<path d="M85.0055 56.3596V47.4573H86.379V56.3596H85.0055ZM88.2855 50.8911V50.1407H88.7179C89.0655 50.1407 89.2393 49.9669 89.2393 49.6193V49.2123H89.0485C88.7518 49.2123 88.5059 49.1233 88.3109 48.9453C88.1159 48.7672 88.0184 48.5426 88.0184 48.2712C88.0184 47.9745 88.1159 47.7371 88.3109 47.5591C88.5059 47.3725 88.7518 47.2793 89.0485 47.2793C89.3453 47.2793 89.5869 47.3768 89.7734 47.5718C89.9684 47.7583 90.0659 48.0042 90.0659 48.3094V49.632C90.0659 50.4714 89.6463 50.8911 88.8069 50.8911H88.2855ZM91.7502 56.3596V50.0899H93.0347V50.8275H93.2382C93.3569 50.607 93.5476 50.412 93.8105 50.2425C94.0733 50.0729 94.4294 49.9881 94.8787 49.9881C95.345 49.9881 95.7181 50.0856 95.9979 50.2806C96.2861 50.4671 96.5023 50.7088 96.6465 51.0055H96.85C96.9941 50.7173 97.2018 50.4756 97.4731 50.2806C97.7529 50.0856 98.1472 49.9881 98.6559 49.9881C99.0628 49.9881 99.4231 50.0729 99.7368 50.2425C100.051 50.4036 100.301 50.6494 100.487 50.9801C100.674 51.3023 100.767 51.705 100.767 52.1883V56.3596H99.4571V52.29C99.4571 51.9085 99.3511 51.616 99.1391 51.4125C98.9356 51.2005 98.6431 51.0945 98.2616 51.0945C97.8546 51.0945 97.5282 51.226 97.2824 51.4888C97.0365 51.7516 96.9135 52.1289 96.9135 52.6207V56.3596H95.6036V52.29C95.6036 51.9085 95.4977 51.616 95.2857 51.4125C95.0822 51.2005 94.7897 51.0945 94.4082 51.0945C94.0012 51.0945 93.6748 51.226 93.4289 51.4888C93.1831 51.7516 93.0601 52.1289 93.0601 52.6207V56.3596H91.7502ZM105.896 56.3596V50.0899H107.181V50.8275H107.384C107.486 50.5646 107.647 50.3739 107.867 50.2552C108.096 50.128 108.376 50.0644 108.707 50.0644H109.457V51.2472H108.656C108.232 51.2472 107.884 51.3659 107.613 51.6032C107.342 51.8322 107.206 52.1883 107.206 52.6715V56.3596H105.896ZM113.465 56.5377C112.829 56.5377 112.274 56.4063 111.799 56.1434C111.324 55.8721 110.951 55.4948 110.68 55.0116C110.417 54.5198 110.285 53.9518 110.285 53.3074V53.1548C110.285 52.502 110.417 51.9339 110.68 51.4506C110.942 50.9589 111.307 50.5816 111.773 50.3188C112.248 50.0475 112.795 49.9118 113.414 49.9118C114.016 49.9118 114.542 50.0475 114.991 50.3188C115.449 50.5816 115.805 50.9504 116.059 51.4252C116.314 51.9 116.441 52.4553 116.441 53.0912V53.5872H111.621C111.638 54.1383 111.82 54.5792 112.168 54.9098C112.524 55.232 112.965 55.3931 113.49 55.3931C113.982 55.3931 114.351 55.2829 114.597 55.0624C114.851 54.842 115.046 54.5876 115.182 54.2994L116.263 54.8589C116.144 55.0963 115.97 55.3465 115.741 55.6093C115.521 55.8721 115.228 56.0926 114.864 56.2706C114.499 56.4486 114.033 56.5377 113.465 56.5377ZM111.633 52.5825H115.105C115.071 52.1077 114.902 51.7389 114.597 51.4761C114.291 51.2048 113.893 51.0691 113.401 51.0691C112.909 51.0691 112.507 51.2048 112.193 51.4761C111.888 51.7389 111.701 52.1077 111.633 52.5825ZM120.586 56.5377C119.789 56.5377 119.128 56.3596 118.602 56.0035C118.077 55.6474 117.755 55.1091 117.636 54.3884L118.857 54.0959C118.925 54.4435 119.039 54.7191 119.2 54.9225C119.361 55.126 119.561 55.2701 119.798 55.3549C120.044 55.4397 120.307 55.4821 120.586 55.4821C121.002 55.4821 121.32 55.4016 121.54 55.2405C121.769 55.0794 121.884 54.8717 121.884 54.6173C121.884 54.363 121.778 54.1764 121.566 54.0577C121.354 53.939 121.04 53.8415 120.625 53.7652L120.192 53.6889C119.768 53.6126 119.382 53.5024 119.035 53.3583C118.687 53.2141 118.412 53.0149 118.208 52.7605C118.005 52.5062 117.903 52.1798 117.903 51.7813C117.903 51.1878 118.123 50.73 118.564 50.4078C119.005 50.0771 119.59 49.9118 120.319 49.9118C121.023 49.9118 121.6 50.0729 122.049 50.3951C122.507 50.7088 122.804 51.1369 122.939 51.6796L121.718 52.0229C121.642 51.6414 121.481 51.3743 121.235 51.2217C120.989 51.0606 120.684 50.9801 120.319 50.9801C119.963 50.9801 119.683 51.0479 119.48 51.1836C119.277 51.3107 119.175 51.493 119.175 51.7304C119.175 51.9848 119.272 52.1713 119.467 52.29C119.671 52.4087 119.942 52.4977 120.281 52.5571L120.726 52.6334C121.176 52.7097 121.587 52.8157 121.96 52.9513C122.333 53.087 122.625 53.282 122.837 53.5363C123.058 53.7907 123.168 54.1298 123.168 54.5537C123.168 55.1811 122.935 55.6686 122.469 56.0162C122.002 56.3639 121.375 56.5377 120.586 56.5377ZM124.699 58.9031V50.0899H125.984V50.9928H126.187C126.348 50.713 126.59 50.4629 126.912 50.2425C127.243 50.022 127.713 49.9118 128.324 49.9118C128.849 49.9118 129.328 50.039 129.761 50.2933C130.202 50.5477 130.553 50.9165 130.816 51.3998C131.088 51.8746 131.223 52.4511 131.223 53.1294V53.3201C131.223 53.9984 131.092 54.5792 130.829 55.0624C130.566 55.5372 130.214 55.9018 129.773 56.1561C129.333 56.4105 128.849 56.5377 128.324 56.5377C127.917 56.5377 127.573 56.4868 127.294 56.3851C127.014 56.2833 126.789 56.1561 126.62 56.0035C126.45 55.8424 126.314 55.6771 126.213 55.5075H126.009V58.9031H124.699ZM127.942 55.3931C128.519 55.3931 128.989 55.2108 129.354 54.8462C129.718 54.4817 129.901 53.9602 129.901 53.282V53.1675C129.901 52.4977 129.714 51.9805 129.341 51.616C128.976 51.2514 128.51 51.0691 127.942 51.0691C127.383 51.0691 126.916 51.2514 126.543 51.616C126.179 51.9805 125.996 52.4977 125.996 53.1675V53.282C125.996 53.9602 126.179 54.4817 126.543 54.8462C126.916 55.2108 127.383 55.3931 127.942 55.3931ZM135.784 56.5377C135.157 56.5377 134.597 56.4105 134.105 56.1561C133.622 55.8933 133.241 55.5203 132.961 55.037C132.681 54.5537 132.541 53.9814 132.541 53.3201V53.1294C132.541 52.468 132.681 51.9 132.961 51.4252C133.241 50.9419 133.622 50.5689 134.105 50.3061C134.597 50.0432 135.157 49.9118 135.784 49.9118C136.412 49.9118 136.971 50.0432 137.463 50.3061C137.955 50.5689 138.34 50.9419 138.62 51.4252C138.9 51.9 139.04 52.468 139.04 53.1294V53.3201C139.04 53.9814 138.9 54.5537 138.62 55.037C138.34 55.5203 137.955 55.8933 137.463 56.1561C136.971 56.4105 136.412 56.5377 135.784 56.5377ZM135.784 55.3676C136.361 55.3676 136.827 55.1854 137.183 54.8208C137.548 54.4477 137.73 53.9348 137.73 53.282V53.1675C137.73 52.5147 137.552 52.006 137.196 51.6414C136.84 51.2684 136.369 51.0818 135.784 51.0818C135.216 51.0818 134.75 51.2684 134.385 51.6414C134.029 52.006 133.851 52.5147 133.851 53.1675V53.282C133.851 53.9348 134.029 54.4477 134.385 54.8208C134.75 55.1854 135.216 55.3676 135.784 55.3676ZM140.671 56.3596V50.0899H141.955V51.031H142.159C142.277 50.7766 142.489 50.5392 142.794 50.3188C143.1 50.0983 143.553 49.9881 144.155 49.9881C144.63 49.9881 145.05 50.0941 145.414 50.3061C145.787 50.518 146.08 50.819 146.292 51.209C146.504 51.5905 146.61 52.0526 146.61 52.5952V56.3596H145.3V52.697C145.3 52.1543 145.164 51.7559 144.893 51.5015C144.622 51.2387 144.249 51.1073 143.774 51.1073C143.231 51.1073 142.794 51.2853 142.464 51.6414C142.142 51.9975 141.981 52.5147 141.981 53.1929V56.3596H140.671ZM151.064 56.5377C150.267 56.5377 149.606 56.3596 149.08 56.0035C148.554 55.6474 148.232 55.1091 148.113 54.3884L149.334 54.0959C149.402 54.4435 149.517 54.7191 149.678 54.9225C149.839 55.126 150.038 55.2701 150.275 55.3549C150.521 55.4397 150.784 55.4821 151.064 55.4821C151.479 55.4821 151.797 55.4016 152.018 55.2405C152.247 55.0794 152.361 54.8717 152.361 54.6173C152.361 54.363 152.255 54.1764 152.043 54.0577C151.831 53.939 151.517 53.8415 151.102 53.7652L150.67 53.6889C150.246 53.6126 149.86 53.5024 149.512 53.3583C149.165 53.2141 148.889 53.0149 148.686 52.7605C148.482 52.5062 148.38 52.1798 148.38 51.7813C148.38 51.1878 148.601 50.73 149.042 50.4078C149.483 50.0771 150.068 49.9118 150.797 49.9118C151.501 49.9118 152.077 50.0729 152.526 50.3951C152.984 50.7088 153.281 51.1369 153.417 51.6796L152.196 52.0229C152.119 51.6414 151.958 51.3743 151.712 51.2217C151.467 51.0606 151.161 50.9801 150.797 50.9801C150.441 50.9801 150.161 51.0479 149.957 51.1836C149.754 51.3107 149.652 51.493 149.652 51.7304C149.652 51.9848 149.75 52.1713 149.945 52.29C150.148 52.4087 150.42 52.4977 150.759 52.5571L151.204 52.6334C151.653 52.7097 152.064 52.8157 152.437 52.9513C152.81 53.087 153.103 53.282 153.315 53.5363C153.535 53.7907 153.646 54.1298 153.646 54.5537C153.646 55.1811 153.412 55.6686 152.946 56.0162C152.48 56.3639 151.852 56.5377 151.064 56.5377ZM155.177 56.3596V50.0899H156.487V56.3596H155.177ZM155.838 49.2378C155.584 49.2378 155.367 49.1572 155.189 48.9961C155.02 48.8266 154.935 48.6104 154.935 48.3475C154.935 48.0847 155.02 47.8728 155.189 47.7117C155.367 47.5421 155.584 47.4573 155.838 47.4573C156.101 47.4573 156.317 47.5421 156.487 47.7117C156.656 47.8728 156.741 48.0847 156.741 48.3475C156.741 48.6104 156.656 48.8266 156.487 48.9961C156.317 49.1572 156.101 49.2378 155.838 49.2378ZM162.055 56.5377C161.445 56.5377 160.974 56.4274 160.643 56.207C160.321 55.9866 160.08 55.7407 159.918 55.4694H159.715V56.3596H158.431V47.4573H159.74V50.9419H159.944C160.046 50.7724 160.181 50.6113 160.351 50.4587C160.52 50.2976 160.745 50.1662 161.025 50.0644C161.305 49.9627 161.648 49.9118 162.055 49.9118C162.581 49.9118 163.064 50.039 163.505 50.2933C163.946 50.5477 164.298 50.9165 164.56 51.3998C164.823 51.883 164.955 52.4596 164.955 53.1294V53.3201C164.955 53.9984 164.819 54.5792 164.548 55.0624C164.285 55.5372 163.933 55.9018 163.492 56.1561C163.06 56.4105 162.581 56.5377 162.055 56.5377ZM161.673 55.3931C162.242 55.3931 162.708 55.2108 163.072 54.8462C163.445 54.4817 163.632 53.9602 163.632 53.282V53.1675C163.632 52.4977 163.45 51.9805 163.085 51.616C162.721 51.2514 162.25 51.0691 161.673 51.0691C161.114 51.0691 160.648 51.2514 160.275 51.616C159.91 51.9805 159.728 52.4977 159.728 53.1675V53.282C159.728 53.9602 159.91 54.4817 160.275 54.8462C160.648 55.2108 161.114 55.3931 161.673 55.3931ZM166.578 56.3596V47.4573H167.888V56.3596H166.578ZM172.706 56.5377C172.07 56.5377 171.515 56.4063 171.04 56.1434C170.565 55.8721 170.192 55.4948 169.921 55.0116C169.658 54.5198 169.526 53.9518 169.526 53.3074V53.1548C169.526 52.502 169.658 51.9339 169.921 51.4506C170.183 50.9589 170.548 50.5816 171.014 50.3188C171.489 50.0475 172.036 49.9118 172.655 49.9118C173.257 49.9118 173.783 50.0475 174.232 50.3188C174.69 50.5816 175.046 50.9504 175.3 51.4252C175.555 51.9 175.682 52.4553 175.682 53.0912V53.5872H170.862C170.879 54.1383 171.061 54.5792 171.409 54.9098C171.765 55.232 172.206 55.3931 172.731 55.3931C173.223 55.3931 173.592 55.2829 173.838 55.0624C174.092 54.842 174.287 54.5876 174.423 54.2994L175.504 54.8589C175.385 55.0963 175.211 55.3465 174.982 55.6093C174.762 55.8721 174.469 56.0926 174.105 56.2706C173.74 56.4486 173.274 56.5377 172.706 56.5377ZM170.874 52.5825H174.346C174.312 52.1077 174.143 51.7389 173.838 51.4761C173.532 51.2048 173.134 51.0691 172.642 51.0691C172.15 51.0691 171.748 51.2048 171.434 51.4761C171.129 51.7389 170.942 52.1077 170.874 52.5825ZM181.632 56.3596V51.1963H179.877V50.0899H181.632V48.7164C181.632 48.3348 181.746 48.0296 181.975 47.8007C182.204 47.5718 182.509 47.4573 182.891 47.4573H184.506V48.5637H183.311C183.065 48.5637 182.942 48.6909 182.942 48.9453V50.0899H184.748V51.1963H182.942V56.3596H181.632ZM188.766 56.5377C188.138 56.5377 187.579 56.4105 187.087 56.1561C186.604 55.8933 186.222 55.5203 185.942 55.037C185.663 54.5537 185.523 53.9814 185.523 53.3201V53.1294C185.523 52.468 185.663 51.9 185.942 51.4252C186.222 50.9419 186.604 50.5689 187.087 50.3061C187.579 50.0432 188.138 49.9118 188.766 49.9118C189.393 49.9118 189.953 50.0432 190.444 50.3061C190.936 50.5689 191.322 50.9419 191.602 51.4252C191.882 51.9 192.021 52.468 192.021 53.1294V53.3201C192.021 53.9814 191.882 54.5537 191.602 55.037C191.322 55.5203 190.936 55.8933 190.444 56.1561C189.953 56.4105 189.393 56.5377 188.766 56.5377ZM188.766 55.3676C189.342 55.3676 189.809 55.1854 190.165 54.8208C190.529 54.4477 190.711 53.9348 190.711 53.282V53.1675C190.711 52.5147 190.533 52.006 190.177 51.6414C189.821 51.2684 189.351 51.0818 188.766 51.0818C188.198 51.0818 187.731 51.2684 187.367 51.6414C187.011 52.006 186.833 52.5147 186.833 53.1675V53.282C186.833 53.9348 187.011 54.4477 187.367 54.8208C187.731 55.1854 188.198 55.3676 188.766 55.3676ZM193.652 56.3596V50.0899H194.937V50.8275H195.14C195.242 50.5646 195.403 50.3739 195.623 50.2552C195.852 50.128 196.132 50.0644 196.463 50.0644H197.213V51.2472H196.412C195.988 51.2472 195.64 51.3659 195.369 51.6032C195.098 51.8322 194.962 52.1883 194.962 52.6715V56.3596H193.652ZM204.165 56.3596C203.783 56.3596 203.478 56.2452 203.249 56.0162C203.028 55.7873 202.918 55.4821 202.918 55.1006V51.1963H201.189V50.0899H202.918V48.0169H204.228V50.0899H206.098V51.1963H204.228V54.8717C204.228 55.126 204.347 55.2532 204.584 55.2532H205.894V56.3596H204.165ZM207.637 56.3596V47.4573H208.946V50.9801H209.15C209.235 50.819 209.353 50.6621 209.506 50.5095C209.667 50.3569 209.875 50.234 210.129 50.1407C210.392 50.039 210.723 49.9881 211.121 49.9881C211.596 49.9881 212.016 50.0941 212.38 50.3061C212.753 50.518 213.046 50.819 213.258 51.209C213.47 51.5905 213.576 52.0526 213.576 52.5952V56.3596H212.266V52.697C212.266 52.1543 212.13 51.7559 211.859 51.5015C211.588 51.2387 211.214 51.1073 210.74 51.1073C210.197 51.1073 209.76 51.2853 209.43 51.6414C209.108 51.9975 208.946 52.5147 208.946 53.1929V56.3596H207.637ZM218.335 56.5377C217.699 56.5377 217.144 56.4063 216.669 56.1434C216.194 55.8721 215.821 55.4948 215.55 55.0116C215.287 54.5198 215.156 53.9518 215.156 53.3074V53.1548C215.156 52.502 215.287 51.9339 215.55 51.4506C215.813 50.9589 216.177 50.5816 216.644 50.3188C217.118 50.0475 217.665 49.9118 218.284 49.9118C218.886 49.9118 219.412 50.0475 219.861 50.3188C220.319 50.5816 220.675 50.9504 220.929 51.4252C221.184 51.9 221.311 52.4553 221.311 53.0912V53.5872H216.491C216.508 54.1383 216.69 54.5792 217.038 54.9098C217.394 55.232 217.835 55.3931 218.36 55.3931C218.852 55.3931 219.221 55.2829 219.467 55.0624C219.721 54.842 219.916 54.5876 220.052 54.2994L221.133 54.8589C221.014 55.0963 220.84 55.3465 220.611 55.6093C220.391 55.8721 220.099 56.0926 219.734 56.2706C219.369 56.4486 218.903 56.5377 218.335 56.5377ZM216.504 52.5825H219.976C219.942 52.1077 219.772 51.7389 219.467 51.4761C219.162 51.2048 218.763 51.0691 218.271 51.0691C217.78 51.0691 217.377 51.2048 217.063 51.4761C216.758 51.7389 216.572 52.1077 216.504 52.5825ZM85.0437 74.9031V66.0899H86.3282V66.9928H86.5316C86.6927 66.713 86.9344 66.4629 87.2565 66.2425C87.5872 66.022 88.0577 65.9118 88.6682 65.9118C89.1939 65.9118 89.6729 66.039 90.1053 66.2933C90.5462 66.5477 90.898 66.9165 91.1608 67.3998C91.4321 67.8746 91.5678 68.4511 91.5678 69.1294V69.3201C91.5678 69.9984 91.4364 70.5792 91.1736 71.0624C90.9107 71.5372 90.5589 71.9018 90.118 72.1561C89.6771 72.4105 89.1939 72.5377 88.6682 72.5377C88.2612 72.5377 87.9179 72.4868 87.6381 72.3851C87.3583 72.2833 87.1336 72.1561 86.964 72.0035C86.7945 71.8424 86.6588 71.6771 86.5571 71.5075H86.3536V74.9031H85.0437ZM88.2867 71.3931C88.8632 71.3931 89.3337 71.2108 89.6983 70.8462C90.0629 70.4817 90.2452 69.9602 90.2452 69.282V69.1675C90.2452 68.4977 90.0586 67.9805 89.6856 67.616C89.321 67.2514 88.8547 67.0691 88.2867 67.0691C87.7271 67.0691 87.2608 67.2514 86.8877 67.616C86.5232 67.9805 86.3409 68.4977 86.3409 69.1675V69.282C86.3409 69.9602 86.5232 70.4817 86.8877 70.8462C87.2608 71.2108 87.7271 71.3931 88.2867 71.3931ZM95.1367 72.5377C94.6873 72.5377 94.2846 72.4614 93.9285 72.3087C93.5809 72.1561 93.3011 71.9315 93.0891 71.6347C92.8857 71.338 92.7839 70.9776 92.7839 70.5537C92.7839 70.1213 92.8857 69.7652 93.0891 69.4854C93.3011 69.1972 93.5851 68.981 93.9412 68.8369C94.3058 68.6927 94.717 68.6207 95.1748 68.6207H97.0825V68.2137C97.0825 67.8491 96.9722 67.5566 96.7518 67.3362C96.5314 67.1157 96.1922 67.0055 95.7344 67.0055C95.285 67.0055 94.9417 67.1115 94.7043 67.3235C94.4669 67.5354 94.31 67.811 94.2337 68.1501L93.0128 67.7559C93.1146 67.4167 93.2757 67.1115 93.4961 66.8402C93.725 66.5604 94.026 66.3357 94.399 66.1662C94.7721 65.9966 95.2214 65.9118 95.7471 65.9118C96.561 65.9118 97.2012 66.1195 97.6675 66.535C98.1338 66.9504 98.3669 67.5397 98.3669 68.3027V70.8844C98.3669 71.1387 98.4856 71.2659 98.723 71.2659H99.2572V72.3596H98.2779C97.9812 72.3596 97.7395 72.2833 97.553 72.1307C97.3665 71.9781 97.2732 71.7704 97.2732 71.5075V71.4694H97.0825C97.0146 71.5966 96.9129 71.7449 96.7772 71.9145C96.6416 72.0841 96.4423 72.2324 96.1795 72.3596C95.9167 72.4783 95.5691 72.5377 95.1367 72.5377ZM95.3274 71.4567C95.8531 71.4567 96.277 71.3083 96.5992 71.0116C96.9214 70.7063 97.0825 70.2909 97.0825 69.7652V69.6381H95.2511C94.9035 69.6381 94.6237 69.7144 94.4118 69.867C94.1998 70.0111 94.0938 70.2273 94.0938 70.5156C94.0938 70.8038 94.204 71.0328 94.4245 71.2023C94.6449 71.3719 94.9459 71.4567 95.3274 71.4567ZM101.094 74.9031V73.7586H104.592C104.829 73.7586 104.948 73.6314 104.948 73.377V71.444H104.744C104.668 71.6135 104.549 71.7789 104.388 71.9399C104.235 72.0926 104.028 72.2197 103.765 72.3215C103.502 72.4232 103.171 72.4741 102.773 72.4741C102.298 72.4741 101.874 72.3681 101.501 72.1561C101.128 71.9442 100.836 71.6432 100.624 71.2532C100.412 70.8632 100.306 70.4011 100.306 69.867V66.0899H101.616V69.7652C101.616 70.3079 101.751 70.7106 102.023 70.9734C102.294 71.2278 102.671 71.3549 103.154 71.3549C103.689 71.3549 104.117 71.1769 104.439 70.8208C104.77 70.4647 104.935 69.9475 104.935 69.2692V66.0899H106.245V73.6441C106.245 74.0256 106.13 74.3308 105.901 74.5598C105.681 74.7887 105.376 74.9031 104.986 74.9031H101.094ZM108.181 72.3596V66.0899H109.466V66.8275H109.669C109.788 66.607 109.979 66.412 110.241 66.2425C110.504 66.0729 110.86 65.9881 111.31 65.9881C111.776 65.9881 112.149 66.0856 112.429 66.2806C112.717 66.4671 112.933 66.7088 113.077 67.0055H113.281C113.425 66.7173 113.633 66.4756 113.904 66.2806C114.184 66.0856 114.578 65.9881 115.087 65.9881C115.494 65.9881 115.854 66.0729 116.168 66.2425C116.482 66.4036 116.732 66.6494 116.918 66.9801C117.105 67.3023 117.198 67.705 117.198 68.1883V72.3596H115.888V68.29C115.888 67.9085 115.782 67.616 115.57 67.4125C115.367 67.2005 115.074 67.0945 114.693 67.0945C114.286 67.0945 113.959 67.226 113.713 67.4888C113.467 67.7516 113.345 68.1289 113.345 68.6207V72.3596H112.035V68.29C112.035 67.9085 111.929 67.616 111.717 67.4125C111.513 67.2005 111.221 67.0945 110.839 67.0945C110.432 67.0945 110.106 67.226 109.86 67.4888C109.614 67.7516 109.491 68.1289 109.491 68.6207V72.3596H108.181ZM121.96 72.5377C121.324 72.5377 120.768 72.4063 120.294 72.1434C119.819 71.8721 119.446 71.4948 119.175 71.0116C118.912 70.5198 118.78 69.9518 118.78 69.3074V69.1548C118.78 68.502 118.912 67.9339 119.175 67.4506C119.437 66.9589 119.802 66.5816 120.268 66.3188C120.743 66.0475 121.29 65.9118 121.909 65.9118C122.511 65.9118 123.036 66.0475 123.486 66.3188C123.944 66.5816 124.3 66.9504 124.554 67.4252C124.808 67.9 124.936 68.4553 124.936 69.0912V69.5872H120.116C120.133 70.1383 120.315 70.5792 120.663 70.9098C121.019 71.232 121.459 71.3931 121.985 71.3931C122.477 71.3931 122.846 71.2829 123.092 71.0624C123.346 70.842 123.541 70.5876 123.677 70.2994L124.758 70.8589C124.639 71.0963 124.465 71.3465 124.236 71.6093C124.016 71.8721 123.723 72.0926 123.359 72.2706C122.994 72.4486 122.528 72.5377 121.96 72.5377ZM120.128 68.5825H123.6C123.566 68.1077 123.397 67.7389 123.092 67.4761C122.786 67.2048 122.388 67.0691 121.896 67.0691C121.404 67.0691 121.002 67.2048 120.688 67.4761C120.383 67.7389 120.196 68.1077 120.128 68.5825ZM126.512 72.3596V66.0899H127.797V67.031H128C128.119 66.7766 128.331 66.5392 128.636 66.3188C128.941 66.0983 129.395 65.9881 129.997 65.9881C130.472 65.9881 130.891 66.0941 131.256 66.3061C131.629 66.518 131.922 66.819 132.134 67.209C132.346 67.5905 132.452 68.0526 132.452 68.5952V72.3596H131.142V68.697C131.142 68.1543 131.006 67.7559 130.735 67.5015C130.463 67.2387 130.09 67.1073 129.615 67.1073C129.073 67.1073 128.636 67.2853 128.306 67.6414C127.983 67.9975 127.822 68.5147 127.822 69.1929V72.3596H126.512ZM136.516 72.3596C136.134 72.3596 135.829 72.2452 135.6 72.0162C135.379 71.7873 135.269 71.4821 135.269 71.1006V67.1963H133.54V66.0899H135.269V64.0169H136.579V66.0899H138.449V67.1963H136.579V70.8717C136.579 71.126 136.698 71.2532 136.935 71.2532H138.245V72.3596H136.516ZM146.167 72.5377C145.539 72.5377 144.98 72.4105 144.488 72.1561C144.005 71.8933 143.623 71.5203 143.344 71.037C143.064 70.5537 142.924 69.9814 142.924 69.3201V69.1294C142.924 68.468 143.064 67.9 143.344 67.4252C143.623 66.9419 144.005 66.5689 144.488 66.3061C144.98 66.0432 145.539 65.9118 146.167 65.9118C146.794 65.9118 147.354 66.0432 147.846 66.3061C148.337 66.5689 148.723 66.9419 149.003 67.4252C149.283 67.9 149.423 68.468 149.423 69.1294V69.3201C149.423 69.9814 149.283 70.5537 149.003 71.037C148.723 71.5203 148.337 71.8933 147.846 72.1561C147.354 72.4105 146.794 72.5377 146.167 72.5377ZM146.167 71.3676C146.743 71.3676 147.21 71.1854 147.566 70.8208C147.93 70.4477 148.113 69.9348 148.113 69.282V69.1675C148.113 68.5147 147.935 68.006 147.578 67.6414C147.222 67.2684 146.752 67.0818 146.167 67.0818C145.599 67.0818 145.132 67.2684 144.768 67.6414C144.412 68.006 144.234 68.5147 144.234 69.1675V69.282C144.234 69.9348 144.412 70.4477 144.768 70.8208C145.132 71.1854 145.599 71.3676 146.167 71.3676ZM151.949 72.3596V67.1963H150.194V66.0899H151.949V64.7164C151.949 64.3348 152.064 64.0296 152.293 63.8007C152.522 63.5718 152.827 63.4573 153.208 63.4573H154.823V64.5637H153.628C153.382 64.5637 153.259 64.6909 153.259 64.9453V66.0899H155.065V67.1963H153.259V72.3596H151.949ZM162 72.3596C161.619 72.3596 161.314 72.2452 161.085 72.0162C160.864 71.7873 160.754 71.4821 160.754 71.1006V67.1963H159.024V66.0899H160.754V64.0169H162.064V66.0899H163.933V67.1963H162.064V70.8717C162.064 71.126 162.183 71.2532 162.42 71.2532H163.73V72.3596H162ZM165.472 72.3596V63.4573H166.782V66.9801H166.986C167.071 66.819 167.189 66.6621 167.342 66.5095C167.503 66.3569 167.711 66.234 167.965 66.1407C168.228 66.039 168.559 65.9881 168.957 65.9881C169.432 65.9881 169.851 66.0941 170.216 66.3061C170.589 66.518 170.882 66.819 171.094 67.209C171.305 67.5905 171.411 68.0526 171.411 68.5952V72.3596H170.102V68.697C170.102 68.1543 169.966 67.7559 169.695 67.5015C169.423 67.2387 169.05 67.1073 168.575 67.1073C168.033 67.1073 167.596 67.2853 167.266 67.6414C166.943 67.9975 166.782 68.5147 166.782 69.1929V72.3596H165.472ZM173.297 72.3596V66.0899H174.607V72.3596H173.297ZM173.958 65.2378C173.704 65.2378 173.487 65.1572 173.309 64.9961C173.14 64.8266 173.055 64.6104 173.055 64.3475C173.055 64.0847 173.14 63.8728 173.309 63.7117C173.487 63.5421 173.704 63.4573 173.958 63.4573C174.221 63.4573 174.437 63.5421 174.607 63.7117C174.776 63.8728 174.861 64.0847 174.861 64.3475C174.861 64.6104 174.776 64.8266 174.607 64.9961C174.437 65.1572 174.221 65.2378 173.958 65.2378ZM179.12 72.5377C178.323 72.5377 177.661 72.3596 177.136 72.0035C176.61 71.6474 176.288 71.1091 176.169 70.3884L177.39 70.0959C177.458 70.4435 177.572 70.7191 177.733 70.9225C177.894 71.126 178.094 71.2701 178.331 71.3549C178.577 71.4397 178.84 71.4821 179.12 71.4821C179.535 71.4821 179.853 71.4016 180.073 71.2405C180.302 71.0794 180.417 70.8717 180.417 70.6173C180.417 70.363 180.311 70.1764 180.099 70.0577C179.887 69.939 179.573 69.8415 179.158 69.7652L178.725 69.6889C178.301 69.6126 177.916 69.5024 177.568 69.3583C177.22 69.2141 176.945 69.0149 176.741 68.7605C176.538 68.5062 176.436 68.1798 176.436 67.7813C176.436 67.1878 176.657 66.73 177.097 66.4078C177.538 66.0771 178.123 65.9118 178.852 65.9118C179.556 65.9118 180.133 66.0729 180.582 66.3951C181.04 66.7088 181.337 67.1369 181.472 67.6796L180.251 68.0229C180.175 67.6414 180.014 67.3743 179.768 67.2217C179.522 67.0606 179.217 66.9801 178.852 66.9801C178.496 66.9801 178.217 67.0479 178.013 67.1836C177.81 67.3107 177.708 67.493 177.708 67.7304C177.708 67.9848 177.805 68.1713 178 68.29C178.204 68.4087 178.475 68.4977 178.814 68.5571L179.259 68.6334C179.709 68.7097 180.12 68.8157 180.493 68.9513C180.866 69.087 181.159 69.282 181.371 69.5363C181.591 69.7907 181.701 70.1298 181.701 70.5537C181.701 71.1811 181.468 71.6686 181.002 72.0162C180.535 72.3639 179.908 72.5377 179.12 72.5377ZM186.474 72.3596V63.4573H187.784V72.3596H186.474ZM192.665 72.5377C192.038 72.5377 191.478 72.4105 190.987 72.1561C190.503 71.8933 190.122 71.5203 189.842 71.037C189.562 70.5537 189.422 69.9814 189.422 69.3201V69.1294C189.422 68.468 189.562 67.9 189.842 67.4252C190.122 66.9419 190.503 66.5689 190.987 66.3061C191.478 66.0432 192.038 65.9118 192.665 65.9118C193.293 65.9118 193.852 66.0432 194.344 66.3061C194.836 66.5689 195.222 66.9419 195.501 67.4252C195.781 67.9 195.921 68.468 195.921 69.1294V69.3201C195.921 69.9814 195.781 70.5537 195.501 71.037C195.222 71.5203 194.836 71.8933 194.344 72.1561C193.852 72.4105 193.293 72.5377 192.665 72.5377ZM192.665 71.3676C193.242 71.3676 193.708 71.1854 194.064 70.8208C194.429 70.4477 194.611 69.9348 194.611 69.282V69.1675C194.611 68.5147 194.433 68.006 194.077 67.6414C193.721 67.2684 193.25 67.0818 192.665 67.0818C192.097 67.0818 191.631 67.2684 191.266 67.6414C190.91 68.006 190.732 68.5147 190.732 69.1675V69.282C190.732 69.9348 190.91 70.4477 191.266 70.8208C191.631 71.1854 192.097 71.3676 192.665 71.3676ZM199.498 72.5377C199.048 72.5377 198.646 72.4614 198.29 72.3087C197.942 72.1561 197.662 71.9315 197.45 71.6347C197.247 71.338 197.145 70.9776 197.145 70.5537C197.145 70.1213 197.247 69.7652 197.45 69.4854C197.662 69.1972 197.946 68.981 198.302 68.8369C198.667 68.6927 199.078 68.6207 199.536 68.6207H201.444V68.2137C201.444 67.8491 201.333 67.5566 201.113 67.3362C200.892 67.1157 200.553 67.0055 200.095 67.0055C199.646 67.0055 199.303 67.1115 199.065 67.3235C198.828 67.5354 198.671 67.811 198.595 68.1501L197.374 67.7559C197.476 67.4167 197.637 67.1115 197.857 66.8402C198.086 66.5604 198.387 66.3357 198.76 66.1662C199.133 65.9966 199.583 65.9118 200.108 65.9118C200.922 65.9118 201.562 66.1195 202.029 66.535C202.495 66.9504 202.728 67.5397 202.728 68.3027V70.8844C202.728 71.1387 202.847 71.2659 203.084 71.2659H203.618V72.3596H202.639C202.342 72.3596 202.101 72.2833 201.914 72.1307C201.728 71.9781 201.634 71.7704 201.634 71.5075V71.4694H201.444C201.376 71.5966 201.274 71.7449 201.138 71.9145C201.003 72.0841 200.803 72.2324 200.541 72.3596C200.278 72.4783 199.93 72.5377 199.498 72.5377ZM199.688 71.4567C200.214 71.4567 200.638 71.3083 200.96 71.0116C201.282 70.7063 201.444 70.2909 201.444 69.7652V69.6381H199.612C199.265 69.6381 198.985 69.7144 198.773 69.867C198.561 70.0111 198.455 70.2273 198.455 70.5156C198.455 70.8038 198.565 71.0328 198.786 71.2023C199.006 71.3719 199.307 71.4567 199.688 71.4567ZM204.892 72.3596V66.0899H206.176V67.031H206.38C206.499 66.7766 206.71 66.5392 207.016 66.3188C207.321 66.0983 207.775 65.9881 208.376 65.9881C208.851 65.9881 209.271 66.0941 209.636 66.3061C210.009 66.518 210.301 66.819 210.513 67.209C210.725 67.5905 210.831 68.0526 210.831 68.5952V72.3596H209.521V68.697C209.521 68.1543 209.385 67.7559 209.114 67.5015C208.843 67.2387 208.47 67.1073 207.995 67.1073C207.452 67.1073 207.016 67.2853 206.685 67.6414C206.363 67.9975 206.202 68.5147 206.202 69.1929V72.3596H204.892Z" fill="#102E34"/>
<circle cx="42.2904" cy="47.9933" r="19.9848" fill="#E9E9E9"/>
<path fill-rule="evenodd" clip-rule="evenodd" d="M42.291 57.0774C46.8062 57.0774 50.4666 53.417 50.4666 48.9018C50.4666 44.3867 46.8062 40.7263 42.291 40.7263C37.7758 40.7263 34.1154 44.3867 34.1154 48.9018C34.1154 53.417 37.7758 57.0774 42.291 57.0774ZM42.291 57.9858C47.3081 57.9858 51.375 53.9189 51.375 48.9018C51.375 43.8848 47.3081 39.8179 42.291 39.8179C37.2739 39.8179 33.207 43.8848 33.207 48.9018C33.207 53.9189 37.2739 57.9858 42.291 57.9858Z" fill="#102E34"/>
<circle opacity="0.2" cx="42.2918" cy="48.9018" r="8.17558" fill="#102E34"/>
<path d="M36.8408 54.1843C36.8408 53.7151 37.1915 53.3186 37.6584 53.2668C41.1625 52.8789 43.4358 52.9139 46.9322 53.2755C47.1068 53.2938 47.2723 53.3626 47.4084 53.4734C47.5446 53.5842 47.6455 53.7323 47.6989 53.8996C47.7523 54.0668 47.7558 54.246 47.709 54.4152C47.6622 54.5844 47.5672 54.7364 47.4355 54.8524C43.3091 58.4492 40.9509 58.3997 37.1315 54.8561C36.9453 54.6835 36.8408 54.4382 36.8408 54.1848V54.1843Z" fill="#102E34"/>
<path fill-rule="evenodd" clip-rule="evenodd" d="M46.8846 53.727C43.4158 53.3682 41.1753 53.3346 37.707 53.7184C37.4736 53.7443 37.2941 53.9437 37.2941 54.1848C37.2941 54.3147 37.3482 54.4378 37.4395 54.5232C39.3326 56.2792 40.7669 57.0726 42.1691 57.0776C43.5762 57.0826 45.0877 56.2955 47.1362 54.5105C47.2013 54.4526 47.2481 54.377 47.271 54.2929C47.294 54.2089 47.292 54.12 47.2653 54.0371C47.2387 53.9541 47.1885 53.8807 47.1209 53.8257C47.0533 53.7708 46.9712 53.7366 46.8846 53.7275V53.727ZM37.6075 52.8154C41.1485 52.4235 43.4549 52.4589 46.9786 52.8236C47.2412 52.851 47.4902 52.9544 47.695 53.1212C47.8998 53.2879 48.0515 53.5107 48.1317 53.7624C48.2118 54.014 48.2168 54.2836 48.146 54.538C48.0753 54.7925 47.9319 55.0208 47.7335 55.195C45.6555 57.0063 43.925 57.9928 42.1663 57.986C40.4027 57.9797 38.7485 56.9763 36.8222 55.1891C36.6843 55.0606 36.5744 54.9051 36.4993 54.7322C36.4242 54.5594 36.3855 54.3729 36.3857 54.1844C36.3851 53.8457 36.5094 53.5188 36.7348 53.2661C36.9603 53.0134 37.271 52.8528 37.6075 52.815V52.8154Z" fill="#102E34"/>
<path d="M45.9244 47.085C45.9244 48.0487 45.5416 48.9729 44.8602 49.6543C44.1787 50.3358 43.2545 50.7186 42.2908 50.7186C41.3271 50.7186 40.4029 50.3358 39.7215 49.6543C39.0401 48.9729 38.6572 48.0487 38.6572 47.085C38.6572 46.1213 39.0401 45.1971 39.7215 44.5157C40.4029 43.8342 41.3271 43.4514 42.2908 43.4514C43.2545 43.4514 44.1787 43.8342 44.8602 44.5157C45.5416 45.1971 45.9244 46.1213 45.9244 47.085Z" fill="#102E34"/>
</g>
</g>
<defs>
<filter id="filter0_d_1191_57674" x="-45.8107" y="-23.2086" width="389.677" height="188.921" filterUnits="userSpaceOnUse" color-interpolation-filters="sRGB">
<feFlood flood-opacity="0" result="BackgroundImageFix"/>
<feColorMatrix in="SourceAlpha" type="matrix" values="0 0 0 0 0 0 0 0 0 0 0 0 0 0 0 0 0 0 127 0" result="hardAlpha"/>
<feMorphology radius="4.96704" operator="dilate" in="SourceAlpha" result="effect1_dropShadow_1191_57674"/>
<feOffset dy="23.2585"/>
<feGaussianBlur stdDeviation="20.6743"/>
<feComposite in2="hardAlpha" operator="out"/>
<feColorMatrix type="matrix" values="0 0 0 0 0.0590972 0 0 0 0 0.143837 0 0 0 0 0.308333 0 0 0 0.2 0"/>
<feBlend mode="normal" in2="BackgroundImageFix" result="effect1_dropShadow_1191_57674"/>
<feBlend mode="normal" in="SourceGraphic" in2="effect1_dropShadow_1191_57674" result="shape"/>
</filter>
<clipPath id="clip0_1191_57674">
<rect width="297.192" height="245.507" fill="white" transform="translate(0.296875 0.105957)"/>
</clipPath>
</defs>
</svg>
