<svg width="218" height="331" viewBox="0 0 218 331" fill="none" xmlns="http://www.w3.org/2000/svg">
<mask id="mask0_1191_28983" style="mask-type:alpha" maskUnits="userSpaceOnUse" x="5" y="0" width="208" height="330">
<rect x="5.5" y="0.716064" width="206.754" height="328.375" rx="10.8107" fill="white"/>
</mask>
<g mask="url(#mask0_1191_28983)">
<rect x="-56.6611" y="-0.634888" width="330.708" height="330.708" fill="#1BC1BF"/>
</g>
<g clip-path="url(#clip0_1191_28983)">
<path d="M163.614 69.5095C163.271 69.4101 162.923 69.0016 162.85 68.6115C162.802 68.3575 162.86 68.1813 163.224 67.4772C164.695 64.6321 165.334 62.0139 165.334 58.8359C165.334 55.7646 164.768 53.375 163.362 50.5108C163.06 49.896 162.813 49.3251 162.813 49.2425C162.813 48.9378 163.068 48.4959 163.344 48.3226C163.723 48.0849 164.358 48.1294 164.661 48.4146C164.778 48.5242 165.082 49.0222 165.335 49.5209C166.341 51.4961 167.031 53.6632 167.371 55.9189C167.582 57.3149 167.623 59.9606 167.455 61.2385C167.145 63.5959 166.523 65.6993 165.526 67.76C164.924 69.0057 164.546 69.5181 164.23 69.5181C164.166 69.5181 164.063 69.5339 164 69.5532C163.937 69.5723 163.763 69.5527 163.614 69.5095ZM159.52 67.3678C158.994 67.2145 158.614 66.5685 158.766 66.0844C158.803 65.9672 159.051 65.4273 159.317 64.8847C160.443 62.5874 160.912 60.1246 160.682 57.7066C160.494 55.7199 160.138 54.4668 159.241 52.6335C158.639 51.4035 158.611 51.2128 158.961 50.7176C159.294 50.2467 160.124 50.1704 160.56 50.5705C160.862 50.8478 161.803 52.8116 162.166 53.9237C163.367 57.6042 163.184 61.555 161.644 65.1706C160.856 67.0227 160.302 67.5953 159.52 67.3678ZM155.299 65.1958C154.973 65.0491 154.693 64.7051 154.617 64.3583C154.57 64.147 154.65 63.9133 155.037 63.1315C156.454 60.2598 156.47 57.4938 155.083 54.6889C154.474 53.457 154.461 53.2118 154.976 52.726C155.23 52.4863 155.338 52.4439 155.695 52.4439C156.294 52.4439 156.604 52.7447 157.139 53.8436C157.962 55.5338 158.299 57.0001 158.296 58.8788C158.293 60.8098 157.978 62.1354 157.099 63.9178C156.596 64.9383 156.347 65.2077 155.843 65.2768C155.689 65.2979 155.444 65.2614 155.299 65.1958ZM151.359 63.1727C151.101 63.066 150.807 62.7152 150.72 62.4103C150.622 62.0695 150.702 61.7991 151.089 61.1628C151.587 60.3444 151.702 59.9053 151.702 58.8357C151.702 57.7663 151.587 57.327 151.089 56.5087C150.92 56.2312 150.751 55.8988 150.712 55.77C150.552 55.2306 151.002 54.5696 151.605 54.4564C152.117 54.3603 152.468 54.5887 152.939 55.3231C154.301 57.4496 154.301 60.2902 152.938 62.3986C152.458 63.1425 151.921 63.4054 151.359 63.1727Z" fill="black"/>
</g>
<rect x="141.984" y="37.5399" width="41.8914" height="29.7294" rx="5.06751" transform="rotate(90 141.984 37.5399)" fill="url(#paint0_linear_1191_28983)" stroke="#47453F" stroke-width="0.675668"/>
<path fill-rule="evenodd" clip-rule="evenodd" d="M142.225 64.3276L136.382 58.4854L142.225 52.6433L141.747 52.1655L135.765 58.1476H132.526V37.2019H131.851V52.0665H122.39V37.2019H121.714V58.1476H118.476L112.494 52.1655L112.016 52.6433L117.858 58.4854L112.016 64.3276L112.494 64.8053L118.476 58.8233H121.714V79.769H122.39V64.9042H131.85V79.7689H132.526V64.5664C132.526 64.3798 132.374 64.2286 132.188 64.2286H122.39V58.4854V52.7421H131.851V58.4854C131.851 58.672 132.002 58.8233 132.189 58.8233H135.765L141.747 64.8053L142.225 64.3276Z" fill="#47453F"/>
<path d="M167.947 288.526H182.183V314.682H167.947V288.526Z" fill="#FF5F00"/>
<path d="M168.852 301.604C168.852 296.29 171.293 291.576 175.043 288.526C172.287 286.308 168.807 284.968 165.011 284.968C156.017 284.968 148.741 292.408 148.741 301.604C148.741 310.8 156.017 318.241 165.011 318.241C168.807 318.241 172.287 316.901 175.043 314.682C171.293 311.678 168.852 306.919 168.852 301.604V301.604Z" fill="#EB001B"/>
<path d="M201.39 301.604C201.39 310.8 194.114 318.24 185.121 318.24C181.324 318.24 177.845 316.9 175.088 314.682C178.884 311.632 181.279 306.918 181.279 301.604C181.279 296.29 178.839 291.576 175.088 288.526C177.844 286.308 181.324 284.968 185.121 284.968C194.114 284.968 201.39 292.454 201.39 301.604H201.39Z" fill="#F79E1B"/>
<path d="M81.0305 166.214H87.6954V163.456H81.0305V159.616H88.3407V156.858H77.9971V172.948H88.4774V170.19H81.0305V166.214Z" fill="#002026"/>
<path d="M96.708 156.858H90.0869V159.525H92.2052V170.281H90.0906V172.948H96.708C98.8689 172.948 100.51 172.401 101.63 171.307C102.751 170.213 103.316 168.584 103.325 166.42V163.386C103.325 161.225 102.762 159.597 101.636 158.502C100.509 157.407 98.8664 156.859 96.708 156.858ZM100.294 166.52C100.294 167.683 100.01 168.587 99.4425 169.231C98.8749 169.875 97.9817 170.195 96.7627 170.19H95.246V159.616H96.7627C97.978 159.616 98.8713 159.934 99.4425 160.57C100.014 161.205 100.297 162.113 100.294 163.293V166.52Z" fill="#002026"/>
<path d="M107.978 166.214H114.643V163.456H107.978V159.616H115.286V156.858H104.944V172.948H115.425V170.19H107.978V166.214Z" fill="#002026"/>
<path d="M126.327 170.879H125.913L122.717 156.858H116.947V172.948H119.937V158.927H120.349L123.545 172.948H129.314V156.858H126.327V170.879Z" fill="#002026"/>
<path d="M140.594 164.375C139.631 163.956 138.627 163.64 137.599 163.432L137.07 163.317C136.526 163.21 135.995 163.048 135.484 162.834C135.12 162.687 134.799 162.45 134.552 162.145C134.34 161.851 134.231 161.496 134.242 161.133C134.231 160.863 134.285 160.593 134.399 160.348C134.513 160.102 134.685 159.887 134.899 159.721C135.334 159.376 136.011 159.203 136.931 159.203C137.472 159.191 138.01 159.281 138.517 159.467C138.939 159.625 139.298 159.915 139.54 160.295C139.8 160.744 139.926 161.258 139.905 161.777V162.466H142.885V161.777C142.885 160.614 142.629 159.645 142.116 158.869C141.598 158.092 140.862 157.485 140.001 157.123C139.029 156.718 137.984 156.519 136.931 156.538C135.904 156.515 134.882 156.706 133.933 157.099C133.13 157.432 132.441 157.99 131.947 158.705C131.464 159.454 131.22 160.332 131.245 161.223C131.245 162.204 131.456 163 131.878 163.613C132.343 164.261 132.972 164.772 133.701 165.095C134.61 165.51 135.562 165.822 136.539 166.026L137.068 166.141C137.665 166.268 138.252 166.433 138.827 166.635C139.24 166.772 139.615 167.005 139.921 167.313C140.181 167.611 140.317 167.998 140.3 168.393C140.306 168.699 140.239 169.002 140.105 169.278C139.971 169.554 139.773 169.794 139.529 169.979C139.017 170.392 138.24 170.599 137.197 170.6C136.155 170.601 135.342 170.358 134.76 169.871C134.162 169.385 133.864 168.661 133.865 167.698V167.064H130.875V167.707C130.844 168.761 131.125 169.8 131.681 170.695C132.226 171.531 133 172.194 133.911 172.604C135.992 173.479 138.336 173.491 140.426 172.638C141.28 172.265 142.013 171.659 142.541 170.89C143.046 170.124 143.306 169.223 143.288 168.305C143.288 167.324 143.05 166.52 142.575 165.891C142.053 165.227 141.372 164.705 140.594 164.375V164.375Z" fill="#002026"/>
<path d="M154.051 164.064C153.208 163.707 152.3 163.531 151.386 163.547H150.12V163.317L156.579 158.927V156.858H145.546V158.145H155.155V158.375L148.627 162.812V164.743H150.997C151.712 164.735 152.422 164.855 153.094 165.098C153.693 165.31 154.22 165.69 154.61 166.192C154.986 166.678 155.174 167.321 155.174 168.122V168.261C155.189 168.757 155.099 169.251 154.91 169.71C154.722 170.169 154.439 170.584 154.08 170.926C153.351 171.632 152.324 171.985 150.999 171.983C149.674 171.982 148.618 171.611 147.829 170.87C147.016 170.126 146.609 169.103 146.609 167.802V167.339H145.186V167.776C145.186 168.94 145.434 169.933 145.931 170.753C146.419 171.565 147.135 172.216 147.989 172.625C148.926 173.067 149.952 173.287 150.988 173.269C152.011 173.293 153.026 173.081 153.954 172.649C154.76 172.272 155.44 171.672 155.914 170.919C156.385 170.132 156.624 169.227 156.603 168.31V168.075C156.603 167.08 156.373 166.248 155.914 165.581C155.449 164.91 154.803 164.384 154.051 164.064V164.064Z" fill="#002026"/>
<path d="M165.727 163.03C164.901 162.586 163.976 162.361 163.039 162.375C161.845 162.375 160.907 162.593 160.224 163.03C159.628 163.383 159.127 163.876 158.765 164.466H158.49V162.007C158.49 160.705 158.862 159.683 159.604 158.939C160.347 158.195 161.392 157.824 162.741 157.825C164.06 157.825 165.06 158.147 165.742 158.789C166.424 159.432 166.765 160.283 166.765 161.342H168.189C168.202 160.489 167.988 159.647 167.569 158.904C167.135 158.165 166.496 157.566 165.729 157.182C164.919 156.751 163.923 156.537 162.741 156.538C161.56 156.539 160.541 156.769 159.684 157.227C158.86 157.669 158.184 158.344 157.743 159.169C157.268 160.096 157.035 161.128 157.063 162.169V167.846C157.034 168.869 157.293 169.88 157.81 170.763C158.295 171.564 158.999 172.211 159.839 172.626C160.734 173.05 161.711 173.269 162.701 173.269C163.691 173.269 164.669 173.05 165.563 172.626C166.395 172.214 167.096 171.577 167.585 170.788C168.098 169.936 168.358 168.955 168.333 167.961V167.686C168.359 166.701 168.117 165.727 167.633 164.869C167.177 164.093 166.519 163.457 165.727 163.03V163.03ZM166.9 167.937C166.9 169.195 166.509 170.184 165.727 170.903C164.946 171.623 163.935 171.982 162.694 171.982C161.453 171.982 160.442 171.623 159.661 170.903C158.879 170.184 158.488 169.195 158.488 167.937V167.755C158.469 166.99 158.658 166.233 159.035 165.567C159.388 164.962 159.901 164.465 160.517 164.131C161.196 163.789 161.945 163.611 162.705 163.611C163.465 163.611 164.214 163.789 164.893 164.131C165.509 164.465 166.021 164.962 166.375 165.567C166.751 166.234 166.94 166.99 166.922 167.755L166.9 167.937Z" fill="#002026"/>
<path d="M178.933 158.18C177.883 157.086 176.453 156.539 174.645 156.539C172.837 156.539 171.408 157.086 170.359 158.18C169.309 159.274 168.784 160.901 168.784 163.064V166.742C168.784 168.902 169.309 170.53 170.359 171.626C171.409 172.722 172.838 173.269 174.645 173.267C176.453 173.267 177.883 172.72 178.933 171.626C179.983 170.532 180.507 168.904 180.506 166.742V163.064C180.506 160.904 179.982 159.276 178.933 158.18ZM179.082 166.833C179.082 168.444 178.71 169.704 177.967 170.614C177.223 171.525 176.116 171.98 174.645 171.982C173.173 171.982 172.066 171.526 171.324 170.614C170.581 169.703 170.21 168.443 170.21 166.833V162.972C170.21 161.363 170.581 160.103 171.324 159.192C172.066 158.28 173.173 157.824 174.645 157.824C176.116 157.824 177.223 158.28 177.967 159.192C178.71 160.103 179.082 161.363 179.082 162.972V166.833Z" fill="#002026"/>
<path d="M53.0113 149.408C50.73 149.409 48.4772 149.914 46.4135 150.886C44.3499 151.859 42.5265 153.275 41.0734 155.033C39.6203 156.792 38.5735 158.85 38.0077 161.06C37.4418 163.27 37.3709 165.577 37.8 167.818C38.2292 170.058 39.1477 172.177 40.4901 174.021C41.8325 175.866 43.5656 177.391 45.5656 178.488C47.5656 179.586 49.7833 180.228 52.0602 180.369C54.3371 180.51 56.6171 180.147 58.7373 179.305C58.8102 179.277 58.8795 179.248 58.9488 179.219C62.2615 177.847 64.9958 175.368 66.6857 172.206C68.3755 169.044 68.9164 165.393 68.216 161.876C67.5156 158.36 65.6173 155.195 62.8448 152.921C60.0722 150.648 56.5969 149.406 53.0113 149.408V149.408ZM55.1533 178.211C54.9629 178.227 54.7714 178.227 54.5809 178.211H54.4551C54.3807 178.209 54.3092 178.182 54.252 178.134C54.1948 178.087 54.1553 178.021 54.1397 177.948C53.9574 177.004 53.7751 171.386 53.8262 171.119C53.9173 170.687 54.8489 166.761 54.7103 166.38L54.5736 166.015L54.5426 166.405C54.5262 166.597 53.7624 167.386 53.571 167.406C53.5436 167.406 53.5199 167.34 53.5126 167.32V167.3L53.4962 167.284C53.3504 167.138 53.5746 166.263 53.7223 165.685C53.9246 164.896 53.9848 164.611 53.8718 164.506C53.8524 164.489 53.829 164.478 53.8039 164.474C53.7789 164.47 53.7532 164.473 53.7296 164.482L53.6567 164.508L53.6731 164.582C53.6795 164.89 53.5832 165.191 53.3996 165.437C53.3791 165.468 53.3522 165.493 53.3207 165.512C53.2892 165.531 53.2539 165.543 53.2173 165.547C52.9913 165.414 53.1389 162.956 53.3759 162.054V161.986L53.323 161.952C53.2902 161.929 53.2518 161.915 53.2118 161.911C53.1718 161.907 53.1316 161.915 53.0952 161.932C52.7524 162.088 52.5683 163.208 52.4079 164.322C52.3897 164.44 52.3733 164.562 52.3587 164.653C52.1764 164.46 51.9777 164.289 51.8118 164.289C51.7729 164.293 51.7359 164.307 51.704 164.33C51.6721 164.353 51.6465 164.383 51.6295 164.418L51.5967 164.478L51.6459 164.524C52.2511 165.095 52.1709 167.41 52.1016 168.334C51.9193 167.84 51.5949 167.067 51.3724 166.969C51.3444 166.955 51.3131 166.951 51.2826 166.956C51.252 166.961 51.2237 166.975 51.2011 166.996L51.0753 167.105L51.2357 167.142C51.3925 167.24 51.6732 168.644 51.7699 170.709C51.8738 172.981 51.7589 177.073 51.686 177.562C51.6154 177.798 51.5295 178.028 51.429 178.253C51.4089 178.298 51.3925 178.339 51.3797 178.37C51.2509 178.363 51.1238 178.338 51.0024 178.295C50.8075 178.233 50.6011 178.215 50.3985 178.244C50.196 178.272 50.0024 178.346 49.832 178.459C47.2829 177.858 44.9549 176.55 43.1147 174.687C41.2744 172.823 39.9966 170.479 39.4276 167.922C38.8585 165.366 39.0213 162.701 39.8974 160.233C40.7734 157.764 42.3272 155.593 44.3806 153.967C46.4339 152.342 48.9039 151.328 51.5072 151.041C54.1105 150.755 56.7418 151.208 59.0995 152.348C61.4573 153.488 63.446 155.27 64.8377 157.489C66.2293 159.707 66.9677 162.273 66.9681 164.892C66.9794 168.054 65.9025 171.123 63.9183 173.584C61.984 176.004 59.3024 177.715 56.2927 178.45C56.2362 178.404 56.1778 178.359 56.1104 178.317C55.7841 178.094 55.5197 177.958 55.1533 178.211Z" fill="#002026"/>
<path d="M52.9822 157.064C52.4024 157.493 51.5693 158.552 51.5693 159.595C51.5693 160.638 52.2019 161.622 52.9822 161.622H53.0405C52.7889 160.944 52.8965 159.799 52.8965 159.799C52.9124 160.416 53.0074 161.029 53.179 161.622C53.8663 161.472 54.395 160.565 54.395 159.617C54.395 158.552 53.5582 157.493 52.9822 157.064Z" fill="#002026"/>
<path d="M49.2906 164.889C49.9035 164.905 50.516 164.843 51.1136 164.706C51.006 164.014 50.1328 163.445 49.183 163.383C48.1403 163.325 47.0356 164.098 46.5762 164.659C46.9718 165.261 47.9835 166.152 49.0263 166.21C50.069 166.269 51.0881 165.684 51.1318 164.903C51.1318 164.883 51.1318 164.863 51.1318 164.845C50.4373 165.06 49.2906 164.889 49.2906 164.889Z" fill="#002026"/>
<path d="M45.4893 163.424C46.3753 163.657 47.3542 163.34 47.5293 162.68C47.5293 162.662 47.5293 162.646 47.5402 162.628C46.9058 162.689 45.9505 162.341 45.9505 162.341C46.4759 162.465 47.0151 162.521 47.5548 162.507C47.5821 161.891 46.9295 161.231 46.1201 161.027C45.2341 160.795 44.1494 161.266 43.6572 161.661C43.896 162.248 44.6034 163.191 45.4893 163.424Z" fill="#002026"/>
<path d="M50.4229 160.411L50.4648 160.391C50.0765 159.981 49.7976 159.142 49.7976 159.142C49.998 159.574 50.2529 159.978 50.5559 160.345C50.9934 160.03 51.0882 159.226 50.7947 158.553C50.4757 157.824 49.5624 157.327 49.0228 157.203C48.7439 157.682 48.4759 158.685 48.8022 159.421C49.1285 160.158 49.8741 160.652 50.4229 160.411Z" fill="#002026"/>
<path d="M47.2307 166.646C46.8004 167.01 45.9363 167.225 45.9363 167.225C46.3776 167.052 46.7948 166.823 47.1778 166.544C46.8934 166.084 46.0986 165.937 45.4059 166.179C44.6493 166.447 44.0969 167.324 43.9365 167.854C44.3959 168.164 45.3785 168.494 46.135 168.219C46.8916 167.944 47.444 167.236 47.2434 166.671L47.2307 166.646Z" fill="#002026"/>
<path d="M50.9937 161.236C50.3228 160.896 49.3712 161.088 48.9082 161.321C49.0012 161.833 49.4059 162.716 50.0767 163.051C50.7476 163.387 51.588 163.303 51.8414 162.803C51.8479 162.79 51.8534 162.777 51.8578 162.763C51.3382 162.705 50.6419 162.262 50.6419 162.262C51.0421 162.451 51.4648 162.588 51.8997 162.67C52.0182 162.18 51.6062 161.545 50.9937 161.236Z" fill="#002026"/>
<path d="M50.6047 167.305C50.3452 167.509 50.0522 167.665 49.7388 167.767C50.0362 167.628 50.3143 167.452 50.5664 167.242C50.3477 166.937 49.7917 166.877 49.325 167.078C48.8145 167.3 48.4755 167.934 48.3916 168.308C48.7234 168.49 49.4179 168.673 49.9284 168.458C50.4388 168.242 50.7852 167.714 50.6193 167.333C50.6138 167.324 50.6102 167.313 50.6047 167.305Z" fill="#002026"/>
<path d="M48.5139 160.925L48.5339 160.898C48.225 160.75 47.9448 160.548 47.7063 160.302C47.9722 160.516 48.2644 160.695 48.5759 160.834C48.7582 160.49 48.5649 159.941 48.162 159.598C47.7209 159.234 46.9734 159.197 46.5852 159.288C46.5578 159.686 46.7073 160.419 47.1485 160.792C47.5896 161.166 48.235 161.257 48.5139 160.925Z" fill="#002026"/>
<path d="M45.7718 164.813C45.7727 164.802 45.7727 164.791 45.7718 164.781C45.4377 164.857 45.0928 164.875 44.7527 164.832C45.0941 164.833 45.4342 164.79 45.7645 164.704C45.6916 164.321 45.1975 164.015 44.6707 163.999C44.0928 163.984 43.4912 164.429 43.2451 164.742C43.4748 165.07 44.0491 165.548 44.6269 165.564C45.2048 165.581 45.759 165.245 45.7718 164.813Z" fill="#002026"/>
<path d="M56.9987 166.203C58.0414 166.144 59.0514 165.253 59.447 164.651C58.9876 164.104 57.8828 163.324 56.8401 163.375C55.8885 163.428 55.0171 164.006 54.9004 164.7C55.4981 164.837 56.1105 164.899 56.7234 164.883C56.7234 164.883 55.5768 165.054 54.8822 164.841C54.8804 164.86 54.8804 164.88 54.8822 164.899C54.9332 165.683 55.9559 166.261 56.9987 166.203Z" fill="#002026"/>
<path d="M58.4657 162.507C59.0053 162.521 59.5445 162.466 60.0699 162.341C60.0699 162.341 59.1165 162.689 58.4821 162.628C58.484 162.645 58.4876 162.663 58.493 162.68C58.6753 163.34 59.6451 163.657 60.5311 163.424C61.4171 163.191 62.1299 162.248 62.3632 161.661C61.871 161.266 60.7863 160.795 59.9004 161.027C59.091 161.24 58.4383 161.891 58.4657 162.507Z" fill="#002026"/>
<path d="M55.4668 160.345C55.7684 159.981 56.0227 159.58 56.2233 159.151C56.2233 159.151 55.9444 159.981 55.5634 160.391L55.6035 160.411C56.1504 160.652 56.9033 160.148 57.2242 159.412C57.545 158.675 57.2825 157.673 57.0054 157.193C56.4585 157.317 55.547 157.808 55.2316 158.544C54.9327 159.217 55.0275 160.021 55.4668 160.345Z" fill="#002026"/>
<path d="M60.6115 166.19C59.9205 165.944 59.1257 166.092 58.8413 166.555C59.2252 166.832 59.643 167.059 60.0846 167.229C60.0846 167.229 59.2205 167.009 58.7921 166.65C58.7853 166.664 58.7792 166.678 58.7739 166.693C58.5734 167.258 59.1257 167.969 59.8823 168.241C60.6388 168.513 61.6214 168.179 62.0808 167.876C61.9204 167.335 61.368 166.458 60.6115 166.19Z" fill="#002026"/>
<path d="M55.9445 163.051C56.6154 162.712 57.0256 161.833 57.1131 161.321C56.6573 161.087 55.6984 160.892 55.0276 161.235C54.415 161.545 54.003 162.179 54.1306 162.67C54.5662 162.588 54.9895 162.45 55.3903 162.261C55.3903 162.261 54.683 162.704 54.1635 162.763C54.1684 162.776 54.1745 162.79 54.1817 162.803C54.4351 163.302 55.2755 163.39 55.9445 163.051Z" fill="#002026"/>
<path d="M56.6953 167.077C56.2304 166.873 55.6744 166.937 55.4538 167.242C55.7059 167.452 55.9841 167.628 56.2815 167.767C55.9681 167.665 55.675 167.508 55.4155 167.305C55.4102 167.314 55.4059 167.323 55.4028 167.333C55.2351 167.714 55.5851 168.233 56.0919 168.457C56.5987 168.682 57.2969 168.499 57.6305 168.308C57.5448 167.934 57.2039 167.3 56.6953 167.077Z" fill="#002026"/>
<path d="M58.3163 160.301C58.0765 160.545 57.7958 160.745 57.4868 160.892L57.5087 160.919C57.7876 161.247 58.4329 161.162 58.8741 160.786C59.3152 160.411 59.4629 159.68 59.4374 159.282C59.0473 159.191 58.3017 159.218 57.8605 159.592C57.4576 159.935 57.2626 160.484 57.4467 160.828C57.7574 160.69 58.0495 160.513 58.3163 160.301V160.301Z" fill="#002026"/>
<path d="M61.3549 163.992C60.8262 164.008 60.3303 164.314 60.2611 164.697C60.5907 164.783 60.9302 164.826 61.271 164.825C60.931 164.868 60.586 164.851 60.252 164.774V164.807C60.2629 165.239 60.8207 165.574 61.4004 165.558C61.9801 165.541 62.5526 165.064 62.7804 164.735C62.5325 164.429 61.9327 163.992 61.3549 163.992Z" fill="#002026"/>
<path d="M81.0305 166.214H87.6954V163.456H81.0305V159.616H88.3407V156.858H77.9971V172.948H88.4774V170.19H81.0305V166.214Z" fill="#002026"/>
<path d="M96.708 156.858H90.0869V159.525H92.2052V170.281H90.0906V172.948H96.708C98.8689 172.948 100.51 172.401 101.63 171.307C102.751 170.213 103.316 168.584 103.325 166.42V163.386C103.325 161.225 102.762 159.597 101.636 158.502C100.509 157.407 98.8664 156.859 96.708 156.858ZM100.294 166.52C100.294 167.683 100.01 168.587 99.4425 169.231C98.8749 169.875 97.9817 170.195 96.7627 170.19H95.246V159.616H96.7627C97.978 159.616 98.8713 159.934 99.4425 160.57C100.014 161.205 100.297 162.113 100.294 163.293V166.52Z" fill="#002026"/>
<path d="M107.978 166.214H114.643V163.456H107.978V159.616H115.286V156.858H104.944V172.948H115.425V170.19H107.978V166.214Z" fill="#002026"/>
<path d="M126.327 170.879H125.913L122.717 156.858H116.947V172.948H119.937V158.927H120.349L123.545 172.948H129.314V156.858H126.327V170.879Z" fill="#002026"/>
<path d="M140.594 164.375C139.631 163.956 138.627 163.64 137.599 163.432L137.07 163.317C136.526 163.21 135.995 163.048 135.484 162.834C135.12 162.687 134.799 162.45 134.552 162.145C134.34 161.851 134.231 161.496 134.242 161.133C134.231 160.863 134.285 160.593 134.399 160.348C134.513 160.102 134.685 159.887 134.899 159.721C135.334 159.376 136.011 159.203 136.931 159.203C137.472 159.191 138.01 159.281 138.517 159.467C138.939 159.625 139.298 159.915 139.54 160.295C139.8 160.744 139.926 161.258 139.905 161.777V162.466H142.885V161.777C142.885 160.614 142.629 159.645 142.116 158.869C141.598 158.092 140.862 157.485 140.001 157.123C139.029 156.718 137.984 156.519 136.931 156.538C135.904 156.515 134.882 156.706 133.933 157.099C133.13 157.432 132.441 157.99 131.947 158.705C131.464 159.454 131.22 160.332 131.245 161.223C131.245 162.204 131.456 163 131.878 163.613C132.343 164.261 132.972 164.772 133.701 165.095C134.61 165.51 135.562 165.822 136.539 166.026L137.068 166.141C137.665 166.268 138.252 166.433 138.827 166.635C139.24 166.772 139.615 167.005 139.921 167.313C140.181 167.611 140.317 167.998 140.3 168.393C140.306 168.699 140.239 169.002 140.105 169.278C139.971 169.554 139.773 169.794 139.529 169.979C139.017 170.392 138.24 170.599 137.197 170.6C136.155 170.601 135.342 170.358 134.76 169.871C134.162 169.385 133.864 168.661 133.865 167.698V167.064H130.875V167.707C130.844 168.761 131.125 169.8 131.681 170.695C132.226 171.531 133 172.194 133.911 172.604C135.992 173.479 138.336 173.491 140.426 172.638C141.28 172.265 142.013 171.659 142.541 170.89C143.046 170.124 143.306 169.223 143.288 168.305C143.288 167.324 143.05 166.52 142.575 165.891C142.053 165.227 141.372 164.705 140.594 164.375V164.375Z" fill="#002026"/>
<path d="M154.051 164.064C153.208 163.707 152.3 163.531 151.386 163.547H150.12V163.317L156.579 158.927V156.858H145.546V158.145H155.155V158.375L148.627 162.812V164.743H150.997C151.712 164.735 152.422 164.855 153.094 165.098C153.693 165.31 154.22 165.69 154.61 166.192C154.986 166.678 155.174 167.321 155.174 168.122V168.261C155.189 168.757 155.099 169.251 154.91 169.71C154.722 170.169 154.439 170.584 154.08 170.926C153.351 171.632 152.324 171.985 150.999 171.983C149.674 171.982 148.618 171.611 147.829 170.87C147.016 170.126 146.609 169.103 146.609 167.802V167.339H145.186V167.776C145.186 168.94 145.434 169.933 145.931 170.753C146.419 171.565 147.135 172.216 147.989 172.625C148.926 173.067 149.952 173.287 150.988 173.269C152.011 173.293 153.026 173.081 153.954 172.649C154.76 172.272 155.44 171.672 155.914 170.919C156.385 170.132 156.624 169.227 156.603 168.31V168.075C156.603 167.08 156.373 166.248 155.914 165.581C155.449 164.91 154.803 164.384 154.051 164.064V164.064Z" fill="#002026"/>
<path d="M165.727 163.03C164.901 162.586 163.976 162.361 163.039 162.375C161.845 162.375 160.907 162.593 160.224 163.03C159.628 163.383 159.127 163.876 158.765 164.466H158.49V162.007C158.49 160.705 158.862 159.683 159.604 158.939C160.347 158.195 161.392 157.824 162.741 157.825C164.06 157.825 165.06 158.147 165.742 158.789C166.424 159.432 166.765 160.283 166.765 161.342H168.189C168.202 160.489 167.988 159.647 167.569 158.904C167.135 158.165 166.496 157.566 165.729 157.182C164.919 156.751 163.923 156.537 162.741 156.538C161.56 156.539 160.541 156.769 159.684 157.227C158.86 157.669 158.184 158.344 157.743 159.169C157.268 160.096 157.035 161.128 157.063 162.169V167.846C157.034 168.869 157.293 169.88 157.81 170.763C158.295 171.564 158.999 172.211 159.839 172.626C160.734 173.05 161.711 173.269 162.701 173.269C163.691 173.269 164.669 173.05 165.563 172.626C166.395 172.214 167.096 171.577 167.585 170.788C168.098 169.936 168.358 168.955 168.333 167.961V167.686C168.359 166.701 168.117 165.727 167.633 164.869C167.177 164.093 166.519 163.457 165.727 163.03V163.03ZM166.9 167.937C166.9 169.195 166.509 170.184 165.727 170.903C164.946 171.623 163.935 171.982 162.694 171.982C161.453 171.982 160.442 171.623 159.661 170.903C158.879 170.184 158.488 169.195 158.488 167.937V167.755C158.469 166.99 158.658 166.233 159.035 165.567C159.388 164.962 159.901 164.465 160.517 164.131C161.196 163.789 161.945 163.611 162.705 163.611C163.465 163.611 164.214 163.789 164.893 164.131C165.509 164.465 166.021 164.962 166.375 165.567C166.751 166.234 166.94 166.99 166.922 167.755L166.9 167.937Z" fill="#002026"/>
<path d="M178.933 158.18C177.883 157.086 176.453 156.539 174.645 156.539C172.837 156.539 171.408 157.086 170.359 158.18C169.309 159.274 168.784 160.901 168.784 163.064V166.742C168.784 168.902 169.309 170.53 170.359 171.626C171.409 172.722 172.838 173.269 174.645 173.267C176.453 173.267 177.883 172.72 178.933 171.626C179.983 170.532 180.507 168.904 180.506 166.742V163.064C180.506 160.904 179.982 159.276 178.933 158.18ZM179.082 166.833C179.082 168.444 178.71 169.704 177.967 170.614C177.223 171.525 176.116 171.98 174.645 171.982C173.173 171.982 172.066 171.526 171.324 170.614C170.581 169.703 170.21 168.443 170.21 166.833V162.972C170.21 161.363 170.581 160.103 171.324 159.192C172.066 158.28 173.173 157.824 174.645 157.824C176.116 157.824 177.223 158.28 177.967 159.192C178.71 160.103 179.082 161.363 179.082 162.972V166.833Z" fill="#002026"/>
<path d="M53.0113 149.408C50.73 149.409 48.4772 149.914 46.4135 150.886C44.3499 151.859 42.5265 153.275 41.0734 155.033C39.6203 156.792 38.5735 158.85 38.0077 161.06C37.4418 163.27 37.3709 165.577 37.8 167.818C38.2292 170.058 39.1477 172.177 40.4901 174.021C41.8325 175.866 43.5656 177.391 45.5656 178.488C47.5656 179.586 49.7833 180.228 52.0602 180.369C54.3371 180.51 56.6171 180.147 58.7373 179.305C58.8102 179.277 58.8795 179.248 58.9488 179.219C62.2615 177.847 64.9958 175.368 66.6857 172.206C68.3755 169.044 68.9164 165.393 68.216 161.876C67.5156 158.36 65.6173 155.195 62.8448 152.921C60.0722 150.648 56.5969 149.406 53.0113 149.408V149.408ZM55.1533 178.211C54.9629 178.227 54.7714 178.227 54.5809 178.211H54.4551C54.3807 178.209 54.3092 178.182 54.252 178.134C54.1948 178.087 54.1553 178.021 54.1397 177.948C53.9574 177.004 53.7751 171.386 53.8262 171.119C53.9173 170.687 54.8489 166.761 54.7103 166.38L54.5736 166.015L54.5426 166.405C54.5262 166.597 53.7624 167.386 53.571 167.406C53.5436 167.406 53.5199 167.34 53.5126 167.32V167.3L53.4962 167.284C53.3504 167.138 53.5746 166.263 53.7223 165.685C53.9246 164.896 53.9848 164.611 53.8718 164.506C53.8524 164.489 53.829 164.478 53.8039 164.474C53.7789 164.47 53.7532 164.473 53.7296 164.482L53.6567 164.508L53.6731 164.582C53.6795 164.89 53.5832 165.191 53.3996 165.437C53.3791 165.468 53.3522 165.493 53.3207 165.512C53.2892 165.531 53.2539 165.543 53.2173 165.547C52.9913 165.414 53.1389 162.956 53.3759 162.054V161.986L53.323 161.952C53.2902 161.929 53.2518 161.915 53.2118 161.911C53.1718 161.907 53.1316 161.915 53.0952 161.932C52.7524 162.088 52.5683 163.208 52.4079 164.322C52.3897 164.44 52.3733 164.562 52.3587 164.653C52.1764 164.46 51.9777 164.289 51.8118 164.289C51.7729 164.293 51.7359 164.307 51.704 164.33C51.6721 164.353 51.6465 164.383 51.6295 164.418L51.5967 164.478L51.6459 164.524C52.2511 165.095 52.1709 167.41 52.1016 168.334C51.9193 167.84 51.5949 167.067 51.3724 166.969C51.3444 166.955 51.3131 166.951 51.2826 166.956C51.252 166.961 51.2237 166.975 51.2011 166.996L51.0753 167.105L51.2357 167.142C51.3925 167.24 51.6732 168.644 51.7699 170.709C51.8738 172.981 51.7589 177.073 51.686 177.562C51.6154 177.798 51.5295 178.028 51.429 178.253C51.4089 178.298 51.3925 178.339 51.3797 178.37C51.2509 178.363 51.1238 178.338 51.0024 178.295C50.8075 178.233 50.6011 178.215 50.3985 178.244C50.196 178.272 50.0024 178.346 49.832 178.459C47.2829 177.858 44.9549 176.55 43.1147 174.687C41.2744 172.823 39.9966 170.479 39.4276 167.922C38.8585 165.366 39.0213 162.701 39.8974 160.233C40.7734 157.764 42.3272 155.593 44.3806 153.967C46.4339 152.342 48.9039 151.328 51.5072 151.041C54.1105 150.755 56.7418 151.208 59.0995 152.348C61.4573 153.488 63.446 155.27 64.8377 157.489C66.2293 159.707 66.9677 162.273 66.9681 164.892C66.9794 168.054 65.9025 171.123 63.9183 173.584C61.984 176.004 59.3024 177.715 56.2927 178.45C56.2362 178.404 56.1778 178.359 56.1104 178.317C55.7841 178.094 55.5197 177.958 55.1533 178.211Z" fill="#002026"/>
<path d="M52.9822 157.064C52.4024 157.493 51.5693 158.552 51.5693 159.595C51.5693 160.638 52.2019 161.622 52.9822 161.622H53.0405C52.7889 160.944 52.8965 159.799 52.8965 159.799C52.9124 160.416 53.0074 161.029 53.179 161.622C53.8663 161.472 54.395 160.565 54.395 159.617C54.395 158.552 53.5582 157.493 52.9822 157.064Z" fill="#002026"/>
<path d="M49.2906 164.889C49.9035 164.905 50.516 164.843 51.1136 164.706C51.006 164.014 50.1328 163.445 49.183 163.383C48.1403 163.325 47.0356 164.098 46.5762 164.659C46.9718 165.261 47.9835 166.152 49.0263 166.21C50.069 166.269 51.0881 165.684 51.1318 164.903C51.1318 164.883 51.1318 164.863 51.1318 164.845C50.4373 165.06 49.2906 164.889 49.2906 164.889Z" fill="#002026"/>
<path d="M45.4893 163.424C46.3753 163.657 47.3542 163.34 47.5293 162.68C47.5293 162.662 47.5293 162.646 47.5402 162.628C46.9058 162.689 45.9505 162.341 45.9505 162.341C46.4759 162.465 47.0151 162.521 47.5548 162.507C47.5821 161.891 46.9295 161.231 46.1201 161.027C45.2341 160.795 44.1494 161.266 43.6572 161.661C43.896 162.248 44.6034 163.191 45.4893 163.424Z" fill="#002026"/>
<path d="M50.4229 160.411L50.4648 160.391C50.0765 159.981 49.7976 159.142 49.7976 159.142C49.998 159.574 50.2529 159.978 50.5559 160.345C50.9934 160.03 51.0882 159.226 50.7947 158.553C50.4757 157.824 49.5624 157.327 49.0228 157.203C48.7439 157.682 48.4759 158.685 48.8022 159.421C49.1285 160.158 49.8741 160.652 50.4229 160.411Z" fill="#002026"/>
<path d="M47.2307 166.646C46.8004 167.01 45.9363 167.225 45.9363 167.225C46.3776 167.052 46.7948 166.823 47.1778 166.544C46.8934 166.084 46.0986 165.937 45.4059 166.179C44.6493 166.447 44.0969 167.324 43.9365 167.854C44.3959 168.164 45.3785 168.494 46.135 168.219C46.8916 167.944 47.444 167.236 47.2434 166.671L47.2307 166.646Z" fill="#002026"/>
<path d="M50.9937 161.236C50.3228 160.896 49.3712 161.088 48.9082 161.321C49.0012 161.833 49.4059 162.716 50.0767 163.051C50.7476 163.387 51.588 163.303 51.8414 162.803C51.8479 162.79 51.8534 162.777 51.8578 162.763C51.3382 162.705 50.6419 162.262 50.6419 162.262C51.0421 162.451 51.4648 162.588 51.8997 162.67C52.0182 162.18 51.6062 161.545 50.9937 161.236Z" fill="#002026"/>
<path d="M50.6047 167.305C50.3452 167.509 50.0522 167.665 49.7388 167.767C50.0362 167.628 50.3143 167.452 50.5664 167.242C50.3477 166.937 49.7917 166.877 49.325 167.078C48.8145 167.3 48.4755 167.934 48.3916 168.308C48.7234 168.49 49.4179 168.673 49.9284 168.458C50.4388 168.242 50.7852 167.714 50.6193 167.333C50.6138 167.324 50.6102 167.313 50.6047 167.305Z" fill="#002026"/>
<path d="M48.5139 160.925L48.5339 160.898C48.225 160.75 47.9448 160.548 47.7063 160.302C47.9722 160.516 48.2644 160.695 48.5759 160.834C48.7582 160.49 48.5649 159.941 48.162 159.598C47.7209 159.234 46.9734 159.197 46.5852 159.288C46.5578 159.686 46.7073 160.419 47.1485 160.792C47.5896 161.166 48.235 161.257 48.5139 160.925Z" fill="#002026"/>
<path d="M45.7718 164.813C45.7727 164.802 45.7727 164.791 45.7718 164.781C45.4377 164.857 45.0928 164.875 44.7527 164.832C45.0941 164.833 45.4342 164.79 45.7645 164.704C45.6916 164.321 45.1975 164.015 44.6707 163.999C44.0928 163.984 43.4912 164.429 43.2451 164.742C43.4748 165.07 44.0491 165.548 44.6269 165.564C45.2048 165.581 45.759 165.245 45.7718 164.813Z" fill="#002026"/>
<path d="M56.9987 166.203C58.0414 166.144 59.0514 165.253 59.447 164.651C58.9876 164.104 57.8828 163.324 56.8401 163.375C55.8885 163.428 55.0171 164.006 54.9004 164.7C55.4981 164.837 56.1105 164.899 56.7234 164.883C56.7234 164.883 55.5768 165.054 54.8822 164.841C54.8804 164.86 54.8804 164.88 54.8822 164.899C54.9332 165.683 55.9559 166.261 56.9987 166.203Z" fill="#002026"/>
<path d="M58.4657 162.507C59.0053 162.521 59.5445 162.466 60.0699 162.341C60.0699 162.341 59.1165 162.689 58.4821 162.628C58.484 162.645 58.4876 162.663 58.493 162.68C58.6753 163.34 59.6451 163.657 60.5311 163.424C61.4171 163.191 62.1299 162.248 62.3632 161.661C61.871 161.266 60.7863 160.795 59.9004 161.027C59.091 161.24 58.4383 161.891 58.4657 162.507Z" fill="#002026"/>
<path d="M55.4668 160.345C55.7684 159.981 56.0227 159.58 56.2233 159.151C56.2233 159.151 55.9444 159.981 55.5634 160.391L55.6035 160.411C56.1504 160.652 56.9033 160.148 57.2242 159.412C57.545 158.675 57.2825 157.673 57.0054 157.193C56.4585 157.317 55.547 157.808 55.2316 158.544C54.9327 159.217 55.0275 160.021 55.4668 160.345Z" fill="#002026"/>
<path d="M60.6115 166.19C59.9205 165.944 59.1257 166.092 58.8413 166.555C59.2252 166.832 59.643 167.059 60.0846 167.229C60.0846 167.229 59.2205 167.009 58.7921 166.65C58.7853 166.664 58.7792 166.678 58.7739 166.693C58.5734 167.258 59.1257 167.969 59.8823 168.241C60.6388 168.513 61.6214 168.179 62.0808 167.876C61.9204 167.335 61.368 166.458 60.6115 166.19Z" fill="#002026"/>
<path d="M55.9445 163.051C56.6154 162.712 57.0256 161.833 57.1131 161.321C56.6573 161.087 55.6984 160.892 55.0276 161.235C54.415 161.545 54.003 162.179 54.1306 162.67C54.5662 162.588 54.9895 162.45 55.3903 162.261C55.3903 162.261 54.683 162.704 54.1635 162.763C54.1684 162.776 54.1745 162.79 54.1817 162.803C54.4351 163.302 55.2755 163.39 55.9445 163.051Z" fill="#002026"/>
<path d="M56.6953 167.077C56.2304 166.873 55.6744 166.937 55.4538 167.242C55.7059 167.452 55.9841 167.628 56.2815 167.767C55.9681 167.665 55.675 167.508 55.4155 167.305C55.4102 167.314 55.4059 167.323 55.4028 167.333C55.2351 167.714 55.5851 168.233 56.0919 168.457C56.5987 168.682 57.2969 168.499 57.6305 168.308C57.5448 167.934 57.2039 167.3 56.6953 167.077Z" fill="#002026"/>
<path d="M58.3163 160.301C58.0765 160.545 57.7958 160.745 57.4868 160.892L57.5087 160.919C57.7876 161.247 58.4329 161.162 58.8741 160.786C59.3152 160.411 59.4629 159.68 59.4374 159.282C59.0473 159.191 58.3017 159.218 57.8605 159.592C57.4576 159.935 57.2626 160.484 57.4467 160.828C57.7574 160.69 58.0495 160.513 58.3163 160.301V160.301Z" fill="#002026"/>
<path d="M61.3549 163.992C60.8262 164.008 60.3303 164.314 60.2611 164.697C60.5907 164.783 60.9302 164.826 61.271 164.825C60.931 164.868 60.586 164.851 60.252 164.774V164.807C60.2629 165.239 60.8207 165.574 61.4004 165.558C61.9801 165.541 62.5526 165.064 62.7804 164.735C62.5325 164.429 61.9327 163.992 61.3549 163.992Z" fill="#002026"/>
<defs>
<linearGradient id="paint0_linear_1191_28983" x1="142.322" y1="37.5399" x2="185.565" y2="67.2692" gradientUnits="userSpaceOnUse">
<stop stop-color="#F7F1B4"/>
<stop offset="1" stop-color="#BEA475"/>
</linearGradient>
<clipPath id="clip0_1191_28983">
<rect width="16.9882" height="21.6214" fill="white" transform="translate(150.674 48.0127)"/>
</clipPath>
</defs>
</svg>
