<svg width="560" height="514" viewBox="0 0 560 514" fill="none" xmlns="http://www.w3.org/2000/svg">
<rect x="0.909454" y="0.0166016" width="558.137" height="513.632" rx="30" fill="#002026" fill-opacity="0.1"/>
<path d="M86.5537 233.639C85.0075 233.639 83.7705 233.211 82.8428 232.355C81.927 231.487 81.4691 230.244 81.4691 228.626V225.665C81.4691 224.047 81.927 222.81 82.8428 221.954C83.7705 221.085 85.0075 220.651 86.5537 220.651C88.1118 220.651 89.3488 221.085 90.2646 221.954C91.1805 222.81 91.6384 224.047 91.6384 225.665V228.626C91.6384 230.244 91.1805 231.487 90.2646 232.355C89.3488 233.211 88.1118 233.639 86.5537 233.639ZM86.5537 231.713C87.4815 231.713 88.201 231.445 88.7125 230.91C89.2358 230.363 89.4975 229.625 89.4975 228.697V225.593C89.4975 224.665 89.2358 223.934 88.7125 223.399C88.201 222.852 87.4815 222.578 86.5537 222.578C85.6379 222.578 84.9183 222.852 84.395 223.399C83.8835 223.934 83.6278 224.665 83.6278 225.593V228.697C83.6278 229.625 83.8835 230.363 84.395 230.91C84.9183 231.445 85.6379 231.713 86.5537 231.713ZM93.8655 233.39V224.576H95.8815V225.593H96.1848C96.3156 225.224 96.5357 224.957 96.8449 224.79C97.1541 224.624 97.5229 224.541 97.951 224.541H99.0215V226.36H97.9154C97.3207 226.36 96.8389 226.521 96.4702 226.842C96.1015 227.151 95.9172 227.633 95.9172 228.287V233.39H93.8655ZM100.093 229.019V228.751C100.093 227.823 100.277 227.032 100.646 226.378C101.015 225.712 101.508 225.207 102.127 224.862C102.745 224.505 103.423 224.326 104.161 224.326C104.993 224.326 105.623 224.475 106.052 224.772C106.492 225.07 106.813 225.391 107.015 225.736H107.318V224.576H109.317V235.067C109.317 235.65 109.15 236.107 108.817 236.44C108.484 236.785 108.032 236.958 107.461 236.958H101.538V235.174H106.765C107.11 235.174 107.283 234.995 107.283 234.639V232.087H106.979C106.849 232.289 106.67 232.498 106.444 232.712C106.218 232.914 105.921 233.086 105.552 233.229C105.183 233.372 104.72 233.443 104.161 233.443C103.423 233.443 102.745 233.271 102.127 232.926C101.508 232.569 101.015 232.063 100.646 231.409C100.277 230.743 100.093 229.946 100.093 229.019ZM104.731 231.641C105.469 231.641 106.081 231.409 106.569 230.945C107.057 230.47 107.301 229.81 107.301 228.965V228.787C107.301 227.93 107.057 227.27 106.569 226.806C106.093 226.342 105.481 226.111 104.731 226.111C103.994 226.111 103.376 226.342 102.876 226.806C102.388 227.27 102.144 227.93 102.144 228.787V228.965C102.144 229.81 102.388 230.47 102.876 230.945C103.376 231.409 103.994 231.641 104.731 231.641ZM114.645 233.639C114.027 233.639 113.468 233.532 112.968 233.318C112.469 233.092 112.07 232.771 111.773 232.355C111.487 231.939 111.345 231.427 111.345 230.821C111.345 230.226 111.487 229.726 111.773 229.322C112.07 228.918 112.475 228.614 112.986 228.412C113.497 228.198 114.08 228.091 114.734 228.091H117.286V227.556C117.286 227.092 117.143 226.717 116.857 226.432C116.572 226.134 116.126 225.986 115.519 225.986C114.925 225.986 114.473 226.128 114.163 226.414C113.866 226.687 113.67 227.044 113.575 227.484L111.684 226.86C111.826 226.396 112.052 225.974 112.362 225.593C112.683 225.213 113.105 224.909 113.628 224.683C114.152 224.445 114.794 224.326 115.555 224.326C116.709 224.326 117.613 224.618 118.267 225.201C118.933 225.772 119.266 226.604 119.266 227.698V231.16C119.266 231.516 119.432 231.695 119.766 231.695H120.515V233.39H119.07C118.642 233.39 118.291 233.283 118.017 233.069C117.744 232.854 117.607 232.563 117.607 232.194V232.159H117.303C117.232 232.325 117.107 232.527 116.929 232.765C116.75 233.003 116.477 233.211 116.108 233.39C115.751 233.556 115.264 233.639 114.645 233.639ZM114.984 231.962C115.662 231.962 116.215 231.772 116.643 231.391C117.072 230.999 117.286 230.476 117.286 229.821V229.643H114.859C114.419 229.643 114.062 229.738 113.789 229.929C113.515 230.119 113.378 230.398 113.378 230.767C113.378 231.124 113.521 231.415 113.807 231.641C114.092 231.855 114.485 231.962 114.984 231.962ZM122.212 233.39V224.576H124.228V225.807H124.532C124.686 225.474 124.966 225.159 125.37 224.862C125.775 224.564 126.387 224.416 127.208 224.416C127.886 224.416 128.486 224.57 129.01 224.88C129.533 225.189 129.938 225.617 130.223 226.164C130.52 226.711 130.669 227.359 130.669 228.109V233.39H128.617V228.269C128.617 227.556 128.439 227.026 128.082 226.681C127.737 226.325 127.244 226.146 126.601 226.146C125.876 226.146 125.305 226.39 124.889 226.878C124.472 227.353 124.264 228.037 124.264 228.929V233.39H122.212ZM133.189 233.39V224.576H135.24V233.39H133.189ZM134.206 223.452C133.837 223.452 133.516 223.333 133.242 223.095C132.981 222.846 132.85 222.519 132.85 222.114C132.85 221.71 132.981 221.389 133.242 221.151C133.516 220.901 133.837 220.776 134.206 220.776C134.598 220.776 134.919 220.901 135.169 221.151C135.431 221.389 135.562 221.71 135.562 222.114C135.562 222.519 135.431 222.846 135.169 223.095C134.919 223.333 134.598 223.452 134.206 223.452ZM137.502 233.39V230.928L142.533 226.539V226.271H137.68V224.576H144.745V227.038L139.714 231.427V231.695H144.888V233.39H137.502ZM149.804 233.639C149.186 233.639 148.627 233.532 148.127 233.318C147.628 233.092 147.229 232.771 146.932 232.355C146.647 231.939 146.504 231.427 146.504 230.821C146.504 230.226 146.647 229.726 146.932 229.322C147.229 228.918 147.634 228.614 148.145 228.412C148.657 228.198 149.239 228.091 149.894 228.091H152.445V227.556C152.445 227.092 152.302 226.717 152.017 226.432C151.731 226.134 151.285 225.986 150.679 225.986C150.084 225.986 149.632 226.128 149.323 226.414C149.025 226.687 148.829 227.044 148.734 227.484L146.843 226.86C146.986 226.396 147.212 225.974 147.521 225.593C147.842 225.213 148.264 224.909 148.787 224.683C149.311 224.445 149.953 224.326 150.714 224.326C151.868 224.326 152.772 224.618 153.426 225.201C154.092 225.772 154.425 226.604 154.425 227.698V231.16C154.425 231.516 154.592 231.695 154.925 231.695H155.674V233.39H154.229C153.801 233.39 153.45 233.283 153.176 233.069C152.903 232.854 152.766 232.563 152.766 232.194V232.159H152.463C152.391 232.325 152.266 232.527 152.088 232.765C151.91 233.003 151.636 233.211 151.267 233.39C150.911 233.556 150.423 233.639 149.804 233.639ZM150.143 231.962C150.821 231.962 151.374 231.772 151.803 231.391C152.231 230.999 152.445 230.476 152.445 229.821V229.643H150.018C149.578 229.643 149.222 229.738 148.948 229.929C148.674 230.119 148.538 230.398 148.538 230.767C148.538 231.124 148.68 231.415 148.966 231.641C149.251 231.855 149.644 231.962 150.143 231.962ZM160.099 233.39C159.528 233.39 159.07 233.223 158.725 232.89C158.392 232.545 158.225 232.081 158.225 231.499V226.271H155.924V224.576H158.225V221.739H160.277V224.576H162.81V226.271H160.277V231.16C160.277 231.516 160.443 231.695 160.776 231.695H162.543V233.39H160.099ZM164.898 233.39V224.576H166.95V233.39H164.898ZM165.915 223.452C165.546 223.452 165.225 223.333 164.952 223.095C164.69 222.846 164.559 222.519 164.559 222.114C164.559 221.71 164.69 221.389 164.952 221.151C165.225 220.901 165.546 220.776 165.915 220.776C166.308 220.776 166.629 220.901 166.879 221.151C167.14 221.389 167.271 221.71 167.271 222.114C167.271 222.519 167.14 222.846 166.879 223.095C166.629 223.333 166.308 223.452 165.915 223.452ZM173.725 233.639C172.845 233.639 172.054 233.461 171.352 233.104C170.662 232.735 170.115 232.218 169.711 231.552C169.318 230.874 169.122 230.065 169.122 229.126V228.84C169.122 227.901 169.318 227.092 169.711 226.414C170.115 225.736 170.662 225.218 171.352 224.862C172.054 224.505 172.845 224.326 173.725 224.326C174.605 224.326 175.39 224.505 176.08 224.862C176.77 225.218 177.311 225.736 177.703 226.414C178.108 227.092 178.31 227.901 178.31 228.84V229.126C178.31 230.065 178.108 230.874 177.703 231.552C177.311 232.218 176.77 232.735 176.08 233.104C175.39 233.461 174.605 233.639 173.725 233.639ZM173.725 231.82C174.474 231.82 175.087 231.582 175.563 231.106C176.038 230.618 176.276 229.94 176.276 229.072V228.894C176.276 228.025 176.038 227.353 175.563 226.878C175.087 226.39 174.474 226.146 173.725 226.146C172.976 226.146 172.363 226.39 171.887 226.878C171.412 227.353 171.174 228.025 171.174 228.894V229.072C171.174 229.94 171.412 230.618 171.887 231.106C172.363 231.582 172.976 231.82 173.725 231.82ZM180.492 233.39V224.576H182.508V225.807H182.811C182.966 225.474 183.245 225.159 183.65 224.862C184.054 224.564 184.666 224.416 185.487 224.416C186.165 224.416 186.766 224.57 187.289 224.88C187.812 225.189 188.217 225.617 188.502 226.164C188.8 226.711 188.948 227.359 188.948 228.109V233.39H186.897V228.269C186.897 227.556 186.718 227.026 186.361 226.681C186.016 226.325 185.523 226.146 184.881 226.146C184.155 226.146 183.584 226.39 183.168 226.878C182.752 227.353 182.543 228.037 182.543 228.929V233.39H180.492ZM196.015 233.39V224.576H198.031V225.807H198.335C198.489 225.474 198.769 225.159 199.173 224.862C199.578 224.564 200.19 224.416 201.011 224.416C201.689 224.416 202.289 224.57 202.813 224.88C203.336 225.189 203.741 225.617 204.026 226.164C204.323 226.711 204.472 227.359 204.472 228.109V233.39H202.42V228.269C202.42 227.556 202.242 227.026 201.885 226.681C201.54 226.325 201.047 226.146 200.404 226.146C199.679 226.146 199.108 226.39 198.692 226.878C198.275 227.353 198.067 228.037 198.067 228.929V233.39H196.015ZM209.721 233.639C209.103 233.639 208.544 233.532 208.044 233.318C207.545 233.092 207.146 232.771 206.849 232.355C206.564 231.939 206.421 231.427 206.421 230.821C206.421 230.226 206.564 229.726 206.849 229.322C207.146 228.918 207.551 228.614 208.062 228.412C208.574 228.198 209.157 228.091 209.811 228.091H212.362V227.556C212.362 227.092 212.219 226.717 211.934 226.432C211.648 226.134 211.202 225.986 210.596 225.986C210.001 225.986 209.549 226.128 209.24 226.414C208.942 226.687 208.746 227.044 208.651 227.484L206.76 226.86C206.903 226.396 207.129 225.974 207.438 225.593C207.759 225.213 208.181 224.909 208.705 224.683C209.228 224.445 209.87 224.326 210.631 224.326C211.785 224.326 212.689 224.618 213.343 225.201C214.009 225.772 214.342 226.604 214.342 227.698V231.16C214.342 231.516 214.509 231.695 214.842 231.695H215.591V233.39H214.146C213.718 233.39 213.367 233.283 213.093 233.069C212.82 232.854 212.683 232.563 212.683 232.194V232.159H212.38C212.308 232.325 212.184 232.527 212.005 232.765C211.827 233.003 211.553 233.211 211.184 233.39C210.828 233.556 210.34 233.639 209.721 233.639ZM210.06 231.962C210.738 231.962 211.291 231.772 211.72 231.391C212.148 230.999 212.362 230.476 212.362 229.821V229.643H209.936C209.495 229.643 209.139 229.738 208.865 229.929C208.592 230.119 208.455 230.398 208.455 230.767C208.455 231.124 208.597 231.415 208.883 231.641C209.168 231.855 209.561 231.962 210.06 231.962ZM217.289 233.39V224.576H219.305V225.557H219.608C219.763 225.26 220.018 224.998 220.375 224.772C220.744 224.535 221.232 224.416 221.838 224.416C222.48 224.416 222.998 224.546 223.39 224.808C223.783 225.07 224.08 225.403 224.282 225.807H224.568C224.77 225.403 225.061 225.07 225.442 224.808C225.823 224.546 226.364 224.416 227.066 224.416C227.613 224.416 228.106 224.535 228.546 224.772C228.998 225.01 229.355 225.361 229.617 225.825C229.89 226.289 230.027 226.866 230.027 227.556V233.39H227.975V227.698C227.975 227.187 227.839 226.8 227.565 226.539C227.292 226.265 226.911 226.128 226.423 226.128C225.888 226.128 225.46 226.307 225.139 226.664C224.829 227.009 224.675 227.508 224.675 228.162V233.39H222.641V227.698C222.641 227.187 222.504 226.8 222.231 226.539C221.957 226.265 221.576 226.128 221.089 226.128C220.542 226.128 220.114 226.307 219.804 226.664C219.495 227.009 219.34 227.508 219.34 228.162V233.39H217.289ZM236.583 233.639C235.703 233.639 234.924 233.455 234.246 233.086C233.58 232.706 233.057 232.176 232.676 231.499C232.307 230.809 232.123 230.006 232.123 229.09V228.876C232.123 227.948 232.307 227.145 232.676 226.467C233.045 225.789 233.562 225.266 234.228 224.897C234.894 224.517 235.661 224.326 236.53 224.326C237.386 224.326 238.135 224.517 238.778 224.897C239.42 225.266 239.919 225.789 240.276 226.467C240.633 227.145 240.811 227.936 240.811 228.84V229.572H234.192C234.216 230.262 234.46 230.815 234.924 231.231C235.388 231.647 235.959 231.855 236.637 231.855C237.303 231.855 237.796 231.713 238.117 231.427C238.439 231.13 238.682 230.797 238.849 230.428L240.544 231.302C240.377 231.623 240.133 231.968 239.812 232.337C239.503 232.694 239.087 233.003 238.563 233.265C238.04 233.515 237.38 233.639 236.583 233.639ZM234.21 228.02H238.724C238.676 227.437 238.45 226.973 238.046 226.628C237.654 226.283 237.142 226.111 236.512 226.111C235.858 226.111 235.334 226.283 234.942 226.628C234.549 226.973 234.305 227.437 234.21 228.02Z" fill="#102E34"/>
<path d="M64.1516 197H495.804V193H64.1516V197ZM497.804 199V254.779H501.804V199H497.804ZM495.804 256.779H64.1516V260.779H495.804V256.779ZM62.1516 254.779V199H58.1516V254.779H62.1516ZM64.1516 256.779C63.0471 256.779 62.1516 255.884 62.1516 254.779H58.1516C58.1516 258.093 60.8379 260.779 64.1516 260.779V256.779ZM497.804 254.779C497.804 255.884 496.909 256.779 495.804 256.779V260.779C499.118 260.779 501.804 258.093 501.804 254.779H497.804ZM495.804 197C496.909 197 497.804 197.895 497.804 199H501.804C501.804 195.686 499.118 193 495.804 193V197ZM64.1516 193C60.8379 193 58.1516 195.686 58.1516 199H62.1516C62.1516 197.895 63.0471 197 64.1516 197V193Z" fill="#99A6A8"/>
<path d="M86.5537 333.419C85.0075 333.419 83.7705 332.991 82.8428 332.134C81.927 331.266 81.4691 330.023 81.4691 328.405V325.444C81.4691 323.826 81.927 322.589 82.8428 321.733C83.7705 320.865 85.0075 320.43 86.5537 320.43C88.1118 320.43 89.3488 320.865 90.2646 321.733C91.1805 322.589 91.6384 323.826 91.6384 325.444V328.405C91.6384 330.023 91.1805 331.266 90.2646 332.134C89.3488 332.991 88.1118 333.419 86.5537 333.419ZM86.5537 331.492C87.4815 331.492 88.201 331.224 88.7125 330.689C89.2358 330.142 89.4975 329.405 89.4975 328.477V325.372C89.4975 324.445 89.2358 323.713 88.7125 323.178C88.201 322.631 87.4815 322.357 86.5537 322.357C85.6379 322.357 84.9183 322.631 84.395 323.178C83.8835 323.713 83.6278 324.445 83.6278 325.372V328.477C83.6278 329.405 83.8835 330.142 84.395 330.689C84.9183 331.224 85.6379 331.492 86.5537 331.492ZM93.8655 333.169V324.356H95.8815V325.372H96.1848C96.3156 325.004 96.5357 324.736 96.8449 324.57C97.1541 324.403 97.5229 324.32 97.951 324.32H99.0215V326.14H97.9154C97.3207 326.14 96.8389 326.3 96.4702 326.621C96.1015 326.931 95.9172 327.412 95.9172 328.066V333.169H93.8655ZM100.093 328.798V328.53C100.093 327.603 100.277 326.812 100.646 326.157C101.015 325.491 101.508 324.986 102.127 324.641C102.745 324.284 103.423 324.106 104.161 324.106C104.993 324.106 105.623 324.254 106.052 324.552C106.492 324.849 106.813 325.17 107.015 325.515H107.318V324.356H109.317V334.846C109.317 335.429 109.15 335.887 108.817 336.22C108.484 336.565 108.032 336.737 107.461 336.737H101.538V334.953H106.765C107.11 334.953 107.283 334.775 107.283 334.418V331.867H106.979C106.849 332.069 106.67 332.277 106.444 332.491C106.218 332.693 105.921 332.866 105.552 333.008C105.183 333.151 104.72 333.222 104.161 333.222C103.423 333.222 102.745 333.05 102.127 332.705C101.508 332.348 101.015 331.843 100.646 331.189C100.277 330.523 100.093 329.726 100.093 328.798ZM104.731 331.421C105.469 331.421 106.081 331.189 106.569 330.725C107.057 330.249 107.301 329.589 107.301 328.744V328.566C107.301 327.71 107.057 327.049 106.569 326.586C106.093 326.122 105.481 325.89 104.731 325.89C103.994 325.89 103.376 326.122 102.876 326.586C102.388 327.049 102.144 327.71 102.144 328.566V328.744C102.144 329.589 102.388 330.249 102.876 330.725C103.376 331.189 103.994 331.421 104.731 331.421ZM114.645 333.419C114.027 333.419 113.468 333.312 112.968 333.098C112.469 332.872 112.07 332.55 111.773 332.134C111.487 331.718 111.345 331.206 111.345 330.6C111.345 330.005 111.487 329.506 111.773 329.101C112.07 328.697 112.475 328.394 112.986 328.191C113.497 327.977 114.08 327.87 114.734 327.87H117.286V327.335C117.286 326.871 117.143 326.496 116.857 326.211C116.572 325.914 116.126 325.765 115.519 325.765C114.925 325.765 114.473 325.908 114.163 326.193C113.866 326.467 113.67 326.824 113.575 327.264L111.684 326.639C111.826 326.175 112.052 325.753 112.362 325.372C112.683 324.992 113.105 324.689 113.628 324.463C114.152 324.225 114.794 324.106 115.555 324.106C116.709 324.106 117.613 324.397 118.267 324.98C118.933 325.551 119.266 326.383 119.266 327.478V330.939C119.266 331.296 119.432 331.474 119.766 331.474H120.515V333.169H119.07C118.642 333.169 118.291 333.062 118.017 332.848C117.744 332.634 117.607 332.342 117.607 331.974V331.938H117.303C117.232 332.104 117.107 332.307 116.929 332.545C116.75 332.782 116.477 332.991 116.108 333.169C115.751 333.335 115.264 333.419 114.645 333.419ZM114.984 331.742C115.662 331.742 116.215 331.551 116.643 331.171C117.072 330.778 117.286 330.255 117.286 329.601V329.422H114.859C114.419 329.422 114.062 329.517 113.789 329.708C113.515 329.898 113.378 330.178 113.378 330.546C113.378 330.903 113.521 331.195 113.807 331.421C114.092 331.635 114.485 331.742 114.984 331.742ZM122.212 333.169V324.356H124.228V325.587H124.532C124.686 325.254 124.966 324.938 125.37 324.641C125.775 324.344 126.387 324.195 127.208 324.195C127.886 324.195 128.486 324.35 129.01 324.659C129.533 324.968 129.938 325.396 130.223 325.943C130.52 326.49 130.669 327.139 130.669 327.888V333.169H128.617V328.049C128.617 327.335 128.439 326.806 128.082 326.461C127.737 326.104 127.244 325.926 126.601 325.926C125.876 325.926 125.305 326.169 124.889 326.657C124.472 327.133 124.264 327.817 124.264 328.709V333.169H122.212ZM133.189 333.169V324.356H135.24V333.169H133.189ZM134.206 323.232C133.837 323.232 133.516 323.113 133.242 322.875C132.981 322.625 132.85 322.298 132.85 321.893C132.85 321.489 132.981 321.168 133.242 320.93C133.516 320.68 133.837 320.555 134.206 320.555C134.598 320.555 134.919 320.68 135.169 320.93C135.431 321.168 135.562 321.489 135.562 321.893C135.562 322.298 135.431 322.625 135.169 322.875C134.919 323.113 134.598 323.232 134.206 323.232ZM137.502 333.169V330.707L142.533 326.318V326.05H137.68V324.356H144.745V326.818L139.714 331.206V331.474H144.888V333.169H137.502ZM149.804 333.419C149.186 333.419 148.627 333.312 148.127 333.098C147.628 332.872 147.229 332.55 146.932 332.134C146.647 331.718 146.504 331.206 146.504 330.6C146.504 330.005 146.647 329.506 146.932 329.101C147.229 328.697 147.634 328.394 148.145 328.191C148.657 327.977 149.239 327.87 149.894 327.87H152.445V327.335C152.445 326.871 152.302 326.496 152.017 326.211C151.731 325.914 151.285 325.765 150.679 325.765C150.084 325.765 149.632 325.908 149.323 326.193C149.025 326.467 148.829 326.824 148.734 327.264L146.843 326.639C146.986 326.175 147.212 325.753 147.521 325.372C147.842 324.992 148.264 324.689 148.787 324.463C149.311 324.225 149.953 324.106 150.714 324.106C151.868 324.106 152.772 324.397 153.426 324.98C154.092 325.551 154.425 326.383 154.425 327.478V330.939C154.425 331.296 154.592 331.474 154.925 331.474H155.674V333.169H154.229C153.801 333.169 153.45 333.062 153.176 332.848C152.903 332.634 152.766 332.342 152.766 331.974V331.938H152.463C152.391 332.104 152.266 332.307 152.088 332.545C151.91 332.782 151.636 332.991 151.267 333.169C150.911 333.335 150.423 333.419 149.804 333.419ZM150.143 331.742C150.821 331.742 151.374 331.551 151.803 331.171C152.231 330.778 152.445 330.255 152.445 329.601V329.422H150.018C149.578 329.422 149.222 329.517 148.948 329.708C148.674 329.898 148.538 330.178 148.538 330.546C148.538 330.903 148.68 331.195 148.966 331.421C149.251 331.635 149.644 331.742 150.143 331.742ZM160.099 333.169C159.528 333.169 159.07 333.002 158.725 332.669C158.392 332.324 158.225 331.861 158.225 331.278V326.05H155.924V324.356H158.225V321.519H160.277V324.356H162.81V326.05H160.277V330.939C160.277 331.296 160.443 331.474 160.776 331.474H162.543V333.169H160.099ZM164.898 333.169V324.356H166.95V333.169H164.898ZM165.915 323.232C165.546 323.232 165.225 323.113 164.952 322.875C164.69 322.625 164.559 322.298 164.559 321.893C164.559 321.489 164.69 321.168 164.952 320.93C165.225 320.68 165.546 320.555 165.915 320.555C166.308 320.555 166.629 320.68 166.879 320.93C167.14 321.168 167.271 321.489 167.271 321.893C167.271 322.298 167.14 322.625 166.879 322.875C166.629 323.113 166.308 323.232 165.915 323.232ZM173.725 333.419C172.845 333.419 172.054 333.24 171.352 332.883C170.662 332.515 170.115 331.997 169.711 331.331C169.318 330.653 169.122 329.845 169.122 328.905V328.619C169.122 327.68 169.318 326.871 169.711 326.193C170.115 325.515 170.662 324.998 171.352 324.641C172.054 324.284 172.845 324.106 173.725 324.106C174.605 324.106 175.39 324.284 176.08 324.641C176.77 324.998 177.311 325.515 177.703 326.193C178.108 326.871 178.31 327.68 178.31 328.619V328.905C178.31 329.845 178.108 330.653 177.703 331.331C177.311 331.997 176.77 332.515 176.08 332.883C175.39 333.24 174.605 333.419 173.725 333.419ZM173.725 331.599C174.474 331.599 175.087 331.361 175.563 330.885C176.038 330.398 176.276 329.72 176.276 328.851V328.673C176.276 327.805 176.038 327.133 175.563 326.657C175.087 326.169 174.474 325.926 173.725 325.926C172.976 325.926 172.363 326.169 171.887 326.657C171.412 327.133 171.174 327.805 171.174 328.673V328.851C171.174 329.72 171.412 330.398 171.887 330.885C172.363 331.361 172.976 331.599 173.725 331.599ZM180.492 333.169V324.356H182.508V325.587H182.811C182.966 325.254 183.245 324.938 183.65 324.641C184.054 324.344 184.666 324.195 185.487 324.195C186.165 324.195 186.766 324.35 187.289 324.659C187.812 324.968 188.217 325.396 188.502 325.943C188.8 326.49 188.948 327.139 188.948 327.888V333.169H186.897V328.049C186.897 327.335 186.718 326.806 186.361 326.461C186.016 326.104 185.523 325.926 184.881 325.926C184.155 325.926 183.584 326.169 183.168 326.657C182.752 327.133 182.543 327.817 182.543 328.709V333.169H180.492ZM200.047 333.419C199.167 333.419 198.388 333.234 197.71 332.866C197.044 332.485 196.521 331.956 196.14 331.278C195.772 330.588 195.587 329.785 195.587 328.869V328.655C195.587 327.727 195.772 326.925 196.14 326.247C196.509 325.569 197.026 325.045 197.692 324.677C198.359 324.296 199.126 324.106 199.994 324.106C200.85 324.106 201.6 324.296 202.242 324.677C202.884 325.045 203.384 325.569 203.741 326.247C204.097 326.925 204.276 327.716 204.276 328.619V329.351H197.657C197.681 330.041 197.924 330.594 198.388 331.01C198.852 331.426 199.423 331.635 200.101 331.635C200.767 331.635 201.261 331.492 201.582 331.206C201.903 330.909 202.147 330.576 202.313 330.207L204.008 331.082C203.842 331.403 203.598 331.748 203.277 332.116C202.967 332.473 202.551 332.782 202.028 333.044C201.504 333.294 200.844 333.419 200.047 333.419ZM197.675 327.799H202.188C202.141 327.216 201.915 326.752 201.51 326.407C201.118 326.062 200.607 325.89 199.976 325.89C199.322 325.89 198.799 326.062 198.406 326.407C198.014 326.752 197.77 327.216 197.675 327.799ZM206.382 333.169V324.356H208.398V325.337H208.701C208.856 325.039 209.112 324.778 209.468 324.552C209.837 324.314 210.325 324.195 210.931 324.195C211.574 324.195 212.091 324.326 212.484 324.587C212.876 324.849 213.173 325.182 213.376 325.587H213.661C213.863 325.182 214.155 324.849 214.535 324.587C214.916 324.326 215.457 324.195 216.159 324.195C216.706 324.195 217.2 324.314 217.64 324.552C218.092 324.79 218.448 325.141 218.71 325.604C218.984 326.068 219.12 326.645 219.12 327.335V333.169H217.069V327.478C217.069 326.966 216.932 326.58 216.658 326.318C216.385 326.044 216.004 325.908 215.517 325.908C214.981 325.908 214.553 326.086 214.232 326.443C213.923 326.788 213.768 327.287 213.768 327.942V333.169H211.734V327.478C211.734 326.966 211.598 326.58 211.324 326.318C211.05 326.044 210.67 325.908 210.182 325.908C209.635 325.908 209.207 326.086 208.898 326.443C208.588 326.788 208.434 327.287 208.434 327.942V333.169H206.382ZM224.374 333.419C223.756 333.419 223.197 333.312 222.697 333.098C222.197 332.872 221.799 332.55 221.502 332.134C221.216 331.718 221.073 331.206 221.073 330.6C221.073 330.005 221.216 329.506 221.502 329.101C221.799 328.697 222.203 328.394 222.715 328.191C223.226 327.977 223.809 327.87 224.463 327.87H227.015V327.335C227.015 326.871 226.872 326.496 226.586 326.211C226.301 325.914 225.855 325.765 225.248 325.765C224.654 325.765 224.202 325.908 223.892 326.193C223.595 326.467 223.399 326.824 223.304 327.264L221.412 326.639C221.555 326.175 221.781 325.753 222.09 325.372C222.412 324.992 222.834 324.689 223.357 324.463C223.88 324.225 224.523 324.106 225.284 324.106C226.438 324.106 227.342 324.397 227.996 324.98C228.662 325.551 228.995 326.383 228.995 327.478V330.939C228.995 331.296 229.161 331.474 229.494 331.474H230.244V333.169H228.799C228.37 333.169 228.02 333.062 227.746 332.848C227.472 332.634 227.336 332.342 227.336 331.974V331.938H227.032C226.961 332.104 226.836 332.307 226.658 332.545C226.479 332.782 226.206 332.991 225.837 333.169C225.48 333.335 224.993 333.419 224.374 333.419ZM224.713 331.742C225.391 331.742 225.944 331.551 226.372 331.171C226.8 330.778 227.015 330.255 227.015 329.601V329.422H224.588C224.148 329.422 223.791 329.517 223.518 329.708C223.244 329.898 223.107 330.178 223.107 330.546C223.107 330.903 223.25 331.195 223.536 331.421C223.821 331.635 224.213 331.742 224.713 331.742ZM231.941 333.169V324.356H233.993V333.169H231.941ZM232.958 323.232C232.589 323.232 232.268 323.113 231.995 322.875C231.733 322.625 231.602 322.298 231.602 321.893C231.602 321.489 231.733 321.168 231.995 320.93C232.268 320.68 232.589 320.555 232.958 320.555C233.351 320.555 233.672 320.68 233.922 320.93C234.183 321.168 234.314 321.489 234.314 321.893C234.314 322.298 234.183 322.625 233.922 322.875C233.672 323.113 233.351 323.232 232.958 323.232ZM236.593 333.169V320.68H238.645V333.169H236.593Z" fill="#102E34"/>
<path d="M64.1516 296.779H495.804V292.779H64.1516V296.779ZM497.804 298.779V354.559H501.804V298.779H497.804ZM495.804 356.559H64.1516V360.559H495.804V356.559ZM62.1516 354.559V298.779H58.1516V354.559H62.1516ZM64.1516 356.559C63.0471 356.559 62.1516 355.663 62.1516 354.559H58.1516C58.1516 357.872 60.8379 360.559 64.1516 360.559V356.559ZM497.804 354.559C497.804 355.663 496.909 356.559 495.804 356.559V360.559C499.118 360.559 501.804 357.872 501.804 354.559H497.804ZM495.804 296.779C496.909 296.779 497.804 297.675 497.804 298.779H501.804C501.804 295.466 499.118 292.779 495.804 292.779V296.779ZM64.1516 292.779C60.8379 292.779 58.1516 295.466 58.1516 298.779H62.1516C62.1516 297.675 63.0471 296.779 64.1516 296.779V292.779Z" fill="#99A6A8"/>
<g clip-path="url(#clip0_5355_177275)">
<rect x="60.1526" y="419" width="439.65" height="50" rx="7" fill="white"/>
<path d="M225.662 450.216C224.606 450.216 223.658 449.982 222.818 449.514C221.978 449.046 221.318 448.362 220.838 447.462C220.358 446.55 220.118 445.446 220.118 444.15C220.118 442.866 220.364 441.768 220.856 440.856C221.348 439.932 222.014 439.23 222.854 438.75C223.694 438.258 224.636 438.012 225.68 438.012C226.52 438.012 227.228 438.168 227.804 438.48C228.392 438.78 228.872 439.122 229.244 439.506L228.128 440.856C227.828 440.568 227.492 440.328 227.12 440.136C226.76 439.932 226.304 439.83 225.752 439.83C224.708 439.83 223.862 440.214 223.214 440.982C222.578 441.738 222.26 442.776 222.26 444.096C222.26 445.44 222.566 446.496 223.178 447.264C223.79 448.02 224.684 448.398 225.86 448.398C226.196 448.398 226.514 448.356 226.814 448.272C227.114 448.176 227.36 448.044 227.552 447.876V445.338H225.32V443.628H229.424V448.812C229.028 449.208 228.5 449.544 227.84 449.82C227.192 450.084 226.466 450.216 225.662 450.216ZM235.633 450.216C234.817 450.216 234.079 450.036 233.419 449.676C232.759 449.304 232.237 448.776 231.853 448.092C231.469 447.396 231.277 446.562 231.277 445.59C231.277 444.63 231.469 443.802 231.853 443.106C232.249 442.41 232.759 441.876 233.383 441.504C234.007 441.132 234.661 440.946 235.345 440.946C236.149 440.946 236.821 441.126 237.361 441.486C237.901 441.834 238.309 442.326 238.585 442.962C238.861 443.586 238.999 444.312 238.999 445.14C238.999 445.572 238.969 445.908 238.909 446.148H233.293C233.389 446.928 233.671 447.534 234.139 447.966C234.607 448.398 235.195 448.614 235.903 448.614C236.287 448.614 236.641 448.56 236.965 448.452C237.301 448.332 237.631 448.17 237.955 447.966L238.657 449.262C238.237 449.538 237.769 449.766 237.253 449.946C236.737 450.126 236.197 450.216 235.633 450.216ZM233.275 444.744H237.199C237.199 444.06 237.049 443.526 236.749 443.142C236.449 442.746 235.999 442.548 235.399 442.548C234.883 442.548 234.421 442.74 234.013 443.124C233.617 443.496 233.371 444.036 233.275 444.744ZM243.914 450.216C242.894 450.216 242.168 449.922 241.736 449.334C241.316 448.734 241.106 447.96 241.106 447.012V442.8H239.846V441.252L241.214 441.162L241.466 438.75H243.194V441.162H245.444V442.8H243.194V447.012C243.194 448.044 243.608 448.56 244.436 448.56C244.592 448.56 244.754 448.542 244.922 448.506C245.09 448.458 245.234 448.41 245.354 448.362L245.714 449.892C245.474 449.976 245.198 450.048 244.886 450.108C244.586 450.18 244.262 450.216 243.914 450.216ZM253.374 450.216C252.774 450.216 252.174 450.102 251.574 449.874C250.974 449.634 250.458 449.34 250.026 448.992L250.998 447.66C251.394 447.96 251.79 448.2 252.186 448.38C252.582 448.56 253.002 448.65 253.446 448.65C253.926 448.65 254.28 448.548 254.508 448.344C254.736 448.14 254.85 447.888 254.85 447.588C254.85 447.336 254.754 447.132 254.562 446.976C254.382 446.808 254.148 446.664 253.86 446.544C253.572 446.412 253.272 446.286 252.96 446.166C252.576 446.022 252.192 445.848 251.808 445.644C251.436 445.428 251.13 445.158 250.89 444.834C250.65 444.498 250.53 444.084 250.53 443.592C250.53 442.812 250.818 442.176 251.394 441.684C251.97 441.192 252.75 440.946 253.734 440.946C254.358 440.946 254.916 441.054 255.408 441.27C255.9 441.486 256.326 441.732 256.686 442.008L255.732 443.268C255.42 443.04 255.102 442.86 254.778 442.728C254.466 442.584 254.136 442.512 253.788 442.512C253.344 442.512 253.014 442.608 252.798 442.8C252.582 442.98 252.474 443.208 252.474 443.484C252.474 443.832 252.654 444.096 253.014 444.276C253.374 444.456 253.794 444.63 254.274 444.798C254.682 444.942 255.078 445.122 255.462 445.338C255.846 445.542 256.164 445.812 256.416 446.148C256.68 446.484 256.812 446.928 256.812 447.48C256.812 448.236 256.518 448.884 255.93 449.424C255.342 449.952 254.49 450.216 253.374 450.216ZM261.422 450.216C260.402 450.216 259.676 449.922 259.244 449.334C258.824 448.734 258.614 447.96 258.614 447.012V442.8H257.354V441.252L258.722 441.162L258.974 438.75H260.702V441.162H262.952V442.8H260.702V447.012C260.702 448.044 261.116 448.56 261.944 448.56C262.1 448.56 262.262 448.542 262.43 448.506C262.598 448.458 262.742 448.41 262.862 448.362L263.222 449.892C262.982 449.976 262.706 450.048 262.394 450.108C262.094 450.18 261.77 450.216 261.422 450.216ZM266.567 450.216C265.799 450.216 265.169 449.976 264.677 449.496C264.197 449.016 263.957 448.392 263.957 447.624C263.957 446.676 264.371 445.944 265.199 445.428C266.027 444.9 267.347 444.54 269.159 444.348C269.147 443.88 269.021 443.478 268.781 443.142C268.553 442.794 268.139 442.62 267.539 442.62C267.107 442.62 266.681 442.704 266.261 442.872C265.853 443.04 265.451 443.244 265.055 443.484L264.299 442.098C264.791 441.786 265.343 441.516 265.955 441.288C266.579 441.06 267.239 440.946 267.935 440.946C269.039 440.946 269.861 441.276 270.401 441.936C270.953 442.584 271.229 443.526 271.229 444.762V450H269.519L269.375 449.028H269.303C268.907 449.364 268.481 449.646 268.025 449.874C267.581 450.102 267.095 450.216 266.567 450.216ZM267.233 448.596C267.593 448.596 267.917 448.512 268.205 448.344C268.505 448.164 268.823 447.924 269.159 447.624V445.644C267.959 445.8 267.125 446.034 266.657 446.346C266.189 446.646 265.955 447.018 265.955 447.462C265.955 447.858 266.075 448.146 266.315 448.326C266.555 448.506 266.861 448.596 267.233 448.596ZM273.707 450V441.162H275.417L275.561 442.728H275.633C275.945 442.152 276.323 441.714 276.767 441.414C277.211 441.102 277.667 440.946 278.135 440.946C278.555 440.946 278.891 441.006 279.143 441.126L278.783 442.926C278.627 442.878 278.483 442.842 278.351 442.818C278.219 442.794 278.057 442.782 277.865 442.782C277.517 442.782 277.151 442.92 276.767 443.196C276.383 443.46 276.053 443.928 275.777 444.6V450H273.707ZM283.535 450.216C282.515 450.216 281.789 449.922 281.357 449.334C280.937 448.734 280.727 447.96 280.727 447.012V442.8H279.467V441.252L280.835 441.162L281.087 438.75H282.815V441.162H285.065V442.8H282.815V447.012C282.815 448.044 283.229 448.56 284.057 448.56C284.213 448.56 284.375 448.542 284.543 448.506C284.711 448.458 284.855 448.41 284.975 448.362L285.335 449.892C285.095 449.976 284.819 450.048 284.507 450.108C284.207 450.18 283.883 450.216 283.535 450.216ZM290.424 450.216C289.608 450.216 288.87 450.036 288.21 449.676C287.55 449.304 287.028 448.776 286.644 448.092C286.26 447.396 286.068 446.562 286.068 445.59C286.068 444.63 286.26 443.802 286.644 443.106C287.04 442.41 287.55 441.876 288.174 441.504C288.798 441.132 289.452 440.946 290.136 440.946C290.94 440.946 291.612 441.126 292.152 441.486C292.692 441.834 293.1 442.326 293.376 442.962C293.652 443.586 293.79 444.312 293.79 445.14C293.79 445.572 293.76 445.908 293.7 446.148H288.084C288.18 446.928 288.462 447.534 288.93 447.966C289.398 448.398 289.986 448.614 290.694 448.614C291.078 448.614 291.432 448.56 291.756 448.452C292.092 448.332 292.422 448.17 292.746 447.966L293.448 449.262C293.028 449.538 292.56 449.766 292.044 449.946C291.528 450.126 290.988 450.216 290.424 450.216ZM288.066 444.744H291.99C291.99 444.06 291.84 443.526 291.54 443.142C291.24 442.746 290.79 442.548 290.19 442.548C289.674 442.548 289.212 442.74 288.804 443.124C288.408 443.496 288.162 444.036 288.066 444.744ZM298.863 450.216C297.759 450.216 296.877 449.808 296.217 448.992C295.557 448.176 295.227 447.042 295.227 445.59C295.227 444.63 295.401 443.802 295.749 443.106C296.109 442.41 296.577 441.876 297.153 441.504C297.729 441.132 298.335 440.946 298.971 440.946C299.475 440.946 299.901 441.036 300.249 441.216C300.609 441.384 300.957 441.618 301.293 441.918L301.221 440.496V437.292H303.291V450H301.581L301.437 449.046H301.365C301.041 449.37 300.663 449.646 300.231 449.874C299.799 450.102 299.343 450.216 298.863 450.216ZM299.367 448.506C300.027 448.506 300.645 448.176 301.221 447.516V443.394C300.921 443.118 300.621 442.926 300.321 442.818C300.021 442.71 299.721 442.656 299.421 442.656C298.857 442.656 298.371 442.914 297.963 443.43C297.567 443.934 297.369 444.648 297.369 445.572C297.369 446.52 297.543 447.246 297.891 447.75C298.239 448.254 298.731 448.506 299.367 448.506ZM309.531 450V441.162H311.241L311.385 442.35H311.457C311.853 441.966 312.285 441.636 312.753 441.36C313.221 441.084 313.755 440.946 314.355 440.946C315.303 440.946 315.993 441.252 316.425 441.864C316.857 442.476 317.073 443.34 317.073 444.456V450H315.003V444.726C315.003 443.994 314.895 443.478 314.679 443.178C314.463 442.878 314.109 442.728 313.617 442.728C313.233 442.728 312.891 442.824 312.591 443.016C312.303 443.196 311.973 443.466 311.601 443.826V450H309.531ZM323.221 450.216C322.489 450.216 321.805 450.036 321.169 449.676C320.533 449.304 320.017 448.776 319.621 448.092C319.225 447.396 319.027 446.562 319.027 445.59C319.027 444.606 319.225 443.772 319.621 443.088C320.017 442.392 320.533 441.864 321.169 441.504C321.805 441.132 322.489 440.946 323.221 440.946C323.965 440.946 324.655 441.132 325.291 441.504C325.927 441.864 326.443 442.392 326.839 443.088C327.235 443.772 327.433 444.606 327.433 445.59C327.433 446.562 327.235 447.396 326.839 448.092C326.443 448.776 325.927 449.304 325.291 449.676C324.655 450.036 323.965 450.216 323.221 450.216ZM323.221 448.524C323.869 448.524 324.379 448.254 324.751 447.714C325.123 447.174 325.309 446.466 325.309 445.59C325.309 444.702 325.123 443.988 324.751 443.448C324.379 442.908 323.869 442.638 323.221 442.638C322.573 442.638 322.063 442.908 321.691 443.448C321.331 443.988 321.151 444.702 321.151 445.59C321.151 446.466 321.331 447.174 321.691 447.714C322.063 448.254 322.573 448.524 323.221 448.524ZM330.835 450L328.495 441.162H330.583L331.645 445.752C331.741 446.172 331.819 446.592 331.879 447.012C331.951 447.432 332.029 447.858 332.113 448.29H332.185C332.269 447.858 332.353 447.432 332.437 447.012C332.533 446.58 332.635 446.16 332.743 445.752L333.895 441.162H335.785L336.955 445.752C337.063 446.172 337.165 446.592 337.261 447.012C337.357 447.432 337.453 447.858 337.549 448.29H337.621C337.705 447.858 337.783 447.432 337.855 447.012C337.927 446.592 338.005 446.172 338.089 445.752L339.151 441.162H341.095L338.845 450H336.379L335.353 445.878C335.257 445.458 335.167 445.044 335.083 444.636C334.999 444.216 334.909 443.772 334.813 443.304H334.741C334.657 443.772 334.573 444.216 334.489 444.636C334.405 445.056 334.315 445.476 334.219 445.896L333.211 450H330.835Z" fill="#002026"/>
</g>
<path d="M302.526 109.491V109.53H302.565H305.675C306.45 109.53 307.078 110.159 307.078 110.934V117.248C307.078 118.023 306.45 118.651 305.675 118.651H254.28C253.505 118.651 252.877 118.023 252.877 117.248V110.934C252.877 110.159 253.505 109.53 254.28 109.53H257.389H257.429V109.491V62.4749C257.429 61.6999 258.057 61.0713 258.831 61.0713H301.123C301.898 61.0713 302.526 61.6999 302.526 62.4749V109.491ZM282.28 109.53H282.319V109.491V99.1597V99.1206H282.28H277.675H277.636V99.1597V109.491V109.53H277.675H282.28ZM274.79 109.53H274.83V109.491V97.717C274.83 96.9428 275.458 96.3142 276.233 96.3142H283.722C284.496 96.3142 285.125 96.9428 285.125 97.717V109.491V109.53H285.164H299.681H299.72V109.491V63.9168V63.8777H299.681H260.274H260.235V63.9168V109.491V109.53H260.274H274.79ZM255.722 112.336H255.682V112.376V115.806V115.845H255.722H304.233H304.272V115.806V112.376V112.336H304.233H304.138H304.044H303.949H303.854H303.759H303.665H303.57H303.475H303.38H303.286H303.191H303.096H303.001H302.907H302.812H302.717H302.622H302.528H302.433H302.338H302.243H302.149H302.054H301.959H301.864H301.77H301.675H301.58H301.485H301.391H301.296H301.201H301.106H301.012H300.917H300.822H300.727H300.633H300.538H300.443H300.348H300.254H300.159H300.064H299.969H299.875H299.78H299.685H299.59H299.496H299.401H299.306H299.211H299.117H299.022H298.927H298.832H298.738H298.643H298.548H298.453H298.359H298.264H298.169H298.074H297.98H297.885H297.79H297.695H297.601H297.506H297.411H297.316H297.222H297.127H297.032H296.937H296.843H296.748H296.653H296.558H296.464H296.369H296.274H296.179H296.085H295.99H295.895H295.8H295.706H295.611H295.516H295.421H295.327H295.232H295.137H295.042H294.948H294.853H294.758H294.663H294.569H294.474H294.379H294.284H294.19H294.095H294H293.905H293.811H293.716H293.621H293.526H293.432H293.337H293.242H293.147H293.053H292.958H292.863H292.768H292.674H292.579H292.484H292.389H292.295H292.2H292.105H292.01H291.916H291.821H291.726H291.631H291.537H291.442H291.347H291.252H291.158H291.063H290.968H290.873H290.779H290.684H290.589H290.494H290.4H290.305H290.21H290.115H290.021H289.926H289.831H289.736H289.642H289.547H289.452H289.357H289.263H289.168H289.073H288.978H288.884H288.789H288.694H288.599H288.505H288.41H288.315H288.22H288.126H288.031H287.936H287.841H287.747H287.652H287.557H287.462H287.368H287.273H287.178H287.083H286.989H286.894H286.799H286.704H286.61H286.515H286.42H286.325H286.231H286.136H286.041H285.946H285.852H285.757H285.662H285.567H285.473H285.378H285.283H285.188H285.094H284.999H284.904H284.809H284.715H284.62H284.525H284.43H284.336H284.241H284.146H284.051H283.957H283.862H283.767H283.672H283.578H283.483H283.388H283.294H283.199H283.104H283.009H282.915H282.82H282.725H282.63H282.536H282.441H282.346H282.251H282.157H282.062H281.967H281.872H281.778H281.683H281.588H281.493H281.399H281.304H281.209H281.114H281.02H280.925H280.83H280.735H280.641H280.546H280.451H280.356H280.262H280.167H280.072H279.977H279.883H279.788H279.693H279.598H279.504H279.409H279.314H279.219H279.125H279.03H278.935H278.84H278.746H278.651H278.556H278.461H278.367H278.272H278.177H278.082H277.988H277.893H277.798H277.703H277.609H277.514H277.419H277.324H277.23H277.135H277.04H276.945H276.851H276.756H276.661H276.566H276.472H276.377H276.282H276.187H276.093H275.998H275.903H275.808H275.714H275.619H275.524H275.429H275.335H275.24H275.145H275.05H274.956H274.861H274.766H274.671H274.577H274.482H274.387H274.292H274.198H274.103H274.008H273.913H273.819H273.724H273.629H273.534H273.44H273.345H273.25H273.155H273.061H272.966H272.871H272.776H272.682H272.587H272.492H272.397H272.303H272.208H272.113H272.018H271.924H271.829H271.734H271.639H271.545H271.45H271.355H271.26H271.166H271.071H270.976H270.881H270.787H270.692H270.597H270.502H270.408H270.313H270.218H270.123H270.029H269.934H269.839H269.744H269.65H269.555H269.46H269.365H269.271H269.176H269.081H268.986H268.892H268.797H268.702H268.607H268.513H268.418H268.323H268.228H268.134H268.039H267.944H267.849H267.755H267.66H267.565H267.47H267.376H267.281H267.186H267.091H266.997H266.902H266.807H266.712H266.618H266.523H266.428H266.333H266.239H266.144H266.049H265.954H265.86H265.765H265.67H265.575H265.481H265.386H265.291H265.196H265.102H265.007H264.912H264.817H264.723H264.628H264.533H264.438H264.344H264.249H264.154H264.059H263.965H263.87H263.775H263.68H263.586H263.491H263.396H263.301H263.207H263.112H263.017H262.922H262.828H262.733H262.638H262.543H262.449H262.354H262.259H262.164H262.07H261.975H261.88H261.785H261.691H261.596H261.501H261.406H261.312H261.217H261.122H261.027H260.933H260.838H260.743H260.648H260.554H260.459H260.364H260.27H260.175H260.08H259.985H259.891H259.796H259.701H259.606H259.512H259.417H259.322H259.227H259.133H259.038H258.943H258.848H258.754H258.659H258.564H258.469H258.375H258.28H258.185H258.09H257.996H257.901H257.806H257.711H257.617H257.522H257.427H257.332H257.238H257.143H257.048H256.953H256.859H256.764H256.669H256.574H256.48H256.385H256.29H256.195H256.101H256.006H255.911H255.816H255.722ZM266.177 81.75H272.412V87.9864H266.177V81.75ZM287.542 81.75H293.779V87.9864H287.542V81.75ZM276.859 81.75H283.095V87.9864H276.859V81.75ZM266.177 71.3237H272.412V77.5601H266.177V71.3237ZM287.542 71.3237H293.779V77.5601H287.542V71.3237ZM276.859 71.3237H283.095V77.5601H276.859V71.3237Z" fill="#102E34" stroke="#002026" stroke-width="0.0782315"/>
<rect opacity="0.2" x="260.817" y="64.7994" width="40.1758" height="42.6662" fill="#102E34" stroke="#002026" stroke-width="3.13587"/>
<circle cx="279.978" cy="89.8613" r="55.2422" stroke="#002026" stroke-width="2"/>
<defs>
<clipPath id="clip0_5355_177275">
<path d="M60.1526 426C60.1526 422.134 63.2866 419 67.1526 419H492.803C496.669 419 499.803 422.134 499.803 426V462C499.803 465.866 496.669 469 492.803 469H67.1526C63.2866 469 60.1526 465.866 60.1526 462V426Z" fill="white"/>
</clipPath>
</defs>
</svg>
