<svg width="1440" height="471" viewBox="0 0 1440 471" fill="none" xmlns="http://www.w3.org/2000/svg">
<rect width="1440" height="471" fill="#2168D1"/>
<path d="M188.941 217.5L181.966 205.62C185.611 203.955 188.041 200.355 188.041 196.44C188.041 193.56 187.006 191.085 184.981 189.06C182.956 187.035 180.481 186 177.556 186H164.956V217.5H171.166V206.565H175.891L182.236 217.5H188.941ZM177.556 191.805C179.896 191.805 181.831 193.875 181.831 196.44C181.831 199.005 179.896 201.12 177.556 201.12H171.166V191.805H177.556ZM213.168 208.635C213.303 207.78 213.393 207.015 213.393 206.25C213.393 202.875 212.313 200.085 210.153 197.79C208.038 195.495 205.293 194.37 202.008 194.37C198.543 194.37 195.663 195.495 193.458 197.79C191.253 200.04 190.128 202.875 190.128 206.25C190.128 209.67 191.253 212.505 193.503 214.755C195.753 217.005 198.723 218.13 202.458 218.13C206.778 218.13 210.063 216.51 212.268 213.315L207.588 210.615C206.463 212.1 204.753 212.865 202.548 212.865C199.083 212.865 196.968 211.47 196.203 208.635H213.168ZM196.113 204.135C196.788 201.255 198.903 199.59 202.008 199.59C204.663 199.59 206.913 201.075 207.588 204.135H196.113ZM234.617 197.79C232.907 195.495 230.522 194.37 227.417 194.37C224.267 194.37 221.612 195.495 219.452 197.745C217.292 199.995 216.212 202.695 216.212 205.89C216.212 209.085 217.292 211.83 219.407 214.08C221.567 216.285 224.222 217.41 227.417 217.41C230.522 217.41 232.907 216.285 234.617 213.99V216.42C234.617 219.975 232.367 221.955 228.722 221.955C225.932 221.955 223.952 220.92 222.827 218.805L217.877 221.64C219.857 225.24 223.682 227.13 228.542 227.13C231.782 227.13 234.527 226.23 236.822 224.385C239.117 222.54 240.287 219.885 240.287 216.42V195H234.617V197.79ZM234.617 205.89C234.617 209.49 231.962 212.055 228.317 212.055C224.672 212.055 222.017 209.49 222.017 205.89C222.017 204.135 222.602 202.65 223.772 201.525C224.987 200.355 226.472 199.77 228.317 199.77C230.162 199.77 231.647 200.355 232.817 201.525C234.032 202.65 234.617 204.135 234.617 205.89ZM248.543 192.3C250.523 192.3 252.143 190.68 252.143 188.745C252.143 186.81 250.523 185.145 248.543 185.145C246.608 185.145 244.988 186.81 244.988 188.745C244.988 190.68 246.608 192.3 248.543 192.3ZM251.468 217.5V195H245.663V217.5H251.468ZM262.073 201.39C262.073 200.265 263.198 199.545 264.683 199.545C266.348 199.545 267.563 200.31 268.283 201.84L273.233 199.14C271.478 196.08 268.328 194.37 264.683 194.37C262.253 194.37 260.228 195 258.563 196.305C256.943 197.565 256.133 199.32 256.133 201.525C256.133 206.205 260.318 207.6 263.648 208.455C265.943 209.04 267.743 209.715 267.743 210.93C267.743 212.235 266.708 212.865 264.638 212.865C262.343 212.865 260.903 211.875 260.228 209.94L255.188 212.775C256.853 216.33 260.003 218.13 264.638 218.13C267.203 218.13 269.363 217.5 271.073 216.285C272.828 215.025 273.683 213.225 273.683 210.93C273.728 206.115 269.453 204.54 266.168 203.865C263.873 203.28 262.073 202.605 262.073 201.39ZM289.74 195H284.655V188.7L278.85 190.455V195H274.935V200.58H278.85V209.94C278.85 216.105 281.775 218.4 289.74 217.5V212.235C286.41 212.415 284.655 212.37 284.655 209.94V200.58H289.74V195ZM315.112 208.635C315.247 207.78 315.337 207.015 315.337 206.25C315.337 202.875 314.257 200.085 312.097 197.79C309.982 195.495 307.237 194.37 303.952 194.37C300.487 194.37 297.607 195.495 295.402 197.79C293.197 200.04 292.072 202.875 292.072 206.25C292.072 209.67 293.197 212.505 295.447 214.755C297.697 217.005 300.667 218.13 304.402 218.13C308.722 218.13 312.007 216.51 314.212 213.315L309.532 210.615C308.407 212.1 306.697 212.865 304.492 212.865C301.027 212.865 298.912 211.47 298.147 208.635H315.112ZM298.057 204.135C298.732 201.255 300.847 199.59 303.952 199.59C306.607 199.59 308.857 201.075 309.532 204.135H298.057ZM325.307 195H319.502V217.5H325.307V206.745C325.307 204.585 325.982 203.055 327.377 202.11C328.772 201.165 330.392 200.805 332.147 201.03V194.55C329.087 194.55 326.387 195.99 325.307 198.87V195ZM356.692 210.12L350.842 195H344.497L353.722 216.78C352.642 219.84 350.932 221.145 347.827 221.1V226.5C353.587 226.815 357.367 223.98 359.707 217.5L367.897 195H361.687L356.692 210.12ZM389.063 214.71C391.358 212.415 392.528 209.58 392.528 206.25C392.528 202.92 391.358 200.13 389.063 197.835C386.768 195.54 383.933 194.37 380.603 194.37C377.273 194.37 374.438 195.54 372.143 197.835C369.848 200.13 368.723 202.92 368.723 206.25C368.723 209.58 369.848 212.415 372.143 214.71C374.438 217.005 377.273 218.13 380.603 218.13C383.933 218.13 386.768 217.005 389.063 214.71ZM376.238 210.705C375.113 209.535 374.528 208.05 374.528 206.25C374.528 204.45 375.113 202.965 376.238 201.795C377.408 200.625 378.848 200.04 380.603 200.04C382.358 200.04 383.798 200.625 384.968 201.795C386.138 202.965 386.723 204.45 386.723 206.25C386.723 208.05 386.138 209.535 384.968 210.705C383.798 211.875 382.358 212.46 380.603 212.46C378.848 212.46 377.408 211.875 376.238 210.705ZM411.575 207.15C411.575 210.885 409.64 212.73 406.625 212.73C403.925 212.73 402.17 211.11 402.17 208.095V195H396.365V208.815C396.365 211.74 397.175 213.99 398.75 215.655C400.37 217.32 402.395 218.13 404.87 218.13C407.93 218.13 410.18 217.095 411.575 214.98V217.5H417.38V195H411.575V207.15ZM428.614 195H422.809V217.5H428.614V206.745C428.614 204.585 429.289 203.055 430.684 202.11C432.079 201.165 433.699 200.805 435.454 201.03V194.55C432.394 194.55 429.694 195.99 428.614 198.87V195ZM191.461 273.405C194.656 270.21 196.231 266.34 196.231 261.75C196.231 257.16 194.656 253.29 191.461 250.14C188.266 246.945 184.396 245.37 179.851 245.37C175.306 245.37 171.436 246.945 168.241 250.14C165.091 253.29 163.516 257.16 163.516 261.75C163.516 266.34 165.091 270.21 168.241 273.405C171.436 276.555 175.306 278.13 179.851 278.13C184.396 278.13 188.266 276.555 191.461 273.405ZM172.606 269.175C170.671 267.24 169.681 264.765 169.681 261.75C169.681 258.735 170.671 256.26 172.606 254.325C174.541 252.39 176.971 251.4 179.851 251.4C182.731 251.4 185.161 252.39 187.096 254.325C189.031 256.26 190.021 258.735 190.021 261.75C190.021 264.765 189.031 267.24 187.096 269.175C185.161 271.11 182.731 272.055 179.851 272.055C176.971 272.055 174.541 271.11 172.606 269.175ZM206.243 255H200.438V277.5H206.243V266.745C206.243 264.585 206.918 263.055 208.313 262.11C209.708 261.165 211.328 260.805 213.083 261.03V254.55C210.023 254.55 207.323 255.99 206.243 258.87V255ZM232.991 257.79C231.281 255.495 228.896 254.37 225.791 254.37C222.641 254.37 219.986 255.495 217.826 257.745C215.666 259.995 214.586 262.695 214.586 265.89C214.586 269.085 215.666 271.83 217.781 274.08C219.941 276.285 222.596 277.41 225.791 277.41C228.896 277.41 231.281 276.285 232.991 273.99V276.42C232.991 279.975 230.741 281.955 227.096 281.955C224.306 281.955 222.326 280.92 221.201 278.805L216.251 281.64C218.231 285.24 222.056 287.13 226.916 287.13C230.156 287.13 232.901 286.23 235.196 284.385C237.491 282.54 238.661 279.885 238.661 276.42V255H232.991V257.79ZM232.991 265.89C232.991 269.49 230.336 272.055 226.691 272.055C223.046 272.055 220.391 269.49 220.391 265.89C220.391 264.135 220.976 262.65 222.146 261.525C223.361 260.355 224.846 259.77 226.691 259.77C228.536 259.77 230.021 260.355 231.191 261.525C232.406 262.65 232.991 264.135 232.991 265.89ZM261.137 257.655C259.382 255.45 256.952 254.37 253.802 254.37C250.787 254.37 248.222 255.54 246.062 257.835C243.947 260.13 242.867 262.92 242.867 266.25C242.867 269.58 243.947 272.415 246.062 274.71C248.222 277.005 250.787 278.13 253.802 278.13C256.952 278.13 259.382 277.05 261.137 274.845V277.5H266.942V255H261.137V257.655ZM250.427 270.84C249.257 269.625 248.672 268.095 248.672 266.25C248.672 264.405 249.257 262.875 250.427 261.705C251.597 260.49 253.082 259.905 254.882 259.905C256.682 259.905 258.167 260.49 259.337 261.705C260.552 262.875 261.137 264.405 261.137 266.25C261.137 268.095 260.552 269.625 259.337 270.84C258.167 272.01 256.682 272.595 254.882 272.595C253.082 272.595 251.597 272.01 250.427 270.84ZM284.829 254.37C281.769 254.37 279.519 255.405 278.124 257.52V255H272.319V277.5H278.124V265.35C278.124 261.615 280.059 259.77 283.074 259.77C285.774 259.77 287.529 261.39 287.529 264.405V277.5H293.334V263.685C293.334 260.76 292.524 258.51 290.904 256.845C289.329 255.18 287.304 254.37 284.829 254.37ZM301.283 252.3C303.263 252.3 304.883 250.68 304.883 248.745C304.883 246.81 303.263 245.145 301.283 245.145C299.348 245.145 297.728 246.81 297.728 248.745C297.728 250.68 299.348 252.3 301.283 252.3ZM304.208 277.5V255H298.403V277.5H304.208ZM326.239 258.87V255H309.364V260.445H318.409L308.914 273.63V277.5H326.689V272.055H316.699L326.239 258.87ZM346.753 257.655C344.998 255.45 342.568 254.37 339.418 254.37C336.403 254.37 333.838 255.54 331.678 257.835C329.563 260.13 328.483 262.92 328.483 266.25C328.483 269.58 329.563 272.415 331.678 274.71C333.838 277.005 336.403 278.13 339.418 278.13C342.568 278.13 344.998 277.05 346.753 274.845V277.5H352.558V255H346.753V257.655ZM336.043 270.84C334.873 269.625 334.288 268.095 334.288 266.25C334.288 264.405 334.873 262.875 336.043 261.705C337.213 260.49 338.698 259.905 340.498 259.905C342.298 259.905 343.783 260.49 344.953 261.705C346.168 262.875 346.753 264.405 346.753 266.25C346.753 268.095 346.168 269.625 344.953 270.84C343.783 272.01 342.298 272.595 340.498 272.595C338.698 272.595 337.213 272.01 336.043 270.84ZM370.805 255H365.72V248.7L359.915 250.455V255H356V260.58H359.915V269.94C359.915 276.105 362.84 278.4 370.805 277.5V272.235C367.475 272.415 365.72 272.37 365.72 269.94V260.58H370.805V255ZM377.89 252.3C379.87 252.3 381.49 250.68 381.49 248.745C381.49 246.81 379.87 245.145 377.89 245.145C375.955 245.145 374.335 246.81 374.335 248.745C374.335 250.68 375.955 252.3 377.89 252.3ZM380.815 277.5V255H375.01V277.5H380.815ZM405.411 274.71C407.706 272.415 408.876 269.58 408.876 266.25C408.876 262.92 407.706 260.13 405.411 257.835C403.116 255.54 400.281 254.37 396.951 254.37C393.621 254.37 390.786 255.54 388.491 257.835C386.196 260.13 385.071 262.92 385.071 266.25C385.071 269.58 386.196 272.415 388.491 274.71C390.786 277.005 393.621 278.13 396.951 278.13C400.281 278.13 403.116 277.005 405.411 274.71ZM392.586 270.705C391.461 269.535 390.876 268.05 390.876 266.25C390.876 264.45 391.461 262.965 392.586 261.795C393.756 260.625 395.196 260.04 396.951 260.04C398.706 260.04 400.146 260.625 401.316 261.795C402.486 262.965 403.071 264.45 403.071 266.25C403.071 268.05 402.486 269.535 401.316 270.705C400.146 271.875 398.706 272.46 396.951 272.46C395.196 272.46 393.756 271.875 392.586 270.705ZM425.582 254.37C422.522 254.37 420.272 255.405 418.877 257.52V255H413.072V277.5H418.877V265.35C418.877 261.615 420.812 259.77 423.827 259.77C426.527 259.77 428.282 261.39 428.282 264.405V277.5H434.087V263.685C434.087 260.76 433.277 258.51 431.657 256.845C430.082 255.18 428.057 254.37 425.582 254.37ZM469.014 265.215L455.514 246H450.789V277.5H456.999V258.24L470.499 277.5H475.224V246H469.014V265.215ZM500.08 274.71C502.375 272.415 503.545 269.58 503.545 266.25C503.545 262.92 502.375 260.13 500.08 257.835C497.785 255.54 494.95 254.37 491.62 254.37C488.29 254.37 485.455 255.54 483.16 257.835C480.865 260.13 479.74 262.92 479.74 266.25C479.74 269.58 480.865 272.415 483.16 274.71C485.455 277.005 488.29 278.13 491.62 278.13C494.95 278.13 497.785 277.005 500.08 274.71ZM487.255 270.705C486.13 269.535 485.545 268.05 485.545 266.25C485.545 264.45 486.13 262.965 487.255 261.795C488.425 260.625 489.865 260.04 491.62 260.04C493.375 260.04 494.815 260.625 495.985 261.795C497.155 262.965 497.74 264.45 497.74 266.25C497.74 268.05 497.155 269.535 495.985 270.705C494.815 271.875 493.375 272.46 491.62 272.46C489.865 272.46 488.425 271.875 487.255 270.705ZM528.372 268.86L524.277 255H518.787L514.692 268.815L510.867 255H504.702L511.857 277.5H517.392L521.532 263.865L525.672 277.5H531.207L538.362 255H532.197L528.372 268.86Z" fill="white"/>
<rect x="631.834" y="64.8967" width="647.419" height="344.856" rx="34" fill="#F3F4F5"/>
<g clip-path="url(#clip0_1191_76826)">
<rect x="672.869" y="313.889" width="193" height="50" rx="7" fill="#102E34"/>
<path d="M714.65 345.105C713.594 345.105 712.646 344.871 711.806 344.403C710.966 343.935 710.306 343.251 709.826 342.351C709.346 341.439 709.106 340.335 709.106 339.039C709.106 337.755 709.352 336.657 709.844 335.745C710.336 334.821 711.002 334.119 711.842 333.639C712.682 333.147 713.624 332.901 714.668 332.901C715.508 332.901 716.216 333.057 716.792 333.369C717.38 333.669 717.86 334.011 718.232 334.395L717.116 335.745C716.816 335.457 716.48 335.217 716.108 335.025C715.748 334.821 715.292 334.719 714.74 334.719C713.696 334.719 712.85 335.103 712.202 335.871C711.566 336.627 711.248 337.665 711.248 338.985C711.248 340.329 711.554 341.385 712.166 342.153C712.778 342.909 713.672 343.287 714.848 343.287C715.184 343.287 715.502 343.245 715.802 343.161C716.102 343.065 716.348 342.933 716.54 342.765V340.227H714.308V338.517H718.412V343.701C718.016 344.097 717.488 344.433 716.828 344.709C716.18 344.973 715.454 345.105 714.65 345.105ZM724.62 345.105C723.804 345.105 723.066 344.925 722.406 344.565C721.746 344.193 721.224 343.665 720.84 342.981C720.456 342.285 720.264 341.451 720.264 340.479C720.264 339.519 720.456 338.691 720.84 337.995C721.236 337.299 721.746 336.765 722.37 336.393C722.994 336.021 723.648 335.835 724.332 335.835C725.136 335.835 725.808 336.015 726.348 336.375C726.888 336.723 727.296 337.215 727.572 337.851C727.848 338.475 727.986 339.201 727.986 340.029C727.986 340.461 727.956 340.797 727.896 341.037H722.28C722.376 341.817 722.658 342.423 723.126 342.855C723.594 343.287 724.182 343.503 724.89 343.503C725.274 343.503 725.628 343.449 725.952 343.341C726.288 343.221 726.618 343.059 726.942 342.855L727.644 344.151C727.224 344.427 726.756 344.655 726.24 344.835C725.724 345.015 725.184 345.105 724.62 345.105ZM722.262 339.633H726.186C726.186 338.949 726.036 338.415 725.736 338.031C725.436 337.635 724.986 337.437 724.386 337.437C723.87 337.437 723.408 337.629 723 338.013C722.604 338.385 722.358 338.925 722.262 339.633ZM732.902 345.105C731.882 345.105 731.156 344.811 730.724 344.223C730.304 343.623 730.094 342.849 730.094 341.901V337.689H728.834V336.141L730.202 336.051L730.454 333.639H732.182V336.051H734.432V337.689H732.182V341.901C732.182 342.933 732.596 343.449 733.424 343.449C733.58 343.449 733.742 343.431 733.91 343.395C734.078 343.347 734.222 343.299 734.342 343.251L734.702 344.781C734.462 344.865 734.186 344.937 733.874 344.997C733.574 345.069 733.25 345.105 732.902 345.105ZM742.361 345.105C741.761 345.105 741.161 344.991 740.561 344.763C739.961 344.523 739.445 344.229 739.013 343.881L739.985 342.549C740.381 342.849 740.777 343.089 741.173 343.269C741.569 343.449 741.989 343.539 742.433 343.539C742.913 343.539 743.267 343.437 743.495 343.233C743.723 343.029 743.837 342.777 743.837 342.477C743.837 342.225 743.741 342.021 743.549 341.865C743.369 341.697 743.135 341.553 742.847 341.433C742.559 341.301 742.259 341.175 741.947 341.055C741.563 340.911 741.179 340.737 740.795 340.533C740.423 340.317 740.117 340.047 739.877 339.723C739.637 339.387 739.517 338.973 739.517 338.481C739.517 337.701 739.805 337.065 740.381 336.573C740.957 336.081 741.737 335.835 742.721 335.835C743.345 335.835 743.903 335.943 744.395 336.159C744.887 336.375 745.313 336.621 745.673 336.897L744.719 338.157C744.407 337.929 744.089 337.749 743.765 337.617C743.453 337.473 743.123 337.401 742.775 337.401C742.331 337.401 742.001 337.497 741.785 337.689C741.569 337.869 741.461 338.097 741.461 338.373C741.461 338.721 741.641 338.985 742.001 339.165C742.361 339.345 742.781 339.519 743.261 339.687C743.669 339.831 744.065 340.011 744.449 340.227C744.833 340.431 745.151 340.701 745.403 341.037C745.667 341.373 745.799 341.817 745.799 342.369C745.799 343.125 745.505 343.773 744.917 344.313C744.329 344.841 743.477 345.105 742.361 345.105ZM750.409 345.105C749.389 345.105 748.663 344.811 748.231 344.223C747.811 343.623 747.601 342.849 747.601 341.901V337.689H746.341V336.141L747.709 336.051L747.961 333.639H749.689V336.051H751.939V337.689H749.689V341.901C749.689 342.933 750.103 343.449 750.931 343.449C751.087 343.449 751.249 343.431 751.417 343.395C751.585 343.347 751.729 343.299 751.849 343.251L752.209 344.781C751.969 344.865 751.693 344.937 751.381 344.997C751.081 345.069 750.757 345.105 750.409 345.105ZM755.555 345.105C754.787 345.105 754.157 344.865 753.665 344.385C753.185 343.905 752.945 343.281 752.945 342.513C752.945 341.565 753.359 340.833 754.187 340.317C755.015 339.789 756.335 339.429 758.147 339.237C758.135 338.769 758.009 338.367 757.769 338.031C757.541 337.683 757.127 337.509 756.527 337.509C756.095 337.509 755.669 337.593 755.249 337.761C754.841 337.929 754.439 338.133 754.043 338.373L753.287 336.987C753.779 336.675 754.331 336.405 754.943 336.177C755.567 335.949 756.227 335.835 756.923 335.835C758.027 335.835 758.849 336.165 759.389 336.825C759.941 337.473 760.217 338.415 760.217 339.651V344.889H758.507L758.363 343.917H758.291C757.895 344.253 757.469 344.535 757.013 344.763C756.569 344.991 756.083 345.105 755.555 345.105ZM756.221 343.485C756.581 343.485 756.905 343.401 757.193 343.233C757.493 343.053 757.811 342.813 758.147 342.513V340.533C756.947 340.689 756.113 340.923 755.645 341.235C755.177 341.535 754.943 341.907 754.943 342.351C754.943 342.747 755.063 343.035 755.303 343.215C755.543 343.395 755.849 343.485 756.221 343.485ZM762.694 344.889V336.051H764.404L764.548 337.617H764.62C764.932 337.041 765.31 336.603 765.754 336.303C766.198 335.991 766.654 335.835 767.122 335.835C767.542 335.835 767.878 335.895 768.13 336.015L767.77 337.815C767.614 337.767 767.47 337.731 767.338 337.707C767.206 337.683 767.044 337.671 766.852 337.671C766.504 337.671 766.138 337.809 765.754 338.085C765.37 338.349 765.04 338.817 764.764 339.489V344.889H762.694ZM772.523 345.105C771.503 345.105 770.777 344.811 770.345 344.223C769.925 343.623 769.715 342.849 769.715 341.901V337.689H768.455V336.141L769.823 336.051L770.075 333.639H771.803V336.051H774.053V337.689H771.803V341.901C771.803 342.933 772.217 343.449 773.045 343.449C773.201 343.449 773.363 343.431 773.531 343.395C773.699 343.347 773.843 343.299 773.963 343.251L774.323 344.781C774.083 344.865 773.807 344.937 773.495 344.997C773.195 345.069 772.871 345.105 772.523 345.105ZM779.411 345.105C778.595 345.105 777.857 344.925 777.197 344.565C776.537 344.193 776.015 343.665 775.631 342.981C775.247 342.285 775.055 341.451 775.055 340.479C775.055 339.519 775.247 338.691 775.631 337.995C776.027 337.299 776.537 336.765 777.161 336.393C777.785 336.021 778.439 335.835 779.123 335.835C779.927 335.835 780.599 336.015 781.139 336.375C781.679 336.723 782.087 337.215 782.363 337.851C782.639 338.475 782.777 339.201 782.777 340.029C782.777 340.461 782.747 340.797 782.687 341.037H777.071C777.167 341.817 777.449 342.423 777.917 342.855C778.385 343.287 778.973 343.503 779.681 343.503C780.065 343.503 780.419 343.449 780.743 343.341C781.079 343.221 781.409 343.059 781.733 342.855L782.435 344.151C782.015 344.427 781.547 344.655 781.031 344.835C780.515 345.015 779.975 345.105 779.411 345.105ZM777.053 339.633H780.977C780.977 338.949 780.827 338.415 780.527 338.031C780.227 337.635 779.777 337.437 779.177 337.437C778.661 337.437 778.199 337.629 777.791 338.013C777.395 338.385 777.149 338.925 777.053 339.633ZM787.85 345.105C786.746 345.105 785.864 344.697 785.204 343.881C784.544 343.065 784.214 341.931 784.214 340.479C784.214 339.519 784.388 338.691 784.736 337.995C785.096 337.299 785.564 336.765 786.14 336.393C786.716 336.021 787.322 335.835 787.958 335.835C788.462 335.835 788.888 335.925 789.236 336.105C789.596 336.273 789.944 336.507 790.28 336.807L790.208 335.385V332.181H792.278V344.889H790.568L790.424 343.935H790.352C790.028 344.259 789.65 344.535 789.218 344.763C788.786 344.991 788.33 345.105 787.85 345.105ZM788.354 343.395C789.014 343.395 789.632 343.065 790.208 342.405V338.283C789.908 338.007 789.608 337.815 789.308 337.707C789.008 337.599 788.708 337.545 788.408 337.545C787.844 337.545 787.358 337.803 786.95 338.319C786.554 338.823 786.356 339.537 786.356 340.461C786.356 341.409 786.53 342.135 786.878 342.639C787.226 343.143 787.718 343.395 788.354 343.395ZM798.518 344.889V336.051H800.228L800.372 337.239H800.444C800.84 336.855 801.272 336.525 801.74 336.249C802.208 335.973 802.742 335.835 803.342 335.835C804.29 335.835 804.98 336.141 805.412 336.753C805.844 337.365 806.06 338.229 806.06 339.345V344.889H803.99V339.615C803.99 338.883 803.882 338.367 803.666 338.067C803.45 337.767 803.096 337.617 802.604 337.617C802.22 337.617 801.878 337.713 801.578 337.905C801.29 338.085 800.96 338.355 800.588 338.715V344.889H798.518ZM812.208 345.105C811.476 345.105 810.792 344.925 810.156 344.565C809.52 344.193 809.004 343.665 808.608 342.981C808.212 342.285 808.014 341.451 808.014 340.479C808.014 339.495 808.212 338.661 808.608 337.977C809.004 337.281 809.52 336.753 810.156 336.393C810.792 336.021 811.476 335.835 812.208 335.835C812.952 335.835 813.642 336.021 814.278 336.393C814.914 336.753 815.43 337.281 815.826 337.977C816.222 338.661 816.42 339.495 816.42 340.479C816.42 341.451 816.222 342.285 815.826 342.981C815.43 343.665 814.914 344.193 814.278 344.565C813.642 344.925 812.952 345.105 812.208 345.105ZM812.208 343.413C812.856 343.413 813.366 343.143 813.738 342.603C814.11 342.063 814.296 341.355 814.296 340.479C814.296 339.591 814.11 338.877 813.738 338.337C813.366 337.797 812.856 337.527 812.208 337.527C811.56 337.527 811.05 337.797 810.678 338.337C810.318 338.877 810.138 339.591 810.138 340.479C810.138 341.355 810.318 342.063 810.678 342.603C811.05 343.143 811.56 343.413 812.208 343.413ZM819.822 344.889L817.482 336.051H819.57L820.632 340.641C820.728 341.061 820.806 341.481 820.866 341.901C820.938 342.321 821.016 342.747 821.1 343.179H821.172C821.256 342.747 821.34 342.321 821.424 341.901C821.52 341.469 821.622 341.049 821.73 340.641L822.882 336.051H824.772L825.942 340.641C826.05 341.061 826.152 341.481 826.248 341.901C826.344 342.321 826.44 342.747 826.536 343.179H826.608C826.692 342.747 826.77 342.321 826.842 341.901C826.914 341.481 826.992 341.061 827.076 340.641L828.138 336.051H830.082L827.832 344.889H825.366L824.34 340.767C824.244 340.347 824.154 339.933 824.07 339.525C823.986 339.105 823.896 338.661 823.8 338.193H823.728C823.644 338.661 823.56 339.105 823.476 339.525C823.392 339.945 823.302 340.365 823.206 340.785L822.198 344.889H819.822Z" fill="#FAFAFA"/>
</g>
<path d="M699.253 152.528C697.719 152.528 696.5 152.1 695.596 151.243C694.692 150.375 694.24 149.126 694.24 147.497V144.571C694.24 142.941 694.692 141.698 695.596 140.842C696.5 139.974 697.719 139.54 699.253 139.54C700.788 139.54 702.007 139.974 702.911 140.842C703.827 141.698 704.285 142.941 704.285 144.571V147.497C704.285 149.126 703.827 150.375 702.911 151.243C702.007 152.1 700.788 152.528 699.253 152.528ZM699.253 150.797C700.241 150.797 701.002 150.512 701.537 149.941C702.072 149.358 702.34 148.567 702.34 147.568V144.499C702.34 143.5 702.072 142.715 701.537 142.144C701.002 141.562 700.241 141.27 699.253 141.27C698.29 141.27 697.535 141.562 696.988 142.144C696.44 142.715 696.167 143.5 696.167 144.499V147.568C696.167 148.567 696.44 149.358 696.988 149.941C697.535 150.512 698.29 150.797 699.253 150.797ZM706.619 152.278V143.482H708.421V144.517H708.706C708.849 144.149 709.075 143.881 709.384 143.714C709.706 143.536 710.098 143.447 710.562 143.447H711.614V145.106H710.491C709.896 145.106 709.408 145.273 709.028 145.606C708.647 145.927 708.457 146.426 708.457 147.104V152.278H706.619ZM712.777 147.925V147.657C712.777 146.73 712.961 145.939 713.33 145.284C713.71 144.63 714.21 144.125 714.828 143.768C715.447 143.411 716.125 143.233 716.862 143.233C717.719 143.233 718.373 143.393 718.825 143.714C719.289 144.036 719.628 144.38 719.842 144.749H720.127V143.482H721.911V154.08C721.911 154.615 721.751 155.043 721.43 155.365C721.12 155.686 720.692 155.846 720.145 155.846H714.222V154.241H719.574C719.919 154.241 720.091 154.062 720.091 153.705V150.904H719.806C719.675 151.118 719.491 151.338 719.253 151.564C719.015 151.79 718.7 151.975 718.307 152.118C717.927 152.26 717.445 152.332 716.862 152.332C716.125 152.332 715.441 152.159 714.811 151.814C714.192 151.457 713.698 150.952 713.33 150.298C712.961 149.632 712.777 148.841 712.777 147.925ZM717.362 150.726C718.159 150.726 718.813 150.476 719.324 149.977C719.848 149.465 720.109 148.763 720.109 147.871V147.711C720.109 146.795 719.854 146.093 719.342 145.606C718.831 145.106 718.171 144.856 717.362 144.856C716.577 144.856 715.923 145.106 715.399 145.606C714.888 146.093 714.632 146.795 714.632 147.711V147.871C714.632 148.763 714.888 149.465 715.399 149.977C715.923 150.476 716.577 150.726 717.362 150.726ZM727.346 152.528C726.716 152.528 726.151 152.421 725.652 152.207C725.164 151.993 724.771 151.677 724.474 151.261C724.189 150.845 724.046 150.339 724.046 149.745C724.046 149.138 724.189 148.639 724.474 148.246C724.771 147.842 725.17 147.538 725.669 147.336C726.181 147.134 726.758 147.033 727.4 147.033H730.076V146.462C730.076 145.95 729.922 145.54 729.612 145.231C729.303 144.922 728.827 144.767 728.185 144.767C727.555 144.767 727.073 144.916 726.74 145.213C726.407 145.51 726.187 145.897 726.08 146.373L724.367 145.82C724.51 145.344 724.736 144.916 725.045 144.535C725.366 144.143 725.788 143.827 726.312 143.59C726.835 143.352 727.465 143.233 728.203 143.233C729.345 143.233 730.243 143.524 730.897 144.107C731.551 144.69 731.878 145.516 731.878 146.587V150.209C731.878 150.565 732.045 150.744 732.378 150.744H733.127V152.278H731.753C731.337 152.278 730.998 152.171 730.736 151.957C730.475 151.743 730.344 151.451 730.344 151.083V151.029H730.076C729.981 151.208 729.838 151.416 729.648 151.654C729.458 151.892 729.178 152.1 728.809 152.278C728.441 152.445 727.953 152.528 727.346 152.528ZM727.614 151.011C728.351 151.011 728.946 150.803 729.398 150.387C729.85 149.959 730.076 149.376 730.076 148.639V148.46H727.507C727.019 148.46 726.627 148.567 726.33 148.781C726.032 148.983 725.883 149.287 725.883 149.691C725.883 150.096 726.038 150.417 726.347 150.655C726.657 150.892 727.079 151.011 727.614 151.011ZM734.914 152.278V143.482H736.716V144.803H737.001C737.168 144.446 737.465 144.113 737.893 143.804C738.321 143.494 738.958 143.34 739.802 143.34C740.468 143.34 741.057 143.488 741.568 143.786C742.092 144.083 742.502 144.505 742.799 145.052C743.097 145.588 743.245 146.236 743.245 146.997V152.278H741.408V147.14C741.408 146.379 741.217 145.82 740.837 145.463C740.456 145.094 739.933 144.91 739.267 144.91C738.506 144.91 737.893 145.16 737.429 145.659C736.977 146.159 736.751 146.884 736.751 147.836V152.278H734.914ZM745.89 152.278V143.482H747.728V152.278H745.89ZM746.818 142.287C746.461 142.287 746.158 142.174 745.908 141.948C745.67 141.71 745.551 141.407 745.551 141.038C745.551 140.67 745.67 140.372 745.908 140.146C746.158 139.908 746.461 139.789 746.818 139.789C747.186 139.789 747.49 139.908 747.728 140.146C747.966 140.372 748.084 140.67 748.084 141.038C748.084 141.407 747.966 141.71 747.728 141.948C747.49 142.174 747.186 142.287 746.818 142.287ZM750.098 152.278V150.03L755.29 145.284V145.035H750.276V143.482H757.288V145.748L752.078 150.494V150.726H757.431V152.278H750.098ZM762.419 152.528C761.788 152.528 761.223 152.421 760.724 152.207C760.236 151.993 759.844 151.677 759.546 151.261C759.261 150.845 759.118 150.339 759.118 149.745C759.118 149.138 759.261 148.639 759.546 148.246C759.844 147.842 760.242 147.538 760.742 147.336C761.253 147.134 761.83 147.033 762.472 147.033H765.148V146.462C765.148 145.95 764.994 145.54 764.684 145.231C764.375 144.922 763.899 144.767 763.257 144.767C762.627 144.767 762.145 144.916 761.812 145.213C761.479 145.51 761.259 145.897 761.152 146.373L759.439 145.82C759.582 145.344 759.808 144.916 760.117 144.535C760.438 144.143 760.86 143.827 761.384 143.59C761.907 143.352 762.538 143.233 763.275 143.233C764.417 143.233 765.315 143.524 765.969 144.107C766.623 144.69 766.95 145.516 766.95 146.587V150.209C766.95 150.565 767.117 150.744 767.45 150.744H768.199V152.278H766.825C766.409 152.278 766.07 152.171 765.808 151.957C765.547 151.743 765.416 151.451 765.416 151.083V151.029H765.148C765.053 151.208 764.91 151.416 764.72 151.654C764.53 151.892 764.25 152.1 763.882 152.278C763.513 152.445 763.025 152.528 762.419 152.528ZM762.686 151.011C763.424 151.011 764.018 150.803 764.47 150.387C764.922 149.959 765.148 149.376 765.148 148.639V148.46H762.579C762.092 148.46 761.699 148.567 761.402 148.781C761.104 148.983 760.956 149.287 760.956 149.691C760.956 150.096 761.11 150.417 761.419 150.655C761.729 150.892 762.151 151.011 762.686 151.011ZM772.677 152.278C772.141 152.278 771.713 152.118 771.392 151.796C771.083 151.475 770.928 151.047 770.928 150.512V145.035H768.502V143.482H770.928V140.574H772.766V143.482H775.388V145.035H772.766V150.191C772.766 150.548 772.932 150.726 773.265 150.726H775.103V152.278H772.677ZM777.547 152.278V143.482H779.385V152.278H777.547ZM778.475 142.287C778.118 142.287 777.815 142.174 777.565 141.948C777.327 141.71 777.208 141.407 777.208 141.038C777.208 140.67 777.327 140.372 777.565 140.146C777.815 139.908 778.118 139.789 778.475 139.789C778.844 139.789 779.147 139.908 779.385 140.146C779.623 140.372 779.742 140.67 779.742 141.038C779.742 141.407 779.623 141.71 779.385 141.948C779.147 142.174 778.844 142.287 778.475 142.287ZM786.233 152.528C785.353 152.528 784.568 152.349 783.878 151.993C783.2 151.624 782.665 151.101 782.273 150.423C781.88 149.745 781.684 148.942 781.684 148.014V147.746C781.684 146.819 781.88 146.022 782.273 145.356C782.665 144.678 783.2 144.154 783.878 143.786C784.568 143.417 785.353 143.233 786.233 143.233C787.114 143.233 787.899 143.417 788.588 143.786C789.278 144.154 789.819 144.678 790.212 145.356C790.604 146.022 790.801 146.819 790.801 147.746V148.014C790.801 148.942 790.604 149.745 790.212 150.423C789.819 151.101 789.278 151.624 788.588 151.993C787.899 152.349 787.114 152.528 786.233 152.528ZM786.233 150.886C787.042 150.886 787.696 150.631 788.196 150.119C788.707 149.596 788.963 148.876 788.963 147.961V147.8C788.963 146.884 788.713 146.171 788.214 145.659C787.714 145.136 787.054 144.874 786.233 144.874C785.436 144.874 784.782 145.136 784.271 145.659C783.771 146.171 783.522 146.884 783.522 147.8V147.961C783.522 148.876 783.771 149.596 784.271 150.119C784.782 150.631 785.436 150.886 786.233 150.886ZM793.088 152.278V143.482H794.89V144.803H795.176C795.342 144.446 795.64 144.113 796.068 143.804C796.496 143.494 797.132 143.34 797.977 143.34C798.643 143.34 799.232 143.488 799.743 143.786C800.266 144.083 800.677 144.505 800.974 145.052C801.272 145.588 801.42 146.236 801.42 146.997V152.278H799.583V147.14C799.583 146.379 799.392 145.82 799.012 145.463C798.631 145.094 798.108 144.91 797.442 144.91C796.68 144.91 796.068 145.16 795.604 145.659C795.152 146.159 794.926 146.884 794.926 147.836V152.278H793.088ZM808.612 152.278V143.482H810.414V144.803H810.7C810.866 144.446 811.163 144.113 811.592 143.804C812.02 143.494 812.656 143.34 813.501 143.34C814.167 143.34 814.755 143.488 815.267 143.786C815.79 144.083 816.201 144.505 816.498 145.052C816.795 145.588 816.944 146.236 816.944 146.997V152.278H815.106V147.14C815.106 146.379 814.916 145.82 814.535 145.463C814.155 145.094 813.631 144.91 812.965 144.91C812.204 144.91 811.592 145.16 811.128 145.659C810.676 146.159 810.45 146.884 810.45 147.836V152.278H808.612ZM822.318 152.528C821.688 152.528 821.123 152.421 820.623 152.207C820.136 151.993 819.743 151.677 819.446 151.261C819.16 150.845 819.018 150.339 819.018 149.745C819.018 149.138 819.16 148.639 819.446 148.246C819.743 147.842 820.142 147.538 820.641 147.336C821.153 147.134 821.729 147.033 822.372 147.033H825.048V146.462C825.048 145.95 824.893 145.54 824.584 145.231C824.275 144.922 823.799 144.767 823.157 144.767C822.526 144.767 822.045 144.916 821.712 145.213C821.379 145.51 821.159 145.897 821.052 146.373L819.339 145.82C819.482 145.344 819.707 144.916 820.017 144.535C820.338 144.143 820.76 143.827 821.283 143.59C821.807 143.352 822.437 143.233 823.175 143.233C824.316 143.233 825.214 143.524 825.869 144.107C826.523 144.69 826.85 145.516 826.85 146.587V150.209C826.85 150.565 827.016 150.744 827.349 150.744H828.099V152.278H826.725C826.309 152.278 825.97 152.171 825.708 151.957C825.446 151.743 825.316 151.451 825.316 151.083V151.029H825.048C824.953 151.208 824.81 151.416 824.62 151.654C824.429 151.892 824.15 152.1 823.781 152.278C823.412 152.445 822.925 152.528 822.318 152.528ZM822.586 151.011C823.323 151.011 823.918 150.803 824.37 150.387C824.822 149.959 825.048 149.376 825.048 148.639V148.46H822.479C821.991 148.46 821.599 148.567 821.301 148.781C821.004 148.983 820.855 149.287 820.855 149.691C820.855 150.096 821.01 150.417 821.319 150.655C821.628 150.892 822.051 151.011 822.586 151.011ZM829.885 152.278V143.482H831.687V144.517H831.973C832.139 144.208 832.407 143.934 832.776 143.697C833.144 143.459 833.644 143.34 834.274 143.34C834.928 143.34 835.452 143.477 835.844 143.75C836.249 144.012 836.552 144.351 836.754 144.767H837.04C837.242 144.363 837.533 144.024 837.914 143.75C838.306 143.477 838.859 143.34 839.573 143.34C840.144 143.34 840.649 143.459 841.09 143.697C841.53 143.923 841.881 144.267 842.142 144.731C842.404 145.183 842.535 145.748 842.535 146.426V152.278H840.697V146.569C840.697 146.034 840.548 145.623 840.251 145.338C839.966 145.041 839.555 144.892 839.02 144.892C838.449 144.892 837.991 145.076 837.646 145.445C837.301 145.814 837.129 146.343 837.129 147.033V152.278H835.291V146.569C835.291 146.034 835.143 145.623 834.845 145.338C834.56 145.041 834.149 144.892 833.614 144.892C833.043 144.892 832.585 145.076 832.24 145.445C831.896 145.814 831.723 146.343 831.723 147.033V152.278H829.885ZM849.215 152.528C848.323 152.528 847.544 152.343 846.878 151.975C846.212 151.594 845.688 151.065 845.308 150.387C844.939 149.697 844.754 148.9 844.754 147.996V147.782C844.754 146.866 844.939 146.069 845.308 145.391C845.676 144.702 846.188 144.172 846.842 143.804C847.508 143.423 848.275 143.233 849.143 143.233C849.988 143.233 850.725 143.423 851.356 143.804C851.998 144.172 852.497 144.69 852.854 145.356C853.211 146.022 853.39 146.801 853.39 147.693V148.389H846.628C846.652 149.162 846.907 149.78 847.395 150.244C847.895 150.696 848.513 150.922 849.25 150.922C849.94 150.922 850.458 150.768 850.803 150.458C851.159 150.149 851.433 149.792 851.623 149.388L853.14 150.173C852.973 150.506 852.729 150.857 852.408 151.225C852.099 151.594 851.689 151.903 851.177 152.153C850.666 152.403 850.012 152.528 849.215 152.528ZM846.646 146.979H851.516C851.469 146.313 851.231 145.796 850.803 145.427C850.374 145.047 849.815 144.856 849.126 144.856C848.436 144.856 847.871 145.047 847.431 145.427C847.002 145.796 846.741 146.313 846.646 146.979Z" fill="#102E34"/>
<path d="M677.967 116.437H1226.77V111.34H677.967V116.437ZM1229.32 118.986V172.57H1234.42V118.986H1229.32ZM1226.77 175.119H677.967V180.216H1226.77V175.119ZM675.418 172.57V118.986H670.32V172.57H675.418ZM677.967 175.119C676.559 175.119 675.418 173.978 675.418 172.57H670.32C670.32 176.793 673.744 180.216 677.967 180.216V175.119ZM1229.32 172.57C1229.32 173.978 1228.18 175.119 1226.77 175.119V180.216C1230.99 180.216 1234.42 176.793 1234.42 172.57H1229.32ZM1226.77 116.437C1228.18 116.437 1229.32 117.578 1229.32 118.986H1234.42C1234.42 114.763 1230.99 111.34 1226.77 111.34V116.437ZM677.967 111.34C673.744 111.34 670.32 114.763 670.32 118.986H675.418C675.418 117.578 676.559 116.437 677.967 116.437V111.34Z" fill="#99A6A8"/>
<path d="M699.253 252.528C697.719 252.528 696.5 252.1 695.596 251.243C694.692 250.375 694.24 249.126 694.24 247.497V244.571C694.24 242.941 694.692 241.698 695.596 240.842C696.5 239.974 697.719 239.54 699.253 239.54C700.788 239.54 702.007 239.974 702.911 240.842C703.827 241.698 704.285 242.941 704.285 244.571V247.497C704.285 249.126 703.827 250.375 702.911 251.243C702.007 252.1 700.788 252.528 699.253 252.528ZM699.253 250.797C700.241 250.797 701.002 250.512 701.537 249.941C702.072 249.358 702.34 248.567 702.34 247.568V244.499C702.34 243.5 702.072 242.715 701.537 242.144C701.002 241.562 700.241 241.27 699.253 241.27C698.29 241.27 697.535 241.562 696.988 242.144C696.44 242.715 696.167 243.5 696.167 244.499V247.568C696.167 248.567 696.44 249.358 696.988 249.941C697.535 250.512 698.29 250.797 699.253 250.797ZM706.619 252.278V243.482H708.421V244.517H708.706C708.849 244.149 709.075 243.881 709.384 243.714C709.706 243.536 710.098 243.447 710.562 243.447H711.614V245.106H710.491C709.896 245.106 709.408 245.273 709.028 245.606C708.647 245.927 708.457 246.426 708.457 247.104V252.278H706.619ZM712.777 247.925V247.657C712.777 246.73 712.961 245.939 713.33 245.284C713.71 244.63 714.21 244.125 714.828 243.768C715.447 243.411 716.125 243.233 716.862 243.233C717.719 243.233 718.373 243.393 718.825 243.714C719.289 244.036 719.628 244.38 719.842 244.749H720.127V243.482H721.911V254.08C721.911 254.615 721.751 255.043 721.43 255.365C721.12 255.686 720.692 255.846 720.145 255.846H714.222V254.241H719.574C719.919 254.241 720.091 254.062 720.091 253.705V250.904H719.806C719.675 251.118 719.491 251.338 719.253 251.564C719.015 251.79 718.7 251.975 718.307 252.118C717.927 252.26 717.445 252.332 716.862 252.332C716.125 252.332 715.441 252.159 714.811 251.814C714.192 251.457 713.698 250.952 713.33 250.298C712.961 249.632 712.777 248.841 712.777 247.925ZM717.362 250.726C718.159 250.726 718.813 250.476 719.324 249.977C719.848 249.465 720.109 248.763 720.109 247.871V247.711C720.109 246.795 719.854 246.093 719.342 245.606C718.831 245.106 718.171 244.856 717.362 244.856C716.577 244.856 715.923 245.106 715.399 245.606C714.888 246.093 714.632 246.795 714.632 247.711V247.871C714.632 248.763 714.888 249.465 715.399 249.977C715.923 250.476 716.577 250.726 717.362 250.726ZM727.346 252.528C726.716 252.528 726.151 252.421 725.652 252.207C725.164 251.993 724.771 251.677 724.474 251.261C724.189 250.845 724.046 250.339 724.046 249.745C724.046 249.138 724.189 248.639 724.474 248.246C724.771 247.842 725.17 247.538 725.669 247.336C726.181 247.134 726.758 247.033 727.4 247.033H730.076V246.462C730.076 245.95 729.922 245.54 729.612 245.231C729.303 244.922 728.827 244.767 728.185 244.767C727.555 244.767 727.073 244.916 726.74 245.213C726.407 245.51 726.187 245.897 726.08 246.373L724.367 245.82C724.51 245.344 724.736 244.916 725.045 244.535C725.366 244.143 725.788 243.827 726.312 243.59C726.835 243.352 727.465 243.233 728.203 243.233C729.345 243.233 730.243 243.524 730.897 244.107C731.551 244.69 731.878 245.516 731.878 246.587V250.209C731.878 250.565 732.045 250.744 732.378 250.744H733.127V252.278H731.753C731.337 252.278 730.998 252.171 730.736 251.957C730.475 251.743 730.344 251.451 730.344 251.083V251.029H730.076C729.981 251.208 729.838 251.416 729.648 251.654C729.458 251.892 729.178 252.1 728.809 252.278C728.441 252.445 727.953 252.528 727.346 252.528ZM727.614 251.011C728.351 251.011 728.946 250.803 729.398 250.387C729.85 249.959 730.076 249.376 730.076 248.639V248.46H727.507C727.019 248.46 726.627 248.567 726.33 248.781C726.032 248.983 725.883 249.287 725.883 249.691C725.883 250.096 726.038 250.417 726.347 250.655C726.657 250.892 727.079 251.011 727.614 251.011ZM734.914 252.278V243.482H736.716V244.803H737.001C737.168 244.446 737.465 244.113 737.893 243.804C738.321 243.494 738.958 243.34 739.802 243.34C740.468 243.34 741.057 243.488 741.568 243.786C742.092 244.083 742.502 244.505 742.799 245.052C743.097 245.588 743.245 246.236 743.245 246.997V252.278H741.408V247.14C741.408 246.379 741.217 245.82 740.837 245.463C740.456 245.094 739.933 244.91 739.267 244.91C738.506 244.91 737.893 245.16 737.429 245.659C736.977 246.159 736.751 246.884 736.751 247.836V252.278H734.914ZM745.89 252.278V243.482H747.728V252.278H745.89ZM746.818 242.287C746.461 242.287 746.158 242.174 745.908 241.948C745.67 241.71 745.551 241.407 745.551 241.038C745.551 240.67 745.67 240.372 745.908 240.146C746.158 239.908 746.461 239.789 746.818 239.789C747.186 239.789 747.49 239.908 747.728 240.146C747.966 240.372 748.084 240.67 748.084 241.038C748.084 241.407 747.966 241.71 747.728 241.948C747.49 242.174 747.186 242.287 746.818 242.287ZM750.098 252.278V250.03L755.29 245.284V245.035H750.276V243.482H757.288V245.748L752.078 250.494V250.726H757.431V252.278H750.098ZM762.419 252.528C761.788 252.528 761.223 252.421 760.724 252.207C760.236 251.993 759.844 251.677 759.546 251.261C759.261 250.845 759.118 250.339 759.118 249.745C759.118 249.138 759.261 248.639 759.546 248.246C759.844 247.842 760.242 247.538 760.742 247.336C761.253 247.134 761.83 247.033 762.472 247.033H765.148V246.462C765.148 245.95 764.994 245.54 764.684 245.231C764.375 244.922 763.899 244.767 763.257 244.767C762.627 244.767 762.145 244.916 761.812 245.213C761.479 245.51 761.259 245.897 761.152 246.373L759.439 245.82C759.582 245.344 759.808 244.916 760.117 244.535C760.438 244.143 760.86 243.827 761.384 243.59C761.907 243.352 762.538 243.233 763.275 243.233C764.417 243.233 765.315 243.524 765.969 244.107C766.623 244.69 766.95 245.516 766.95 246.587V250.209C766.95 250.565 767.117 250.744 767.45 250.744H768.199V252.278H766.825C766.409 252.278 766.07 252.171 765.808 251.957C765.547 251.743 765.416 251.451 765.416 251.083V251.029H765.148C765.053 251.208 764.91 251.416 764.72 251.654C764.53 251.892 764.25 252.1 763.882 252.278C763.513 252.445 763.025 252.528 762.419 252.528ZM762.686 251.011C763.424 251.011 764.018 250.803 764.47 250.387C764.922 249.959 765.148 249.376 765.148 248.639V248.46H762.579C762.092 248.46 761.699 248.567 761.402 248.781C761.104 248.983 760.956 249.287 760.956 249.691C760.956 250.096 761.11 250.417 761.419 250.655C761.729 250.892 762.151 251.011 762.686 251.011ZM772.677 252.278C772.141 252.278 771.713 252.118 771.392 251.796C771.083 251.475 770.928 251.047 770.928 250.512V245.035H768.502V243.482H770.928V240.574H772.766V243.482H775.388V245.035H772.766V250.191C772.766 250.548 772.932 250.726 773.265 250.726H775.103V252.278H772.677ZM777.547 252.278V243.482H779.385V252.278H777.547ZM778.475 242.287C778.118 242.287 777.815 242.174 777.565 241.948C777.327 241.71 777.208 241.407 777.208 241.038C777.208 240.67 777.327 240.372 777.565 240.146C777.815 239.908 778.118 239.789 778.475 239.789C778.844 239.789 779.147 239.908 779.385 240.146C779.623 240.372 779.742 240.67 779.742 241.038C779.742 241.407 779.623 241.71 779.385 241.948C779.147 242.174 778.844 242.287 778.475 242.287ZM786.233 252.528C785.353 252.528 784.568 252.349 783.878 251.993C783.2 251.624 782.665 251.101 782.273 250.423C781.88 249.745 781.684 248.942 781.684 248.014V247.746C781.684 246.819 781.88 246.022 782.273 245.356C782.665 244.678 783.2 244.154 783.878 243.786C784.568 243.417 785.353 243.233 786.233 243.233C787.114 243.233 787.899 243.417 788.588 243.786C789.278 244.154 789.819 244.678 790.212 245.356C790.604 246.022 790.801 246.819 790.801 247.746V248.014C790.801 248.942 790.604 249.745 790.212 250.423C789.819 251.101 789.278 251.624 788.588 251.993C787.899 252.349 787.114 252.528 786.233 252.528ZM786.233 250.886C787.042 250.886 787.696 250.631 788.196 250.119C788.707 249.596 788.963 248.876 788.963 247.961V247.8C788.963 246.884 788.713 246.171 788.214 245.659C787.714 245.136 787.054 244.874 786.233 244.874C785.436 244.874 784.782 245.136 784.271 245.659C783.771 246.171 783.522 246.884 783.522 247.8V247.961C783.522 248.876 783.771 249.596 784.271 250.119C784.782 250.631 785.436 250.886 786.233 250.886ZM793.088 252.278V243.482H794.89V244.803H795.176C795.342 244.446 795.64 244.113 796.068 243.804C796.496 243.494 797.132 243.34 797.977 243.34C798.643 243.34 799.232 243.488 799.743 243.786C800.266 244.083 800.677 244.505 800.974 245.052C801.272 245.588 801.42 246.236 801.42 246.997V252.278H799.583V247.14C799.583 246.379 799.392 245.82 799.012 245.463C798.631 245.094 798.108 244.91 797.442 244.91C796.68 244.91 796.068 245.16 795.604 245.659C795.152 246.159 794.926 246.884 794.926 247.836V252.278H793.088ZM812.644 252.528C811.752 252.528 810.973 252.343 810.307 251.975C809.641 251.594 809.118 251.065 808.737 250.387C808.368 249.697 808.184 248.9 808.184 247.996V247.782C808.184 246.866 808.368 246.069 808.737 245.391C809.106 244.702 809.617 244.172 810.271 243.804C810.937 243.423 811.705 243.233 812.573 243.233C813.417 243.233 814.155 243.423 814.785 243.804C815.427 244.172 815.927 244.69 816.284 245.356C816.641 246.022 816.819 246.801 816.819 247.693V248.389H810.057C810.081 249.162 810.337 249.78 810.824 250.244C811.324 250.696 811.942 250.922 812.68 250.922C813.37 250.922 813.887 250.768 814.232 250.458C814.589 250.149 814.862 249.792 815.053 249.388L816.569 250.173C816.403 250.506 816.159 250.857 815.838 251.225C815.529 251.594 815.118 251.903 814.607 252.153C814.095 252.403 813.441 252.528 812.644 252.528ZM810.075 246.979H814.946C814.898 246.313 814.66 245.796 814.232 245.427C813.804 245.047 813.245 244.856 812.555 244.856C811.865 244.856 811.3 245.047 810.86 245.427C810.432 245.796 810.17 246.313 810.075 246.979ZM819.031 252.278V243.482H820.833V244.517H821.118C821.285 244.208 821.553 243.934 821.921 243.697C822.29 243.459 822.79 243.34 823.42 243.34C824.074 243.34 824.597 243.477 824.99 243.75C825.394 244.012 825.698 244.351 825.9 244.767H826.185C826.387 244.363 826.679 244.024 827.059 243.75C827.452 243.477 828.005 243.34 828.719 243.34C829.29 243.34 829.795 243.459 830.235 243.697C830.675 243.923 831.026 244.267 831.288 244.731C831.549 245.183 831.68 245.748 831.68 246.426V252.278H829.843V246.569C829.843 246.034 829.694 245.623 829.397 245.338C829.111 245.041 828.701 244.892 828.166 244.892C827.595 244.892 827.137 245.076 826.792 245.445C826.447 245.814 826.274 246.343 826.274 247.033V252.278H824.437V246.569C824.437 246.034 824.288 245.623 823.991 245.338C823.705 245.041 823.295 244.892 822.76 244.892C822.189 244.892 821.731 245.076 821.386 245.445C821.041 245.814 820.869 246.343 820.869 247.033V252.278H819.031ZM837.058 252.528C836.428 252.528 835.863 252.421 835.363 252.207C834.875 251.993 834.483 251.677 834.186 251.261C833.9 250.845 833.757 250.339 833.757 249.745C833.757 249.138 833.9 248.639 834.186 248.246C834.483 247.842 834.881 247.538 835.381 247.336C835.892 247.134 836.469 247.033 837.111 247.033H839.788V246.462C839.788 245.95 839.633 245.54 839.324 245.231C839.014 244.922 838.539 244.767 837.896 244.767C837.266 244.767 836.784 244.916 836.451 245.213C836.118 245.51 835.898 245.897 835.791 246.373L834.078 245.82C834.221 245.344 834.447 244.916 834.756 244.535C835.078 244.143 835.5 243.827 836.023 243.59C836.546 243.352 837.177 243.233 837.914 243.233C839.056 243.233 839.954 243.524 840.608 244.107C841.262 244.69 841.59 245.516 841.59 246.587V250.209C841.59 250.565 841.756 250.744 842.089 250.744H842.838V252.278H841.465C841.048 252.278 840.709 252.171 840.448 251.957C840.186 251.743 840.055 251.451 840.055 251.083V251.029H839.788C839.692 251.208 839.55 251.416 839.359 251.654C839.169 251.892 838.89 252.1 838.521 252.278C838.152 252.445 837.665 252.528 837.058 252.528ZM837.326 251.011C838.063 251.011 838.658 250.803 839.11 250.387C839.562 249.959 839.788 249.376 839.788 248.639V248.46H837.219C836.731 248.46 836.338 248.567 836.041 248.781C835.744 248.983 835.595 249.287 835.595 249.691C835.595 250.096 835.75 250.417 836.059 250.655C836.368 250.892 836.79 251.011 837.326 251.011ZM844.625 252.278V243.482H846.463V252.278H844.625ZM845.553 242.287C845.196 242.287 844.893 242.174 844.643 241.948C844.405 241.71 844.286 241.407 844.286 241.038C844.286 240.67 844.405 240.372 844.643 240.146C844.893 239.908 845.196 239.789 845.553 239.789C845.922 239.789 846.225 239.908 846.463 240.146C846.701 240.372 846.82 240.67 846.82 241.038C846.82 241.407 846.701 241.71 846.463 241.948C846.225 242.174 845.922 242.287 845.553 242.287ZM849.19 252.278V239.789H851.028V252.278H849.19Z" fill="#102E34"/>
<path d="M677.967 216.437H1226.77V211.34H677.967V216.437ZM1229.32 218.986V272.57H1234.42V218.986H1229.32ZM1226.77 275.119H677.967V280.216H1226.77V275.119ZM675.418 272.57V218.986H670.32V272.57H675.418ZM677.967 275.119C676.559 275.119 675.418 273.978 675.418 272.57H670.32C670.32 276.793 673.744 280.216 677.967 280.216V275.119ZM1229.32 272.57C1229.32 273.978 1228.18 275.119 1226.77 275.119V280.216C1230.99 280.216 1234.42 276.793 1234.42 272.57H1229.32ZM1226.77 216.437C1228.18 216.437 1229.32 217.578 1229.32 218.986H1234.42C1234.42 214.763 1230.99 211.34 1226.77 211.34V216.437ZM677.967 211.34C673.744 211.34 670.32 214.763 670.32 218.986H675.418C675.418 217.578 676.559 216.437 677.967 216.437V211.34Z" fill="#99A6A8"/>
<defs>
<clipPath id="clip0_1191_76826">
<path d="M672.869 320.889C672.869 317.023 676.003 313.889 679.869 313.889H858.869C862.735 313.889 865.869 317.023 865.869 320.889V356.889C865.869 360.755 862.735 363.889 858.869 363.889H679.869C676.003 363.889 672.869 360.755 672.869 356.889V320.889Z" fill="white"/>
</clipPath>
</defs>
</svg>
