<svg width="428" height="447" viewBox="0 0 428 447" fill="none" xmlns="http://www.w3.org/2000/svg">
<rect width="428" height="446" transform="translate(0 0.0693359)" fill="#2168D1"/>
<path d="M78.7506 65.0605L75.6506 59.7805C77.2706 59.0405 78.3506 57.4405 78.3506 55.7005C78.3506 54.4205 77.8906 53.3205 76.9906 52.4205C76.0906 51.5205 74.9906 51.0605 73.6906 51.0605H68.0906V65.0605H70.8506V60.2005H72.9506L75.7706 65.0605H78.7506ZM73.6906 53.6405C74.7306 53.6405 75.5906 54.5605 75.5906 55.7005C75.5906 56.8405 74.7306 57.7805 73.6906 57.7805H70.8506V53.6405H73.6906ZM89.518 61.1205C89.578 60.7405 89.618 60.4005 89.618 60.0605C89.618 58.5605 89.138 57.3205 88.178 56.3005C87.238 55.2805 86.018 54.7805 84.558 54.7805C83.018 54.7805 81.738 55.2805 80.758 56.3005C79.778 57.3005 79.278 58.5605 79.278 60.0605C79.278 61.5805 79.778 62.8405 80.778 63.8405C81.778 64.8405 83.098 65.3405 84.758 65.3405C86.678 65.3405 88.138 64.6205 89.118 63.2005L87.038 62.0005C86.538 62.6605 85.778 63.0005 84.798 63.0005C83.258 63.0005 82.318 62.3805 81.978 61.1205H89.518ZM81.938 59.1205C82.238 57.8405 83.178 57.1005 84.558 57.1005C85.738 57.1005 86.738 57.7605 87.038 59.1205H81.938ZM99.0509 56.3005C98.2909 55.2805 97.2309 54.7805 95.8509 54.7805C94.4509 54.7805 93.2709 55.2805 92.3109 56.2805C91.3509 57.2805 90.8709 58.4805 90.8709 59.9005C90.8709 61.3205 91.3509 62.5405 92.2909 63.5405C93.2509 64.5205 94.4309 65.0205 95.8509 65.0205C97.2309 65.0205 98.2909 64.5205 99.0509 63.5005V64.5805C99.0509 66.1605 98.0509 67.0405 96.4309 67.0405C95.1909 67.0405 94.3109 66.5805 93.8109 65.6405L91.6109 66.9005C92.4909 68.5005 94.1909 69.3405 96.3509 69.3405C97.7909 69.3405 99.0109 68.9405 100.031 68.1205C101.051 67.3005 101.571 66.1205 101.571 64.5805V55.0605H99.0509V56.3005ZM99.0509 59.9005C99.0509 61.5005 97.8709 62.6405 96.2509 62.6405C94.6309 62.6405 93.4509 61.5005 93.4509 59.9005C93.4509 59.1205 93.7109 58.4605 94.2309 57.9605C94.7709 57.4405 95.4309 57.1805 96.2509 57.1805C97.0709 57.1805 97.7309 57.4405 98.2509 57.9605C98.7909 58.4605 99.0509 59.1205 99.0509 59.9005ZM105.24 53.8605C106.12 53.8605 106.84 53.1405 106.84 52.2805C106.84 51.4205 106.12 50.6805 105.24 50.6805C104.38 50.6805 103.66 51.4205 103.66 52.2805C103.66 53.1405 104.38 53.8605 105.24 53.8605ZM106.54 65.0605V55.0605H103.96V65.0605H106.54ZM111.254 57.9005C111.254 57.4005 111.754 57.0805 112.414 57.0805C113.154 57.0805 113.694 57.4205 114.014 58.1005L116.214 56.9005C115.434 55.5405 114.034 54.7805 112.414 54.7805C111.334 54.7805 110.434 55.0605 109.694 55.6405C108.974 56.2005 108.614 56.9805 108.614 57.9605C108.614 60.0405 110.474 60.6605 111.954 61.0405C112.974 61.3005 113.774 61.6005 113.774 62.1405C113.774 62.7205 113.314 63.0005 112.394 63.0005C111.374 63.0005 110.734 62.5605 110.434 61.7005L108.194 62.9605C108.934 64.5405 110.334 65.3405 112.394 65.3405C113.534 65.3405 114.494 65.0605 115.254 64.5205C116.034 63.9605 116.414 63.1605 116.414 62.1405C116.434 60.0005 114.534 59.3005 113.074 59.0005C112.054 58.7405 111.254 58.4405 111.254 57.9005ZM123.55 55.0605H121.29V52.2605L118.71 53.0405V55.0605H116.97V57.5405H118.71V61.7005C118.71 64.4405 120.01 65.4605 123.55 65.0605V62.7205C122.07 62.8005 121.29 62.7805 121.29 61.7005V57.5405H123.55V55.0605ZM134.827 61.1205C134.887 60.7405 134.927 60.4005 134.927 60.0605C134.927 58.5605 134.447 57.3205 133.487 56.3005C132.547 55.2805 131.327 54.7805 129.867 54.7805C128.327 54.7805 127.047 55.2805 126.067 56.3005C125.087 57.3005 124.587 58.5605 124.587 60.0605C124.587 61.5805 125.087 62.8405 126.087 63.8405C127.087 64.8405 128.407 65.3405 130.067 65.3405C131.987 65.3405 133.447 64.6205 134.427 63.2005L132.347 62.0005C131.847 62.6605 131.087 63.0005 130.107 63.0005C128.567 63.0005 127.627 62.3805 127.287 61.1205H134.827ZM127.247 59.1205C127.547 57.8405 128.487 57.1005 129.867 57.1005C131.047 57.1005 132.047 57.7605 132.347 59.1205H127.247ZM139.358 55.0605H136.778V65.0605H139.358V60.2805C139.358 59.3205 139.658 58.6405 140.278 58.2205C140.898 57.8005 141.618 57.6405 142.398 57.7405V54.8605C141.038 54.8605 139.838 55.5005 139.358 56.7805V55.0605ZM153.307 61.7805L150.707 55.0605H147.887L151.987 64.7405C151.507 66.1005 150.747 66.6805 149.367 66.6605V69.0605C151.927 69.2005 153.607 67.9405 154.647 65.0605L158.287 55.0605H155.527L153.307 61.7805ZM167.694 63.8205C168.714 62.8005 169.234 61.5405 169.234 60.0605C169.234 58.5805 168.714 57.3405 167.694 56.3205C166.674 55.3005 165.414 54.7805 163.934 54.7805C162.454 54.7805 161.194 55.3005 160.174 56.3205C159.154 57.3405 158.654 58.5805 158.654 60.0605C158.654 61.5405 159.154 62.8005 160.174 63.8205C161.194 64.8405 162.454 65.3405 163.934 65.3405C165.414 65.3405 166.674 64.8405 167.694 63.8205ZM161.994 62.0405C161.494 61.5205 161.234 60.8605 161.234 60.0605C161.234 59.2605 161.494 58.6005 161.994 58.0805C162.514 57.5605 163.154 57.3005 163.934 57.3005C164.714 57.3005 165.354 57.5605 165.874 58.0805C166.394 58.6005 166.654 59.2605 166.654 60.0605C166.654 60.8605 166.394 61.5205 165.874 62.0405C165.354 62.5605 164.714 62.8205 163.934 62.8205C163.154 62.8205 162.514 62.5605 161.994 62.0405ZM177.699 60.4605C177.699 62.1205 176.839 62.9405 175.499 62.9405C174.299 62.9405 173.519 62.2205 173.519 60.8805V55.0605H170.939V61.2005C170.939 62.5005 171.299 63.5005 171.999 64.2405C172.719 64.9805 173.619 65.3405 174.719 65.3405C176.079 65.3405 177.079 64.8805 177.699 63.9405V65.0605H180.279V55.0605H177.699V60.4605ZM185.272 55.0605H182.692V65.0605H185.272V60.2805C185.272 59.3205 185.572 58.6405 186.192 58.2205C186.812 57.8005 187.532 57.6405 188.312 57.7405V54.8605C186.952 54.8605 185.752 55.5005 185.272 56.7805V55.0605ZM206.821 63.2405C208.241 61.8205 208.941 60.1005 208.941 58.0605C208.941 56.0205 208.241 54.3005 206.821 52.9005C205.401 51.4805 203.681 50.7805 201.661 50.7805C199.641 50.7805 197.921 51.4805 196.501 52.9005C195.101 54.3005 194.401 56.0205 194.401 58.0605C194.401 60.1005 195.101 61.8205 196.501 63.2405C197.921 64.6405 199.641 65.3405 201.661 65.3405C203.681 65.3405 205.401 64.6405 206.821 63.2405ZM198.441 61.3605C197.581 60.5005 197.141 59.4005 197.141 58.0605C197.141 56.7205 197.581 55.6205 198.441 54.7605C199.301 53.9005 200.381 53.4605 201.661 53.4605C202.941 53.4605 204.021 53.9005 204.881 54.7605C205.741 55.6205 206.181 56.7205 206.181 58.0605C206.181 59.4005 205.741 60.5005 204.881 61.3605C204.021 62.2205 202.941 62.6405 201.661 62.6405C200.381 62.6405 199.301 62.2205 198.441 61.3605ZM213.39 55.0605H210.81V65.0605H213.39V60.2805C213.39 59.3205 213.69 58.6405 214.31 58.2205C214.93 57.8005 215.65 57.6405 216.43 57.7405V54.8605C215.07 54.8605 213.87 55.5005 213.39 56.7805V55.0605ZM225.278 56.3005C224.518 55.2805 223.458 54.7805 222.078 54.7805C220.678 54.7805 219.498 55.2805 218.538 56.2805C217.578 57.2805 217.098 58.4805 217.098 59.9005C217.098 61.3205 217.578 62.5405 218.518 63.5405C219.478 64.5205 220.658 65.0205 222.078 65.0205C223.458 65.0205 224.518 64.5205 225.278 63.5005V64.5805C225.278 66.1605 224.278 67.0405 222.658 67.0405C221.418 67.0405 220.538 66.5805 220.038 65.6405L217.838 66.9005C218.718 68.5005 220.418 69.3405 222.578 69.3405C224.018 69.3405 225.238 68.9405 226.258 68.1205C227.278 67.3005 227.798 66.1205 227.798 64.5805V55.0605H225.278V56.3005ZM225.278 59.9005C225.278 61.5005 224.098 62.6405 222.478 62.6405C220.858 62.6405 219.678 61.5005 219.678 59.9005C219.678 59.1205 219.938 58.4605 220.458 57.9605C220.998 57.4405 221.658 57.1805 222.478 57.1805C223.298 57.1805 223.958 57.4405 224.478 57.9605C225.018 58.4605 225.278 59.1205 225.278 59.9005ZM237.788 56.2405C237.008 55.2605 235.928 54.7805 234.528 54.7805C233.188 54.7805 232.048 55.3005 231.088 56.3205C230.148 57.3405 229.668 58.5805 229.668 60.0605C229.668 61.5405 230.148 62.8005 231.088 63.8205C232.048 64.8405 233.188 65.3405 234.528 65.3405C235.928 65.3405 237.008 64.8605 237.788 63.8805V65.0605H240.368V55.0605H237.788V56.2405ZM233.028 62.1005C232.508 61.5605 232.248 60.8805 232.248 60.0605C232.248 59.2405 232.508 58.5605 233.028 58.0405C233.548 57.5005 234.208 57.2405 235.008 57.2405C235.808 57.2405 236.468 57.5005 236.988 58.0405C237.528 58.5605 237.788 59.2405 237.788 60.0605C237.788 60.8805 237.528 61.5605 236.988 62.1005C236.468 62.6205 235.808 62.8805 235.008 62.8805C234.208 62.8805 233.548 62.6205 233.028 62.1005ZM248.317 54.7805C246.957 54.7805 245.957 55.2405 245.337 56.1805V55.0605H242.757V65.0605H245.337V59.6605C245.337 58.0005 246.197 57.1805 247.537 57.1805C248.737 57.1805 249.517 57.9005 249.517 59.2405V65.0605H252.097V58.9205C252.097 57.6205 251.737 56.6205 251.017 55.8805C250.317 55.1405 249.417 54.7805 248.317 54.7805ZM255.63 53.8605C256.51 53.8605 257.23 53.1405 257.23 52.2805C257.23 51.4205 256.51 50.6805 255.63 50.6805C254.77 50.6805 254.05 51.4205 254.05 52.2805C254.05 53.1405 254.77 53.8605 255.63 53.8605ZM256.93 65.0605V55.0605H254.35V65.0605H256.93ZM266.722 56.7805V55.0605H259.222V57.4805H263.242L259.022 63.3405V65.0605H266.922V62.6405H262.482L266.722 56.7805ZM275.839 56.2405C275.059 55.2605 273.979 54.7805 272.579 54.7805C271.239 54.7805 270.099 55.3005 269.139 56.3205C268.199 57.3405 267.719 58.5805 267.719 60.0605C267.719 61.5405 268.199 62.8005 269.139 63.8205C270.099 64.8405 271.239 65.3405 272.579 65.3405C273.979 65.3405 275.059 64.8605 275.839 63.8805V65.0605H278.419V55.0605H275.839V56.2405ZM271.079 62.1005C270.559 61.5605 270.299 60.8805 270.299 60.0605C270.299 59.2405 270.559 58.5605 271.079 58.0405C271.599 57.5005 272.259 57.2405 273.059 57.2405C273.859 57.2405 274.519 57.5005 275.039 58.0405C275.579 58.5605 275.839 59.2405 275.839 60.0605C275.839 60.8805 275.579 61.5605 275.039 62.1005C274.519 62.6205 273.859 62.8805 273.059 62.8805C272.259 62.8805 271.599 62.6205 271.079 62.1005ZM286.529 55.0605H284.269V52.2605L281.689 53.0405V55.0605H279.949V57.5405H281.689V61.7005C281.689 64.4405 282.989 65.4605 286.529 65.0605V62.7205C285.049 62.8005 284.269 62.7805 284.269 61.7005V57.5405H286.529V55.0605ZM289.678 53.8605C290.558 53.8605 291.278 53.1405 291.278 52.2805C291.278 51.4205 290.558 50.6805 289.678 50.6805C288.818 50.6805 288.098 51.4205 288.098 52.2805C288.098 53.1405 288.818 53.8605 289.678 53.8605ZM290.978 65.0605V55.0605H288.398V65.0605H290.978ZM301.909 63.8205C302.929 62.8005 303.449 61.5405 303.449 60.0605C303.449 58.5805 302.929 57.3405 301.909 56.3205C300.889 55.3005 299.629 54.7805 298.149 54.7805C296.669 54.7805 295.409 55.3005 294.389 56.3205C293.369 57.3405 292.869 58.5805 292.869 60.0605C292.869 61.5405 293.369 62.8005 294.389 63.8205C295.409 64.8405 296.669 65.3405 298.149 65.3405C299.629 65.3405 300.889 64.8405 301.909 63.8205ZM296.209 62.0405C295.709 61.5205 295.449 60.8605 295.449 60.0605C295.449 59.2605 295.709 58.6005 296.209 58.0805C296.729 57.5605 297.369 57.3005 298.149 57.3005C298.929 57.3005 299.569 57.5605 300.089 58.0805C300.609 58.6005 300.869 59.2605 300.869 60.0605C300.869 60.8605 300.609 61.5205 300.089 62.0405C299.569 62.5605 298.929 62.8205 298.149 62.8205C297.369 62.8205 296.729 62.5605 296.209 62.0405ZM310.874 54.7805C309.514 54.7805 308.514 55.2405 307.894 56.1805V55.0605H305.314V65.0605H307.894V59.6605C307.894 58.0005 308.754 57.1805 310.094 57.1805C311.294 57.1805 312.074 57.9005 312.074 59.2405V65.0605H314.654V58.9205C314.654 57.6205 314.294 56.6205 313.574 55.8805C312.874 55.1405 311.974 54.7805 310.874 54.7805ZM330.177 59.6005L324.177 51.0605H322.077V65.0605H324.837V56.5005L330.837 65.0605H332.937V51.0605H330.177V59.6005ZM343.984 63.8205C345.004 62.8005 345.524 61.5405 345.524 60.0605C345.524 58.5805 345.004 57.3405 343.984 56.3205C342.964 55.3005 341.704 54.7805 340.224 54.7805C338.744 54.7805 337.484 55.3005 336.464 56.3205C335.444 57.3405 334.944 58.5805 334.944 60.0605C334.944 61.5405 335.444 62.8005 336.464 63.8205C337.484 64.8405 338.744 65.3405 340.224 65.3405C341.704 65.3405 342.964 64.8405 343.984 63.8205ZM338.284 62.0405C337.784 61.5205 337.524 60.8605 337.524 60.0605C337.524 59.2605 337.784 58.6005 338.284 58.0805C338.804 57.5605 339.444 57.3005 340.224 57.3005C341.004 57.3005 341.644 57.5605 342.164 58.0805C342.684 58.6005 342.944 59.2605 342.944 60.0605C342.944 60.8605 342.684 61.5205 342.164 62.0405C341.644 62.5605 341.004 62.8205 340.224 62.8205C339.444 62.8205 338.804 62.5605 338.284 62.0405ZM356.559 61.2205L354.739 55.0605H352.299L350.479 61.2005L348.779 55.0605H346.039L349.219 65.0605H351.679L353.519 59.0005L355.359 65.0605H357.819L360.999 55.0605H358.259L356.559 61.2205Z" fill="white"/>
<path d="M60.3842 159.709C58.8499 159.709 57.6308 159.281 56.7268 158.424C55.8229 157.556 55.3709 156.307 55.3709 154.678V151.752C55.3709 150.122 55.8229 148.879 56.7268 148.023C57.6308 147.155 58.8499 146.721 60.3842 146.721C61.9185 146.721 63.1377 147.155 64.0416 148.023C64.9574 148.879 65.4154 150.122 65.4154 151.752V154.678C65.4154 156.307 64.9574 157.556 64.0416 158.424C63.1377 159.281 61.9185 159.709 60.3842 159.709ZM60.3842 157.978C61.3714 157.978 62.1326 157.693 62.6679 157.122C63.2031 156.539 63.4707 155.748 63.4707 154.749V151.68C63.4707 150.681 63.2031 149.896 62.6679 149.325C62.1326 148.743 61.3714 148.451 60.3842 148.451C59.4208 148.451 58.6655 148.743 58.1184 149.325C57.5713 149.896 57.2977 150.681 57.2977 151.68V154.749C57.2977 155.748 57.5713 156.539 58.1184 157.122C58.6655 157.693 59.4208 157.978 60.3842 157.978ZM67.7499 159.459V150.663H69.5518V151.698H69.8373C69.98 151.329 70.206 151.062 70.5152 150.895C70.8364 150.717 71.2289 150.628 71.6927 150.628H72.7454V152.287H71.6214C71.0267 152.287 70.539 152.453 70.1584 152.786C69.7778 153.108 69.5875 153.607 69.5875 154.285V159.459H67.7499ZM73.9075 155.106V154.838C73.9075 153.91 74.0919 153.119 74.4606 152.465C74.8412 151.811 75.3407 151.306 75.9592 150.949C76.5777 150.592 77.2557 150.414 77.9931 150.414C78.8495 150.414 79.5036 150.574 79.9556 150.895C80.4195 151.216 80.7585 151.561 80.9725 151.93H81.258V150.663H83.0421V161.261C83.0421 161.796 82.8815 162.224 82.5604 162.545C82.2511 162.867 81.823 163.027 81.2758 163.027H75.3526V161.421H80.7049C81.0499 161.421 81.2223 161.243 81.2223 160.886V158.085H80.9369C80.806 158.299 80.6217 158.519 80.3838 158.745C80.1459 158.971 79.8307 159.156 79.4382 159.298C79.0576 159.441 78.5759 159.513 77.9931 159.513C77.2557 159.513 76.5718 159.34 75.9414 158.995C75.3229 158.638 74.8293 158.133 74.4606 157.479C74.0919 156.813 73.9075 156.022 73.9075 155.106ZM78.4927 157.907C79.2895 157.907 79.9437 157.657 80.4552 157.157C80.9785 156.646 81.2402 155.944 81.2402 155.052V154.892C81.2402 153.976 80.9844 153.274 80.473 152.786C79.9616 152.287 79.3014 152.037 78.4927 152.037C77.7076 152.037 77.0535 152.287 76.5301 152.786C76.0187 153.274 75.763 153.976 75.763 154.892V155.052C75.763 155.944 76.0187 156.646 76.5301 157.157C77.0535 157.657 77.7076 157.907 78.4927 157.907ZM88.4773 159.709C87.8469 159.709 87.282 159.602 86.7824 159.388C86.2948 159.174 85.9023 158.858 85.6049 158.442C85.3195 158.026 85.1767 157.52 85.1767 156.926C85.1767 156.319 85.3195 155.819 85.6049 155.427C85.9023 155.023 86.3007 154.719 86.8003 154.517C87.3117 154.315 87.8886 154.214 88.5308 154.214H91.207V153.643C91.207 153.131 91.0524 152.721 90.7431 152.412C90.4339 152.103 89.9581 151.948 89.3158 151.948C88.6855 151.948 88.2038 152.097 87.8707 152.394C87.5377 152.691 87.3177 153.078 87.2106 153.554L85.4979 153.001C85.6406 152.525 85.8666 152.097 86.1758 151.716C86.497 151.324 86.9192 151.008 87.4425 150.77C87.9659 150.533 88.5963 150.414 89.3337 150.414C90.4755 150.414 91.3735 150.705 92.0277 151.288C92.6818 151.871 93.0089 152.697 93.0089 153.768V157.389C93.0089 157.746 93.1754 157.925 93.5085 157.925H94.2578V159.459H92.884C92.4677 159.459 92.1288 159.352 91.8671 159.138C91.6054 158.924 91.4746 158.632 91.4746 158.264V158.21H91.207C91.1118 158.389 90.9691 158.597 90.7788 158.835C90.5885 159.072 90.309 159.281 89.9403 159.459C89.5716 159.626 89.0839 159.709 88.4773 159.709ZM88.7449 158.192C89.4824 158.192 90.0771 157.984 90.529 157.568C90.981 157.14 91.207 156.557 91.207 155.819V155.641H88.6379C88.1502 155.641 87.7577 155.748 87.4604 155.962C87.163 156.164 87.0144 156.468 87.0144 156.872C87.0144 157.276 87.169 157.598 87.4782 157.835C87.7875 158.073 88.2097 158.192 88.7449 158.192ZM96.0445 159.459V150.663H97.8465V151.984H98.1319C98.2984 151.627 98.5958 151.294 99.024 150.985C99.4522 150.675 100.088 150.521 100.933 150.521C101.599 150.521 102.188 150.669 102.699 150.967C103.223 151.264 103.633 151.686 103.93 152.233C104.228 152.769 104.376 153.417 104.376 154.178V159.459H102.539V154.321C102.539 153.56 102.348 153.001 101.968 152.644C101.587 152.275 101.064 152.091 100.398 152.091C99.6365 152.091 99.024 152.34 98.5601 152.84C98.1081 153.34 97.8822 154.065 97.8822 155.017V159.459H96.0445ZM107.021 159.459V150.663H108.859V159.459H107.021ZM107.949 149.468C107.592 149.468 107.289 149.355 107.039 149.129C106.801 148.891 106.682 148.588 106.682 148.219C106.682 147.85 106.801 147.553 107.039 147.327C107.289 147.089 107.592 146.97 107.949 146.97C108.317 146.97 108.621 147.089 108.859 147.327C109.096 147.553 109.215 147.85 109.215 148.219C109.215 148.588 109.096 148.891 108.859 149.129C108.621 149.355 108.317 149.468 107.949 149.468ZM111.229 159.459V157.211L116.421 152.465V152.216H111.407V150.663H118.419V152.929L113.209 157.675V157.907H118.562V159.459H111.229ZM123.549 159.709C122.919 159.709 122.354 159.602 121.855 159.388C121.367 159.174 120.974 158.858 120.677 158.442C120.392 158.026 120.249 157.52 120.249 156.926C120.249 156.319 120.392 155.819 120.677 155.427C120.974 155.023 121.373 154.719 121.872 154.517C122.384 154.315 122.961 154.214 123.603 154.214H126.279V153.643C126.279 153.131 126.124 152.721 125.815 152.412C125.506 152.103 125.03 151.948 124.388 151.948C123.758 151.948 123.276 152.097 122.943 152.394C122.61 152.691 122.39 153.078 122.283 153.554L120.57 153.001C120.713 152.525 120.939 152.097 121.248 151.716C121.569 151.324 121.991 151.008 122.515 150.77C123.038 150.533 123.668 150.414 124.406 150.414C125.548 150.414 126.446 150.705 127.1 151.288C127.754 151.871 128.081 152.697 128.081 153.768V157.389C128.081 157.746 128.248 157.925 128.581 157.925H129.33V159.459H127.956C127.54 159.459 127.201 159.352 126.939 159.138C126.678 158.924 126.547 158.632 126.547 158.264V158.21H126.279C126.184 158.389 126.041 158.597 125.851 158.835C125.661 159.072 125.381 159.281 125.012 159.459C124.644 159.626 124.156 159.709 123.549 159.709ZM123.817 158.192C124.554 158.192 125.149 157.984 125.601 157.568C126.053 157.14 126.279 156.557 126.279 155.819V155.641H123.71C123.222 155.641 122.83 155.748 122.533 155.962C122.235 156.164 122.086 156.468 122.086 156.872C122.086 157.276 122.241 157.598 122.55 157.835C122.86 158.073 123.282 158.192 123.817 158.192ZM133.807 159.459C133.272 159.459 132.844 159.298 132.523 158.977C132.214 158.656 132.059 158.228 132.059 157.693V152.216H129.633V150.663H132.059V147.755H133.897V150.663H136.519V152.216H133.897V157.372C133.897 157.728 134.063 157.907 134.396 157.907H136.234V159.459H133.807ZM138.678 159.459V150.663H140.516V159.459H138.678ZM139.606 149.468C139.249 149.468 138.946 149.355 138.696 149.129C138.458 148.891 138.339 148.588 138.339 148.219C138.339 147.85 138.458 147.553 138.696 147.327C138.946 147.089 139.249 146.97 139.606 146.97C139.975 146.97 140.278 147.089 140.516 147.327C140.754 147.553 140.873 147.85 140.873 148.219C140.873 148.588 140.754 148.891 140.516 149.129C140.278 149.355 139.975 149.468 139.606 149.468ZM147.364 159.709C146.484 159.709 145.699 159.53 145.009 159.174C144.331 158.805 143.796 158.281 143.404 157.604C143.011 156.926 142.815 156.123 142.815 155.195V154.927C142.815 154 143.011 153.203 143.404 152.537C143.796 151.859 144.331 151.335 145.009 150.967C145.699 150.598 146.484 150.414 147.364 150.414C148.244 150.414 149.029 150.598 149.719 150.967C150.409 151.335 150.95 151.859 151.343 152.537C151.735 153.203 151.931 154 151.931 154.927V155.195C151.931 156.123 151.735 156.926 151.343 157.604C150.95 158.281 150.409 158.805 149.719 159.174C149.029 159.53 148.244 159.709 147.364 159.709ZM147.364 158.067C148.173 158.067 148.827 157.812 149.327 157.3C149.838 156.777 150.094 156.057 150.094 155.141V154.981C150.094 154.065 149.844 153.351 149.345 152.84C148.845 152.317 148.185 152.055 147.364 152.055C146.567 152.055 145.913 152.317 145.402 152.84C144.902 153.351 144.652 154.065 144.652 154.981V155.141C144.652 156.057 144.902 156.777 145.402 157.3C145.913 157.812 146.567 158.067 147.364 158.067ZM154.219 159.459V150.663H156.021V151.984H156.307C156.473 151.627 156.771 151.294 157.199 150.985C157.627 150.675 158.263 150.521 159.108 150.521C159.774 150.521 160.363 150.669 160.874 150.967C161.397 151.264 161.808 151.686 162.105 152.233C162.402 152.769 162.551 153.417 162.551 154.178V159.459H160.713V154.321C160.713 153.56 160.523 153.001 160.143 152.644C159.762 152.275 159.239 152.091 158.573 152.091C157.811 152.091 157.199 152.34 156.735 152.84C156.283 153.34 156.057 154.065 156.057 155.017V159.459H154.219ZM169.743 159.459V150.663H171.545V151.984H171.83C171.997 151.627 172.294 151.294 172.722 150.985C173.151 150.675 173.787 150.521 174.631 150.521C175.298 150.521 175.886 150.669 176.398 150.967C176.921 151.264 177.331 151.686 177.629 152.233C177.926 152.769 178.075 153.417 178.075 154.178V159.459H176.237V154.321C176.237 153.56 176.047 153.001 175.666 152.644C175.286 152.275 174.762 152.091 174.096 152.091C173.335 152.091 172.722 152.34 172.259 152.84C171.807 153.34 171.581 154.065 171.581 155.017V159.459H169.743ZM183.449 159.709C182.819 159.709 182.254 159.602 181.754 159.388C181.267 159.174 180.874 158.858 180.577 158.442C180.291 158.026 180.149 157.52 180.149 156.926C180.149 156.319 180.291 155.819 180.577 155.427C180.874 155.023 181.272 154.719 181.772 154.517C182.283 154.315 182.86 154.214 183.503 154.214H186.179V153.643C186.179 153.131 186.024 152.721 185.715 152.412C185.406 152.103 184.93 151.948 184.288 151.948C183.657 151.948 183.176 152.097 182.842 152.394C182.509 152.691 182.289 153.078 182.182 153.554L180.47 153.001C180.612 152.525 180.838 152.097 181.148 151.716C181.469 151.324 181.891 151.008 182.414 150.77C182.938 150.533 183.568 150.414 184.305 150.414C185.447 150.414 186.345 150.705 186.999 151.288C187.654 151.871 187.981 152.697 187.981 153.768V157.389C187.981 157.746 188.147 157.925 188.48 157.925H189.23V159.459H187.856C187.44 159.459 187.101 159.352 186.839 159.138C186.577 158.924 186.446 158.632 186.446 158.264V158.21H186.179C186.084 158.389 185.941 158.597 185.751 158.835C185.56 159.072 185.281 159.281 184.912 159.459C184.543 159.626 184.056 159.709 183.449 159.709ZM183.717 158.192C184.454 158.192 185.049 157.984 185.501 157.568C185.953 157.14 186.179 156.557 186.179 155.819V155.641H183.61C183.122 155.641 182.729 155.748 182.432 155.962C182.135 156.164 181.986 156.468 181.986 156.872C181.986 157.276 182.141 157.598 182.45 157.835C182.759 158.073 183.181 158.192 183.717 158.192ZM191.016 159.459V150.663H192.818V151.698H193.104C193.27 151.389 193.538 151.115 193.907 150.877C194.275 150.64 194.775 150.521 195.405 150.521C196.059 150.521 196.583 150.657 196.975 150.931C197.38 151.193 197.683 151.532 197.885 151.948H198.171C198.373 151.544 198.664 151.205 199.045 150.931C199.437 150.657 199.99 150.521 200.704 150.521C201.275 150.521 201.78 150.64 202.22 150.877C202.661 151.103 203.011 151.448 203.273 151.912C203.535 152.364 203.666 152.929 203.666 153.607V159.459H201.828V153.75C201.828 153.215 201.679 152.804 201.382 152.519C201.096 152.221 200.686 152.073 200.151 152.073C199.58 152.073 199.122 152.257 198.777 152.626C198.432 152.995 198.26 153.524 198.26 154.214V159.459H196.422V153.75C196.422 153.215 196.273 152.804 195.976 152.519C195.691 152.221 195.28 152.073 194.745 152.073C194.174 152.073 193.716 152.257 193.371 152.626C193.026 152.995 192.854 153.524 192.854 154.214V159.459H191.016ZM210.346 159.709C209.454 159.709 208.674 159.524 208.008 159.156C207.342 158.775 206.819 158.246 206.438 157.568C206.07 156.878 205.885 156.081 205.885 155.177V154.963C205.885 154.047 206.07 153.25 206.438 152.572C206.807 151.883 207.319 151.353 207.973 150.985C208.639 150.604 209.406 150.414 210.274 150.414C211.119 150.414 211.856 150.604 212.487 150.985C213.129 151.353 213.628 151.871 213.985 152.537C214.342 153.203 214.52 153.982 214.52 154.874V155.57H207.759C207.782 156.343 208.038 156.961 208.526 157.425C209.025 157.877 209.644 158.103 210.381 158.103C211.071 158.103 211.589 157.948 211.933 157.639C212.29 157.33 212.564 156.973 212.754 156.569L214.271 157.354C214.104 157.687 213.86 158.038 213.539 158.406C213.23 158.775 212.82 159.084 212.308 159.334C211.797 159.584 211.142 159.709 210.346 159.709ZM207.776 154.16H212.647C212.6 153.494 212.362 152.977 211.933 152.608C211.505 152.227 210.946 152.037 210.256 152.037C209.567 152.037 209.002 152.227 208.562 152.608C208.133 152.977 207.872 153.494 207.776 154.16Z" fill="white"/>
<path d="M39.0974 123.618H388.903V118.521H39.0974V123.618ZM391.451 126.167V179.751H396.549V126.167H391.451ZM388.903 182.3H39.0974V187.397H388.903V182.3ZM36.5487 179.751V126.167H31.4513V179.751H36.5487ZM39.0974 182.3C37.6898 182.3 36.5487 181.159 36.5487 179.751H31.4513C31.4513 183.974 34.8746 187.397 39.0974 187.397V182.3ZM391.451 179.751C391.451 181.159 390.31 182.3 388.903 182.3V187.397C393.125 187.397 396.549 183.974 396.549 179.751H391.451ZM388.903 123.618C390.31 123.618 391.451 124.759 391.451 126.167H396.549C396.549 121.944 393.125 118.521 388.903 118.521V123.618ZM39.0974 118.521C34.8746 118.521 31.4513 121.944 31.4513 126.167H36.5487C36.5487 124.759 37.6898 123.618 39.0974 123.618V118.521Z" fill="#99A6A8"/>
<path d="M60.3842 259.488C58.8499 259.488 57.6308 259.06 56.7268 258.204C55.8229 257.335 55.3709 256.086 55.3709 254.457V251.531C55.3709 249.902 55.8229 248.659 56.7268 247.802C57.6308 246.934 58.8499 246.5 60.3842 246.5C61.9185 246.5 63.1377 246.934 64.0416 247.802C64.9574 248.659 65.4154 249.902 65.4154 251.531V254.457C65.4154 256.086 64.9574 257.335 64.0416 258.204C63.1377 259.06 61.9185 259.488 60.3842 259.488ZM60.3842 257.757C61.3714 257.757 62.1326 257.472 62.6679 256.901C63.2031 256.318 63.4707 255.527 63.4707 254.528V251.46C63.4707 250.461 63.2031 249.676 62.6679 249.105C62.1326 248.522 61.3714 248.23 60.3842 248.23C59.4208 248.23 58.6655 248.522 58.1184 249.105C57.5713 249.676 57.2977 250.461 57.2977 251.46V254.528C57.2977 255.527 57.5713 256.318 58.1184 256.901C58.6655 257.472 59.4208 257.757 60.3842 257.757ZM67.7499 259.238V250.443H69.5518V251.477H69.8373C69.98 251.109 70.206 250.841 70.5152 250.675C70.8364 250.496 71.2289 250.407 71.6927 250.407H72.7454V252.066H71.6214C71.0267 252.066 70.539 252.233 70.1584 252.566C69.7778 252.887 69.5875 253.386 69.5875 254.064V259.238H67.7499ZM73.9075 254.885V254.617C73.9075 253.69 74.0919 252.899 74.4606 252.245C74.8412 251.59 75.3407 251.085 75.9592 250.728C76.5777 250.371 77.2557 250.193 77.9931 250.193C78.8495 250.193 79.5036 250.353 79.9556 250.675C80.4195 250.996 80.7585 251.341 80.9725 251.709H81.258V250.443H83.0421V261.04C83.0421 261.575 82.8815 262.004 82.5604 262.325C82.2511 262.646 81.823 262.806 81.2758 262.806H75.3526V261.201H80.7049C81.0499 261.201 81.2223 261.022 81.2223 260.666V257.865H80.9369C80.806 258.079 80.6217 258.299 80.3838 258.525C80.1459 258.751 79.8307 258.935 79.4382 259.078C79.0576 259.22 78.5759 259.292 77.9931 259.292C77.2557 259.292 76.5718 259.119 75.9414 258.774C75.3229 258.418 74.8293 257.912 74.4606 257.258C74.0919 256.592 73.9075 255.801 73.9075 254.885ZM78.4927 257.686C79.2895 257.686 79.9437 257.436 80.4552 256.937C80.9785 256.425 81.2402 255.724 81.2402 254.832V254.671C81.2402 253.755 80.9844 253.053 80.473 252.566C79.9616 252.066 79.3014 251.816 78.4927 251.816C77.7076 251.816 77.0535 252.066 76.5301 252.566C76.0187 253.053 75.763 253.755 75.763 254.671V254.832C75.763 255.724 76.0187 256.425 76.5301 256.937C77.0535 257.436 77.7076 257.686 78.4927 257.686ZM88.4773 259.488C87.8469 259.488 87.282 259.381 86.7824 259.167C86.2948 258.953 85.9023 258.638 85.6049 258.221C85.3195 257.805 85.1767 257.3 85.1767 256.705C85.1767 256.098 85.3195 255.599 85.6049 255.206C85.9023 254.802 86.3007 254.499 86.8003 254.296C87.3117 254.094 87.8886 253.993 88.5308 253.993H91.207V253.422C91.207 252.911 91.0524 252.5 90.7431 252.191C90.4339 251.882 89.9581 251.727 89.3158 251.727C88.6855 251.727 88.2038 251.876 87.8707 252.173C87.5377 252.471 87.3177 252.857 87.2106 253.333L85.4979 252.78C85.6406 252.304 85.8666 251.876 86.1758 251.495C86.497 251.103 86.9192 250.788 87.4425 250.55C87.9659 250.312 88.5963 250.193 89.3337 250.193C90.4755 250.193 91.3735 250.484 92.0277 251.067C92.6818 251.65 93.0089 252.477 93.0089 253.547V257.169C93.0089 257.526 93.1754 257.704 93.5085 257.704H94.2578V259.238H92.884C92.4677 259.238 92.1288 259.131 91.8671 258.917C91.6054 258.703 91.4746 258.412 91.4746 258.043V257.989H91.207C91.1118 258.168 90.9691 258.376 90.7788 258.614C90.5885 258.852 90.309 259.06 89.9403 259.238C89.5716 259.405 89.0839 259.488 88.4773 259.488ZM88.7449 257.972C89.4824 257.972 90.0771 257.763 90.529 257.347C90.981 256.919 91.207 256.336 91.207 255.599V255.42H88.6379C88.1502 255.42 87.7577 255.527 87.4604 255.741C87.163 255.944 87.0144 256.247 87.0144 256.651C87.0144 257.056 87.169 257.377 87.4782 257.615C87.7875 257.853 88.2097 257.972 88.7449 257.972ZM96.0445 259.238V250.443H97.8465V251.763H98.1319C98.2984 251.406 98.5958 251.073 99.024 250.764C99.4522 250.455 100.088 250.3 100.933 250.3C101.599 250.3 102.188 250.449 102.699 250.746C103.223 251.043 103.633 251.466 103.93 252.013C104.228 252.548 104.376 253.196 104.376 253.957V259.238H102.539V254.1C102.539 253.339 102.348 252.78 101.968 252.423C101.587 252.054 101.064 251.87 100.398 251.87C99.6365 251.87 99.024 252.12 98.5601 252.619C98.1081 253.119 97.8822 253.844 97.8822 254.796V259.238H96.0445ZM107.021 259.238V250.443H108.859V259.238H107.021ZM107.949 249.247C107.592 249.247 107.289 249.134 107.039 248.908C106.801 248.67 106.682 248.367 106.682 247.998C106.682 247.63 106.801 247.332 107.039 247.106C107.289 246.869 107.592 246.75 107.949 246.75C108.317 246.75 108.621 246.869 108.859 247.106C109.096 247.332 109.215 247.63 109.215 247.998C109.215 248.367 109.096 248.67 108.859 248.908C108.621 249.134 108.317 249.247 107.949 249.247ZM111.229 259.238V256.99L116.421 252.245V251.995H111.407V250.443H118.419V252.708L113.209 257.454V257.686H118.562V259.238H111.229ZM123.549 259.488C122.919 259.488 122.354 259.381 121.855 259.167C121.367 258.953 120.974 258.638 120.677 258.221C120.392 257.805 120.249 257.3 120.249 256.705C120.249 256.098 120.392 255.599 120.677 255.206C120.974 254.802 121.373 254.499 121.872 254.296C122.384 254.094 122.961 253.993 123.603 253.993H126.279V253.422C126.279 252.911 126.124 252.5 125.815 252.191C125.506 251.882 125.03 251.727 124.388 251.727C123.758 251.727 123.276 251.876 122.943 252.173C122.61 252.471 122.39 252.857 122.283 253.333L120.57 252.78C120.713 252.304 120.939 251.876 121.248 251.495C121.569 251.103 121.991 250.788 122.515 250.55C123.038 250.312 123.668 250.193 124.406 250.193C125.548 250.193 126.446 250.484 127.1 251.067C127.754 251.65 128.081 252.477 128.081 253.547V257.169C128.081 257.526 128.248 257.704 128.581 257.704H129.33V259.238H127.956C127.54 259.238 127.201 259.131 126.939 258.917C126.678 258.703 126.547 258.412 126.547 258.043V257.989H126.279C126.184 258.168 126.041 258.376 125.851 258.614C125.661 258.852 125.381 259.06 125.012 259.238C124.644 259.405 124.156 259.488 123.549 259.488ZM123.817 257.972C124.554 257.972 125.149 257.763 125.601 257.347C126.053 256.919 126.279 256.336 126.279 255.599V255.42H123.71C123.222 255.42 122.83 255.527 122.533 255.741C122.235 255.944 122.086 256.247 122.086 256.651C122.086 257.056 122.241 257.377 122.55 257.615C122.86 257.853 123.282 257.972 123.817 257.972ZM133.807 259.238C133.272 259.238 132.844 259.078 132.523 258.757C132.214 258.435 132.059 258.007 132.059 257.472V251.995H129.633V250.443H132.059V247.535H133.897V250.443H136.519V251.995H133.897V257.151C133.897 257.508 134.063 257.686 134.396 257.686H136.234V259.238H133.807ZM138.678 259.238V250.443H140.516V259.238H138.678ZM139.606 249.247C139.249 249.247 138.946 249.134 138.696 248.908C138.458 248.67 138.339 248.367 138.339 247.998C138.339 247.63 138.458 247.332 138.696 247.106C138.946 246.869 139.249 246.75 139.606 246.75C139.975 246.75 140.278 246.869 140.516 247.106C140.754 247.332 140.873 247.63 140.873 247.998C140.873 248.367 140.754 248.67 140.516 248.908C140.278 249.134 139.975 249.247 139.606 249.247ZM147.364 259.488C146.484 259.488 145.699 259.31 145.009 258.953C144.331 258.584 143.796 258.061 143.404 257.383C143.011 256.705 142.815 255.902 142.815 254.974V254.707C142.815 253.779 143.011 252.982 143.404 252.316C143.796 251.638 144.331 251.115 145.009 250.746C145.699 250.377 146.484 250.193 147.364 250.193C148.244 250.193 149.029 250.377 149.719 250.746C150.409 251.115 150.95 251.638 151.343 252.316C151.735 252.982 151.931 253.779 151.931 254.707V254.974C151.931 255.902 151.735 256.705 151.343 257.383C150.95 258.061 150.409 258.584 149.719 258.953C149.029 259.31 148.244 259.488 147.364 259.488ZM147.364 257.847C148.173 257.847 148.827 257.591 149.327 257.08C149.838 256.556 150.094 255.837 150.094 254.921V254.76C150.094 253.844 149.844 253.131 149.345 252.619C148.845 252.096 148.185 251.834 147.364 251.834C146.567 251.834 145.913 252.096 145.402 252.619C144.902 253.131 144.652 253.844 144.652 254.76V254.921C144.652 255.837 144.902 256.556 145.402 257.08C145.913 257.591 146.567 257.847 147.364 257.847ZM154.219 259.238V250.443H156.021V251.763H156.307C156.473 251.406 156.771 251.073 157.199 250.764C157.627 250.455 158.263 250.3 159.108 250.3C159.774 250.3 160.363 250.449 160.874 250.746C161.397 251.043 161.808 251.466 162.105 252.013C162.402 252.548 162.551 253.196 162.551 253.957V259.238H160.713V254.1C160.713 253.339 160.523 252.78 160.143 252.423C159.762 252.054 159.239 251.87 158.573 251.87C157.811 251.87 157.199 252.12 156.735 252.619C156.283 253.119 156.057 253.844 156.057 254.796V259.238H154.219ZM173.775 259.488C172.883 259.488 172.104 259.304 171.438 258.935C170.772 258.554 170.249 258.025 169.868 257.347C169.499 256.657 169.315 255.86 169.315 254.956V254.742C169.315 253.827 169.499 253.03 169.868 252.352C170.237 251.662 170.748 251.133 171.402 250.764C172.068 250.383 172.835 250.193 173.704 250.193C174.548 250.193 175.286 250.383 175.916 250.764C176.558 251.133 177.058 251.65 177.415 252.316C177.771 252.982 177.95 253.761 177.95 254.653V255.349H171.188C171.212 256.122 171.468 256.741 171.955 257.204C172.455 257.656 173.073 257.882 173.811 257.882C174.501 257.882 175.018 257.728 175.363 257.419C175.72 257.109 175.993 256.752 176.184 256.348L177.7 257.133C177.534 257.466 177.29 257.817 176.969 258.186C176.659 258.554 176.249 258.864 175.738 259.113C175.226 259.363 174.572 259.488 173.775 259.488ZM171.206 253.94H176.077C176.029 253.273 175.791 252.756 175.363 252.387C174.935 252.007 174.376 251.816 173.686 251.816C172.996 251.816 172.431 252.007 171.991 252.387C171.563 252.756 171.301 253.273 171.206 253.94ZM180.162 259.238V250.443H181.964V251.477H182.249C182.416 251.168 182.683 250.895 183.052 250.657C183.421 250.419 183.92 250.3 184.551 250.3C185.205 250.3 185.728 250.437 186.121 250.71C186.525 250.972 186.828 251.311 187.031 251.727H187.316C187.518 251.323 187.81 250.984 188.19 250.71C188.583 250.437 189.136 250.3 189.85 250.3C190.42 250.3 190.926 250.419 191.366 250.657C191.806 250.883 192.157 251.228 192.419 251.692C192.68 252.144 192.811 252.708 192.811 253.386V259.238H190.974V253.529C190.974 252.994 190.825 252.584 190.527 252.298C190.242 252.001 189.832 251.852 189.296 251.852C188.726 251.852 188.268 252.036 187.923 252.405C187.578 252.774 187.405 253.303 187.405 253.993V259.238H185.568V253.529C185.568 252.994 185.419 252.584 185.122 252.298C184.836 252.001 184.426 251.852 183.891 251.852C183.32 251.852 182.862 252.036 182.517 252.405C182.172 252.774 182 253.303 182 253.993V259.238H180.162ZM198.189 259.488C197.558 259.488 196.993 259.381 196.494 259.167C196.006 258.953 195.614 258.638 195.316 258.221C195.031 257.805 194.888 257.3 194.888 256.705C194.888 256.098 195.031 255.599 195.316 255.206C195.614 254.802 196.012 254.499 196.512 254.296C197.023 254.094 197.6 253.993 198.242 253.993H200.918V253.422C200.918 252.911 200.764 252.5 200.455 252.191C200.145 251.882 199.67 251.727 199.027 251.727C198.397 251.727 197.915 251.876 197.582 252.173C197.249 252.471 197.029 252.857 196.922 253.333L195.209 252.78C195.352 252.304 195.578 251.876 195.887 251.495C196.208 251.103 196.631 250.788 197.154 250.55C197.677 250.312 198.308 250.193 199.045 250.193C200.187 250.193 201.085 250.484 201.739 251.067C202.393 251.65 202.72 252.477 202.72 253.547V257.169C202.72 257.526 202.887 257.704 203.22 257.704H203.969V259.238H202.596C202.179 259.238 201.84 259.131 201.579 258.917C201.317 258.703 201.186 258.412 201.186 258.043V257.989H200.918C200.823 258.168 200.681 258.376 200.49 258.614C200.3 258.852 200.02 259.06 199.652 259.238C199.283 259.405 198.795 259.488 198.189 259.488ZM198.456 257.972C199.194 257.972 199.789 257.763 200.241 257.347C200.692 256.919 200.918 256.336 200.918 255.599V255.42H198.349C197.862 255.42 197.469 255.527 197.172 255.741C196.875 255.944 196.726 256.247 196.726 256.651C196.726 257.056 196.88 257.377 197.19 257.615C197.499 257.853 197.921 257.972 198.456 257.972ZM205.756 259.238V250.443H207.594V259.238H205.756ZM206.684 249.247C206.327 249.247 206.024 249.134 205.774 248.908C205.536 248.67 205.417 248.367 205.417 247.998C205.417 247.63 205.536 247.332 205.774 247.106C206.024 246.869 206.327 246.75 206.684 246.75C207.052 246.75 207.356 246.869 207.594 247.106C207.832 247.332 207.95 247.63 207.95 247.998C207.95 248.367 207.832 248.67 207.594 248.908C207.356 249.134 207.052 249.247 206.684 249.247ZM210.321 259.238V246.75H212.158V259.238H210.321Z" fill="white"/>
<path d="M39.0974 223.397H388.903V218.3H39.0974V223.397ZM391.451 225.946V279.531H396.549V225.946H391.451ZM388.903 282.079H39.0974V287.177H388.903V282.079ZM36.5487 279.531V225.946H31.4513V279.531H36.5487ZM39.0974 282.079C37.6898 282.079 36.5487 280.938 36.5487 279.531H31.4513C31.4513 283.753 34.8746 287.177 39.0974 287.177V282.079ZM391.451 279.531C391.451 280.938 390.31 282.079 388.903 282.079V287.177C393.125 287.177 396.549 283.753 396.549 279.531H391.451ZM388.903 223.397C390.31 223.397 391.451 224.538 391.451 225.946H396.549C396.549 221.723 393.125 218.3 388.903 218.3V223.397ZM39.0974 218.3C34.8746 218.3 31.4513 221.723 31.4513 225.946H36.5487C36.5487 224.538 37.6898 223.397 39.0974 223.397V218.3Z" fill="#99A6A8"/>
<g clip-path="url(#clip0_1247_68838)">
<rect x="117.5" y="320.628" width="193" height="50" rx="7" fill="white"/>
<path d="M159.28 351.844C158.224 351.844 157.276 351.61 156.436 351.142C155.596 350.674 154.936 349.99 154.456 349.09C153.976 348.178 153.736 347.074 153.736 345.778C153.736 344.494 153.982 343.396 154.474 342.484C154.966 341.56 155.632 340.858 156.472 340.378C157.312 339.886 158.254 339.64 159.298 339.64C160.138 339.64 160.846 339.796 161.422 340.108C162.01 340.408 162.49 340.75 162.862 341.134L161.746 342.484C161.446 342.196 161.11 341.956 160.738 341.764C160.378 341.56 159.922 341.458 159.37 341.458C158.326 341.458 157.48 341.842 156.832 342.61C156.196 343.366 155.878 344.404 155.878 345.724C155.878 347.068 156.184 348.124 156.796 348.892C157.408 349.648 158.302 350.026 159.478 350.026C159.814 350.026 160.132 349.984 160.432 349.9C160.732 349.804 160.978 349.672 161.17 349.504V346.966H158.938V345.256H163.042V350.44C162.646 350.836 162.118 351.172 161.458 351.448C160.81 351.712 160.084 351.844 159.28 351.844ZM169.251 351.844C168.435 351.844 167.697 351.664 167.037 351.304C166.377 350.932 165.855 350.404 165.471 349.72C165.087 349.024 164.895 348.19 164.895 347.218C164.895 346.258 165.087 345.43 165.471 344.734C165.867 344.038 166.377 343.504 167.001 343.132C167.625 342.76 168.279 342.574 168.963 342.574C169.767 342.574 170.439 342.754 170.979 343.114C171.519 343.462 171.927 343.954 172.203 344.59C172.479 345.214 172.617 345.94 172.617 346.768C172.617 347.2 172.587 347.536 172.527 347.776H166.911C167.007 348.556 167.289 349.162 167.757 349.594C168.225 350.026 168.813 350.242 169.521 350.242C169.905 350.242 170.259 350.188 170.583 350.08C170.919 349.96 171.249 349.798 171.573 349.594L172.275 350.89C171.855 351.166 171.387 351.394 170.871 351.574C170.355 351.754 169.815 351.844 169.251 351.844ZM166.893 346.372H170.817C170.817 345.688 170.667 345.154 170.367 344.77C170.067 344.374 169.617 344.176 169.017 344.176C168.501 344.176 168.039 344.368 167.631 344.752C167.235 345.124 166.989 345.664 166.893 346.372ZM177.532 351.844C176.512 351.844 175.786 351.55 175.354 350.962C174.934 350.362 174.724 349.588 174.724 348.64V344.428H173.464V342.88L174.832 342.79L175.084 340.378H176.812V342.79H179.062V344.428H176.812V348.64C176.812 349.672 177.226 350.188 178.054 350.188C178.21 350.188 178.372 350.17 178.54 350.134C178.708 350.086 178.852 350.038 178.972 349.99L179.332 351.52C179.092 351.604 178.816 351.676 178.504 351.736C178.204 351.808 177.88 351.844 177.532 351.844ZM186.992 351.844C186.392 351.844 185.792 351.73 185.192 351.502C184.592 351.262 184.076 350.968 183.644 350.62L184.616 349.288C185.012 349.588 185.408 349.828 185.804 350.008C186.2 350.188 186.62 350.278 187.064 350.278C187.544 350.278 187.898 350.176 188.126 349.972C188.354 349.768 188.468 349.516 188.468 349.216C188.468 348.964 188.372 348.76 188.18 348.604C188 348.436 187.766 348.292 187.478 348.172C187.19 348.04 186.89 347.914 186.578 347.794C186.194 347.65 185.81 347.476 185.426 347.272C185.054 347.056 184.748 346.786 184.508 346.462C184.268 346.126 184.148 345.712 184.148 345.22C184.148 344.44 184.436 343.804 185.012 343.312C185.588 342.82 186.368 342.574 187.352 342.574C187.976 342.574 188.534 342.682 189.026 342.898C189.518 343.114 189.944 343.36 190.304 343.636L189.35 344.896C189.038 344.668 188.72 344.488 188.396 344.356C188.084 344.212 187.754 344.14 187.406 344.14C186.962 344.14 186.632 344.236 186.416 344.428C186.2 344.608 186.092 344.836 186.092 345.112C186.092 345.46 186.272 345.724 186.632 345.904C186.992 346.084 187.412 346.258 187.892 346.426C188.3 346.57 188.696 346.75 189.08 346.966C189.464 347.17 189.782 347.44 190.034 347.776C190.298 348.112 190.43 348.556 190.43 349.108C190.43 349.864 190.136 350.512 189.548 351.052C188.96 351.58 188.108 351.844 186.992 351.844ZM195.04 351.844C194.02 351.844 193.294 351.55 192.862 350.962C192.442 350.362 192.232 349.588 192.232 348.64V344.428H190.972V342.88L192.34 342.79L192.592 340.378H194.32V342.79H196.57V344.428H194.32V348.64C194.32 349.672 194.734 350.188 195.562 350.188C195.718 350.188 195.88 350.17 196.048 350.134C196.216 350.086 196.36 350.038 196.48 349.99L196.84 351.52C196.6 351.604 196.324 351.676 196.012 351.736C195.712 351.808 195.388 351.844 195.04 351.844ZM200.185 351.844C199.417 351.844 198.787 351.604 198.295 351.124C197.815 350.644 197.575 350.02 197.575 349.252C197.575 348.304 197.989 347.572 198.817 347.056C199.645 346.528 200.965 346.168 202.777 345.976C202.765 345.508 202.639 345.106 202.399 344.77C202.171 344.422 201.757 344.248 201.157 344.248C200.725 344.248 200.299 344.332 199.879 344.5C199.471 344.668 199.069 344.872 198.673 345.112L197.917 343.726C198.409 343.414 198.961 343.144 199.573 342.916C200.197 342.688 200.857 342.574 201.553 342.574C202.657 342.574 203.479 342.904 204.019 343.564C204.571 344.212 204.847 345.154 204.847 346.39V351.628H203.137L202.993 350.656H202.921C202.525 350.992 202.099 351.274 201.643 351.502C201.199 351.73 200.713 351.844 200.185 351.844ZM200.851 350.224C201.211 350.224 201.535 350.14 201.823 349.972C202.123 349.792 202.441 349.552 202.777 349.252V347.272C201.577 347.428 200.743 347.662 200.275 347.974C199.807 348.274 199.573 348.646 199.573 349.09C199.573 349.486 199.693 349.774 199.933 349.954C200.173 350.134 200.479 350.224 200.851 350.224ZM207.325 351.628V342.79H209.035L209.179 344.356H209.251C209.563 343.78 209.941 343.342 210.385 343.042C210.829 342.73 211.285 342.574 211.753 342.574C212.173 342.574 212.509 342.634 212.761 342.754L212.401 344.554C212.245 344.506 212.101 344.47 211.969 344.446C211.837 344.422 211.675 344.41 211.483 344.41C211.135 344.41 210.769 344.548 210.385 344.824C210.001 345.088 209.671 345.556 209.395 346.228V351.628H207.325ZM217.154 351.844C216.134 351.844 215.408 351.55 214.976 350.962C214.556 350.362 214.346 349.588 214.346 348.64V344.428H213.086V342.88L214.454 342.79L214.706 340.378H216.434V342.79H218.684V344.428H216.434V348.64C216.434 349.672 216.848 350.188 217.676 350.188C217.832 350.188 217.994 350.17 218.162 350.134C218.33 350.086 218.474 350.038 218.594 349.99L218.954 351.52C218.714 351.604 218.438 351.676 218.126 351.736C217.826 351.808 217.502 351.844 217.154 351.844ZM224.042 351.844C223.226 351.844 222.488 351.664 221.828 351.304C221.168 350.932 220.646 350.404 220.262 349.72C219.878 349.024 219.686 348.19 219.686 347.218C219.686 346.258 219.878 345.43 220.262 344.734C220.658 344.038 221.168 343.504 221.792 343.132C222.416 342.76 223.07 342.574 223.754 342.574C224.558 342.574 225.23 342.754 225.77 343.114C226.31 343.462 226.718 343.954 226.994 344.59C227.27 345.214 227.408 345.94 227.408 346.768C227.408 347.2 227.378 347.536 227.318 347.776H221.702C221.798 348.556 222.08 349.162 222.548 349.594C223.016 350.026 223.604 350.242 224.312 350.242C224.696 350.242 225.05 350.188 225.374 350.08C225.71 349.96 226.04 349.798 226.364 349.594L227.066 350.89C226.646 351.166 226.178 351.394 225.662 351.574C225.146 351.754 224.606 351.844 224.042 351.844ZM221.684 346.372H225.608C225.608 345.688 225.458 345.154 225.158 344.77C224.858 344.374 224.408 344.176 223.808 344.176C223.292 344.176 222.83 344.368 222.422 344.752C222.026 345.124 221.78 345.664 221.684 346.372ZM232.481 351.844C231.377 351.844 230.495 351.436 229.835 350.62C229.175 349.804 228.845 348.67 228.845 347.218C228.845 346.258 229.019 345.43 229.367 344.734C229.727 344.038 230.195 343.504 230.771 343.132C231.347 342.76 231.953 342.574 232.589 342.574C233.093 342.574 233.519 342.664 233.867 342.844C234.227 343.012 234.575 343.246 234.911 343.546L234.839 342.124V338.92H236.909V351.628H235.199L235.055 350.674H234.983C234.659 350.998 234.281 351.274 233.849 351.502C233.417 351.73 232.961 351.844 232.481 351.844ZM232.985 350.134C233.645 350.134 234.263 349.804 234.839 349.144V345.022C234.539 344.746 234.239 344.554 233.939 344.446C233.639 344.338 233.339 344.284 233.039 344.284C232.475 344.284 231.989 344.542 231.581 345.058C231.185 345.562 230.987 346.276 230.987 347.2C230.987 348.148 231.161 348.874 231.509 349.378C231.857 349.882 232.349 350.134 232.985 350.134ZM243.149 351.628V342.79H244.859L245.003 343.978H245.075C245.471 343.594 245.903 343.264 246.371 342.988C246.839 342.712 247.373 342.574 247.973 342.574C248.921 342.574 249.611 342.88 250.043 343.492C250.475 344.104 250.691 344.968 250.691 346.084V351.628H248.621V346.354C248.621 345.622 248.513 345.106 248.297 344.806C248.081 344.506 247.727 344.356 247.235 344.356C246.851 344.356 246.509 344.452 246.209 344.644C245.921 344.824 245.591 345.094 245.219 345.454V351.628H243.149ZM256.839 351.844C256.107 351.844 255.423 351.664 254.787 351.304C254.151 350.932 253.635 350.404 253.239 349.72C252.843 349.024 252.645 348.19 252.645 347.218C252.645 346.234 252.843 345.4 253.239 344.716C253.635 344.02 254.151 343.492 254.787 343.132C255.423 342.76 256.107 342.574 256.839 342.574C257.583 342.574 258.273 342.76 258.909 343.132C259.545 343.492 260.061 344.02 260.457 344.716C260.853 345.4 261.051 346.234 261.051 347.218C261.051 348.19 260.853 349.024 260.457 349.72C260.061 350.404 259.545 350.932 258.909 351.304C258.273 351.664 257.583 351.844 256.839 351.844ZM256.839 350.152C257.487 350.152 257.997 349.882 258.369 349.342C258.741 348.802 258.927 348.094 258.927 347.218C258.927 346.33 258.741 345.616 258.369 345.076C257.997 344.536 257.487 344.266 256.839 344.266C256.191 344.266 255.681 344.536 255.309 345.076C254.949 345.616 254.769 346.33 254.769 347.218C254.769 348.094 254.949 348.802 255.309 349.342C255.681 349.882 256.191 350.152 256.839 350.152ZM264.453 351.628L262.113 342.79H264.201L265.263 347.38C265.359 347.8 265.437 348.22 265.497 348.64C265.569 349.06 265.647 349.486 265.731 349.918H265.803C265.887 349.486 265.971 349.06 266.055 348.64C266.151 348.208 266.253 347.788 266.361 347.38L267.513 342.79H269.403L270.573 347.38C270.681 347.8 270.783 348.22 270.879 348.64C270.975 349.06 271.071 349.486 271.167 349.918H271.239C271.323 349.486 271.401 349.06 271.473 348.64C271.545 348.22 271.623 347.8 271.707 347.38L272.769 342.79H274.713L272.463 351.628H269.997L268.971 347.506C268.875 347.086 268.785 346.672 268.701 346.264C268.617 345.844 268.527 345.4 268.431 344.932H268.359C268.275 345.4 268.191 345.844 268.107 346.264C268.023 346.684 267.933 347.104 267.837 347.524L266.829 351.628H264.453Z" fill="#102E34"/>
</g>
<defs>
<clipPath id="clip0_1247_68838">
<path d="M117.5 327.628C117.5 323.762 120.634 320.628 124.5 320.628H303.5C307.366 320.628 310.5 323.762 310.5 327.628V363.628C310.5 367.494 307.366 370.628 303.5 370.628H124.5C120.634 370.628 117.5 367.494 117.5 363.628V327.628Z" fill="white"/>
</clipPath>
</defs>
</svg>
