<svg width="840" height="194" viewBox="0 0 840 194" fill="none" xmlns="http://www.w3.org/2000/svg">
<g filter="url(#filter0_d_980_51208)">
<mask id="mask0_980_51208" style="mask-type:alpha" maskUnits="userSpaceOnUse" x="704" y="26" width="266" height="266">
<rect x="867.453" y="22.9346" width="148.294" height="235.526" rx="7.75396" transform="rotate(45 867.453 22.9346)" fill="white"/>
</mask>
<g mask="url(#mask0_980_51208)">
<rect x="836.612" y="-9.2771" width="237.2" height="237.2" transform="rotate(45 836.612 -9.2771)" fill="#1BC1BF"/>
</g>
<path d="M821.825 145.178L825.205 148.558L826.604 147.159L823.224 143.779L825.171 141.832L828.878 145.539L830.277 144.14L825.031 138.894L816.871 147.055L822.186 152.37L823.585 150.971L819.808 147.194L821.825 145.178Z" fill="white"/>
<path d="M834.521 148.384L831.163 145.026L829.81 146.379L830.885 147.453L825.43 152.908L824.357 151.836L823.005 153.188L826.361 156.544C827.457 157.64 828.566 158.195 829.689 158.209C830.812 158.222 831.925 157.683 833.028 156.59L834.566 155.051C835.662 153.955 836.202 152.844 836.186 151.717C836.17 150.59 835.615 149.479 834.521 148.384ZM831.439 155.103C830.85 155.693 830.247 156.007 829.633 156.046C829.018 156.085 828.403 155.794 827.787 155.173L827.018 154.404L832.381 149.042L833.15 149.811C833.766 150.427 834.058 151.041 834.025 151.653C833.993 152.265 833.676 152.87 833.076 153.467L831.439 155.103Z" fill="white"/>
<path d="M835.492 158.845L838.872 162.225L840.271 160.826L836.891 157.446L838.838 155.499L842.544 159.205L843.943 157.807L838.698 152.562L830.538 160.722L835.853 166.037L837.252 164.638L833.475 160.861L835.492 158.845Z" fill="white"/>
<path d="M842.432 170.516L842.222 170.307L847.712 161.575L844.786 158.649L836.625 166.809L838.142 168.325L845.252 161.214L845.461 161.423L839.971 170.155L842.898 173.081L851.058 164.921L849.542 163.406L842.432 170.516Z" fill="white"/>
<path d="M816.138 122.444C814.98 121.287 813.581 120.401 812.042 119.847C810.502 119.294 808.859 119.087 807.23 119.242C805.601 119.397 804.027 119.91 802.619 120.744C801.211 121.578 800.005 122.712 799.086 124.066C798.167 125.42 797.559 126.96 797.304 128.576C797.049 130.193 797.155 131.845 797.613 133.416C798.07 134.987 798.869 136.438 799.953 137.664C801.036 138.89 802.377 139.862 803.879 140.511C803.93 140.534 803.98 140.554 804.03 140.574C806.406 141.559 809.049 141.688 811.51 140.942C813.971 140.195 816.097 138.617 817.525 136.479C818.954 134.34 819.596 131.772 819.343 129.213C819.09 126.654 817.957 124.261 816.138 122.444ZM802.616 138.138C802.511 138.05 802.414 137.953 802.326 137.848L802.262 137.784C802.225 137.745 802.202 137.695 802.198 137.642C802.193 137.589 802.206 137.536 802.235 137.491C802.621 136.92 805.378 133.978 805.539 133.869C805.805 133.696 808.269 132.177 808.392 131.913L808.507 131.659L808.294 131.841C808.188 131.93 807.4 131.943 807.293 131.856C807.279 131.842 807.301 131.797 807.307 131.783L807.317 131.773L807.317 131.756C807.317 131.608 807.875 131.278 808.243 131.06C808.746 130.762 808.92 130.648 808.917 130.537C808.915 130.519 808.909 130.502 808.898 130.487C808.888 130.472 808.873 130.46 808.857 130.453L808.807 130.429L808.777 130.475C808.624 130.635 808.423 130.738 808.205 130.77C808.179 130.775 808.152 130.775 808.127 130.768C808.101 130.762 808.077 130.75 808.057 130.733C808.01 130.551 809.331 129.38 809.909 129.042L809.943 129.008L809.934 128.964C809.929 128.935 809.917 128.909 809.898 128.887C809.88 128.865 809.856 128.848 809.828 128.838C809.575 128.744 808.914 129.218 808.268 129.702C808.198 129.752 808.128 129.806 808.075 129.845C808.08 129.654 808.066 129.467 807.982 129.383C807.96 129.365 807.934 129.353 807.906 129.349C807.879 129.344 807.85 129.346 807.824 129.356L807.777 129.37L807.779 129.418C807.796 130.014 806.581 131.148 806.077 131.581C806.236 131.238 806.463 130.682 806.4 130.519C806.393 130.498 806.379 130.48 806.361 130.467C806.343 130.454 806.322 130.447 806.299 130.446L806.18 130.437L806.243 130.537C806.273 130.667 805.703 131.521 804.704 132.618C803.605 133.822 801.471 135.84 801.186 136.051C801.031 136.134 800.871 136.208 800.706 136.271C800.672 136.284 800.644 136.296 800.622 136.305C800.559 136.236 800.508 136.159 800.468 136.075C800.401 135.945 800.305 135.832 800.188 135.743C800.071 135.655 799.935 135.594 799.791 135.565C798.803 133.967 798.286 132.124 798.298 130.245C798.309 128.367 798.85 126.53 799.858 124.944C800.866 123.359 802.3 122.09 803.997 121.283C805.693 120.475 807.582 120.162 809.448 120.379C811.314 120.596 813.081 121.334 814.546 122.509C816.012 123.684 817.117 125.249 817.734 127.023C818.352 128.797 818.457 130.709 818.037 132.54C817.618 134.371 816.691 136.047 815.363 137.375C813.765 138.985 811.662 139.995 809.408 140.237C807.199 140.483 804.972 139.991 803.073 138.837C803.067 138.785 803.061 138.733 803.048 138.677C802.995 138.399 802.93 138.196 802.616 138.138Z" fill="white"/>
<path d="M812.24 126.312C811.729 126.235 810.769 126.35 810.24 126.879C809.711 127.408 809.533 128.228 809.928 128.623L809.958 128.653C810.174 128.181 810.81 127.655 810.81 127.655C810.505 127.977 810.242 128.335 810.028 128.723C810.453 128.996 811.181 128.804 811.662 128.323C812.202 127.783 812.315 126.821 812.24 126.312Z" fill="white"/>
<path d="M806.399 128.408C806.702 128.727 807.044 129.007 807.416 129.24C807.713 128.834 807.559 128.103 807.108 127.59C806.609 127.031 805.657 126.863 805.139 126.915C805.035 127.421 805.096 128.386 805.595 128.944C806.094 129.503 806.908 129.723 807.326 129.349C807.336 129.339 807.346 129.329 807.355 129.32C806.894 129.077 806.399 128.408 806.399 128.408Z" fill="white"/>
<path d="M805.214 125.738C805.545 126.306 806.202 126.641 806.626 126.395C806.635 126.386 806.643 126.378 806.658 126.374C806.305 126.084 805.997 125.423 805.997 125.423C806.2 125.752 806.446 126.054 806.726 126.32C807.053 126.022 807.057 125.356 806.75 124.842C806.418 124.275 805.629 123.964 805.179 123.915C805.002 124.333 804.883 125.17 805.214 125.738Z" fill="white"/>
<path d="M809.244 126.711L809.276 126.723C809.287 126.318 809.571 125.751 809.571 125.751C809.453 126.071 809.377 126.406 809.345 126.746C809.727 126.808 810.183 126.448 810.375 125.958C810.583 125.426 810.372 124.711 810.161 124.374C809.777 124.476 809.132 124.848 808.924 125.387C808.716 125.927 808.844 126.555 809.244 126.711Z" fill="white"/>
<path d="M804.463 128.255C804.06 128.221 803.513 127.892 803.513 127.892C803.825 128.028 804.152 128.123 804.488 128.176C804.577 127.799 804.249 127.321 803.775 127.092C803.255 126.845 802.53 127.009 802.18 127.197C802.255 127.587 802.586 128.253 803.11 128.497C803.633 128.741 804.272 128.662 804.457 128.274L804.463 128.255Z" fill="white"/>
<path d="M809.116 127.419C808.948 126.906 808.368 126.521 808.015 126.404C807.802 126.711 807.56 127.364 807.73 127.874C807.9 128.385 808.369 128.769 808.751 128.644C808.761 128.641 808.77 128.636 808.779 128.632C808.545 128.339 808.417 127.761 808.417 127.761C808.524 128.06 808.669 128.344 808.848 128.606C809.157 128.417 809.269 127.886 809.116 127.419Z" fill="white"/>
<path d="M805.84 130.301C805.605 130.272 805.377 130.203 805.167 130.095C805.388 130.176 805.618 130.227 805.853 130.249C805.896 129.983 805.645 129.671 805.306 129.536C804.935 129.39 804.441 129.54 804.209 129.687C804.285 129.947 804.544 130.392 804.912 130.542C805.28 130.692 805.724 130.599 805.833 130.322C805.835 130.314 805.839 130.307 805.84 130.301Z" fill="white"/>
<path d="M808.015 126.004L808.039 126C807.958 125.768 807.918 125.524 807.922 125.278C807.948 125.522 808.006 125.761 808.093 125.989C808.36 125.907 808.54 125.531 808.51 125.153C808.471 124.744 808.11 124.346 807.867 124.196C807.652 124.383 807.356 124.831 807.39 125.244C807.424 125.657 807.706 126.031 808.015 126.004Z" fill="white"/>
<path d="M804.653 126.586C804.659 126.58 804.664 126.575 804.669 126.569C804.461 126.438 804.277 126.272 804.127 126.078C804.299 126.252 804.493 126.402 804.704 126.526C804.862 126.295 804.766 125.889 804.508 125.614C804.222 125.313 803.691 125.234 803.407 125.268C803.357 125.551 803.406 126.084 803.691 126.386C803.976 126.687 804.427 126.798 804.653 126.586Z" fill="white"/>
<path d="M809.642 132.984C810.2 133.483 811.165 133.543 811.67 133.439C811.715 132.928 811.55 131.972 810.995 131.469C810.486 131.013 809.751 130.865 809.339 131.158C809.573 131.53 809.853 131.872 810.172 132.175C810.172 132.175 809.503 131.68 809.259 131.22C809.248 131.229 809.238 131.238 809.229 131.249C808.858 131.673 809.083 132.484 809.642 132.984Z" fill="white"/>
<path d="M812.26 131.854C812.527 132.135 812.828 132.38 813.158 132.583C813.158 132.583 812.498 132.276 812.207 131.923C812.199 131.933 812.192 131.944 812.186 131.956C811.944 132.383 812.275 133.035 812.842 133.366C813.41 133.697 814.25 133.581 814.666 133.402C814.617 132.951 814.305 132.163 813.738 131.831C813.22 131.528 812.559 131.527 812.26 131.854Z" fill="white"/>
<path d="M811.836 129.236C812.174 129.204 812.506 129.13 812.825 129.014C812.825 129.014 812.263 129.294 811.862 129.308L811.872 129.339C812.027 129.738 812.664 129.865 813.201 129.654C813.737 129.443 814.112 128.802 814.215 128.418C813.875 128.204 813.164 127.99 812.63 128.204C812.137 128.393 811.778 128.849 811.836 129.236Z" fill="white"/>
<path d="M811.481 134.81C811.255 134.334 810.777 134.006 810.398 134.097C810.452 134.432 810.549 134.759 810.687 135.069C810.687 135.069 810.36 134.519 810.325 134.12C810.315 134.124 810.304 134.128 810.294 134.133C809.906 134.318 809.825 134.959 810.071 135.48C810.317 136.001 810.985 136.331 811.371 136.41C811.564 136.054 811.729 135.329 811.481 134.81Z" fill="white"/>
<path d="M810.706 130.851C811.218 131.019 811.872 130.781 812.176 130.566C812.063 130.217 811.676 129.631 811.162 129.465C810.694 129.311 810.163 129.424 809.979 129.738C810.242 129.917 810.526 130.062 810.825 130.169C810.825 130.169 810.242 130.035 809.949 129.801C809.944 129.811 809.94 129.821 809.938 129.831C809.813 130.213 810.195 130.683 810.706 130.851Z" fill="white"/>
<path d="M809.044 133.274C808.912 132.935 808.598 132.685 808.331 132.727C808.353 132.962 808.404 133.192 808.485 133.413C808.378 133.203 808.308 132.975 808.28 132.74C808.273 132.742 808.266 132.745 808.259 132.748C807.981 132.856 807.895 133.297 808.038 133.668C808.182 134.038 808.628 134.3 808.895 134.372C809.041 134.139 809.189 133.645 809.044 133.274Z" fill="white"/>
<path d="M813.303 130.66C813.058 130.662 812.814 130.621 812.583 130.538L812.58 130.563C812.555 130.871 812.926 131.155 813.34 131.188C813.754 131.222 814.2 130.926 814.388 130.711C814.237 130.467 813.845 130.103 813.431 130.069C813.053 130.038 812.676 130.218 812.595 130.486C812.823 130.573 813.061 130.631 813.303 130.66Z" fill="white"/>
<path d="M812.973 134.072C812.696 133.812 812.29 133.716 812.06 133.875C812.184 134.086 812.334 134.28 812.508 134.452C812.314 134.301 812.147 134.117 812.017 133.909L812 133.926C811.787 134.15 811.9 134.603 812.202 134.889C812.504 135.175 813.037 135.223 813.319 135.172C813.348 134.891 813.266 134.365 812.973 134.072Z" fill="white"/>
<rect x="648.282" y="22.0389" width="147.325" height="234.557" rx="7.26934" transform="rotate(15 648.282 22.0389)" fill="black" stroke="white" stroke-width="0.969245"/>
<path d="M669.546 150.125L674.163 151.363L674.675 149.452L670.058 148.214L670.771 145.555L675.835 146.912L676.347 145.001L669.181 143.081L666.194 154.228L673.455 156.173L673.967 154.262L668.808 152.88L669.546 150.125Z" fill="white"/>
<path d="M682.144 146.554L677.557 145.325L677.062 147.173L678.529 147.566L676.533 155.018L675.068 154.625L674.573 156.473L679.157 157.701C680.654 158.102 681.893 158.028 682.872 157.478C683.851 156.928 684.545 155.905 684.954 154.407L685.517 152.305C685.918 150.808 685.83 149.576 685.253 148.608C684.675 147.64 683.639 146.956 682.144 146.554ZM682.835 153.914C682.619 154.719 682.255 155.293 681.742 155.634C681.229 155.974 680.551 156.03 679.707 155.8L678.656 155.519L680.619 148.194L681.67 148.475C682.512 148.701 683.072 149.087 683.35 149.633C683.627 150.18 683.655 150.861 683.434 151.678L682.835 153.914Z" fill="white"/>
<path d="M688.215 155.128L692.833 156.365L693.345 154.454L688.727 153.217L689.44 150.557L694.503 151.914L695.015 150.003L687.85 148.083L684.864 159.23L692.124 161.176L692.636 159.265L687.477 157.882L688.215 155.128Z" fill="white"/>
<path d="M700.062 161.766L699.775 161.689L700.164 151.382L696.166 150.311L693.179 161.458L695.251 162.013L697.854 152.3L698.139 152.376L697.75 162.683L701.748 163.754L704.734 152.607L702.664 152.052L700.062 161.766Z" fill="white"/>
<path d="M711.153 159.908C710.564 159.439 709.927 159.034 709.253 158.699L708.908 158.521C708.551 158.346 708.213 158.135 707.899 157.892C707.674 157.723 707.496 157.499 707.381 157.242C707.289 156.999 707.279 156.732 707.354 156.483C707.397 156.294 707.484 156.117 707.609 155.968C707.733 155.819 707.892 155.702 708.071 155.626C708.437 155.468 708.938 155.474 709.575 155.645C709.952 155.737 710.308 155.899 710.625 156.123C710.888 156.31 711.083 156.578 711.18 156.886C711.277 157.245 711.269 157.625 711.158 157.98L711.03 158.458L713.095 159.011L713.223 158.534C713.438 157.728 713.441 157.009 713.229 156.376C713.014 155.742 712.618 155.185 712.088 154.774C711.49 154.313 710.803 153.981 710.07 153.799C709.362 153.592 708.619 153.535 707.888 153.631C707.271 153.713 706.689 153.971 706.215 154.375C705.741 154.804 705.409 155.367 705.261 155.989C705.079 156.668 705.077 157.259 705.256 157.762C705.457 158.297 705.798 158.769 706.244 159.127C706.796 159.583 707.398 159.977 708.037 160.3L708.382 160.477C708.772 160.676 709.148 160.899 709.509 161.146C709.77 161.318 709.986 161.548 710.141 161.819C710.266 162.074 710.289 162.367 710.204 162.637C710.15 162.85 710.048 163.048 709.904 163.214C709.76 163.38 709.578 163.51 709.375 163.593C708.944 163.784 708.367 163.783 707.644 163.591C706.921 163.398 706.404 163.079 706.091 162.633C705.767 162.185 705.695 161.628 705.874 160.961L705.992 160.522L703.921 159.967L703.801 160.413C703.584 161.137 703.585 161.909 703.805 162.632C704.027 163.313 704.44 163.915 704.995 164.368C706.275 165.361 707.896 165.805 709.503 165.602C710.164 165.502 710.784 165.218 711.292 164.783C711.784 164.346 712.132 163.77 712.29 163.131C712.472 162.452 712.457 161.85 712.244 161.327C712.006 160.769 711.63 160.281 711.153 159.908Z" fill="white"/>
<path d="M720.533 162.192C720.016 161.788 719.42 161.497 718.783 161.338L717.907 161.103L717.949 160.944L723.239 159.102L723.623 157.668L715.979 155.62L715.74 156.512L722.398 158.296L722.355 158.455L717.009 160.317L716.65 161.655L718.292 162.094C718.788 162.222 719.258 162.437 719.678 162.73C720.055 162.988 720.349 163.349 720.526 163.769C720.696 164.176 720.707 164.657 720.558 165.211L720.532 165.307C720.451 165.654 720.297 165.979 720.081 166.262C719.865 166.546 719.592 166.78 719.28 166.951C718.644 167.305 717.867 167.358 716.949 167.111C716.032 166.865 715.368 166.411 714.96 165.751C714.534 165.085 714.443 164.301 714.684 163.399L714.77 163.078L713.784 162.814L713.703 163.117C713.486 163.924 713.474 164.657 713.666 165.318C713.854 165.971 714.229 166.555 714.745 166.997C715.312 167.477 715.982 167.82 716.703 168C717.407 168.206 718.15 168.248 718.873 168.121C719.501 168.009 720.084 167.72 720.552 167.286C721.024 166.828 721.358 166.246 721.513 165.607L721.557 165.444C721.742 164.754 721.737 164.136 721.543 163.588C721.345 163.037 720.995 162.552 720.533 162.192Z" fill="white"/>
<path d="M728.815 163.642C728.325 163.181 727.726 162.853 727.073 162.689C726.247 162.467 725.556 162.444 725.002 162.62C724.524 162.754 724.085 163.002 723.725 163.344L723.534 163.293L723.991 161.59C724.232 160.688 724.679 160.048 725.332 159.671C725.984 159.293 726.778 159.23 727.712 159.481C728.626 159.726 729.259 160.135 729.612 160.707C729.965 161.279 730.043 161.931 729.847 162.665L730.833 162.929C731.001 162.34 731.009 161.718 730.856 161.125C730.693 160.532 730.361 159.999 729.902 159.59C729.42 159.142 728.77 158.808 727.951 158.59C727.133 158.371 726.384 158.341 725.705 158.5C725.052 158.652 724.459 158.995 724 159.484C723.499 160.039 723.145 160.71 722.972 161.437L721.918 165.37C721.708 166.073 721.7 166.822 721.894 167.529C722.082 168.175 722.449 168.753 722.954 169.197C723.495 169.656 724.132 169.99 724.817 170.174C725.503 170.358 726.221 170.387 726.92 170.259C727.573 170.128 728.176 169.817 728.662 169.362C729.175 168.867 729.537 168.235 729.704 167.542L729.755 167.351C729.956 166.673 729.97 165.954 729.793 165.27C729.622 164.648 729.284 164.085 728.815 163.642ZM728.716 167.259C728.482 168.131 728.028 168.743 727.353 169.096C726.678 169.45 725.911 169.511 725.051 169.281C724.192 169.051 723.558 168.614 723.15 167.97C722.742 167.327 722.655 166.569 722.889 165.698L722.922 165.571C723.051 165.038 723.322 164.549 723.707 164.157C724.064 163.803 724.512 163.554 725.001 163.437C725.534 163.327 726.087 163.342 726.613 163.483C727.139 163.624 727.625 163.887 728.032 164.249C728.397 164.595 728.66 165.035 728.792 165.52C728.929 166.051 728.92 166.61 728.765 167.137L728.716 167.259Z" fill="white"/>
<path d="M738.864 162.734C738.34 161.781 737.451 161.137 736.198 160.801C734.946 160.465 733.854 160.579 732.925 161.142C731.994 161.705 731.328 162.735 730.927 164.233L730.244 166.782C729.843 168.278 729.905 169.503 730.428 170.458C730.952 171.412 731.841 172.056 733.093 172.39C734.346 172.726 735.438 172.612 736.368 172.049C737.299 171.486 737.964 170.456 738.365 168.958L739.048 166.409C739.449 164.913 739.388 163.688 738.864 162.734ZM737.362 168.757C737.063 169.872 736.571 170.676 735.887 171.169C735.202 171.662 734.351 171.772 733.332 171.5C732.312 171.226 731.63 170.705 731.284 169.936C730.939 169.166 730.916 168.224 731.215 167.11L731.931 164.435C732.23 163.32 732.721 162.516 733.405 162.022C734.089 161.528 734.94 161.418 735.96 161.691C736.979 161.964 737.661 162.486 738.007 163.255C738.353 164.025 738.377 164.967 738.078 166.082L737.362 168.757Z" fill="white"/>
<path d="M653.253 133.28C651.673 132.858 650.018 132.789 648.408 133.08C646.798 133.37 645.272 134.013 643.938 134.962C642.605 135.91 641.498 137.142 640.696 138.568C639.893 139.994 639.416 141.579 639.297 143.211C639.179 144.843 639.422 146.481 640.009 148.008C640.597 149.535 641.515 150.914 642.696 152.045C643.878 153.177 645.296 154.034 646.847 154.554C648.398 155.074 650.045 155.246 651.67 155.056C651.726 155.051 651.779 155.044 651.833 155.036C654.383 154.701 656.737 153.491 658.495 151.614C660.253 149.736 661.305 147.308 661.473 144.741C661.64 142.175 660.913 139.63 659.414 137.54C657.915 135.45 655.738 133.945 653.253 133.28ZM649.39 153.633C649.255 153.609 649.123 153.573 648.994 153.527L648.907 153.504C648.856 153.488 648.811 153.456 648.78 153.413C648.749 153.369 648.734 153.316 648.737 153.263C648.786 152.575 649.703 148.649 649.787 148.474C649.931 148.191 651.305 145.644 651.28 145.354L651.253 145.076L651.159 145.341C651.112 145.47 650.436 145.875 650.3 145.854C650.281 145.849 650.277 145.799 650.275 145.784L650.279 145.77L650.271 145.755C650.197 145.627 650.515 145.063 650.724 144.69C651.011 144.18 651.105 143.994 651.047 143.9C651.036 143.885 651.022 143.873 651.006 143.866C650.989 143.858 650.971 143.855 650.953 143.857L650.897 143.862L650.895 143.916C650.842 144.131 650.72 144.321 650.547 144.458C650.527 144.475 650.503 144.488 650.478 144.495C650.453 144.503 650.426 144.504 650.4 144.5C650.268 144.366 650.827 142.691 651.158 142.109L651.171 142.063L651.141 142.029C651.122 142.007 651.098 141.99 651.071 141.98C651.044 141.97 651.015 141.968 650.987 141.973C650.72 142.018 650.385 142.759 650.067 143.501C650.032 143.58 649.998 143.661 649.971 143.722C649.881 143.554 649.775 143.398 649.66 143.367C649.632 143.363 649.604 143.366 649.578 143.376C649.551 143.386 649.528 143.402 649.51 143.423L649.476 143.459L649.501 143.5C649.815 144.007 649.329 145.596 649.11 146.224C649.075 145.848 648.994 145.252 648.858 145.142C648.841 145.128 648.82 145.119 648.798 145.117C648.776 145.115 648.754 145.119 648.734 145.13L648.627 145.182L648.731 145.237C648.821 145.334 648.755 146.359 648.439 147.808C648.089 149.401 647.25 152.215 647.109 152.54C647.016 152.69 646.914 152.834 646.802 152.971C646.78 152.999 646.761 153.023 646.747 153.043C646.659 153.014 646.575 152.973 646.499 152.921C646.376 152.842 646.236 152.791 646.09 152.773C645.945 152.755 645.797 152.77 645.658 152.817C644.003 151.927 642.633 150.589 641.704 148.957C640.775 147.324 640.325 145.463 640.405 143.586C640.486 141.709 641.093 139.893 642.158 138.346C643.224 136.798 644.703 135.582 646.427 134.837C648.152 134.092 650.051 133.848 651.908 134.133C653.765 134.418 655.504 135.22 656.926 136.448C658.347 137.675 659.394 139.279 659.947 141.074C660.499 142.87 660.534 144.785 660.048 146.599C659.469 148.792 658.153 150.718 656.322 152.055C654.532 153.372 652.357 154.06 650.135 154.01C650.105 153.968 650.073 153.926 650.034 153.884C649.849 153.669 649.691 153.526 649.39 153.633Z" fill="white"/>
<path d="M651.812 138.579C651.33 138.769 650.557 139.348 650.363 140.07C650.169 140.793 650.425 141.592 650.966 141.737L651.006 141.748C650.958 141.231 651.245 140.458 651.245 140.458C651.141 140.889 651.093 141.331 651.102 141.773C651.606 141.797 652.141 141.267 652.317 140.61C652.514 139.872 652.131 138.983 651.812 138.579Z" fill="white"/>
<path d="M647.802 143.315C648.224 143.44 648.659 143.511 649.099 143.527C649.153 143.027 648.653 142.471 648.007 142.252C647.295 142.018 646.387 142.348 645.964 142.652C646.126 143.142 646.662 143.948 647.373 144.182C648.085 144.416 648.9 144.199 649.075 143.667C649.079 143.653 649.082 143.639 649.086 143.627C648.565 143.647 647.802 143.315 647.802 143.315Z" fill="white"/>
<path d="M645.44 141.595C646.011 141.921 646.748 141.883 646.992 141.459C646.995 141.446 646.998 141.435 647.009 141.424C646.558 141.349 645.961 140.931 645.961 140.931C646.302 141.114 646.665 141.253 647.041 141.343C647.175 140.922 646.845 140.343 646.322 140.051C645.751 139.727 644.913 139.851 644.498 140.034C644.555 140.485 644.87 141.269 645.44 141.595Z" fill="white"/>
<path d="M649.417 140.423L649.45 140.417C649.257 140.061 649.22 139.428 649.22 139.428C649.278 139.765 649.38 140.092 649.522 140.403C649.883 140.265 650.098 139.726 650.02 139.205C649.934 138.641 649.394 138.127 649.043 137.941C648.761 138.221 648.389 138.866 648.478 139.437C648.568 140.008 648.993 140.488 649.417 140.423Z" fill="white"/>
<path d="M646.048 144.15C645.683 144.323 645.044 144.311 645.044 144.311C645.382 144.273 645.714 144.192 646.031 144.07C645.919 143.698 645.396 143.449 644.871 143.488C644.297 143.533 643.752 144.038 643.542 144.376C643.803 144.676 644.422 145.087 644.997 145.037C645.573 144.986 646.087 144.599 646.053 144.17L646.048 144.15Z" fill="white"/>
<path d="M649.66 141.1C649.258 140.741 648.563 140.697 648.199 140.772C648.168 141.144 648.285 141.831 648.687 142.188C649.09 142.545 649.688 142.643 649.956 142.344C649.963 142.336 649.969 142.328 649.975 142.319C649.626 142.182 649.225 141.746 649.225 141.746C649.468 141.951 649.735 142.125 650.021 142.262C650.194 141.944 650.026 141.428 649.66 141.1Z" fill="white"/>
<path d="M648.264 145.234C648.046 145.326 647.814 145.38 647.578 145.393C647.81 145.352 648.035 145.281 648.249 145.182C648.154 144.931 647.78 144.786 647.419 144.838C647.024 144.898 646.672 145.274 646.544 145.518C646.74 145.705 647.188 145.961 647.581 145.906C647.975 145.852 648.313 145.55 648.269 145.255C648.266 145.248 648.266 145.24 648.264 145.234Z" fill="white"/>
<path d="M648 140.425L648.019 140.41C647.832 140.25 647.675 140.058 647.556 139.843C647.7 140.041 647.87 140.219 648.059 140.373C648.25 140.169 648.218 139.753 648.002 139.44C647.764 139.106 647.253 138.942 646.967 138.933C646.875 139.203 646.842 139.739 647.078 140.079C647.315 140.42 647.745 140.603 648 140.425Z" fill="white"/>
<path d="M645.378 142.61C645.381 142.603 645.383 142.595 645.384 142.587C645.139 142.578 644.896 142.526 644.669 142.433C644.905 142.498 645.149 142.531 645.394 142.533C645.414 142.254 645.129 141.95 644.767 141.841C644.369 141.724 643.87 141.92 643.641 142.092C643.739 142.362 644.048 142.799 644.446 142.918C644.843 143.036 645.289 142.907 645.378 142.61Z" fill="white"/>
<path d="M652.898 145.656C653.631 145.81 654.496 145.379 654.882 145.036C654.665 144.572 654.045 143.826 653.313 143.668C652.644 143.528 651.933 143.767 651.723 144.226C652.112 144.432 652.525 144.588 652.952 144.691C652.952 144.691 652.126 144.597 651.684 144.32C651.679 144.333 651.676 144.347 651.673 144.36C651.563 144.913 652.165 145.503 652.898 145.656Z" fill="white"/>
<path d="M654.6 143.369C654.972 143.479 655.356 143.54 655.743 143.552C655.743 143.552 655.017 143.616 654.589 143.455C654.587 143.468 654.587 143.481 654.587 143.494C654.591 143.985 655.204 144.385 655.861 144.387C656.518 144.39 657.187 143.87 657.458 143.506C657.19 143.141 656.526 142.614 655.869 142.61C655.269 142.607 654.696 142.937 654.6 143.369Z" fill="white"/>
<path d="M652.924 141.314C653.201 141.118 653.451 140.887 653.67 140.627C653.67 140.627 653.323 141.15 652.982 141.364L653.007 141.385C653.341 141.653 653.956 141.444 654.315 140.994C654.674 140.543 654.678 139.8 654.575 139.416C654.173 139.4 653.451 139.571 653.095 140.023C652.763 140.433 652.68 141.008 652.924 141.314Z" fill="white"/>
<path d="M655.403 146.318C654.97 146.02 654.392 145.974 654.109 146.242C654.324 146.506 654.571 146.74 654.845 146.941C654.845 146.941 654.288 146.627 654.058 146.299C654.05 146.308 654.043 146.317 654.037 146.326C653.793 146.68 654.044 147.275 654.517 147.604C654.991 147.933 655.734 147.884 656.108 147.759C656.098 147.355 655.878 146.645 655.403 146.318Z" fill="white"/>
<path d="M652.753 143.277C653.281 143.167 653.728 142.634 653.884 142.295C653.611 142.049 652.983 141.736 652.455 141.849C651.973 141.95 651.57 142.313 651.567 142.676C651.884 142.7 652.203 142.684 652.516 142.627C652.516 142.627 651.943 142.803 651.573 142.747C651.574 142.757 651.575 142.768 651.578 142.778C651.661 143.171 652.227 143.388 652.753 143.277Z" fill="white"/>
<path d="M652.525 146.206C652.241 145.979 651.844 145.92 651.635 146.09C651.77 146.282 651.93 146.456 652.111 146.607C651.913 146.478 651.738 146.316 651.596 146.127C651.591 146.132 651.586 146.137 651.583 146.143C651.396 146.376 651.542 146.801 651.851 147.05C652.161 147.3 652.678 147.303 652.945 147.233C652.955 146.958 652.836 146.455 652.525 146.206Z" fill="white"/>
<path d="M654.906 141.813C654.695 141.937 654.463 142.024 654.222 142.068L654.232 142.091C654.364 142.37 654.827 142.431 655.203 142.252C655.578 142.074 655.816 141.595 655.872 141.315C655.619 141.179 655.097 141.06 654.722 141.237C654.379 141.4 654.142 141.744 654.206 142.016C654.447 141.978 654.682 141.91 654.906 141.813Z" fill="white"/>
<path d="M656.326 144.933C655.957 144.846 655.557 144.966 655.438 145.219C655.65 145.34 655.877 145.432 656.114 145.495C655.87 145.461 655.634 145.385 655.417 145.27L655.411 145.293C655.338 145.594 655.663 145.93 656.067 146.026C656.472 146.123 656.957 145.898 657.176 145.713C657.061 145.455 656.727 145.04 656.326 144.933Z" fill="white"/>
<g clip-path="url(#clip0_980_51208)">
<path d="M744.712 98.4583C744.492 98.3258 744.327 97.9781 744.349 97.6943C744.363 97.5095 744.436 97.3982 744.819 96.978C746.366 95.2799 747.295 93.5846 747.885 91.3829C748.455 89.255 748.506 87.4944 748.064 85.2491C747.969 84.7671 747.904 84.3257 747.919 84.2686C747.976 84.0574 748.235 83.7986 748.458 83.7298C748.764 83.6354 749.196 83.784 749.353 84.038C749.414 84.1356 749.532 84.537 749.615 84.9296C749.945 86.4848 750.02 88.1142 749.837 89.7401C749.724 90.7463 749.262 92.587 748.908 93.4412C748.256 95.0168 747.434 96.3586 746.361 97.6013C745.713 98.3525 745.356 98.6373 745.137 98.5786C745.093 98.5668 745.018 98.5586 744.971 98.5603C744.924 98.5618 744.807 98.516 744.712 98.4583ZM742.273 96.2146C741.937 96.0106 741.793 95.4925 741.989 95.1854C742.036 95.1111 742.308 94.7831 742.593 94.4565C743.8 93.074 744.582 91.4548 744.872 89.737C745.11 88.3255 745.096 87.3913 744.815 85.9546C744.626 84.9907 744.642 84.8535 744.976 84.5753C745.294 84.3109 745.884 84.4121 746.112 84.7703C746.27 85.0186 746.557 86.5536 746.602 87.3915C746.751 90.1643 745.89 92.8675 744.152 95.0867C743.262 96.2234 742.773 96.5174 742.273 96.2146ZM739.751 93.9261C739.553 93.7641 739.423 93.4737 739.435 93.2193C739.442 93.0643 739.54 92.9173 739.953 92.4473C741.469 90.721 741.993 88.8075 741.553 86.6068C741.36 85.6403 741.396 85.468 741.843 85.227C742.063 85.1081 742.146 85.0988 742.393 85.165C742.808 85.2762 742.967 85.5422 743.134 86.4029C743.39 87.7266 743.351 88.805 743.001 90.1061C742.64 91.4433 742.176 92.3033 741.236 93.3749C740.698 93.9885 740.475 94.1289 740.113 94.0833C740.003 94.0694 739.84 93.9986 739.751 93.9261ZM737.398 91.7932C737.239 91.6714 737.1 91.3738 737.096 91.1463C737.092 90.892 737.197 90.7195 737.584 90.3505C738.08 89.8759 738.242 89.5932 738.441 88.8522C738.639 88.1113 738.64 87.7855 738.448 87.1261C738.382 86.9026 738.327 86.6408 738.324 86.5444C738.313 86.141 738.747 85.7665 739.186 85.8001C739.559 85.8285 739.76 86.052 739.949 86.6482C740.498 88.3743 739.971 90.3423 738.635 91.55C738.164 91.9762 737.744 92.0588 737.398 91.7932Z" fill="white"/>
</g>
<rect x="735.662" y="72.2939" width="30.0466" height="21.3234" rx="3.63467" transform="rotate(105 735.662 72.2939)" fill="url(#paint0_linear_980_51208)" stroke="#47453F" stroke-width="0.484622"/>
<path fill-rule="evenodd" clip-rule="evenodd" d="M733.023 82.8023L727.891 85.7653L730.854 90.8973L730.435 91.1396L727.401 85.8847L724.923 85.2208C724.794 85.1861 724.717 85.0533 724.752 84.924L725.818 80.945L719.265 79.189L718.198 83.1679L717.132 87.1468L723.92 88.9655C724.049 89.0002 724.126 89.133 724.091 89.2623L721.269 99.7948L720.801 99.6693L723.561 89.3709L717.007 87.6149L714.247 97.9134L713.779 97.7879L717.668 83.2765L715.424 82.6754L710.169 85.7093L709.927 85.2896L715.059 82.3267L712.096 77.1947L712.516 76.9523L715.549 82.2073L717.793 82.8084L721.681 68.2971L722.149 68.4225L719.39 78.7209L725.943 80.4769L728.703 70.1786L729.171 70.304L726.412 80.6023L726.412 80.6024L726.286 81.0705L726.286 81.0704L725.283 84.8154L727.526 85.4165L732.781 82.3826L733.023 82.8023Z" fill="#47453F"/>
<rect x="129.928" y="51.613" width="148.294" height="235.526" rx="7.75396" transform="rotate(-15 129.928 51.613)" fill="white"/>
<path d="M212.885 152.276L217.502 151.039L216.99 149.128L212.373 150.365L211.66 147.705L216.724 146.348L216.212 144.437L209.046 146.357L212.033 157.505L219.294 155.559L218.782 153.648L213.623 155.03L212.885 152.276Z" fill="#002026"/>
<path d="M222.009 142.884L217.422 144.113L217.917 145.961L219.385 145.568L221.381 153.019L219.916 153.412L220.412 155.259L224.996 154.031C226.493 153.63 227.528 152.946 228.102 151.981C228.675 151.015 228.764 149.781 228.369 148.28L227.806 146.178C227.405 144.681 226.712 143.658 225.728 143.108C224.745 142.559 223.505 142.484 222.009 142.884ZM226.287 148.912C226.503 149.718 226.474 150.397 226.201 150.948C225.927 151.5 225.367 151.887 224.522 152.11L223.471 152.392L221.508 145.066L222.559 144.785C223.401 144.559 224.079 144.613 224.593 144.948C225.107 145.282 225.472 145.858 225.688 146.677L226.287 148.912Z" fill="#002026"/>
<path d="M231.554 147.273L236.171 146.036L235.659 144.125L231.042 145.363L230.329 142.703L235.393 141.346L234.881 139.435L227.716 141.355L230.702 152.502L237.963 150.557L237.451 148.646L232.292 150.028L231.554 147.273Z" fill="#002026"/>
<path d="M245.132 147.099L244.845 147.176L240.028 138.056L236.031 139.127L239.018 150.274L241.089 149.719L238.486 140.005L238.772 139.929L243.589 149.049L247.586 147.978L244.599 136.831L242.529 137.386L245.132 147.099Z" fill="#002026"/>
<path d="M253.809 139.944C253.064 139.833 252.31 139.801 251.559 139.847L251.171 139.866C250.775 139.893 250.376 139.879 249.983 139.826C249.703 139.792 249.437 139.687 249.209 139.521C249.008 139.357 248.866 139.131 248.807 138.878C248.749 138.692 248.736 138.496 248.77 138.304C248.803 138.113 248.882 137.932 248.999 137.777C249.237 137.457 249.674 137.212 250.311 137.041C250.684 136.933 251.073 136.895 251.459 136.93C251.78 136.961 252.083 137.096 252.321 137.313C252.585 137.577 252.768 137.909 252.849 138.273L252.977 138.75L255.042 138.197L254.914 137.719C254.698 136.914 254.341 136.29 253.841 135.848C253.338 135.406 252.716 135.121 252.052 135.03C251.303 134.93 250.542 134.986 249.817 135.195C249.1 135.37 248.428 135.692 247.843 136.14C247.349 136.52 246.975 137.035 246.766 137.622C246.57 138.23 246.564 138.884 246.747 139.496C246.929 140.176 247.223 140.688 247.629 141.034C248.071 141.397 248.602 141.635 249.167 141.723C249.874 141.842 250.591 141.881 251.306 141.841L251.694 141.823C252.131 141.8 252.568 141.805 253.004 141.838C253.316 141.857 253.619 141.948 253.888 142.105C254.124 142.263 254.29 142.506 254.351 142.783C254.412 142.994 254.422 143.216 254.38 143.432C254.338 143.648 254.246 143.851 254.111 144.024C253.834 144.406 253.334 144.694 252.611 144.888C251.889 145.082 251.281 145.065 250.787 144.835C250.283 144.609 249.942 144.163 249.764 143.496L249.646 143.056L247.575 143.611L247.694 144.057C247.868 144.793 248.256 145.461 248.807 145.978C249.34 146.456 249.999 146.771 250.706 146.886C252.311 147.106 253.937 146.68 255.227 145.701C255.749 145.283 256.144 144.728 256.367 144.097C256.575 143.472 256.588 142.799 256.405 142.167C256.223 141.488 255.909 140.974 255.463 140.627C254.978 140.264 254.409 140.029 253.809 139.944Z" fill="#002026"/>
<path d="M263.074 137.232C262.424 137.141 261.762 137.187 261.132 137.368L260.255 137.603L260.212 137.443L263.872 133.203L263.488 131.77L255.845 133.818L256.084 134.709L262.741 132.926L262.783 133.085L259.084 137.371L259.443 138.708L261.085 138.268C261.578 138.13 262.092 138.082 262.603 138.125C263.058 138.161 263.493 138.326 263.857 138.602C264.207 138.869 264.457 139.28 264.605 139.835L264.631 139.931C264.734 140.272 264.763 140.63 264.718 140.983C264.673 141.336 264.553 141.676 264.368 141.98C263.994 142.605 263.348 143.039 262.43 143.285C261.512 143.53 260.711 143.469 260.027 143.101C259.326 142.737 258.854 142.104 258.612 141.202L258.526 140.881L257.54 141.146L257.621 141.449C257.837 142.255 258.194 142.897 258.69 143.373C259.179 143.845 259.796 144.163 260.464 144.288C261.195 144.42 261.947 144.382 262.661 144.177C263.374 144.004 264.038 143.668 264.601 143.197C265.089 142.786 265.449 142.244 265.637 141.635C265.818 141.002 265.815 140.331 265.631 139.699L265.587 139.536C265.402 138.847 265.089 138.314 264.646 137.937C264.2 137.558 263.654 137.313 263.074 137.232Z" fill="#002026"/>
<path d="M270.972 134.347C270.317 134.193 269.634 134.208 268.987 134.392C268.16 134.614 267.551 134.939 267.159 135.368C266.811 135.723 266.556 136.158 266.415 136.634L266.224 136.685L265.768 134.982C265.526 134.08 265.593 133.302 265.97 132.649C266.346 131.996 267.002 131.545 267.937 131.295C268.85 131.05 269.603 131.087 270.195 131.406C270.786 131.725 271.18 132.251 271.377 132.985L272.363 132.72C272.214 132.127 271.91 131.584 271.481 131.147C271.043 130.715 270.49 130.419 269.887 130.295C269.246 130.147 268.516 130.183 267.698 130.403C266.88 130.624 266.216 130.972 265.708 131.448C265.218 131.907 264.876 132.501 264.723 133.154C264.567 133.884 264.596 134.643 264.809 135.359L265.863 139.292C266.033 140.006 266.4 140.658 266.922 141.174C267.407 141.639 268.015 141.956 268.674 142.088C269.372 142.215 270.09 142.186 270.776 142.003C271.462 141.819 272.098 141.485 272.639 141.025C273.139 140.585 273.506 140.014 273.699 139.377C273.896 138.691 273.894 137.964 273.692 137.279L273.641 137.089C273.476 136.401 273.128 135.772 272.633 135.267C272.174 134.814 271.599 134.496 270.972 134.347ZM272.695 137.529C272.928 138.4 272.841 139.158 272.433 139.801C272.025 140.445 271.392 140.882 270.532 141.112C269.672 141.343 268.905 141.281 268.23 140.928C267.555 140.574 267.101 139.962 266.867 139.09L266.833 138.964C266.678 138.437 266.669 137.879 266.806 137.347C266.939 136.862 267.202 136.422 267.566 136.077C267.973 135.714 268.459 135.452 268.986 135.311C269.512 135.17 270.064 135.154 270.598 135.264C271.087 135.382 271.534 135.631 271.891 135.985C272.276 136.376 272.547 136.865 272.676 137.399L272.695 137.529Z" fill="#002026"/>
<path d="M279.22 128.536C278.29 127.973 277.198 127.859 275.945 128.195C274.692 128.531 273.804 129.175 273.28 130.127C272.756 131.08 272.694 132.305 273.096 133.803L273.779 136.352C274.18 137.848 274.846 138.878 275.776 139.443C276.707 140.008 277.799 140.121 279.05 139.784C280.303 139.448 281.192 138.804 281.716 137.851C282.241 136.899 282.302 135.674 281.9 134.176L281.217 131.627C280.816 130.131 280.15 129.1 279.22 128.536ZM280.93 134.503C281.229 135.619 281.205 136.561 280.859 137.33C280.513 138.099 279.83 138.62 278.812 138.894C277.792 139.167 276.94 139.057 276.257 138.563C275.573 138.069 275.082 137.265 274.783 136.15L274.066 133.475C273.768 132.361 273.791 131.419 274.136 130.649C274.482 129.88 275.164 129.359 276.184 129.085C277.202 128.812 278.054 128.923 278.739 129.416C279.423 129.909 279.915 130.714 280.213 131.828L280.93 134.503Z" fill="#002026"/>
<path d="M190.353 145.834C188.772 146.258 187.305 147.026 186.056 148.083C184.807 149.14 183.806 150.459 183.126 151.947C182.446 153.436 182.103 155.056 182.121 156.692C182.139 158.328 182.518 159.94 183.232 161.412C183.945 162.885 184.974 164.182 186.247 165.211C187.519 166.239 189.003 166.974 190.592 167.363C192.182 167.752 193.837 167.785 195.441 167.461C197.045 167.136 198.557 166.461 199.87 165.484C199.915 165.451 199.958 165.418 200 165.385C202.04 163.82 203.475 161.595 204.058 159.09C204.642 156.586 204.339 153.956 203.201 151.65C202.063 149.343 200.16 147.503 197.817 146.443C195.475 145.382 192.836 145.167 190.353 145.834ZM197.183 165.391C197.055 165.438 196.922 165.473 196.787 165.498L196.7 165.521C196.648 165.533 196.593 165.528 196.545 165.506C196.496 165.483 196.457 165.445 196.433 165.398C196.131 164.777 194.962 160.919 194.948 160.725C194.931 160.408 194.847 157.515 194.68 157.277L194.518 157.05L194.569 157.326C194.593 157.461 194.21 158.15 194.081 158.199C194.062 158.204 194.034 158.163 194.025 158.151L194.021 158.137L194.007 158.129C193.879 158.055 193.872 157.407 193.867 156.979C193.86 156.395 193.849 156.186 193.751 156.134C193.735 156.126 193.717 156.123 193.699 156.125C193.68 156.127 193.663 156.133 193.648 156.144L193.603 156.175L193.628 156.224C193.689 156.436 193.679 156.662 193.597 156.867C193.589 156.892 193.575 156.915 193.556 156.934C193.538 156.953 193.516 156.967 193.491 156.977C193.31 156.927 192.956 155.197 192.953 154.527L192.94 154.481L192.897 154.467C192.87 154.457 192.841 154.454 192.812 154.459C192.784 154.464 192.758 154.476 192.736 154.495C192.527 154.667 192.607 155.477 192.703 156.278C192.712 156.364 192.724 156.451 192.731 156.517C192.568 156.417 192.399 156.335 192.284 156.366C192.258 156.377 192.235 156.393 192.217 156.415C192.199 156.436 192.187 156.462 192.182 156.49L192.17 156.538L192.213 156.56C192.738 156.843 193.112 158.462 193.236 159.115C193.018 158.807 192.649 158.331 192.477 158.304C192.455 158.301 192.433 158.303 192.412 158.312C192.392 158.321 192.375 158.336 192.363 158.355L192.297 158.454L192.414 158.45C192.541 158.489 192.996 159.409 193.447 160.822C193.94 162.377 194.621 165.233 194.661 165.585C194.656 165.762 194.639 165.938 194.611 166.112C194.606 166.147 194.602 166.178 194.599 166.202C194.508 166.221 194.415 166.228 194.323 166.22C194.177 166.213 194.03 166.239 193.895 166.297C193.76 166.354 193.64 166.441 193.543 166.551C191.665 166.608 189.81 166.134 188.189 165.185C186.568 164.235 185.247 162.848 184.379 161.183C183.51 159.517 183.128 157.641 183.277 155.768C183.425 153.895 184.099 152.103 185.219 150.595C186.34 149.088 187.863 147.926 189.614 147.245C191.364 146.563 193.271 146.388 195.116 146.741C196.961 147.093 198.67 147.958 200.046 149.237C201.422 150.516 202.41 152.156 202.896 153.971C203.491 156.159 203.315 158.485 202.397 160.559C201.506 162.595 199.966 164.278 198.017 165.345C197.97 165.324 197.921 165.303 197.866 165.287C197.599 165.193 197.39 165.148 197.183 165.391Z" fill="#002026"/>
<path d="M191.754 151.144C191.431 151.548 191.051 152.437 191.244 153.159C191.438 153.881 192.059 154.446 192.6 154.301L192.64 154.29C192.34 153.867 192.202 153.054 192.202 153.054C192.327 153.479 192.507 153.886 192.736 154.265C193.184 154.033 193.382 153.306 193.206 152.65C193.008 151.912 192.232 151.334 191.754 151.144Z" fill="#002026"/>
<path d="M190.649 157.25C191.076 157.147 191.489 156.991 191.878 156.785C191.675 156.325 190.964 156.093 190.295 156.226C189.561 156.38 188.94 157.12 188.725 157.595C189.111 157.938 189.978 158.368 190.711 158.214C191.444 158.061 192.042 157.467 191.927 156.918C191.923 156.904 191.92 156.89 191.916 156.878C191.475 157.156 190.649 157.25 190.649 157.25Z" fill="#002026"/>
<path d="M187.744 156.941C188.401 156.938 189.02 156.537 189.019 156.047C189.015 156.034 189.012 156.023 189.017 156.008C188.589 156.169 187.862 156.105 187.862 156.105C188.249 156.094 188.633 156.032 189.004 155.922C188.909 155.49 188.334 155.154 187.736 155.163C187.079 155.167 186.415 155.694 186.147 156.06C186.421 156.422 187.086 156.944 187.744 156.941Z" fill="#002026"/>
<path d="M190.602 153.938L190.627 153.916C190.282 153.704 189.933 153.175 189.933 153.175C190.152 153.437 190.404 153.669 190.682 153.867C190.926 153.568 190.843 152.993 190.515 152.582C190.158 152.136 189.433 151.96 189.036 151.975C188.932 152.359 188.932 153.103 189.295 153.553C189.658 154.002 190.266 154.206 190.602 153.938Z" fill="#002026"/>
<path d="M189.547 158.85C189.317 159.182 188.758 159.492 188.758 159.492C189.032 159.29 189.278 159.053 189.492 158.789C189.209 158.523 188.631 158.569 188.196 158.865C187.722 159.191 187.502 159.901 187.489 160.299C187.865 160.428 188.607 160.474 189.08 160.143C189.553 159.812 189.805 159.219 189.561 158.865L189.547 158.85Z" fill="#002026"/>
<path d="M191.15 154.403C190.622 154.292 189.999 154.602 189.721 154.849C189.881 155.187 190.325 155.723 190.852 155.831C191.379 155.939 191.946 155.725 192.028 155.331C192.031 155.321 192.032 155.311 192.032 155.301C191.662 155.357 191.097 155.179 191.097 155.179C191.409 155.236 191.728 155.252 192.044 155.228C192.035 154.867 191.632 154.504 191.15 154.403Z" fill="#002026"/>
<path d="M192.008 158.681C191.866 158.87 191.692 159.032 191.494 159.161C191.674 159.01 191.834 158.836 191.97 158.644C191.762 158.473 191.365 158.535 191.079 158.76C190.767 159.009 190.65 159.512 190.661 159.786C190.925 159.851 191.44 159.848 191.753 159.604C192.067 159.361 192.209 158.93 192.023 158.697C192.018 158.692 192.013 158.685 192.008 158.681Z" fill="#002026"/>
<path d="M189.375 154.648L189.383 154.625C189.142 154.58 188.91 154.492 188.699 154.366C188.923 154.465 189.159 154.535 189.401 154.573C189.463 154.301 189.227 153.957 188.884 153.794C188.511 153.623 187.986 153.737 187.734 153.872C187.789 154.152 188.029 154.632 188.404 154.809C188.779 154.986 189.243 154.93 189.375 154.648Z" fill="#002026"/>
<path d="M188.197 157.851C188.196 157.843 188.194 157.836 188.191 157.828C187.974 157.944 187.738 158.02 187.494 158.053C187.731 157.99 187.959 157.898 188.172 157.777C188.05 157.525 187.651 157.405 187.283 157.491C186.88 157.588 186.546 158.008 186.433 158.271C186.653 158.456 187.14 158.68 187.543 158.584C187.947 158.488 188.268 158.153 188.197 157.851Z" fill="#002026"/>
<path d="M196.233 156.729C196.944 156.496 197.478 155.69 197.641 155.2C197.221 154.907 196.311 154.571 195.598 154.8C194.948 155.013 194.452 155.575 194.5 156.078C194.939 156.062 195.375 155.991 195.797 155.866C195.797 155.866 195.034 156.198 194.513 156.179C194.516 156.193 194.519 156.206 194.524 156.219C194.705 156.753 195.521 156.963 196.233 156.729Z" fill="#002026"/>
<path d="M196.563 153.897C196.94 153.807 197.303 153.668 197.644 153.484C197.644 153.484 197.048 153.902 196.597 153.977C196.602 153.989 196.607 154.001 196.614 154.012C196.863 154.435 197.594 154.475 198.164 154.149C198.735 153.823 199.054 153.037 199.107 152.587C198.692 152.405 197.853 152.28 197.282 152.605C196.761 152.903 196.43 153.475 196.563 153.897Z" fill="#002026"/>
<path d="M194.084 152.956C194.225 152.647 194.327 152.322 194.387 151.988C194.387 151.988 194.347 152.615 194.159 152.969L194.191 152.976C194.615 153.041 195.043 152.553 195.128 151.983C195.214 151.413 194.846 150.767 194.565 150.486C194.209 150.674 193.669 151.183 193.587 151.752C193.504 152.273 193.719 152.813 194.084 152.956Z" fill="#002026"/>
<path d="M198.733 156.05C198.209 156.008 197.686 156.258 197.574 156.631C197.892 156.752 198.223 156.831 198.561 156.868C198.561 156.868 197.921 156.875 197.558 156.706C197.556 156.717 197.554 156.728 197.553 156.74C197.519 157.168 198.034 157.558 198.609 157.606C199.183 157.654 199.802 157.24 200.064 156.945C199.852 156.6 199.307 156.095 198.733 156.05Z" fill="#002026"/>
<path d="M194.917 154.742C195.319 154.382 195.44 153.697 195.406 153.326C195.047 153.249 194.346 153.292 193.945 153.654C193.578 153.982 193.411 154.498 193.59 154.814C193.877 154.677 194.144 154.503 194.387 154.298C194.387 154.298 193.979 154.736 193.63 154.873C193.636 154.881 193.643 154.889 193.65 154.897C193.918 155.196 194.517 155.101 194.917 154.742Z" fill="#002026"/>
<path d="M196.185 157.392C195.825 157.337 195.452 157.484 195.356 157.736C195.569 157.835 195.795 157.905 196.027 157.946C195.791 157.934 195.559 157.88 195.341 157.787C195.339 157.794 195.338 157.801 195.337 157.809C195.292 158.104 195.631 158.399 196.023 158.46C196.416 158.521 196.866 158.265 197.062 158.071C196.933 157.828 196.579 157.452 196.185 157.392Z" fill="#002026"/>
<path d="M196.05 152.397C195.929 152.61 195.772 152.801 195.585 152.96L195.605 152.975C195.859 153.15 196.291 152.971 196.527 152.629C196.762 152.287 196.729 151.753 196.638 151.482C196.35 151.492 195.839 151.649 195.603 151.99C195.387 152.302 195.354 152.718 195.545 152.923C195.735 152.769 195.904 152.592 196.05 152.397Z" fill="#002026"/>
<path d="M198.84 154.389C198.477 154.498 198.191 154.803 198.214 155.081C198.458 155.079 198.701 155.046 198.937 154.982C198.709 155.074 198.467 155.126 198.222 155.135L198.228 155.158C198.315 155.455 198.764 155.584 199.163 155.465C199.561 155.346 199.869 154.909 199.966 154.639C199.738 154.473 199.241 154.281 198.84 154.389Z" fill="#002026"/>
<g clip-path="url(#clip1_980_51208)">
<path d="M252.147 69.9476C251.89 69.9425 251.573 69.7241 251.45 69.4674C251.37 69.3003 251.378 69.1674 251.499 68.6121C251.99 66.3679 251.947 64.4353 251.357 62.2336C250.787 60.1058 249.951 58.5553 248.445 56.8319C248.122 56.462 247.845 56.1123 247.83 56.0551C247.773 55.844 247.868 55.4905 248.027 55.3192C248.245 55.0842 248.693 54.9972 248.956 55.1384C249.057 55.1927 249.36 55.4814 249.629 55.7798C250.692 56.9615 251.572 58.3349 252.226 59.8345C252.631 60.7626 253.152 62.5877 253.272 63.5043C253.495 65.1952 253.454 66.768 253.147 68.3806C252.961 69.3554 252.794 69.7805 252.575 69.8393C252.531 69.851 252.462 69.8811 252.422 69.9062C252.382 69.9312 252.258 69.9498 252.147 69.9476ZM248.913 69.2238C248.519 69.2154 248.136 68.8383 248.152 68.4747C248.156 68.3866 248.227 67.9666 248.311 67.5413C248.665 65.7405 248.532 63.9473 247.924 62.3147C247.425 60.9733 246.946 60.1713 245.984 59.0676C245.339 58.3272 245.284 58.2003 245.434 57.7922C245.577 57.4043 246.138 57.1972 246.515 57.3935C246.776 57.5295 247.792 58.7154 248.25 59.4185C249.765 61.7454 250.372 64.5166 249.976 67.3073C249.774 68.7368 249.497 69.2363 248.913 69.2238ZM245.585 68.5028C245.332 68.4615 245.074 68.2751 244.957 68.049C244.886 67.9113 244.898 67.7345 245.02 67.1212C245.469 64.8685 244.966 62.9493 243.485 61.2634C242.835 60.523 242.78 60.3556 243.046 59.9234C243.178 59.7101 243.245 59.6607 243.492 59.5945C243.907 59.4833 244.178 59.6341 244.752 60.2961C245.636 61.3144 246.142 62.2678 246.489 63.5698C246.845 64.9082 246.873 65.885 246.595 67.2831C246.436 68.0835 246.313 68.3164 245.977 68.4578C245.874 68.501 245.698 68.5211 245.585 68.5028ZM242.48 67.8324C242.282 67.8063 242.013 67.6179 241.895 67.4229C241.764 67.205 241.77 67.0027 241.92 66.4901C242.112 65.8307 242.111 65.505 241.913 64.764C241.714 64.0231 241.552 63.7403 241.056 63.2657C240.887 63.1048 240.708 62.9059 240.658 62.8238C240.446 62.4799 240.635 61.9385 241.032 61.748C241.369 61.5864 241.655 61.6794 242.117 62.1009C243.456 63.3212 243.983 65.2893 243.43 67.003C243.235 67.6076 242.913 67.8892 242.48 67.8324Z" fill="black"/>
</g>
<rect x="231.227" y="51.8139" width="30.0466" height="21.3234" rx="3.63467" transform="rotate(75 231.227 51.8139)" fill="url(#paint1_linear_980_51208)" stroke="#47453F" stroke-width="0.484622"/>
<path fill-rule="evenodd" clip-rule="evenodd" d="M234.196 62.2335L231.233 67.3655L236.365 70.3284L236.123 70.7481L230.868 67.7142L228.391 68.3781C228.261 68.4127 228.128 68.336 228.094 68.2067L227.028 64.2278L220.474 65.9838L221.54 69.9626L222.607 73.9417L229.394 72.1229C229.523 72.0883 229.656 72.165 229.691 72.2943L232.513 82.8267L232.045 82.9522L229.286 72.6538L222.732 74.4098L225.491 84.7081L225.023 84.8335L222.264 74.5352L222.138 74.0671L221.135 70.3221L218.891 70.9233L215.857 76.1782L215.438 75.9359L218.401 70.8039L213.269 67.8409L213.511 67.4212L218.766 70.4552L221.01 69.854L217.121 55.3426L217.589 55.2172L220.349 65.5157L226.902 63.7597L224.143 53.4613L224.611 53.3359L227.37 63.6343L227.371 63.6342L227.496 64.1023L227.496 64.1024L228.499 67.8472L230.743 67.2461L233.777 61.9911L234.196 62.2335Z" fill="#47453F"/>
<rect x="339.255" y="13.8252" width="147.325" height="234.557" rx="7.26934" transform="rotate(15 339.255 13.8252)" fill="url(#paint2_linear_980_51208)" fill-opacity="0.2" stroke="white" stroke-width="0.969245"/>
<g clip-path="url(#clip2_980_51208)">
<path d="M435.684 90.2447C435.465 90.1121 435.3 89.7645 435.321 89.4807C435.336 89.2959 435.409 89.1846 435.791 88.7643C437.339 87.0663 438.267 85.371 438.857 83.1692C439.428 81.0414 439.479 79.2808 439.037 77.0355C438.942 76.5535 438.877 76.1121 438.892 76.0549C438.949 75.8438 439.207 75.585 439.431 75.5162C439.737 75.4218 440.169 75.5704 440.326 75.8244C440.387 75.922 440.504 76.3233 440.588 76.716C440.918 78.2712 440.993 79.9005 440.81 81.5265C440.697 82.5327 440.235 84.3734 439.881 85.2275C439.228 86.8031 438.407 88.1449 437.334 89.3877C436.686 90.1389 436.329 90.4237 436.109 90.3649C436.065 90.3532 435.991 90.345 435.944 90.3467C435.897 90.3482 435.78 90.3024 435.684 90.2447ZM433.246 88.0009C432.909 87.797 432.766 87.2789 432.961 86.9718C433.009 86.8974 433.281 86.5695 433.566 86.2429C434.773 84.8604 435.555 83.2412 435.844 81.5233C436.082 80.1119 436.068 79.1777 435.787 77.741C435.599 76.7771 435.615 76.6398 435.949 76.3617C436.267 76.0972 436.856 76.1985 437.084 76.5567C437.242 76.8049 437.529 78.34 437.574 79.1779C437.723 81.9507 436.863 84.6539 435.125 86.873C434.235 88.0098 433.745 88.3037 433.246 88.0009ZM430.724 85.7125C430.526 85.5505 430.396 85.2601 430.407 85.0057C430.414 84.8507 430.513 84.7036 430.926 84.2337C432.441 82.5074 432.965 80.5939 432.525 78.3932C432.332 77.4267 432.369 77.2543 432.815 77.0134C433.036 76.8945 433.119 76.8851 433.366 76.9514C433.781 77.0625 433.94 77.3286 434.107 78.1892C434.363 79.513 434.324 80.5914 433.973 81.8924C433.613 83.2297 433.149 84.0896 432.209 85.1613C431.671 85.7749 431.448 85.9153 431.086 85.8697C430.976 85.8557 430.813 85.785 430.724 85.7125ZM428.37 83.5796C428.212 83.4578 428.073 83.1601 428.069 82.9326C428.064 82.6784 428.17 82.5059 428.556 82.1369C429.053 81.6623 429.215 81.3796 429.413 80.6386C429.612 79.8977 429.613 79.5718 429.42 78.9125C429.355 78.6889 429.299 78.4272 429.297 78.3308C429.286 77.9274 429.72 77.5529 430.159 77.5865C430.531 77.6149 430.732 77.8384 430.922 78.4345C431.471 80.1607 430.944 82.1287 429.608 83.3364C429.137 83.7625 428.717 83.8452 428.37 83.5796Z" fill="white"/>
</g>
<rect x="426.635" y="64.0803" width="30.0466" height="21.3234" rx="3.63467" transform="rotate(105 426.635 64.0803)" fill="url(#paint3_linear_980_51208)" stroke="#47453F" stroke-width="0.484622"/>
<path fill-rule="evenodd" clip-rule="evenodd" d="M423.997 74.5886L418.865 77.5516L421.827 82.6836L421.408 82.9259L418.374 77.671L415.896 77.0071C415.767 76.9724 415.69 76.8396 415.725 76.7103L416.791 72.7313L410.238 70.9753L409.171 74.9543L408.105 78.9332L414.893 80.7519C415.022 80.7866 415.099 80.9194 415.064 81.0487L412.242 91.5812L411.774 91.4557L414.534 81.1573L407.98 79.4013L405.22 89.6997L404.752 89.5743L408.641 75.0629L406.397 74.4618L401.142 77.4957L400.9 77.076L406.032 74.113L403.069 68.981L403.489 68.7387L406.522 73.9937L408.766 74.5948L409.77 70.8499L409.769 70.8499L409.895 70.3818L409.895 70.3818L412.654 60.0834L413.123 60.2089L410.363 70.5072L416.916 72.2632L419.676 61.9649L420.144 62.0903L417.385 72.3886L417.385 72.3886L417.259 72.8568L417.259 72.8567L416.256 76.6017L418.499 77.2028L423.754 74.1689L423.997 74.5886Z" fill="#47453F"/>
<path d="M360.519 141.912L365.136 143.149L365.648 141.238L361.031 140.001L361.743 137.341L366.808 138.698L367.32 136.787L360.154 134.867L357.167 146.014L364.428 147.96L364.94 146.049L359.78 144.667L360.519 141.912Z" fill="white"/>
<path d="M373.117 138.341L368.53 137.112L368.035 138.959L369.502 139.353L367.505 146.804L366.04 146.412L365.545 148.259L370.13 149.488C371.627 149.889 372.865 149.815 373.845 149.265C374.824 148.715 375.518 147.691 375.926 146.193L376.49 144.092C376.891 142.595 376.803 141.362 376.225 140.395C375.648 139.427 374.612 138.742 373.117 138.341ZM373.808 145.7C373.592 146.506 373.227 147.079 372.714 147.42C372.202 147.761 371.523 147.817 370.68 147.587L369.629 147.305L371.592 139.98L372.643 140.262C373.485 140.487 374.045 140.873 374.322 141.42C374.6 141.966 374.628 142.648 374.407 143.465L373.808 145.7Z" fill="white"/>
<path d="M379.188 146.914L383.805 148.152L384.317 146.241L379.7 145.003L380.413 142.344L385.476 143.7L385.988 141.789L378.823 139.87L375.836 151.017L383.097 152.962L383.609 151.051L378.45 149.669L379.188 146.914Z" fill="white"/>
<path d="M391.034 153.552L390.747 153.476L391.136 143.169L387.139 142.098L384.152 153.245L386.223 153.8L388.826 144.086L389.111 144.163L388.722 154.469L392.72 155.541L395.707 144.393L393.637 143.839L391.034 153.552Z" fill="white"/>
<path d="M402.125 151.695C401.536 151.226 400.899 150.821 400.225 150.486L399.88 150.308C399.524 150.133 399.186 149.922 398.871 149.679C398.646 149.509 398.468 149.286 398.354 149.028C398.261 148.786 398.252 148.519 398.327 148.27C398.37 148.08 398.457 147.904 398.582 147.755C398.706 147.606 398.865 147.488 399.044 147.413C399.409 147.255 399.911 147.261 400.548 147.432C400.925 147.524 401.281 147.686 401.598 147.909C401.861 148.097 402.055 148.365 402.153 148.672C402.249 149.032 402.242 149.412 402.13 149.767L402.002 150.244L404.067 150.798L404.195 150.32C404.411 149.514 404.413 148.795 404.202 148.163C403.987 147.528 403.59 146.971 403.061 146.56C402.463 146.1 401.776 145.767 401.043 145.585C400.335 145.379 399.592 145.321 398.861 145.417C398.243 145.499 397.662 145.758 397.188 146.162C396.714 146.591 396.381 147.154 396.234 147.775C396.052 148.455 396.05 149.046 396.229 149.549C396.43 150.084 396.771 150.555 397.216 150.914C397.769 151.37 398.37 151.763 399.01 152.086L399.355 152.264C399.745 152.462 400.121 152.686 400.482 152.933C400.743 153.104 400.959 153.335 401.114 153.606C401.239 153.86 401.261 154.153 401.176 154.424C401.123 154.637 401.02 154.835 400.876 155.001C400.732 155.167 400.551 155.297 400.348 155.379C399.916 155.571 399.339 155.57 398.617 155.377C397.894 155.184 397.376 154.865 397.064 154.42C396.74 153.972 396.667 153.415 396.847 152.748L396.965 152.308L394.893 151.753L394.774 152.199C394.557 152.923 394.558 153.695 394.777 154.419C395 155.099 395.413 155.702 395.968 156.155C397.247 157.148 398.869 157.591 400.475 157.389C401.137 157.288 401.757 157.005 402.265 156.57C402.757 156.133 403.105 155.557 403.263 154.918C403.445 154.238 403.429 153.637 403.217 153.113C402.978 152.556 402.603 152.068 402.125 151.695Z" fill="white"/>
<path d="M411.506 153.978C410.989 153.574 410.393 153.284 409.756 153.125L408.879 152.89L408.922 152.731L414.212 150.888L414.596 149.455L406.952 147.407L406.713 148.299L413.37 150.082L413.328 150.241L407.981 152.104L407.623 153.441L409.265 153.881C409.761 154.008 410.231 154.224 410.651 154.517C411.027 154.775 411.321 155.136 411.499 155.556C411.669 155.962 411.68 156.443 411.531 156.998L411.505 157.094C411.423 157.44 411.27 157.766 411.054 158.049C410.838 158.332 410.565 158.567 410.253 158.737C409.616 159.091 408.839 159.145 407.922 158.898C407.004 158.651 406.341 158.198 405.932 157.538C405.507 156.872 405.415 156.088 405.657 155.186L405.743 154.865L404.756 154.601L404.675 154.904C404.459 155.71 404.447 156.444 404.639 157.105C404.827 157.758 405.202 158.342 405.718 158.784C406.285 159.264 406.955 159.607 407.676 159.786C408.38 159.993 409.123 160.035 409.846 159.908C410.474 159.796 411.056 159.506 411.524 159.073C411.997 158.615 412.33 158.033 412.486 157.393L412.53 157.23C412.715 156.541 412.71 155.922 412.515 155.375C412.318 154.823 411.968 154.339 411.506 153.978Z" fill="white"/>
<path d="M419.788 155.428C419.298 154.968 418.699 154.64 418.047 154.476C417.22 154.254 416.529 154.231 415.975 154.407C415.497 154.54 415.058 154.789 414.698 155.131L414.507 155.08L414.964 153.376C415.206 152.474 415.653 151.835 416.305 151.457C416.958 151.08 417.751 151.017 418.685 151.268C419.599 151.513 420.232 151.921 420.585 152.493C420.938 153.065 421.017 153.718 420.82 154.451L421.806 154.716C421.974 154.127 421.982 153.504 421.83 152.912C421.666 152.319 421.335 151.786 420.875 151.377C420.393 150.928 419.743 150.595 418.924 150.376C418.106 150.158 417.357 150.128 416.678 150.286C416.025 150.439 415.432 150.782 414.973 151.271C414.472 151.825 414.119 152.497 413.945 153.224L412.891 157.156C412.681 157.86 412.673 158.608 412.867 159.316C413.055 159.961 413.422 160.54 413.927 160.983C414.468 161.443 415.105 161.777 415.791 161.961C416.476 162.144 417.195 162.174 417.893 162.046C418.546 161.915 419.149 161.604 419.635 161.148C420.148 160.653 420.51 160.022 420.677 159.328L420.729 159.137C420.93 158.46 420.943 157.741 420.766 157.056C420.595 156.434 420.257 155.871 419.788 155.428ZM419.689 159.046C419.456 159.917 419.001 160.53 418.326 160.883C417.652 161.236 416.884 161.298 416.025 161.068C415.165 160.837 414.531 160.4 414.123 159.757C413.715 159.113 413.628 158.356 413.862 157.484L413.896 157.358C414.024 156.824 414.296 156.335 414.681 155.944C415.038 155.59 415.485 155.341 415.974 155.224C416.508 155.113 417.06 155.129 417.586 155.27C418.112 155.411 418.598 155.673 419.005 156.036C419.37 156.382 419.633 156.821 419.765 157.306C419.902 157.838 419.893 158.397 419.738 158.923L419.689 159.046Z" fill="white"/>
<path d="M429.837 154.52C429.313 153.567 428.424 152.923 427.171 152.588C425.918 152.252 424.827 152.366 423.897 152.929C422.967 153.491 422.301 154.522 421.9 156.02L421.217 158.568C420.816 160.065 420.877 161.29 421.401 162.244C421.925 163.199 422.813 163.843 424.066 164.177C425.319 164.512 426.41 164.399 427.341 163.836C428.272 163.273 428.937 162.243 429.338 160.744L430.021 158.196C430.421 156.7 430.36 155.474 429.837 154.52ZM428.334 160.543C428.035 161.659 427.544 162.463 426.859 162.956C426.175 163.448 425.324 163.558 424.304 163.286C423.285 163.013 422.602 162.492 422.257 161.722C421.912 160.953 421.889 160.011 422.187 158.896L422.904 156.221C423.203 155.106 423.694 154.302 424.378 153.809C425.061 153.315 425.913 153.205 426.933 153.478C427.951 153.751 428.634 154.272 428.98 155.042C429.326 155.811 429.35 156.753 429.051 157.868L428.334 160.543Z" fill="white"/>
<path d="M344.226 125.067C342.645 124.644 340.991 124.576 339.381 124.866C337.77 125.157 336.244 125.799 334.911 126.748C333.578 127.697 332.471 128.928 331.668 130.354C330.866 131.78 330.389 133.366 330.27 134.998C330.151 136.63 330.395 138.268 330.982 139.795C331.57 141.322 332.487 142.7 333.669 143.832C334.851 144.963 336.268 145.82 337.82 146.34C339.371 146.861 341.018 147.032 342.643 146.843C342.699 146.837 342.752 146.83 342.806 146.823C345.355 146.487 347.71 145.277 349.468 143.4C351.225 141.523 352.278 139.094 352.445 136.528C352.613 133.961 351.885 131.416 350.387 129.327C348.888 127.237 346.711 125.731 344.226 125.067ZM340.363 145.42C340.228 145.395 340.096 145.36 339.967 145.313L339.879 145.29C339.828 145.275 339.784 145.243 339.753 145.199C339.722 145.156 339.707 145.103 339.71 145.05C339.759 144.361 340.675 140.435 340.76 140.26C340.904 139.978 342.278 137.43 342.253 137.141L342.226 136.863L342.132 137.127C342.085 137.257 341.409 137.662 341.273 137.64C341.254 137.635 341.25 137.585 341.248 137.57L341.252 137.556L341.244 137.542C341.17 137.414 341.487 136.849 341.697 136.476C341.984 135.967 342.078 135.781 342.019 135.687C342.009 135.672 341.995 135.66 341.978 135.652C341.962 135.645 341.943 135.642 341.925 135.644L341.87 135.648L341.868 135.703C341.815 135.917 341.692 136.107 341.519 136.244C341.5 136.262 341.476 136.274 341.451 136.282C341.425 136.289 341.399 136.29 341.373 136.286C341.241 136.152 341.799 134.477 342.131 133.896L342.144 133.849L342.113 133.815C342.095 133.793 342.071 133.776 342.044 133.766C342.017 133.757 341.988 133.754 341.959 133.759C341.693 133.804 341.357 134.545 341.04 135.287C341.005 135.366 340.971 135.448 340.944 135.508C340.853 135.34 340.748 135.185 340.633 135.154C340.605 135.15 340.577 135.153 340.55 135.162C340.524 135.172 340.501 135.188 340.482 135.21L340.448 135.245L340.474 135.286C340.787 135.794 340.302 137.383 340.082 138.01C340.048 137.634 339.967 137.038 339.831 136.929C339.814 136.915 339.793 136.906 339.771 136.903C339.749 136.901 339.727 136.906 339.707 136.916L339.599 136.968L339.704 137.023C339.794 137.121 339.728 138.145 339.412 139.594C339.062 141.187 338.223 144.001 338.081 144.326C337.989 144.476 337.886 144.62 337.775 144.757C337.753 144.785 337.734 144.81 337.719 144.829C337.631 144.801 337.548 144.76 337.472 144.707C337.348 144.628 337.209 144.577 337.063 144.56C336.917 144.542 336.77 144.557 336.63 144.604C334.976 143.714 333.606 142.376 332.677 140.743C331.748 139.11 331.298 137.249 331.378 135.372C331.458 133.495 332.066 131.679 333.131 130.132C334.196 128.585 335.676 127.369 337.4 126.624C339.125 125.879 341.024 125.634 342.881 125.919C344.738 126.204 346.477 127.006 347.898 128.234C349.32 129.462 350.367 131.065 350.919 132.861C351.472 134.656 351.507 136.571 351.021 138.385C350.442 140.578 349.126 142.504 347.294 143.841C345.505 145.159 343.33 145.846 341.108 145.797C341.078 145.754 341.046 145.712 341.007 145.67C340.822 145.456 340.664 145.312 340.363 145.42Z" fill="white"/>
<path d="M342.785 130.366C342.304 130.555 341.53 131.134 341.336 131.857C341.143 132.579 341.398 133.379 341.939 133.523L341.979 133.534C341.931 133.018 342.218 132.245 342.218 132.245C342.114 132.675 342.066 133.117 342.075 133.56C342.579 133.584 343.114 133.053 343.29 132.396C343.488 131.659 343.104 130.77 342.785 130.366Z" fill="white"/>
<path d="M338.775 135.102C339.196 135.226 339.632 135.298 340.071 135.314C340.125 134.814 339.626 134.258 338.98 134.038C338.268 133.804 337.359 134.135 336.937 134.438C337.099 134.929 337.634 135.734 338.346 135.968C339.058 136.202 339.872 135.986 340.047 135.453C340.051 135.44 340.055 135.426 340.058 135.413C339.537 135.433 338.775 135.102 338.775 135.102Z" fill="white"/>
<path d="M336.413 133.382C336.984 133.708 337.721 133.67 337.965 133.245C337.968 133.232 337.971 133.221 337.982 133.21C337.531 133.136 336.934 132.717 336.934 132.717C337.275 132.901 337.638 133.039 338.015 133.13C338.148 132.708 337.818 132.13 337.295 131.838C336.725 131.513 335.886 131.637 335.471 131.82C335.528 132.271 335.843 133.055 336.413 133.382Z" fill="white"/>
<path d="M340.39 132.21L340.423 132.204C340.23 131.847 340.192 131.215 340.192 131.215C340.251 131.551 340.353 131.878 340.494 132.189C340.856 132.052 341.071 131.512 340.993 130.992C340.907 130.427 340.367 129.913 340.016 129.727C339.733 130.007 339.362 130.652 339.451 131.223C339.54 131.794 339.965 132.275 340.39 132.21Z" fill="white"/>
<path d="M337.021 135.936C336.655 136.109 336.017 136.098 336.017 136.098C336.355 136.06 336.686 135.978 337.004 135.856C336.892 135.485 336.369 135.235 335.844 135.274C335.27 135.32 334.724 135.825 334.515 136.162C334.775 136.462 335.395 136.873 335.97 136.823C336.545 136.773 337.059 136.385 337.025 135.957L337.021 135.936Z" fill="white"/>
<path d="M340.633 132.886C340.231 132.527 339.536 132.483 339.172 132.559C339.141 132.931 339.258 133.617 339.66 133.974C340.063 134.331 340.661 134.429 340.929 134.13C340.936 134.122 340.942 134.114 340.948 134.105C340.599 133.968 340.199 133.532 340.199 133.532C340.441 133.737 340.708 133.911 340.994 134.049C341.167 133.731 341 133.215 340.633 132.886Z" fill="white"/>
<path d="M339.237 137.02C339.019 137.113 338.787 137.166 338.551 137.179C338.783 137.138 339.008 137.067 339.222 136.969C339.127 136.717 338.753 136.572 338.392 136.625C337.998 136.684 337.645 137.061 337.517 137.304C337.713 137.492 338.161 137.747 338.554 137.693C338.948 137.639 339.286 137.337 339.242 137.042C339.24 137.034 339.239 137.026 339.237 137.02Z" fill="white"/>
<path d="M338.972 132.211L338.991 132.196C338.805 132.036 338.648 131.844 338.529 131.63C338.673 131.827 338.842 132.005 339.032 132.16C339.223 131.955 339.19 131.539 338.975 131.227C338.737 130.892 338.226 130.728 337.94 130.719C337.847 130.99 337.815 131.525 338.051 131.866C338.287 132.207 338.718 132.39 338.972 132.211Z" fill="white"/>
<path d="M336.351 134.396C336.354 134.389 336.356 134.381 336.357 134.374C336.111 134.365 335.869 134.313 335.642 134.22C335.878 134.284 336.121 134.318 336.366 134.319C336.387 134.04 336.101 133.737 335.739 133.627C335.342 133.51 334.842 133.707 334.614 133.878C334.712 134.148 335.021 134.586 335.418 134.704C335.816 134.823 336.262 134.693 336.351 134.396Z" fill="white"/>
<path d="M343.871 137.443C344.604 137.596 345.469 137.166 345.855 136.822C345.638 136.358 345.017 135.613 344.286 135.454C343.616 135.314 342.905 135.553 342.696 136.013C343.084 136.218 343.497 136.374 343.925 136.477C343.925 136.477 343.099 136.383 342.657 136.106C342.652 136.12 342.649 136.133 342.646 136.147C342.536 136.699 343.137 137.29 343.871 137.443Z" fill="white"/>
<path d="M345.573 135.155C345.944 135.265 346.328 135.327 346.715 135.338C346.715 135.338 345.99 135.402 345.562 135.242C345.56 135.254 345.559 135.267 345.56 135.28C345.564 135.771 346.177 136.171 346.834 136.174C347.491 136.177 348.16 135.656 348.43 135.293C348.163 134.927 347.499 134.4 346.842 134.396C346.242 134.393 345.669 134.723 345.573 135.155Z" fill="white"/>
<path d="M343.897 133.101C344.173 132.904 344.424 132.673 344.643 132.414C344.643 132.414 344.295 132.937 343.955 133.15L343.979 133.171C344.314 133.44 344.929 133.231 345.288 132.78C345.647 132.329 345.651 131.586 345.548 131.202C345.146 131.187 344.423 131.357 344.068 131.809C343.736 132.22 343.653 132.794 343.897 133.101Z" fill="white"/>
<path d="M346.376 138.105C345.944 137.806 345.365 137.761 345.082 138.029C345.297 138.292 345.544 138.527 345.819 138.727C345.819 138.727 345.261 138.414 345.031 138.085C345.023 138.094 345.016 138.103 345.01 138.112C344.766 138.467 345.017 139.062 345.491 139.39C345.964 139.719 346.707 139.67 347.081 139.546C347.071 139.141 346.851 138.431 346.376 138.105Z" fill="white"/>
<path d="M343.726 135.063C344.254 134.953 344.701 134.42 344.857 134.082C344.584 133.836 343.956 133.522 343.428 133.635C342.946 133.736 342.542 134.099 342.54 134.463C342.857 134.487 343.176 134.47 343.488 134.414C343.488 134.414 342.916 134.589 342.545 134.533C342.546 134.544 342.548 134.554 342.551 134.564C342.633 134.958 343.199 135.174 343.726 135.063Z" fill="white"/>
<path d="M343.498 137.993C343.214 137.765 342.817 137.706 342.608 137.876C342.744 138.068 342.904 138.242 343.084 138.393C342.886 138.265 342.712 138.102 342.57 137.913C342.564 137.918 342.56 137.924 342.556 137.93C342.369 138.163 342.515 138.587 342.824 138.837C343.134 139.086 343.651 139.09 343.918 139.019C343.928 138.744 343.81 138.241 343.498 137.993Z" fill="white"/>
<path d="M345.879 133.599C345.668 133.724 345.436 133.81 345.195 133.854L345.205 133.877C345.337 134.157 345.8 134.217 346.176 134.039C346.551 133.86 346.789 133.381 346.845 133.101C346.592 132.966 346.07 132.846 345.695 133.023C345.352 133.186 345.115 133.53 345.179 133.803C345.42 133.764 345.655 133.696 345.879 133.599Z" fill="white"/>
<path d="M347.3 136.72C346.93 136.633 346.53 136.753 346.411 137.005C346.623 137.126 346.851 137.219 347.087 137.281C346.843 137.248 346.608 137.172 346.39 137.057L346.384 137.079C346.312 137.381 346.636 137.717 347.041 137.813C347.445 137.909 347.93 137.685 348.149 137.5C348.034 137.241 347.7 136.827 347.3 136.72Z" fill="white"/>
<mask id="mask1_980_51208" style="mask-type:alpha" maskUnits="userSpaceOnUse" x="426" y="54" width="202" height="263">
<rect x="424.648" y="91.1016" width="148.294" height="235.526" rx="7.75396" transform="rotate(-15 424.648 91.1016)" fill="white"/>
</mask>
<g mask="url(#mask1_980_51208)">
<rect x="381.332" y="101.705" width="237.2" height="237.2" transform="rotate(-15 381.332 101.705)" fill="#E9C300"/>
</g>
<g clip-path="url(#clip3_980_51208)">
<path d="M546.962 109.411C546.706 109.406 546.389 109.187 546.266 108.931C546.185 108.764 546.193 108.631 546.315 108.075C546.805 105.831 546.762 103.899 546.172 101.697C545.602 99.5692 544.766 98.0186 543.261 96.2953C542.937 95.9254 542.66 95.5757 542.645 95.5185C542.588 95.3074 542.683 94.9539 542.842 94.7826C543.06 94.5476 543.508 94.4606 543.772 94.6018C543.873 94.6561 544.175 94.9448 544.444 95.2431C545.508 96.4249 546.387 97.7983 547.042 99.2979C547.447 100.226 547.967 102.051 548.088 102.968C548.31 104.659 548.27 106.231 547.962 107.844C547.776 108.819 547.609 109.244 547.39 109.303C547.346 109.314 547.278 109.345 547.238 109.37C547.198 109.395 547.074 109.413 546.962 109.411ZM543.728 108.687C543.335 108.679 542.952 108.302 542.967 107.938C542.971 107.85 543.043 107.43 543.126 107.005C543.48 105.204 543.348 103.411 542.74 101.778C542.24 100.437 541.761 99.6347 540.799 98.531C540.154 97.7906 540.099 97.6637 540.25 97.2556C540.393 96.8676 540.954 96.6606 541.33 96.8568C541.591 96.9928 542.607 98.1788 543.065 98.8819C544.581 101.209 545.187 103.98 544.792 106.771C544.589 108.2 544.312 108.7 543.728 108.687ZM540.4 107.966C540.148 107.925 539.89 107.739 539.772 107.512C539.701 107.375 539.713 107.198 539.835 106.585C540.285 104.332 539.782 102.413 538.3 100.727C537.65 99.9863 537.595 99.8189 537.862 99.3868C537.993 99.1735 538.06 99.1241 538.308 99.0579C538.722 98.9467 538.993 99.0975 539.568 99.7595C540.452 100.778 540.957 101.731 541.304 103.033C541.661 104.372 541.689 105.348 541.41 106.746C541.251 107.547 541.129 107.78 540.792 107.921C540.69 107.964 540.513 107.985 540.4 107.966ZM537.295 107.296C537.097 107.27 536.828 107.081 536.711 106.886C536.58 106.668 536.585 106.466 536.735 105.953C536.928 105.294 536.927 104.968 536.728 104.227C536.53 103.486 536.368 103.204 535.871 102.729C535.703 102.568 535.524 102.369 535.473 102.287C535.262 101.943 535.451 101.402 535.848 101.211C536.184 101.05 536.47 101.143 536.933 101.564C538.271 102.785 538.798 104.753 538.246 106.466C538.051 107.071 537.728 107.353 537.295 107.296Z" fill="black"/>
</g>
<rect x="526.042" y="91.2767" width="30.0466" height="21.3234" rx="3.63467" transform="rotate(75 526.042 91.2767)" fill="url(#paint4_linear_980_51208)" stroke="#47453F" stroke-width="0.484622"/>
<path fill-rule="evenodd" clip-rule="evenodd" d="M529.011 101.696L526.048 106.828L531.18 109.791L530.938 110.211L525.683 107.177L523.205 107.841C523.076 107.875 522.943 107.799 522.909 107.67L521.843 103.691L515.289 105.447L516.355 109.426L517.422 113.405L524.209 111.586C524.338 111.551 524.471 111.628 524.506 111.757L527.328 122.29L526.86 122.415L524.1 112.117L517.547 113.873L520.306 124.171L519.838 124.296L517.079 113.998L517.079 113.998L516.953 113.53L516.953 113.53L515.95 109.785L513.706 110.386L510.672 115.641L510.253 115.399L513.216 110.267L508.084 107.304L508.326 106.884L513.581 109.918L515.825 109.317L514.821 105.572L514.821 105.572L514.695 105.104L514.696 105.104L511.936 94.8056L512.404 94.6802L515.164 104.978L521.717 103.223L518.958 92.9241L519.426 92.7987L523.314 107.31L525.558 106.709L528.592 101.454L529.011 101.696Z" fill="#47453F"/>
<path d="M507.7 191.739L512.317 190.501L511.805 188.59L507.188 189.828L506.475 187.168L511.54 185.811L511.028 183.9L503.862 185.82L506.848 196.967L514.109 195.022L513.597 193.111L508.438 194.493L507.7 191.739Z" fill="#002026"/>
<path d="M516.825 182.347L512.238 183.576L512.733 185.424L514.2 185.03L516.197 192.482L514.732 192.875L515.227 194.722L519.812 193.494C521.309 193.093 522.344 192.409 522.917 191.443C523.49 190.478 523.579 189.244 523.184 187.743L522.621 185.641C522.22 184.144 521.528 183.121 520.544 182.571C519.56 182.022 518.32 181.947 516.825 182.347ZM521.103 188.375C521.318 189.181 521.29 189.859 521.016 190.411C520.742 190.963 520.183 191.35 519.337 191.573L518.287 191.854L516.324 184.529L517.375 184.248C518.217 184.022 518.894 184.076 519.408 184.411C519.922 184.745 520.287 185.321 520.504 186.139L521.103 188.375Z" fill="#002026"/>
<path d="M526.369 186.736L530.987 185.499L530.475 183.588L525.857 184.825L525.145 182.165L530.208 180.809L529.696 178.898L522.531 180.818L525.518 191.965L532.779 190.019L532.267 188.108L527.107 189.491L526.369 186.736Z" fill="#002026"/>
<path d="M539.947 186.562L539.661 186.639L534.844 177.519L530.846 178.59L533.833 189.737L535.905 189.182L533.302 179.468L533.587 179.392L538.404 188.512L542.401 187.441L539.414 176.294L537.344 176.848L539.947 186.562Z" fill="#002026"/>
<path d="M548.624 179.407C547.88 179.296 547.125 179.264 546.374 179.31L545.986 179.329C545.59 179.356 545.192 179.342 544.798 179.289C544.519 179.254 544.252 179.15 544.025 178.984C543.823 178.82 543.682 178.594 543.622 178.341C543.564 178.155 543.551 177.959 543.585 177.767C543.618 177.576 543.697 177.395 543.815 177.24C544.052 176.92 544.489 176.675 545.127 176.504C545.499 176.395 545.888 176.358 546.274 176.393C546.596 176.424 546.898 176.558 547.137 176.776C547.4 177.04 547.583 177.372 547.664 177.735L547.792 178.213L549.857 177.66L549.729 177.182C549.513 176.376 549.156 175.753 548.657 175.311C548.153 174.868 547.531 174.584 546.867 174.493C546.119 174.393 545.358 174.449 544.632 174.658C543.916 174.833 543.244 175.155 542.658 175.603C542.164 175.983 541.79 176.497 541.581 177.085C541.386 177.693 541.379 178.347 541.562 178.959C541.744 179.639 542.038 180.151 542.444 180.497C542.886 180.86 543.417 181.098 543.982 181.186C544.689 181.304 545.406 181.344 546.122 181.304L546.509 181.286C546.946 181.263 547.384 181.268 547.82 181.301C548.131 181.32 548.434 181.411 548.704 181.568C548.939 181.726 549.105 181.969 549.167 182.245C549.227 182.457 549.237 182.679 549.195 182.895C549.154 183.111 549.062 183.314 548.927 183.487C548.649 183.869 548.149 184.156 547.427 184.351C546.705 184.545 546.097 184.528 545.603 184.298C545.098 184.072 544.757 183.626 544.579 182.959L544.462 182.519L542.39 183.074L542.51 183.52C542.684 184.256 543.071 184.924 543.623 185.441C544.156 185.919 544.815 186.234 545.522 186.349C547.126 186.569 548.752 186.142 550.042 185.164C550.564 184.746 550.96 184.19 551.182 183.56C551.39 182.935 551.403 182.262 551.22 181.63C551.038 180.951 550.724 180.437 550.278 180.09C549.793 179.727 549.224 179.492 548.624 179.407Z" fill="#002026"/>
<path d="M557.89 176.695C557.24 176.603 556.578 176.65 555.947 176.831L555.07 177.065L555.028 176.906L558.688 172.666L558.304 171.233L550.66 173.281L550.899 174.172L557.556 172.389L557.599 172.548L553.9 176.834L554.258 178.171L555.9 177.731C556.393 177.593 556.908 177.545 557.418 177.588C557.873 177.624 558.308 177.789 558.672 178.065C559.023 178.332 559.272 178.743 559.421 179.297L559.447 179.393C559.549 179.734 559.579 180.093 559.533 180.446C559.488 180.799 559.369 181.139 559.184 181.443C558.809 182.068 558.163 182.502 557.245 182.747C556.327 182.992 555.526 182.931 554.842 182.564C554.141 182.2 553.669 181.567 553.428 180.665L553.342 180.344L552.355 180.609L552.437 180.912C552.653 181.718 553.009 182.36 553.506 182.836C553.995 183.308 554.611 183.626 555.279 183.751C556.01 183.883 556.762 183.845 557.476 183.64C558.19 183.467 558.854 183.131 559.416 182.66C559.904 182.249 560.264 181.707 560.453 181.097C560.633 180.465 560.631 179.794 560.446 179.162L560.402 178.999C560.217 178.31 559.904 177.776 559.462 177.399C559.015 177.021 558.47 176.776 557.89 176.695Z" fill="#002026"/>
<path d="M565.787 173.809C565.132 173.656 564.449 173.671 563.803 173.855C562.976 174.077 562.366 174.402 561.974 174.831C561.627 175.186 561.371 175.621 561.23 176.097L561.04 176.148L560.583 174.444C560.341 173.543 560.409 172.765 560.785 172.112C561.162 171.459 561.817 171.008 562.752 170.758C563.666 170.513 564.418 170.55 565.01 170.869C565.602 171.188 565.996 171.714 566.192 172.447L567.179 172.183C567.03 171.59 566.725 171.046 566.297 170.61C565.859 170.178 565.305 169.882 564.703 169.757C564.061 169.61 563.331 169.646 562.513 169.866C561.695 170.086 561.032 170.435 560.523 170.911C560.034 171.37 559.691 171.964 559.538 172.617C559.382 173.347 559.411 174.106 559.624 174.822L560.678 178.755C560.848 179.469 561.215 180.121 561.737 180.637C562.222 181.102 562.83 181.419 563.489 181.551C564.187 181.678 564.906 181.649 565.591 181.465C566.277 181.282 566.914 180.948 567.455 180.488C567.955 180.048 568.322 179.477 568.514 178.84C568.712 178.154 568.709 177.427 568.507 176.742L568.456 176.552C568.291 175.864 567.943 175.235 567.448 174.73C566.989 174.277 566.414 173.959 565.787 173.809ZM567.51 176.992C567.744 177.863 567.656 178.621 567.249 179.264C566.841 179.908 566.207 180.345 565.347 180.575C564.488 180.805 563.72 180.744 563.045 180.391C562.37 180.037 561.916 179.425 561.683 178.553L561.649 178.427C561.493 177.9 561.484 177.341 561.622 176.81C561.754 176.325 562.017 175.885 562.382 175.54C562.789 175.177 563.275 174.915 563.801 174.773C564.327 174.632 564.879 174.617 565.413 174.727C565.902 174.844 566.349 175.093 566.706 175.447C567.091 175.839 567.362 176.328 567.491 176.861L567.51 176.992Z" fill="#002026"/>
<path d="M574.036 167.998C573.105 167.435 572.014 167.322 570.761 167.658C569.508 167.993 568.62 168.637 568.096 169.59C567.572 170.543 567.51 171.768 567.912 173.266L568.595 175.815C568.995 177.311 569.661 178.341 570.592 178.906C571.523 179.47 572.615 179.584 573.866 179.247C575.119 178.911 576.008 178.267 576.532 177.314C577.057 176.361 577.118 175.136 576.716 173.639L576.033 171.09C575.632 169.594 574.966 168.563 574.036 167.998ZM575.746 173.966C576.045 175.082 576.021 176.024 575.675 176.793C575.329 177.561 574.646 178.083 573.628 178.356C572.608 178.63 571.756 178.519 571.073 178.026C570.389 177.532 569.898 176.728 569.599 175.613L568.882 172.938C568.584 171.823 568.607 170.881 568.952 170.112C569.297 169.342 569.98 168.821 570.999 168.548C572.018 168.275 572.87 168.385 573.554 168.879C574.239 169.372 574.731 170.176 575.029 171.291L575.746 173.966Z" fill="#002026"/>
<path d="M485.168 185.297C483.588 185.721 482.12 186.489 480.871 187.546C479.622 188.603 478.622 189.922 477.941 191.41C477.261 192.898 476.918 194.518 476.936 196.155C476.954 197.791 477.334 199.403 478.047 200.875C478.76 202.348 479.79 203.645 481.062 204.674C482.335 205.702 483.819 206.437 485.408 206.826C486.997 207.215 488.653 207.248 490.256 206.923C491.86 206.599 493.372 205.924 494.685 204.947C494.73 204.914 494.773 204.881 494.816 204.848C496.856 203.283 498.29 201.058 498.874 198.553C499.457 196.048 499.155 193.419 498.016 191.113C496.878 188.806 494.976 186.966 492.633 185.906C490.29 184.845 487.652 184.63 485.168 185.297ZM491.999 204.854C491.87 204.901 491.737 204.936 491.602 204.961L491.515 204.984C491.463 204.996 491.409 204.991 491.36 204.968C491.312 204.946 491.272 204.908 491.248 204.861C490.946 204.24 489.777 200.381 489.763 200.188C489.746 199.871 489.662 196.978 489.496 196.74L489.333 196.513L489.384 196.789C489.408 196.924 489.026 197.613 488.897 197.662C488.878 197.667 488.849 197.626 488.84 197.614L488.837 197.6L488.822 197.592C488.694 197.518 488.687 196.87 488.682 196.442C488.676 195.858 488.665 195.649 488.567 195.597C488.55 195.589 488.532 195.586 488.514 195.588C488.496 195.59 488.478 195.596 488.464 195.607L488.418 195.638L488.443 195.687C488.505 195.899 488.494 196.125 488.413 196.33C488.404 196.355 488.39 196.378 488.372 196.397C488.353 196.416 488.331 196.43 488.307 196.44C488.125 196.389 487.771 194.66 487.768 193.99L487.756 193.944L487.712 193.929C487.685 193.92 487.656 193.917 487.628 193.922C487.599 193.927 487.573 193.939 487.551 193.958C487.343 194.13 487.423 194.94 487.518 195.741C487.528 195.827 487.539 195.914 487.546 195.98C487.384 195.88 487.214 195.798 487.099 195.829C487.073 195.839 487.05 195.856 487.032 195.878C487.014 195.899 487.002 195.925 486.997 195.953L486.985 196L487.028 196.023C487.553 196.306 487.927 197.925 488.051 198.578C487.833 198.269 487.465 197.794 487.292 197.767C487.271 197.763 487.248 197.766 487.228 197.775C487.208 197.784 487.19 197.799 487.179 197.818L487.112 197.917L487.23 197.913C487.357 197.952 487.812 198.872 488.262 200.285C488.756 201.84 489.436 204.696 489.476 205.048C489.471 205.225 489.454 205.4 489.426 205.575C489.421 205.61 489.417 205.641 489.414 205.665C489.324 205.684 489.231 205.691 489.139 205.683C488.992 205.676 488.846 205.702 488.711 205.76C488.576 205.817 488.455 205.904 488.358 206.014C486.481 206.071 484.625 205.597 483.004 204.647C481.383 203.698 480.063 202.311 479.194 200.646C478.325 198.98 477.943 197.103 478.092 195.231C478.241 193.358 478.914 191.565 480.035 190.058C481.156 188.55 482.679 187.389 484.429 186.708C486.179 186.026 488.087 185.851 489.932 186.204C491.777 186.556 493.485 187.421 494.861 188.7C496.237 189.979 497.225 191.619 497.712 193.434C498.306 195.622 498.13 197.948 497.212 200.022C496.322 202.057 494.781 203.741 492.833 204.808C492.785 204.787 492.736 204.766 492.682 204.75C492.414 204.656 492.206 204.611 491.999 204.854Z" fill="#002026"/>
<path d="M486.569 190.607C486.247 191.011 485.866 191.899 486.06 192.622C486.253 193.344 486.874 193.909 487.415 193.764L487.455 193.753C487.155 193.33 487.017 192.517 487.017 192.517C487.143 192.942 487.322 193.349 487.551 193.728C488 193.496 488.197 192.769 488.021 192.113C487.824 191.375 487.047 190.796 486.569 190.607Z" fill="#002026"/>
<path d="M485.417 193.401L485.442 193.379C485.097 193.167 484.748 192.638 484.748 192.638C484.967 192.899 485.219 193.132 485.497 193.33C485.742 193.031 485.658 192.456 485.33 192.045C484.974 191.599 484.248 191.423 483.852 191.438C483.747 191.822 483.748 192.566 484.111 193.016C484.473 193.465 485.082 193.669 485.417 193.401Z" fill="#002026"/>
<path d="M485.965 193.866C485.438 193.755 484.814 194.064 484.537 194.312C484.696 194.65 485.14 195.186 485.667 195.294C486.194 195.402 486.761 195.187 486.844 194.794C486.846 194.784 486.847 194.774 486.848 194.764C486.477 194.82 485.912 194.642 485.912 194.642C486.225 194.699 486.543 194.715 486.86 194.691C486.851 194.33 486.447 193.967 485.965 193.866Z" fill="#002026"/>
<path d="M484.19 194.111L484.199 194.088C483.957 194.043 483.726 193.955 483.515 193.829C483.739 193.928 483.974 193.997 484.216 194.036C484.278 193.764 484.043 193.419 483.7 193.257C483.326 193.086 482.802 193.2 482.55 193.335C482.605 193.615 482.844 194.095 483.219 194.272C483.594 194.449 484.058 194.393 484.19 194.111Z" fill="#002026"/>
<path d="M491.048 196.192C491.76 195.958 492.294 195.153 492.456 194.663C492.036 194.369 491.126 194.034 490.413 194.263C489.764 194.476 489.267 195.038 489.315 195.541C489.755 195.525 490.191 195.454 490.612 195.329C490.612 195.329 489.85 195.661 489.329 195.642C489.331 195.656 489.335 195.669 489.34 195.682C489.521 196.216 490.336 196.426 491.048 196.192Z" fill="#002026"/>
<path d="M491.378 193.36C491.755 193.27 492.118 193.131 492.459 192.947C492.459 192.947 491.863 193.366 491.412 193.44C491.417 193.453 491.422 193.464 491.429 193.475C491.678 193.898 492.409 193.938 492.979 193.612C493.55 193.286 493.869 192.501 493.922 192.051C493.507 191.868 492.668 191.743 492.097 192.068C491.576 192.366 491.245 192.938 491.378 193.36Z" fill="#002026"/>
<path d="M488.899 192.419C489.041 192.11 489.142 191.785 489.202 191.451C489.202 191.451 489.163 192.077 488.975 192.432L489.006 192.439C489.43 192.504 489.858 192.016 489.944 191.446C490.029 190.876 489.661 190.23 489.38 189.949C489.024 190.137 488.484 190.646 488.402 191.215C488.32 191.736 488.535 192.275 488.899 192.419Z" fill="#002026"/>
<path d="M489.733 194.204C490.135 193.845 490.256 193.16 490.221 192.789C489.862 192.712 489.162 192.755 488.76 193.117C488.394 193.445 488.226 193.961 488.405 194.277C488.692 194.139 488.96 193.966 489.202 193.76C489.202 193.76 488.795 194.199 488.445 194.335C488.451 194.344 488.458 194.352 488.465 194.36C488.734 194.659 489.332 194.564 489.733 194.204Z" fill="#002026"/>
<path d="M490.865 191.859C490.745 192.073 490.587 192.264 490.4 192.423L490.421 192.437C490.675 192.613 491.106 192.434 491.342 192.092C491.578 191.75 491.544 191.216 491.453 190.945C491.166 190.955 490.654 191.112 490.418 191.453C490.202 191.765 490.169 192.181 490.361 192.386C490.55 192.232 490.72 192.055 490.865 191.859Z" fill="#002026"/>
<path d="M493.656 193.852C493.293 193.961 493.006 194.265 493.029 194.543C493.273 194.542 493.517 194.509 493.752 194.444C493.525 194.537 493.283 194.589 493.037 194.598L493.043 194.621C493.131 194.918 493.58 195.047 493.978 194.928C494.377 194.809 494.685 194.372 494.782 194.102C494.553 193.936 494.056 193.744 493.656 193.852Z" fill="#002026"/>
</g>
<defs>
<filter id="filter0_d_980_51208" x="0.701294" y="0.924377" width="1027" height="489.981" filterUnits="userSpaceOnUse" color-interpolation-filters="sRGB">
<feFlood flood-opacity="0" result="BackgroundImageFix"/>
<feColorMatrix in="SourceAlpha" type="matrix" values="0 0 0 0 0 0 0 0 0 0 0 0 0 0 0 0 0 0 127 0" result="hardAlpha"/>
<feOffset dx="-36.9219" dy="79.9975"/>
<feGaussianBlur stdDeviation="46.1524"/>
<feColorMatrix type="matrix" values="0 0 0 0 0.203922 0 0 0 0 0.25098 0 0 0 0 0.329412 0 0 0 0.3 0"/>
<feBlend mode="normal" in2="BackgroundImageFix" result="effect1_dropShadow_980_51208"/>
<feBlend mode="normal" in="SourceGraphic" in2="effect1_dropShadow_980_51208" result="shape"/>
</filter>
<linearGradient id="paint0_linear_980_51208" x1="735.958" y1="72.3649" x2="766.974" y2="93.6883" gradientUnits="userSpaceOnUse">
<stop stop-color="#F7F1B4"/>
<stop offset="1" stop-color="#BEA475"/>
</linearGradient>
<linearGradient id="paint1_linear_980_51208" x1="231.399" y1="51.7594" x2="262.415" y2="73.0828" gradientUnits="userSpaceOnUse">
<stop stop-color="#F7F1B4"/>
<stop offset="1" stop-color="#BEA475"/>
</linearGradient>
<linearGradient id="paint2_linear_980_51208" x1="413.06" y1="13.2317" x2="413.06" y2="248.758" gradientUnits="userSpaceOnUse">
<stop stop-color="white"/>
<stop offset="1" stop-color="white" stop-opacity="0"/>
</linearGradient>
<linearGradient id="paint3_linear_980_51208" x1="426.931" y1="64.1512" x2="457.947" y2="85.4746" gradientUnits="userSpaceOnUse">
<stop stop-color="#F7F1B4"/>
<stop offset="1" stop-color="#BEA475"/>
</linearGradient>
<linearGradient id="paint4_linear_980_51208" x1="526.213" y1="91.2223" x2="557.229" y2="112.546" gradientUnits="userSpaceOnUse">
<stop stop-color="#F7F1B4"/>
<stop offset="1" stop-color="#BEA475"/>
</linearGradient>
<clipPath id="clip0_980_51208">
<rect width="12.1848" height="15.5079" fill="white" transform="translate(739.738 81.1626) rotate(15)"/>
</clipPath>
<clipPath id="clip1_980_51208">
<rect width="12.1848" height="15.5079" fill="white" transform="translate(239.191 57.4563) rotate(-15)"/>
</clipPath>
<clipPath id="clip2_980_51208">
<rect width="12.1848" height="15.5079" fill="white" transform="translate(430.71 72.949) rotate(15)"/>
</clipPath>
<clipPath id="clip3_980_51208">
<rect width="12.1848" height="15.5079" fill="white" transform="translate(534.006 96.9194) rotate(-15)"/>
</clipPath>
</defs>
</svg>
