<svg width="498" height="398" viewBox="0 0 498 398" fill="none" xmlns="http://www.w3.org/2000/svg">
<path opacity="0.05" d="M248.546 397.023C385.789 397.023 497.047 378.056 497.047 354.66C497.047 331.263 385.789 312.296 248.546 312.296C111.303 312.296 0.0449753 331.263 0.0449753 354.66C0.0449753 378.056 111.303 397.023 248.546 397.023Z" fill="url(#paint0_radial_5355_176104)"/>
<path d="M244.46 351.542C244.133 351.314 211.435 328.994 179.677 296.367C133.513 248.964 114.993 187.611 107.576 144.494C99.5621 97.8881 102.366 62.9411 102.48 61.4749L102.694 58.8557L246.852 0.506287L390.996 58.8841L391.209 61.5034C391.337 62.9696 394.127 97.9023 386.113 144.522C378.697 187.64 360.177 248.993 314.027 296.396C282.254 329.022 249.571 351.343 249.243 351.57L246.838 353.193L244.46 351.542Z" fill="url(#paint1_linear_5355_176104)"/>
<path d="M246.852 337.535C236.816 330.246 212.574 311.798 188.858 287.427C113.968 210.516 113.982 93.5749 114.979 67.7241L246.852 14.3286L378.725 67.7384C379.181 79.0552 379.465 107.838 373.415 142.8C366.284 183.982 348.59 242.516 304.845 287.442C281.144 311.798 256.888 330.246 246.852 337.535Z" fill="#2168D1"/>
<g clip-path="url(#clip0_5355_176104)">
<path fill-rule="evenodd" clip-rule="evenodd" d="M247 81.1145C239.582 81.1145 227.188 83.9633 215.524 87.1345C203.591 90.3595 191.562 94.1758 184.489 96.487C181.531 97.4637 178.909 99.2548 176.924 101.655C174.939 104.054 173.671 106.965 173.266 110.054C166.859 158.181 181.726 193.85 199.764 217.446C207.414 227.54 216.535 236.429 226.822 243.816C230.972 246.751 234.82 248.997 238.088 250.535C241.098 251.954 244.334 253.115 247 253.115C249.666 253.115 252.891 251.954 255.912 250.535C259.851 248.62 263.62 246.372 267.178 243.816C277.465 236.429 286.586 227.54 294.236 217.446C312.274 193.85 327.141 158.181 320.734 110.054C320.33 106.964 319.062 104.051 317.077 101.65C315.092 99.2479 312.469 97.4548 309.511 96.4763C299.243 93.1095 288.895 89.9911 278.476 87.1238C266.812 83.974 254.417 81.1145 247 81.1145ZM247 134.865C250.808 134.859 254.495 136.201 257.409 138.653C260.322 141.106 262.273 144.51 262.917 148.263C263.561 152.017 262.855 155.877 260.926 159.16C258.996 162.443 255.967 164.937 252.375 166.201L256.514 187.593C256.664 188.371 256.641 189.173 256.445 189.941C256.25 190.709 255.887 191.424 255.382 192.036C254.878 192.647 254.245 193.139 253.528 193.477C252.811 193.815 252.028 193.99 251.235 193.99H242.764C241.973 193.988 241.191 193.812 240.476 193.473C239.76 193.135 239.128 192.643 238.625 192.031C238.122 191.42 237.76 190.706 237.565 189.938C237.37 189.171 237.347 188.37 237.497 187.593L241.625 166.201C238.033 164.937 235.004 162.443 233.074 159.16C231.145 155.877 230.439 152.017 231.083 148.263C231.727 144.51 233.678 141.106 236.591 138.653C239.505 136.201 243.192 134.859 247 134.865Z" fill="#0043A6"/>
</g>
<defs>
<radialGradient id="paint0_radial_5355_176104" cx="0" cy="0" r="1" gradientUnits="userSpaceOnUse" gradientTransform="translate(248.546 354.653) scale(248.537 42.3563)">
<stop offset="0.0215"/>
<stop offset="0.08" stop-color="#232323"/>
<stop offset="0.1766" stop-color="#565656"/>
<stop offset="0.2777" stop-color="#838383"/>
<stop offset="0.3814" stop-color="#A9A9A9"/>
<stop offset="0.4883" stop-color="#C8C8C8"/>
<stop offset="0.5994" stop-color="#E1E1E1"/>
<stop offset="0.7166" stop-color="#F2F2F2"/>
<stop offset="0.8439" stop-color="#FCFCFC"/>
<stop offset="1" stop-color="white"/>
</radialGradient>
<linearGradient id="paint1_linear_5355_176104" x1="287.17" y1="15.4246" x2="152.648" y2="325.749" gradientUnits="userSpaceOnUse">
<stop stop-color="#156BEB"/>
<stop offset="1" stop-color="#093E8C"/>
</linearGradient>
<clipPath id="clip0_5355_176104">
<rect width="172" height="172" fill="white" transform="translate(161 81.1145)"/>
</clipPath>
</defs>
</svg>
