<svg width="184" height="162" viewBox="0 0 184 162" fill="none" xmlns="http://www.w3.org/2000/svg">
<mask id="mask0_1190_28636" style="mask-type:alpha" maskUnits="userSpaceOnUse" x="4" y="0" width="176" height="279">
<rect x="4.76953" y="0.852295" width="174.524" height="277.185" rx="9.12542" fill="white"/>
</mask>
<g mask="url(#mask0_1190_28636)">
<rect x="-47.7012" y="-0.28833" width="279.154" height="279.154" fill="#1BC1BF"/>
</g>
<g clip-path="url(#clip0_1190_28636)">
<path d="M138.234 58.922C137.945 58.8382 137.651 58.4933 137.589 58.164C137.549 57.9497 137.598 57.8009 137.905 57.2066C139.147 54.805 139.686 52.5949 139.686 49.9123C139.686 47.3199 139.209 45.3027 138.022 42.885C137.767 42.3661 137.559 41.8841 137.559 41.8145C137.559 41.5572 137.774 41.1842 138.007 41.0379C138.327 40.8373 138.862 40.8748 139.119 41.1156C139.217 41.2081 139.473 41.6285 139.688 42.0494C140.537 43.7168 141.118 45.546 141.406 47.4501C141.583 48.6284 141.619 50.8617 141.477 51.9404C141.215 53.9303 140.69 55.7058 139.849 57.4453C139.34 58.4968 139.021 58.9293 138.754 58.9293C138.701 58.9293 138.613 58.9426 138.56 58.959C138.507 58.975 138.361 58.9585 138.234 58.922ZM134.779 57.1142C134.334 56.9848 134.014 56.4395 134.142 56.0309C134.173 55.9319 134.383 55.4762 134.607 55.0182C135.558 53.079 135.954 51.0002 135.76 48.9591C135.601 47.282 135.3 46.2244 134.543 44.6768C134.035 43.6385 134.011 43.4776 134.307 43.0596C134.587 42.6621 135.288 42.5977 135.657 42.9355C135.912 43.1695 136.706 44.8272 137.012 45.7659C138.026 48.8726 137.871 52.2076 136.572 55.2596C135.906 56.8229 135.439 57.3063 134.779 57.1142ZM131.215 55.2808C130.941 55.157 130.704 54.8666 130.64 54.5738C130.601 54.3955 130.668 54.1983 130.994 53.5383C132.191 51.1143 132.204 48.7795 131.033 46.4118C130.52 45.3719 130.508 45.165 130.943 44.7549C131.157 44.5525 131.249 44.5168 131.55 44.5168C132.055 44.5168 132.317 44.7707 132.769 45.6983C133.463 47.125 133.748 48.3628 133.745 49.9486C133.743 51.5785 133.477 52.6975 132.735 54.202C132.31 55.0634 132.1 55.2908 131.675 55.3492C131.545 55.367 131.338 55.3362 131.215 55.2808ZM127.89 53.5731C127.672 53.483 127.424 53.1869 127.35 52.9295C127.268 52.6419 127.335 52.4136 127.662 51.8765C128.082 51.1857 128.18 50.815 128.18 49.9122C128.18 49.0095 128.082 48.6387 127.662 47.9479C127.519 47.7137 127.376 47.4331 127.344 47.3243C127.209 46.8691 127.588 46.3111 128.098 46.2155C128.53 46.1344 128.826 46.3272 129.223 46.9472C130.373 48.7421 130.373 51.1399 129.223 52.9197C128.817 53.5476 128.365 53.7695 127.89 53.5731Z" fill="black"/>
</g>
<rect x="119.978" y="31.9358" width="35.361" height="25.0949" rx="4.27754" transform="rotate(90 119.978 31.9358)" fill="url(#paint0_linear_1190_28636)" stroke="#47453F" stroke-width="0.570339"/>
<path fill-rule="evenodd" clip-rule="evenodd" d="M120.18 54.5477L115.248 49.6163L120.18 44.6849L119.776 44.2816L114.727 49.3311H111.993V31.6506H111.423V44.1989H103.438V31.6506H102.868V44.1989H102.867V44.7692H102.868V49.3311H100.134L95.0846 44.2816L94.6813 44.6849L99.6127 49.6163L94.6813 54.5477L95.0846 54.951L100.134 49.9015H102.868V54.4646H102.867V55.0349H102.868V67.582H103.438V55.0349H111.422V67.5824H111.993V54.7498C111.993 54.5923 111.865 54.4646 111.708 54.4646H103.438V49.6163V44.7692H111.423V49.6163C111.423 49.7738 111.551 49.9015 111.708 49.9015H114.727L119.776 54.951L120.18 54.5477Z" fill="#47453F"/>
<path d="M68.5254 140.551H74.1513V138.222H68.5254V134.982H74.696V132.654H65.9648V146.235H74.8114V143.907H68.5254V140.551Z" fill="white"/>
<path d="M81.7598 132.654H76.1709V134.905H77.959V143.984H76.174V146.235H81.7598C83.5838 146.235 84.9688 145.773 85.9146 144.85C86.8605 143.927 87.3375 142.552 87.3457 140.725V138.164C87.3457 136.34 86.8702 134.966 85.9192 134.042C84.9682 133.117 83.5818 132.655 81.7598 132.654ZM84.7867 140.809C84.7867 141.791 84.5471 142.554 84.068 143.097C83.589 143.641 82.8349 143.911 81.806 143.907H80.5257V134.982H81.806C82.8319 134.982 83.5859 135.25 84.068 135.787C84.5502 136.323 84.7897 137.089 84.7867 138.086V140.809Z" fill="white"/>
<path d="M91.2725 140.551H96.8984V138.222H91.2725V134.982H97.4416V132.654H88.7119V146.235H97.5585V143.907H91.2725V140.551Z" fill="white"/>
<path d="M106.76 144.488H106.411L103.713 132.653H98.8428V146.235H101.366V134.4H101.714L104.412 146.235H109.282V132.653H106.76V144.488Z" fill="white"/>
<path d="M118.803 138.998C117.99 138.645 117.143 138.378 116.275 138.202L115.828 138.105C115.37 138.015 114.921 137.878 114.49 137.698C114.182 137.574 113.912 137.374 113.703 137.116C113.524 136.868 113.432 136.568 113.442 136.262C113.432 136.033 113.478 135.806 113.574 135.599C113.671 135.391 113.815 135.21 113.996 135.069C114.363 134.778 114.935 134.632 115.712 134.632C116.168 134.622 116.622 134.698 117.05 134.856C117.406 134.989 117.709 135.234 117.914 135.554C118.133 135.933 118.24 136.367 118.221 136.805V137.387H120.737V136.805C120.737 135.823 120.521 135.005 120.088 134.351C119.65 133.695 119.03 133.182 118.303 132.877C117.482 132.535 116.6 132.367 115.712 132.383C114.844 132.363 113.982 132.525 113.18 132.857C112.503 133.138 111.921 133.609 111.504 134.212C111.097 134.845 110.89 135.585 110.912 136.337C110.912 137.165 111.09 137.838 111.446 138.355C111.838 138.902 112.369 139.334 112.985 139.606C113.752 139.956 114.555 140.22 115.381 140.392L115.827 140.489C116.33 140.596 116.826 140.735 117.312 140.906C117.66 141.022 117.977 141.218 118.235 141.479C118.455 141.73 118.569 142.056 118.555 142.389C118.56 142.648 118.503 142.904 118.39 143.137C118.277 143.369 118.111 143.572 117.904 143.728C117.472 144.077 116.816 144.252 115.936 144.253C115.056 144.254 114.37 144.049 113.879 143.637C113.374 143.227 113.122 142.616 113.123 141.803V141.268H110.6V141.811C110.573 142.7 110.81 143.577 111.28 144.333C111.74 145.039 112.393 145.598 113.162 145.944C114.919 146.683 116.897 146.693 118.661 145.973C119.383 145.658 120.001 145.147 120.446 144.498C120.873 143.851 121.093 143.09 121.077 142.316C121.077 141.488 120.877 140.809 120.476 140.278C120.035 139.717 119.46 139.277 118.803 138.998Z" fill="white"/>
<path d="M130.162 138.737C129.451 138.435 128.684 138.286 127.912 138.3H126.844V138.106L132.296 134.4V132.654H122.983V133.74H131.094V133.934L125.584 137.68V139.309H127.584C128.187 139.303 128.787 139.404 129.354 139.609C129.86 139.788 130.304 140.109 130.634 140.532C130.951 140.943 131.11 141.486 131.11 142.162V142.279C131.122 142.698 131.047 143.115 130.888 143.502C130.729 143.89 130.49 144.24 130.187 144.529C129.571 145.125 128.704 145.422 127.586 145.421C126.468 145.42 125.576 145.107 124.91 144.481C124.224 143.853 123.881 142.99 123.881 141.891V141.5H122.679V141.87C122.679 142.852 122.889 143.69 123.308 144.383C123.72 145.068 124.324 145.617 125.045 145.963C125.836 146.336 126.702 146.522 127.577 146.506C128.44 146.526 129.297 146.347 130.08 145.983C130.76 145.665 131.335 145.158 131.735 144.523C132.132 143.858 132.334 143.095 132.316 142.321V142.122C132.316 141.282 132.122 140.58 131.735 140.017C131.342 139.45 130.797 139.006 130.162 138.737Z" fill="white"/>
<path d="M140.018 137.862C139.321 137.488 138.54 137.298 137.748 137.31C136.741 137.31 135.949 137.494 135.372 137.862C134.869 138.16 134.447 138.576 134.141 139.075H133.909V136.999C133.909 135.9 134.222 135.037 134.849 134.409C135.476 133.781 136.359 133.468 137.497 133.469C138.611 133.469 139.455 133.74 140.03 134.283C140.606 134.825 140.894 135.544 140.894 136.437H142.095C142.107 135.717 141.926 135.007 141.572 134.38C141.206 133.755 140.667 133.25 140.02 132.926C139.335 132.562 138.495 132.381 137.497 132.382C136.5 132.383 135.64 132.577 134.917 132.964C134.221 133.337 133.651 133.907 133.278 134.603C132.878 135.386 132.68 136.257 132.704 137.136V141.928C132.68 142.791 132.898 143.644 133.335 144.39C133.745 145.066 134.339 145.612 135.048 145.962C135.803 146.32 136.628 146.505 137.464 146.505C138.299 146.505 139.124 146.32 139.88 145.962C140.582 145.614 141.173 145.077 141.586 144.411C142.019 143.692 142.238 142.864 142.217 142.024V141.792C142.239 140.961 142.035 140.139 141.626 139.415C141.242 138.76 140.686 138.223 140.018 137.862ZM141.007 142.004C141.007 143.066 140.678 143.901 140.018 144.508C139.358 145.115 138.505 145.419 137.457 145.419C136.41 145.419 135.557 145.115 134.897 144.508C134.237 143.901 133.907 143.066 133.907 142.004V141.851C133.891 141.205 134.051 140.566 134.369 140.004C134.667 139.493 135.1 139.073 135.62 138.791C136.193 138.503 136.825 138.353 137.467 138.353C138.108 138.353 138.74 138.503 139.313 138.791C139.833 139.073 140.266 139.493 140.564 140.004C140.882 140.567 141.042 141.205 141.026 141.851L141.007 142.004Z" fill="white"/>
<path d="M151.165 133.769C150.279 132.846 149.072 132.384 147.546 132.384C146.019 132.384 144.813 132.846 143.928 133.769C143.042 134.692 142.599 136.067 142.599 137.892V140.997C142.599 142.82 143.042 144.194 143.928 145.119C144.815 146.045 146.02 146.506 147.546 146.504C149.072 146.504 150.279 146.043 151.165 145.119C152.052 144.196 152.494 142.822 152.493 140.997V137.892C152.493 136.069 152.05 134.695 151.165 133.769ZM151.291 141.074C151.291 142.433 150.977 143.497 150.35 144.265C149.722 145.034 148.787 145.418 147.546 145.419C146.304 145.419 145.369 145.035 144.742 144.265C144.115 143.496 143.802 142.432 143.802 141.074V137.815C143.802 136.456 144.115 135.393 144.742 134.623C145.369 133.854 146.304 133.469 147.546 133.469C148.787 133.469 149.722 133.854 150.35 134.623C150.977 135.393 151.291 136.456 151.291 137.815V141.074Z" fill="white"/>
<path d="M44.8743 126.365C42.9486 126.366 41.0469 126.792 39.305 127.613C37.5631 128.434 36.0239 129.629 34.7973 131.113C33.5708 132.598 32.6872 134.335 32.2095 136.2C31.7319 138.066 31.672 140.014 32.0343 141.905C32.3965 143.796 33.1719 145.584 34.305 147.141C35.4381 148.698 36.901 149.986 38.5893 150.912C40.2775 151.838 42.1495 152.38 44.0714 152.499C45.9934 152.619 47.9179 152.312 49.7077 151.601C49.7692 151.578 49.8277 151.553 49.8862 151.529C52.6824 150.371 54.9905 148.278 56.4169 145.609C57.8434 142.94 58.2999 139.858 57.7087 136.89C57.1175 133.921 55.5152 131.25 53.1748 129.331C50.8345 127.411 47.9009 126.363 44.8743 126.365ZM46.6824 150.678C46.5216 150.692 46.36 150.692 46.1992 150.678H46.093C46.0302 150.676 45.9698 150.653 45.9215 150.613C45.8733 150.573 45.8399 150.518 45.8268 150.456C45.6729 149.659 45.519 144.917 45.5621 144.692C45.6391 144.327 46.4254 141.013 46.3084 140.691L46.193 140.383L46.1669 140.713C46.153 140.874 45.5083 141.54 45.3467 141.557C45.3236 141.557 45.3036 141.502 45.2974 141.485V141.468L45.2836 141.454C45.1605 141.331 45.3498 140.593 45.4744 140.105C45.6452 139.438 45.696 139.198 45.6006 139.109C45.5843 139.095 45.5645 139.086 45.5433 139.083C45.5222 139.079 45.5005 139.081 45.4806 139.089L45.419 139.111L45.4329 139.174C45.4383 139.433 45.357 139.687 45.202 139.895C45.1848 139.921 45.162 139.943 45.1354 139.959C45.1088 139.975 45.079 139.985 45.0482 139.988C44.8573 139.875 44.982 137.801 45.182 137.039V136.983L45.1374 136.953C45.1097 136.934 45.0773 136.922 45.0435 136.919C45.0097 136.916 44.9758 136.922 44.9451 136.936C44.6558 137.069 44.5003 138.014 44.3649 138.954C44.3495 139.054 44.3357 139.157 44.3234 139.234C44.1695 139.071 44.0018 138.926 43.8617 138.926C43.829 138.93 43.7976 138.942 43.7707 138.961C43.7438 138.98 43.7222 139.006 43.7079 139.035L43.6802 139.086L43.7217 139.125C44.2326 139.606 44.1649 141.56 44.1064 142.341C43.9525 141.924 43.6786 141.271 43.4909 141.188C43.4672 141.177 43.4408 141.173 43.415 141.177C43.3893 141.182 43.3653 141.193 43.3462 141.211L43.2401 141.303L43.3755 141.334C43.5078 141.417 43.7448 142.602 43.8264 144.346C43.9141 146.263 43.8171 149.718 43.7556 150.13C43.696 150.329 43.6235 150.524 43.5386 150.713C43.5217 150.752 43.5078 150.786 43.497 150.812C43.3883 150.807 43.281 150.785 43.1785 150.749C43.014 150.696 42.8398 150.682 42.6688 150.705C42.4978 150.729 42.3344 150.792 42.1906 150.887C40.0389 150.38 38.0737 149.276 36.5204 147.703C34.9671 146.13 33.8884 144.151 33.4081 141.993C32.9277 139.835 33.0652 137.586 33.8046 135.502C34.5441 133.419 35.8557 131.586 37.589 130.214C39.3222 128.841 41.4071 127.985 43.6046 127.744C45.8021 127.502 48.0232 127.884 50.0134 128.847C52.0036 129.809 53.6823 131.313 54.857 133.186C56.0318 135.059 56.655 137.225 56.6554 139.435C56.6649 142.104 55.7559 144.695 54.0809 146.772C52.4483 148.815 50.1847 150.259 47.6441 150.879C47.5964 150.841 47.5472 150.803 47.4902 150.767C47.2148 150.579 46.9917 150.464 46.6824 150.678Z" fill="white"/>
<path d="M44.8498 132.827C44.3605 133.189 43.6572 134.083 43.6572 134.963C43.6572 135.843 44.1912 136.674 44.8498 136.674H44.899C44.6867 136.102 44.7775 135.136 44.7775 135.136C44.7909 135.657 44.8711 136.174 45.016 136.674C45.5961 136.548 46.0424 135.782 46.0424 134.982C46.0424 134.083 45.3361 133.189 44.8498 132.827Z" fill="white"/>
<path d="M41.7337 139.432C42.251 139.445 42.768 139.394 43.2725 139.278C43.1817 138.694 42.4446 138.213 41.6429 138.161C40.7627 138.112 39.8302 138.764 39.4424 139.238C39.7763 139.746 40.6303 140.499 41.5105 140.548C42.3907 140.597 43.2509 140.103 43.2879 139.444C43.2879 139.428 43.2879 139.411 43.2879 139.395C42.7016 139.577 41.7337 139.432 41.7337 139.432Z" fill="white"/>
<path d="M38.525 138.197C39.2729 138.394 40.0992 138.126 40.2469 137.569C40.2469 137.553 40.2469 137.54 40.2562 137.524C39.7207 137.577 38.9143 137.283 38.9143 137.283C39.3578 137.387 39.813 137.434 40.2685 137.423C40.2916 136.903 39.7407 136.345 39.0574 136.173C38.3096 135.978 37.394 136.375 36.9785 136.709C37.1801 137.204 37.7772 138 38.525 138.197Z" fill="white"/>
<path d="M42.6888 135.653L42.7242 135.636C42.3965 135.289 42.161 134.582 42.161 134.582C42.3302 134.946 42.5453 135.287 42.8012 135.597C43.1705 135.331 43.2505 134.652 43.0028 134.085C42.7335 133.469 41.9625 133.049 41.507 132.944C41.2716 133.349 41.0454 134.195 41.3208 134.817C41.5963 135.439 42.2257 135.856 42.6888 135.653Z" fill="white"/>
<path d="M39.9945 140.915C39.6313 141.223 38.9019 141.405 38.9019 141.405C39.2744 141.258 39.6265 141.065 39.9499 140.829C39.7098 140.442 39.0389 140.317 38.4541 140.522C37.8155 140.748 37.3493 141.488 37.2139 141.936C37.6016 142.197 38.4311 142.476 39.0697 142.243C39.7083 142.011 40.1745 141.414 40.0053 140.937L39.9945 140.915Z" fill="white"/>
<path d="M43.1705 136.348C42.6043 136.062 41.801 136.223 41.4102 136.42C41.4886 136.853 41.8302 137.598 42.3965 137.881C42.9628 138.164 43.6722 138.093 43.8861 137.671C43.8916 137.661 43.8963 137.649 43.8999 137.638C43.4614 137.588 42.8736 137.214 42.8736 137.214C43.2114 137.374 43.5682 137.49 43.9353 137.559C44.0354 137.145 43.6876 136.61 43.1705 136.348Z" fill="white"/>
<path d="M42.8427 141.473C42.6237 141.644 42.3763 141.776 42.1118 141.862C42.3628 141.745 42.5976 141.596 42.8104 141.419C42.6257 141.162 42.1564 141.111 41.7625 141.28C41.3316 141.468 41.0454 142.004 40.9746 142.319C41.2547 142.473 41.841 142.627 42.2718 142.445C42.7027 142.264 42.9951 141.817 42.855 141.496C42.8504 141.488 42.8473 141.479 42.8427 141.473Z" fill="white"/>
<path d="M41.078 136.087L41.0949 136.064C40.8341 135.939 40.5976 135.768 40.3963 135.561C40.6207 135.741 40.8674 135.892 41.1303 136.01C41.2842 135.719 41.121 135.256 40.781 134.967C40.4086 134.659 39.7777 134.628 39.4499 134.705C39.4268 135.041 39.553 135.659 39.9254 135.975C40.2978 136.29 40.8425 136.367 41.078 136.087Z" fill="white"/>
<path d="M38.7636 139.369C38.7644 139.36 38.7644 139.351 38.7636 139.341C38.4817 139.406 38.1905 139.421 37.9035 139.384C38.1916 139.386 38.4787 139.349 38.7575 139.277C38.6959 138.954 38.2789 138.695 37.8342 138.681C37.3464 138.669 36.8386 139.044 36.6309 139.309C36.8247 139.586 37.3095 139.989 37.7973 140.003C38.2851 140.017 38.7529 139.734 38.7636 139.369Z" fill="white"/>
<path d="M48.2398 140.542C49.12 140.492 49.9725 139.74 50.3065 139.232C49.9187 138.77 48.9862 138.112 48.106 138.155C47.3027 138.199 46.5672 138.687 46.4687 139.274C46.9731 139.389 47.4901 139.441 48.0075 139.427C48.0075 139.427 47.0396 139.572 46.4533 139.392C46.4518 139.408 46.4518 139.425 46.4533 139.441C46.4964 140.103 47.3596 140.591 48.2398 140.542Z" fill="white"/>
<path d="M49.4782 137.423C49.9338 137.435 50.3889 137.387 50.8324 137.283C50.8324 137.283 50.0276 137.577 49.4921 137.524C49.4937 137.539 49.4968 137.554 49.5013 137.569C49.6552 138.126 50.4738 138.394 51.2217 138.197C51.9696 138 52.5712 137.204 52.7682 136.709C52.3527 136.375 51.4371 135.978 50.6893 136.173C50.006 136.353 49.4552 136.903 49.4782 137.423Z" fill="white"/>
<path d="M46.9471 135.597C47.2017 135.289 47.4163 134.951 47.5857 134.589C47.5857 134.589 47.3503 135.289 47.0287 135.636L47.0625 135.653C47.5242 135.856 48.1597 135.431 48.4305 134.809C48.7013 134.188 48.4798 133.341 48.2459 132.937C47.7842 133.041 47.0148 133.455 46.7486 134.077C46.4962 134.645 46.5763 135.323 46.9471 135.597Z" fill="white"/>
<path d="M51.2902 140.531C50.707 140.323 50.0361 140.448 49.796 140.838C50.12 141.072 50.4727 141.264 50.8455 141.408C50.8455 141.408 50.1161 141.222 49.7545 140.918C49.7487 140.93 49.7436 140.943 49.7391 140.955C49.5698 141.432 50.0361 142.033 50.6747 142.262C51.3133 142.491 52.1427 142.209 52.5305 141.954C52.3951 141.497 51.9288 140.757 51.2902 140.531Z" fill="white"/>
<path d="M47.3505 137.881C47.9168 137.595 48.263 136.853 48.3369 136.421C47.9522 136.224 47.1428 136.059 46.5765 136.348C46.0595 136.61 45.7117 137.145 45.8194 137.559C46.1871 137.49 46.5444 137.374 46.8827 137.215C46.8827 137.215 46.2857 137.589 45.8471 137.638C45.8513 137.649 45.8564 137.661 45.8625 137.672C46.0764 138.093 46.7858 138.167 47.3505 137.881Z" fill="white"/>
<path d="M47.9833 141.28C47.5909 141.108 47.1215 141.162 46.9353 141.419C47.1481 141.596 47.3829 141.745 47.634 141.862C47.3694 141.776 47.1221 141.644 46.903 141.473C46.8985 141.48 46.8949 141.488 46.8923 141.496C46.7507 141.817 47.0461 142.256 47.4739 142.445C47.9017 142.634 48.4911 142.48 48.7727 142.319C48.7004 142.003 48.4126 141.468 47.9833 141.28Z" fill="white"/>
<path d="M49.3524 135.561C49.1501 135.767 48.9131 135.935 48.6523 136.059L48.6708 136.082C48.9062 136.359 49.4509 136.287 49.8233 135.97C50.1957 135.653 50.3204 135.036 50.2988 134.7C49.9695 134.623 49.3401 134.647 48.9677 134.962C48.6277 135.251 48.463 135.714 48.6184 136.005C48.8807 135.888 49.1273 135.739 49.3524 135.561Z" fill="white"/>
<path d="M51.9173 138.675C51.4711 138.689 51.0525 138.947 50.994 139.271C51.2723 139.343 51.5589 139.38 51.8465 139.378C51.5595 139.415 51.2683 139.4 50.9863 139.335V139.363C50.9956 139.728 51.4664 140.011 51.9558 139.997C52.4451 139.983 52.9283 139.58 53.1206 139.303C52.9114 139.044 52.4051 138.675 51.9173 138.675Z" fill="white"/>
<defs>
<linearGradient id="paint0_linear_1190_28636" x1="120.263" y1="31.9358" x2="156.764" y2="57.0307" gradientUnits="userSpaceOnUse">
<stop stop-color="#F7F1B4"/>
<stop offset="1" stop-color="#BEA475"/>
</linearGradient>
<clipPath id="clip0_1190_28636">
<rect width="14.3399" height="18.2508" fill="white" transform="translate(127.312 40.7761)"/>
</clipPath>
</defs>
</svg>
