<svg width="292" height="495" viewBox="0 0 292 495" fill="none" xmlns="http://www.w3.org/2000/svg">
<rect x="150.34" y="0.194336" width="109.608" height="109.608" rx="19" fill="#E9C300"/>
<path d="M178.249 77.5H231.624V81.25H178.249V77.5Z" fill="white"/>
<path d="M225.905 45.6252C226.411 45.6252 226.895 45.4276 227.253 45.076C227.61 44.7244 227.811 44.2475 227.811 43.7502V38.1252C227.811 37.7398 227.69 37.3639 227.465 37.0485C227.24 36.7332 226.922 36.4937 226.553 36.3627L205.584 28.8627C205.166 28.7137 204.707 28.7137 204.288 28.8627L183.319 36.3627C182.951 36.4937 182.633 36.7332 182.407 37.0485C182.182 37.3639 182.061 37.7398 182.061 38.1252V43.7502C182.061 44.2475 182.262 44.7244 182.62 45.076C182.977 45.4276 183.462 45.6252 183.968 45.6252H185.874V70.0002H182.061V73.7502H227.811V70.0002H223.999V45.6252H225.905ZM185.874 39.4377L204.936 32.6127L223.999 39.4377V41.8752H185.874V39.4377ZM208.749 70.0002H201.124V45.6252H208.749V70.0002ZM189.686 45.6252H197.311V70.0002H189.686V45.6252ZM220.186 70.0002H212.561V45.6252H220.186V70.0002Z" fill="white"/>
<g filter="url(#filter0_f_712_46512)">
<rect x="87" y="213" width="109.608" height="109.608" rx="19" fill="#1BC1BF"/>
<g clip-path="url(#clip0_712_46512)">
<path d="M164.124 251.684H110.804V283.924H172.804V251.684H164.124ZM170.324 275.58C168.918 275.958 167.637 276.699 166.608 277.728C165.579 278.757 164.838 280.038 164.46 281.444H119.148C118.769 280.038 118.028 278.757 116.999 277.728C115.97 276.699 114.689 275.958 113.284 275.58V260.028C114.689 259.649 115.97 258.908 116.999 257.879C118.028 256.85 118.769 255.569 119.148 254.164H164.488C164.901 255.544 165.65 256.8 166.669 257.818C167.688 258.837 168.944 259.586 170.324 259.999V275.58ZM144.428 270.352C144.142 270.178 144.284 270.018 143.044 269.871V273.463L143.723 273.336C144.643 273.014 145.105 272.413 145.105 271.537C145.105 271.03 144.878 270.631 144.428 270.352ZM138.846 264.49C138.846 265.042 139.098 265.458 139.599 265.73C139.791 265.838 140.115 265.958 140.562 266.089V262.69C140.224 262.763 139.902 262.896 139.609 263.08C139.101 263.418 138.846 263.889 138.846 264.49ZM141.804 255.404C135.64 255.404 130.644 260.956 130.644 267.804C130.644 274.65 135.64 280.204 141.804 280.204C147.968 280.204 152.964 274.65 152.964 267.804C152.964 260.956 147.968 255.404 141.804 255.404ZM146.583 274.815C145.741 275.534 144.284 275.974 143.044 276.14V277.724H140.564V276.112C139.269 275.936 138.197 275.74 137.355 275.076C136.817 274.651 136.381 274.112 136.078 273.497C135.776 272.883 135.613 272.209 135.604 271.524H138.689C138.789 271.524 138.985 272.517 139.278 272.868C139.582 273.229 140.013 273.271 140.564 273.423V269.201C139.055 268.853 138.003 268.477 137.419 268.073C136.376 267.36 135.855 266.242 135.855 264.725C135.855 263.34 136.365 262.189 137.386 261.273C138.164 260.572 139.226 260.142 140.564 259.975V257.884H143.044V260.041C144.284 260.226 145.122 260.801 145.896 261.375C147.06 262.24 147.88 262.844 147.936 265.324H144.828C144.77 264.084 144.147 263.548 143.375 263.156C143.258 263.08 143.147 262.994 143.044 262.899V266.797L144.162 267.012C145.351 267.293 146.451 267.667 147.044 268.135C147.967 268.864 148.324 269.917 148.324 271.293C148.326 272.707 147.674 273.88 146.583 274.815Z" fill="white"/>
</g>
</g>
<rect x="230.666" y="144.83" width="70.5947" height="78.0257" rx="19" fill="#002026" fill-opacity="0.1"/>
<path d="M255.202 192.114L249.702 197.504V182.031H255.202V192.114ZM264.368 188.741L261.49 186.284L258.868 188.704V174.698H264.368V188.741ZM273.535 185.698L268.035 191.198V167.364H273.535V185.698ZM278.687 185.349L275.368 182.031H284.535V191.198L281.253 187.916L268.035 201.024L261.673 195.488L254.743 202.198H249.702L261.563 190.574L268.035 196.038" fill="white"/>
<rect x="116.317" y="362.976" width="70.5947" height="78.0257" rx="19" fill="#92CCBF"/>
<path d="M140.853 410.26L135.353 415.65V400.176H140.853V410.26ZM150.019 406.886L147.141 404.43L144.519 406.85V392.843H150.019V406.886ZM159.186 403.843L153.686 409.343V385.51H159.186V403.843ZM164.338 403.495L161.019 400.176H170.186V409.343L166.904 406.061L153.686 419.17L147.324 413.633L140.394 420.343H135.353L147.214 408.72L153.686 414.183" fill="white"/>
<rect x="0.463867" y="64.1719" width="109.608" height="109.608" rx="19" fill="#DFEEE8"/>
<path d="M76.6008 141.642H33.9342C31.0008 141.642 28.6008 139.242 28.6008 136.309V108.442C28.6008 106.709 29.4008 105.109 30.8675 104.042L55.2675 86.9756L79.6675 104.042C81.1342 104.976 81.9342 106.709 81.9342 108.442V136.309C81.9342 139.242 79.5342 141.642 76.6008 141.642Z" fill="#78909C"/>
<path d="M40.6008 86.9756V130.976H69.9342V86.9756H40.6008ZM67.2675 128.309H43.2675V89.6423H67.2675V128.309Z" fill="#558B2F"/>
<path d="M76.6008 141.642H33.9342C31.0008 141.642 28.6008 139.242 28.6008 136.309V109.642L55.2675 126.975L81.9342 109.642V136.309C81.9342 139.242 79.5342 141.642 76.6008 141.642Z" fill="#CFD8DC"/>
<g filter="url(#filter1_f_712_46512)">
<rect x="217.219" y="286.138" width="193.206" height="193.206" rx="19" fill="#DFEEE8"/>
<g clip-path="url(#clip1_712_46512)">
<path d="M355.489 427.012H272.156C266.427 427.012 261.739 422.324 261.739 416.595V362.168C261.739 358.782 263.302 355.657 266.166 353.574L313.823 320.241L361.479 353.574C364.343 355.397 365.906 358.782 365.906 362.168V416.595C365.906 422.324 361.218 427.012 355.489 427.012Z" fill="#78909C"/>
<path d="M287.781 322.845H339.864V403.574H287.781V322.845Z" fill="#AED581"/>
<path d="M285.177 320.241V406.178H342.468V320.241H285.177ZM337.26 400.97H290.385V325.449H337.26V400.97Z" fill="#558B2F"/>
<path d="M292.989 322.845C297.416 322.845 300.802 323.626 300.802 328.053C300.802 332.48 297.416 335.866 292.989 335.866C288.562 335.866 287.781 332.48 287.781 328.053C287.781 323.626 288.562 322.845 292.989 322.845Z" fill="#558B2F"/>
<path d="M355.489 427.012H272.156C266.427 427.012 261.739 422.324 261.739 416.595V364.512L313.823 398.366L365.906 364.512V416.595C365.906 422.324 361.218 427.012 355.489 427.012Z" fill="#CFD8DC"/>
</g>
</g>
<defs>
<filter id="filter0_f_712_46512" x="83" y="209" width="117.607" height="117.607" filterUnits="userSpaceOnUse" color-interpolation-filters="sRGB">
<feFlood flood-opacity="0" result="BackgroundImageFix"/>
<feBlend mode="normal" in="SourceGraphic" in2="BackgroundImageFix" result="shape"/>
<feGaussianBlur stdDeviation="2" result="effect1_foregroundBlur_712_46512"/>
</filter>
<filter id="filter1_f_712_46512" x="202.219" y="271.138" width="223.207" height="223.207" filterUnits="userSpaceOnUse" color-interpolation-filters="sRGB">
<feFlood flood-opacity="0" result="BackgroundImageFix"/>
<feBlend mode="normal" in="SourceGraphic" in2="BackgroundImageFix" result="shape"/>
<feGaussianBlur stdDeviation="7.5" result="effect1_foregroundBlur_712_46512"/>
</filter>
<clipPath id="clip0_712_46512">
<rect width="62" height="62" fill="white" transform="translate(110.804 236.804)"/>
</clipPath>
<clipPath id="clip1_712_46512">
<rect width="125" height="125" fill="white" transform="translate(251.323 320.241)"/>
</clipPath>
</defs>
</svg>
